<svg width="393" height="331" viewBox="0 0 393 331" fill="none" xmlns="http://www.w3.org/2000/svg">
<path d="M203.52 0.410156H169.16C167.227 0.410156 165.66 1.97716 165.66 3.91016V38.2701C165.66 40.2031 167.227 41.7701 169.16 41.7701H203.52C205.453 41.7701 207.02 40.2031 207.02 38.2701V3.91016C207.02 1.97716 205.453 0.410156 203.52 0.410156Z" fill="#263238"/>
<path d="M248.42 0.410156H214.06C212.127 0.410156 210.56 1.97716 210.56 3.91016V38.2701C210.56 40.2031 212.127 41.7701 214.06 41.7701H248.42C250.353 41.7701 251.92 40.2031 251.92 38.2701V3.91016C251.92 1.97716 250.353 0.410156 248.42 0.410156Z" fill="#263238"/>
<path d="M158.62 0.410156H124.26C122.327 0.410156 120.76 1.97716 120.76 3.91016V38.2701C120.76 40.2031 122.327 41.7701 124.26 41.7701H158.62C160.553 41.7701 162.12 40.2031 162.12 38.2701V3.91016C162.12 1.97716 160.553 0.410156 158.62 0.410156Z" fill="#263238"/>
<path d="M135 9.68994L129.16 13.7899V32.5099H147.88L153.73 28.4099V9.68994H135Z" fill="#03E5E5"/>
<path opacity="0.6" d="M129.16 13.7899L135 9.68994H153.73L147.88 13.7899H129.16Z" fill="white"/>
<path opacity="0.3" d="M153.73 9.68994V28.4099L147.88 32.5099V13.7899L153.73 9.68994Z" fill="black"/>
<path opacity="0.2" d="M135 9.68994L129.16 13.7899V32.5099H147.88L153.73 28.4099V9.68994H135Z" fill="white"/>
<path d="M392.28 198L392.59 197.86H115.89L115.58 198H115.22L0.620117 245.93H1.00012L0.690117 246.06H277.36L277.68 245.93H278L392.64 198H392.28ZM375.64 204.71H351.44L367.19 198.13H391.39L375.64 204.71ZM142.13 218.71H166.33L150.59 225.29H126.39L142.13 218.71ZM125.45 225.29H101.25L117 218.67H141.2L125.45 225.29ZM242.36 218.45H218.16L233.91 211.86H258.11L242.36 218.45ZM259 211.82H283.2L267.46 218.41H243.3L259 211.82ZM192.36 218.67H216.56L200.82 225.25H176.65L192.36 218.67ZM175.68 225.25H151.48L167.22 218.67H191.43L175.68 225.25ZM217.49 218.67H241.7L226 225.25H201.8L217.49 218.67ZM217.19 218.41H193L208.74 211.82H233L217.19 218.41ZM192.05 218.41H167.85L183.6 211.82H207.8L192.05 218.41ZM166.92 218.41H142.72L158.46 211.82H182.66L166.92 218.41ZM149.92 225.52L134.18 232.1H110L125.75 225.52H149.92ZM150.85 225.52H175.1L159.35 232.1H135.15L150.85 225.52ZM175.99 225.52H200.19L184.44 232.1H160.24L175.99 225.52ZM201.12 225.52H225.32L209.58 232.1H185.38L201.12 225.52ZM226.26 225.52H250.46L234.71 232.1H210.51L226.26 225.52ZM226.88 225.25L242.63 218.67H266.83L251.09 225.25H226.88ZM267.76 218.67H292L276.25 225.25H252.05L267.76 218.67ZM268.39 218.41L284.14 211.82H308.34L292.59 218.41H268.39ZM284.76 211.56L300.55 205H324.75L309 211.56H284.76ZM283.83 211.56H259.63L275.41 205H299.61L283.83 211.56ZM258.69 211.56H234.49L250.28 205H274.48L258.69 211.56ZM233.56 211.56H209.4L225.14 205H249.34L233.56 211.56ZM208.43 211.56H184.26L200 205H224.2L208.43 211.56ZM183.29 211.56H159.09L174.87 205H199.08L183.29 211.56ZM158.16 211.56H134L149.74 205H173.94L158.16 211.56ZM157.53 211.82L141.78 218.41H117.58L133.33 211.82H157.53ZM116.65 218.41H92.4501L108.19 211.82H132.39L116.65 218.41ZM116.02 218.67L100.28 225.25H76.0801L91.8201 218.67H116.02ZM99.6501 225.52L84.0001 232.1H59.7401L75.4901 225.52H99.6501ZM100.58 225.52H124.79L109.04 232.1H84.8401L100.58 225.52ZM108.41 232.36L92.7101 239H68.5101L84.2501 232.41L108.41 232.36ZM109.35 232.36H133.55L117.84 239H93.6401L109.35 232.36ZM134.48 232.36H158.68L143 239H118.8L134.48 232.36ZM159.62 232.36H183.82L168.11 239H143.91L159.62 232.36ZM184.75 232.36H209L193.25 239H169.05L184.75 232.36ZM209.89 232.36H234.09L218.38 239H194.18L209.89 232.36ZM235.02 232.36H259.22L243.52 239H219.32L235.02 232.36ZM235.65 232.1L251.39 225.52H275.59L259.85 232.1H235.65ZM276.53 225.52H300.73L285 232.1H260.8L276.53 225.52ZM277.15 225.25L292.9 218.67H317.1L301.36 225.25H277.15ZM293.52 218.41L309.27 211.82H333.47L317.73 218.41H293.52ZM309.9 211.56L325.68 205H349.88L334.14 211.59L309.9 211.56ZM326.27 204.71L342.01 198.13H366.22L350.47 204.71H326.27ZM325.33 204.71H301.13L316.88 198.13H341.08L325.33 204.71ZM300.2 204.71H276L291.74 198.13H316L300.2 204.71ZM275.07 204.71H250.9L266.65 198.13H290.85L275.07 204.71ZM249.93 204.71H225.73L241.47 198.13H265.68L249.93 204.71ZM224.8 204.71H200.63L216.38 198.13H240.58L224.8 204.71ZM199.66 204.71H175.5L191.25 198.13H215.45L199.66 204.71ZM174.53 204.71H150.33L166.07 198.13H190.27L174.53 204.71ZM149.39 204.71H125.19L141 198.13H165.2L149.39 204.71ZM148.77 204.97L133.02 211.56H108.82L124.6 205L148.77 204.97ZM107.89 211.56H83.7201L99.4701 205H123.67L107.89 211.56ZM107.26 211.82L91.5101 218.41H67.3101L83.0601 211.82H107.26ZM90.8901 218.67L75.1401 225.25H51.0001L66.7501 218.67H90.8901ZM74.5201 225.52L58.7701 232.1H34.6101L50.3501 225.52H74.5201ZM58.1401 232.36L42.4401 239H18.2401L34.0001 232.36H58.1401ZM59.0801 232.36H83.2801L67.5701 239H43.3701L59.0801 232.36ZM66.9101 239.21L51.2001 245.8H27.0001L42.7501 239.21H66.9101ZM67.8401 239.21H92.0401L76.3001 245.8H52.1001L67.8401 239.21ZM92.9801 239.21H117.18L101.43 245.8H77.2301L92.9801 239.21ZM118.11 239.21H142.31L126.57 245.8H102.4L118.11 239.21ZM143.24 239.21H167.45L151.7 245.8H127.5L143.24 239.21ZM168.38 239.21H192.58L176.84 245.8H152.67L168.38 239.21ZM193.51 239.21H217.72L202 245.8H177.8L193.51 239.21ZM218.65 239.21H242.85L227.11 245.8H202.94L218.65 239.21ZM243.78 239.21H268L252.25 245.8H228.05L243.78 239.21ZM244.41 238.95L260.15 232.36H284.4L268.65 239L244.41 238.95ZM285.29 232.36H309.49L293.79 239H269.58L285.29 232.36ZM285.92 232.1L301.66 225.52H325.86L310.12 232.1H285.92ZM302.29 225.25L318.03 218.67H342.23L326.49 225.25H302.29ZM318.66 218.41L334.4 211.82H358.61L342.86 218.41H318.66ZM335.03 211.56L350.82 205H375L359.25 211.59L335.03 211.56ZM140 198.13L124.26 204.71H100.1L115.84 198.13H140ZM17.6101 239.21H41.8101L26.0701 245.8H1.87012L17.6101 239.21ZM253.21 245.8L269 239.21H293.2L277.45 245.8H253.21Z" fill="#03E5E5"/>
<g opacity="0.4">
<path d="M392.28 198L392.59 197.86H115.89L115.58 198H115.22L0.620117 245.93H1.00012L0.690117 246.06H277.36L277.68 245.93H278L392.64 198H392.28ZM375.64 204.71H351.44L367.19 198.13H391.39L375.64 204.71ZM142.13 218.71H166.33L150.59 225.29H126.39L142.13 218.71ZM125.45 225.29H101.25L117 218.67H141.2L125.45 225.29ZM242.36 218.45H218.16L233.91 211.86H258.11L242.36 218.45ZM259 211.82H283.2L267.46 218.41H243.3L259 211.82ZM192.36 218.67H216.56L200.82 225.25H176.65L192.36 218.67ZM175.68 225.25H151.48L167.22 218.67H191.43L175.68 225.25ZM217.49 218.67H241.7L226 225.25H201.8L217.49 218.67ZM217.19 218.41H193L208.74 211.82H233L217.19 218.41ZM192.05 218.41H167.85L183.6 211.82H207.8L192.05 218.41ZM166.92 218.41H142.72L158.46 211.82H182.66L166.92 218.41ZM149.92 225.52L134.18 232.1H110L125.75 225.52H149.92ZM150.85 225.52H175.1L159.35 232.1H135.15L150.85 225.52ZM175.99 225.52H200.19L184.44 232.1H160.24L175.99 225.52ZM201.12 225.52H225.32L209.58 232.1H185.38L201.12 225.52ZM226.26 225.52H250.46L234.71 232.1H210.51L226.26 225.52ZM226.88 225.25L242.63 218.67H266.83L251.09 225.25H226.88ZM267.76 218.67H292L276.25 225.25H252.05L267.76 218.67ZM268.39 218.41L284.14 211.82H308.34L292.59 218.41H268.39ZM284.76 211.56L300.55 205H324.75L309 211.56H284.76ZM283.83 211.56H259.63L275.41 205H299.61L283.83 211.56ZM258.69 211.56H234.49L250.28 205H274.48L258.69 211.56ZM233.56 211.56H209.4L225.14 205H249.34L233.56 211.56ZM208.43 211.56H184.26L200 205H224.2L208.43 211.56ZM183.29 211.56H159.09L174.87 205H199.08L183.29 211.56ZM158.16 211.56H134L149.74 205H173.94L158.16 211.56ZM157.53 211.82L141.78 218.41H117.58L133.33 211.82H157.53ZM116.65 218.41H92.4501L108.19 211.82H132.39L116.65 218.41ZM116.02 218.67L100.28 225.25H76.0801L91.8201 218.67H116.02ZM99.6501 225.52L84.0001 232.1H59.7401L75.4901 225.52H99.6501ZM100.58 225.52H124.79L109.04 232.1H84.8401L100.58 225.52ZM108.41 232.36L92.7101 239H68.5101L84.2501 232.41L108.41 232.36ZM109.35 232.36H133.55L117.84 239H93.6401L109.35 232.36ZM134.48 232.36H158.68L143 239H118.8L134.48 232.36ZM159.62 232.36H183.82L168.11 239H143.91L159.62 232.36ZM184.75 232.36H209L193.25 239H169.05L184.75 232.36ZM209.89 232.36H234.09L218.38 239H194.18L209.89 232.36ZM235.02 232.36H259.22L243.52 239H219.32L235.02 232.36ZM235.65 232.1L251.39 225.52H275.59L259.85 232.1H235.65ZM276.53 225.52H300.73L285 232.1H260.8L276.53 225.52ZM277.15 225.25L292.9 218.67H317.1L301.36 225.25H277.15ZM293.52 218.41L309.27 211.82H333.47L317.73 218.41H293.52ZM309.9 211.56L325.68 205H349.88L334.14 211.59L309.9 211.56ZM326.27 204.71L342.01 198.13H366.22L350.47 204.71H326.27ZM325.33 204.71H301.13L316.88 198.13H341.08L325.33 204.71ZM300.2 204.71H276L291.74 198.13H316L300.2 204.71ZM275.07 204.71H250.9L266.65 198.13H290.85L275.07 204.71ZM249.93 204.71H225.73L241.47 198.13H265.68L249.93 204.71ZM224.8 204.71H200.63L216.38 198.13H240.58L224.8 204.71ZM199.66 204.71H175.5L191.25 198.13H215.45L199.66 204.71ZM174.53 204.71H150.33L166.07 198.13H190.27L174.53 204.71ZM149.39 204.71H125.19L141 198.13H165.2L149.39 204.71ZM148.77 204.97L133.02 211.56H108.82L124.6 205L148.77 204.97ZM107.89 211.56H83.7201L99.4701 205H123.67L107.89 211.56ZM107.26 211.82L91.5101 218.41H67.3101L83.0601 211.82H107.26ZM90.8901 218.67L75.1401 225.25H51.0001L66.7501 218.67H90.8901ZM74.5201 225.52L58.7701 232.1H34.6101L50.3501 225.52H74.5201ZM58.1401 232.36L42.4401 239H18.2401L34.0001 232.36H58.1401ZM59.0801 232.36H83.2801L67.5701 239H43.3701L59.0801 232.36ZM66.9101 239.21L51.2001 245.8H27.0001L42.7501 239.21H66.9101ZM67.8401 239.21H92.0401L76.3001 245.8H52.1001L67.8401 239.21ZM92.9801 239.21H117.18L101.43 245.8H77.2301L92.9801 239.21ZM118.11 239.21H142.31L126.57 245.8H102.4L118.11 239.21ZM143.24 239.21H167.45L151.7 245.8H127.5L143.24 239.21ZM168.38 239.21H192.58L176.84 245.8H152.67L168.38 239.21ZM193.51 239.21H217.72L202 245.8H177.8L193.51 239.21ZM218.65 239.21H242.85L227.11 245.8H202.94L218.65 239.21ZM243.78 239.21H268L252.25 245.8H228.05L243.78 239.21ZM244.41 238.95L260.15 232.36H284.4L268.65 239L244.41 238.95ZM285.29 232.36H309.49L293.79 239H269.58L285.29 232.36ZM285.92 232.1L301.66 225.52H325.86L310.12 232.1H285.92ZM302.29 225.25L318.03 218.67H342.23L326.49 225.25H302.29ZM318.66 218.41L334.4 211.82H358.61L342.86 218.41H318.66ZM335.03 211.56L350.82 205H375L359.25 211.59L335.03 211.56ZM140 198.13L124.26 204.71H100.1L115.84 198.13H140ZM17.6101 239.21H41.8101L26.0701 245.8H1.87012L17.6101 239.21ZM253.21 245.8L269 239.21H293.2L277.45 245.8H253.21Z" fill="#E5E7EB"/>
</g>
<path d="M302.51 4.41016C295.72 4.40818 289.082 6.41992 283.435 10.1909C277.788 13.962 273.386 19.3229 270.786 25.5957C268.186 31.8685 267.505 38.7714 268.829 45.4315C270.152 52.0915 273.421 58.2095 278.222 63.0116C283.022 67.8137 289.139 71.0843 295.799 72.4098C302.459 73.7352 309.362 73.0559 315.635 70.4579C321.909 67.8598 327.271 63.4597 331.044 57.8139C334.817 52.1682 336.83 45.5304 336.83 38.7402C336.82 29.6402 333.201 20.9159 326.767 14.4804C320.333 8.04486 311.61 4.42339 302.51 4.41016ZM334.81 37.7402H307.5L332.7 27.2002C333.987 30.571 334.7 34.1336 334.81 37.7402ZM331.92 25.3502L303.51 37.2302V6.44016C309.537 6.63437 315.389 8.50745 320.409 11.8484C325.428 15.1894 329.415 19.8656 331.92 25.3502ZM301.51 6.44016V37.7402H270.22C270.483 29.5239 273.863 21.7157 279.675 15.9021C285.487 10.0884 293.294 6.70532 301.51 6.44016ZM297.51 39.7402L272.31 50.2802C271.019 46.9104 270.306 43.3471 270.2 39.7402H297.51ZM273.09 52.1201L301.49 40.2402V71.0002C295.471 70.8066 289.626 68.9368 284.612 65.6012C279.598 62.2657 275.615 57.5968 273.11 52.1201H273.09ZM303.51 71.0002V39.7402H334.81C334.538 47.9511 331.151 55.7507 325.338 61.5562C319.525 67.3616 311.721 70.738 303.51 71.0002Z" fill="#03E5E5"/>
<g opacity="0.6">
<path d="M302.51 4.41016C295.72 4.40818 289.082 6.41992 283.435 10.1909C277.788 13.962 273.386 19.3229 270.786 25.5957C268.186 31.8685 267.505 38.7714 268.829 45.4315C270.152 52.0915 273.421 58.2095 278.222 63.0116C283.022 67.8137 289.139 71.0843 295.799 72.4098C302.459 73.7352 309.362 73.0559 315.635 70.4579C321.909 67.8598 327.271 63.4597 331.044 57.8139C334.817 52.1682 336.83 45.5304 336.83 38.7402C336.82 29.6402 333.201 20.9159 326.767 14.4804C320.333 8.04486 311.61 4.42339 302.51 4.41016ZM334.81 37.7402H307.5L332.7 27.2002C333.987 30.571 334.7 34.1336 334.81 37.7402ZM331.92 25.3502L303.51 37.2302V6.44016C309.537 6.63437 315.389 8.50745 320.409 11.8484C325.428 15.1894 329.415 19.8656 331.92 25.3502ZM301.51 6.44016V37.7402H270.22C270.483 29.5239 273.863 21.7157 279.675 15.9021C285.487 10.0884 293.294 6.70532 301.51 6.44016ZM297.51 39.7402L272.31 50.2802C271.019 46.9104 270.306 43.3471 270.2 39.7402H297.51ZM273.09 52.1201L301.49 40.2402V71.0002C295.471 70.8066 289.626 68.9368 284.612 65.6012C279.598 62.2657 275.615 57.5968 273.11 52.1201H273.09ZM303.51 71.0002V39.7402H334.81C334.538 47.9511 331.151 55.7507 325.338 61.5562C319.525 67.3616 311.721 70.738 303.51 71.0002Z" fill="white"/>
</g>
<path d="M302.51 0.419922L300.17 6.98992H304.86L302.51 0.419922Z" fill="#03E5E5"/>
<path d="M340.83 38.7401L334.26 36.3901V41.0801L340.83 38.7401Z" fill="#03E5E5"/>
<path d="M267.5 53.6003L274.47 53.1603L272.61 48.8403L267.5 53.6003Z" fill="#03E5E5"/>
<path d="M271.77 52.6003C271.535 52.6058 271.306 52.5284 271.123 52.3818C270.939 52.2353 270.813 52.0288 270.767 51.7987C270.72 51.5685 270.756 51.3293 270.868 51.123C270.981 50.9167 271.162 50.7565 271.38 50.6703L302.13 37.8103C302.376 37.7082 302.651 37.7077 302.897 37.809C303.143 37.9103 303.338 38.105 303.44 38.3503C303.542 38.5956 303.543 38.8715 303.442 39.1172C303.34 39.3628 303.146 39.5582 302.9 39.6603L272.15 52.5203C272.03 52.5716 271.901 52.5987 271.77 52.6003Z" fill="#03E5E5"/>
<path d="M302.51 39.7399C302.245 39.7399 301.991 39.6346 301.803 39.447C301.616 39.2595 301.51 39.0051 301.51 38.7399V5.41992C301.51 5.15471 301.616 4.90035 301.803 4.71281C301.991 4.52528 302.245 4.41992 302.51 4.41992C302.775 4.41992 303.03 4.52528 303.217 4.71281C303.405 4.90035 303.51 5.15471 303.51 5.41992V38.7399C303.51 39.0051 303.405 39.2595 303.217 39.447C303.03 39.6346 302.775 39.7399 302.51 39.7399Z" fill="#03E5E5"/>
<path d="M335.83 39.7402H302.51C302.245 39.7402 301.991 39.6349 301.803 39.4473C301.616 39.2598 301.51 39.0055 301.51 38.7402C301.51 38.475 301.616 38.2207 301.803 38.0331C301.991 37.8456 302.245 37.7402 302.51 37.7402H335.83C336.095 37.7402 336.35 37.8456 336.537 38.0331C336.725 38.2207 336.83 38.475 336.83 38.7402C336.83 39.0055 336.725 39.2598 336.537 39.4473C336.35 39.6349 336.095 39.7402 335.83 39.7402Z" fill="#03E5E5"/>
<path d="M386.69 127.74H347.09C345.544 127.74 344.29 128.994 344.29 130.54V136.5C344.29 138.047 345.544 139.3 347.09 139.3H386.69C388.237 139.3 389.49 138.047 389.49 136.5V130.54C389.49 128.994 388.237 127.74 386.69 127.74Z" fill="#03E5E5"/>
<path opacity="0.4" d="M386.69 127.74H347.09C345.544 127.74 344.29 128.994 344.29 130.54V136.5C344.29 138.047 345.544 139.3 347.09 139.3H386.69C388.237 139.3 389.49 138.047 389.49 136.5V130.54C389.49 128.994 388.237 127.74 386.69 127.74Z" fill="white"/>
<path d="M386.69 141.13H347.09C345.544 141.13 344.29 142.384 344.29 143.93V149.89C344.29 151.437 345.544 152.69 347.09 152.69H386.69C388.237 152.69 389.49 151.437 389.49 149.89V143.93C389.49 142.384 388.237 141.13 386.69 141.13Z" fill="#03E5E5"/>
<path opacity="0.4" d="M386.69 141.13H347.09C345.544 141.13 344.29 142.384 344.29 143.93V149.89C344.29 151.437 345.544 152.69 347.09 152.69H386.69C388.237 152.69 389.49 151.437 389.49 149.89V143.93C389.49 142.384 388.237 141.13 386.69 141.13Z" fill="white"/>
<path d="M386.69 154.52H347.09C345.544 154.52 344.29 155.774 344.29 157.32V163.28C344.29 164.826 345.544 166.08 347.09 166.08H386.69C388.237 166.08 389.49 164.826 389.49 163.28V157.32C389.49 155.774 388.237 154.52 386.69 154.52Z" fill="#03E5E5"/>
<path opacity="0.4" d="M386.69 154.52H347.09C345.544 154.52 344.29 155.774 344.29 157.32V163.28C344.29 164.826 345.544 166.08 347.09 166.08H386.69C388.237 166.08 389.49 164.826 389.49 163.28V157.32C389.49 155.774 388.237 154.52 386.69 154.52Z" fill="white"/>
<path d="M386.69 167.91H347.09C345.544 167.91 344.29 169.164 344.29 170.71V176.67C344.29 178.217 345.544 179.47 347.09 179.47H386.69C388.237 179.47 389.49 178.217 389.49 176.67V170.71C389.49 169.164 388.237 167.91 386.69 167.91Z" fill="#03E5E5"/>
<path opacity="0.4" d="M386.69 167.91H347.09C345.544 167.91 344.29 169.164 344.29 170.71V176.67C344.29 178.217 345.544 179.47 347.09 179.47H386.69C388.237 179.47 389.49 178.217 389.49 176.67V170.71C389.49 169.164 388.237 167.91 386.69 167.91Z" fill="white"/>
<path d="M386.69 181.3H347.09C345.544 181.3 344.29 182.554 344.29 184.1V190.06C344.29 191.607 345.544 192.86 347.09 192.86H386.69C388.237 192.86 389.49 191.607 389.49 190.06V184.1C389.49 182.554 388.237 181.3 386.69 181.3Z" fill="#03E5E5"/>
<path opacity="0.4" d="M386.69 181.3H347.09C345.544 181.3 344.29 182.554 344.29 184.1V190.06C344.29 191.607 345.544 192.86 347.09 192.86H386.69C388.237 192.86 389.49 191.607 389.49 190.06V184.1C389.49 182.554 388.237 181.3 386.69 181.3Z" fill="white"/>
<path d="M387.92 0.410156H356.54C355.679 0.410156 354.98 1.10859 354.98 1.97015V97.6402C354.98 98.5017 355.679 99.2001 356.54 99.2001H387.92C388.782 99.2001 389.48 98.5017 389.48 97.6402V1.97015C389.48 1.10859 388.782 0.410156 387.92 0.410156Z" fill="#03E5E5"/>
<path opacity="0.4" d="M369.62 4.32031H360.41C359.648 4.32031 359.03 4.93816 359.03 5.70031V14.9103C359.03 15.6725 359.648 16.2903 360.41 16.2903H369.62C370.382 16.2903 371 15.6725 371 14.9103V5.70031C371 4.93816 370.382 4.32031 369.62 4.32031Z" fill="white"/>
<path opacity="0.4" d="M384.06 4.32031H374.85C374.088 4.32031 373.47 4.93816 373.47 5.70031V14.9103C373.47 15.6725 374.088 16.2903 374.85 16.2903H384.06C384.822 16.2903 385.44 15.6725 385.44 14.9103V5.70031C385.44 4.93816 384.822 4.32031 384.06 4.32031Z" fill="white"/>
<path opacity="0.4" d="M369.62 18.3203H360.41C359.648 18.3203 359.03 18.9382 359.03 19.7003V28.9103C359.03 29.6725 359.648 30.2903 360.41 30.2903H369.62C370.382 30.2903 371 29.6725 371 28.9103V19.7003C371 18.9382 370.382 18.3203 369.62 18.3203Z" fill="white"/>
<path opacity="0.4" d="M384.06 18.3203H374.85C374.088 18.3203 373.47 18.9382 373.47 19.7003V28.9103C373.47 29.6725 374.088 30.2903 374.85 30.2903H384.06C384.822 30.2903 385.44 29.6725 385.44 28.9103V19.7003C385.44 18.9382 384.822 18.3203 384.06 18.3203Z" fill="white"/>
<path opacity="0.4" d="M369.62 32.3203H360.41C359.648 32.3203 359.03 32.9382 359.03 33.7003V42.9103C359.03 43.6725 359.648 44.2903 360.41 44.2903H369.62C370.382 44.2903 371 43.6725 371 42.9103V33.7003C371 32.9382 370.382 32.3203 369.62 32.3203Z" fill="white"/>
<path opacity="0.4" d="M384.06 32.3203H374.85C374.088 32.3203 373.47 32.9382 373.47 33.7003V42.9103C373.47 43.6725 374.088 44.2903 374.85 44.2903H384.06C384.822 44.2903 385.44 43.6725 385.44 42.9103V33.7003C385.44 32.9382 384.822 32.3203 384.06 32.3203Z" fill="white"/>
<path opacity="0.4" d="M369.62 46.3203H360.41C359.648 46.3203 359.03 46.9381 359.03 47.7003V56.9103C359.03 57.6725 359.648 58.2903 360.41 58.2903H369.62C370.382 58.2903 371 57.6725 371 56.9103V47.7003C371 46.9381 370.382 46.3203 369.62 46.3203Z" fill="white"/>
<path opacity="0.4" d="M384.06 46.3203H374.85C374.088 46.3203 373.47 46.9381 373.47 47.7003V56.9103C373.47 57.6725 374.088 58.2903 374.85 58.2903H384.06C384.822 58.2903 385.44 57.6725 385.44 56.9103V47.7003C385.44 46.9381 384.822 46.3203 384.06 46.3203Z" fill="white"/>
<path opacity="0.4" d="M369.62 83.3203H360.41C359.648 83.3203 359.03 83.9381 359.03 84.7003V93.9103C359.03 94.6725 359.648 95.2903 360.41 95.2903H369.62C370.382 95.2903 371 94.6725 371 93.9103V84.7003C371 83.9381 370.382 83.3203 369.62 83.3203Z" fill="white"/>
<path opacity="0.4" d="M384.06 83.3203H374.85C374.088 83.3203 373.47 83.9381 373.47 84.7003V93.9103C373.47 94.6725 374.088 95.2903 374.85 95.2903H384.06C384.822 95.2903 385.44 94.6725 385.44 93.9103V84.7003C385.44 83.9381 384.822 83.3203 384.06 83.3203Z" fill="white"/>
<path opacity="0.4" d="M369.62 69.3203H360.41C359.648 69.3203 359.03 69.9381 359.03 70.7003V79.9103C359.03 80.6725 359.648 81.2903 360.41 81.2903H369.62C370.382 81.2903 371 80.6725 371 79.9103V70.7003C371 69.9381 370.382 69.3203 369.62 69.3203Z" fill="white"/>
<path opacity="0.4" d="M384.06 69.3203H374.85C374.088 69.3203 373.47 69.9381 373.47 70.7003V79.9103C373.47 80.6725 374.088 81.2903 374.85 81.2903H384.06C384.822 81.2903 385.44 80.6725 385.44 79.9103V70.7003C385.44 69.9381 384.822 69.3203 384.06 69.3203Z" fill="white"/>
<path d="M179.91 9.68994L174.06 13.7899V32.5099H192.78L198.63 28.4099V9.68994H179.91Z" fill="#03E5E5"/>
<path opacity="0.2" d="M192.78 13.79H174.06V32.51H192.78V13.79Z" fill="white"/>
<path opacity="0.2" d="M198.62 9.68018H179.9V28.4002H198.62V9.68018Z" fill="white"/>
<path opacity="0.6" d="M174.06 13.7899L179.91 9.68994H198.63L192.78 13.7899H174.06Z" fill="white"/>
<path opacity="0.3" d="M198.63 9.68994V28.4099L192.78 32.5099V13.7899L198.63 9.68994Z" fill="black"/>
<path opacity="0.3" d="M174.06 32.5102L179.91 28.4102H198.63L192.78 32.5102H174.06Z" fill="black"/>
<path opacity="0.2" d="M244 9.59003C244 9.59003 244 9.59004 244 9.53004C243.98 9.48638 243.953 9.44596 243.92 9.41004L243.86 9.35004H243.8C243.744 9.3397 243.686 9.3397 243.63 9.35004H243.56H224.8C224.694 9.35033 224.589 9.3816 224.5 9.44004L218.66 13.55L218.59 13.64C218.541 13.7085 218.506 13.787 218.49 13.87C218.49 13.87 218.49 13.87 218.49 13.94V32.66C218.49 32.72 218.49 32.76 218.55 32.81C218.61 32.86 218.55 32.92 218.55 32.96C218.595 33.0221 218.654 33.0732 218.721 33.1096C218.789 33.1459 218.864 33.1666 218.94 33.17H237.66C237.771 33.1676 237.879 33.1328 237.97 33.07L243.81 28.97L243.86 28.92C243.94 28.8282 243.986 28.7117 243.99 28.59V9.69004C243.99 9.69004 244 9.63003 244 9.59003ZM224.28 10.7V13.26H220.63L224.28 10.7ZM219.49 14.32H224.28V28.13L219.49 31.49V14.32ZM237.16 32H220.63L224.97 29H237.16V32ZM237.16 27.9H225.33V14.32H237.16V27.9ZM237.52 13.28H225.33V10.21H241.86L240.24 11.35L237.52 13.28ZM238.21 31.51V28.95H241.86L238.21 31.51ZM243 27.9H238.21V14.06L240.09 12.75L243 10.75V27.9Z" fill="white"/>
<path d="M244.05 9.69004C244.05 9.69004 244.05 9.63003 244.05 9.59003C244.05 9.55003 244.05 9.59004 244.05 9.53004C244.03 9.48638 244.003 9.44596 243.97 9.41004L243.91 9.35004H243.85C243.794 9.3397 243.736 9.3397 243.68 9.35004H243.61H224.8C224.694 9.35033 224.589 9.3816 224.5 9.44004L218.66 13.55L218.59 13.64C218.541 13.7085 218.506 13.787 218.49 13.87C218.49 13.87 218.49 13.87 218.49 13.94V32.66C218.49 32.72 218.49 32.76 218.55 32.81C218.61 32.86 218.55 32.92 218.55 32.96C218.595 33.0221 218.654 33.0732 218.721 33.1096C218.789 33.1459 218.864 33.1666 218.94 33.17H237.66C237.771 33.1676 237.879 33.1328 237.97 33.07L243.81 28.97L243.86 28.92C243.94 28.8282 243.986 28.7117 243.99 28.59L244.05 9.69004ZM238.21 27.88V14.06L240.09 12.75L243 10.75V27.93L238.21 27.88ZM219.49 14.32H224.28V28.13L219.49 31.49V14.32ZM225 28.93H237.19V31.93H220.63L225 28.93ZM225.36 27.88V14.32H237.19V27.88H225.36ZM241.89 10.21L240.27 11.35L237.55 13.26H225.33V10.21H241.89ZM224.31 10.7V13.26H220.66L224.31 10.7ZM238.24 28.93H241.89L238.24 31.49V28.93Z" fill="#03E5E5"/>
<path d="M214.35 150.48C201.23 132.63 184.76 122.48 177.56 127.74L144.56 152C137.36 157.29 142.16 176.05 155.28 193.9C168.4 211.75 184.88 221.9 192.08 216.65L225.08 192.39C232.28 187.1 227.48 168.34 214.35 150.48Z" fill="#03E5E5"/>
<path opacity="0.4" d="M225.087 192.37C232.287 187.077 227.485 168.314 214.361 150.461C201.237 132.608 184.761 122.426 177.561 127.719C170.361 133.012 175.164 151.775 188.288 169.628C201.411 187.481 217.887 197.663 225.087 192.37Z" fill="white"/>
<path d="M175 179.44C168.44 170.51 160.2 165.44 156.6 168.07L114.17 199.25C110.57 201.9 112.97 211.25 119.53 220.25C126.09 229.25 134.33 234.25 137.93 231.62L180.36 200.43C183.92 197.75 181.52 188.37 175 179.44Z" fill="#03E5E5"/>
<path opacity="0.3" d="M180.31 200.39L168.9 208.78C158.75 199.84 150.649 188.816 145.15 176.46L156.56 168.07C160.16 165.42 168.4 170.51 174.96 179.44C181.52 188.37 183.91 197.74 180.31 200.39Z" fill="black"/>
<path opacity="0.3" d="M180.323 200.368C183.923 197.722 181.522 188.34 174.96 179.414C168.398 170.487 160.16 165.396 156.56 168.043C152.96 170.689 155.361 180.071 161.923 188.997C168.485 197.924 176.723 203.015 180.323 200.368Z" fill="white"/>
<path opacity="0.3" d="M137.89 231.58C134.29 234.22 126.05 229.13 119.49 220.21C112.93 211.29 110.49 201.9 114.13 199.21C117.77 196.52 125.97 201.66 132.53 210.58C139.09 219.5 141.49 228.93 137.89 231.58Z" fill="black"/>
<path opacity="0.3" d="M192.091 216.624C199.291 211.332 194.489 192.568 181.365 174.716C168.241 156.863 151.766 146.681 144.566 151.973C137.366 157.266 142.168 176.029 155.292 193.882C168.416 211.735 184.891 221.917 192.091 216.624Z" fill="black"/>
<path d="M241.81 130.3C219.15 99.4698 190.71 81.8898 178.27 91.0298L160 104.48C147.57 113.61 155.86 146.01 178.51 176.84C201.16 207.67 229.6 225.25 242 216.11L260.3 202.66C272.76 193.52 264.47 161.13 241.81 130.3Z" fill="#03E5E5"/>
<path opacity="0.3" d="M242.043 216.078C254.476 206.938 246.186 174.541 223.527 143.717C200.867 112.893 172.419 95.3136 159.986 104.453C147.554 113.593 155.844 145.99 178.503 176.814C201.162 207.639 229.61 225.218 242.043 216.078Z" fill="black"/>
<path opacity="0.4" d="M260.329 202.636C272.762 193.496 264.472 161.099 241.813 130.274C219.153 99.4502 190.706 81.8713 178.273 91.0109C165.84 100.15 174.13 132.548 196.789 163.372C219.448 194.196 247.896 211.775 260.329 202.636Z" fill="white"/>
<path d="M269 110.29C255.88 92.4397 239.4 82.2897 232.2 87.5497L199.2 111.8C192 117.09 196.8 135.86 209.92 153.71C223.04 171.56 239.52 181.71 246.72 176.45L279.72 152.2C287 146.91 282.16 128.14 269 110.29Z" fill="#03E5E5"/>
<path opacity="0.3" d="M246.764 176.436C253.964 171.143 249.161 152.38 236.037 134.527C222.914 116.674 206.438 106.492 199.238 111.785C192.038 117.078 196.84 135.841 209.964 153.694C223.088 171.547 239.564 181.729 246.764 176.436Z" fill="black"/>
<path opacity="0.4" d="M279.763 152.173C286.963 146.881 282.161 128.117 269.037 110.264C255.913 92.4115 239.438 82.2294 232.238 87.5221C225.038 92.8149 229.84 111.578 242.964 129.431C256.088 147.284 272.564 157.466 279.763 152.173Z" fill="white"/>
<path d="M60.93 92C60.93 92 47.43 115.66 46.43 121.33C45.43 127 57.93 163.25 57.93 163.25C57.93 163.25 55.18 172.8 58.18 174.4C61.18 176 66.42 179.25 67.18 176.5C67.94 173.75 67.18 164.68 67.18 164.68L64.93 162.75C64.93 162.75 56.93 124.88 56.93 123.56C56.93 122.24 71.44 99.91 71.44 99.91L60.93 92Z" fill="#E4897B"/>
<path d="M69.2101 76C62.2101 79.05 44.4401 108.41 44.6101 121C44.7801 133.59 55.0701 154.7 55.0701 154.7L62.9201 153.22C62.9201 153.22 60.0001 123.45 61.0001 119.57C62.0001 115.69 73.3701 100.05 73.3701 100.05L69.2101 76Z" fill="#FFAB03"/>
<path opacity="0.2" d="M61.0001 119.57C60.0601 123.45 62.9401 153.19 62.9401 153.19L55.0901 154.67C55.0901 154.67 44.8001 133.57 44.6301 120.97C44.4601 108.37 62.2101 79.0202 69.2301 75.9702L72.6001 95.5802L73.3701 100.05C73.3701 100.05 67.2401 108.44 63.5901 114.45C62.5214 116.045 61.6516 117.764 61.0001 119.57Z" fill="white"/>
<path opacity="0.2" d="M73.3501 100.05C73.3501 100.05 67.2201 108.44 63.5701 114.45C62.9501 105.35 67.4801 94.7404 69.2101 91.0504C69.6101 90.2004 69.8601 89.7104 69.8601 89.7104L72.5801 95.5804L73.3501 100.05Z" fill="black"/>
<path d="M110.69 323L118.81 323.85L119.22 319.15L120.32 306.36L112.22 305.5L110.99 319.63L110.69 323Z" fill="#E4897B"/>
<path d="M70.2202 321.97H78.0702L78.1502 320.19L78.1602 319.97L78.5602 308.57V308.34L78.7202 303.97H70.8602L70.2202 321.97Z" fill="#E4897B"/>
<path opacity="0.2" d="M112.22 305.5L110.99 319.63L119.22 319.15L120.32 306.36L112.22 305.5Z" fill="black"/>
<path opacity="0.2" d="M70.27 320.97H70.28L78.15 319.97H78.16L78.56 308.97L70.67 309.6L70.28 320.63L70.27 320.97Z" fill="black"/>
<path d="M79.1601 321.5H69.6101C69.4538 321.501 69.3024 321.555 69.1806 321.653C69.0589 321.751 68.9741 321.887 68.9401 322.04L67.3901 329.04C67.328 329.341 67.388 329.654 67.5567 329.911C67.7254 330.168 67.9892 330.347 68.2901 330.41C68.3732 330.42 68.4571 330.42 68.5401 330.41C71.6301 330.36 73.8801 330.17 77.7601 330.17C80.1501 330.17 87.3601 330.42 90.6601 330.42C93.9601 330.42 94.3901 327.16 93.0401 326.86C86.9801 325.54 82.4201 323.71 80.4801 321.97C80.1171 321.649 79.6442 321.481 79.1601 321.5Z" fill="#263238"/>
<path d="M119.66 321.25H110.11C109.954 321.251 109.802 321.305 109.681 321.403C109.559 321.501 109.474 321.637 109.44 321.79L107.89 328.79C107.828 329.091 107.888 329.404 108.057 329.661C108.225 329.918 108.489 330.097 108.79 330.16C108.873 330.17 108.957 330.17 109.04 330.16C112.13 330.11 114.38 329.92 118.26 329.92C120.65 329.92 127.86 330.17 131.16 330.17C134.46 330.17 134.89 326.91 133.54 326.61C127.48 325.29 122.92 323.46 120.98 321.72C120.617 321.399 120.144 321.231 119.66 321.25Z" fill="#263238"/>
<path d="M121.07 318H109.54C109.54 318 110.48 218.75 98.0102 185.23C97.1302 196.31 96.1402 207.81 95.1702 217.39C94.5602 223.32 93.9602 228.39 93.3902 232.29C89.7602 257.29 80.6002 319 80.6002 319H69.2102C69.2102 319 70.5602 259.87 71.9102 235.3C73.4002 208.6 74.0002 150 74.1002 145H115.82C119.79 166 130 250 121.07 318Z" fill="#263238"/>
<path d="M100.67 56.8404C100.57 57.2304 100.46 57.6004 100.33 57.9604C99.5889 60.0417 98.2322 61.8483 96.4401 63.1404C95.9816 63.4616 95.5003 63.749 95.0001 64.0004C93.1017 65.0108 90.9257 65.3748 88.8018 65.0374C86.6779 64.6999 84.7219 63.6794 83.2301 62.1304C79.2901 58.1304 79.4001 53.5604 78.9501 45.7804C78.8196 43.967 79.1547 42.1503 79.9236 40.5027C80.6924 38.8552 81.8694 37.4314 83.3431 36.3665C84.8167 35.3016 86.538 34.6309 88.3436 34.4181C90.1492 34.2053 91.9793 34.4574 93.6601 35.1504C101.31 38.2804 102.36 49.8404 100.67 56.8404Z" fill="#E4897B"/>
<path opacity="0.2" d="M96.44 63.1403C95.9814 63.4614 95.5002 63.7488 95 64.0003C93.6965 64.6909 92.2555 65.0825 90.7817 65.1465C89.308 65.2105 87.8384 64.9453 86.48 64.3702C86.8286 63.4376 87.2958 62.5537 87.87 61.7403C90.8019 61.37 93.7783 61.8563 96.44 63.1403Z" fill="black"/>
<path d="M80.8 73.22C84.63 76.7 94.01 75.42 94.01 75.42C94.01 75.42 99.86 73.81 98.64 71.98C95.19 71.41 93.5101 69.8 92.8201 67.74C92.4456 66.4624 92.33 65.1229 92.48 63.8C92.53 63.07 92.64 62.33 92.76 61.6L81.17 53C82.69 58.68 84.55 69.11 80.8 73.22Z" fill="#E4897B"/>
<path d="M91.4702 31.8103C91.4702 31.8103 96.5202 29.6903 100.03 33.0003C103.03 35.7903 101.03 40.0903 102.86 43.6603C104.69 47.2303 98.1802 49.5703 98.1802 49.5703C98.1802 49.5703 96.4802 53.2403 93.5102 53.0103C93.5102 53.0103 91.0902 55.9503 91.5102 59.0103C91.9302 62.0703 87.5102 64.4403 81.6102 64.3603C75.7102 64.2803 78.0502 60.5803 78.0502 60.5803C76.3342 58.5971 74.9467 56.3521 73.9402 53.9303C72.7391 50.9808 72.1636 47.8139 72.2502 44.6303C72.1944 42.9774 72.4691 41.33 73.0581 39.7846C73.647 38.2392 74.5385 36.8269 75.6802 35.6303C79.5902 31.1503 89.0002 28.9103 91.4702 31.8103Z" fill="#263238"/>
<path d="M92.0002 50.3202C92.1509 51.0519 92.4612 51.7413 92.9088 52.3393C93.3565 52.9374 93.9306 53.4294 94.5902 53.7802C96.1702 54.4502 97.2102 52.2202 96.9902 49.8802C96.7702 47.8102 95.7002 44.8802 93.9902 45.2802C92.2802 45.6802 91.4702 48.2302 92.0002 50.3202Z" fill="#E4897B"/>
<path opacity="0.2" d="M98 185.15C97.12 196.23 96.13 207.75 95.16 217.33C93.74 203.5 92 193.64 92 193.64C92 193.64 90.37 192.3 85.89 185.15C81.41 178 85.89 164.65 85.89 164.65C85.76 177.05 98 185.15 98 185.15Z" fill="black"/>
<path d="M122.36 314.72L121.8 317.97H108.18V314.97L122.36 314.72Z" fill="#FFAB03"/>
<path d="M81.9102 315.97L80.6002 318.97H69.1702L68.4202 315.97H81.9102Z" fill="#FFAB03"/>
<path d="M73.7202 151.81V157.94L117.44 154.88V149.44L73.7202 151.81Z" fill="#FFAB03"/>
<path opacity="0.2" d="M73.7202 151.81V157.94L117.44 154.88V149.44L73.7202 151.81Z" fill="white"/>
<path d="M119.57 146.75C119.609 147.3 119.538 147.853 119.361 148.375C119.184 148.898 118.904 149.38 118.537 149.792C118.171 150.205 117.726 150.54 117.229 150.779C116.731 151.017 116.191 151.153 115.64 151.18L74.64 153.18C74.3267 153.198 74.0131 153.151 73.7184 153.044C73.4236 152.936 73.1538 152.77 72.9255 152.555C72.6972 152.339 72.5151 152.08 72.3904 151.792C72.2656 151.504 72.2009 151.194 72.2 150.88C71.94 125.88 63.39 80.4901 69.2 75.9701C75.2 71.3001 104.87 68.8501 104.87 68.8501C106.256 72.1168 107.468 75.4548 108.5 78.8501C108.63 79.2801 108.77 79.7101 108.89 80.1501C110.59 85.7701 112.02 91.8301 113.25 97.9701C113.34 98.3801 113.42 98.8001 113.5 99.2101C116.421 114.929 118.447 130.801 119.57 146.75Z" fill="#FFAB03"/>
<path opacity="0.4" d="M119.57 146.75C119.609 147.3 119.538 147.853 119.361 148.375C119.184 148.898 118.904 149.38 118.537 149.792C118.171 150.205 117.726 150.54 117.229 150.779C116.731 151.017 116.191 151.153 115.64 151.18L74.64 153.18C74.3267 153.198 74.0131 153.151 73.7184 153.044C73.4236 152.936 73.1538 152.77 72.9255 152.555C72.6972 152.339 72.5151 152.08 72.3904 151.792C72.2656 151.504 72.2009 151.194 72.2 150.88C71.94 125.88 63.39 80.4901 69.2 75.9701C75.2 71.3001 104.87 68.8501 104.87 68.8501C106.256 72.1168 107.468 75.4548 108.5 78.8501C108.63 79.2801 108.77 79.7101 108.89 80.1501C110.59 85.7701 112.02 91.8301 113.25 97.9701C113.34 98.3801 113.42 98.8001 113.5 99.2101C116.421 114.929 118.447 130.801 119.57 146.75Z" fill="white"/>
<path d="M97.0002 69.6501C97.0002 69.6501 92.4702 66.1001 84.0002 66.2801C75.5302 66.4601 74.6702 69.6501 74.6702 69.6501C74.6702 69.6501 65.3302 74.3101 72.6702 81.9701C80.0102 89.6301 94.4402 70.2101 94.4402 70.2101L97.0002 69.6501Z" fill="#FFAB03"/>
<path opacity="0.2" d="M97.0002 69.6501C97.0002 69.6501 92.4702 66.1001 84.0002 66.2801C75.5302 66.4601 74.6702 69.6501 74.6702 69.6501C74.6702 69.6501 65.3302 74.3101 72.6702 81.9701C80.0102 89.6301 94.4402 70.2101 94.4402 70.2101L97.0002 69.6501Z" fill="white"/>
<path opacity="0.2" d="M113.26 98.0002C109.421 92.924 107.06 86.8846 106.44 80.5502L108.9 80.1802C110.6 85.7802 112 91.8402 113.26 98.0002Z" fill="black"/>
<path d="M110.23 69.0003C110.23 69.0003 139.84 63.0003 144 61.3903C148.16 59.7803 170.17 38.7603 170.17 38.7603L175 42.4002C175 42.4002 158.51 63.8103 150.26 70.0003C142.01 76.1903 113.13 85.4903 113.13 85.4903L110.23 69.0003Z" fill="#E4897B"/>
<path d="M170.18 38.7602C172.55 36.0502 181.18 30.2002 182.45 29.7002C183.72 29.2002 185.56 36.8502 185.18 37.8502C184.8 38.8502 180.57 40.9702 178.44 41.2202C176.31 41.4702 174.01 43.6602 174.01 43.6602L170.18 38.7602Z" fill="#E4897B"/>
<path d="M104.88 68.8501C104.88 68.8501 104.48 82.8501 111.45 89.7101C111.45 89.7101 136.45 82.38 149.88 73.29C158.154 67.5031 164.67 59.544 168.71 50.29C168.71 50.29 166.38 45.9 163.27 45.29C163.27 45.29 145.33 59.73 135.44 61.69C125.55 63.65 104 68.8501 104 68.8501" fill="#FFAB03"/>
<path opacity="0.2" d="M104.88 68.8501C104.88 68.8501 104.48 82.8501 111.45 89.7101C111.45 89.7101 136.45 82.38 149.88 73.29C158.154 67.5031 164.67 59.544 168.71 50.29C168.71 50.29 166.38 45.9 163.27 45.29C163.27 45.29 145.33 59.73 135.44 61.69C125.55 63.65 104 68.8501 104 68.8501" fill="white"/>
<path d="M162.88 45.5504L164.71 42.9204L170.65 49.6504L168.34 51.1604L162.88 45.5504Z" fill="#FFAB03"/>
<path d="M54.6001 153.69L62.7301 151.15L63.5101 153.69L54.6001 156.56V153.69Z" fill="#FFAB03"/>
</svg>
