<svg width="402" height="406" viewBox="0 0 402 406" fill="none" xmlns="http://www.w3.org/2000/svg">
<path d="M42.45 220.52L185.22 203.58" stroke="#FFAB03" stroke-miterlimit="10" stroke-dasharray="5 5"/>
<path d="M46.48 157.43L189.44 190.31" stroke="#FFAB03" stroke-miterlimit="10" stroke-dasharray="5 5"/>
<path d="M69.2999 104.4L183.4 174.21" stroke="#FFAB03" stroke-miterlimit="10" stroke-dasharray="5 5"/>
<path d="M129 68L197 172" stroke="#FFAB03" stroke-miterlimit="10" stroke-dasharray="5 5"/>
<path d="M201.52 51.3799V169.51" stroke="#FFAB03" stroke-miterlimit="10" stroke-dasharray="5 5"/>
<path d="M304.2 47.3599L216.28 172.86" stroke="#FFAB03" stroke-miterlimit="10" stroke-dasharray="5 5"/>
<path d="M351.19 93.6699L220.98 181.59" stroke="#FFAB03" stroke-miterlimit="10" stroke-dasharray="5 5"/>
<path d="M347.83 162.12L223.66 192.33" stroke="#FFAB03" stroke-miterlimit="10" stroke-dasharray="5 5"/>
<path d="M345.15 244.68L229.03 207.76" stroke="#FFAB03" stroke-miterlimit="10" stroke-dasharray="5 5"/>
<path d="M115.13 53.0702L120.5 53.8402L121.95 47.4902L116.89 45.8902C116.833 44.3576 116.515 42.846 115.95 41.4202L119.77 37.8202L115.7 32.7202L111.42 35.6002C110.149 34.6597 108.72 33.9552 107.2 33.5202L106.78 28.4102H100.26L99.84 33.5002C98.3175 33.9316 96.8849 34.6327 95.61 35.5702L91.32 32.6902L87.26 37.7902L91.06 41.3702C90.4749 42.7924 90.1367 44.3041 90.06 45.8402L85 47.4402L86.52 53.8002L91.86 53.0302C92.5963 54.3125 93.5351 55.4674 94.64 56.4502L92.64 61.5602L98.52 64.3902L101.3 59.6302C102.02 59.7571 102.749 59.824 103.48 59.8302C104.201 59.8233 104.919 59.7597 105.63 59.6402L108.42 64.4102L114.3 61.5802L112.3 56.4802C113.425 55.5076 114.382 54.3554 115.13 53.0702ZM97.34 46.4102C97.338 45.1922 97.6971 44.0011 98.3719 42.9872C99.0467 41.9733 100.007 41.1822 101.131 40.7139C102.255 40.2455 103.493 40.1209 104.688 40.3559C105.883 40.5908 106.982 41.1747 107.845 42.0338C108.708 42.8929 109.298 43.9886 109.538 45.1825C109.779 46.3764 109.661 47.6148 109.198 48.7413C108.735 49.8679 107.948 50.8319 106.938 51.5116C105.927 52.1913 104.738 52.5562 103.52 52.5602C102.71 52.5628 101.908 52.4057 101.159 52.098C100.41 51.7902 99.7288 51.3378 99.1548 50.7666C98.5808 50.1953 98.1251 49.5166 97.8137 48.769C97.5023 48.0215 97.3413 47.2199 97.34 46.4102Z" fill="#03E5E5" stroke="#111827" stroke-linejoin="round"/>
<path d="M136.77 30.67L140.42 31.2L141.42 26.88L137.98 25.79C137.936 24.7612 137.72 23.7471 137.34 22.79L139.93 20.34L137.17 16.88L134.26 18.88C133.396 18.2413 132.424 17.7637 131.39 17.47L131.11 14H126.68L126.4 17.46C125.365 17.7522 124.389 18.2262 123.52 18.86L120.61 16.86L117.85 20.32L120.43 22.75C120.044 23.7058 119.825 24.7203 119.78 25.75L116.34 26.84L117.34 31.16L120.97 30.64C121.469 31.5113 122.108 32.295 122.86 32.96L121.52 36.44L125.52 38.36L127.42 35.13C127.909 35.214 128.404 35.2575 128.9 35.26C129.386 35.2557 129.87 35.2155 130.35 35.14L132.25 38.38L136.25 36.45L134.92 32.99C135.661 32.3243 136.286 31.5404 136.77 30.67ZM124.69 26.15C124.69 25.3233 124.935 24.5151 125.394 23.8277C125.854 23.1403 126.507 22.6046 127.27 22.2882C128.034 21.9718 128.875 21.889 129.685 22.0503C130.496 22.2116 131.241 22.6097 131.826 23.1943C132.41 23.7789 132.808 24.5237 132.97 25.3345C133.131 26.1454 133.048 26.9858 132.732 27.7496C132.415 28.5134 131.88 29.1662 131.192 29.6255C130.505 30.0848 129.697 30.33 128.87 30.33C128.321 30.33 127.777 30.2219 127.27 30.0118C126.763 29.8017 126.302 29.4939 125.914 29.1057C125.526 28.7176 125.218 28.2568 125.008 27.7496C124.798 27.2425 124.69 26.6989 124.69 26.15Z" fill="#FFAB03"/>
<path d="M262.21 388.21C261.62 386.45 234.73 372.8 224.55 367.68H253.61C252.73 367.984 251.965 368.553 251.422 369.31C250.879 370.067 250.585 370.973 250.579 371.904C250.573 372.836 250.856 373.746 251.389 374.509C251.922 375.273 252.679 375.853 253.555 376.168C254.432 376.483 255.384 376.519 256.282 376.269C257.179 376.02 257.977 375.499 258.566 374.777C259.154 374.056 259.505 373.169 259.568 372.24C259.631 371.311 259.405 370.385 258.92 369.59C259.313 369.721 259.734 369.747 260.141 369.667C260.548 369.586 260.926 369.401 261.24 369.13C262.24 368.41 262.45 364.79 259.8 363.13C257.49 361.66 221.54 360.92 212.09 360.75V329.5H219.48V296.66H193.89V329.5H201.28V360.74C188.93 360.98 158.58 361.74 156.46 363.06C153.81 364.75 154.05 368.37 155.02 369.06C155.517 369.469 156.147 369.679 156.79 369.65C156.402 370.315 156.195 371.07 156.19 371.84C156.188 372.665 156.412 373.475 156.84 374.182C157.267 374.888 157.881 375.463 158.613 375.844C159.345 376.225 160.168 376.398 160.992 376.342C161.816 376.287 162.608 376.006 163.283 375.53C163.958 375.055 164.488 374.402 164.817 373.645C165.146 372.888 165.261 372.055 165.148 371.237C165.035 370.419 164.699 369.648 164.178 369.009C163.656 368.369 162.968 367.885 162.19 367.61H191.75C181.56 372.73 154.68 386.38 154.09 388.14C153.712 389.654 153.785 391.246 154.3 392.72C154.164 393.232 154.093 393.76 154.09 394.29C154.087 395.366 154.365 396.425 154.899 397.361C155.432 398.296 156.201 399.075 157.13 399.621C158.058 400.166 159.113 400.458 160.19 400.469C161.266 400.48 162.327 400.208 163.266 399.681C164.205 399.153 164.989 398.389 165.54 397.465C166.092 396.54 166.391 395.487 166.409 394.41C166.427 393.334 166.162 392.271 165.641 391.329C165.12 390.387 164.361 389.597 163.44 389.04C174.05 384.41 206.54 372.89 208.17 372.68C209.77 372.88 241.22 384.03 252.35 388.8C251.373 389.291 250.545 390.034 249.951 390.952C249.356 391.869 249.017 392.928 248.967 394.021C248.917 395.113 249.159 396.199 249.667 397.167C250.176 398.134 250.933 398.95 251.86 399.528C252.788 400.107 253.853 400.428 254.946 400.459C256.039 400.49 257.12 400.23 258.079 399.704C259.038 399.179 259.84 398.408 260.402 397.471C260.965 396.533 261.268 395.463 261.28 394.37C262.37 392.512 262.703 390.306 262.21 388.21ZM256.75 367.68H256.62H256.71H256.75Z" fill="#263238" stroke="#263238" stroke-linejoin="round"/>
<path d="M167.19 198.9C164.632 201.39 161.484 203.19 158.04 204.13C144.52 207.55 134.95 199.34 128.41 216.77C121.87 234.2 134.08 269.05 149.33 280.38C164.58 291.71 188.98 299.55 220.33 286.92C251.68 274.29 280.89 239.86 283.94 205C286.99 170.14 203.59 174.75 194.94 178.77C186.29 182.79 167.19 198.9 167.19 198.9Z" fill="#E5E7EB" stroke="#263238" stroke-linejoin="round"/>
<path d="M201.22 139.85C201.22 139.85 196.4 142.39 195.13 145.94C193.86 149.49 178.37 177.21 178.37 177.21C178.37 177.21 176.85 151.06 174.56 136.08C172.27 121.1 169.75 103.79 166.18 96.2097C162.61 88.6297 153.99 82.4997 150.44 81.2097C146.89 79.9197 146.63 82.2097 149.44 83.9997C152.25 85.7897 156.55 91.8697 156.55 91.8697L158.84 96.4397C158.84 96.4397 151.22 105.83 151.22 110.66C151.22 115.49 161.12 121.07 161.12 121.07C161.12 121.07 152.74 177.69 155.03 188.07C157.32 198.45 163.15 208.89 167.22 209.91C171.29 210.93 191.34 196.7 191.34 196.7C191.34 196.7 203.75 157.88 204.75 150.51C205.75 143.14 205.54 138.32 201.22 139.85Z" fill="#EBB376" stroke="#263238" stroke-linejoin="round"/>
<path d="M201.22 139.85C201.22 139.85 196.4 142.39 195.13 145.94C193.86 149.49 178.37 177.21 178.37 177.21C178.37 177.21 178.06 171.84 177.5 164.58C169.18 170.42 160.5 168.58 155.5 166.72C154.63 176.4 154.24 184.72 154.99 188.13C157.27 198.54 163.11 208.95 167.18 209.97C171.25 210.99 191.3 196.76 191.3 196.76C191.3 196.76 203.75 157.88 204.75 150.51C205.75 143.14 205.54 138.32 201.22 139.85Z" fill="#03E5E5" stroke="#263238" stroke-linejoin="round"/>
<path d="M178.37 177.21C178.37 177.21 178.88 184.83 179.13 190.16" stroke="#263238" stroke-linejoin="round"/>
<path d="M149.44 100.08C149.44 100.08 145.25 103.58 145.59 105.97C145.93 108.36 153.11 115.19 155.33 114.51C157.55 113.83 158.57 113.65 156.33 110.67C154.09 107.69 151.04 104.01 150.53 102.67C150.02 101.33 149.44 100.08 149.44 100.08Z" fill="#EBB376" stroke="#263238" stroke-linejoin="round"/>
<path d="M158.82 96.4297C158.82 96.4297 152 96.7497 150.63 98.0297C149.26 99.3097 149.01 102.39 151.83 106.23C154.65 110.07 156.61 112.54 157.72 111.35C158.83 110.16 158.57 108.53 157.55 106.82C156.696 105.299 155.925 103.733 155.24 102.13L158.74 98.0297L158.82 96.4297Z" fill="#EBB376" stroke="#263238" stroke-linejoin="round"/>
<path d="M145.59 105.97C145.59 105.97 143.03 110.24 144.83 112.72C146.63 115.2 152.42 118.52 154.39 117.58C156.36 116.64 155.33 114.51 155.33 114.51C153.6 113.662 151.967 112.629 150.46 111.43C148.648 109.787 147.015 107.957 145.59 105.97Z" fill="#EBB376" stroke="#263238" stroke-linejoin="round"/>
<path d="M167.96 101.21C167.96 101.21 162.07 95.7696 158.82 96.3896C157.36 96.6696 151.96 101.21 150.95 103.25C149.94 105.29 151.45 106.04 152.95 105.53C154.45 105.02 160.82 102.74 160.82 102.74C160.82 102.74 158.82 111.12 160.82 113.4C162.82 115.68 169.2 115.69 169.2 115.69" fill="#EBB376"/>
<path d="M167.96 101.21C167.96 101.21 162.07 95.7696 158.82 96.3896C157.36 96.6696 151.96 101.21 150.95 103.25C149.94 105.29 151.45 106.04 152.95 105.53C154.45 105.02 160.82 102.74 160.82 102.74C160.82 102.74 158.82 111.12 160.82 113.4C162.82 115.68 169.2 115.69 169.2 115.69" stroke="#263238" stroke-linejoin="round"/>
<path d="M236.26 136.04C236.26 136.04 203.76 137.82 201.26 139.85C198.76 141.88 196.94 147.47 196.69 148.99C196.44 150.51 187.04 195.71 185.26 203.58C183.48 211.45 167 231.01 167 231.01C167 231.01 196.64 247.11 210.68 254.28C219.862 258.877 229.692 262.046 239.83 263.68L272.83 193.93C272.83 193.93 288.57 155.08 289.08 151.27C289.59 147.46 288.57 148.99 278.42 144.16C271.892 141.042 264.973 138.822 257.85 137.56C255.3 137.06 236.26 136.04 236.26 136.04Z" fill="#03E5E5" stroke="#263238" stroke-linejoin="round"/>
<path d="M58.05 297.37L37.31 296.72C37.31 296.72 11.75 283.44 9.44996 284.41C7.14996 285.38 12.37 300.94 19.17 309.68C25.97 318.42 44.75 330.42 48.33 332.36C51.91 334.3 53.84 335.6 57.07 333.36C60.3 331.12 68.07 315.87 68.07 315.87L58.05 297.37Z" fill="#03E5E5" stroke="#263238" stroke-linejoin="round"/>
<path d="M23.75 306.77C17.5 299.19 13.26 289.77 11.21 284.63C10.6647 284.411 10.0727 284.335 9.48997 284.41C7.21997 285.41 12.41 300.94 19.21 309.68C26.01 318.42 44.75 330.42 48.33 332.36C51.91 334.3 53.84 335.6 57.07 333.36C57.9607 332.616 58.7388 331.747 59.38 330.78C52.09 327.01 31.15 315.8 23.75 306.77Z" fill="#E5E7EB" stroke="#263238" stroke-linejoin="round"/>
<path d="M124.75 367.35C124.75 367.35 117.3 381.28 113.75 386.46C110.2 391.64 96.8999 398.46 97.2299 401.37C97.5599 404.28 113.75 405.21 122.52 404.61C131.29 404.01 139.04 393.27 143.52 390.68C148 388.09 151.3 387.11 148.71 380.96C146.12 374.81 142.88 368.65 142.88 368.65L124.75 367.35Z" fill="#03E5E5" stroke="#263238" stroke-linejoin="round"/>
<path d="M123.49 400.72C117.15 402.72 105.28 400.52 98.6999 398.99C97.6999 399.93 97.1799 400.74 97.2499 401.37C97.5699 404.28 113.77 405.25 122.52 404.61C131.27 403.97 139.04 393.27 143.52 390.68C148 388.09 151.3 387.11 148.71 380.96C132.24 386.79 132.56 397.8 123.49 400.72Z" fill="#E5E7EB" stroke="#263238" stroke-linejoin="round"/>
<path d="M99.19 265.3L123.81 355.36L120.25 358.28L124.14 371.28C127.501 372.552 130.968 373.526 134.5 374.19C141.95 375.81 146.17 374.84 146.17 374.84C146.17 374.84 146.49 365.77 145.52 362.84C144.55 359.91 142.93 354.74 142.93 354.74L138.39 276.02C138.39 276.02 179.53 291.57 195.73 290.6C211.93 289.63 184.07 258.2 165.6 242.98C147.13 227.76 106.6 219.33 100.16 235.52C96.2909 245.012 95.9468 255.576 99.19 265.3Z" fill="#858585" stroke="#263238" stroke-linejoin="round"/>
<path d="M165.6 242.95C161.667 239.797 157.369 237.128 152.8 235L131.21 227.92C124.49 226.65 118.02 226.33 112.68 227.24L126.68 241L138.34 276C138.34 276 179.48 291.55 195.68 290.58C211.88 289.61 184.07 258.21 165.6 242.95Z" fill="#263238" stroke="#263238" stroke-linejoin="round"/>
<path d="M241.09 260.12C241.09 260.12 235.91 273.07 228.45 282.12C220.99 291.17 199.94 293.78 191.2 290.54C182.46 287.3 158.48 267.54 144.87 255.87C131.26 244.2 126.75 241 126.75 241L79.75 306.44C79.75 306.44 77.16 309.04 77.48 311.63C77.8 314.22 64.48 322.32 64.48 322.32C64.48 322.32 58.32 317.13 56.38 313.25C54.44 309.37 52.49 306.12 53.14 303.53C53.79 300.94 52.49 298.99 53.79 295.43C55.09 291.87 60.59 290.25 60.59 290.25C60.59 290.25 101.73 214.44 106.59 206.99C111.45 199.54 114.37 197.59 117.93 198.24C121.49 198.89 169.12 222.86 176.93 227.4C184.74 231.94 241.09 260.12 241.09 260.12Z" fill="#858585" stroke="#263238" stroke-linejoin="round"/>
<path d="M188.36 270.93C190.495 272.567 192.711 274.095 195 275.51" stroke="#263238" stroke-linejoin="round"/>
<path d="M136.09 231.07C149.09 240.86 171.51 258.36 184.8 268.29" stroke="#263238" stroke-linejoin="round"/>
<path d="M116.53 240.4C116.53 240.4 117.83 229.12 119.53 229.56C121.23 230 125.17 235.19 125.17 232.56C125.17 229.93 124.3 223.89 126.04 223.89C126.39 223.89 129.17 225.89 133.43 229.06" stroke="#263238" stroke-linejoin="round"/>
<path d="M234.608 125.89C234.608 125.89 229.778 146.96 227.748 152.29C225.718 157.62 220.128 165.75 224.198 166.77C228.268 167.79 258.198 142.14 260.248 137.57C262.298 133 265.248 123.21 265.248 123.21C265.248 123.21 245.258 130.46 234.608 125.89Z" fill="#EBB376" stroke="#263238" stroke-linejoin="round"/>
<path d="M236.36 64.0998C236.36 64.0998 228.36 66.4098 231.75 70.8398C235.14 75.2698 240.97 74.9098 240.97 74.9098C240.97 74.9098 236.89 71.1898 248.06 71.1898C259.23 71.1898 265.77 72.9598 265.6 78.9898C265.43 85.0198 262.94 87.9898 265.77 92.0998C268.6 96.2098 272.33 106.63 272.33 106.63L281.01 108.63C281.01 108.63 290.01 98.3498 291.82 86.4798C293.63 74.6098 295.19 68.4098 276.58 58.3098C257.97 48.2098 234.58 47.3098 232.64 54.0498C232.081 55.9015 232.142 57.8851 232.813 59.6992C233.485 61.5132 234.73 63.0583 236.36 64.0998Z" fill="#263238" stroke="#263238" stroke-linejoin="round"/>
<path d="M243.8 64.2798C243.8 64.2798 236.54 70.1298 236.36 72.7898C236.18 75.4498 227.86 99.8898 226.79 106.79C225.72 113.69 227.68 125.79 231.05 129.65C234.42 133.51 242.05 134.43 250.89 132.13C259.73 129.83 264.36 126.28 265.42 123.45C266.48 120.62 273.92 103.45 273.92 103.45C273.92 103.45 268.79 91.4498 267.37 88.0298C265.95 84.6098 270.73 79.0298 270.91 77.5798C271.09 76.1298 262.41 70.3198 259.91 68.8998C257.41 67.4798 254.06 68.7198 251.58 68.0098C248.894 66.9699 246.293 65.7228 243.8 64.2798Z" fill="#EBB376" stroke="#263238" stroke-linejoin="round"/>
<path d="M265.42 123.46C266.48 120.62 273.92 103.46 273.92 103.46C273.92 103.46 272.39 99.8496 270.76 96.0396C268.52 101.36 261.49 118.04 261.34 118.52C261.19 119 260.64 116.21 251.95 112.32C243.26 108.43 241.85 106.12 236.01 107.71C232.762 108.548 229.613 109.735 226.62 111.25L226.51 111.6C226.59 118.33 228.37 126.6 231.05 129.68C234.41 133.58 242.05 134.46 250.89 132.16C259.73 129.86 264.36 126.29 265.42 123.46Z" fill="#263238" stroke="#263238" stroke-linejoin="round"/>
<path d="M272.33 106.63C272.33 106.63 276.05 102.91 280.13 104.5C284.21 106.09 280.66 111.94 278.35 114.25C276.04 116.56 268.08 116.21 268.08 116.21L272.33 106.63Z" fill="#EBB376" stroke="#263238" stroke-linejoin="round"/>
<path d="M235.48 81.2898C235.48 81.2898 237.78 77.2198 243.48 81.2898" stroke="#263238" stroke-linejoin="round"/>
<path d="M251.24 82.7097C251.24 82.7097 256.24 79.7097 260.99 85.8997" stroke="#263238" stroke-linejoin="round"/>
<path d="M244.16 82.71C244.628 84.3887 244.923 86.1111 245.04 87.85C245.04 89.85 236.18 107.85 237.04 108.4C237.9 108.95 244.13 105.03 244.66 105.03" fill="#EBB376"/>
<path d="M244.16 82.71C244.628 84.3887 244.923 86.1111 245.04 87.85C245.04 89.85 236.18 107.85 237.04 108.4C237.9 108.95 244.13 105.03 244.66 105.03" stroke="#263238" stroke-linejoin="round"/>
<path d="M255.43 90.0497C255.03 91.2997 254.11 92.1297 253.36 91.8997C252.61 91.6697 252.36 90.4497 252.73 89.1897C253.1 87.9297 254.05 87.0997 254.8 87.3397C255.55 87.5797 255.83 88.7897 255.43 90.0497Z" fill="#263238"/>
<path d="M239.49 86.4997C239.09 87.7597 238.16 88.5897 237.41 88.3497C236.66 88.1097 236.41 86.9097 236.78 85.6497C237.15 84.3897 238.11 83.5597 238.85 83.7897C239.59 84.0197 239.88 85.2097 239.49 86.4997Z" fill="#263238"/>
<path d="M251.6 93.5195C251.6 93.5195 251.42 95.9995 256.21 97.4095" stroke="#263238" stroke-linejoin="round"/>
<path d="M241.5 89.2598C239.566 90.31 237.471 91.0299 235.3 91.3898" stroke="#263238" stroke-linejoin="round"/>
<path d="M234.41 111.41C234.41 111.41 239.91 115.66 248.59 113.18" stroke="#E5E7EB" stroke-linejoin="round"/>
<path d="M275.11 223.83C275.11 223.83 244.33 226.42 235.58 241C226.83 255.58 217.75 279.88 208.37 287.65C198.99 295.42 163.66 286.03 157.83 283.12C153.617 281.103 149.274 279.369 144.83 277.93C144.83 277.93 151.63 288.63 173.34 295.75C195.05 302.87 227.77 306.12 262.11 292.84C296.45 279.56 306.17 254.28 310.38 235.17C314.59 216.06 310.38 190.17 304.22 173.94C298.06 157.71 288.35 147.7 285.11 148.02C281.87 148.34 282.19 185.28 284.11 199.21C286.03 213.14 275.11 223.83 275.11 223.83Z" fill="#E5E7EB" stroke="#263238" stroke-linejoin="round"/>
<path d="M214.05 189.93C215.36 191.451 216.847 192.811 218.48 193.98C220.98 195.71 221.94 202.06 222.71 202.98C223.48 203.9 224.44 207.79 224.44 207.79C224.44 207.79 217.7 202.98 215.97 201.05C214.24 199.12 214.05 189.93 214.05 189.93Z" fill="#EBB376" stroke="#263238" stroke-linejoin="round"/>
<path d="M195.86 181.92L205.24 215.69C205.341 216.051 205.539 216.378 205.812 216.636C206.085 216.893 206.423 217.071 206.79 217.15L219.66 219.86C220.004 219.948 220.365 219.943 220.706 219.846C221.048 219.748 221.357 219.561 221.602 219.305C221.848 219.048 222.02 218.731 222.102 218.386C222.185 218.04 222.173 217.679 222.07 217.34L213.22 183.34C213.128 182.96 212.926 182.615 212.64 182.349C212.354 182.082 211.996 181.905 211.61 181.84L198.2 179.39C197.86 179.316 197.506 179.332 197.174 179.437C196.842 179.541 196.543 179.731 196.307 179.986C196.071 180.242 195.905 180.555 195.827 180.894C195.748 181.233 195.76 181.587 195.86 181.92Z" fill="#263238" stroke="#263238" stroke-linejoin="round"/>
<path d="M278.352 144C278.352 144 286.772 147 288.502 148.57C290.232 150.14 291.582 155.89 294.662 165.9C297.742 175.91 302.552 217.5 302.752 220.39C302.952 223.28 290.422 226.39 280.412 228.09C270.402 229.79 232.862 226.36 232.862 226.36C232.862 226.36 225.152 225.2 219.572 224.62C213.992 224.04 205.712 220 203.972 219.62C202.232 219.24 203.402 216.54 203.402 216.54C202.472 216.873 201.498 217.066 200.512 217.11C199.162 217.11 199.162 215.38 199.162 215.38C199.162 215.38 200.702 211.72 201.472 211.38C202.242 211.04 213.602 210.8 213.602 210.8L203.602 206.37C203.602 206.37 198.402 207.37 197.252 206.95C196.102 206.53 196.482 204.64 197.252 204.06C198.022 203.48 203.982 202.14 205.142 202.52C206.302 202.9 214.192 204.83 214.192 204.83L213.032 202.52L203.792 197.52C203.792 197.52 200.132 197.32 198.982 197.32C197.832 197.32 195.512 196.55 196.092 194.63C196.672 192.71 202.642 192.89 204.562 193.28C206.482 193.67 218.042 197.71 219.972 199.83C221.902 201.95 228.052 214.46 228.052 214.46C228.052 214.46 239.602 216.77 254.052 212.15C268.502 207.53 273.892 205.79 273.892 205.79L267.892 176.34" fill="#03E5E5"/>
<path d="M278.352 144C278.352 144 286.772 147 288.502 148.57C290.232 150.14 291.582 155.89 294.662 165.9C297.742 175.91 302.552 217.5 302.752 220.39C302.952 223.28 290.422 226.39 280.412 228.09C270.402 229.79 232.862 226.36 232.862 226.36C232.862 226.36 225.152 225.2 219.572 224.62C213.992 224.04 205.712 220 203.972 219.62C202.232 219.24 203.402 216.54 203.402 216.54C202.472 216.874 201.498 217.066 200.512 217.11C199.162 217.11 199.162 215.38 199.162 215.38C199.162 215.38 200.702 211.72 201.472 211.38C202.242 211.04 213.602 210.8 213.602 210.8L203.602 206.37C203.602 206.37 198.402 207.37 197.252 206.95C196.102 206.53 196.482 204.64 197.252 204.06C198.022 203.48 203.982 202.14 205.142 202.52C206.302 202.9 214.192 204.83 214.192 204.83L213.032 202.52L203.792 197.52C203.792 197.52 200.132 197.32 198.982 197.32C197.832 197.32 195.512 196.55 196.092 194.63C196.672 192.71 202.642 192.89 204.562 193.28C206.482 193.67 218.042 197.71 219.972 199.83C221.902 201.95 228.052 214.46 228.052 214.46C228.052 214.46 239.602 216.77 254.052 212.15C268.502 207.53 273.892 205.79 273.892 205.79L267.892 176.34" stroke="#263238" stroke-linejoin="round"/>
<path d="M228.1 214.58C228.1 214.58 221.94 202.06 220.02 199.95C218.1 197.84 206.54 193.79 204.61 193.4C202.68 193.01 196.72 192.82 196.14 194.75C195.56 196.68 197.87 197.44 199.03 197.44C200.19 197.44 203.84 197.64 203.84 197.64L213.08 202.64L214.24 204.95C214.24 204.95 206.35 203.03 205.19 202.64C204.03 202.25 198.07 203.64 197.3 204.18C196.53 204.72 196.14 206.69 197.3 207.07C198.46 207.45 203.65 206.49 203.65 206.49L213.65 210.92C213.65 210.92 202.29 211.11 201.52 211.5C200.75 211.89 199.21 215.5 199.21 215.5C199.21 215.5 199.21 217.23 200.56 217.23C201.546 217.185 202.521 216.993 203.45 216.66C203.45 216.66 202.29 219.35 204.02 219.74C205.75 220.13 214.02 224.17 219.62 224.74C225.22 225.31 232.91 226.48 232.91 226.48C232.91 226.48 247.77 227.85 261.29 228.43C263.16 219.5 262.2 213.68 260.75 210.09L254.08 212.23C239.65 216.89 228.1 214.58 228.1 214.58Z" fill="#EBB376" stroke="#263238" stroke-linejoin="round"/>
<path d="M203.46 216.7C204.719 216.237 206.005 215.849 207.31 215.54C208.46 215.35 215.97 217.27 215.97 217.27" stroke="#263238" stroke-linejoin="round"/>
<path d="M368.65 168.8C364.204 168.8 360.6 165.196 360.6 160.75C360.6 156.591 363.754 153.168 367.801 152.744C367.605 151.996 367.5 151.21 367.5 150.4C367.5 145.319 371.619 141.2 376.7 141.2C381.021 141.2 384.647 144.18 385.634 148.196C386.097 148.133 386.57 148.1 387.05 148.1C392.766 148.1 397.4 152.734 397.4 158.45C397.4 164.166 392.766 168.8 387.05 168.8H368.65Z" fill="#FFAB03"/>
<path fill-rule="evenodd" clip-rule="evenodd" d="M305.466 23.9984C310.279 23.9331 314.664 22.0967 318 19.1113C321.335 22.0967 325.721 23.9331 330.534 23.9984C330.709 25.0397 330.8 26.1093 330.8 27.2002C330.8 35.56 325.457 42.6719 318 45.3077C310.543 42.6719 305.2 35.56 305.2 27.2002C305.2 26.1093 305.291 25.0397 305.466 23.9984ZM323.931 29.9316C324.556 29.3067 324.556 28.2937 323.931 27.6688C323.306 27.044 322.293 27.044 321.669 27.6688L316.4 32.9375L314.331 30.8688C313.706 30.244 312.693 30.244 312.069 30.8688C311.444 31.4937 311.444 32.5067 312.069 33.1316L315.269 36.3316C315.893 36.9564 316.906 36.9564 317.531 36.3316L323.931 29.9316Z" fill="#03E5E5"/>
<path d="M16.4 140.25C15.2678 140.25 14.35 141.168 14.35 142.3C14.35 143.432 15.2678 144.35 16.4 144.35L27.8509 144.35L25.2005 147.001C24.3999 147.801 24.3999 149.099 25.2005 149.9C26.001 150.7 27.299 150.7 28.0996 149.9L34.2496 143.75C34.634 143.365 34.85 142.844 34.85 142.3C34.85 141.756 34.634 141.235 34.2496 140.851L28.0996 134.701C27.299 133.9 26.001 133.9 25.2005 134.701C24.3999 135.501 24.3999 136.799 25.2005 137.6L27.8509 140.25L16.4 140.25Z" fill="#E5E7EB"/>
<path d="M24.6 160.75C25.7322 160.75 26.65 159.832 26.65 158.7C26.65 157.568 25.7322 156.65 24.6 156.65L13.1492 156.65L15.7996 154C16.6002 153.199 16.6002 151.901 15.7996 151.101C14.999 150.3 13.701 150.3 12.9005 151.101L6.75045 157.251C6.366 157.635 6.15002 158.156 6.15002 158.7C6.15002 159.244 6.366 159.765 6.75045 160.15L12.9005 166.3C13.701 167.1 14.999 167.1 15.7996 166.3C16.6002 165.499 16.6002 164.201 15.7996 163.401L13.1492 160.75L24.6 160.75Z" fill="#E5E7EB"/>
<path d="M375.7 241.3H364.3V252.7H375.7V241.3Z" fill="#03E5E5"/>
<path fill-rule="evenodd" clip-rule="evenodd" d="M364.3 231.8C364.3 230.751 365.151 229.9 366.2 229.9C367.249 229.9 368.1 230.751 368.1 231.8V233.7H371.9V231.8C371.9 230.751 372.751 229.9 373.8 229.9C374.849 229.9 375.7 230.751 375.7 231.8V233.7H379.5C381.599 233.7 383.3 235.401 383.3 237.5V241.3H385.2C386.249 241.3 387.1 242.151 387.1 243.2C387.1 244.249 386.249 245.1 385.2 245.1H383.3V248.9H385.2C386.249 248.9 387.1 249.751 387.1 250.8C387.1 251.849 386.249 252.7 385.2 252.7H383.3V256.5C383.3 258.599 381.599 260.3 379.5 260.3H375.7V262.2C375.7 263.249 374.849 264.1 373.8 264.1C372.751 264.1 371.9 263.249 371.9 262.2V260.3H368.1V262.2C368.1 263.249 367.249 264.1 366.2 264.1C365.151 264.1 364.3 263.249 364.3 262.2V260.3H360.5C358.401 260.3 356.7 258.599 356.7 256.5V252.7H354.8C353.751 252.7 352.9 251.849 352.9 250.8C352.9 249.751 353.751 248.9 354.8 248.9H356.7V245.1H354.8C353.751 245.1 352.9 244.249 352.9 243.2C352.9 242.151 353.751 241.3 354.8 241.3H356.7V237.5C356.7 235.401 358.401 233.7 360.5 233.7H364.3V231.8ZM360.5 237.5H379.5V256.5H360.5V237.5Z" fill="#03E5E5"/>
<path fill-rule="evenodd" clip-rule="evenodd" d="M357.8 77.5002C357.8 75.4015 359.501 73.7002 361.6 73.7002H384.4C386.499 73.7002 388.2 75.4015 388.2 77.5002V81.3002C388.2 83.3989 386.499 85.1002 384.4 85.1002H361.6C359.501 85.1002 357.8 83.3989 357.8 81.3002V77.5002ZM384.4 79.4002C384.4 80.4495 383.549 81.3002 382.5 81.3002C381.451 81.3002 380.6 80.4495 380.6 79.4002C380.6 78.3509 381.451 77.5002 382.5 77.5002C383.549 77.5002 384.4 78.3509 384.4 79.4002Z" fill="#E5E7EB"/>
<path fill-rule="evenodd" clip-rule="evenodd" d="M357.8 92.7002C357.8 90.6015 359.501 88.9002 361.6 88.9002H384.4C386.499 88.9002 388.2 90.6015 388.2 92.7002V96.5002C388.2 98.5989 386.499 100.3 384.4 100.3H361.6C359.501 100.3 357.8 98.5989 357.8 96.5002V92.7002ZM384.4 94.6002C384.4 95.6495 383.549 96.5002 382.5 96.5002C381.451 96.5002 380.6 95.6495 380.6 94.6002C380.6 93.5509 381.451 92.7002 382.5 92.7002C383.549 92.7002 384.4 93.5509 384.4 94.6002Z" fill="#E5E7EB"/>
<path d="M200.057 2.15024C200.642 1.81646 201.359 1.81646 201.943 2.15024L205.268 4.05024C206.179 4.57086 206.495 5.73148 205.975 6.64257C205.454 7.55365 204.293 7.87018 203.382 7.34956L201 5.98823L198.618 7.34956C197.707 7.87018 196.546 7.55365 196.025 6.64257C195.505 5.73148 195.821 4.57086 196.732 4.05024L200.057 2.15024Z" fill="#FFAB03"/>
<path d="M192.675 8.55724C193.195 9.46832 192.879 10.6289 191.968 11.1496L191.53 11.3999L191.968 11.6502C192.879 12.1709 193.195 13.3315 192.675 14.2426C192.154 15.1537 190.993 15.4702 190.082 14.9496L189.6 14.6739V15.1999C189.6 16.2492 188.749 17.0999 187.7 17.0999C186.651 17.0999 185.8 16.2492 185.8 15.1999V11.3999C185.8 10.9249 185.974 10.4907 186.262 10.1576C186.328 10.0814 186.4 10.0101 186.478 9.94472C186.574 9.86399 186.679 9.7926 186.789 9.73195L190.082 7.85024C190.993 7.32962 192.154 7.64616 192.675 8.55724Z" fill="#FFAB03"/>
<path d="M209.325 8.55724C209.846 7.64616 211.007 7.32962 211.918 7.85024L215.211 9.73193C215.322 9.79259 215.426 9.86399 215.522 9.94472C215.936 10.2933 216.2 10.8158 216.2 11.3999V15.1999C216.2 16.2492 215.349 17.0999 214.3 17.0999C213.251 17.0999 212.4 16.2492 212.4 15.1999V14.6739L211.918 14.9496C211.007 15.4702 209.846 15.1537 209.325 14.2426C208.805 13.3315 209.121 12.1709 210.032 11.6502L210.47 11.3999L210.032 11.1496C209.121 10.6289 208.805 9.46832 209.325 8.55724Z" fill="#FFAB03"/>
<path d="M196.025 16.1572C196.546 15.2462 197.707 14.9296 198.618 15.4502L201 16.8116L203.382 15.4502C204.293 14.9296 205.454 15.2462 205.975 16.1572C206.495 17.0683 206.179 18.2289 205.268 18.7496L202.9 20.1025V22.7999C202.9 23.8492 202.049 24.6999 201 24.6999C199.951 24.6999 199.1 23.8492 199.1 22.7999V20.1025L196.732 18.7496C195.821 18.2289 195.505 17.0683 196.025 16.1572Z" fill="#FFAB03"/>
<path d="M187.7 20.8999C188.749 20.8999 189.6 21.7506 189.6 22.7999V25.4973L191.968 26.8502C192.879 27.3709 193.195 28.5315 192.675 29.4426C192.154 30.3537 190.993 30.6702 190.082 30.1496L186.757 28.2496C186.165 27.9113 185.8 27.2817 185.8 26.5999V22.7999C185.8 21.7506 186.651 20.8999 187.7 20.8999Z" fill="#FFAB03"/>
<path d="M214.3 20.8999C215.349 20.8999 216.2 21.7506 216.2 22.7999V26.5999C216.2 27.2817 215.835 27.9113 215.243 28.2496L211.918 30.1496C211.007 30.6702 209.846 30.3537 209.325 29.4426C208.805 28.5315 209.121 27.3709 210.032 26.8502L212.4 25.4973V22.7999C212.4 21.7506 213.251 20.8999 214.3 20.8999Z" fill="#FFAB03"/>
<path d="M196.025 31.3572C196.546 30.4462 197.707 30.1296 198.618 30.6502L199.1 30.9259V30.3999C199.1 29.3506 199.951 28.4999 201 28.4999C202.049 28.4999 202.9 29.3506 202.9 30.3999V30.9259L203.382 30.6502C204.293 30.1296 205.454 30.4462 205.975 31.3572C206.495 32.2683 206.179 33.4289 205.268 33.9496L201.972 35.8331C201.687 36.0025 201.355 36.0999 201 36.0999C200.645 36.0999 200.313 36.0025 200.029 35.8331L196.732 33.9496C195.821 33.4289 195.505 32.2683 196.025 31.3572Z" fill="#FFAB03"/>
<path d="M5.69995 226.8V232.5C5.69995 235.648 11.6546 238.2 19 238.2C26.3453 238.2 32.3 235.648 32.3 232.5V226.8C32.3 229.948 26.3453 232.5 19 232.5C11.6546 232.5 5.69995 229.948 5.69995 226.8Z" fill="#FFAB03"/>
<path d="M5.69995 217.3V223C5.69995 226.148 11.6546 228.7 19 228.7C26.3453 228.7 32.3 226.148 32.3 223V217.3C32.3 220.448 26.3453 223 19 223C11.6546 223 5.69995 220.448 5.69995 217.3Z" fill="#FFAB03"/>
<path d="M32.3 213.5C32.3 216.648 26.3453 219.2 19 219.2C11.6546 219.2 5.69995 216.648 5.69995 213.5C5.69995 210.352 11.6546 207.8 19 207.8C26.3453 207.8 32.3 210.352 32.3 213.5Z" fill="#FFAB03"/>
<path d="M30.8 89.9002C30.8 88.8509 31.6507 88.0002 32.7 88.0002H36.5C37.5494 88.0002 38.4 88.8509 38.4 89.9002V99.4002C38.4 100.45 37.5494 101.3 36.5 101.3H32.7C31.6507 101.3 30.8 100.45 30.8 99.4002V89.9002Z" fill="#FFAB03"/>
<path d="M42.2 82.3002C42.2 81.2509 43.0507 80.4002 44.1 80.4002H47.9C48.9494 80.4002 49.8 81.2509 49.8 82.3002V99.4002C49.8 100.45 48.9494 101.3 47.9 101.3H44.1C43.0507 101.3 42.2 100.45 42.2 99.4002V82.3002Z" fill="#FFAB03"/>
<path d="M53.6 76.6002C53.6 75.5509 54.4507 74.7002 55.5 74.7002H59.3C60.3494 74.7002 61.2 75.5509 61.2 76.6002V99.4002C61.2 100.45 60.3494 101.3 59.3 101.3H55.5C54.4507 101.3 53.6 100.45 53.6 99.4002V76.6002Z" fill="#FFAB03"/>
</svg>
