<svg width="426" height="375" viewBox="0 0 426 375" fill="none" xmlns="http://www.w3.org/2000/svg">
<rect width="187.103" height="39" rx="19.5" fill="#FFAB03"/>
<rect y="83.9998" width="187.103" height="39" rx="19.5" fill="#FFAB03"/>
<rect y="168" width="187.103" height="39" rx="19.5" fill="#FFAB03"/>
<rect y="252" width="187.103" height="39" rx="19.5" fill="#FFAB03"/>
<rect y="336" width="187.103" height="39" rx="19.5" fill="#FFAB03"/>
<path d="M24.06 26.3254V13.2345H31.9606V14.6408H25.6452V19.0641H31.5515V20.4703H25.6452V24.9192H32.0629V26.3254H24.06ZM36.1218 20.4192V26.3254H34.6133V16.5073H36.0707V18.0413H36.1985C36.4286 17.5428 36.7781 17.1422 37.2468 16.8396C37.7156 16.5328 38.3207 16.3794 39.0622 16.3794C39.7269 16.3794 40.3086 16.5158 40.8072 16.7885C41.3058 17.057 41.6935 17.4661 41.9705 18.0158C42.2475 18.5612 42.386 19.2516 42.386 20.0868V26.3254H40.8775V20.1891C40.8775 19.4178 40.6772 18.8169 40.2766 18.3865C39.8761 17.9519 39.3264 17.7345 38.6275 17.7345C38.146 17.7345 37.7156 17.8389 37.3363 18.0477C36.9613 18.2565 36.6651 18.5612 36.4478 18.9618C36.2305 19.3624 36.1218 19.8482 36.1218 20.4192ZM49.1057 30.2118C48.377 30.2118 47.7505 30.1181 47.2264 29.9306C46.7022 29.7473 46.2655 29.5044 45.916 29.2019C45.5709 28.9036 45.296 28.584 45.0914 28.2431L46.2932 27.3993C46.4295 27.5783 46.6021 27.7828 46.8109 28.0129C47.0197 28.2473 47.3052 28.4497 47.6674 28.6202C48.0339 28.7949 48.5133 28.8823 49.1057 28.8823C49.8983 28.8823 50.5524 28.6905 51.068 28.307C51.5836 27.9235 51.8414 27.3226 51.8414 26.5044V24.5101H51.7136C51.6028 24.6891 51.4451 24.9107 51.2406 25.1749C51.0403 25.4348 50.7505 25.6671 50.3713 25.8716C49.9963 26.0719 49.4892 26.172 48.85 26.172C48.0574 26.172 47.3457 25.9845 46.715 25.6095C46.0886 25.2345 45.5922 24.6891 45.2257 23.9732C44.8635 23.2573 44.6824 22.3879 44.6824 21.3652C44.6824 20.3595 44.8592 19.4838 45.2129 18.7381C45.5666 17.9881 46.0588 17.4085 46.6895 16.9994C47.3201 16.5861 48.0488 16.3794 48.8755 16.3794C49.5147 16.3794 50.0218 16.486 50.3968 16.699C50.7761 16.9078 51.0659 17.1465 51.2662 17.4149C51.4707 17.6791 51.6284 17.8965 51.7392 18.0669H51.8926V16.5073H53.35V26.6067C53.35 27.4504 53.1582 28.1365 52.7747 28.6649C52.3954 29.1976 51.8841 29.5875 51.2406 29.8347C50.6014 30.0861 49.8897 30.2118 49.1057 30.2118ZM49.0545 24.8169C49.6596 24.8169 50.171 24.6784 50.5886 24.4014C51.0062 24.1244 51.3237 23.726 51.541 23.2061C51.7584 22.6862 51.867 22.0641 51.867 21.3396C51.867 20.6323 51.7605 20.008 51.5474 19.4668C51.3343 18.9256 51.019 18.5016 50.6014 18.1948C50.1838 17.8879 49.6682 17.7345 49.0545 17.7345C48.4153 17.7345 47.8826 17.8965 47.4565 18.2203C47.0346 18.5442 46.7172 18.9788 46.5041 19.5243C46.2953 20.0698 46.1909 20.6749 46.1909 21.3396C46.1909 22.0215 46.2974 22.6244 46.5105 23.1486C46.7278 23.6685 47.0474 24.0776 47.4693 24.3759C47.8954 24.6699 48.4238 24.8169 49.0545 24.8169ZM56.1113 26.3254V16.5073H57.6199V26.3254H56.1113ZM56.8784 14.8709C56.5843 14.8709 56.3308 14.7708 56.1177 14.5705C55.9089 14.3702 55.8045 14.1294 55.8045 13.8482C55.8045 13.5669 55.9089 13.3261 56.1177 13.1259C56.3308 12.9256 56.5843 12.8254 56.8784 12.8254C57.1724 12.8254 57.4238 12.9256 57.6326 13.1259C57.8457 13.3261 57.9522 13.5669 57.9522 13.8482C57.9522 14.1294 57.8457 14.3702 57.6326 14.5705C57.4238 14.7708 57.1724 14.8709 56.8784 14.8709ZM61.8913 20.4192V26.3254H60.3828V16.5073H61.8402V18.0413H61.968C62.1982 17.5428 62.5476 17.1422 63.0163 16.8396C63.4851 16.5328 64.0902 16.3794 64.8317 16.3794C65.4965 16.3794 66.0781 16.5158 66.5767 16.7885C67.0753 17.057 67.4631 17.4661 67.7401 18.0158C68.0171 18.5612 68.1555 19.2516 68.1555 20.0868V26.3254H66.647V20.1891C66.647 19.4178 66.4467 18.8169 66.0462 18.3865C65.6456 17.9519 65.0959 17.7345 64.397 17.7345C63.9155 17.7345 63.4851 17.8389 63.1058 18.0477C62.7308 18.2565 62.4347 18.5612 62.2173 18.9618C62 19.3624 61.8913 19.8482 61.8913 20.4192ZM75.0286 26.53C74.0826 26.53 73.2665 26.3212 72.5804 25.9036C71.8986 25.4817 71.3723 24.8936 71.0016 24.1394C70.6351 23.3808 70.4519 22.4987 70.4519 21.4931C70.4519 20.4874 70.6351 19.601 71.0016 18.834C71.3723 18.0627 71.888 17.4618 72.5485 17.0314C73.2133 16.5967 73.9888 16.3794 74.8752 16.3794C75.3865 16.3794 75.8915 16.4646 76.3901 16.6351C76.8887 16.8056 77.3425 17.0825 77.7516 17.4661C78.1607 17.8453 78.4867 18.3482 78.7296 18.9746C78.9725 19.601 79.0939 20.3723 79.0939 21.2885V21.9277H71.5258V20.6237H77.5598C77.5598 20.0698 77.449 19.5754 77.2275 19.1408C77.0101 18.7061 76.699 18.3631 76.2942 18.1117C75.8936 17.8602 75.4206 17.7345 74.8752 17.7345C74.2743 17.7345 73.7544 17.8837 73.3155 18.182C72.8809 18.476 72.5463 18.8595 72.312 19.3325C72.0776 19.8056 71.9604 20.3127 71.9604 20.8538V21.7232C71.9604 22.4646 72.0883 23.0932 72.3439 23.6088C72.6039 24.1202 72.964 24.5101 73.4242 24.7786C73.8844 25.0428 74.4192 25.1749 75.0286 25.1749C75.4249 25.1749 75.7829 25.1195 76.1025 25.0087C76.4263 24.8936 76.7054 24.7232 76.9398 24.4973C77.1742 24.2672 77.3553 23.9817 77.4831 23.6408L78.9405 24.0499C78.7871 24.5442 78.5293 24.9788 78.1671 25.3538C77.8049 25.7246 77.3574 26.0144 76.8248 26.2232C76.2921 26.4277 75.6934 26.53 75.0286 26.53ZM85.5052 26.53C84.5591 26.53 83.7431 26.3212 83.057 25.9036C82.3752 25.4817 81.8489 24.8936 81.4782 24.1394C81.1117 23.3808 80.9285 22.4987 80.9285 21.4931C80.9285 20.4874 81.1117 19.601 81.4782 18.834C81.8489 18.0627 82.3645 17.4618 83.025 17.0314C83.6898 16.5967 84.4654 16.3794 85.3517 16.3794C85.8631 16.3794 86.3681 16.4646 86.8667 16.6351C87.3652 16.8056 87.8191 17.0825 88.2282 17.4661C88.6373 17.8453 88.9633 18.3482 89.2061 18.9746C89.449 19.601 89.5705 20.3723 89.5705 21.2885V21.9277H82.0023V20.6237H88.0364C88.0364 20.0698 87.9256 19.5754 87.704 19.1408C87.4867 18.7061 87.1756 18.3631 86.7708 18.1117C86.3702 17.8602 85.8972 17.7345 85.3517 17.7345C84.7509 17.7345 84.231 17.8837 83.7921 18.182C83.3574 18.476 83.0229 18.8595 82.7885 19.3325C82.5542 19.8056 82.437 20.3127 82.437 20.8538V21.7232C82.437 22.4646 82.5648 23.0932 82.8205 23.6088C83.0804 24.1202 83.4405 24.5101 83.9008 24.7786C84.361 25.0428 84.8958 25.1749 85.5052 25.1749C85.9015 25.1749 86.2594 25.1195 86.579 25.0087C86.9029 24.8936 87.182 24.7232 87.4164 24.4973C87.6508 24.2672 87.8319 23.9817 87.9597 23.6408L89.4171 24.0499C89.2637 24.5442 89.0059 24.9788 88.6436 25.3538C88.2814 25.7246 87.834 26.0144 87.3013 26.2232C86.7686 26.4277 86.1699 26.53 85.5052 26.53ZM91.8652 26.3254V16.5073H93.3226V17.9902H93.4249C93.6039 17.5044 93.9277 17.1102 94.3965 16.8077C94.8652 16.5051 95.3936 16.3538 95.9817 16.3538C96.0925 16.3538 96.231 16.356 96.3972 16.3602C96.5634 16.3645 96.6891 16.3709 96.7743 16.3794V17.9135C96.7232 17.9007 96.606 17.8815 96.4228 17.856C96.2438 17.8261 96.0542 17.8112 95.8539 17.8112C95.3766 17.8112 94.9505 17.9114 94.5755 18.1117C94.2047 18.3077 93.9107 18.5804 93.6934 18.9298C93.4803 19.275 93.3738 19.6692 93.3738 20.1124V26.3254H91.8652ZM98.5625 26.3254V16.5073H100.071V26.3254H98.5625ZM99.3296 14.8709C99.0355 14.8709 98.782 14.7708 98.5689 14.5705C98.3601 14.3702 98.2557 14.1294 98.2557 13.8482C98.2557 13.5669 98.3601 13.3261 98.5689 13.1259C98.782 12.9256 99.0355 12.8254 99.3296 12.8254C99.6236 12.8254 99.875 12.9256 100.084 13.1259C100.297 13.3261 100.403 13.5669 100.403 13.8482C100.403 14.1294 100.297 14.3702 100.084 14.5705C99.875 14.7708 99.6236 14.8709 99.3296 14.8709ZM104.343 20.4192V26.3254H102.834V16.5073H104.291V18.0413H104.419C104.649 17.5428 104.999 17.1422 105.468 16.8396C105.936 16.5328 106.541 16.3794 107.283 16.3794C107.948 16.3794 108.529 16.5158 109.028 16.7885C109.526 17.057 109.914 17.4661 110.191 18.0158C110.468 18.5612 110.607 19.2516 110.607 20.0868V26.3254H109.098V20.1891C109.098 19.4178 108.898 18.8169 108.497 18.3865C108.097 17.9519 107.547 17.7345 106.848 17.7345C106.367 17.7345 105.936 17.8389 105.557 18.0477C105.182 18.2565 104.886 18.5612 104.669 18.9618C104.451 19.3624 104.343 19.8482 104.343 20.4192ZM117.326 30.2118C116.598 30.2118 115.971 30.1181 115.447 29.9306C114.923 29.7473 114.486 29.5044 114.137 29.2019C113.792 28.9036 113.517 28.584 113.312 28.2431L114.514 27.3993C114.65 27.5783 114.823 27.7828 115.032 28.0129C115.24 28.2473 115.526 28.4497 115.888 28.6202C116.255 28.7949 116.734 28.8823 117.326 28.8823C118.119 28.8823 118.773 28.6905 119.289 28.307C119.804 27.9235 120.062 27.3226 120.062 26.5044V24.5101H119.934C119.824 24.6891 119.666 24.9107 119.461 25.1749C119.261 25.4348 118.971 25.6671 118.592 25.8716C118.217 26.0719 117.71 26.172 117.071 26.172C116.278 26.172 115.566 25.9845 114.936 25.6095C114.309 25.2345 113.813 24.6891 113.446 23.9732C113.084 23.2573 112.903 22.3879 112.903 21.3652C112.903 20.3595 113.08 19.4838 113.434 18.7381C113.787 17.9881 114.279 17.4085 114.91 16.9994C115.541 16.5861 116.27 16.3794 117.096 16.3794C117.735 16.3794 118.243 16.486 118.618 16.699C118.997 16.9078 119.287 17.1465 119.487 17.4149C119.691 17.6791 119.849 17.8965 119.96 18.0669H120.113V16.5073H121.571V26.6067C121.571 27.4504 121.379 28.1365 120.995 28.6649C120.616 29.1976 120.105 29.5875 119.461 29.8347C118.822 30.0861 118.11 30.2118 117.326 30.2118ZM117.275 24.8169C117.88 24.8169 118.392 24.6784 118.809 24.4014C119.227 24.1244 119.544 23.726 119.762 23.2061C119.979 22.6862 120.088 22.0641 120.088 21.3396C120.088 20.6323 119.981 20.008 119.768 19.4668C119.555 18.9256 119.24 18.5016 118.822 18.1948C118.404 17.8879 117.889 17.7345 117.275 17.7345C116.636 17.7345 116.103 17.8965 115.677 18.2203C115.255 18.5442 114.938 18.9788 114.725 19.5243C114.516 20.0698 114.412 20.6749 114.412 21.3396C114.412 22.0215 114.518 22.6244 114.731 23.1486C114.949 23.6685 115.268 24.0776 115.69 24.3759C116.116 24.6699 116.645 24.8169 117.275 24.8169ZM129.599 26.3254V13.2345H134.176C135.088 13.2345 135.84 13.3922 136.432 13.7075C137.025 14.0186 137.466 14.4384 137.755 14.9668C138.045 15.4909 138.19 16.0726 138.19 16.7118C138.19 17.2743 138.09 17.7388 137.89 18.1053C137.694 18.4717 137.434 18.7615 137.11 18.9746C136.79 19.1877 136.443 19.3453 136.068 19.4476V19.5754C136.468 19.601 136.871 19.7416 137.276 19.9973C137.681 20.253 138.02 20.6195 138.292 21.0967C138.565 21.574 138.701 22.1578 138.701 22.8482C138.701 23.5044 138.552 24.0946 138.254 24.6188C137.956 25.1429 137.485 25.5584 136.841 25.8652C136.198 26.172 135.36 26.3254 134.329 26.3254H129.599ZM131.184 24.9192H134.329C135.365 24.9192 136.1 24.7189 136.534 24.3183C136.973 23.9135 137.193 23.4235 137.193 22.8482C137.193 22.405 137.08 21.9959 136.854 21.6209C136.628 21.2416 136.306 20.9391 135.889 20.7132C135.471 20.4831 134.977 20.3681 134.406 20.3681H131.184V24.9192ZM131.184 18.9874H134.125C134.602 18.9874 135.032 18.8936 135.416 18.7061C135.804 18.5186 136.11 18.2544 136.336 17.9135C136.566 17.5726 136.681 17.172 136.681 16.7118C136.681 16.1365 136.481 15.6486 136.081 15.248C135.68 14.8432 135.045 14.6408 134.176 14.6408H131.184V18.9874ZM152.352 19.78C152.352 21.1607 152.102 22.3538 151.604 23.3595C151.105 24.3652 150.421 25.1408 149.552 25.6862C148.683 26.2317 147.69 26.5044 146.573 26.5044C145.457 26.5044 144.464 26.2317 143.594 25.6862C142.725 25.1408 142.041 24.3652 141.543 23.3595C141.044 22.3538 140.795 21.1607 140.795 19.78C140.795 18.3993 141.044 17.2061 141.543 16.2004C142.041 15.1948 142.725 14.4192 143.594 13.8737C144.464 13.3283 145.457 13.0556 146.573 13.0556C147.69 13.0556 148.683 13.3283 149.552 13.8737C150.421 14.4192 151.105 15.1948 151.604 16.2004C152.102 17.2061 152.352 18.3993 152.352 19.78ZM150.817 19.78C150.817 18.6465 150.628 17.6898 150.249 16.91C149.874 16.1301 149.364 15.5399 148.721 15.1394C148.082 14.7388 147.366 14.5385 146.573 14.5385C145.781 14.5385 145.063 14.7388 144.419 15.1394C143.78 15.5399 143.271 16.1301 142.891 16.91C142.516 17.6898 142.329 18.6465 142.329 19.78C142.329 20.9135 142.516 21.8702 142.891 22.65C143.271 23.4298 143.78 24.02 144.419 24.4206C145.063 24.8212 145.781 25.0215 146.573 25.0215C147.366 25.0215 148.082 24.8212 148.721 24.4206C149.364 24.02 149.874 23.4298 150.249 22.65C150.628 21.8702 150.817 20.9135 150.817 19.78ZM155.017 13.2345H156.909L161.358 24.101H161.511L165.96 13.2345H167.852V26.3254H166.369V16.3794H166.241L162.151 26.3254H160.719L156.628 16.3794H156.5V26.3254H155.017V13.2345Z" fill="#111827"/>
<path d="M9.7579 96.9145H11.6499L16.0988 107.781H16.2522L20.7011 96.9145H22.5931V110.005H21.1102V100.059H20.9823L16.8914 110.005H15.4596L11.3687 100.059H11.2409V110.005H9.7579V96.9145ZM28.4562 110.235C27.8341 110.235 27.2694 110.118 26.7623 109.884C26.2552 109.645 25.8525 109.302 25.5542 108.855C25.2559 108.403 25.1068 107.858 25.1068 107.218C25.1068 106.656 25.2176 106.2 25.4392 105.851C25.6608 105.497 25.9569 105.22 26.3277 105.02C26.6984 104.819 27.1075 104.67 27.5549 104.572C28.0067 104.47 28.4605 104.389 28.9165 104.329C29.513 104.253 29.9967 104.195 30.3674 104.157C30.7424 104.114 31.0152 104.044 31.1856 103.946C31.3603 103.848 31.4477 103.677 31.4477 103.434V103.383C31.4477 102.753 31.2751 102.262 30.9299 101.913C30.589 101.564 30.0713 101.389 29.3767 101.389C28.6565 101.389 28.0919 101.547 27.6828 101.862C27.2737 102.177 26.9861 102.514 26.8199 102.872L25.388 102.36C25.6437 101.764 25.9846 101.299 26.4108 100.967C26.8412 100.63 27.3099 100.396 27.817 100.264C28.3284 100.128 28.8312 100.059 29.3255 100.059C29.6409 100.059 30.0031 100.098 30.4122 100.174C30.8255 100.247 31.224 100.398 31.6075 100.628C31.9953 100.858 32.317 101.206 32.5727 101.67C32.8284 102.135 32.9562 102.757 32.9562 103.537V110.005H31.4477V108.676H31.371C31.2687 108.889 31.0983 109.117 30.8596 109.36C30.621 109.603 30.3035 109.809 29.9072 109.98C29.5109 110.15 29.0272 110.235 28.4562 110.235ZM28.6863 108.88C29.2829 108.88 29.7858 108.763 30.1949 108.529C30.6082 108.294 30.9193 107.992 31.1281 107.621C31.3412 107.25 31.4477 106.86 31.4477 106.451V105.071C31.3838 105.147 31.2432 105.218 31.0258 105.282C30.8128 105.341 30.5656 105.395 30.2844 105.441C30.0074 105.484 29.7368 105.522 29.4726 105.557C29.2126 105.586 29.0017 105.612 28.8397 105.633C28.4477 105.684 28.0812 105.767 27.7403 105.883C27.4037 105.993 27.1309 106.162 26.9221 106.387C26.7176 106.609 26.6153 106.912 26.6153 107.295C26.6153 107.819 26.8092 108.216 27.197 108.484C27.589 108.748 28.0855 108.88 28.6863 108.88ZM37.2181 104.099V110.005H35.7096V100.187H37.167V101.721H37.2948C37.5249 101.223 37.8744 100.822 38.3431 100.52C38.8119 100.213 39.417 100.059 40.1585 100.059C40.8232 100.059 41.4049 100.196 41.9035 100.468C42.4021 100.737 42.7899 101.146 43.0668 101.696C43.3438 102.241 43.4823 102.932 43.4823 103.767V110.005H41.9738V103.869C41.9738 103.098 41.7735 102.497 41.373 102.066C40.9724 101.632 40.4227 101.414 39.7238 101.414C39.2423 101.414 38.8119 101.519 38.4326 101.728C38.0576 101.936 37.7614 102.241 37.5441 102.642C37.3268 103.042 37.2181 103.528 37.2181 104.099ZM52.4264 105.991V100.187H53.9349V110.005H52.4264V108.343H52.3241C52.094 108.842 51.7361 109.266 51.2503 109.615C50.7645 109.961 50.1508 110.133 49.4094 110.133C48.7957 110.133 48.2503 109.999 47.773 109.731C47.2957 109.458 46.9207 109.049 46.648 108.503C46.3753 107.954 46.2389 107.261 46.2389 106.426V100.187H47.7474V106.324C47.7474 107.039 47.9477 107.61 48.3483 108.037C48.7531 108.463 49.2687 108.676 49.8951 108.676C50.2701 108.676 50.6515 108.58 51.0393 108.388C51.4314 108.196 51.7595 107.902 52.0237 107.506C52.2922 107.11 52.4264 106.605 52.4264 105.991ZM61.07 100.187V101.466H55.7774V100.187H61.07ZM57.3627 110.005V98.8321C57.3627 98.2696 57.4948 97.8008 57.759 97.4258C58.0232 97.0508 58.3662 96.7696 58.7881 96.5821C59.21 96.3946 59.6553 96.3008 60.124 96.3008C60.4948 96.3008 60.7973 96.3307 61.0317 96.3903C61.2661 96.45 61.4408 96.5054 61.5558 96.5565L61.1212 97.8605C61.0445 97.8349 60.9379 97.803 60.8016 97.7646C60.6695 97.7263 60.4948 97.7071 60.2774 97.7071C59.7788 97.7071 59.4188 97.8328 59.1972 98.0842C58.9798 98.3356 58.8712 98.7042 58.8712 99.19V110.005H57.3627ZM65.7922 110.235C65.17 110.235 64.6054 110.118 64.0983 109.884C63.5912 109.645 63.1885 109.302 62.8902 108.855C62.5919 108.403 62.4427 107.858 62.4427 107.218C62.4427 106.656 62.5535 106.2 62.7751 105.851C62.9967 105.497 63.2929 105.22 63.6636 105.02C64.0344 104.819 64.4434 104.67 64.8909 104.572C65.3426 104.47 65.7964 104.389 66.2524 104.329C66.849 104.253 67.3326 104.195 67.7034 104.157C68.0784 104.114 68.3511 104.044 68.5216 103.946C68.6963 103.848 68.7836 103.677 68.7836 103.434V103.383C68.7836 102.753 68.6111 102.262 68.2659 101.913C67.925 101.564 67.4072 101.389 66.7126 101.389C65.9924 101.389 65.4278 101.547 65.0187 101.862C64.6096 102.177 64.322 102.514 64.1558 102.872L62.724 102.36C62.9797 101.764 63.3206 101.299 63.7467 100.967C64.1771 100.63 64.6459 100.396 65.153 100.264C65.6643 100.128 66.1672 100.059 66.6615 100.059C66.9768 100.059 67.339 100.098 67.7481 100.174C68.1615 100.247 68.5599 100.398 68.9434 100.628C69.3312 100.858 69.653 101.206 69.9086 101.67C70.1643 102.135 70.2922 102.757 70.2922 103.537V110.005H68.7836V108.676H68.7069C68.6047 108.889 68.4342 109.117 68.1956 109.36C67.9569 109.603 67.6395 109.809 67.2432 109.98C66.8469 110.15 66.3632 110.235 65.7922 110.235ZM66.0223 108.88C66.6189 108.88 67.1217 108.763 67.5308 108.529C67.9442 108.294 68.2552 107.992 68.464 107.621C68.6771 107.25 68.7836 106.86 68.7836 106.451V105.071C68.7197 105.147 68.5791 105.218 68.3618 105.282C68.1487 105.341 67.9015 105.395 67.6203 105.441C67.3433 105.484 67.0727 105.522 66.8085 105.557C66.5486 105.586 66.3376 105.612 66.1757 105.633C65.7836 105.684 65.4172 105.767 65.0763 105.883C64.7396 105.993 64.4669 106.162 64.2581 106.387C64.0535 106.609 63.9513 106.912 63.9513 107.295C63.9513 107.819 64.1451 108.216 64.5329 108.484C64.925 108.748 65.4214 108.88 66.0223 108.88ZM77.0342 110.21C76.1137 110.21 75.3211 109.993 74.6563 109.558C73.9916 109.123 73.4802 108.525 73.1222 107.762C72.7643 106.999 72.5853 106.128 72.5853 105.147C72.5853 104.15 72.7685 103.27 73.135 102.508C73.5058 101.74 74.0214 101.142 74.6819 100.711C75.3467 100.277 76.1222 100.059 77.0086 100.059C77.6989 100.059 78.3211 100.187 78.8751 100.443C79.4291 100.699 79.8829 101.057 80.2366 101.517C80.5903 101.977 80.8097 102.514 80.895 103.128H79.3864C79.2714 102.68 79.0157 102.284 78.6194 101.939C78.2274 101.589 77.6989 101.414 77.0342 101.414C76.4461 101.414 75.9305 101.568 75.4873 101.875C75.0484 102.177 74.7053 102.606 74.4582 103.159C74.2153 103.709 74.0938 104.355 74.0938 105.096C74.0938 105.855 74.2132 106.515 74.4518 107.078C74.6947 107.64 75.0356 108.077 75.4745 108.388C75.9177 108.699 76.4376 108.855 77.0342 108.855C77.4262 108.855 77.782 108.787 78.1016 108.65C78.4212 108.514 78.6918 108.318 78.9134 108.062C79.135 107.807 79.2927 107.5 79.3864 107.142H80.895C80.8097 107.721 80.5988 108.243 80.2622 108.708C79.9298 109.168 79.4887 109.534 78.939 109.807C78.3935 110.076 77.7586 110.21 77.0342 110.21ZM87.3701 100.187V101.466H82.282V100.187H87.3701ZM83.765 97.8349H85.2735V107.193C85.2735 107.619 85.3353 107.939 85.4589 108.152C85.5867 108.36 85.7487 108.501 85.9447 108.574C86.145 108.642 86.3559 108.676 86.5775 108.676C86.7437 108.676 86.8801 108.667 86.9866 108.65C87.0931 108.629 87.1784 108.612 87.2423 108.599L87.5491 109.954C87.4468 109.993 87.3041 110.031 87.1208 110.069C86.9376 110.112 86.7053 110.133 86.4241 110.133C85.998 110.133 85.5803 110.042 85.1712 109.858C84.7664 109.675 84.4298 109.396 84.1613 109.021C83.8971 108.646 83.765 108.173 83.765 107.602V97.8349ZM95.8268 105.991V100.187H97.3353V110.005H95.8268V108.343H95.7245C95.4944 108.842 95.1364 109.266 94.6507 109.615C94.1649 109.961 93.5512 110.133 92.8097 110.133C92.1961 110.133 91.6507 109.999 91.1734 109.731C90.6961 109.458 90.3211 109.049 90.0484 108.503C89.7757 107.954 89.6393 107.261 89.6393 106.426V100.187H91.1478V106.324C91.1478 107.039 91.3481 107.61 91.7487 108.037C92.1535 108.463 92.6691 108.676 93.2955 108.676C93.6705 108.676 94.0519 108.58 94.4397 108.388C94.8318 108.196 95.1599 107.902 95.4241 107.506C95.6926 107.11 95.8268 106.605 95.8268 105.991ZM100.098 110.005V100.187H101.556V101.67H101.658C101.837 101.184 102.161 100.79 102.63 100.488C103.098 100.185 103.627 100.034 104.215 100.034C104.326 100.034 104.464 100.036 104.63 100.04C104.796 100.044 104.922 100.051 105.007 100.059V101.593C104.956 101.581 104.839 101.561 104.656 101.536C104.477 101.506 104.287 101.491 104.087 101.491C103.61 101.491 103.183 101.591 102.808 101.792C102.438 101.988 102.144 102.26 101.926 102.61C101.713 102.955 101.607 103.349 101.607 103.792V110.005H100.098ZM106.796 110.005V100.187H108.304V110.005H106.796ZM107.563 98.5508C107.269 98.5508 107.015 98.4507 106.802 98.2504C106.593 98.0501 106.489 97.8093 106.489 97.5281C106.489 97.2468 106.593 97.0061 106.802 96.8058C107.015 96.6055 107.269 96.5054 107.563 96.5054C107.857 96.5054 108.108 96.6055 108.317 96.8058C108.53 97.0061 108.636 97.2468 108.636 97.5281C108.636 97.8093 108.53 98.0501 108.317 98.2504C108.108 98.4507 107.857 98.5508 107.563 98.5508ZM112.576 104.099V110.005H111.067V100.187H112.524V101.721H112.652C112.882 101.223 113.232 100.822 113.701 100.52C114.169 100.213 114.774 100.059 115.516 100.059C116.181 100.059 116.762 100.196 117.261 100.468C117.759 100.737 118.147 101.146 118.424 101.696C118.701 102.241 118.84 102.932 118.84 103.767V110.005H117.331V103.869C117.331 103.098 117.131 102.497 116.73 102.066C116.33 101.632 115.78 101.414 115.081 101.414C114.6 101.414 114.169 101.519 113.79 101.728C113.415 101.936 113.119 102.241 112.902 102.642C112.684 103.042 112.576 103.528 112.576 104.099ZM125.559 113.892C124.831 113.892 124.204 113.798 123.68 113.61C123.156 113.427 122.719 113.184 122.37 112.882C122.025 112.583 121.75 112.264 121.545 111.923L122.747 111.079C122.883 111.258 123.056 111.463 123.265 111.693C123.473 111.927 123.759 112.13 124.121 112.3C124.488 112.475 124.967 112.562 125.559 112.562C126.352 112.562 127.006 112.37 127.522 111.987C128.037 111.603 128.295 111.003 128.295 110.184V108.19H128.167C128.057 108.369 127.899 108.591 127.694 108.855C127.494 109.115 127.204 109.347 126.825 109.552C126.45 109.752 125.943 109.852 125.304 109.852C124.511 109.852 123.799 109.664 123.169 109.289C122.542 108.914 122.046 108.369 121.679 107.653C121.317 106.937 121.136 106.068 121.136 105.045C121.136 104.039 121.313 103.164 121.667 102.418C122.02 101.668 122.513 101.088 123.143 100.679C123.774 100.266 124.503 100.059 125.329 100.059C125.968 100.059 126.476 100.166 126.851 100.379C127.23 100.588 127.52 100.826 127.72 101.095C127.924 101.359 128.082 101.576 128.193 101.747H128.346V100.187H129.804V110.287C129.804 111.13 129.612 111.816 129.228 112.345C128.849 112.878 128.338 113.267 127.694 113.515C127.055 113.766 126.343 113.892 125.559 113.892ZM125.508 108.497C126.113 108.497 126.625 108.358 127.042 108.081C127.46 107.804 127.777 107.406 127.995 106.886C128.212 106.366 128.321 105.744 128.321 105.02C128.321 104.312 128.214 103.688 128.001 103.147C127.788 102.606 127.473 102.182 127.055 101.875C126.638 101.568 126.122 101.414 125.508 101.414C124.869 101.414 124.336 101.576 123.91 101.9C123.488 102.224 123.171 102.659 122.958 103.204C122.749 103.75 122.645 104.355 122.645 105.02C122.645 105.701 122.751 106.304 122.964 106.829C123.182 107.348 123.501 107.758 123.923 108.056C124.349 108.35 124.878 108.497 125.508 108.497ZM137.832 110.005V96.9145H142.409C143.321 96.9145 144.073 97.0721 144.665 97.3875C145.258 97.6986 145.699 98.1183 145.988 98.6467C146.278 99.1709 146.423 99.7525 146.423 100.392C146.423 100.954 146.323 101.419 146.123 101.785C145.927 102.152 145.667 102.441 145.343 102.655C145.023 102.868 144.676 103.025 144.301 103.128V103.255C144.701 103.281 145.104 103.422 145.509 103.677C145.914 103.933 146.253 104.299 146.525 104.777C146.798 105.254 146.934 105.838 146.934 106.528C146.934 107.184 146.785 107.775 146.487 108.299C146.189 108.823 145.718 109.238 145.074 109.545C144.431 109.852 143.593 110.005 142.562 110.005H137.832ZM139.417 108.599H142.562C143.598 108.599 144.333 108.399 144.767 107.998C145.206 107.593 145.426 107.103 145.426 106.528C145.426 106.085 145.313 105.676 145.087 105.301C144.861 104.922 144.54 104.619 144.122 104.393C143.704 104.163 143.21 104.048 142.639 104.048H139.417V108.599ZM139.417 102.667H142.358C142.835 102.667 143.265 102.574 143.649 102.386C144.037 102.199 144.343 101.934 144.569 101.593C144.799 101.253 144.915 100.852 144.915 100.392C144.915 99.8165 144.714 99.3285 144.314 98.928C143.913 98.5231 143.278 98.3207 142.409 98.3207H139.417V102.667ZM160.585 103.46C160.585 104.841 160.335 106.034 159.837 107.039C159.338 108.045 158.654 108.821 157.785 109.366C156.916 109.912 155.923 110.184 154.806 110.184C153.69 110.184 152.697 109.912 151.827 109.366C150.958 108.821 150.274 108.045 149.776 107.039C149.277 106.034 149.028 104.841 149.028 103.46C149.028 102.079 149.277 100.886 149.776 99.8804C150.274 98.8747 150.958 98.0991 151.827 97.5537C152.697 97.0082 153.69 96.7355 154.806 96.7355C155.923 96.7355 156.916 97.0082 157.785 97.5537C158.654 98.0991 159.338 98.8747 159.837 99.8804C160.335 100.886 160.585 102.079 160.585 103.46ZM159.051 103.46C159.051 102.326 158.861 101.37 158.482 100.59C158.107 99.8101 157.597 99.2199 156.954 98.8193C156.315 98.4187 155.599 98.2184 154.806 98.2184C154.014 98.2184 153.296 98.4187 152.652 98.8193C152.013 99.2199 151.504 99.8101 151.124 100.59C150.749 101.37 150.562 102.326 150.562 103.46C150.562 104.593 150.749 105.55 151.124 106.33C151.504 107.11 152.013 107.7 152.652 108.101C153.296 108.501 154.014 108.701 154.806 108.701C155.599 108.701 156.315 108.501 156.954 108.101C157.597 107.7 158.107 107.11 158.482 106.33C158.861 105.55 159.051 104.593 159.051 103.46ZM163.25 96.9145H165.142L169.591 107.781H169.744L174.193 96.9145H176.085V110.005H174.602V100.059H174.475L170.384 110.005H168.952L164.861 100.059H164.733V110.005H163.25V96.9145Z" fill="#111827"/>
<path d="M33.2543 193.685V180.594H37.831C38.7429 180.594 39.4951 180.752 40.0874 181.067C40.6797 181.378 41.1208 181.798 41.4105 182.327C41.7003 182.851 41.8452 183.432 41.8452 184.072C41.8452 184.634 41.7451 185.099 41.5448 185.465C41.3488 185.832 41.0888 186.121 40.7649 186.334C40.4453 186.548 40.098 186.705 39.723 186.807V186.935C40.1236 186.961 40.5263 187.101 40.9311 187.357C41.336 187.613 41.6747 187.979 41.9475 188.457C42.2202 188.934 42.3566 189.518 42.3566 190.208C42.3566 190.864 42.2074 191.454 41.9091 191.979C41.6108 192.503 41.1399 192.918 40.4965 193.225C39.853 193.532 39.0157 193.685 37.9844 193.685H33.2543ZM34.8395 192.279H37.9844C39.0199 192.279 39.755 192.079 40.1897 191.678C40.6286 191.273 40.848 190.783 40.848 190.208C40.848 189.765 40.7351 189.356 40.5093 188.981C40.2834 188.601 39.9617 188.299 39.5441 188.073C39.1265 187.843 38.6321 187.728 38.0611 187.728H34.8395V192.279ZM34.8395 186.347H37.7799C38.2571 186.347 38.6875 186.253 39.0711 186.066C39.4588 185.878 39.7657 185.614 39.9915 185.273C40.2216 184.932 40.3367 184.532 40.3367 184.072C40.3367 183.496 40.1364 183.008 39.7358 182.608C39.3353 182.203 38.7003 182.001 37.831 182.001H34.8395V186.347ZM44.7568 193.685V183.867H46.2653V193.685H44.7568ZM45.5238 182.231C45.2298 182.231 44.9762 182.131 44.7632 181.93C44.5544 181.73 44.45 181.489 44.45 181.208C44.45 180.927 44.5544 180.686 44.7632 180.486C44.9762 180.285 45.2298 180.185 45.5238 180.185C45.8179 180.185 46.0693 180.285 46.2781 180.486C46.4912 180.686 46.5977 180.927 46.5977 181.208C46.5977 181.489 46.4912 181.73 46.2781 181.93C46.0693 182.131 45.8179 182.231 45.5238 182.231ZM50.5368 180.594V193.685H49.0283V180.594H50.5368ZM54.8083 180.594V193.685H53.2997V180.594H54.8083ZM66.6224 193.89C65.736 193.89 64.9583 193.679 64.2893 193.257C63.6245 192.835 63.1046 192.245 62.7296 191.486C62.3589 190.728 62.1735 189.842 62.1735 188.827C62.1735 187.805 62.3589 186.912 62.7296 186.149C63.1046 185.386 63.6245 184.794 64.2893 184.372C64.9583 183.95 65.736 183.739 66.6224 183.739C67.5087 183.739 68.2843 183.95 68.9491 184.372C69.6181 184.794 70.138 185.386 70.5087 186.149C70.8837 186.912 71.0712 187.805 71.0712 188.827C71.0712 189.842 70.8837 190.728 70.5087 191.486C70.138 192.245 69.6181 192.835 68.9491 193.257C68.2843 193.679 67.5087 193.89 66.6224 193.89ZM66.6224 192.535C67.2957 192.535 67.8496 192.362 68.2843 192.017C68.719 191.672 69.0407 191.218 69.2495 190.655C69.4583 190.093 69.5627 189.484 69.5627 188.827C69.5627 188.171 69.4583 187.56 69.2495 186.993C69.0407 186.426 68.719 185.968 68.2843 185.619C67.8496 185.269 67.2957 185.094 66.6224 185.094C65.9491 185.094 65.3951 185.269 64.9604 185.619C64.5258 185.968 64.204 186.426 63.9952 186.993C63.7864 187.56 63.682 188.171 63.682 188.827C63.682 189.484 63.7864 190.093 63.9952 190.655C64.204 191.218 64.5258 191.672 64.9604 192.017C65.3951 192.362 65.9491 192.535 66.6224 192.535ZM77.7461 183.867V185.146H72.4535V183.867H77.7461ZM74.0387 193.685V182.512C74.0387 181.95 74.1708 181.481 74.435 181.106C74.6993 180.731 75.0423 180.45 75.4642 180.262C75.886 180.075 76.3314 179.981 76.8001 179.981C77.1708 179.981 77.4734 180.011 77.7078 180.07C77.9421 180.13 78.1169 180.185 78.2319 180.236L77.7973 181.54C77.7206 181.515 77.614 181.483 77.4777 181.445C77.3456 181.406 77.1708 181.387 76.9535 181.387C76.4549 181.387 76.0948 181.513 75.8733 181.764C75.6559 182.016 75.5473 182.384 75.5473 182.87V193.685H74.0387ZM85.1273 193.685V180.594H89.5506C90.5776 180.594 91.4171 180.78 92.0691 181.151C92.7254 181.517 93.2111 182.013 93.5265 182.64C93.8418 183.266 93.9995 183.965 93.9995 184.736C93.9995 185.508 93.8418 186.209 93.5265 186.839C93.2154 187.47 92.7339 187.973 92.0819 188.348C91.4299 188.719 90.5947 188.904 89.5762 188.904H86.4058V187.498H89.5251C90.2282 187.498 90.7928 187.376 91.219 187.133C91.6451 186.891 91.954 186.562 92.1458 186.149C92.3418 185.731 92.4398 185.261 92.4398 184.736C92.4398 184.212 92.3418 183.744 92.1458 183.33C91.954 182.917 91.643 182.593 91.2126 182.359C90.7822 182.12 90.2111 182.001 89.4995 182.001H86.7126V193.685H85.1273ZM96.3486 193.685V183.867H97.806V185.35H97.9082C98.0872 184.864 98.4111 184.47 98.8798 184.168C99.3486 183.865 99.877 183.714 100.465 183.714C100.576 183.714 100.714 183.716 100.881 183.72C101.047 183.724 101.172 183.731 101.258 183.739V185.273C101.207 185.261 101.089 185.241 100.906 185.216C100.727 185.186 100.537 185.171 100.337 185.171C99.8599 185.171 99.4338 185.271 99.0588 185.472C98.6881 185.668 98.394 185.94 98.1767 186.29C97.9636 186.635 97.8571 187.029 97.8571 187.472V193.685H96.3486ZM106.736 193.89C105.849 193.89 105.072 193.679 104.403 193.257C103.738 192.835 103.218 192.245 102.843 191.486C102.472 190.728 102.287 189.842 102.287 188.827C102.287 187.805 102.472 186.912 102.843 186.149C103.218 185.386 103.738 184.794 104.403 184.372C105.072 183.95 105.849 183.739 106.736 183.739C107.622 183.739 108.398 183.95 109.062 184.372C109.731 184.794 110.251 185.386 110.622 186.149C110.997 186.912 111.185 187.805 111.185 188.827C111.185 189.842 110.997 190.728 110.622 191.486C110.251 192.245 109.731 192.835 109.062 193.257C108.398 193.679 107.622 193.89 106.736 193.89ZM106.736 192.535C107.409 192.535 107.963 192.362 108.398 192.017C108.832 191.672 109.154 191.218 109.363 190.655C109.572 190.093 109.676 189.484 109.676 188.827C109.676 188.171 109.572 187.56 109.363 186.993C109.154 186.426 108.832 185.968 108.398 185.619C107.963 185.269 107.409 185.094 106.736 185.094C106.062 185.094 105.508 185.269 105.074 185.619C104.639 185.968 104.317 186.426 104.109 186.993C103.9 187.56 103.795 188.171 103.795 188.827C103.795 189.484 103.9 190.093 104.109 190.655C104.317 191.218 104.639 191.672 105.074 192.017C105.508 192.362 106.062 192.535 106.736 192.535ZM117.476 193.89C116.555 193.89 115.763 193.673 115.098 193.238C114.433 192.803 113.922 192.204 113.564 191.442C113.206 190.679 113.027 189.807 113.027 188.827C113.027 187.83 113.21 186.95 113.577 186.187C113.947 185.42 114.463 184.822 115.124 184.391C115.788 183.957 116.564 183.739 117.45 183.739C118.141 183.739 118.763 183.867 119.317 184.123C119.871 184.378 120.325 184.736 120.678 185.197C121.032 185.657 121.251 186.194 121.337 186.807H119.828C119.713 186.36 119.457 185.964 119.061 185.619C118.669 185.269 118.141 185.094 117.476 185.094C116.888 185.094 116.372 185.248 115.929 185.555C115.49 185.857 115.147 186.285 114.9 186.839C114.657 187.389 114.536 188.035 114.536 188.776C114.536 189.535 114.655 190.195 114.893 190.758C115.136 191.32 115.477 191.757 115.916 192.068C116.359 192.379 116.879 192.535 117.476 192.535C117.868 192.535 118.224 192.467 118.543 192.33C118.863 192.194 119.134 191.998 119.355 191.742C119.577 191.486 119.734 191.18 119.828 190.822H121.337C121.251 191.401 121.041 191.923 120.704 192.388C120.371 192.848 119.93 193.214 119.381 193.487C118.835 193.756 118.2 193.89 117.476 193.89ZM127.658 193.89C126.712 193.89 125.896 193.681 125.21 193.263C124.528 192.842 124.002 192.253 123.631 191.499C123.265 190.741 123.082 189.859 123.082 188.853C123.082 187.847 123.265 186.961 123.631 186.194C124.002 185.423 124.518 184.822 125.178 184.391C125.843 183.957 126.619 183.739 127.505 183.739C128.016 183.739 128.521 183.825 129.02 183.995C129.518 184.165 129.972 184.442 130.381 184.826C130.791 185.205 131.117 185.708 131.359 186.334C131.602 186.961 131.724 187.732 131.724 188.648V189.288H124.156V187.984H130.19C130.19 187.43 130.079 186.935 129.857 186.501C129.64 186.066 129.329 185.723 128.924 185.472C128.523 185.22 128.05 185.094 127.505 185.094C126.904 185.094 126.384 185.244 125.945 185.542C125.511 185.836 125.176 186.219 124.942 186.692C124.707 187.165 124.59 187.673 124.59 188.214V189.083C124.59 189.825 124.718 190.453 124.974 190.969C125.234 191.48 125.594 191.87 126.054 192.138C126.514 192.403 127.049 192.535 127.658 192.535C128.055 192.535 128.413 192.479 128.732 192.369C129.056 192.253 129.335 192.083 129.57 191.857C129.804 191.627 129.985 191.342 130.113 191.001L131.57 191.41C131.417 191.904 131.159 192.339 130.797 192.714C130.435 193.084 129.987 193.374 129.455 193.583C128.922 193.788 128.323 193.89 127.658 193.89ZM140.973 186.066L139.618 186.45C139.533 186.224 139.407 186.004 139.241 185.791C139.079 185.574 138.857 185.395 138.576 185.254C138.295 185.114 137.935 185.043 137.496 185.043C136.895 185.043 136.394 185.182 135.994 185.459C135.597 185.731 135.399 186.079 135.399 186.501C135.399 186.876 135.536 187.172 135.808 187.389C136.081 187.606 136.507 187.788 137.087 187.932L138.544 188.29C139.422 188.503 140.076 188.829 140.506 189.268C140.937 189.703 141.152 190.263 141.152 190.95C141.152 191.512 140.99 192.015 140.666 192.458C140.347 192.901 139.899 193.251 139.324 193.506C138.749 193.762 138.08 193.89 137.317 193.89C136.315 193.89 135.487 193.673 134.83 193.238C134.174 192.803 133.759 192.168 133.584 191.333L135.016 190.975C135.152 191.503 135.41 191.9 135.789 192.164C136.173 192.428 136.673 192.56 137.291 192.56C137.994 192.56 138.553 192.411 138.966 192.113C139.384 191.81 139.592 191.448 139.592 191.026C139.592 190.685 139.473 190.4 139.234 190.17C138.996 189.935 138.629 189.761 138.135 189.646L136.499 189.262C135.599 189.049 134.939 188.719 134.517 188.271C134.099 187.82 133.891 187.255 133.891 186.577C133.891 186.023 134.046 185.533 134.357 185.107C134.673 184.681 135.101 184.347 135.642 184.104C136.188 183.861 136.805 183.739 137.496 183.739C138.467 183.739 139.23 183.952 139.784 184.378C140.342 184.805 140.739 185.367 140.973 186.066ZM150.377 186.066L149.022 186.45C148.937 186.224 148.811 186.004 148.645 185.791C148.483 185.574 148.262 185.395 147.98 185.254C147.699 185.114 147.339 185.043 146.9 185.043C146.299 185.043 145.799 185.182 145.398 185.459C145.002 185.731 144.803 186.079 144.803 186.501C144.803 186.876 144.94 187.172 145.213 187.389C145.485 187.606 145.911 187.788 146.491 187.932L147.948 188.29C148.826 188.503 149.48 188.829 149.911 189.268C150.341 189.703 150.556 190.263 150.556 190.95C150.556 191.512 150.394 192.015 150.071 192.458C149.751 192.901 149.303 193.251 148.728 193.506C148.153 193.762 147.484 193.89 146.721 193.89C145.72 193.89 144.891 193.673 144.235 193.238C143.578 192.803 143.163 192.168 142.988 191.333L144.42 190.975C144.556 191.503 144.814 191.9 145.193 192.164C145.577 192.428 146.078 192.56 146.696 192.56C147.399 192.56 147.957 192.411 148.37 192.113C148.788 191.81 148.997 191.448 148.997 191.026C148.997 190.685 148.877 190.4 148.639 190.17C148.4 189.935 148.034 189.761 147.539 189.646L145.903 189.262C145.004 189.049 144.343 188.719 143.921 188.271C143.504 187.82 143.295 187.255 143.295 186.577C143.295 186.023 143.45 185.533 143.762 185.107C144.077 184.681 144.505 184.347 145.046 184.104C145.592 183.861 146.21 183.739 146.9 183.739C147.872 183.739 148.634 183.952 149.188 184.378C149.747 184.805 150.143 185.367 150.377 186.066Z" fill="#111827"/>
<path d="M19.9737 277.365V264.274H24.5504C25.4624 264.274 26.2145 264.432 26.8068 264.747C27.3991 265.058 27.8402 265.478 28.13 266.006C28.4197 266.53 28.5646 267.112 28.5646 267.751C28.5646 268.314 28.4645 268.778 28.2642 269.145C28.0682 269.511 27.8082 269.801 27.4844 270.014C27.1648 270.227 26.8175 270.385 26.4425 270.487V270.615C26.843 270.641 27.2457 270.781 27.6506 271.037C28.0554 271.293 28.3942 271.659 28.6669 272.136C28.9396 272.614 29.076 273.197 29.076 273.888C29.076 274.544 28.9268 275.134 28.6285 275.658C28.3303 276.182 27.8594 276.598 27.2159 276.905C26.5724 277.212 25.7351 277.365 24.7038 277.365H19.9737ZM21.5589 275.959H24.7038C25.7393 275.959 26.4744 275.758 26.9091 275.358C27.348 274.953 27.5675 274.463 27.5675 273.888C27.5675 273.445 27.4545 273.035 27.2287 272.66C27.0028 272.281 26.6811 271.979 26.2635 271.753C25.8459 271.523 25.3516 271.408 24.7805 271.408H21.5589V275.959ZM21.5589 270.027H24.4993C24.9766 270.027 25.407 269.933 25.7905 269.746C26.1783 269.558 26.4851 269.294 26.7109 268.953C26.941 268.612 27.0561 268.212 27.0561 267.751C27.0561 267.176 26.8558 266.688 26.4553 266.288C26.0547 265.883 25.4197 265.68 24.5504 265.68H21.5589V270.027ZM31.4762 277.365V267.547H32.9847V277.365H31.4762ZM32.2432 265.91C31.9492 265.91 31.6957 265.81 31.4826 265.61C31.2738 265.41 31.1694 265.169 31.1694 264.888C31.1694 264.606 31.2738 264.366 31.4826 264.165C31.6957 263.965 31.9492 263.865 32.2432 263.865C32.5373 263.865 32.7887 263.965 32.9975 264.165C33.2106 264.366 33.3171 264.606 33.3171 264.888C33.3171 265.169 33.2106 265.41 32.9975 265.61C32.7887 265.81 32.5373 265.91 32.2432 265.91ZM37.2562 264.274V277.365H35.7477V264.274H37.2562ZM41.5277 264.274V277.365H40.0192V264.274H41.5277ZM53.3418 277.57C52.4554 277.57 51.6777 277.359 51.0087 276.937C50.3439 276.515 49.824 275.925 49.449 275.166C49.0783 274.408 48.8929 273.521 48.8929 272.507C48.8929 271.484 49.0783 270.592 49.449 269.829C49.824 269.066 50.3439 268.474 51.0087 268.052C51.6777 267.63 52.4554 267.419 53.3418 267.419C54.2282 267.419 55.0037 267.63 55.6685 268.052C56.3375 268.474 56.8574 269.066 57.2282 269.829C57.6032 270.592 57.7907 271.484 57.7907 272.507C57.7907 273.521 57.6032 274.408 57.2282 275.166C56.8574 275.925 56.3375 276.515 55.6685 276.937C55.0037 277.359 54.2282 277.57 53.3418 277.57ZM53.3418 276.214C54.0151 276.214 54.5691 276.042 55.0037 275.697C55.4384 275.351 55.7601 274.898 55.9689 274.335C56.1777 273.773 56.2821 273.163 56.2821 272.507C56.2821 271.851 56.1777 271.239 55.9689 270.673C55.7601 270.106 55.4384 269.648 55.0037 269.298C54.5691 268.949 54.0151 268.774 53.3418 268.774C52.6685 268.774 52.1145 268.949 51.6799 269.298C51.2452 269.648 50.9235 270.106 50.7147 270.673C50.5059 271.239 50.4015 271.851 50.4015 272.507C50.4015 273.163 50.5059 273.773 50.7147 274.335C50.9235 274.898 51.2452 275.351 51.6799 275.697C52.1145 276.042 52.6685 276.214 53.3418 276.214ZM64.4655 267.547V268.825H59.1729V267.547H64.4655ZM60.7582 277.365V266.192C60.7582 265.629 60.8903 265.16 61.1545 264.785C61.4187 264.41 61.7617 264.129 62.1836 263.942C62.6055 263.754 63.0508 263.66 63.5195 263.66C63.8903 263.66 64.1928 263.69 64.4272 263.75C64.6616 263.81 64.8363 263.865 64.9513 263.916L64.5167 265.22C64.44 265.195 64.3334 265.163 64.1971 265.124C64.065 265.086 63.8903 265.067 63.6729 265.067C63.1744 265.067 62.8143 265.192 62.5927 265.444C62.3753 265.695 62.2667 266.064 62.2667 266.55V277.365H60.7582ZM71.8468 277.365V264.274H79.7473V265.68H73.432V270.104H79.3382V271.51H73.432V275.959H79.8496V277.365H71.8468ZM89.0989 281.047V275.856H88.9711C88.8603 276.035 88.7026 276.261 88.498 276.534C88.2935 276.802 88.0016 277.043 87.6223 277.256C87.2431 277.465 86.7381 277.57 86.1074 277.57C85.2892 277.57 84.5669 277.363 83.9405 276.95C83.3141 276.532 82.824 275.944 82.4703 275.185C82.1166 274.423 81.9398 273.521 81.9398 272.481C81.9398 271.45 82.1166 270.555 82.4703 269.797C82.824 269.038 83.3162 268.452 83.9469 268.039C84.5776 267.626 85.3063 267.419 86.133 267.419C86.7722 267.419 87.2772 267.526 87.6479 267.739C88.0229 267.947 88.3084 268.186 88.5044 268.454C88.7047 268.719 88.8603 268.936 88.9711 269.106H89.15V267.547H90.6074V281.047H89.0989ZM86.312 276.214C86.9171 276.214 87.4284 276.057 87.8461 275.741C88.2637 275.422 88.5811 274.981 88.7985 274.418C89.0158 273.851 89.1245 273.197 89.1245 272.456C89.1245 271.723 89.0179 271.082 88.8049 270.532C88.5918 269.978 88.2765 269.548 87.8588 269.241C87.4412 268.93 86.9256 268.774 86.312 268.774C85.6728 268.774 85.1401 268.938 84.714 269.266C84.2921 269.59 83.9746 270.031 83.7615 270.589C83.5527 271.143 83.4483 271.766 83.4483 272.456C83.4483 273.155 83.5549 273.79 83.7679 274.361C83.9853 274.927 84.3049 275.379 84.7267 275.716C85.1529 276.048 85.6813 276.214 86.312 276.214ZM99.5563 273.351V267.547H101.065V277.365H99.5563V275.703H99.454C99.2239 276.202 98.8659 276.626 98.3801 276.975C97.8943 277.32 97.2807 277.493 96.5392 277.493C95.9256 277.493 95.3801 277.359 94.9029 277.09C94.4256 276.817 94.0506 276.408 93.7779 275.863C93.5051 275.313 93.3688 274.621 93.3688 273.785V267.547H94.8773V273.683C94.8773 274.399 95.0776 274.97 95.4782 275.396C95.883 275.822 96.3986 276.035 97.025 276.035C97.4 276.035 97.7814 275.94 98.1692 275.748C98.5613 275.556 98.8894 275.262 99.1536 274.866C99.422 274.469 99.5563 273.964 99.5563 273.351ZM103.828 277.365V267.547H105.336V277.365H103.828ZM104.595 265.91C104.301 265.91 104.047 265.81 103.834 265.61C103.625 265.41 103.521 265.169 103.521 264.888C103.521 264.606 103.625 264.366 103.834 264.165C104.047 263.965 104.301 263.865 104.595 263.865C104.889 263.865 105.14 263.965 105.349 264.165C105.562 264.366 105.669 264.606 105.669 264.888C105.669 265.169 105.562 265.41 105.349 265.61C105.14 265.81 104.889 265.91 104.595 265.91ZM108.099 281.047V267.547H109.557V269.106H109.736C109.846 268.936 110 268.719 110.196 268.454C110.396 268.186 110.682 267.947 111.052 267.739C111.427 267.526 111.934 267.419 112.574 267.419C113.4 267.419 114.129 267.626 114.76 268.039C115.39 268.452 115.883 269.038 116.236 269.797C116.59 270.555 116.767 271.45 116.767 272.481C116.767 273.521 116.59 274.423 116.236 275.185C115.883 275.944 115.393 276.532 114.766 276.95C114.14 277.363 113.417 277.57 112.599 277.57C111.969 277.57 111.464 277.465 111.084 277.256C110.705 277.043 110.413 276.802 110.209 276.534C110.004 276.261 109.846 276.035 109.736 275.856H109.608V281.047H108.099ZM109.582 272.456C109.582 273.197 109.691 273.851 109.908 274.418C110.126 274.981 110.443 275.422 110.861 275.741C111.278 276.057 111.79 276.214 112.395 276.214C113.025 276.214 113.552 276.048 113.974 275.716C114.4 275.379 114.719 274.927 114.932 274.361C115.15 273.79 115.258 273.155 115.258 272.456C115.258 271.766 115.152 271.143 114.939 270.589C114.73 270.031 114.412 269.59 113.986 269.266C113.564 268.938 113.034 268.774 112.395 268.774C111.781 268.774 111.265 268.93 110.848 269.241C110.43 269.548 110.115 269.978 109.902 270.532C109.689 271.082 109.582 271.723 109.582 272.456ZM119.068 277.365V267.547H120.525V269.081H120.653C120.858 268.557 121.188 268.15 121.644 267.86C122.1 267.566 122.648 267.419 123.287 267.419C123.934 267.419 124.474 267.566 124.904 267.86C125.339 268.15 125.677 268.557 125.92 269.081H126.023C126.274 268.574 126.651 268.171 127.154 267.873C127.657 267.57 128.26 267.419 128.963 267.419C129.841 267.419 130.559 267.694 131.117 268.244C131.675 268.789 131.954 269.639 131.954 270.794V277.365H130.446V270.794C130.446 270.07 130.248 269.552 129.851 269.241C129.455 268.93 128.988 268.774 128.452 268.774C127.761 268.774 127.226 268.983 126.847 269.401C126.468 269.814 126.278 270.338 126.278 270.973V277.365H124.744V270.641C124.744 270.082 124.563 269.633 124.201 269.292C123.839 268.947 123.372 268.774 122.801 268.774C122.409 268.774 122.042 268.878 121.702 269.087C121.365 269.296 121.092 269.586 120.883 269.957C120.679 270.323 120.577 270.747 120.577 271.229V277.365H119.068ZM138.829 277.57C137.883 277.57 137.067 277.361 136.381 276.943C135.699 276.521 135.173 275.933 134.802 275.179C134.436 274.42 134.252 273.538 134.252 272.533C134.252 271.527 134.436 270.641 134.802 269.874C135.173 269.102 135.688 268.501 136.349 268.071C137.014 267.636 137.789 267.419 138.676 267.419C139.187 267.419 139.692 267.504 140.191 267.675C140.689 267.845 141.143 268.122 141.552 268.506C141.961 268.885 142.287 269.388 142.53 270.014C142.773 270.641 142.894 271.412 142.894 272.328V272.967H135.326V271.663H141.36C141.36 271.109 141.249 270.615 141.028 270.18C140.811 269.746 140.499 269.403 140.095 269.151C139.694 268.9 139.221 268.774 138.676 268.774C138.075 268.774 137.555 268.923 137.116 269.222C136.681 269.516 136.347 269.899 136.112 270.372C135.878 270.845 135.761 271.352 135.761 271.893V272.763C135.761 273.504 135.889 274.133 136.144 274.648C136.404 275.16 136.764 275.55 137.225 275.818C137.685 276.082 138.22 276.214 138.829 276.214C139.225 276.214 139.583 276.159 139.903 276.048C140.227 275.933 140.506 275.763 140.74 275.537C140.975 275.307 141.156 275.021 141.284 274.68L142.741 275.089C142.588 275.584 142.33 276.018 141.968 276.393C141.605 276.764 141.158 277.054 140.625 277.263C140.093 277.467 139.494 277.57 138.829 277.57ZM146.698 271.459V277.365H145.189V267.547H146.646V269.081H146.774C147.004 268.582 147.354 268.182 147.823 267.879C148.291 267.572 148.896 267.419 149.638 267.419C150.303 267.419 150.884 267.555 151.383 267.828C151.882 268.097 152.269 268.506 152.546 269.055C152.823 269.601 152.962 270.291 152.962 271.126V277.365H151.453V271.229C151.453 270.457 151.253 269.856 150.852 269.426C150.452 268.991 149.902 268.774 149.203 268.774C148.722 268.774 148.291 268.878 147.912 269.087C147.537 269.296 147.241 269.601 147.024 270.001C146.806 270.402 146.698 270.888 146.698 271.459ZM159.988 267.547V268.825H154.9V267.547H159.988ZM156.383 265.195H157.892V274.552C157.892 274.979 157.953 275.298 158.077 275.511C158.205 275.72 158.367 275.861 158.563 275.933C158.763 276.001 158.974 276.035 159.196 276.035C159.362 276.035 159.498 276.027 159.605 276.01C159.711 275.989 159.797 275.972 159.86 275.959L160.167 277.314C160.065 277.352 159.922 277.391 159.739 277.429C159.556 277.472 159.324 277.493 159.042 277.493C158.616 277.493 158.199 277.401 157.789 277.218C157.385 277.035 157.048 276.756 156.779 276.381C156.515 276.006 156.383 275.533 156.383 274.962V265.195ZM169.036 269.746L167.681 270.129C167.596 269.903 167.47 269.684 167.304 269.471C167.142 269.253 166.92 269.075 166.639 268.934C166.358 268.793 165.998 268.723 165.559 268.723C164.958 268.723 164.457 268.861 164.057 269.138C163.661 269.411 163.462 269.758 163.462 270.18C163.462 270.555 163.599 270.851 163.871 271.069C164.144 271.286 164.57 271.467 165.15 271.612L166.607 271.97C167.485 272.183 168.139 272.509 168.57 272.948C169 273.383 169.215 273.943 169.215 274.629C169.215 275.192 169.053 275.695 168.729 276.138C168.41 276.581 167.962 276.93 167.387 277.186C166.812 277.442 166.143 277.57 165.38 277.57C164.379 277.57 163.55 277.352 162.893 276.918C162.237 276.483 161.822 275.848 161.647 275.013L163.079 274.655C163.215 275.183 163.473 275.579 163.852 275.844C164.236 276.108 164.737 276.24 165.354 276.24C166.058 276.24 166.616 276.091 167.029 275.793C167.447 275.49 167.656 275.128 167.656 274.706C167.656 274.365 167.536 274.079 167.298 273.849C167.059 273.615 166.692 273.44 166.198 273.325L164.562 272.942C163.663 272.729 163.002 272.398 162.58 271.951C162.163 271.499 161.954 270.935 161.954 270.257C161.954 269.703 162.109 269.213 162.42 268.787C162.736 268.361 163.164 268.026 163.705 267.783C164.251 267.54 164.869 267.419 165.559 267.419C166.531 267.419 167.293 267.632 167.847 268.058C168.406 268.484 168.802 269.047 169.036 269.746Z" fill="#111827"/>
<path d="M41.7326 348.301V346.895H51.5508V348.301H47.4343V359.986H45.8491V348.301H41.7326ZM56.3576 360.19C55.4712 360.19 54.6935 359.979 54.0245 359.558C53.3597 359.136 52.8398 358.545 52.4648 357.787C52.0941 357.028 51.9087 356.142 51.9087 355.128C51.9087 354.105 52.0941 353.212 52.4648 352.45C52.8398 351.687 53.3597 351.095 54.0245 350.673C54.6935 350.251 55.4712 350.04 56.3576 350.04C57.244 350.04 58.0195 350.251 58.6843 350.673C59.3533 351.095 59.8732 351.687 60.244 352.45C60.619 353.212 60.8065 354.105 60.8065 355.128C60.8065 356.142 60.619 357.028 60.244 357.787C59.8732 358.545 59.3533 359.136 58.6843 359.558C58.0195 359.979 57.244 360.19 56.3576 360.19ZM56.3576 358.835C57.0309 358.835 57.5849 358.663 58.0195 358.318C58.4542 357.972 58.7759 357.519 58.9847 356.956C59.1935 356.394 59.2979 355.784 59.2979 355.128C59.2979 354.472 59.1935 353.86 58.9847 353.293C58.7759 352.727 58.4542 352.269 58.0195 351.919C57.5849 351.57 57.0309 351.395 56.3576 351.395C55.6843 351.395 55.1303 351.57 54.6957 351.919C54.261 352.269 53.9393 352.727 53.7305 353.293C53.5217 353.86 53.4173 354.472 53.4173 355.128C53.4173 355.784 53.5217 356.394 53.7305 356.956C53.9393 357.519 54.261 357.972 54.6957 358.318C55.1303 358.663 55.6843 358.835 56.3576 358.835ZM67.0978 360.19C66.2115 360.19 65.4338 359.979 64.7647 359.558C64.1 359.136 63.5801 358.545 63.2051 357.787C62.8343 357.028 62.649 356.142 62.649 355.128C62.649 354.105 62.8343 353.212 63.2051 352.45C63.5801 351.687 64.1 351.095 64.7647 350.673C65.4338 350.251 66.2115 350.04 67.0978 350.04C67.9842 350.04 68.7598 350.251 69.4245 350.673C70.0936 351.095 70.6135 351.687 70.9842 352.45C71.3592 353.212 71.5467 354.105 71.5467 355.128C71.5467 356.142 71.3592 357.028 70.9842 357.787C70.6135 358.545 70.0936 359.136 69.4245 359.558C68.7598 359.979 67.9842 360.19 67.0978 360.19ZM67.0978 358.835C67.7711 358.835 68.3251 358.663 68.7598 358.318C69.1944 357.972 69.5162 357.519 69.725 356.956C69.9338 356.394 70.0382 355.784 70.0382 355.128C70.0382 354.472 69.9338 353.86 69.725 353.293C69.5162 352.727 69.1944 352.269 68.7598 351.919C68.3251 351.57 67.7711 351.395 67.0978 351.395C66.4245 351.395 65.8706 351.57 65.4359 351.919C65.0012 352.269 64.6795 352.727 64.4707 353.293C64.2619 353.86 64.1575 354.472 64.1575 355.128C64.1575 355.784 64.2619 356.394 64.4707 356.956C64.6795 357.519 65.0012 357.972 65.4359 358.318C65.8706 358.663 66.4245 358.835 67.0978 358.835ZM75.358 346.895V359.986H73.8494V346.895H75.358ZM83.388 359.986V346.895H84.9732V358.58H91.0584V359.986H83.388ZM93.3084 359.986V350.168H94.8169V359.986H93.3084ZM94.0755 348.531C93.7814 348.531 93.5279 348.431 93.3148 348.231C93.106 348.031 93.0016 347.79 93.0016 347.509C93.0016 347.227 93.106 346.987 93.3148 346.786C93.5279 346.586 93.7814 346.486 94.0755 346.486C94.3695 346.486 94.6209 346.586 94.8297 346.786C95.0428 346.987 95.1493 347.227 95.1493 347.509C95.1493 347.79 95.0428 348.031 94.8297 348.231C94.6209 348.431 94.3695 348.531 94.0755 348.531ZM97.7844 359.986V346.895H99.293V351.727H99.4208C99.5316 351.557 99.685 351.34 99.881 351.075C100.081 350.807 100.367 350.568 100.738 350.359C101.113 350.146 101.62 350.04 102.259 350.04C103.086 350.04 103.814 350.246 104.445 350.66C105.076 351.073 105.568 351.659 105.922 352.418C106.275 353.176 106.452 354.071 106.452 355.102C106.452 356.142 106.275 357.043 105.922 357.806C105.568 358.565 105.078 359.153 104.451 359.57C103.825 359.984 103.103 360.19 102.284 360.19C101.654 360.19 101.149 360.086 100.77 359.877C100.39 359.664 100.098 359.423 99.8938 359.155C99.6893 358.882 99.5316 358.656 99.4208 358.477H99.2418V359.986H97.7844ZM99.2674 355.077C99.2674 355.818 99.3761 356.472 99.5934 357.039C99.8107 357.602 100.128 358.043 100.546 358.362C100.963 358.678 101.475 358.835 102.08 358.835C102.711 358.835 103.237 358.669 103.659 358.337C104.085 358 104.404 357.548 104.618 356.982C104.835 356.411 104.944 355.776 104.944 355.077C104.944 354.386 104.837 353.764 104.624 353.21C104.415 352.652 104.098 352.211 103.672 351.887C103.25 351.559 102.719 351.395 102.08 351.395C101.466 351.395 100.951 351.55 100.533 351.862C100.115 352.168 99.8001 352.599 99.587 353.153C99.3739 353.702 99.2674 354.344 99.2674 355.077ZM108.76 359.986V350.168H110.217V351.651H110.319C110.498 351.165 110.822 350.771 111.291 350.468C111.76 350.166 112.288 350.014 112.876 350.014C112.987 350.014 113.125 350.016 113.292 350.021C113.458 350.025 113.583 350.031 113.669 350.04V351.574C113.618 351.561 113.5 351.542 113.317 351.516C113.138 351.487 112.949 351.472 112.748 351.472C112.271 351.472 111.845 351.572 111.47 351.772C111.099 351.968 110.805 352.241 110.588 352.59C110.375 352.935 110.268 353.33 110.268 353.773V359.986H108.76ZM118.346 360.216C117.724 360.216 117.159 360.099 116.652 359.864C116.145 359.626 115.742 359.283 115.444 358.835C115.146 358.384 114.997 357.838 114.997 357.199C114.997 356.636 115.107 356.18 115.329 355.831C115.551 355.477 115.847 355.2 116.218 355C116.588 354.8 116.997 354.651 117.445 354.553C117.896 354.45 118.35 354.369 118.806 354.31C119.403 354.233 119.887 354.175 120.257 354.137C120.632 354.095 120.905 354.024 121.075 353.926C121.25 353.828 121.338 353.658 121.338 353.415V353.364C121.338 352.733 121.165 352.243 120.82 351.894C120.479 351.544 119.961 351.369 119.267 351.369C118.546 351.369 117.982 351.527 117.573 351.842C117.164 352.158 116.876 352.494 116.71 352.852L115.278 352.341C115.534 351.744 115.874 351.28 116.301 350.947C116.731 350.611 117.2 350.376 117.707 350.244C118.218 350.108 118.721 350.04 119.215 350.04C119.531 350.04 119.893 350.078 120.302 350.155C120.715 350.227 121.114 350.379 121.497 350.609C121.885 350.839 122.207 351.186 122.463 351.651C122.718 352.115 122.846 352.737 122.846 353.517V359.986H121.338V358.656H121.261C121.159 358.869 120.988 359.097 120.749 359.34C120.511 359.583 120.193 359.79 119.797 359.96C119.401 360.131 118.917 360.216 118.346 360.216ZM118.576 358.861C119.173 358.861 119.676 358.744 120.085 358.509C120.498 358.275 120.809 357.972 121.018 357.602C121.231 357.231 121.338 356.841 121.338 356.432V355.051C121.274 355.128 121.133 355.198 120.916 355.262C120.703 355.322 120.455 355.375 120.174 355.422C119.897 355.465 119.627 355.503 119.362 355.537C119.102 355.567 118.892 355.592 118.73 355.614C118.338 355.665 117.971 355.748 117.63 355.863C117.294 355.974 117.021 356.142 116.812 356.368C116.607 356.59 116.505 356.892 116.505 357.276C116.505 357.8 116.699 358.196 117.087 358.465C117.479 358.729 117.975 358.861 118.576 358.861ZM125.599 359.986V350.168H127.057V351.651H127.159C127.338 351.165 127.662 350.771 128.131 350.468C128.599 350.166 129.128 350.014 129.716 350.014C129.827 350.014 129.965 350.016 130.131 350.021C130.298 350.025 130.423 350.031 130.509 350.04V351.574C130.457 351.561 130.34 351.542 130.157 351.516C129.978 351.487 129.788 351.472 129.588 351.472C129.111 351.472 128.685 351.572 128.31 351.772C127.939 351.968 127.645 352.241 127.428 352.59C127.214 352.935 127.108 353.33 127.108 353.773V359.986H125.599ZM133.567 363.668C133.311 363.668 133.083 363.646 132.883 363.604C132.683 363.565 132.544 363.527 132.468 363.489L132.851 362.159C133.218 362.253 133.542 362.287 133.823 362.261C134.104 362.236 134.353 362.11 134.571 361.884C134.792 361.663 134.995 361.303 135.178 360.804L135.459 360.037L131.828 350.168H133.465L136.175 357.992H136.277L138.988 350.168H140.624L136.456 361.418C136.269 361.925 136.037 362.345 135.76 362.677C135.483 363.014 135.161 363.263 134.794 363.425C134.432 363.587 134.023 363.668 133.567 363.668Z" fill="#111827"/>
<path d="M200.606 15.9998H270.528L330.806 90.4509M200.606 98.0772H270.528L301.873 132.65M200.606 184H280.655" stroke="#E5E7EB" stroke-width="5"/>
<path d="M200.606 352H270.528L330.806 277.549M200.606 269.923H270.528L301.873 235.35M200.606 184H280.655" stroke="#E5E7EB" stroke-width="5"/>
<path d="M420.227 135H325.971C324.44 135.002 322.973 135.633 321.89 136.755C320.808 137.878 320.199 139.399 320.197 140.986V207.022C320.199 208.609 320.807 210.131 321.89 211.254C322.972 212.376 324.44 213.008 325.971 213.01H364.222V217.592H355.447C353.984 217.593 352.582 218.196 351.547 219.269C350.513 220.341 349.931 221.796 349.93 223.313V227.26C349.93 227.745 350.115 228.21 350.446 228.553C350.777 228.896 351.225 229.088 351.693 229.088H394.501C394.968 229.088 395.417 228.896 395.748 228.553C396.078 228.21 396.264 227.745 396.264 227.26V223.311C396.262 221.794 395.68 220.34 394.645 219.267C393.611 218.195 392.208 217.592 390.745 217.592H381.974V213.01H420.225C421.756 213.008 423.225 212.377 424.308 211.254C425.39 210.13 425.999 208.608 426 207.02V140.986C425.998 139.399 425.389 137.878 424.307 136.755C423.225 135.633 421.757 135.002 420.227 135ZM325.971 138.657H420.227C421.466 138.657 422.473 139.703 422.473 140.986V197.32H323.724V140.988C323.724 139.703 324.731 138.657 325.971 138.657ZM392.739 223.311V225.432H353.458V223.311C353.459 222.763 353.669 222.239 354.043 221.852C354.417 221.465 354.923 221.248 355.451 221.248H390.748C391.276 221.249 391.782 221.466 392.156 221.853C392.529 222.24 392.739 222.763 392.739 223.311ZM378.449 217.592H367.749V213.01H378.449V217.592ZM420.227 209.353H325.971C325.374 209.352 324.803 209.106 324.382 208.668C323.961 208.231 323.724 207.638 323.724 207.02V200.975H422.473V207.02C422.473 208.305 421.466 209.353 420.227 209.353Z" fill="#03E5E5"/>
<path d="M332.938 178.564H342.239V188.237C342.239 188.722 342.425 189.187 342.756 189.529C343.087 189.872 343.535 190.065 344.003 190.065H369.09C369.558 190.065 370.007 189.872 370.337 189.529C370.668 189.187 370.854 188.722 370.854 188.237V162.226C370.854 161.741 370.668 161.276 370.337 160.933C370.007 160.59 369.558 160.398 369.09 160.398H359.762V150.726C359.762 150.241 359.576 149.776 359.246 149.433C358.915 149.09 358.466 148.897 357.999 148.897H332.938C332.47 148.897 332.021 149.09 331.691 149.433C331.36 149.776 331.174 150.241 331.174 150.726V176.736C331.174 177.221 331.36 177.686 331.691 178.029C332.021 178.372 332.47 178.564 332.938 178.564ZM367.327 164.054V186.408H345.766V178.564H357.999C358.466 178.564 358.915 178.372 359.246 178.029C359.576 177.686 359.762 177.221 359.762 176.736V164.054H367.327ZM334.701 152.554H356.235V174.908H334.701V152.554ZM381.746 152.554H413.85C414.318 152.554 414.766 152.361 415.097 152.018C415.428 151.676 415.614 151.211 415.614 150.726C415.614 150.241 415.428 149.776 415.097 149.433C414.766 149.09 414.318 148.897 413.85 148.897H381.746C381.278 148.897 380.83 149.09 380.499 149.433C380.169 149.776 379.983 150.241 379.983 150.726C379.983 151.211 380.169 151.676 380.499 152.018C380.83 152.361 381.278 152.554 381.746 152.554ZM381.746 162.612H413.85C414.318 162.612 414.766 162.419 415.097 162.076C415.428 161.733 415.614 161.268 415.614 160.784C415.614 160.299 415.428 159.834 415.097 159.491C414.766 159.148 414.318 158.955 413.85 158.955H381.746C381.278 158.955 380.83 159.148 380.499 159.491C380.169 159.834 379.983 160.299 379.983 160.784C379.983 161.268 380.169 161.733 380.499 162.076C380.83 162.419 381.278 162.612 381.746 162.612ZM381.746 172.67H413.85C414.318 172.67 414.766 172.477 415.097 172.134C415.428 171.791 415.614 171.326 415.614 170.841C415.614 170.357 415.428 169.891 415.097 169.549C414.766 169.206 414.318 169.013 413.85 169.013H381.746C381.278 169.013 380.83 169.206 380.499 169.549C380.169 169.891 379.983 170.357 379.983 170.841C379.983 171.326 380.169 171.791 380.499 172.134C380.83 172.477 381.278 172.67 381.746 172.67ZM381.746 184.216H385.139C385.607 184.216 386.055 184.023 386.386 183.68C386.716 183.338 386.902 182.873 386.902 182.388C386.902 181.903 386.716 181.438 386.386 181.095C386.055 180.752 385.607 180.559 385.139 180.559H381.746C381.278 180.559 380.83 180.752 380.499 181.095C380.169 181.438 379.983 181.903 379.983 182.388C379.983 182.873 380.169 183.338 380.499 183.68C380.83 184.023 381.278 184.216 381.746 184.216ZM393.134 180.559H389.741C389.274 180.559 388.825 180.752 388.494 181.095C388.164 181.438 387.978 181.903 387.978 182.388C387.978 182.873 388.164 183.338 388.494 183.68C388.825 184.023 389.274 184.216 389.741 184.216H393.134C393.602 184.216 394.05 184.023 394.381 183.68C394.712 183.338 394.897 182.873 394.897 182.388C394.897 181.903 394.712 181.438 394.381 181.095C394.05 180.752 393.602 180.559 393.134 180.559ZM401.129 180.559H397.738C397.271 180.559 396.822 180.752 396.491 181.095C396.161 181.438 395.975 181.903 395.975 182.388C395.975 182.873 396.161 183.338 396.491 183.68C396.822 184.023 397.271 184.216 397.738 184.216H401.129C401.597 184.216 402.045 184.023 402.376 183.68C402.707 183.338 402.893 182.873 402.893 182.388C402.893 181.903 402.707 181.438 402.376 181.095C402.045 180.752 401.597 180.559 401.129 180.559Z" fill="#03E5E5"/>
</svg>
