<svg viewBox="0 0 369 325" fill="none" xmlns="http://www.w3.org/2000/svg">
<path d="M194.82 298.12L213.54 279.4L232.26 298.12C232.499 298.359 232.783 298.548 233.095 298.677C233.407 298.806 233.742 298.871 234.08 298.87C234.588 298.869 235.085 298.718 235.507 298.435C235.929 298.151 236.258 297.75 236.451 297.28C236.645 296.81 236.695 296.293 236.595 295.795C236.495 295.296 236.25 294.839 235.89 294.48L213.54 272.12L191.18 294.48C190.82 294.84 190.574 295.298 190.474 295.797C190.375 296.296 190.426 296.814 190.62 297.284C190.815 297.755 191.146 298.156 191.569 298.439C191.993 298.721 192.491 298.871 193 298.87C193.682 298.87 194.336 298.601 194.82 298.12Z" fill="#03E5E5"/>
<path opacity="0.2" d="M214.17 272.76H212.9L207.17 278.49V285.5H207.44L213.54 279.4L219.64 285.5H219.91V278.49L214.17 272.76Z" fill="black"/>
<path d="M209.71 232.71H217.37V295.87C217.37 296.666 217.054 297.429 216.491 297.991C215.929 298.554 215.166 298.87 214.37 298.87H212.71C211.914 298.87 211.151 298.554 210.589 297.991C210.026 297.429 209.71 296.666 209.71 295.87V232.71Z" fill="#03E5E5"/>
<path opacity="0.2" d="M217.37 232.71H209.71V237.35H217.37V232.71Z" fill="black"/>
<path d="M349.87 234.43H77.2C74.508 234.425 71.9279 233.353 70.0252 231.448C68.1226 229.544 67.0527 226.962 67.05 224.27V3.07031H360V224.27C359.997 226.959 358.93 229.537 357.032 231.441C355.134 233.345 352.559 234.42 349.87 234.43ZM70.47 6.50031V224.27C70.4727 226.054 71.1826 227.765 72.4441 229.026C73.7057 230.288 75.4159 230.998 77.2 231H349.87C351.654 230.998 353.364 230.288 354.626 229.026C355.888 227.765 356.597 226.054 356.6 224.27V6.50031H70.47Z" fill="#03E5E5"/>
<g opacity="0.8">
<path d="M349.87 234.43H77.2C74.508 234.425 71.9279 233.353 70.0252 231.448C68.1226 229.544 67.0527 226.962 67.05 224.27V3.07031H360V224.27C359.997 226.959 358.93 229.537 357.032 231.441C355.134 233.345 352.559 234.42 349.87 234.43ZM70.47 6.50031V224.27C70.4727 226.054 71.1826 227.765 72.4441 229.026C73.7057 230.288 75.4159 230.998 77.2 231H349.87C351.654 230.998 353.364 230.288 354.626 229.026C355.888 227.765 356.597 226.054 356.6 224.27V6.50031H70.47Z" fill="white"/>
</g>
<path d="M366.65 0.930176H60.4299V8.65018H366.65V0.930176Z" fill="#03E5E5"/>
<path opacity="0.5" d="M366.65 0.930176H60.4299V8.65018H366.65V0.930176Z" fill="white"/>
<path opacity="0.5" d="M366.65 0.930176H60.4299V4.79018H366.65V0.930176Z" fill="white"/>
<path d="M262.2 185.59V184.13H251V172.81H249.55V184.13H238.74V172.81H237.28V184.13H226.69V172.81H225.23V184.13H214.73V172.81H213.28V184.13H202.5V172.81H201V184.13H189.91V185.59H201V196.18H189.91V197.64H201V208.23H189.91V209.69H201V221H202.46V209.69H213.24V221H214.69V209.69H225.19V221H226.65V209.69H237.24V221H238.7V209.69H249.48V221H251V209.69H262.2V208.23H251V197.64H262.2V196.18H251V185.59H262.2ZM237.28 185.59V196.18H226.69V185.59H237.28ZM225.28 185.59V196.18H214.78V185.59H225.28ZM202.55 185.59H213.33V196.18H202.5L202.55 185.59ZM202.55 208.23V197.64H213.33V208.23H202.55ZM214.78 208.23V197.64H225.28V208.23H214.78ZM226.78 208.23V197.64H237.37V208.23H226.78ZM249.61 208.23H238.74V197.64H249.52L249.61 208.23ZM249.61 196.18H238.74V185.59H249.52L249.61 196.18Z" fill="#03E5E5"/>
<path opacity="0.7" d="M262.2 185.59V184.13H251V172.81H249.55V184.13H238.74V172.81H237.28V184.13H226.69V172.81H225.23V184.13H214.73V172.81H213.28V184.13H202.5V172.81H201V184.13H189.91V185.59H201V196.18H189.91V197.64H201V208.23H189.91V209.69H201V221H202.46V209.69H213.24V221H214.69V209.69H225.19V221H226.65V209.69H237.24V221H238.7V209.69H249.48V221H251V209.69H262.2V208.23H251V197.64H262.2V196.18H251V185.59H262.2ZM237.28 185.59V196.18H226.69V185.59H237.28ZM225.28 185.59V196.18H214.78V185.59H225.28ZM202.55 185.59H213.33V196.18H202.5L202.55 185.59ZM202.55 208.23V197.64H213.33V208.23H202.55ZM214.78 208.23V197.64H225.28V208.23H214.78ZM226.78 208.23V197.64H237.37V208.23H226.78ZM249.61 208.23H238.74V197.64H249.52L249.61 208.23ZM249.61 196.18H238.74V185.59H249.52L249.61 196.18Z" fill="white"/>
<path d="M258.53 222.46H193.53C192.176 222.457 190.878 221.92 189.919 220.965C188.96 220.009 188.418 218.714 188.41 217.36L188.25 176.5C188.246 175.825 188.375 175.156 188.631 174.532C188.886 173.907 189.263 173.339 189.739 172.86C190.215 172.382 190.78 172.002 191.404 171.743C192.027 171.483 192.695 171.35 193.37 171.35H258.5C259.86 171.35 261.165 171.891 262.127 172.853C263.089 173.815 263.63 175.12 263.63 176.48V217.34C263.627 218.694 263.09 219.991 262.134 220.951C261.179 221.91 259.883 222.452 258.53 222.46ZM193.4 174.27C192.813 174.273 192.251 174.508 191.837 174.924C191.422 175.34 191.19 175.903 191.19 176.49L191.35 217.35C191.355 217.934 191.59 218.492 192.004 218.903C192.417 219.315 192.976 219.547 193.56 219.55H258.56C259.147 219.55 259.71 219.318 260.126 218.903C260.542 218.489 260.777 217.927 260.78 217.34V176.48C260.777 175.893 260.542 175.331 260.126 174.917C259.71 174.503 259.147 174.27 258.56 174.27H193.4Z" fill="#03E5E5"/>
<g opacity="0.8">
<path d="M258.53 222.46H193.53C192.176 222.457 190.878 221.92 189.919 220.965C188.96 220.009 188.418 218.714 188.41 217.36L188.25 176.5C188.246 175.825 188.375 175.156 188.631 174.532C188.886 173.907 189.263 173.339 189.739 172.86C190.215 172.382 190.78 172.002 191.404 171.743C192.027 171.483 192.695 171.35 193.37 171.35H258.5C259.86 171.35 261.165 171.891 262.127 172.853C263.089 173.815 263.63 175.12 263.63 176.48V217.34C263.627 218.694 263.09 219.991 262.134 220.951C261.179 221.91 259.883 222.452 258.53 222.46ZM193.4 174.27C192.813 174.273 192.251 174.508 191.837 174.924C191.422 175.34 191.19 175.903 191.19 176.49L191.35 217.35C191.355 217.934 191.59 218.492 192.004 218.903C192.417 219.315 192.976 219.547 193.56 219.55H258.56C259.147 219.55 259.71 219.318 260.126 218.903C260.542 218.489 260.777 217.927 260.78 217.34V176.48C260.777 175.893 260.542 175.331 260.126 174.917C259.71 174.503 259.147 174.27 258.56 174.27H193.4Z" fill="white"/>
</g>
<path d="M250.25 193.59V187.57H191.24L191.26 193.59H250.25Z" fill="#03E5E5"/>
<path opacity="0.6" d="M250.25 193.59V187.57H191.24L191.26 193.59H250.25Z" fill="white"/>
<path d="M238 175.82H191.3C191.233 176.038 191.196 176.263 191.19 176.49V181.85H238V175.82Z" fill="#03E5E5"/>
<path opacity="0.3" d="M238 175.82H191.3C191.233 176.038 191.196 176.263 191.19 176.49V181.85H238V175.82Z" fill="white"/>
<path d="M256.38 212H191.33V217.38C191.336 217.598 191.373 217.813 191.44 218.02H256.36L256.38 212Z" fill="#03E5E5"/>
<path opacity="0.2" d="M256.38 212H191.33V217.38C191.336 217.598 191.373 217.813 191.44 218.02H256.36L256.38 212Z" fill="black"/>
<path d="M225.96 205.94V199.92H191.28L191.31 205.94H225.96Z" fill="#03E5E5"/>
<path d="M345.62 40.5803V39.1303H322.25V15.7603H320.8V39.1303H298.15V15.7603H296.7V39.1303H274.06V15.7603H272.6V39.1303H250V15.7603H248.5V39.1303H225.86V15.7603H224.4V39.1303H201.76V15.7603H200.3V39.1303H177.66V15.7603H176.2V39.1303H153.56V15.7603H152.11V39.1303H129.47V15.7603H128V39.1303H105.37V15.7603H103.91V39.1303H80.54V40.5803H103.91V63.2203H80.54V64.6802H103.91V87.3203H80.54V88.7803H103.91V111.42H80.54V112.88H103.91V135.52H80.54V137H103.91V160.37H105.37V137H128V160.37H129.46V137H152.1V160.37H153.55V137H176.2V160.37H177.66V137H200.3V160.37H201.76V137H224.4V160.37H225.86V137H248.5V160.37H250V137H272.6V160.37H274.06V137H296.7V160.37H298.15V137H320.8V160.37H322.25V137H345.62V135.54H322.25V112.88H345.62V111.42H322.25V88.7803H345.62V87.3203H322.25V64.6802H345.62V63.2203H322.25V40.5803H345.62ZM296.7 40.5803V63.2203H274.06V40.5803H296.7ZM248.5 87.3203H225.86V64.6802H248.5V87.3203ZM250 64.6802H272.6V87.3203H250V64.6802ZM224.4 87.3203H201.76V64.6802H224.4V87.3203ZM200.3 87.3203H177.66V64.6802H200.3V87.3203ZM176.2 87.3203H153.56V64.6802H176.2V87.3203ZM152.11 87.3203H129.47V64.6802H152.11V87.3203ZM152.11 88.7803V111.42H129.47V88.7803H152.11ZM153.56 88.7803H176.2V111.42H153.56V88.7803ZM177.66 88.7803H200.3V111.42H177.66V88.7803ZM201.76 88.7803H224.4V111.42H201.76V88.7803ZM225.86 88.7803H248.5V111.42H225.86V88.7803ZM249.96 88.7803H272.6V111.42H250L249.96 88.7803ZM274.06 88.7803H296.7V111.42H274.06V88.7803ZM274.06 87.3203V64.6802H296.7V87.3203H274.06ZM272.6 40.5803V63.2203H250V40.5803H272.6ZM248.5 40.5803V63.2203H225.86V40.5803H248.5ZM224.4 40.5803V63.2203H201.76V40.5803H224.4ZM200.3 40.5803V63.2203H177.66V40.5803H200.3ZM176.2 40.5803V63.2203H153.56V40.5803H176.2ZM152.11 40.5803V63.2203H129.47V40.5803H152.11ZM105.37 40.5803H128V63.2203H105.37V40.5803ZM105.37 64.6802H128V87.3203H105.37V64.6802ZM105.37 88.7803H128V111.42H105.37V88.7803ZM105.37 135.52V112.88H128V135.52H105.37ZM129.47 135.52V112.88H152.11V135.52H129.47ZM153.56 135.52V112.88H176.2V135.52H153.56ZM177.66 135.52V112.88H200.3V135.52H177.66ZM201.76 135.52V112.88H224.4V135.52H201.76ZM225.86 135.52V112.88H248.5V135.52H225.86ZM249.96 135.52V112.88H272.6V135.52H249.96ZM274.06 135.52V112.88H296.7V135.52H274.06ZM320.8 135.52H298.15V112.88H320.8V135.52ZM320.8 111.42H298.15V88.7803H320.8V111.42ZM320.8 87.3203H298.15V64.6802H320.8V87.3203ZM320.8 63.2203H298.15V40.5803H320.8V63.2203Z" fill="#03E5E5"/>
<path opacity="0.7" d="M345.62 40.5803V39.1303H322.25V15.7603H320.8V39.1303H298.15V15.7603H296.7V39.1303H274.06V15.7603H272.6V39.1303H250V15.7603H248.5V39.1303H225.86V15.7603H224.4V39.1303H201.76V15.7603H200.3V39.1303H177.66V15.7603H176.2V39.1303H153.56V15.7603H152.11V39.1303H129.47V15.7603H128V39.1303H105.37V15.7603H103.91V39.1303H80.54V40.5803H103.91V63.2203H80.54V64.6802H103.91V87.3203H80.54V88.7803H103.91V111.42H80.54V112.88H103.91V135.52H80.54V137H103.91V160.37H105.37V137H128V160.37H129.46V137H152.1V160.37H153.55V137H176.2V160.37H177.66V137H200.3V160.37H201.76V137H224.4V160.37H225.86V137H248.5V160.37H250V137H272.6V160.37H274.06V137H296.7V160.37H298.15V137H320.8V160.37H322.25V137H345.62V135.54H322.25V112.88H345.62V111.42H322.25V88.7803H345.62V87.3203H322.25V64.6802H345.62V63.2203H322.25V40.5803H345.62ZM296.7 40.5803V63.2203H274.06V40.5803H296.7ZM248.5 87.3203H225.86V64.6802H248.5V87.3203ZM250 64.6802H272.6V87.3203H250V64.6802ZM224.4 87.3203H201.76V64.6802H224.4V87.3203ZM200.3 87.3203H177.66V64.6802H200.3V87.3203ZM176.2 87.3203H153.56V64.6802H176.2V87.3203ZM152.11 87.3203H129.47V64.6802H152.11V87.3203ZM152.11 88.7803V111.42H129.47V88.7803H152.11ZM153.56 88.7803H176.2V111.42H153.56V88.7803ZM177.66 88.7803H200.3V111.42H177.66V88.7803ZM201.76 88.7803H224.4V111.42H201.76V88.7803ZM225.86 88.7803H248.5V111.42H225.86V88.7803ZM249.96 88.7803H272.6V111.42H250L249.96 88.7803ZM274.06 88.7803H296.7V111.42H274.06V88.7803ZM274.06 87.3203V64.6802H296.7V87.3203H274.06ZM272.6 40.5803V63.2203H250V40.5803H272.6ZM248.5 40.5803V63.2203H225.86V40.5803H248.5ZM224.4 40.5803V63.2203H201.76V40.5803H224.4ZM200.3 40.5803V63.2203H177.66V40.5803H200.3ZM176.2 40.5803V63.2203H153.56V40.5803H176.2ZM152.11 40.5803V63.2203H129.47V40.5803H152.11ZM105.37 40.5803H128V63.2203H105.37V40.5803ZM105.37 64.6802H128V87.3203H105.37V64.6802ZM105.37 88.7803H128V111.42H105.37V88.7803ZM105.37 135.52V112.88H128V135.52H105.37ZM129.47 135.52V112.88H152.11V135.52H129.47ZM153.56 135.52V112.88H176.2V135.52H153.56ZM177.66 135.52V112.88H200.3V135.52H177.66ZM201.76 135.52V112.88H224.4V135.52H201.76ZM225.86 135.52V112.88H248.5V135.52H225.86ZM249.96 135.52V112.88H272.6V135.52H249.96ZM274.06 135.52V112.88H296.7V135.52H274.06ZM320.8 135.52H298.15V112.88H320.8V135.52ZM320.8 111.42H298.15V88.7803H320.8V111.42ZM320.8 87.3203H298.15V64.6802H320.8V87.3203ZM320.8 63.2203H298.15V40.5803H320.8V63.2203Z" fill="white"/>
<path d="M341.82 161.8H84.3398C82.9465 161.8 81.6101 161.247 80.624 160.263C79.6378 159.279 79.0825 157.943 79.0798 156.55V19.55C79.0825 18.1558 79.6375 16.8194 80.6234 15.8336C81.6092 14.8477 82.9456 14.2927 84.3398 14.29H341.82C343.214 14.2927 344.55 14.8477 345.536 15.8336C346.522 16.8194 347.077 18.1558 347.08 19.55V156.55C347.077 157.943 346.522 159.279 345.536 160.263C344.55 161.247 343.213 161.8 341.82 161.8ZM84.3398 17.21C83.7183 17.2127 83.1231 17.4614 82.6846 17.9019C82.246 18.3423 81.9998 18.9385 81.9998 19.56V156.56C81.9986 156.866 82.0581 157.17 82.1748 157.453C82.2915 157.736 82.4632 157.993 82.6798 158.21C83.1205 158.65 83.7171 158.898 84.3398 158.9H341.82C342.44 158.9 343.036 158.653 343.474 158.215C343.913 157.776 344.16 157.181 344.16 156.56V19.56C344.16 18.9385 343.914 18.3423 343.475 17.9019C343.037 17.4614 342.441 17.2127 341.82 17.21H84.3398Z" fill="#03E5E5"/>
<g opacity="0.8">
<path d="M341.82 161.8H84.3398C82.9465 161.8 81.6101 161.247 80.624 160.263C79.6378 159.279 79.0825 157.943 79.0798 156.55V19.55C79.0825 18.1558 79.6375 16.8194 80.6234 15.8336C81.6092 14.8477 82.9456 14.2927 84.3398 14.29H341.82C343.214 14.2927 344.55 14.8477 345.536 15.8336C346.522 16.8194 347.077 18.1558 347.08 19.55V156.55C347.077 157.943 346.522 159.279 345.536 160.263C344.55 161.247 343.213 161.8 341.82 161.8ZM84.3398 17.21C83.7183 17.2127 83.1231 17.4614 82.6846 17.9019C82.246 18.3423 81.9998 18.9385 81.9998 19.56V156.56C81.9986 156.866 82.0581 157.17 82.1748 157.453C82.2915 157.736 82.4632 157.993 82.6798 158.21C83.1205 158.65 83.7171 158.898 84.3398 158.9H341.82C342.44 158.9 343.036 158.653 343.474 158.215C343.913 157.776 344.16 157.181 344.16 156.56V19.56C344.16 18.9385 343.914 18.3423 343.475 17.9019C343.037 17.4614 342.441 17.2127 341.82 17.21H84.3398Z" fill="white"/>
</g>
<path d="M148.02 95.2803H133.56V158.89H148.02V95.2803Z" fill="#03E5E5"/>
<path d="M172.11 73.5903H157.65V158.89H172.11V73.5903Z" fill="#03E5E5"/>
<path opacity="0.6" d="M172.11 73.5903H157.65V158.89H172.11V73.5903Z" fill="white"/>
<path d="M196.21 95.2803H181.75V158.89H196.21V95.2803Z" fill="#03E5E5"/>
<path opacity="0.3" d="M196.21 95.2803H181.75V158.89H196.21V95.2803Z" fill="white"/>
<path d="M99.8199 116.97H85.3599V158.89H99.8199V116.97Z" fill="#03E5E5"/>
<path opacity="0.6" d="M99.8199 116.97H85.3599V158.89H99.8199V116.97Z" fill="white"/>
<path d="M123.92 106.5H109.46V158.89H123.92V106.5Z" fill="#03E5E5"/>
<path opacity="0.3" d="M123.92 106.5H109.46V158.89H123.92V106.5Z" fill="white"/>
<path d="M220.31 116.97H205.85V158.89H220.31V116.97Z" fill="#03E5E5"/>
<path d="M340.8 51.9004H326.34V158.89H340.8V51.9004Z" fill="#03E5E5"/>
<path opacity="0.3" d="M340.8 51.9004H326.34V158.89H340.8V51.9004Z" fill="white"/>
<path d="M244.41 95.2803H229.95V158.89H244.41V95.2803Z" fill="#03E5E5"/>
<path opacity="0.6" d="M244.41 95.2803H229.95V158.89H244.41V95.2803Z" fill="white"/>
<path d="M316.71 73.5903H302.25V158.89H316.71V73.5903Z" fill="#03E5E5"/>
<path opacity="0.6" d="M316.71 73.5903H302.25V158.89H316.71V73.5903Z" fill="white"/>
<path d="M292.61 84.8101H278.15V158.89H292.61V84.8101Z" fill="#03E5E5"/>
<path d="M268.51 106.5H254.05V158.89H268.51V106.5Z" fill="#03E5E5"/>
<path opacity="0.3" d="M268.51 106.5H254.05V158.89H268.51V106.5Z" fill="white"/>
<path d="M311.74 172.86V178.86C315.526 179.169 319.117 180.667 322 183.14L326.27 178.87C322.239 175.292 317.121 173.175 311.74 172.86Z" fill="#03E5E5"/>
<path opacity="0.3" d="M311.74 172.86V178.86C315.526 179.169 319.117 180.667 322 183.14L326.27 178.87C322.239 175.292 317.121 173.175 311.74 172.86Z" fill="white"/>
<path d="M308.83 214.92C304.554 214.572 300.542 212.715 297.509 209.682C294.475 206.648 292.619 202.636 292.27 198.36H286.27C286.628 204.237 289.124 209.78 293.287 213.943C297.45 218.107 302.993 220.602 308.87 220.96L308.83 214.92Z" fill="#03E5E5"/>
<path opacity="0.7" d="M308.83 214.92C304.554 214.572 300.542 212.715 297.509 209.682C294.475 206.648 292.619 202.636 292.27 198.36H286.27C286.628 204.237 289.124 209.78 293.287 213.943C297.45 218.107 302.993 220.602 308.87 220.96L308.83 214.92Z" fill="white"/>
<path d="M292.27 195.45C292.617 191.175 294.473 187.163 297.507 184.131C300.541 181.099 304.555 179.245 308.83 178.9V172.9C302.953 173.254 297.409 175.747 293.245 179.909C289.082 184.071 286.586 189.614 286.23 195.49L292.27 195.45Z" fill="#03E5E5"/>
<path opacity="0.2" d="M292.27 195.45C292.617 191.175 294.473 187.163 297.507 184.131C300.541 181.099 304.555 179.245 308.83 178.9V172.9C302.953 173.254 297.409 175.747 293.245 179.909C289.082 184.071 286.586 189.614 286.23 195.49L292.27 195.45Z" fill="black"/>
<path d="M328.32 180.93L324.05 185.2C326.205 187.734 327.62 190.814 328.137 194.1C328.654 197.386 328.254 200.751 326.981 203.824C325.708 206.897 323.612 209.559 320.922 211.517C318.233 213.475 315.056 214.653 311.74 214.92V220.92C316.243 220.641 320.578 219.104 324.25 216.483C327.922 213.862 330.785 210.263 332.513 206.095C334.241 201.927 334.764 197.357 334.022 192.907C333.281 188.456 331.305 184.303 328.32 180.92V180.93Z" fill="#03E5E5"/>
<path d="M165.72 185.59V184.13H154.49V172.81H153V184.13H142.25V172.81H140.8V184.13H130.21V172.81H128.75V184.13H118.25V172.81H116.79V184.13H106V172.81H104.54V184.13H93.4199V185.59H104.56V196.18H93.4199V197.64H104.56V208.23H93.4199V209.69H104.56V221H106V209.69H116.77V221H118.23V209.69H128.73V221H130.19V209.69H140.8V221H142.25V209.69H153V221H154.46V209.69H165.69V208.23H154.49V197.64H165.72V196.18H154.49V185.59H165.72ZM140.8 185.59V196.18H130.21V185.59H140.8ZM128.75 185.59V196.18H118.25V185.59H128.75ZM106.02 185.59H116.79V196.18H106L106.02 185.59ZM106.02 208.23V197.64H116.79V208.23H106.02ZM118.25 208.23V197.64H128.75V208.23H118.25ZM130.25 208.23V197.64H140.8V208.23H130.25ZM153.07 208.23H142.25V197.64H153L153.07 208.23ZM153.07 196.18H142.25V185.59H153L153.07 196.18Z" fill="#03E5E5"/>
<path opacity="0.7" d="M165.72 185.59V184.13H154.49V172.81H153V184.13H142.25V172.81H140.8V184.13H130.21V172.81H128.75V184.13H118.25V172.81H116.79V184.13H106V172.81H104.54V184.13H93.4199V185.59H104.56V196.18H93.4199V197.64H104.56V208.23H93.4199V209.69H104.56V221H106V209.69H116.77V221H118.23V209.69H128.73V221H130.19V209.69H140.8V221H142.25V209.69H153V221H154.46V209.69H165.69V208.23H154.49V197.64H165.72V196.18H154.49V185.59H165.72ZM140.8 185.59V196.18H130.21V185.59H140.8ZM128.75 185.59V196.18H118.25V185.59H128.75ZM106.02 185.59H116.79V196.18H106L106.02 185.59ZM106.02 208.23V197.64H116.79V208.23H106.02ZM118.25 208.23V197.64H128.75V208.23H118.25ZM130.25 208.23V197.64H140.8V208.23H130.25ZM153.07 208.23H142.25V197.64H153L153.07 208.23ZM153.07 196.18H142.25V185.59H153L153.07 196.18Z" fill="white"/>
<path d="M162 222.46H96.91C95.5495 222.46 94.2446 221.92 93.2826 220.958C92.3205 219.995 91.78 218.691 91.78 217.33V176.48C91.78 175.12 92.3205 173.815 93.2826 172.853C94.2446 171.891 95.5495 171.35 96.91 171.35H162C163.361 171.35 164.665 171.891 165.627 172.853C166.59 173.815 167.13 175.12 167.13 176.48V217.33C167.13 218.691 166.59 219.995 165.627 220.958C164.665 221.92 163.361 222.46 162 222.46ZM96.87 174.27C96.283 174.27 95.7198 174.503 95.3038 174.917C94.8877 175.331 94.6527 175.893 94.65 176.48V217.33C94.6527 217.918 94.8874 218.481 95.3032 218.897C95.7189 219.313 96.2821 219.547 96.87 219.55H162C162.588 219.547 163.151 219.313 163.567 218.897C163.983 218.481 164.217 217.918 164.22 217.33V176.48C164.217 175.893 163.982 175.331 163.566 174.917C163.15 174.503 162.587 174.27 162 174.27H96.87Z" fill="#03E5E5"/>
<g opacity="0.8">
<path d="M162 222.46H96.91C95.5495 222.46 94.2446 221.92 93.2826 220.958C92.3205 219.995 91.78 218.691 91.78 217.33V176.48C91.78 175.12 92.3205 173.815 93.2826 172.853C94.2446 171.891 95.5495 171.35 96.91 171.35H162C163.361 171.35 164.665 171.891 165.627 172.853C166.59 173.815 167.13 175.12 167.13 176.48V217.33C167.13 218.691 166.59 219.995 165.627 220.958C164.665 221.92 163.361 222.46 162 222.46ZM96.87 174.27C96.283 174.27 95.7198 174.503 95.3038 174.917C94.8877 175.331 94.6527 175.893 94.65 176.48V217.33C94.6527 217.918 94.8874 218.481 95.3032 218.897C95.7189 219.313 96.2821 219.547 96.87 219.55H162C162.588 219.547 163.151 219.313 163.567 218.897C163.983 218.481 164.217 217.918 164.22 217.33V176.48C164.217 175.893 163.982 175.331 163.566 174.917C163.15 174.503 162.587 174.27 162 174.27H96.87Z" fill="white"/>
</g>
<path d="M154.61 182.43H148.09L141.57 188.95L129.31 195.09H116.46L103.81 207.74H94.6899V209.92H104.72L117.37 197.27H129.83L142.87 190.75L149 184.62H155.13L164.26 180.06V177.61L154.61 182.43Z" fill="#03E5E5"/>
<g opacity="0.6">
<path d="M154.61 182.43H148.09L141.57 188.95L129.31 195.09H116.46L103.81 207.74H94.6899V209.92H104.72L117.37 197.27H129.83L142.87 190.75L149 184.62H155.13L164.26 180.06V177.61L154.61 182.43Z" fill="white"/>
</g>
<path d="M154.22 195.28L129.31 207.74H116.66L104.01 214.06H94.6899V216.25H104.52L117.18 209.92H129.83L155.52 197.08L164.26 188.34V185.25L154.22 195.28Z" fill="#03E5E5"/>
<path d="M154.61 188.76L141.96 195.09H129.31L116.66 201.41H94.6899V203.6H117.18L129.83 197.27H142.48L155.13 190.95H164.26V188.76H154.61Z" fill="#03E5E5"/>
<g opacity="0.3">
<path d="M154.61 188.76L141.96 195.09H129.31L116.66 201.41H94.6899V203.6H117.18L129.83 197.27H142.48L155.13 190.95H164.26V188.76H154.61Z" fill="white"/>
</g>
<path d="M339.94 73.6699C339.28 77.7899 338.7 83.8199 341.66 86.4499C341.66 86.4499 341.66 90.6399 330.22 95.5699C325.83 89.7199 328.88 86.9099 328.88 86.9099C333.42 85.6599 333.23 83.7999 332.33 80.6399L339.94 73.6699Z" fill="#FF8B7B"/>
<path opacity="0.2" d="M336.85 76.48L332.38 80.64C332.602 81.3715 332.759 82.1211 332.85 82.88C334.6 82.57 337.29 80.99 337.6 79.07C337.568 78.1579 337.311 77.2679 336.85 76.48Z" fill="black"/>
<path d="M345 66.4503C343.4 73.2403 342.87 76.1303 338.8 79.0503C332.68 83.4403 324.7 79.9803 324.24 72.8603C323.84 66.4503 326.54 56.4003 333.72 54.8603C335.303 54.5047 336.95 54.5606 338.505 55.0228C340.06 55.485 341.47 56.3381 342.601 57.5005C343.733 58.663 344.547 60.096 344.967 61.6628C345.387 63.2296 345.398 64.8779 345 66.4503Z" fill="#FF8B7B"/>
<path d="M333.81 66.3601C333.71 66.9201 333.34 67.3601 332.98 67.2601C332.62 67.1601 332.39 66.6901 332.48 66.1301C332.57 65.5701 332.96 65.1301 333.32 65.2301C333.68 65.3301 333.88 65.8201 333.81 66.3601Z" fill="#263238"/>
<path d="M327.51 65.28C327.41 65.85 327.03 66.28 326.67 66.18C326.31 66.08 326.09 65.61 326.18 65.06C326.27 64.51 326.66 64.06 327.02 64.16C327.38 64.26 327.6 64.73 327.51 65.28Z" fill="#263238"/>
<path d="M329.28 66.6304C328.56 67.8173 327.682 68.9006 326.67 69.8504C326.922 70.1004 327.224 70.2933 327.557 70.4158C327.891 70.5383 328.246 70.5876 328.6 70.5604L329.28 66.6304Z" fill="#F84A35"/>
<path d="M331.26 73.27C330.978 73.2682 330.697 73.2414 330.42 73.19C330.376 73.1826 330.338 73.1587 330.311 73.1233C330.285 73.0878 330.274 73.0437 330.28 73C330.289 72.9564 330.316 72.9184 330.353 72.8941C330.391 72.8697 330.436 72.8611 330.48 72.87C331.171 73.0031 331.885 72.972 332.562 72.7792C333.239 72.5864 333.862 72.2373 334.38 71.76C334.412 71.7283 334.455 71.7104 334.5 71.7104C334.545 71.7104 334.588 71.7283 334.62 71.76C334.649 71.793 334.666 71.8358 334.666 71.88C334.666 71.9243 334.649 71.967 334.62 72C334.172 72.4244 333.645 72.7553 333.068 72.9734C332.491 73.1914 331.876 73.2923 331.26 73.27Z" fill="#263238"/>
<path d="M336.53 64.6799C336.473 64.7213 336.405 64.7437 336.335 64.7437C336.265 64.7437 336.197 64.7213 336.14 64.6799C335.698 64.368 335.196 64.1511 334.666 64.0426C334.136 63.9342 333.589 63.9367 333.06 64.0499C333.016 64.0602 332.97 64.0616 332.926 64.0541C332.881 64.0466 332.839 64.0302 332.8 64.006C332.762 63.9818 332.729 63.9502 332.703 63.9131C332.678 63.876 332.659 63.8341 332.65 63.7899C332.632 63.7051 332.648 63.6167 332.695 63.5437C332.742 63.4707 332.815 63.4191 332.9 63.3999C333.534 63.2595 334.191 63.2573 334.826 63.3937C335.461 63.53 336.059 63.8016 336.58 64.1899C336.611 64.2198 336.635 64.2555 336.652 64.295C336.669 64.3345 336.677 64.377 336.677 64.4199C336.677 64.4628 336.669 64.5053 336.652 64.5448C336.635 64.5843 336.611 64.6201 336.58 64.6499C336.564 64.6617 336.548 64.6717 336.53 64.6799Z" fill="#263238"/>
<path d="M325.66 62.7404C325.603 62.7232 325.552 62.6923 325.51 62.6504C325.468 62.6086 325.437 62.557 325.42 62.5004C325.398 62.4156 325.41 62.3256 325.453 62.2492C325.495 62.1728 325.566 62.1159 325.65 62.0904C326.16 61.9372 326.699 61.91 327.221 62.011C327.744 62.112 328.234 62.3383 328.65 62.6704C328.707 62.7315 328.739 62.8119 328.739 62.8954C328.739 62.9789 328.707 63.0593 328.65 63.1204C328.588 63.1802 328.506 63.2137 328.42 63.2137C328.334 63.2137 328.252 63.1802 328.19 63.1204C327.858 62.8677 327.471 62.6977 327.061 62.6247C326.65 62.5516 326.228 62.5776 325.83 62.7004C325.778 62.7283 325.719 62.7421 325.66 62.7404Z" fill="#263238"/>
<path d="M296.31 109.94L287.89 101.78L287.37 97.7799C287.321 97.3871 287.169 97.014 286.931 96.6981C286.692 96.3822 286.374 96.1345 286.01 95.9799L284.33 95.2699C283.863 95.0676 283.476 94.7158 283.23 94.2699L282.64 93.1899C282.479 92.8993 282.256 92.6476 281.987 92.4525C281.719 92.2574 281.41 92.1236 281.084 92.0607C280.758 91.9977 280.422 92.0071 280.1 92.0882C279.778 92.1693 279.477 92.3201 279.22 92.5299C278.957 92.742 278.746 93.0101 278.6 93.3147C278.455 93.6192 278.38 93.9525 278.38 94.2899V99.9999C278.379 100.382 278.476 100.759 278.661 101.093C278.847 101.427 279.115 101.709 279.44 101.91L284.59 105.17L293 115.28L296.31 109.94Z" fill="#FF8B7B"/>
<path d="M323 87.36C323 87.36 317.37 88.36 306.77 108.68L305 112C304.776 112.411 304.463 112.766 304.084 113.04C303.705 113.314 303.27 113.5 302.81 113.585C302.35 113.669 301.877 113.649 301.425 113.528C300.974 113.406 300.555 113.184 300.2 112.88L294 107.57L290.08 113.37C290.08 113.37 300.24 126.44 306.08 125.42C311.92 124.4 319 107.26 319 107.26C319 107.26 327.65 84.78 323 87.36Z" fill="#FFAB03"/>
<path opacity="0.1" d="M310.62 122C315.04 116.75 319 107.23 319 107.23C319 107.23 320.5 103.34 321.91 98.98L316.82 95.5C316.82 95.5 311.33 113 310.62 122Z" fill="black"/>
<path d="M329.96 282.1L328.84 295.4L321.38 294.94L321.27 282.15L329.96 282.1Z" fill="#FF8B7B"/>
<path d="M318.08 295.22C317.269 295.311 316.452 295.097 315.79 294.62C315.705 294.504 315.66 294.364 315.66 294.22C315.66 294.076 315.705 293.936 315.79 293.82C315.923 293.609 316.13 293.456 316.37 293.39C317.67 293.04 320.37 294.6 320.5 294.67C320.532 294.689 320.558 294.718 320.574 294.751C320.59 294.785 320.595 294.823 320.59 294.86C320.583 294.897 320.564 294.931 320.538 294.958C320.511 294.985 320.477 295.003 320.44 295.01C319.661 295.148 318.871 295.218 318.08 295.22ZM316.84 293.7C316.722 293.703 316.604 293.719 316.49 293.75C316.413 293.761 316.341 293.791 316.278 293.836C316.215 293.881 316.165 293.941 316.13 294.01C315.99 294.23 316.04 294.35 316.13 294.41C316.49 294.92 318.45 294.94 319.9 294.76C318.957 294.214 317.918 293.854 316.84 293.7Z" fill="#FFAB03"/>
<path d="M320.43 295C320.418 295.007 320.404 295.011 320.39 295.011C320.376 295.011 320.362 295.007 320.35 295C319.42 294.59 317.56 292.89 317.73 292C317.73 291.78 317.91 291.53 318.42 291.48C318.6 291.464 318.781 291.484 318.952 291.539C319.124 291.594 319.283 291.683 319.42 291.8C320.42 292.62 320.61 294.72 320.62 294.8C320.623 294.827 320.619 294.854 320.609 294.879C320.599 294.904 320.583 294.926 320.562 294.943C320.541 294.96 320.516 294.971 320.489 294.976C320.463 294.981 320.435 294.979 320.41 294.97L320.43 295ZM318.54 291.84H318.43C318.1 291.84 318.08 292 318.07 292.05C318.02 292.58 319.24 293.9 320.2 294.48C320.114 293.598 319.766 292.762 319.2 292.08C319.02 291.931 318.794 291.85 318.56 291.85L318.54 291.84Z" fill="#FFAB03"/>
<path d="M321.26 293.93H329.76C329.915 293.932 330.065 293.986 330.185 294.084C330.305 294.182 330.388 294.318 330.42 294.47L331.93 301.39C331.996 301.685 331.942 301.993 331.781 302.248C331.62 302.503 331.364 302.683 331.07 302.75C330.99 302.76 330.91 302.76 330.83 302.75C327.77 302.68 325.04 302.5 321.23 302.49C316.73 302.49 317.87 303.02 312.58 303.07C309.39 303.07 308.82 299.47 310.17 299.3C316.36 298.55 317.01 296.68 319.41 294.48C319.938 294.075 320.597 293.879 321.26 293.93Z" fill="#263238"/>
<path opacity="0.2" d="M329.29 290.04L321.33 289.87L321.27 282.15L329.96 282.1L329.29 290.04Z" fill="#263238"/>
<path d="M318.56 149.48C318.56 149.48 316.79 196.84 316.82 212.63C316.87 231.21 320.09 286.9 320.09 286.9H330.54C332.854 271.296 334.024 255.544 334.04 239.77C333.97 231.37 332.13 222.95 332.94 215.25C334.66 198.73 341.21 192.6 341.43 149.48H318.56Z" fill="#263238"/>
<path opacity="0.2" d="M336.37 171.68L333.22 167.73C331.75 183.918 331.623 200.201 332.84 216.41C332.84 216.02 332.9 215.63 332.94 215.25C334.08 204.25 337.35 197.9 339.48 182.25L336.37 171.68Z" fill="black"/>
<path d="M352.93 281.82L352.62 295.17H345.14L344.26 282.41L352.93 281.82Z" fill="#FF8B7B"/>
<path d="M341.55 295.22C340.742 295.309 339.929 295.096 339.27 294.62C339.185 294.504 339.14 294.364 339.14 294.22C339.14 294.076 339.185 293.936 339.27 293.82C339.403 293.609 339.61 293.456 339.85 293.39C341.15 293.04 343.85 294.6 343.98 294.67C344.012 294.689 344.038 294.718 344.054 294.751C344.07 294.785 344.075 294.823 344.07 294.86C344.063 294.897 344.044 294.931 344.018 294.958C343.991 294.985 343.957 295.003 343.92 295.01C343.137 295.149 342.344 295.219 341.55 295.22ZM340.32 293.7C340.201 293.701 340.084 293.718 339.97 293.75C339.893 293.761 339.821 293.791 339.758 293.836C339.695 293.881 339.644 293.941 339.61 294.01C339.47 294.23 339.52 294.35 339.61 294.41C339.97 294.92 341.93 294.94 343.38 294.76C342.437 294.214 341.398 293.854 340.32 293.7Z" fill="#FFAB03"/>
<path d="M343.91 295C343.898 295.007 343.884 295.011 343.87 295.011C343.856 295.011 343.842 295.007 343.83 295C342.9 294.59 341.04 292.89 341.21 292C341.21 291.78 341.39 291.53 341.9 291.48C342.079 291.464 342.261 291.484 342.432 291.539C342.604 291.594 342.763 291.683 342.9 291.8C343.9 292.62 344.09 294.72 344.1 294.8C344.101 294.832 344.093 294.864 344.077 294.892C344.061 294.921 344.038 294.944 344.01 294.96C343.982 294.985 343.947 294.999 343.91 295ZM342 291.85H341.89C341.56 291.85 341.54 292.01 341.52 292.06C341.47 292.59 342.7 293.91 343.66 294.49C343.578 293.607 343.23 292.77 342.66 292.09C342.483 291.943 342.26 291.862 342.03 291.86L342 291.85Z" fill="#FFAB03"/>
<path d="M344.74 293.93H353.23C353.386 293.931 353.538 293.985 353.659 294.083C353.781 294.181 353.866 294.318 353.9 294.47L355.41 301.39C355.476 301.685 355.422 301.993 355.261 302.248C355.1 302.503 354.844 302.683 354.55 302.75C354.47 302.76 354.39 302.76 354.31 302.75C351.25 302.68 348.52 302.5 344.71 302.49C340.21 302.49 341.35 303.02 336.06 303.07C332.87 303.07 332.3 299.47 333.65 299.3C339.84 298.55 340.49 296.68 342.89 294.48C343.418 294.075 344.077 293.879 344.74 293.93Z" fill="#263238"/>
<path opacity="0.2" d="M352.74 289.79L344.79 290.1L344.26 282.41L352.93 281.82L352.74 289.79Z" fill="#263238"/>
<path d="M332.07 149.48C332.07 149.48 335.13 197.93 336.13 214.08C337.26 232.29 343.13 286.9 343.13 286.9H353.81C353.81 286.9 355.65 262.46 355.36 240.06C355.24 230.56 352.24 221.61 352.06 214.67C351.83 205.67 357.06 173.27 353.86 147.02L332.07 149.48Z" fill="#263238"/>
<path d="M326.26 86.7499C320.06 87.5299 315.52 88.9299 315.81 109.84C316.1 130.75 317 151.65 317 151.65H355C355 151.65 353.25 119.71 355 106.65C356.75 93.5899 355.58 87.1899 347.45 86.7499C339.32 86.3099 331.73 86.0699 326.26 86.7499Z" fill="#FFAB03"/>
<path d="M328.58 84.5002V87.1603C328.58 87.1603 329.41 89.8003 336.58 89.6603C343.75 89.5203 344.37 86.3303 344.37 86.3303V84.4002C344.371 84.0736 344.298 83.751 344.159 83.4557C344.019 83.1604 343.816 82.8999 343.563 82.6931C343.31 82.4863 343.015 82.3383 342.697 82.26C342.38 82.1817 342.05 82.1749 341.73 82.2403C338.175 82.8212 334.552 82.8448 330.99 82.3102C330.685 82.281 330.377 82.3158 330.086 82.4126C329.795 82.5093 329.527 82.6658 329.3 82.872C329.073 83.0782 328.892 83.3296 328.768 83.61C328.644 83.8904 328.58 84.1936 328.58 84.5002Z" fill="#FFAB03"/>
<path opacity="0.1" d="M292.42 116.07L296.15 109.34L294.32 107.77L290.7 114.06C291.1 114.55 291.69 115.25 292.42 116.07Z" fill="black"/>
<path d="M293.16 105.7L288.58 113.11L290.11 116.23L295.63 107.3L293.16 105.7Z" fill="#FFAB03"/>
<path opacity="0.1" d="M336.62 89.6603C329.41 89.8003 328.62 87.1603 328.62 87.1603V86.5303C328.62 86.5303 326.5 90.6403 332.76 91.3003C339.02 91.9603 343.16 88.9503 344.03 87.1603C343.3 88.1003 341.45 89.5603 336.62 89.6603Z" fill="black"/>
<path opacity="0.1" d="M354.69 98.54H349.15C349.15 98.54 352.21 110.6 354.3 117.7C354.35 114.024 354.587 110.352 355.01 106.7C355.3 104.49 355.5 102.49 355.61 100.7L354.69 98.54Z" fill="black"/>
<path d="M359.94 132.49L355 146.21L351.12 149C350.852 149.192 350.634 149.444 350.483 149.736C350.332 150.028 350.252 150.351 350.25 150.68V153C350.25 153.21 350.22 153.419 350.16 153.62C350.075 153.888 350.046 154.17 350.074 154.45C350.102 154.729 350.187 155 350.324 155.245C350.461 155.491 350.646 155.706 350.869 155.877C351.092 156.048 351.348 156.172 351.62 156.24L354.39 156.91C354.78 157.013 355.192 156.996 355.573 156.86C355.953 156.725 356.283 156.477 356.52 156.15L358.52 153.43C358.789 153.077 358.934 152.644 358.93 152.2V148.2L365.14 134.34L359.94 132.49Z" fill="#FF8B7B"/>
<path d="M347.46 86.75C350.054 87.139 352.525 88.1127 354.687 89.5974C356.849 91.0821 358.645 93.039 359.94 95.32C364.73 103.32 369.09 120.87 367.78 127.84C367.187 131.525 366.18 135.131 364.78 138.59L357.78 135.83C359.195 132.25 359.8 128.401 359.55 124.56C358.97 118.84 347.79 96.63 347.5 94.01C347.21 91.39 344.84 87.34 347.46 86.75Z" fill="#FFAB03"/>
<path opacity="0.1" d="M358.71 132.85C358.44 133.87 358.106 134.872 357.71 135.85L364.71 138.61C365.178 137.527 365.585 136.419 365.93 135.29L358.71 132.85Z" fill="black"/>
<path d="M356.53 137.08L364.79 139.85L367.48 137.65L357.53 134.31L356.53 137.08Z" fill="#FFAB03"/>
<path d="M333.14 59.1402C330.72 58.5002 324.59 56.3102 327.49 50.8702C330.39 45.4302 331.15 52.3202 333.68 52.7502C336.21 53.1802 345.06 52.8302 345.68 60.4502C345.68 60.4502 348.59 65.1002 344.38 71.5302C344.38 71.5302 341.14 70.9702 341.63 68.2902C342.12 65.6102 340.91 65.0902 339.92 64.2202C338.93 63.3502 339.66 60.4502 339.66 60.4502C339.66 60.4502 334.76 59.5702 333.14 59.1402Z" fill="#263238"/>
<path d="M346 72.0503C345.353 73.2066 344.274 74.059 343 74.4203C341.3 74.8803 340.46 73.4203 340.93 71.7603C341.37 70.3303 342.77 68.3503 344.47 68.5603C345.059 68.6562 345.587 68.9813 345.937 69.4647C346.287 69.9481 346.432 70.5505 346.34 71.1403C346.29 71.4638 346.175 71.7736 346 72.0503Z" fill="#FF8B7B"/>
<path d="M341.72 66.5401L337.1 65.8101C336.7 64.6301 335.04 64.3701 334.33 64.2501C333.62 64.1301 331.83 63.8601 331.13 65.0001L329.52 64.7401C329.21 63.4401 327.44 63.1601 326.71 63.0401C325.98 62.9201 323.56 62.5401 323.25 64.5001C323.203 65.2929 323.452 66.0749 323.95 66.694C324.447 67.3131 325.157 67.725 325.942 67.8497C326.726 67.9744 327.529 67.803 328.194 67.3687C328.859 66.9344 329.339 66.2684 329.54 65.5001C329.54 65.3901 329.54 65.2901 329.54 65.1901L330.92 65.4101C330.887 65.5118 330.861 65.6153 330.84 65.7201C330.793 66.5129 331.042 67.2949 331.54 67.914C332.037 68.5331 332.747 68.945 333.532 69.0697C334.316 69.1944 335.119 69.023 335.784 68.5887C336.449 68.1544 336.929 67.4884 337.13 66.7201C337.149 66.5674 337.149 66.4128 337.13 66.2601L341.6 66.9801C342.211 67.0729 342.77 67.3773 343.18 67.8401L343.51 67.5601C343.043 67.0303 342.413 66.6713 341.72 66.5401ZM326.01 67.3901C325.328 67.3217 324.701 66.9872 324.265 66.4591C323.829 65.9311 323.618 65.2523 323.68 64.5701C323.85 63.5001 324.74 63.1701 326.68 63.4701C328.62 63.7701 329.32 64.3601 329.15 65.4701C328.986 66.1422 328.563 66.7219 327.972 67.082C327.382 67.442 326.672 67.5528 326 67.3901H326.01ZM333.64 68.6101C332.956 68.5417 332.326 68.2061 331.888 67.6762C331.45 67.1463 331.238 66.4649 331.3 65.7801C331.47 64.7101 332.36 64.3801 334.3 64.6801C336.24 64.9801 336.94 65.5701 336.77 66.6801C336.692 67.013 336.55 67.3273 336.35 67.6048C336.15 67.8823 335.898 68.1175 335.607 68.2969C335.316 68.4764 334.992 68.5964 334.655 68.6501C334.317 68.7039 333.972 68.6903 333.64 68.6101Z" fill="#263238"/>
<g opacity="0.2">
<path d="M328.84 175.21L324.26 179.79C326.245 182.119 327.65 184.887 328.357 187.864C329.065 190.842 329.056 193.946 328.33 196.919C327.605 199.893 326.184 202.652 324.185 204.969C322.186 207.287 319.665 209.096 316.83 210.25C316.83 211.1 316.83 211.91 316.83 212.63C316.83 213.94 316.83 215.45 316.89 217.1C321.055 215.866 324.841 213.601 327.899 210.516C330.957 207.43 333.187 203.623 334.383 199.447C335.58 195.271 335.703 190.861 334.743 186.625C333.783 182.388 331.77 178.462 328.89 175.21H328.84Z" fill="black"/>
<path d="M345.83 68.8002C346.408 67.5212 346.707 66.1337 346.707 64.7301C346.707 63.3266 346.408 61.9391 345.83 60.6602V68.8002Z" fill="black"/>
<path d="M346.36 71.1401C346.408 70.818 346.386 70.4892 346.295 70.1766C346.203 69.864 346.044 69.5751 345.83 69.3301V72.3301C345.88 72.2501 345.95 72.1801 346 72.0901C346.187 71.803 346.31 71.479 346.36 71.1401Z" fill="black"/>
<path d="M326.63 173C324.086 170.754 321.122 169.034 317.91 167.94C317.84 170.13 317.77 172.43 317.69 174.79C319.262 175.52 320.729 176.458 322.05 177.58L326.63 173Z" fill="black"/>
</g>
<path d="M4.08979 299.18L3.28979 313.42L11.2498 314.06L13.2798 300.55L4.08979 299.18Z" fill="#FF8B7B"/>
<path d="M13.1198 313.63C13.0811 313.621 13.0458 313.601 13.0177 313.572C12.9895 313.544 12.9695 313.509 12.9598 313.47C12.95 313.43 12.9535 313.388 12.9697 313.35C12.9859 313.312 13.0141 313.281 13.0498 313.26C13.1798 313.19 16.0498 311.52 17.4698 311.89C17.5985 311.922 17.7195 311.979 17.826 312.058C17.9324 312.137 18.0221 312.236 18.0898 312.35C18.178 312.476 18.2253 312.627 18.2253 312.78C18.2253 312.934 18.178 313.084 18.0898 313.21C17.3822 313.715 16.5141 313.943 15.6498 313.85C14.8016 313.851 13.9551 313.778 13.1198 313.63ZM13.7598 313.36C15.3098 313.55 17.3998 313.52 17.7598 312.98C17.7598 312.91 17.8598 312.79 17.7598 312.55C17.7209 312.478 17.6652 312.415 17.5974 312.368C17.5296 312.321 17.4516 312.291 17.3698 312.28C17.2439 312.26 17.1157 312.26 16.9898 312.28C15.8542 312.431 14.7579 312.798 13.7598 313.36Z" fill="#03E5E5"/>
<path d="M12.9998 313.62C12.9704 313.601 12.9472 313.574 12.933 313.542C12.9188 313.51 12.9142 313.475 12.9198 313.44C12.9198 313.33 13.1398 311.09 14.1898 310.21C14.4972 309.956 14.8926 309.834 15.2898 309.87C15.8298 309.92 15.9998 310.2 16.0298 310.42C16.2098 311.36 14.2098 313.17 13.2198 313.62H13.1398C13.1178 313.63 13.0939 313.635 13.0698 313.635C13.0457 313.635 13.0218 313.63 12.9998 313.62ZM15.1598 310.25C14.9099 310.245 14.6673 310.335 14.4798 310.5C13.8617 311.217 13.4809 312.108 13.3898 313.05C14.3898 312.44 15.7198 311.05 15.6698 310.46C15.6698 310.46 15.6698 310.27 15.2698 310.24L15.1598 310.25Z" fill="#03E5E5"/>
<path d="M12.2599 312.47H3.17989C3.01406 312.475 2.85442 312.534 2.72594 312.639C2.59747 312.744 2.50743 312.889 2.46989 313.05L0.859886 320.44C0.824396 320.597 0.820038 320.758 0.847069 320.916C0.8741 321.074 0.931991 321.225 1.01743 321.361C1.10286 321.496 1.21417 321.614 1.34499 321.706C1.47582 321.799 1.6236 321.865 1.77988 321.9C1.86624 321.911 1.95353 321.911 2.03989 321.9C5.30989 321.83 8.21989 321.63 12.2999 321.62C17.1099 321.62 15.8899 322.18 21.5399 322.24C24.9499 322.24 25.5399 318.4 24.1099 318.24C17.4999 317.44 16.7999 315.44 14.2399 313.09C13.6785 312.647 12.9736 312.427 12.2599 312.47Z" fill="#263238"/>
<path opacity="0.2" d="M3.60986 307.69L12.0599 308.7L13.2799 300.55L4.08986 299.18L3.60986 307.69Z" fill="#263238"/>
<path d="M18.9999 140.92C18.9999 140.92 10.7499 146.38 10.2399 164.76C9.86993 178.04 10.7299 206.54 11.2399 221.37C11.4225 226.67 10.8365 231.968 9.49993 237.1C7.15993 246.1 3.49993 265.98 2.42993 305.5H13.3099C13.3099 305.5 25.0799 254.56 28.4099 231.27C31.7399 207.98 37.1099 140.92 37.1099 140.92H18.9999Z" fill="#263238"/>
<path opacity="0.4" d="M34.5 171.85L25.74 169.48C25.74 169.48 26.57 199.55 29.95 218.84C31.47 205.29 33.15 187.19 34.5 171.85Z" fill="black"/>
<path d="M36.9199 302.26L37.2499 316.52H45.2399L46.1899 302.88L36.9199 302.26Z" fill="#FF8B7B"/>
<path d="M46.53 316.36C46.4913 316.351 46.456 316.331 46.4278 316.302C46.3996 316.274 46.3796 316.239 46.37 316.2C46.3601 316.16 46.3636 316.118 46.3799 316.08C46.3961 316.042 46.4242 316.011 46.46 315.99C46.59 315.92 49.46 314.25 50.88 314.62C51.0086 314.652 51.1297 314.709 51.2361 314.788C51.3426 314.867 51.4323 314.966 51.5 315.08C51.5882 315.206 51.6355 315.357 51.6355 315.51C51.6355 315.664 51.5882 315.814 51.5 315.94C50.7924 316.445 49.9242 316.673 49.06 316.58C48.2118 316.581 47.3652 316.508 46.53 316.36ZM47.17 316.09C48.72 316.27 50.81 316.25 51.17 315.71C51.22 315.64 51.27 315.52 51.17 315.28C51.1298 315.208 51.0739 315.145 51.0065 315.096C50.939 315.048 50.8617 315.015 50.78 315C50.6541 314.98 50.5258 314.98 50.4 315C49.2637 315.155 48.1674 315.525 47.17 316.09Z" fill="#03E5E5"/>
<path d="M46.42 316.35C46.3906 316.331 46.3674 316.304 46.3532 316.272C46.339 316.24 46.3344 316.205 46.34 316.17C46.34 316.06 46.56 313.82 47.61 312.94C47.761 312.812 47.9363 312.716 48.1253 312.658C48.3143 312.599 48.5132 312.58 48.71 312.6C49.25 312.6 49.42 312.93 49.45 313.15C49.63 314.09 47.63 315.9 46.64 316.35H46.56C46.538 316.36 46.5141 316.365 46.49 316.365C46.4658 316.365 46.442 316.36 46.42 316.35ZM48.58 312.98C48.33 312.975 48.0874 313.065 47.9 313.23C47.2818 313.947 46.901 314.838 46.81 315.78C47.81 315.17 49.14 313.78 49.09 313.19C49.09 313.14 49.09 312.99 48.69 312.97L48.58 312.98Z" fill="#03E5E5"/>
<path d="M45.6698 315.2H36.5898C36.424 315.205 36.2643 315.264 36.1359 315.369C36.0074 315.474 35.9173 315.619 35.8798 315.78L34.2698 323.17C34.2343 323.327 34.23 323.488 34.257 323.646C34.284 323.804 34.3419 323.955 34.4273 324.091C34.5128 324.226 34.6241 324.344 34.7549 324.436C34.8857 324.529 35.0335 324.595 35.1898 324.63H35.4498C38.7198 324.56 41.6298 324.36 45.7098 324.35C50.5198 324.35 49.2998 324.91 54.9498 324.97C58.3598 324.97 58.9498 321.13 57.5198 320.97C50.9098 320.17 50.2098 318.17 47.6498 315.82C47.0884 315.377 46.3836 315.157 45.6698 315.2Z" fill="#263238"/>
<path opacity="0.2" d="M37.1199 310.78L45.6199 311.11L46.1899 302.88L36.9199 302.26L37.1199 310.78Z" fill="#263238"/>
<path d="M26.8699 145.69C26.8699 145.69 21.6899 159.13 27.8699 182.55C30.4599 192.36 34.9799 222.49 34.9799 222.49C35.9023 227.778 35.9732 233.18 35.1899 238.49C34.2605 245.229 33.8626 252.03 33.9999 258.83C34.2599 276.49 35.5399 308.23 35.5399 308.23H47.0499C47.0499 308.23 53.4499 249.16 53.4499 229.39C53.4499 207.89 46.5399 143.65 46.5399 143.65L26.8699 145.69Z" fill="#263238"/>
<path d="M26.5498 93.33C26.5498 93.33 31.3998 92.55 30.7898 83.58C30.7898 83.58 35.1698 81.26 38.2398 83.74C41.3098 86.22 36.1298 92.74 39.9098 95.12C39.9098 95.12 36.8498 97.45 26.5498 93.33Z" fill="#FF8B7B"/>
<path d="M46.5898 70.0001C46.5898 69.4001 46.9298 68.9101 47.3198 68.9201C47.7098 68.9301 48.0298 69.4201 48.0198 70.0201C48.0098 70.6201 47.6798 71.1101 47.2898 71.1001C46.8998 71.0901 46.5798 70.6301 46.5898 70.0001Z" fill="#263238"/>
<path d="M46.3298 71.0903L49.7398 75.0903C49.2682 75.4865 48.7115 75.7684 48.1131 75.9141C47.5147 76.0598 46.8907 76.0654 46.2898 75.9303L46.3298 71.0903Z" fill="#FF5652"/>
<path d="M44.11 68.3202C44.1667 68.3304 44.2249 68.3276 44.2803 68.312C44.3358 68.2964 44.3869 68.2684 44.43 68.2302C44.7364 67.9096 45.115 67.6671 45.5343 67.5227C45.9535 67.3783 46.4012 67.3363 46.84 67.4002C46.9313 67.4182 47.0261 67.4002 47.1044 67.3498C47.1827 67.2995 47.2385 67.2208 47.26 67.1302C47.2755 67.0391 47.2565 66.9455 47.2065 66.8678C47.1565 66.79 47.0793 66.7338 46.99 66.7102C46.4387 66.6206 45.8739 66.6647 45.3432 66.8387C44.8125 67.0127 44.3313 67.3116 43.94 67.7102C43.8765 67.7739 43.8408 67.8602 43.8408 67.9502C43.8408 68.0401 43.8765 68.1264 43.94 68.1902C43.9817 68.2502 44.0411 68.2957 44.11 68.3202Z" fill="#263238"/>
<path d="M47.4298 80.1202C47.1725 81.6663 46.4667 83.1028 45.4001 84.2513C44.3334 85.3998 42.9528 86.2096 41.4298 86.5802C40.7031 86.7712 39.9597 86.8918 39.2098 86.9402C36.2477 87.1083 33.3044 86.3725 30.7698 84.8302C26.7698 81.1002 26.5698 77.8302 25.7698 70.3002C25.5754 68.6989 25.7639 67.0744 26.3198 65.5602C26.7808 64.2745 27.4904 63.0922 28.4082 62.0808C29.3261 61.0694 30.4342 60.2487 31.6692 59.6656C32.9042 59.0824 34.242 58.7482 35.6062 58.6821C36.9704 58.616 38.3342 58.8192 39.6198 59.2802C47.1998 62.0002 48.7498 73.2102 47.4298 80.1202Z" fill="#FF8B7B"/>
<path opacity="0.2" d="M41.4798 86.5603C40.7531 86.7514 40.0096 86.872 39.2598 86.9203L39.5898 84.6104C39.5898 84.6104 40.3598 86.2603 41.4798 86.5603Z" fill="black"/>
<path d="M47.1799 69.0002L48.8199 68.6602C48.8199 68.6602 47.8899 69.8402 47.1799 69.0002Z" fill="#263238"/>
<path d="M37.84 57.0002C37.84 57.0002 46.22 55.8002 48.52 62.7102C50.82 69.6202 44.68 60.7102 43.18 60.4902C41.68 60.2702 47.09 66.7902 39.91 74.8102L34.09 85.2402C34.09 85.2402 31.84 84.5502 30.83 85.6602C30.83 85.6602 26.15 84.2702 25.04 74.8102C23.93 65.3502 26 56.6102 37.84 57.0002Z" fill="#263238"/>
<path d="M39.9099 73.56C39.9099 73.56 43.0499 72.48 43.4699 74.44C43.8899 76.4 42.4799 74 39.9099 73.56Z" fill="#263238"/>
<path d="M31.5099 85.0703C31.5099 85.0703 27.2999 85.3503 28.0699 87.2203C28.8399 89.0903 28.8899 85.9103 31.5099 85.0703Z" fill="#263238"/>
<path d="M26.3699 62.48C26.3699 62.48 12.2399 55.11 10.2499 65.98C8.25993 76.85 16.3299 80.47 12.4699 87.71C8.60993 94.95 18.1999 89.93 19.9499 82.8C21.6999 75.67 23.4299 70.33 26.3699 70.25C26.8967 69.7493 27.3161 69.1467 27.6028 68.4788C27.8894 67.811 28.0372 67.0918 28.0372 66.365C28.0372 65.6382 27.8894 64.919 27.6028 64.2512C27.3161 63.5833 26.8967 62.9807 26.3699 62.48Z" fill="#263238"/>
<path d="M26.37 62.4802C26.37 62.4802 25.74 62.1502 24.74 61.7402C25.9519 64.6021 26.0411 67.8155 24.99 70.7402C25.3957 70.4536 25.874 70.2872 26.37 70.2602C26.8983 69.7594 27.3191 69.1562 27.6067 68.4874C27.8942 67.8186 28.0425 67.0982 28.0425 66.3702C28.0425 65.6422 27.8942 64.9219 27.6067 64.2531C27.3191 63.5843 26.8983 62.9811 26.37 62.4802Z" fill="#03E5E5"/>
<path d="M39.4399 72.0904C40.6502 73.067 41.4235 74.4841 41.5899 76.0304C41.7899 78.0904 39.8599 78.7804 38.1099 77.9204C36.5199 77.1504 34.5199 75.1504 35.1099 73.2204C35.2483 72.797 35.4909 72.4152 35.8153 72.11C36.1396 71.8048 36.5355 71.5859 36.9664 71.4734C37.3974 71.3609 37.8497 71.3585 38.2819 71.4663C38.7141 71.5741 39.1122 71.7887 39.4399 72.0904Z" fill="#FF8B7B"/>
<path d="M41.3099 80.2399C42.0886 80.2399 42.7199 79.6086 42.7199 78.8299C42.7199 78.0512 42.0886 77.4199 41.3099 77.4199C40.5312 77.4199 39.8999 78.0512 39.8999 78.8299C39.8999 79.6086 40.5312 80.2399 41.3099 80.2399Z" fill="#03E5E5"/>
<path opacity="0.7" d="M41.3099 80.2399C42.0886 80.2399 42.7199 79.6086 42.7199 78.8299C42.7199 78.0512 42.0886 77.4199 41.3099 77.4199C40.5312 77.4199 39.8999 78.0512 39.8999 78.8299C39.8999 79.6086 40.5312 80.2399 41.3099 80.2399Z" fill="white"/>
<path d="M20.6999 94.3604C20.6999 94.3604 11.7699 95.0204 6.90988 105.25C2.04988 115.48 -1.28013 134.69 10.2399 135.2C21.7599 135.71 20.6999 132.9 20.6999 132.9V127.78L13.3199 125.56C12.9517 125.451 12.6097 125.268 12.3146 125.022C12.0196 124.776 11.7777 124.472 11.6037 124.13C11.4297 123.787 11.3272 123.413 11.3024 123.03C11.2777 122.647 11.3313 122.262 11.4599 121.9L15.3399 110.9L20.6999 94.3604Z" fill="#03E5E5"/>
<path opacity="0.1" d="M20.6999 94.3604C20.6999 94.3604 11.7699 95.0204 6.90988 105.25C2.04988 115.48 -1.28013 134.69 10.2399 135.2C21.7599 135.71 20.6999 132.9 20.6999 132.9V127.78L13.3199 125.56C12.9517 125.451 12.6097 125.268 12.3146 125.022C12.0196 124.776 11.7777 124.472 11.6037 124.13C11.4297 123.787 11.3272 123.413 11.3024 123.03C11.2777 122.647 11.3313 122.262 11.4599 121.9L15.3399 110.9L20.6999 94.3604Z" fill="black"/>
<path d="M26.4999 96.6102C26.4999 96.6102 23.6899 89.5402 26.4999 89.6702C29.3099 89.8002 40.4999 91.5902 43.1399 91.0702C45.7799 90.5502 38.6599 97.4702 38.6599 97.4702L26.4999 96.6102Z" fill="#03E5E5"/>
<path d="M26.4999 96.6102C26.4999 96.6102 23.6899 89.5402 26.4999 89.6702C29.3099 89.8002 40.4999 91.5902 43.1399 91.0702C45.7799 90.5502 38.6599 97.4702 38.6599 97.4702L26.4999 96.6102Z" fill="#263238"/>
<path d="M13.5598 148C14.7752 144.636 15.3617 141.077 15.2899 137.5C14.8999 126.73 13.1499 109.75 12.2899 102.97C11.2299 94.6501 22.5299 92.9701 34.2899 93.7401C46.0499 94.5101 52.7098 94.2501 51.4298 108.07C50.1498 121.89 47.6099 148 47.6099 148H13.5598Z" fill="#03E5E5"/>
<path opacity="0.1" d="M51.2598 110C50.5741 109.039 49.8223 108.127 49.0098 107.27L44.5198 108.27C44.5198 108.27 45.9198 125.15 49.4298 129.16C50.0598 122.67 50.7398 115.61 51.2598 110Z" fill="black"/>
<path d="M44 94.6803C46.1013 94.5665 48.183 95.1363 49.9334 96.3044C51.6838 97.4726 53.0088 99.1762 53.71 101.16C55.71 106.35 59.81 117.87 61.88 123.81C61.9918 124.125 62.1927 124.4 62.4581 124.602C62.7236 124.804 63.0421 124.925 63.375 124.95C63.7078 124.974 64.0406 124.901 64.3327 124.739C64.6248 124.578 64.8636 124.335 65.02 124.04L67.79 118.82C67.79 118.82 71.88 119.59 73.42 123.17C74.96 126.75 65.74 136.5 60.87 136.48C55.48 136.48 48.45 123.27 46.54 117.2C44.2179 109.934 43.3547 102.281 44 94.6803Z" fill="#03E5E5"/>
<path d="M67.8298 120.51L70.9898 115.13C70.9898 115.13 69.1998 111.78 70.3798 109.62C71.5598 107.46 72.7098 109.2 73.8398 108.54C74.9698 107.88 77.5198 103.19 78.7498 105.54C79.9798 107.89 81.4998 111.95 75.1898 116.75L71.7798 125.31L67.8298 120.51Z" fill="#FF8B7B"/>
<path d="M68.2999 118.25C69.6871 118.536 70.9676 119.202 71.9987 120.173C73.0298 121.144 73.7711 122.383 74.1399 123.75V123.87C74.2299 124.36 74.8499 128.04 74.1399 128.1C73.4299 128.16 72.4199 124.65 66.6099 121.59C66.5212 121.548 66.4426 121.487 66.3793 121.411C66.316 121.336 66.2696 121.248 66.2431 121.154C66.2166 121.059 66.2106 120.96 66.2256 120.862C66.2406 120.765 66.2761 120.672 66.3299 120.59L67.5699 118.54C67.6467 118.422 67.7581 118.331 67.8888 118.279C68.0196 118.227 68.1632 118.217 68.2999 118.25Z" fill="#03E5E5"/>
<path d="M68.2999 118.25C69.6871 118.536 70.9676 119.202 71.9987 120.173C73.0298 121.144 73.7711 122.383 74.1399 123.75V123.87C74.2299 124.36 74.8499 128.04 74.1399 128.1C73.4299 128.16 72.4199 124.65 66.6099 121.59C66.5212 121.548 66.4426 121.487 66.3793 121.411C66.316 121.336 66.2696 121.248 66.2431 121.154C66.2166 121.059 66.2106 120.96 66.2256 120.862C66.2406 120.765 66.2761 120.672 66.3299 120.59L67.5699 118.54C67.6467 118.422 67.7581 118.331 67.8888 118.279C68.0196 118.227 68.1632 118.217 68.2999 118.25Z" fill="#263238"/>
<path opacity="0.1" d="M34.3 93.7399C30.1082 93.3926 25.8903 93.5302 21.73 94.1499C22.59 95.2299 24.73 96.2999 29.73 96.5399C37.09 96.8899 38.09 95.1999 40.92 94.2199C39 93.9999 36.74 93.8999 34.3 93.7399Z" fill="black"/>
</svg>
