<svg width="450" height="474" viewBox="0 0 450 474" fill="none" xmlns="http://www.w3.org/2000/svg">
<path d="M248.7 336.86H230.94C230.231 336.87 229.534 337.047 228.905 337.375C228.277 337.703 227.734 338.174 227.32 338.75C226.835 339.393 226.541 340.158 226.47 340.96L225.69 349.89L224.33 365.42L222.73 383.66C222.652 384.477 222.838 385.297 223.26 386C223.604 386.541 224.08 386.987 224.643 387.295C225.206 387.602 225.838 387.762 226.48 387.76H244.26C245.376 387.739 246.445 387.311 247.267 386.555C248.089 385.8 248.605 384.77 248.72 383.66L252.45 340.96C252.507 340.437 252.452 339.909 252.288 339.409C252.125 338.909 251.857 338.45 251.502 338.062C251.147 337.674 250.714 337.366 250.231 337.159C249.747 336.952 249.226 336.85 248.7 336.86Z" fill="#263238" stroke="#E5E7EB" strokeLinecap="round" strokeLinejoin="round"/>
<path d="M229.31 337.82H247.08C247.499 337.808 247.916 337.885 248.302 338.048C248.689 338.21 249.036 338.453 249.321 338.761C249.605 339.07 249.82 339.435 249.951 339.833C250.082 340.232 250.126 340.653 250.08 341.07L246.34 383.76C246.252 384.64 245.844 385.457 245.193 386.056C244.542 386.656 243.694 386.995 242.81 387.01H225C224.581 387.023 224.164 386.945 223.777 386.783C223.391 386.62 223.044 386.377 222.759 386.069C222.475 385.761 222.26 385.395 222.129 384.997C221.998 384.599 221.954 384.177 222 383.76L225.73 341.07C225.823 340.183 226.24 339.362 226.9 338.762C227.56 338.163 228.418 337.828 229.31 337.82Z" fill="#BFBFBF" stroke="#E5E7EB" strokeLinecap="round" strokeLinejoin="round"/>
<path d="M244.48 337.84C244.421 338.444 244.142 339.005 243.695 339.417C243.249 339.828 242.667 340.06 242.06 340.07H234C233.717 340.072 233.436 340.013 233.177 339.899C232.919 339.784 232.687 339.616 232.498 339.405C232.309 339.194 232.167 338.946 232.081 338.676C231.995 338.406 231.967 338.121 232 337.84H244.51H244.48Z" fill="#263238" stroke="#E5E7EB" strokeLinecap="round" strokeLinejoin="round"/>
<path d="M230.06 378.15C229.92 375.4 229.8 373.06 229.81 372.87C229.81 372.38 232.81 369.31 233.56 368.45C234.31 367.59 233.81 364.86 233.81 364.86C233.81 364.08 232.65 363.58 232.65 363.58C232.65 363.58 227.11 364.07 226.42 364.45C225.73 364.83 226.02 365.23 226.01 366C226 366.77 226.71 371.27 226.71 371.27C226.71 371.27 226.31 374.02 225.8 377.58L230.06 378.15Z" fill="white" stroke="#E5E7EB" strokeLinecap="round" strokeLinejoin="round"/>
<path d="M224.12 363.68C224.105 363.614 224.105 363.546 224.12 363.48C224.129 363.417 224.151 363.357 224.183 363.303C224.215 363.249 224.258 363.202 224.309 363.164C224.359 363.127 224.417 363.1 224.478 363.084C224.539 363.069 224.603 363.066 224.665 363.075C224.727 363.084 224.787 363.105 224.841 363.138C224.896 363.17 224.943 363.213 224.98 363.263C225.018 363.314 225.045 363.372 225.061 363.433C225.076 363.494 225.079 363.557 225.07 363.62L225.2 365.85L234.42 364.74V362.82C234.42 362.687 234.473 362.56 234.566 362.466C234.66 362.373 234.787 362.32 234.92 362.32C235.053 362.32 235.18 362.373 235.274 362.466C235.367 362.56 235.42 362.687 235.42 362.82V365.56L224.42 366.88L224.12 363.68Z" fill="#263238"/>
<path d="M232.66 363.57L226.43 364.45L226.79 366.6L232.82 366.11L232.66 363.57Z" fill="white" stroke="#E5E7EB" strokeLinecap="round" strokeLinejoin="round"/>
<path d="M229.45 369.26C228.79 367.41 231.06 365.4 231.06 365.4C231.06 365.4 230.06 365.29 229.62 365.28C229.18 365.27 229.14 364.98 229.15 364.4C229.16 363.82 233.34 363.59 233.63 363.79C233.92 363.99 233.89 366.41 233.89 366.41" fill="white"/>
<path d="M229.45 369.26C228.79 367.41 231.06 365.4 231.06 365.4C231.06 365.4 230.06 365.29 229.62 365.28C229.18 365.27 229.14 364.98 229.15 364.4C229.16 363.82 233.34 363.59 233.63 363.79C233.92 363.99 233.89 366.41 233.89 366.41" stroke="#E5E7EB" strokeLinecap="round" strokeLinejoin="round"/>
<path d="M232.34 365.52L231.08 365.4" stroke="#E5E7EB" strokeLinecap="round" strokeLinejoin="round"/>
<path d="M241.3 357.27L211.75 343.15L207.75 366.78L240.22 362.72L241.3 357.27Z" fill="#03E5E5" stroke="#E5E7EB" strokeLinecap="round" strokeLinejoin="round"/>
<path d="M242.31 363.12L240.22 362.7L241.3 357.27L243.39 357.68C244.11 357.825 244.743 358.249 245.15 358.861C245.557 359.472 245.704 360.22 245.56 360.94C245.417 361.66 244.995 362.293 244.386 362.702C243.777 363.111 243.03 363.261 242.31 363.12Z" fill="#03E5E5" stroke="#E5E7EB" strokeLinecap="round" strokeLinejoin="round"/>
<path d="M230.84 374.17L230.55 372.22L225.14 372.52L225.47 374.78L230.84 374.17Z" fill="white" stroke="#E5E7EB" strokeLinecap="round" strokeLinejoin="round"/>
<path d="M232.84 387.11H226C225.592 387.114 225.186 387.05 224.8 386.92C224.8 386.71 224.8 386.49 224.8 386.27C224.72 380.1 224.71 374.27 224.71 374.27L225.37 374.2L226.28 374.11L229.82 373.76L230.74 373.67H230.93L232.7 386.29L232.84 387.11Z" fill="#03E5E5"/>
<path d="M249.74 398.69C249.565 398.778 249.381 398.846 249.19 398.89L249.74 398.69Z" fill="#03E5E5"/>
<path d="M232.72 386.28L232.84 387.11H226C225.592 387.114 225.186 387.05 224.8 386.92C224.8 386.71 224.8 386.49 224.8 386.27C224.72 380.1 224.71 374.27 224.71 374.27L225.37 374.2L226.28 374.11L229.82 373.76L230.74 373.67H230.93L232.72 386.28Z" stroke="#E5E7EB" strokeLinecap="round" strokeLinejoin="round"/>
<path d="M215 344.41C214.381 343.792 213.587 343.377 212.726 343.222C211.865 343.066 210.976 343.177 210.18 343.54C207.84 344.6 204.54 347.91 203.4 352.84C201.02 363.11 205.61 366.84 207.87 366.78C216.32 366.52 221.23 350.62 215 344.41Z" fill="#263238" stroke="#E5E7EB" strokeLinecap="round" strokeLinejoin="round"/>
<path d="M209.49 357.33L216.2 359.79C216.2 359.79 218.55 355.42 217.8 351.55L209.49 352.6C209.49 352.6 210.57 354.33 209.49 357.33Z" fill="#03E5E5" stroke="#E5E7EB" strokeLinecap="round" strokeLinejoin="round"/>
<path d="M211.23 355C211.23 356.3 210.45 357.36 209.49 357.36C208.53 357.36 207.74 356.3 207.74 355C207.74 353.7 208.52 352.63 209.49 352.63C210.46 352.63 211.23 353.66 211.23 355Z" fill="white" stroke="#E5E7EB" strokeLinecap="round" strokeLinejoin="round"/>
<path d="M338.43 388.56H301C301 386 305.76 383.78 312.52 382.85V366.85H326.9V382.85C333.66 383.78 338.43 386 338.43 388.56Z" fill="white" stroke="#E5E7EB" strokeLinecap="round" strokeLinejoin="round"/>
<path d="M380.76 306.02H259.16V371.41H380.76V306.02Z" fill="white" stroke="#E5E7EB" strokeLinecap="round" strokeLinejoin="round"/>
<path d="M380.76 306.02H259.16V371.41H380.76V306.02Z" fill="#03E5E5" stroke="#E5E7EB" strokeLinecap="round" strokeLinejoin="round"/>
<path d="M377.46 309.01H261.98V363.97H377.46V309.01Z" fill="#263238" stroke="#E5E7EB" strokeLinecap="round" strokeLinejoin="round"/>
<path d="M326.9 371.42H312.53V374.89H326.9V371.42Z" fill="#263238" stroke="#E5E7EB" strokeLinecap="round" strokeLinejoin="round"/>
<path d="M299.07 327.44V328.11V350.16L319.92 360.02V336.04L299.07 327.44Z" fill="#03E5E5" stroke="#E5E7EB" strokeLinecap="round" strokeLinejoin="round"/>
<path d="M340.77 327.44V328.11V350.16L319.92 360.02V336.04L340.77 327.44Z" fill="#BFBFBF" stroke="#E5E7EB" strokeLinecap="round" strokeLinejoin="round"/>
<path d="M299.07 327.44L319.92 336.04L340.77 327.44L319.92 318.03L299.07 327.44Z" fill="white" stroke="#E5E7EB" strokeLinecap="round" strokeLinejoin="round"/>
<path d="M200 388.56V469.87H399.43V388.56H200ZM389.64 459.62H209.79V399.08H389.65L389.64 459.62Z" stroke="#E5E7EB" strokeLinecap="round" strokeLinejoin="round"/>
<path d="M299.72 399.25V459.53" stroke="#E5E7EB" strokeLinecap="round" strokeLinejoin="round"/>
<path d="M243.72 411.49L229.66 428.8Z" fill="white"/>
<path d="M243.72 411.49L229.66 428.8" stroke="#E5E7EB" strokeLinecap="round" strokeLinejoin="round"/>
<path d="M263.09 414.23L237.3 446Z" fill="white"/>
<path d="M263.09 414.23L237.3 446" stroke="#E5E7EB" strokeLinecap="round" strokeLinejoin="round"/>
<path d="M267.83 408.39L265.46 411.31Z" fill="white"/>
<path d="M267.83 408.39L265.46 411.31" stroke="#E5E7EB" strokeLinecap="round" strokeLinejoin="round"/>
<path d="M259.62 445.33L256.57 449.09Z" fill="white"/>
<path d="M259.62 445.33L256.57 449.09" stroke="#E5E7EB" strokeLinecap="round" strokeLinejoin="round"/>
<path d="M278.44 422.15L261.88 442.55Z" fill="white"/>
<path d="M278.44 422.15L261.88 442.55" stroke="#E5E7EB" strokeLinecap="round" strokeLinejoin="round"/>
<path d="M337.25 411.49L323.19 428.8Z" fill="white"/>
<path d="M337.25 411.49L323.19 428.8" stroke="#E5E7EB" strokeLinecap="round" strokeLinejoin="round"/>
<path d="M356.62 414.23L330.83 446Z" fill="white"/>
<path d="M356.62 414.23L330.83 446" stroke="#E5E7EB" strokeLinecap="round" strokeLinejoin="round"/>
<path d="M361.37 408.39L359 411.31Z" fill="white"/>
<path d="M361.37 408.39L359 411.31" stroke="#E5E7EB" strokeLinecap="round" strokeLinejoin="round"/>
<path d="M353.16 445.33L350.1 449.09Z" fill="white"/>
<path d="M353.16 445.33L350.1 449.09" stroke="#E5E7EB" strokeLinecap="round" strokeLinejoin="round"/>
<path d="M372 422.15L355.43 442.55Z" fill="white"/>
<path d="M372 422.15L355.43 442.55" stroke="#E5E7EB" strokeLinecap="round" strokeLinejoin="round"/>
<path d="M148 349.33L119.24 195.65" stroke="#03E5E5" strokeMiterlimit="10" strokeDasharray="1.98 1.98"/>
<path d="M148.34 349.33L79.16 236.09" stroke="#03E5E5" strokeMiterlimit="10" strokeDasharray="1.98 1.98"/>
<path d="M147.07 349.33L67.26 300.46" stroke="#03E5E5" strokeMiterlimit="10" strokeDasharray="1.98 1.98"/>
<path d="M67.9301 321.33C63.8518 321.33 59.8651 320.121 56.4742 317.855C53.0833 315.589 50.4404 312.369 48.8797 308.601C47.319 304.833 46.9106 300.687 47.7063 296.688C48.5019 292.688 50.4658 289.014 53.3495 286.13C56.2333 283.246 59.9074 281.282 63.9073 280.487C67.9072 279.691 72.0532 280.099 75.821 281.66C79.5888 283.221 82.8092 285.864 85.075 289.254C87.3407 292.645 88.5501 296.632 88.5501 300.71C88.5448 306.177 86.3706 311.419 82.5048 315.285C78.6389 319.151 73.3972 321.325 67.9301 321.33ZM67.9301 283.09C64.4452 283.09 61.0385 284.124 58.1409 286.06C55.2433 287.996 52.9849 290.748 51.6513 293.967C50.3177 297.187 49.9688 300.73 50.6486 304.148C51.3285 307.566 53.0066 310.705 55.4708 313.17C57.935 315.634 61.0746 317.312 64.4926 317.992C67.9105 318.672 71.4533 318.323 74.673 316.989C77.8926 315.655 80.6445 313.397 82.5806 310.499C84.5167 307.602 85.5501 304.195 85.5501 300.71C85.5448 296.039 83.6867 291.56 80.3834 288.257C77.0802 284.954 72.6016 283.096 67.9301 283.09Z" fill="#E5E7EB"/>
<path d="M67.6901 317C64.4719 316.994 61.3277 316.035 58.6546 314.243C55.9815 312.451 53.8996 309.907 52.6717 306.932C51.4438 303.957 51.1251 300.685 51.7558 297.53C52.3866 294.374 53.9384 291.476 56.2154 289.202C58.4924 286.927 61.3924 285.379 64.5489 284.752C67.7054 284.125 70.9769 284.448 73.9501 285.68C76.9233 286.911 79.4649 288.996 81.2536 291.672C83.0424 294.347 83.9981 297.492 84.0001 300.71C84.0001 302.851 83.5781 304.971 82.7582 306.949C81.9383 308.927 80.7366 310.723 79.2218 312.236C77.707 313.749 75.9088 314.949 73.9301 315.766C71.9514 316.584 69.831 317.003 67.6901 317ZM67.6901 287.45C65.064 287.456 62.4986 288.241 60.3182 289.704C58.1379 291.168 56.4404 293.245 55.4405 295.674C54.4405 298.102 54.183 300.772 54.7004 303.347C55.2178 305.922 56.487 308.285 58.3474 310.138C60.2078 311.992 62.576 313.252 65.1526 313.76C67.7291 314.268 70.3984 314 72.8229 312.991C75.2474 311.982 77.3183 310.277 78.7738 308.091C80.2293 305.905 81.004 303.337 81.0001 300.71C80.9948 297.185 79.5898 293.805 77.094 291.315C74.5982 288.825 71.2157 287.428 67.6901 287.43V287.45Z" fill="#E5E7EB"/>
<path d="M67.93 303.36C69.3936 303.36 70.58 302.174 70.58 300.71C70.58 299.246 69.3936 298.06 67.93 298.06C66.4665 298.06 65.28 299.246 65.28 300.71C65.28 302.174 66.4665 303.36 67.93 303.36Z" fill="#03E5E5" stroke="#E5E7EB" strokeLinecap="round" strokeLinejoin="round"/>
<path d="M55.8201 300.77C55.8181 303.118 56.5126 305.414 57.8157 307.367C59.1188 309.321 60.9719 310.844 63.1407 311.744C65.3095 312.644 67.6964 312.88 69.9997 312.423C72.3029 311.966 74.4188 310.837 76.0799 309.177C77.7409 307.517 78.8724 305.402 79.3313 303.1C79.7901 300.797 79.5556 298.41 78.6575 296.24C77.7594 294.07 76.238 292.216 74.2857 290.911C72.3335 289.607 70.0382 288.91 67.6901 288.91C66.1318 288.909 64.5885 289.215 63.1484 289.81C61.7083 290.405 60.3997 291.279 59.2973 292.38C58.195 293.482 57.3205 294.79 56.7238 296.229C56.1272 297.669 55.8201 299.212 55.8201 300.77ZM58.5201 300.77C58.5201 298.956 59.0579 297.184 60.0655 295.676C61.0731 294.168 62.5053 292.992 64.1809 292.298C65.8565 291.604 67.7002 291.423 69.4791 291.776C71.2579 292.13 72.8918 293.004 74.1742 294.286C75.4567 295.568 76.33 297.202 76.6839 298.981C77.0377 300.76 76.8561 302.604 76.162 304.279C75.468 305.955 74.2926 307.387 72.7846 308.395C71.2767 309.402 69.5037 309.94 67.6901 309.94C65.2589 309.938 62.928 308.971 61.2088 307.251C59.4897 305.532 58.5227 303.201 58.5201 300.77Z" fill="#E5E7EB"/>
<path d="M46.71 270.5V275.34L51.93 281.59H51.94L52.92 277.8L46.71 270.5Z" fill="#03E5E5" stroke="#263238" strokeLinecap="round" strokeLinejoin="round"/>
<path d="M46.9911 275.108L46.4467 275.563L67.6727 300.923L68.2171 300.467L46.9911 275.108Z" fill="#263238" stroke="#263238" strokeLinecap="round" strokeLinejoin="round"/>
<path d="M42.39 275.43L47.56 281.59H51.93L46.71 275.34L42.39 275.43Z" fill="#03E5E5" stroke="#263238" strokeLinecap="round" strokeLinejoin="round"/>
<path d="M137.94 196.17C138.007 199.87 136.975 203.506 134.974 206.618C132.974 209.731 130.095 212.18 126.702 213.656C123.309 215.132 119.555 215.568 115.914 214.909C112.273 214.25 108.909 212.526 106.249 209.955C103.588 207.384 101.75 204.082 100.967 200.466C100.184 196.849 100.491 193.082 101.85 189.641C103.208 186.199 105.558 183.238 108.6 181.132C111.642 179.026 115.241 177.87 118.94 177.81C123.892 177.733 128.673 179.622 132.235 183.063C135.796 186.505 137.848 191.218 137.94 196.17Z" fill="white" stroke="#263238" strokeLinecap="round" strokeLinejoin="round"/>
<path d="M120.41 214.64C126.51 210.57 129.62 202.64 129.5 195.64V196.47C129.38 190.1 126 181.63 119.75 177.77" fill="white"/>
<path d="M120.41 214.64C126.51 210.57 129.62 202.64 129.5 195.64V196.47C129.38 190.1 126 181.63 119.75 177.77" stroke="#263238" strokeLinecap="round" strokeLinejoin="round"/>
<path d="M103.51 186.39L111.74 186.25L112.66 186.23L118.69 186.13L119.53 186.11L125.56 186L126.48 185.99L134.6 185.85" fill="white"/>
<path d="M103.51 186.39L111.74 186.25L112.66 186.23L118.69 186.13L119.53 186.11L125.56 186L126.48 185.99L134.6 185.85" stroke="#263238" strokeLinecap="round" strokeLinejoin="round"/>
<path d="M100.6 196.72L137.98 196.07" stroke="#263238" strokeLinecap="round" strokeLinejoin="round"/>
<path d="M104.07 206.93L112.27 206.79L113.2 206.77L119.05 206.67L119.89 206.65L125.74 206.56L125.75 206.55L126.68 206.53L134.88 206.39L134.89 206.73" fill="white"/>
<path d="M104.07 206.93L112.27 206.79L113.2 206.77L119.05 206.67L119.89 206.65L125.74 206.56L125.75 206.55L126.68 206.53L134.88 206.39L134.89 206.73" stroke="#263238" strokeLinecap="round" strokeLinejoin="round"/>
<g opacity="0.2">
<path d="M103.51 186.39L111.74 186.25L112.66 186.23L118.69 186.13L119.53 186.11L125.56 186L126.48 185.99L134.6 185.85" fill="white"/>
<path d="M103.51 186.39L111.74 186.25L112.66 186.23L118.69 186.13L119.53 186.11L125.56 186L126.48 185.99L134.6 185.85" stroke="#263238" strokeLinecap="round" strokeLinejoin="round"/>
<path d="M100.6 196.72L137.98 196.07" stroke="#263238" strokeLinecap="round" strokeLinejoin="round"/>
</g>
<path d="M118.73 177.45C112.54 181.58 109.41 190.24 109.52 196.67V196.1C109.64 202.52 113.06 211.1 119.4 214.98" stroke="#263238" strokeLinecap="round" strokeLinejoin="round"/>
<path d="M119.77 215.15L119.11 177.62" stroke="#263238" strokeLinecap="round" strokeLinejoin="round"/>
<path d="M93 245.11C91.0981 248.503 88.2007 251.231 84.6991 252.924C81.1976 254.618 77.2606 255.196 73.42 254.58C71.2592 254.25 69.1697 253.557 67.24 252.53C63.9139 250.78 61.1845 248.078 59.4 244.77L76.23 236.21L59.47 227.31C61.6809 223.401 65.1973 220.395 69.4028 218.819C73.6083 217.243 78.2344 217.197 82.47 218.69C83.4136 219.026 84.3325 219.426 85.22 219.89C87.4052 221.016 89.3437 222.567 90.9219 224.451C92.5001 226.336 93.6862 228.516 94.4108 230.865C95.1354 233.214 95.3838 235.684 95.1416 238.13C94.8993 240.576 94.1713 242.949 93 245.11Z" fill="white" stroke="#263238" strokeLinecap="round" strokeLinejoin="round"/>
<path d="M96.3301 246C94.1222 249.913 90.6066 252.923 86.4005 254.501C82.1944 256.079 77.5667 256.125 73.3301 254.63C77.1899 255.261 81.1503 254.685 84.6707 252.981C88.191 251.277 91.0999 248.529 93.0001 245.11C94.1717 242.95 94.9003 240.577 95.1433 238.132C95.3862 235.686 95.1387 233.216 94.415 230.868C93.6914 228.519 92.5063 226.338 90.9291 224.453C89.3519 222.568 87.4144 221.017 85.2301 219.89C84.3426 219.427 83.4237 219.026 82.4801 218.69C84.6216 219.006 86.6942 219.683 88.6101 220.69C90.8039 221.819 92.7492 223.376 94.3308 225.27C95.9123 227.163 97.0981 229.354 97.8178 231.714C98.5376 234.074 98.7768 236.554 98.5213 239.008C98.2657 241.462 97.5206 243.84 96.3301 246Z" fill="#263238"/>
<path d="M71.98 235.96L55.15 244.52L51.77 243.68L68.59 235.12L51.83 226.23L55.21 227.06L71.98 235.96Z" fill="white" stroke="#263238" strokeLinecap="round" strokeLinejoin="round"/>
<path d="M71.98 235.96L55.15 244.52L51.77 243.68L68.59 235.12L51.83 226.23L55.21 227.06L71.98 235.96Z" fill="#263238"/>
<path d="M68.59 235.12L51.77 243.68C50.3148 241 49.5576 237.997 49.5681 234.947C49.5786 231.898 50.3565 228.9 51.83 226.23L68.59 235.12Z" fill="#03E5E5" stroke="#263238" strokeLinecap="round" strokeLinejoin="round"/>
<path d="M191.88 326.43L204.55 339" stroke="#03E5E5" strokeMiterlimit="10" strokeDasharray="1.98 1.98"/>
<path d="M177.6 352.07H196.78" stroke="#03E5E5" strokeMiterlimit="10" strokeDasharray="1.98 1.98"/>
<path d="M187.65 380.08C192.036 376.623 196.631 373.44 201.41 370.55" stroke="#03E5E5" strokeMiterlimit="10" strokeDasharray="1.98 1.98"/>
<path d="M115.93 346.25C115.8 355.99 115.64 368.47 115.5 377.25C114.301 377.355 113.108 377.532 111.93 377.78L111.42 343.78C112.795 344.818 114.315 345.65 115.93 346.25Z" stroke="#263238" strokeLinecap="round" strokeLinejoin="round"/>
<path d="M161 345.39L161.48 377.33C162.679 377.458 163.868 377.665 165.04 377.95C165.21 367.88 165.41 352.4 165.53 342.06" stroke="#263238" strokeLinecap="round" strokeLinejoin="round"/>
<path d="M164.08 401.05H158.94V448.33H164.08V401.05Z" stroke="#E5E7EB" strokeLinecap="round" strokeLinejoin="round"/>
<path d="M164.08 455.15V466.49C164.118 467.212 163.87 467.92 163.388 468.459C162.907 468.999 162.232 469.326 161.51 469.37C161.165 469.366 160.824 469.289 160.51 469.145C160.197 469 159.917 468.79 159.69 468.53C159.213 467.972 158.947 467.264 158.94 466.53V455.15H164.08Z" stroke="#263238" strokeLinecap="round" strokeLinejoin="round"/>
<path d="M107.71 401V467.77C107.669 468.422 107.381 469.035 106.905 469.482C106.428 469.93 105.799 470.179 105.145 470.179C104.491 470.179 103.862 469.93 103.385 469.482C102.909 469.035 102.621 468.422 102.58 467.77V400.14H102.65C102.96 400.23 103.28 400.31 103.65 400.39H103.89L104.32 400.48L104.54 400.53H104.64L105.26 400.63L105.71 400.7L106.71 400.81L107.71 400.89V401Z" stroke="#E5E7EB" strokeLinecap="round" strokeLinejoin="round"/>
<path d="M173.58 400.15V467.76C173.579 468.267 173.428 468.762 173.146 469.184C172.865 469.605 172.464 469.934 171.996 470.129C171.528 470.323 171.013 470.375 170.515 470.277C170.018 470.18 169.56 469.937 169.2 469.58C168.721 469.095 168.452 468.441 168.45 467.76V401L169.65 400.9L170.24 400.83L170.8 400.76C170.97 400.76 171.13 400.71 171.29 400.67L171.89 400.56C172.09 400.56 172.28 400.48 172.47 400.44L173.04 400.3L173.58 400.15Z" stroke="#E5E7EB" strokeLinecap="round" strokeLinejoin="round"/>
<path d="M176.16 399.15C175.93 399.27 175.7 399.37 175.46 399.47C175.22 399.57 175.11 399.62 174.94 399.69L174.61 399.81C174.5 399.86 174.38 399.89 174.27 399.93L173.58 400.15L173.04 400.3L172.47 400.44C172.28 400.44 172.09 400.53 171.89 400.56L171.29 400.67C171.13 400.67 170.97 400.73 170.8 400.76L170.24 400.83L169.65 400.9L168.45 401C167.86 401 167.26 401.05 166.64 401.05H109.64C108.99 401.05 108.36 401.05 107.76 400.99L106.76 400.91L105.76 400.8L105.31 400.73L104.69 400.63H104.59L104.37 400.58C104.225 400.56 104.081 400.53 103.94 400.49H103.7C103.35 400.41 103.03 400.33 102.7 400.24H102.63L102.46 400.18H102.34C102.222 400.13 102.108 400.069 102 400L101.79 399.93L101.02 399.64C100.82 399.56 100.62 399.47 100.42 399.37C96.21 397.37 94.67 393.97 96.82 390.37L100.73 383.89C102.42 381.08 106.84 378.83 111.94 377.78C113.118 377.532 114.311 377.355 115.51 377.25C116.4 377.17 117.31 377.13 118.21 377.13H158C159.17 377.129 160.339 377.2 161.5 377.34C162.699 377.468 163.888 377.675 165.06 377.96C169.81 379.07 173.87 381.23 175.47 383.89L179.37 390.37C181.5 393.83 180.12 397.16 176.16 399.15Z" stroke="#E5E7EB" strokeLinecap="round" strokeLinejoin="round"/>
<path d="M170.84 324.33V329.24C170.848 334.039 168.953 338.646 165.57 342.05L161 345.39C158.406 346.751 155.519 347.458 152.59 347.45H122.41C120.195 347.453 117.999 347.05 115.93 346.26C114.313 345.654 112.794 344.815 111.42 343.77C109.174 342.075 107.352 339.88 106.099 337.361C104.846 334.841 104.196 332.064 104.2 329.25V324.35C104.199 321.958 104.669 319.589 105.583 317.378C106.498 315.168 107.839 313.159 109.53 311.467C111.221 309.775 113.229 308.433 115.439 307.517C117.649 306.601 120.018 306.13 122.41 306.13H152.63C157.458 306.13 162.088 308.047 165.503 311.46C168.918 314.873 170.837 319.502 170.84 324.33Z" stroke="#263238" strokeLinecap="round" strokeLinejoin="round"/>
<path d="M165.57 342.05C164.242 343.388 162.714 344.512 161.04 345.38L165.57 342.05Z" stroke="#263238" strokeLinecap="round" strokeLinejoin="round"/>
<path d="M116.83 401.05H111.7V448.33H116.83V401.05Z" stroke="#E5E7EB" strokeLinecap="round" strokeLinejoin="round"/>
<path d="M111.7 455.15H116.83V466.49C116.868 467.21 116.621 467.917 116.142 468.456C115.663 468.995 114.99 469.324 114.27 469.37C113.925 469.366 113.584 469.289 113.27 469.145C112.957 469 112.677 468.79 112.45 468.53C111.973 467.972 111.707 467.264 111.7 466.53V455.15Z" stroke="#263238" strokeLinecap="round" strokeLinejoin="round"/>
<path d="M168.35 448.33H107.86V455.15H168.35V448.33Z" stroke="#E5E7EB" strokeLinecap="round" strokeLinejoin="round"/>
<path d="M142.28 244.29C143.973 244.664 145.553 245.438 146.887 246.546C148.221 247.654 149.271 249.064 149.95 250.66C151.15 253.49 151.23 256.66 151.56 259.66C151.89 262.66 152.51 265.77 154.63 268.23C155.94 269.73 157.8 271.02 158.32 272.81C158.84 274.6 157.15 277.16 154.38 277.47C155.95 278.35 154.38 280.78 152.16 280.9C153.16 281.9 152.01 283.61 150.23 284.29C149.389 284.6 148.493 284.733 147.599 284.682C146.704 284.63 145.83 284.395 145.03 283.99C143.837 283.297 142.935 282.196 142.49 280.89C140.21 275.13 142.99 268.14 140 262.61C138.62 260.03 136.07 257.96 134 255.69C132.15 253.69 129.08 249.69 130.81 246.84C132.54 243.99 139.26 243.55 142.28 244.29Z" fill="#263238" stroke="#263238" strokeLinecap="round" strokeLinejoin="round"/>
<path d="M168.88 383.41C167.5 387.41 164.16 387.86 160.03 388.93C157.03 389.7 154.03 390.44 151.03 390.99C142.005 392.629 132.752 392.541 123.76 390.73C117.95 389.57 114.39 383.73 112.51 378.09C110.751 372.783 110.008 367.192 110.32 361.61C113.782 363.677 117.847 364.499 121.84 363.94C127.84 363.16 133.33 360.08 138.75 357.32C139.355 356.95 140.042 356.737 140.75 356.7C141.228 356.746 141.695 356.874 142.13 357.08C149.24 359.93 157.05 363.01 164.37 361.85C164.61 362.93 164.82 364.11 165.03 365.43C165.66 369.53 167.44 372.54 168.56 376.12C169.41 378.71 169.78 380.8 168.88 383.41Z" fill="#263238" stroke="#263238" strokeLinecap="round" strokeLinejoin="round"/>
<path d="M155.48 334.91C155.61 334.41 156.12 323.11 158.65 317.38C161.475 314.808 163.709 311.654 165.199 308.136C166.689 304.618 167.399 300.819 167.28 297C167.241 294.999 166.643 293.048 165.555 291.368C164.466 289.687 162.93 288.344 161.12 287.49C160.232 287.084 159.294 286.798 158.33 286.64C155.93 286.26 153.33 286.25 151.33 285.01C151.51 285.26 150.66 285.01 150.54 284.69C149.159 283.549 147.688 282.522 146.14 281.62C145.58 282.23 145.46 282.96 145.05 284.56C144.81 285.51 144.46 286.77 143.85 288.51C142.8 291.51 145.04 292.97 145.18 293.8L145.33 294.7C146.821 305.284 145.522 316.073 141.56 326C138.26 321.67 134.98 302.42 134.5 295.73C134.402 295.01 134.402 294.28 134.5 293.56C134.681 293.104 134.805 292.627 134.87 292.14C134.87 290.99 134.87 290.92 133.03 288.14C132.095 286.675 131.314 285.116 130.7 283.49L130.45 282.92C126.25 286.45 116.99 289.56 111.45 291.55C113.28 291.55 114.76 295.32 115.13 297.7C115.5 300.08 118.98 318.58 118.98 331.7C118.98 333.08 118.63 339.11 118.63 339.11C113.532 345.511 110.613 353.373 110.3 361.55C113.762 363.617 117.827 364.439 121.82 363.88C127.82 363.1 133.31 360.02 138.73 357.26C139.335 356.89 140.022 356.677 140.73 356.64C141.209 356.686 141.675 356.815 142.11 357.02C149.22 359.87 157.03 362.95 164.35 361.79C162.558 354.574 160.097 347.54 157 340.78C156 338.6 155.13 336.12 155.48 334.91Z" fill="#03E5E5"/>
<mask id="mask0_181_344" style="mask-type:luminance" maskUnits="userSpaceOnUse" x="110" y="281" width="58" height="84">
<path d="M155.48 334.91C155.61 334.41 156.12 323.11 158.65 317.38C161.475 314.808 163.709 311.654 165.199 308.136C166.689 304.618 167.399 300.819 167.28 297C167.241 294.999 166.643 293.048 165.555 291.368C164.466 289.687 162.93 288.344 161.12 287.49C160.232 287.084 159.294 286.798 158.33 286.64C155.93 286.26 153.33 286.25 151.33 285.01C151.51 285.26 150.66 285.01 150.54 284.69C149.159 283.549 147.688 282.522 146.14 281.62C145.58 282.23 145.46 282.96 145.05 284.56C144.81 285.51 144.46 286.77 143.85 288.51C142.8 291.51 145.04 292.97 145.18 293.8L145.33 294.7C146.821 305.284 145.522 316.073 141.56 326C138.26 321.67 134.98 302.42 134.5 295.73C134.402 295.01 134.402 294.28 134.5 293.56C134.681 293.104 134.805 292.627 134.87 292.14C134.87 290.99 134.87 290.92 133.03 288.14C132.095 286.675 131.314 285.116 130.7 283.49L130.45 282.92C126.25 286.45 116.99 289.56 111.45 291.55C113.28 291.55 114.76 295.32 115.13 297.7C115.5 300.08 118.98 318.58 118.98 331.7C118.98 333.08 118.63 339.11 118.63 339.11C113.532 345.511 110.613 353.373 110.3 361.55C113.762 363.617 117.827 364.439 121.82 363.88C127.82 363.1 133.31 360.02 138.73 357.26C139.335 356.89 140.022 356.677 140.73 356.64C141.209 356.686 141.675 356.815 142.11 357.02C149.22 359.87 157.03 362.95 164.35 361.79C162.558 354.574 160.097 347.54 157 340.78C156 338.6 155.13 336.12 155.48 334.91Z" fill="white"/>
</mask>
<g mask="url(#mask0_181_344)">
<path opacity="0.2" d="M117.3 306.12C119.47 306.82 120.51 304.58 123.06 308.8C124.25 310.75 124.62 313.09 125.54 315.18C128.07 320.93 133.97 325.45 140.23 324.99C147.06 324.5 152.16 318.72 156.46 313.39L158 311.48C158.599 312.164 159.013 312.99 159.202 313.879C159.391 314.769 159.349 315.692 159.08 316.56C158.516 318.289 157.476 319.825 156.08 320.99C151.22 325.34 144.37 326.47 137.92 327.41L128.92 328.73C123.09 329.58 119.5 328.32 119.27 322.5C119.27 321.32 118.66 316.97 118.42 312.64C118.16 308.46 118.54 306.52 117.3 306.12Z" fill="black"/>
</g>
<path opacity="0.2" d="M164.91 320.89C164.332 321.467 163.621 321.893 162.84 322.132C162.059 322.371 161.232 322.415 160.43 322.26C160.408 323.703 160.6 325.142 161 326.53C162.247 326.519 163.473 326.203 164.57 325.61C164.949 325.428 165.289 325.173 165.57 324.86C165.878 324.455 166.103 323.992 166.23 323.5C166.829 321.715 167.166 319.852 167.23 317.97C166.19 318.15 165.71 320.11 164.91 320.89Z" fill="#03E5E5" stroke="#263238" strokeLinecap="round" strokeLinejoin="round"/>
<path d="M168.13 296.39C167.485 293.308 165.797 290.543 163.35 288.56C161.96 297.39 162.94 309.01 158.86 316.97L158.65 317.38C159.976 320.98 160.725 324.767 160.87 328.6C157.74 331.42 156.35 333.17 155.48 334.91C156.48 334.7 159.05 333.44 160.79 333.56C163.38 333.74 164.65 335 166.87 336.35C169.029 337.89 170.794 339.919 172.02 342.27C172.77 340.19 174.55 336.9 174.55 332.9C174.55 332.9 172.3 316.32 168.13 296.39Z" fill="#03E5E5"/>
<mask id="mask1_181_344" style="mask-type:luminance" maskUnits="userSpaceOnUse" x="155" y="288" width="20" height="55">
<path d="M168.13 296.39C167.485 293.308 165.797 290.543 163.35 288.56C161.96 297.39 162.94 309.01 158.86 316.97L158.65 317.38C159.976 320.98 160.725 324.767 160.87 328.6C157.74 331.42 156.35 333.17 155.48 334.91C156.48 334.7 159.05 333.44 160.79 333.56C163.38 333.74 164.65 335 166.87 336.35C169.029 337.89 170.794 339.919 172.02 342.27C172.77 340.19 174.55 336.9 174.55 332.9C174.55 332.9 172.3 316.32 168.13 296.39Z" fill="white"/>
</mask>
<g mask="url(#mask1_181_344)">
<path opacity="0.2" d="M160.33 321.83C160.545 322.795 160.692 323.774 160.77 324.76C160.9 328.34 158.59 331.49 156.39 334.31C158.139 333.524 160.075 333.246 161.975 333.51C163.874 333.773 165.661 334.567 167.13 335.8C167.27 335.956 167.455 336.065 167.66 336.11C168.38 336.19 168.33 335.02 167.96 334.4L164.96 329.24C166.523 329.182 168.071 328.909 169.56 328.43C168.578 327.505 167.321 326.925 165.98 326.78C167.98 325.84 168.67 323.29 168.36 321.12C168.05 318.95 166.97 316.97 166.28 314.89C165.43 312.31 165.18 309.56 164.42 306.96C164.268 306.173 163.843 305.464 163.22 304.96C159.19 307.82 159.55 317.49 160.33 321.83Z" fill="black"/>
</g>
<path d="M168.13 296.39C167.485 293.308 165.797 290.543 163.35 288.56C161.96 297.39 162.94 309.01 158.86 316.97L158.65 317.38C159.976 320.98 160.725 324.767 160.87 328.6C157.74 331.42 156.35 333.17 155.48 334.91C156.48 334.7 159.05 333.44 160.79 333.56C163.38 333.74 164.65 335 166.87 336.35C169.029 337.89 170.794 339.919 172.02 342.27C172.77 340.19 174.55 336.9 174.55 332.9C174.55 332.9 172.3 316.32 168.13 296.39Z" stroke="#263238" strokeLinecap="round" strokeLinejoin="round"/>
<path d="M163.35 327C165.386 326.183 167.631 326.046 169.75 326.61" stroke="#263238" strokeLinecap="round" strokeLinejoin="round"/>
<path d="M162.53 328.61C163.622 328.244 164.795 328.194 165.915 328.465C167.035 328.735 168.055 329.316 168.86 330.14" stroke="#263238" strokeLinecap="round" strokeLinejoin="round"/>
<path d="M159.43 301.15C160.843 304.281 161.312 307.756 160.78 311.15" stroke="#263238" strokeLinecap="round" strokeLinejoin="round"/>
<path d="M149.43 324.59C142.134 326.561 134.617 327.599 127.06 327.68" stroke="#263238" strokeLinecap="round" strokeLinejoin="round"/>
<path d="M132.73 337C136.476 337.565 140.304 337.176 143.86 335.87" stroke="#263238" strokeLinecap="round" strokeLinejoin="round"/>
<path d="M149 338.32C149.75 337.98 150.49 337.61 151.21 337.21" stroke="#263238" strokeLinecap="round" strokeLinejoin="round"/>
<path d="M128.57 339.61C134.735 341.473 141.342 341.256 147.37 338.99" stroke="#263238" strokeLinecap="round" strokeLinejoin="round"/>
<path d="M128.34 343.84C134.58 345.18 141.56 344.09 147.53 346.57C148.25 346.87 149.08 347.46 148.89 348.22C148.7 348.98 147.71 349.1 146.89 349.09C138.25 348.96 129.03 349.88 122.19 355.17" stroke="#263238" strokeLinecap="round" strokeLinejoin="round"/>
<path d="M123.75 342.25C124.548 342.651 125.377 342.985 126.23 343.25" stroke="#263238" strokeLinecap="round" strokeLinejoin="round"/>
<path d="M141.53 325.65C141.47 335.89 141.413 346.127 141.36 356.36" stroke="#263238" strokeLinecap="round" strokeLinejoin="round"/>
<path d="M107 437.47C107 437.47 102.13 439.77 100.64 442.16C99.1501 444.55 94.3801 452.73 93.0401 455.71C91.7001 458.69 89.3201 473.28 97.9501 472.71C106.58 472.14 104.78 462.71 106.74 458.86C108.7 455.01 119.94 435.09 107 437.47Z" fill="#263238" stroke="#263238" strokeLinecap="round" strokeLinejoin="round"/>
<path d="M114.11 443.3C114.11 443.3 112.54 443.14 111.62 449.16C110.7 455.18 109.62 455.53 109.73 456.99C109.84 458.45 109.57 462.04 113.35 464.28C117.13 466.52 119.5 468.92 124.07 461.71C126.46 457.95 123.13 445.41 121.76 443.71C118.22 439.39 114.11 443.3 114.11 443.3Z" fill="#263238" stroke="#263238" strokeLinecap="round" strokeLinejoin="round"/>
<path d="M168.39 390.14C168.14 392.689 167.331 395.15 166.02 397.35C160.38 406.62 154.3 412.35 145.89 419.65C141.57 423.39 136.95 426.78 132.75 430.65C127.91 435.11 123.4 440.9 123.75 447.47C123.87 449.89 124.42 453.6 121.61 453.78C110.68 454.47 112.26 448.46 112.55 446.52C112.972 444.59 113.756 442.758 114.86 441.12C118.86 434.35 122.77 427.59 127.04 421.02C132.86 412.02 139.25 403.44 144.7 394.23C146.567 391.424 147.921 388.309 148.7 385.03C149.29 381.72 149.04 377.4 146.7 374.95C146.82 374.28 149.42 371.58 152.08 368.71C153.9 367.8 155.73 366.01 157.6 362.83C162.121 365.476 165.477 369.729 167 374.74C167.11 375.08 167.22 375.42 167.32 375.74C167.42 376.06 167.51 376.42 167.6 376.74C167.6 376.88 167.67 377.02 167.7 377.16C167.73 377.3 167.83 377.69 167.88 377.96C168.04 378.7 168.17 379.45 168.27 380.2C168.27 380.45 168.35 380.71 168.37 380.96C168.45 381.58 168.51 382.2 168.55 382.84C168.689 385.274 168.635 387.715 168.39 390.14Z" fill="white" stroke="#263238" strokeLinecap="round" strokeLinejoin="round"/>
<path d="M121.7 379.63C121.81 381.497 122.473 383.289 123.603 384.78C124.734 386.27 126.282 387.391 128.05 388C123.5 393.49 117.87 405.72 114.37 415.59C111.84 422.71 108.46 431.51 104.37 437.12C101.809 440.659 99.4971 444.371 97.4501 448.23C96.8901 449.23 96.3701 450.23 95.9801 450.8C94.4101 453.15 92.2501 461.93 96.9801 463.03C101.71 464.13 109.35 451.78 111.16 446.37C111.408 445.522 111.708 444.69 112.06 443.88C112.757 442.661 113.532 441.489 114.38 440.37C115.38 438.8 117.59 435.04 118.57 433.46C130.49 414.35 137.09 411.52 146.02 396.12C148.59 391.69 150.58 388.12 151.19 385.73C152.54 380.48 150.19 378.08 146.49 373.38C143.13 369.13 138.83 365.94 133.49 366.79C133.49 366.79 121.36 368.36 121.7 379.63Z" fill="white" stroke="#263238" strokeLinecap="round" strokeLinejoin="round"/>
<path d="M144.71 395.27C147.443 392.515 149.646 389.281 151.21 385.73" stroke="#263238" strokeLinecap="round" strokeLinejoin="round"/>
<path d="M141.44 398.19C142.13 397.63 142.86 397.03 143.59 396.36" stroke="#263238" strokeLinecap="round" strokeLinejoin="round"/>
<path d="M161.45 399.86C162.559 399.756 163.608 399.309 164.45 398.58C165.393 397.787 166.194 396.841 166.82 395.78" fill="#5C5C5C"/>
<path d="M161.45 399.86C162.559 399.756 163.608 399.309 164.45 398.58C165.393 397.787 166.194 396.841 166.82 395.78" stroke="#263238" strokeLinecap="round" strokeLinejoin="round"/>
<path d="M168.88 383.41C168.78 383.724 168.652 384.028 168.5 384.32C168.5 383.65 168.4 382.98 168.32 382.32C168.32 382.04 168.25 381.77 168.21 381.5C168.1 380.69 167.96 379.89 167.78 379.09C167.73 378.81 167.66 378.52 167.59 378.24C167.52 377.96 167.52 377.94 167.48 377.79C167.39 377.42 167.29 377.05 167.18 376.69C167.07 376.33 166.96 375.96 166.84 375.6C165.02 370.21 161.76 365.6 156.78 362.83C154.78 366.24 152.78 368.16 150.85 369.14C144.69 372.22 138.56 365.93 130.96 367.08C130.96 367.08 117.96 368.76 118.32 380.84C118.431 382.846 119.137 384.774 120.348 386.376C121.559 387.979 123.221 389.185 125.12 389.84C124.86 390.15 124.59 390.49 124.32 390.84L123.77 390.74C117.96 389.58 114.4 383.74 112.52 378.1C110.761 372.793 110.018 367.202 110.33 361.62C113.792 363.687 117.857 364.509 121.85 363.95C127.85 363.17 133.34 360.09 138.76 357.33C139.365 356.96 140.052 356.747 140.76 356.71C141.238 356.756 141.705 356.885 142.14 357.09C149.25 359.94 157.06 363.02 164.38 361.86C164.62 362.94 164.83 364.12 165.04 365.44C165.67 369.54 167.45 372.55 168.57 376.13C169.41 378.71 169.78 380.8 168.88 383.41Z" fill="#263238" stroke="#263238" strokeLinecap="round" strokeLinejoin="round"/>
<path d="M141.56 326C138.26 321.67 134.98 302.41 134.49 295.72C134.88 296.33 135.28 296.94 135.7 297.54C137.673 300.225 139.444 303.053 141 306C142.785 302.369 144.225 298.579 145.3 294.68C146.803 305.267 145.513 316.064 141.56 326Z" fill="#263238" stroke="#263238" strokeLinecap="round" strokeLinejoin="round"/>
<path d="M171.75 343.36C171.22 343.937 170.538 344.351 169.783 344.557C169.027 344.762 168.229 344.749 167.48 344.52C167.19 344.42 166.89 344.32 166.61 344.21C159.9 341.83 157.49 338.7 156.61 336.73C156.324 336.138 156.158 335.496 156.12 334.84C157.027 334.106 158.136 333.666 159.3 333.58C163.4 333.24 168.12 336.82 170.46 339.8C171.69 341.37 172.25 342.77 171.75 343.36Z" fill="#263238" stroke="#263238" strokeLinecap="round" strokeLinejoin="round"/>
<path d="M145.29 294.72C144.215 298.606 142.779 302.382 141 306C139.448 303.053 137.679 300.226 135.71 297.54C135.29 296.94 134.89 296.33 134.5 295.72C134.413 294.999 134.413 294.271 134.5 293.55C134.689 293.096 134.817 292.618 134.88 292.13C134.88 290.98 134.88 290.9 133.04 288.13C132.109 286.666 131.329 285.111 130.71 283.49C131.01 280.69 129 277.04 130.01 277.12C130.761 277.917 131.631 278.591 132.59 279.12C134.628 280.128 136.806 280.826 139.05 281.19C139.816 281.498 140.659 281.558 141.46 281.36C141.712 281.282 141.954 281.175 142.18 281.04C142.637 280.761 143.057 280.425 143.43 280.04L143.52 279.94C143.73 279.75 143.99 279.4 143.9 280.66C143.71 283.57 144.36 284.41 145.02 284.57C144.78 285.52 144.43 286.78 143.83 288.52C142.77 291.52 145.01 292.98 145.15 293.82L145.29 294.72Z" fill="white" stroke="#263238" strokeLinecap="round" strokeLinejoin="round"/>
<path d="M138.92 284.26C141.85 284.77 144.5 277.97 143.92 277.18C143.663 276.907 143.353 276.69 143.009 276.54C142.665 276.391 142.295 276.312 141.92 276.31C139.58 276.07 137.31 276.86 134.98 276.92C133.845 276.925 132.719 276.718 131.66 276.31C130.5 275.92 129.82 275.6 130.06 277.08C130.57 280.55 135.83 283.73 138.92 284.26Z" fill="#263238" stroke="#263238" strokeLinecap="round" strokeLinejoin="round"/>
<path d="M139.31 245.77C139.184 244.956 138.826 244.196 138.277 243.582C137.729 242.968 137.014 242.526 136.22 242.31C134.571 241.853 132.818 241.937 131.22 242.55C125.48 244.5 122.22 250.17 120.22 255.55C118.22 260.93 116.72 266.83 112.54 271.02C110.92 272.64 108.75 274.52 109.45 276.65C109.711 277.253 110.125 277.779 110.651 278.173C111.178 278.568 111.798 278.818 112.45 278.9C113.782 279.074 115.135 279.023 116.45 278.75C116.187 278.914 115.962 279.131 115.79 279.388C115.617 279.645 115.501 279.936 115.449 280.241C115.397 280.546 115.41 280.859 115.488 281.159C115.566 281.459 115.706 281.738 115.9 281.98C116.359 282.433 116.974 282.694 117.619 282.709C118.264 282.724 118.891 282.492 119.37 282.06C119.152 282.262 118.979 282.508 118.863 282.782C118.748 283.055 118.692 283.351 118.699 283.648C118.707 283.945 118.778 284.237 118.907 284.505C119.037 284.773 119.222 285.009 119.45 285.2C120.451 285.981 121.718 286.339 122.98 286.2C125.763 285.979 128.402 284.871 130.51 283.04C132.54 281.249 134.274 279.15 135.65 276.82C138.57 272.388 140.585 267.423 141.58 262.21C142.55 256.994 141.802 251.605 139.45 246.85L139.31 245.77Z" fill="#263238" stroke="#263238" strokeLinecap="round" strokeLinejoin="round"/>
<path d="M147.26 271.35C147.26 271.72 147.18 272.08 147.12 272.45C146.74 275.486 145.422 278.328 143.35 280.58C143.325 280.617 143.294 280.651 143.26 280.68C142.884 281.069 142.457 281.405 141.99 281.68C141.86 281.761 141.723 281.832 141.58 281.89C141.475 281.945 141.364 281.989 141.25 282.02C140.431 282.214 139.572 282.151 138.79 281.84C136.52 281.38 130.31 278.52 129.56 277.72C128.72 276.84 127.56 273.91 127.24 273.72C126.848 273.509 126.402 273.422 125.96 273.47C125.688 273.456 125.419 273.406 125.16 273.32C125.16 273.07 125.16 272.82 125.11 272.57C125.08 272.134 125.08 271.696 125.11 271.26C125.19 269.43 127.19 267.69 128.47 266.38C130.424 264.334 131.897 261.877 132.78 259.19C133.45 257.19 133.78 255.03 134.78 253.19C135.181 252.346 135.778 251.61 136.52 251.043C137.263 250.476 138.13 250.094 139.05 249.93H139.19H139.59C142.481 252.726 144.736 256.113 146.2 259.86C146.2 259.96 146.25 260.07 146.27 260.17C146.34 260.47 146.4 260.78 146.46 261.08C147.206 264.449 147.476 267.906 147.26 271.35Z" fill="white" stroke="#263238" strokeLinecap="round" strokeLinejoin="round"/>
<path d="M139 249.88C138.08 250.044 137.213 250.426 136.47 250.993C135.727 251.56 135.131 252.296 134.73 253.14C133.73 255.01 133.4 257.14 132.73 259.14C131.847 261.828 130.374 264.284 128.42 266.33C127.14 267.64 125.14 269.38 125.06 271.21C125.03 271.646 125.03 272.084 125.06 272.52C125.06 272.77 125.06 273.02 125.11 273.27C124.903 273.2 124.703 273.113 124.51 273.01C124.51 272.56 124.51 272.11 124.51 271.67C124.59 269.79 126.64 268.01 127.94 266.67C129.936 264.58 131.442 262.073 132.35 259.33C133.03 257.26 133.35 255.08 134.35 253.16C134.782 252.263 135.436 251.49 136.249 250.916C137.063 250.342 138.01 249.986 139 249.88Z" fill="white" stroke="#263238" strokeLinecap="round" strokeLinejoin="round"/>
<path d="M139.56 270.71C140.077 270.942 140.654 271.008 141.21 270.9C142.16 270.69 143.04 269.29 142.05 268.8C141.382 268.368 140.87 267.734 140.59 266.99" stroke="#263238" strokeLinecap="round" strokeLinejoin="round"/>
<path d="M136.15 274.47C138.99 276.59 141.24 275.41 141.24 275.41" stroke="#263238" strokeLinecap="round" strokeLinejoin="round"/>
<path d="M143.09 263.67C143.55 263.67 143.96 264.41 144.01 265.29C144.06 266.17 143.73 266.97 143.27 266.99C142.81 267.01 142.4 266.29 142.35 265.38C142.3 264.47 142.63 263.69 143.09 263.67Z" fill="#263238"/>
<path d="M134.8 263.81C135.26 263.81 135.68 264.56 135.72 265.43C135.76 266.3 135.45 267.11 134.98 267.14C134.51 267.17 134.11 266.44 134.07 265.52C134.03 264.6 134.35 263.84 134.8 263.81Z" fill="#263238"/>
<path d="M141.85 260H141.91C142.23 259.756 142.595 259.579 142.984 259.479C143.373 259.379 143.778 259.358 144.176 259.418C144.573 259.478 144.954 259.617 145.297 259.826C145.639 260.036 145.936 260.313 146.17 260.64" stroke="#263238" strokeLinecap="round" strokeLinejoin="round"/>
<path d="M132.43 260.79C135.43 258.2 137.7 260.26 137.7 260.26" stroke="#263238" strokeLinecap="round" strokeLinejoin="round"/>
<path d="M105.38 343C105.908 343.576 106.588 343.991 107.342 344.197C108.096 344.402 108.893 344.389 109.64 344.16C109.94 344.06 110.24 343.96 110.52 343.85C117.22 341.47 119.64 338.34 120.52 336.37C120.811 335.78 120.978 335.137 121.01 334.48C120.104 333.744 118.994 333.304 117.83 333.22C113.74 332.88 109.02 336.46 106.68 339.44C105.44 341 104.87 342.36 105.38 343Z" fill="#263238" stroke="#263238" strokeLinecap="round" strokeLinejoin="round"/>
<path d="M116.26 328.19C116.405 324.367 117.15 320.59 118.47 317L117.47 297.27C117.376 295.754 116.711 294.33 115.609 293.285C114.507 292.24 113.049 291.652 111.53 291.64C106.59 310.1 102.53 313.64 102.63 332.52C102.63 336.52 104.41 339.81 105.15 341.89C106.374 339.534 108.143 337.504 110.31 335.97C112.53 334.62 113.79 333.36 116.38 333.18C118.13 333.06 120.7 334.32 121.7 334.53C120.77 332.76 119.39 331 116.26 328.19Z" fill="#03E5E5"/>
<mask id="mask2_181_344" style="mask-type:luminance" maskUnits="userSpaceOnUse" x="102" y="291" width="20" height="51">
<path d="M116.26 328.19C116.405 324.367 117.15 320.59 118.47 317L117.47 297.27C117.376 295.754 116.711 294.33 115.609 293.285C114.507 292.24 113.049 291.652 111.53 291.64C106.59 310.1 102.53 313.64 102.63 332.52C102.63 336.52 104.41 339.81 105.15 341.89C106.374 339.534 108.143 337.504 110.31 335.97C112.53 334.62 113.79 333.36 116.38 333.18C118.13 333.06 120.7 334.32 121.7 334.53C120.77 332.76 119.39 331 116.26 328.19Z" fill="white"/>
</mask>
<g mask="url(#mask2_181_344)">
<path opacity="0.2" d="M109.42 321.329C109.42 322.329 109.28 323.6 108.42 324.13C107.772 324.364 107.102 324.531 106.42 324.63C105.77 324.85 105.25 325.75 105.77 326.2C106.477 326.218 107.166 326.422 107.77 326.79C108.061 326.977 108.273 327.265 108.365 327.599C108.457 327.933 108.424 328.289 108.27 328.6C107.89 329.2 106.86 329.599 107.14 330.249L110.52 328.929C110.646 329.974 110.417 331.031 109.87 331.929C113.53 334.399 118.34 334.019 122.72 333.549C120.84 331.676 118.957 329.81 117.07 327.95C116.827 327.734 116.624 327.476 116.47 327.19C116.254 326.462 116.333 325.679 116.69 325.01C117.87 321.8 121.86 308.229 117.36 306.149C112.19 303.759 109.56 318.539 109.42 321.329Z" fill="black"/>
</g>
<path d="M111.48 291.61C106.54 310.07 102.48 313.61 102.58 332.49C102.58 336.49 104.36 339.78 105.1 341.86C106.324 339.504 108.093 337.474 110.26 335.94C112.48 334.59 113.74 333.33 116.33 333.15C118.08 333.03 120.65 334.29 121.65 334.5C120.77 332.76 119.39 331.01 116.26 328.19C116.405 324.367 117.15 320.591 118.47 317" stroke="#263238" strokeLinecap="round" strokeLinejoin="round"/>
<path d="M158.65 317.38C156.12 323.11 155.65 334.38 155.48 334.91C155.13 336.12 155.98 338.6 157.04 340.78C160.148 347.558 162.615 354.612 164.41 361.85C157.09 363.01 149.28 359.93 142.17 357.08C141.735 356.875 141.269 356.746 140.79 356.7C140.082 356.737 139.395 356.95 138.79 357.32C133.37 360.08 127.92 363.16 121.88 363.94C117.887 364.499 113.822 363.677 110.36 361.61C110.673 353.433 113.592 345.57 118.69 339.17C118.69 339.17 118.95 333.17 119.04 331.76C120.32 312.34 115.56 300.19 115.19 297.76C114.82 295.33 113.34 291.61 111.51 291.61C117.02 289.61 126.28 286.51 130.51 282.98L130.76 283.55C131.346 285.172 132.096 286.731 133 288.2C134.86 290.95 134.87 291.02 134.84 292.2C134.775 292.687 134.651 293.163 134.47 293.62C134.372 294.34 134.372 295.07 134.47 295.79C134.95 302.48 138.23 321.73 141.53 326.06C145.48 316.126 146.766 305.333 145.26 294.75L145.11 293.85C144.97 293.02 142.73 291.59 143.78 288.56C144.39 286.82 144.78 285.56 144.98 284.61C145.39 283.01 145.51 282.28 146.07 281.67C147.618 282.572 149.089 283.599 150.47 284.74C150.59 285.03 151.47 285.31 151.26 285.06C153.35 286.3 155.9 286.31 158.26 286.69C159.75 286.944 161.176 287.484 162.46 288.28" stroke="#263238" strokeLinecap="round" strokeLinejoin="round"/>
<path d="M142.88 355.89C143.715 356.784 144.628 357.6 145.61 358.33C146.72 358.96 148.33 359.42 148.38 360.71C148.376 361.061 148.283 361.405 148.11 361.71C147.576 362.546 146.817 363.214 145.92 363.639C145.023 364.063 144.025 364.227 143.04 364.11C141.075 363.85 139.181 363.201 137.47 362.2C133.621 360.331 129.873 358.261 126.24 356C123.24 354.08 120.33 351.94 117.49 349.74C115.039 347.907 112.701 345.927 110.49 343.81C109.084 342.452 107.796 340.976 106.64 339.4C108.98 336.4 113.7 332.84 117.79 333.18L118.07 333.48C118.91 334.4 119.71 335.35 120.48 336.33C121.48 337.55 122.35 338.8 123.22 340.1C124.09 341.4 124.94 342.81 125.83 344.15C127.516 346.69 129.398 349.094 131.46 351.34C131.797 351.727 132.187 352.064 132.62 352.34C133.229 352.629 133.887 352.802 134.56 352.85L142.88 355.89Z" fill="white" stroke="#263238" strokeLinecap="round" strokeLinejoin="round"/>
<path opacity="0.2" d="M112.23 338.62L109.92 342.18C109.79 342.38 109.61 342.61 109.37 342.58C109.222 342.553 109.09 342.471 109 342.35C107.948 341.229 107.135 339.905 106.61 338.46C108.16 336.46 111.04 333.82 113.69 333.46C117.89 332.85 113.19 337.14 112.23 338.62Z" fill="black"/>
<path d="M159.3 333.58L159.03 333.88C158.19 334.8 157.38 335.76 156.61 336.73C155.61 337.95 154.74 339.2 153.88 340.5C153.02 341.8 152.16 343.21 151.27 344.55C149.581 347.091 147.695 349.495 145.63 351.74C145.298 352.132 144.907 352.469 144.47 352.74C143.862 353.032 143.203 353.205 142.53 353.25C139.58 353.66 136.53 354.31 134.25 356.25C133.414 357.147 132.497 357.964 131.51 358.69C130.4 359.32 128.8 359.78 128.75 361.07C128.744 361.422 128.838 361.769 129.02 362.07C129.553 362.905 130.31 363.573 131.205 363.998C132.1 364.422 133.096 364.586 134.08 364.47C136.049 364.212 137.946 363.563 139.66 362.56C143.508 360.689 147.256 358.619 150.89 356.36C153.89 354.44 156.8 352.3 159.63 350.1C162.083 348.269 164.421 346.289 166.63 344.17C168.036 342.812 169.324 341.337 170.48 339.76C168.12 336.82 163.4 333.24 159.3 333.58Z" fill="white"/>
<mask id="mask3_181_344" style="mask-type:luminance" maskUnits="userSpaceOnUse" x="128" y="333" width="43" height="32">
<path d="M159.3 333.58L159.03 333.88C158.19 334.8 157.38 335.76 156.61 336.73C155.61 337.95 154.74 339.2 153.88 340.5C153.02 341.8 152.16 343.21 151.27 344.55C149.581 347.091 147.695 349.495 145.63 351.74C145.298 352.132 144.907 352.469 144.47 352.74C143.862 353.032 143.203 353.205 142.53 353.25C139.58 353.66 136.53 354.31 134.25 356.25C133.414 357.147 132.497 357.964 131.51 358.69C130.4 359.32 128.8 359.78 128.75 361.07C128.744 361.422 128.838 361.769 129.02 362.07C129.553 362.905 130.31 363.573 131.205 363.998C132.1 364.422 133.096 364.586 134.08 364.47C136.049 364.212 137.946 363.563 139.66 362.56C143.508 360.689 147.256 358.619 150.89 356.36C153.89 354.44 156.8 352.3 159.63 350.1C162.083 348.269 164.421 346.289 166.63 344.17C168.036 342.812 169.324 341.337 170.48 339.76C168.12 336.82 163.4 333.24 159.3 333.58Z" fill="white"/>
</mask>
<g mask="url(#mask3_181_344)">
<path opacity="0.2" d="M164.9 339L167.2 342.56C167.33 342.76 167.52 342.99 167.76 342.96C167.906 342.928 168.037 342.847 168.13 342.73C169.185 341.613 169.995 340.288 170.51 338.84C168.97 336.84 166.09 334.2 163.43 333.84C159.23 333.26 163.94 337.55 164.9 339Z" fill="black"/>
</g>
<path d="M159.3 333.58L159.03 333.88C158.19 334.8 157.38 335.76 156.61 336.73C155.61 337.95 154.74 339.2 153.88 340.5C153.02 341.8 152.16 343.21 151.27 344.55C149.581 347.091 147.695 349.495 145.63 351.74C145.298 352.132 144.907 352.469 144.47 352.74C143.862 353.032 143.203 353.205 142.53 353.25C139.58 353.66 136.53 354.31 134.25 356.25C133.414 357.147 132.497 357.964 131.51 358.69C130.4 359.32 128.8 359.78 128.75 361.07C128.744 361.422 128.838 361.769 129.02 362.07C129.553 362.905 130.31 363.573 131.205 363.998C132.1 364.422 133.096 364.586 134.08 364.47C136.049 364.212 137.946 363.563 139.66 362.56C143.508 360.689 147.256 358.619 150.89 356.36C153.89 354.44 156.8 352.3 159.63 350.1C162.083 348.269 164.421 346.289 166.63 344.17C168.036 342.812 169.324 341.337 170.48 339.76C168.12 336.82 163.4 333.24 159.3 333.58Z" stroke="#263238" strokeLinecap="round" strokeLinejoin="round"/>
<path d="M113.78 326.57C111.745 325.753 109.5 325.616 107.38 326.18Z" fill="#03E5E5"/>
<path d="M113.78 326.57C111.745 325.753 109.5 325.616 107.38 326.18" stroke="#263238" strokeLinecap="round" strokeLinejoin="round"/>
<path d="M114.6 328.2C113.506 327.834 112.331 327.783 111.21 328.054C110.089 328.324 109.066 328.905 108.26 329.73" stroke="#263238" strokeLinecap="round" strokeLinejoin="round"/>
<path d="M136.71 247.71C134.88 247.487 133.031 247.922 131.492 248.937C129.953 249.951 128.825 251.48 128.31 253.25C127.9 254.86 128.01 256.6 127.31 258.12C126.48 259.99 124.64 261.17 123.31 262.68C122.069 264.057 121.193 265.723 120.762 267.526C120.33 269.328 120.357 271.21 120.84 273C121.2 274.3 121.84 275.66 121.42 277C121.195 277.658 120.734 278.209 120.127 278.547C119.519 278.885 118.808 278.986 118.13 278.83" stroke="#BFBFBF" strokeWidth="0.75" strokeLinecap="round" strokeLinejoin="round"/>
<path d="M118.53 266.89C117.844 267.562 117.249 268.322 116.76 269.15C116.264 269.983 116.11 270.975 116.33 271.92C116.46 272.39 116.72 272.82 116.83 273.29C116.89 273.654 116.868 274.026 116.765 274.381C116.663 274.735 116.482 275.062 116.236 275.337C115.991 275.612 115.687 275.829 115.347 275.971C115.006 276.114 114.638 276.178 114.27 276.16" stroke="#BFBFBF" strokeWidth="0.75" strokeLinecap="round" strokeLinejoin="round"/>
<path d="M125.22 276.93C125.524 277.42 125.688 277.984 125.692 278.561C125.697 279.138 125.543 279.705 125.246 280.2C124.95 280.695 124.522 281.099 124.011 281.367C123.501 281.635 122.926 281.757 122.35 281.72C123.12 281.72 123.64 282.56 123.63 283.32C123.642 283.577 123.589 283.833 123.475 284.064C123.362 284.294 123.191 284.493 122.98 284.64C122.873 284.704 122.752 284.744 122.627 284.755C122.502 284.765 122.376 284.747 122.26 284.702C122.143 284.657 122.038 284.585 121.953 284.493C121.868 284.4 121.806 284.29 121.77 284.17" stroke="#BFBFBF" strokeWidth="0.75" strokeLinecap="round" strokeLinejoin="round"/>
<path d="M127.29 281.32C127.441 281.561 127.521 281.841 127.52 282.126C127.519 282.41 127.437 282.689 127.285 282.93C127.132 283.17 126.914 283.363 126.657 283.485C126.4 283.607 126.113 283.654 125.83 283.62" stroke="#BFBFBF" strokeWidth="0.75" strokeLinecap="round" strokeLinejoin="round"/>
<path d="M149.86 273.86C149.805 274.212 149.856 274.573 150.005 274.897C150.155 275.221 150.396 275.493 150.7 275.68C151.009 275.855 151.363 275.937 151.718 275.916C152.073 275.895 152.414 275.771 152.7 275.56C152.666 275.522 152.625 275.491 152.578 275.47C152.532 275.449 152.481 275.438 152.43 275.438C152.379 275.438 152.328 275.449 152.282 275.47C152.235 275.491 152.194 275.522 152.16 275.56C152.095 275.638 152.049 275.73 152.024 275.829C152 275.927 151.999 276.03 152.02 276.13C152.079 276.332 152.192 276.514 152.347 276.656C152.502 276.798 152.693 276.895 152.899 276.936C153.105 276.978 153.319 276.961 153.516 276.89C153.714 276.818 153.888 276.694 154.02 276.53" stroke="#BFBFBF" strokeWidth="0.75" strokeLinecap="round" strokeLinejoin="round"/>
<path d="M147.27 277.74C147.693 278.404 148.331 278.901 149.078 279.149C149.825 279.397 150.634 279.379 151.37 279.1" stroke="#BFBFBF" strokeWidth="0.75" strokeLinecap="round" strokeLinejoin="round"/>
<path d="M142.4 249.18C142.723 248.849 143.151 248.64 143.61 248.589C144.069 248.538 144.532 248.648 144.92 248.9C145.677 249.435 146.297 250.141 146.73 250.96C147.248 251.7 147.646 252.516 147.91 253.38C148.67 256.53 145.75 259.67 146.37 262.85C146.456 263.416 146.735 263.936 147.16 264.32" stroke="#BFBFBF" strokeWidth="0.75" strokeLinecap="round" strokeLinejoin="round"/>
<path d="M162.92 376.63H118C117.901 376.631 117.802 376.613 117.71 376.576C117.618 376.539 117.534 376.484 117.463 376.414C117.393 376.344 117.336 376.261 117.298 376.169C117.26 376.078 117.24 375.979 117.24 375.88C117.24 375.681 117.319 375.49 117.46 375.35C117.6 375.209 117.791 375.13 117.99 375.13H162.99C163.187 375.13 163.377 375.208 163.517 375.346C163.657 375.485 163.737 375.673 163.74 375.87C163.74 376.068 163.663 376.258 163.525 376.4C163.386 376.542 163.198 376.625 163 376.63H162.92Z" fill="#BFBFBF" stroke="#263238" strokeLinecap="round" strokeLinejoin="round"/>
<path d="M163.3 375.11H117.57C117.402 375.108 117.242 375.043 117.119 374.928C116.997 374.813 116.923 374.657 116.91 374.49L114.43 344.62C114.419 344.534 114.425 344.447 114.447 344.364C114.47 344.281 114.509 344.203 114.562 344.135C114.615 344.067 114.681 344.011 114.756 343.969C114.832 343.926 114.914 343.9 115 343.89H165.79C165.963 343.89 166.13 343.958 166.253 344.079C166.377 344.201 166.447 344.366 166.45 344.54V344.63L164 374.49C163.995 374.576 163.973 374.661 163.935 374.739C163.897 374.818 163.844 374.887 163.779 374.945C163.714 375.003 163.638 375.047 163.556 375.075C163.474 375.103 163.387 375.115 163.3 375.11Z" fill="#BFBFBF" stroke="#263238" strokeLinecap="round" strokeLinejoin="round"/>
<path d="M144.69 359.73C144.69 360.521 144.455 361.294 144.016 361.952C143.576 362.61 142.952 363.123 142.221 363.425C141.49 363.728 140.686 363.807 139.91 363.653C139.134 363.499 138.421 363.118 137.862 362.558C137.302 361.999 136.921 361.286 136.767 360.51C136.613 359.734 136.692 358.93 136.995 358.199C137.297 357.468 137.81 356.844 138.468 356.404C139.126 355.965 139.899 355.73 140.69 355.73C141.751 355.73 142.768 356.151 143.518 356.902C144.269 357.652 144.69 358.669 144.69 359.73Z" fill="white" stroke="#263238" strokeLinecap="round" strokeLinejoin="round"/>
<path d="M335.65 447.62L333.14 455.93L331.76 459.58C331.213 460.95 331.045 462.441 331.274 463.898C331.503 465.355 332.12 466.724 333.06 467.86C333.683 468.608 334.494 469.178 335.41 469.51C339.22 470.81 342.6 462.51 342.6 462.51C342.6 462.51 342.6 457.05 343.95 453.89C345.3 450.73 348.46 445.1 345.76 443.3C343.06 441.5 338.16 439.3 335.65 447.62Z" fill="white" stroke="#263238" strokeLinecap="round" strokeLinejoin="round"/>
<path d="M428.31 219.2C426.48 214 425 210 425 210C425 210 424.71 203.05 424.46 201.88C424.21 200.71 424.51 200.03 423.36 199.67C422.21 199.31 413.73 200.26 413.73 200.26C413.73 200.26 412.12 201.35 412.37 202.52C412.37 202.52 412.37 206.79 413.84 207.85C415.31 208.91 420.67 212.62 420.84 213.34C420.9 213.63 421.43 217.19 422.05 221.34L428.31 219.2Z" fill="white" stroke="#263238" strokeLinecap="round" strokeLinejoin="round"/>
<path d="M426.12 201.87L411.12 203.46L410.24 199.85C410.199 199.681 410.226 199.504 410.316 199.355C410.406 199.207 410.552 199.101 410.72 199.06C410.888 199.019 411.066 199.046 411.214 199.136C411.363 199.226 411.469 199.371 411.51 199.54L412.13 202.07L424.64 200.75L424.14 197.75C424.097 197.595 424.112 197.431 424.183 197.287C424.254 197.143 424.376 197.031 424.525 196.971C424.673 196.912 424.839 196.909 424.989 196.964C425.14 197.02 425.265 197.128 425.34 197.27C425.377 197.355 425.394 197.447 425.39 197.54L426.12 201.87Z" fill="#263238"/>
<path d="M416.74 201.93L415.11 202.47" stroke="#263238" strokeLinecap="round" strokeLinejoin="round"/>
<path d="M403.87 201.16L447.97 196.71L435.55 166.73L400.8 194.28L403.87 201.16Z" fill="#FFAB03" stroke="#263238" strokeLinecap="round" strokeLinejoin="round"/>
<path d="M396.27 200.41C396.063 199.958 395.949 199.469 395.933 198.971C395.916 198.474 395.999 197.978 396.176 197.513C396.352 197.048 396.62 196.623 396.962 196.262C397.304 195.901 397.715 195.611 398.17 195.41L400.79 194.24L403.86 201.09L401.23 202.26C400.327 202.671 399.297 202.707 398.368 202.36C397.438 202.013 396.684 201.312 396.27 200.41Z" fill="#FFAB03" stroke="#263238" strokeLinecap="round" strokeLinejoin="round"/>
<path d="M431.6 169.37C432.233 168.369 433.156 167.585 434.245 167.12C435.335 166.656 436.54 166.534 437.7 166.77C441.11 167.46 446.46 170.85 449.46 177.01C455.71 189.84 450.78 196.17 447.76 196.76C436.57 199 425.28 179.45 431.6 169.37Z" fill="#263238" stroke="#263238" strokeLinecap="round" strokeLinejoin="round"/>
<path d="M442.82 184.76L434.69 190C434.69 190 430.28 184.94 430.09 179.61L441.39 178.49C441.39 178.49 440.48 181.12 442.82 184.76Z" fill="#FFAB03" stroke="#263238" strokeLinecap="round" strokeLinejoin="round"/>
<path d="M439.81 182.16C440.2 183.89 441.55 185.05 442.81 184.76C444.07 184.47 444.81 182.84 444.4 181.11C443.99 179.38 442.65 178.23 441.4 178.52C440.15 178.81 439.42 180.44 439.81 182.16Z" fill="white" stroke="#263238" strokeLinecap="round" strokeLinejoin="round"/>
<path d="M414.29 204.08L423.5 202.99L423.39 199.65L413.75 200.22L414.29 204.08Z" fill="white" stroke="#263238" strokeLinecap="round" strokeLinejoin="round"/>
<path d="M412.77 204.87C412.77 204.87 411.98 201.22 412.36 200.87C412.74 200.52 419.09 199.55 419.28 200.43C419.47 201.31 419.57 201.74 418.84 201.89C418.11 202.04 416.71 202.51 416.71 202.51C416.71 202.51 420.71 204.84 420.31 207.83" fill="white"/>
<path d="M412.77 204.87C412.77 204.87 411.98 201.22 412.36 200.87C412.74 200.52 419.09 199.55 419.28 200.43C419.47 201.31 419.57 201.74 418.84 201.89C418.11 202.04 416.71 202.51 416.71 202.51C416.71 202.51 420.71 204.84 420.31 207.83" stroke="#263238" strokeLinecap="round" strokeLinejoin="round"/>
<path d="M419.64 202.22L417.72 202.55" stroke="#263238" strokeLinecap="round" strokeLinejoin="round"/>
<path d="M418.68 213.21L428.31 210.58C428.31 210.58 439.72 243.86 439.71 247.9C439.71 255.2 437.82 257.48 434.39 257.46C433.89 257.46 410.67 250.4 404.39 249.53C387.07 247.13 388.81 223.08 388.81 223.08C388.81 223.08 407.87 230.6 413.58 233.08C417.421 234.718 421.413 235.974 425.5 236.83L418.68 213.21Z" fill="#FFAB03"/>
<mask id="mask4_181_344" style="mask-type:luminance" maskUnits="userSpaceOnUse" x="388" y="210" width="52" height="48">
<path d="M418.68 213.21L428.31 210.58C428.31 210.58 439.72 243.86 439.71 247.9C439.71 255.2 437.82 257.48 434.39 257.46C433.89 257.46 410.67 250.4 404.39 249.53C387.07 247.13 388.81 223.08 388.81 223.08C388.81 223.08 407.87 230.6 413.58 233.08C417.421 234.718 421.413 235.974 425.5 236.83L418.68 213.21Z" fill="white"/>
</mask>
<g mask="url(#mask4_181_344)">
<path opacity="0.2" d="M438.79 215C435.29 219.5 428.9 238.58 427.2 240.48C424.96 242.98 424.42 249.14 424.42 249.14C424.239 249.64 423.87 250.049 423.393 250.282C422.915 250.516 422.366 250.554 421.86 250.39C419.95 249.87 416.18 247.47 414.7 247.54C413.22 247.61 394.65 233.12 394.65 233.12L394.16 234.04C398.28 241.38 392.83 247.4 396.16 248.49C402.16 250.49 435.44 258.11 435.65 257.64C435.86 257.17 436.12 255.64 437.07 251.79C437.76 248.64 438.43 221.73 438.79 215Z" fill="black"/>
</g>
<path d="M418.68 213.21L428.31 210.58C428.31 210.58 439.72 243.86 439.71 247.9C439.71 255.2 437.82 257.48 434.39 257.46C433.89 257.46 410.67 250.4 404.39 249.53C387.07 247.13 388.81 223.08 388.81 223.08C388.81 223.08 407.87 230.6 413.58 233.08C417.421 234.718 421.413 235.974 425.5 236.83L418.68 213.21Z" stroke="#263238" strokeLinecap="round" strokeLinejoin="round"/>
<path d="M423.28 246.65C423.814 248.264 424.71 249.735 425.9 250.95" stroke="#263238" strokeLinecap="round" strokeLinejoin="round"/>
<path d="M425.45 236.53C423.614 238.928 422.757 241.934 423.05 244.94" stroke="#263238" strokeLinecap="round" strokeLinejoin="round"/>
<path d="M347.1 232.32C349.277 236.137 350.521 240.415 350.731 244.805C350.942 249.194 350.112 253.572 348.31 257.58" stroke="#263238" strokeLinecap="round" strokeLinejoin="round"/>
<path d="M361.6 279.48C371.134 281.821 381.011 282.43 390.76 281.28" stroke="#263238" strokeLinecap="round" strokeLinejoin="round"/>
<path d="M367.84 287.76C372.855 285.509 378.437 284.843 383.84 285.85" stroke="#263238" strokeLinecap="round" strokeLinejoin="round"/>
<path d="M345.93 307.24C345.93 307.24 344.93 391.03 344.19 395.15C343.45 399.27 337.38 405.75 337.64 417.82C337.9 429.89 337.23 438.55 337.23 438.55C337.23 438.55 335.18 443.55 335.43 444.73C336.97 452.55 345.68 448.85 345.68 448.85C345.68 448.85 348.24 445.03 348.49 442.08C348.74 439.13 358.49 404.97 360.04 400.85C361.59 396.73 375.39 336.78 375.39 336.78C375.39 336.78 384.39 382.96 384.39 387.08C384.39 391.2 393.06 445 393.06 445C393.06 445 391.78 451.47 391.78 452.65C391.78 453.83 395.37 459.12 395.37 459.12C399.499 455.703 404.691 453.836 410.05 453.84C410.05 453.84 408.05 445.79 408.05 443.74C408.05 441.69 405.54 395.85 405.28 384.74C405.02 373.63 400.18 311.52 398.39 306.21C396.6 300.9 385.86 298.58 381.25 297.99C376.64 297.4 345.9 307.26 345.9 307.26" fill="#263238"/>
<path d="M345.93 307.24C345.93 307.24 344.93 391.03 344.19 395.15C343.45 399.27 337.38 405.75 337.64 417.82C337.9 429.89 337.23 438.55 337.23 438.55C337.23 438.55 335.18 443.55 335.43 444.73C336.97 452.55 345.68 448.85 345.68 448.85C345.68 448.85 348.24 445.03 348.49 442.08C348.74 439.13 358.49 404.97 360.04 400.85C361.59 396.73 375.39 336.78 375.39 336.78C375.39 336.78 384.39 382.96 384.39 387.08C384.39 391.2 393.06 445 393.06 445C393.06 445 391.78 451.47 391.78 452.65C391.78 453.83 395.37 459.12 395.37 459.12C399.499 455.703 404.691 453.836 410.05 453.84C410.05 453.84 408.05 445.79 408.05 443.74C408.05 441.69 405.54 395.85 405.28 384.74C405.02 373.63 400.18 311.52 398.39 306.21C396.6 300.9 385.86 298.58 381.25 297.99C376.64 297.4 345.9 307.26 345.9 307.26" stroke="#263238" strokeLinecap="round" strokeLinejoin="round"/>
<path d="M403.3 236.44C403.59 233.53 402.25 229.15 402.25 229.14C400.83 227.14 393.14 223.94 390.3 221.91C387.46 219.88 382.72 218 379.87 218C377.02 218 371.04 218.15 371.04 218.15C367.853 219.685 364.589 221.054 361.26 222.25C358.11 223.19 344.19 229.34 344.19 230.45C344.19 231.56 347 289.08 347 289.08L344.88 309.92C344.773 310.951 344.921 311.993 345.311 312.954C345.702 313.914 346.322 314.764 347.119 315.428C347.915 316.092 348.863 316.55 349.878 316.761C350.893 316.973 351.945 316.931 352.94 316.64C363.94 313.44 379.69 309.21 379.69 309.21L396.34 314.49C400.87 316.11 400.94 310.67 400.18 305.92L394.47 281.67L403.3 236.44Z" fill="#FFAB03"/>
<mask id="mask5_181_344" style="mask-type:luminance" maskUnits="userSpaceOnUse" x="344" y="218" width="60" height="99">
<path d="M403.3 236.44C403.59 233.53 402.25 229.15 402.25 229.14C400.83 227.14 393.14 223.94 390.3 221.91C387.46 219.88 382.72 218 379.87 218C377.02 218 371.04 218.15 371.04 218.15C367.853 219.685 364.589 221.054 361.26 222.25C358.11 223.19 344.19 229.34 344.19 230.45C344.19 231.56 347 289.08 347 289.08L344.88 309.92C344.773 310.951 344.921 311.993 345.311 312.954C345.702 313.914 346.322 314.764 347.119 315.428C347.915 316.092 348.863 316.55 349.878 316.761C350.893 316.973 351.945 316.931 352.94 316.64C363.94 313.44 379.69 309.21 379.69 309.21L396.34 314.49C400.87 316.11 400.94 310.67 400.18 305.92L394.47 281.67L403.3 236.44Z" fill="white"/>
</mask>
<g mask="url(#mask5_181_344)">
<path opacity="0.2" d="M359.74 270C357.39 264.6 355.74 258.49 351.17 254.78C346.66 258.13 345.28 264.31 345.46 269.92C345.64 275.53 347.04 281.09 346.68 286.69C346.39 291.08 345.04 295.32 344.07 299.6C343.1 303.88 342.52 308.43 343.78 312.6C345.04 316.77 348.52 320.6 352.89 321.06C356.18 321.39 359.33 319.85 362.28 318.36L375.28 311.75C375.683 311.637 376.056 311.437 376.372 311.164C376.689 310.891 376.942 310.551 377.113 310.169C377.284 309.788 377.368 309.373 377.361 308.955C377.354 308.537 377.254 308.125 377.07 307.75C375.4 300.38 374.87 290.75 371.47 283.98C368.7 278.48 362.41 276.24 359.74 270Z" fill="black"/>
</g>
<path d="M403.3 236.44C403.59 233.53 402.25 229.15 402.25 229.14C400.83 227.14 393.14 223.94 390.3 221.91C387.46 219.88 382.72 218 379.87 218C377.02 218 371.04 218.15 371.04 218.15C367.853 219.685 364.589 221.054 361.26 222.25C358.11 223.19 344.19 229.34 344.19 230.45C344.19 231.56 347 289.08 347 289.08L344.88 309.92C344.773 310.951 344.921 311.993 345.311 312.954C345.702 313.914 346.322 314.764 347.119 315.428C347.915 316.092 348.863 316.55 349.878 316.761C350.893 316.973 351.945 316.931 352.94 316.64C363.94 313.44 379.69 309.21 379.69 309.21L396.34 314.49C400.87 316.11 400.94 310.67 400.18 305.92L394.47 281.67L403.3 236.44Z" stroke="#263238" strokeLinecap="round" strokeLinejoin="round"/>
<path d="M388.88 242.31C388.68 245.76 387.4 256.56 383.98 265.2C381.86 270.61 379.98 275.03 379.52 275.99L379.42 276.15C379.3 276.35 378.97 275.57 378.53 274.15C377.81 271.84 376.76 267.89 375.71 263.77C374.21 257.94 372.71 251.77 372.01 249.54C369.25 240.39 368.28 239.71 367.81 231.04C367.34 222.37 369.65 218.79 369.65 218.79C373.6 213.43 382.28 217.51 384.17 218.46C386.06 219.41 388.24 219.18 388.79 223.1C389.62 229 389.62 229 388.88 242.31Z" fill="white" stroke="#263238" strokeLinecap="round" strokeLinejoin="round"/>
<path d="M368.39 222.24L372.99 231.85L381.19 227.49L388.88 231.02" stroke="#263238" strokeLinecap="round" strokeLinejoin="round"/>
<path d="M382.42 234.46L384 265.2C381.88 270.61 380 275.03 379.54 275.99L379.44 276.15L378.55 274.15C377.83 271.84 376.78 267.89 375.73 263.77L380 234.58L377.54 229.67L381.21 227.49L385.58 229.67L382.42 234.46Z" fill="#263238"/>
<path d="M381.19 227.49C381.19 227.49 370.51 222.49 371.19 220.44C372.76 215.72 371.39 211.62 369.86 206.88C370.833 208.793 372.258 210.441 374.01 211.68C375.147 212.504 376.424 213.114 377.78 213.48C379.538 213.935 381.382 213.935 383.14 213.48C383.109 213.578 383.086 213.678 383.07 213.78C382.886 214.471 382.795 215.184 382.8 215.9C382.8 216.05 382.8 216.19 382.8 216.32V216.38C382.771 217.395 383.09 218.389 383.705 219.197C384.32 220.005 385.194 220.578 386.18 220.82C387.25 221 383.88 227.49 381.19 227.49Z" fill="white" stroke="#263238" strokeLinecap="round" strokeLinejoin="round"/>
<path d="M383.12 213.5C381.38 213.93 373.8 210.44 372 209.96C373.37 211.39 374.49 214.88 382.79 216.45V216.34V215.89C382.8 215.187 382.88 214.487 383.03 213.8C383.03 213.7 383.03 213.6 383.1 213.5" fill="#263238"/>
<path d="M383.12 213.5C381.38 213.93 373.8 210.44 372 209.96C373.37 211.39 374.49 214.88 382.79 216.45V216.34V215.89C382.8 215.187 382.88 214.487 383.03 213.8C383.03 213.7 383.03 213.6 383.1 213.5" stroke="#263238" strokeLinecap="round" strokeLinejoin="round"/>
<path d="M391.54 189C391.51 189.387 391.453 189.771 391.37 190.15C391.311 190.449 391.231 190.743 391.13 191.03C391 190.59 390.85 190.16 390.69 189.73C389.913 187.45 388.734 185.326 387.21 183.46C386.453 183.92 385.656 184.311 384.83 184.63C384.977 183.673 385.246 182.739 385.63 181.85C385.75 181.57 385.88 181.29 386.03 181C386.84 180.34 388.22 180.58 389.41 181.7C390.76 183 391.86 185.42 391.54 189Z" fill="#263238" stroke="#263238" strokeLinecap="round" strokeLinejoin="round"/>
<path d="M387.31 205.32C387.319 205.347 387.323 205.377 387.321 205.406C387.319 205.435 387.312 205.463 387.298 205.489C387.285 205.515 387.267 205.538 387.245 205.557C387.223 205.576 387.198 205.591 387.17 205.6C386.89 205.667 386.606 205.714 386.32 205.74C385.472 205.838 384.612 205.763 383.794 205.519C382.976 205.275 382.216 204.867 381.56 204.32C381.532 204.303 381.509 204.28 381.491 204.253C381.473 204.226 381.461 204.196 381.456 204.164C381.451 204.131 381.454 204.099 381.463 204.068C381.473 204.037 381.489 204.008 381.511 203.984C381.533 203.96 381.559 203.941 381.589 203.928C381.619 203.916 381.652 203.91 381.684 203.912C381.717 203.913 381.748 203.922 381.777 203.937C381.806 203.953 381.831 203.974 381.85 204C382.572 204.583 383.418 204.993 384.323 205.197C385.228 205.402 386.168 205.396 387.07 205.18C387.12 205.168 387.174 205.175 387.218 205.201C387.263 205.228 387.296 205.27 387.31 205.32Z" fill="white" stroke="#263238" strokeLinecap="round" strokeLinejoin="round"/>
<path d="M389.41 200.78C388.988 201.101 388.499 201.323 387.98 201.428C387.46 201.534 386.924 201.521 386.41 201.39L386.19 196.95L386.11 195.47C386.29 195.86 386.47 196.25 386.67 196.63C387.437 198.105 388.355 199.495 389.41 200.78Z" fill="white" stroke="#263238" strokeLinecap="round" strokeLinejoin="round"/>
<path d="M387.21 183.47C386.453 183.93 385.656 184.321 384.83 184.64C384.379 184.819 383.918 184.972 383.45 185.1C381.225 185.675 378.946 186.01 376.65 186.1C376.15 186.1 375.65 186.16 375.14 186.19C372.67 186.33 369.58 186.94 366.72 187.12C367.045 186.214 367.485 185.354 368.03 184.56C369.392 182.532 371.328 180.957 373.59 180.035C375.853 179.114 378.339 178.89 380.73 179.39C382.548 179.789 384.236 180.638 385.64 181.86C386.205 182.354 386.73 182.893 387.21 183.47Z" fill="white" stroke="#263238" strokeLinecap="round" strokeLinejoin="round"/>
<path d="M374.43 192.74L371.24 195.93L375.03 202.93L371.24 202.52C371.233 202.295 371.206 202.071 371.16 201.85C370.76 199.85 368.99 197.27 366.83 196.85C366.653 196.81 366.472 196.79 366.29 196.79C365.899 196.779 365.511 196.85 365.15 196.999C364.788 197.148 364.462 197.371 364.193 197.654C363.923 197.937 363.716 198.273 363.584 198.641C363.453 199.009 363.4 199.4 363.43 199.79C361.878 198.734 360.65 197.268 359.882 195.556C359.114 193.843 358.836 191.951 359.08 190.09C359.579 188.714 360.343 187.45 361.33 186.37C361.737 186.627 362.188 186.807 362.66 186.9C363.98 187.13 365.324 187.191 366.66 187.08C369.52 186.9 372.66 186.29 375.08 186.15C375.58 186.15 376.08 186.1 376.59 186.06L374.43 192.74Z" fill="#263238" stroke="#263238" strokeLinecap="round" strokeLinejoin="round"/>
<path d="M383.12 213.5C381.362 213.955 379.518 213.955 377.76 213.5C376.404 213.134 375.127 212.524 373.99 211.7C372.237 210.46 370.813 208.813 369.84 206.9C369.66 206.57 369.51 206.24 369.36 205.9C368.802 206.045 368.211 205.977 367.7 205.71C365.922 204.846 364.523 203.358 363.77 201.53C363.551 200.997 363.439 200.426 363.44 199.85C363.41 199.46 363.463 199.069 363.594 198.701C363.726 198.333 363.933 197.996 364.203 197.714C364.472 197.431 364.798 197.208 365.16 197.059C365.521 196.91 365.909 196.839 366.3 196.85C366.482 196.85 366.663 196.87 366.84 196.91C369 197.31 370.77 199.86 371.18 201.91C371.218 202.131 371.242 202.355 371.25 202.58L375.04 202.99L371.25 195.99L374.44 192.8L376.65 186.16C378.946 186.07 381.225 185.734 383.45 185.16C383.918 185.032 384.379 184.878 384.83 184.7C385.656 184.381 386.453 183.989 387.21 183.53C388.734 185.396 389.913 187.519 390.69 189.8C390.85 190.23 391 190.66 391.13 191.1C392.223 194.706 392.664 198.479 392.43 202.24C392.242 204.854 391.241 207.343 389.568 209.36C387.895 211.377 385.634 212.821 383.1 213.49" fill="white"/>
<path d="M383.12 213.5C381.362 213.955 379.518 213.955 377.76 213.5C376.404 213.134 375.127 212.524 373.99 211.7C372.237 210.46 370.813 208.813 369.84 206.9C369.66 206.57 369.51 206.24 369.36 205.9C368.802 206.045 368.211 205.977 367.7 205.71C365.922 204.846 364.523 203.358 363.77 201.53C363.551 200.997 363.439 200.426 363.44 199.85C363.41 199.46 363.463 199.069 363.594 198.701C363.726 198.333 363.933 197.996 364.203 197.714C364.472 197.431 364.798 197.208 365.16 197.059C365.521 196.91 365.909 196.839 366.3 196.85C366.482 196.85 366.663 196.87 366.84 196.91C369 197.31 370.77 199.86 371.18 201.91C371.218 202.131 371.242 202.355 371.25 202.58L375.04 202.99L371.25 195.99L374.44 192.8L376.65 186.16C378.946 186.07 381.225 185.734 383.45 185.16C383.918 185.032 384.379 184.878 384.83 184.7C385.656 184.381 386.453 183.989 387.21 183.53C388.734 185.396 389.913 187.519 390.69 189.8C390.85 190.23 391 190.66 391.13 191.1C392.223 194.706 392.664 198.479 392.43 202.24C392.242 204.854 391.241 207.343 389.568 209.36C387.895 211.377 385.634 212.821 383.1 213.49" stroke="#263238" strokeLinecap="round" strokeLinejoin="round"/>
<path d="M377.15 184.57L376.64 186.1C376.14 186.1 375.64 186.16 375.13 186.19C372.66 186.33 369.57 186.94 366.71 187.12C365.374 187.231 364.03 187.17 362.71 186.94C362.238 186.847 361.787 186.667 361.38 186.41C361.864 185.707 362.531 185.15 363.31 184.8C364.31 184.67 366.1 184.6 368.07 184.56C372.18 184.48 377.15 184.57 377.15 184.57Z" fill="white" stroke="#263238" strokeLinecap="round" strokeLinejoin="round"/>
<path d="M390.35 180.6C390.067 180.995 389.753 181.366 389.41 181.71C388.755 182.388 388.016 182.98 387.21 183.47C386.453 183.929 385.656 184.321 384.83 184.64C384.379 184.819 383.918 184.972 383.45 185.1C381.225 185.674 378.946 186.01 376.65 186.1C376.15 186.1 375.65 186.16 375.14 186.19C372.67 186.33 369.58 186.94 366.72 187.12C365.384 187.231 364.04 187.17 362.72 186.94C362.248 186.847 361.797 186.667 361.39 186.41C358.74 184.69 358.74 179.73 363.8 175.31C365.7 173.66 368.72 174.25 371.24 174.31C373.752 174.491 376.273 174.528 378.79 174.42C380.994 174.351 383.098 173.484 384.71 171.98C386.2 170.39 386.59 167.64 385.09 166.05C386.566 166.427 387.929 167.158 389.059 168.179C390.189 169.201 391.054 170.482 391.578 171.913C392.102 173.344 392.269 174.881 392.066 176.391C391.862 177.901 391.294 179.339 390.41 180.58L390.35 180.6Z" fill="#263238" stroke="#263238" strokeLinecap="round" strokeLinejoin="round"/>
<path d="M386.15 195.47C386.33 195.86 386.51 196.25 386.71 196.63C387.465 198.103 388.369 199.494 389.41 200.78C388.988 201.101 388.499 201.323 387.98 201.428C387.46 201.534 386.924 201.521 386.41 201.39" fill="white"/>
<path d="M386.15 195.47C386.33 195.86 386.51 196.25 386.71 196.63C387.465 198.103 388.369 199.494 389.41 200.78C388.988 201.101 388.499 201.323 387.98 201.428C387.46 201.534 386.924 201.521 386.41 201.39" stroke="#263238" strokeLinecap="round" strokeLinejoin="round"/>
<path d="M387 205.18C386.098 205.396 385.158 205.402 384.253 205.197C383.348 204.993 382.502 204.583 381.78 204C381.78 204 381.93 214.83 387 205.18Z" fill="white" stroke="#263238" strokeLinecap="round" strokeLinejoin="round"/>
<path d="M382.19 195.26C382.19 196 381.96 196.6 381.48 196.64C381 196.68 380.54 196.12 380.48 195.39C380.42 194.66 380.71 194.04 381.2 194C381.69 193.96 382.16 194.53 382.19 195.26Z" fill="#263238"/>
<path d="M390.49 194.58C390.58 195.3 390.26 195.92 389.78 195.97C389.3 196.02 388.91 195.53 388.78 194.89V194.71C388.7 193.98 389.03 193.37 389.5 193.33C389.667 193.321 389.831 193.375 389.96 193.48C390.118 193.618 390.247 193.787 390.338 193.976C390.429 194.165 390.481 194.37 390.49 194.58Z" fill="#263238"/>
<path d="M377.15 193.33C378.3 191.84 380.04 190.52 382.29 191.02Z" fill="white"/>
<path d="M377.15 193.33C378.3 191.84 380.04 190.52 382.29 191.02" stroke="#263238" strokeLinecap="round" strokeLinejoin="round"/>
<path d="M386.55 190.08C387.359 189.856 388.211 189.842 389.027 190.04C389.842 190.238 390.594 190.641 391.21 191.21" fill="white"/>
<path d="M386.55 190.08C387.359 189.856 388.211 189.842 389.027 190.04C389.842 190.238 390.594 190.641 391.21 191.21" stroke="#263238" strokeLinecap="round" strokeLinejoin="round"/>
<path d="M280.33 240.38C280.33 240.38 277.53 237.71 278 239.91C278.47 242.11 281.41 244.4 282.8 245.49C284.19 246.58 287.45 245.96 287.45 245.96L280.33 240.38Z" fill="white" stroke="#263238" strokeLinecap="round" strokeLinejoin="round"/>
<path d="M310.39 246.26C310.39 246.26 306.68 241.26 304.5 238.98C302.32 236.7 299.5 234.98 297.2 235.1C294.9 235.22 292.02 235.93 290.2 235.93C288.38 235.93 286.47 234.69 286.2 235.93C285.93 237.17 286.49 237.27 288.04 237.93C289.59 238.59 292.87 239.5 292.87 239.5C292.87 239.5 288.76 240.84 287.52 241.5C286.28 242.16 283.64 240.88 283.64 240.88C283.64 240.88 279.15 237.32 279.15 239.18C279.15 241.04 282.25 243.36 283.96 244.61C285.67 245.86 286.29 246.92 288.6 246.46C290.91 246 300.54 243.51 300.54 243.51L305.66 249.56L310.39 246.26Z" fill="white" stroke="#263238" strokeLinecap="round" strokeLinejoin="round"/>
<path d="M291 245.49C291 245.49 287.9 246.42 286.66 245.49C285.42 244.56 281.08 240.84 280.61 238.49C280.14 236.14 288.37 242.83 288.37 242.83C288.37 242.83 295.05 239.73 296.58 239.26C297.062 239.142 297.565 239.137 298.049 239.246C298.534 239.355 298.986 239.576 299.37 239.89" fill="white"/>
<path d="M291 245.49C291 245.49 287.9 246.42 286.66 245.49C285.42 244.56 281.08 240.84 280.61 238.49C280.14 236.14 288.37 242.83 288.37 242.83C288.37 242.83 295.05 239.73 296.58 239.26C297.062 239.142 297.565 239.137 298.049 239.246C298.534 239.355 298.986 239.576 299.37 239.89" stroke="#263238" strokeLinecap="round" strokeLinejoin="round"/>
<path d="M343.86 231C343.55 232.55 328.93 263.84 327.86 264.46C326.79 265.08 326.16 264.62 326.16 264.62L310.11 244.62L300.96 250.97C303.839 257.308 307.098 263.466 310.72 269.41C316.72 279.33 327.31 286.79 329.62 286C331.93 285.21 347.62 260.26 347.62 260.26L350.08 242.41C350.41 240.092 349.984 237.729 348.863 235.673C347.742 233.617 345.987 231.978 343.86 231Z" fill="#FFAB03"/>
<mask id="mask6_181_344" style="mask-type:luminance" maskUnits="userSpaceOnUse" x="300" y="231" width="51" height="56">
<path d="M343.86 231C343.55 232.55 328.93 263.84 327.86 264.46C326.79 265.08 326.16 264.62 326.16 264.62L310.11 244.62L300.96 250.97C303.839 257.308 307.098 263.466 310.72 269.41C316.72 279.33 327.31 286.79 329.62 286C331.93 285.21 347.62 260.26 347.62 260.26L350.08 242.41C350.41 240.092 349.984 237.729 348.863 235.673C347.742 233.617 345.987 231.978 343.86 231Z" fill="white"/>
</mask>
<g mask="url(#mask6_181_344)">
<path opacity="0.2" d="M340.23 243.28C342.07 245.28 344.36 246.99 345.52 249.46C345.724 249.999 346.007 250.505 346.36 250.96C346.547 251.183 346.804 251.335 347.089 251.393C347.374 251.452 347.671 251.412 347.93 251.28C348.42 250.96 348.47 250.28 348.46 249.67C348.319 243.358 346.922 237.137 344.35 231.37C343.74 229.99 342.87 228.5 341.35 228.18C339.7 227.83 338.08 229.26 337.62 230.89C336.59 234.68 337.6 240.41 340.23 243.28Z" fill="black"/>
<path opacity="0.2" d="M324.23 274.67C323.864 273.591 323.793 272.434 324.023 271.317C324.253 270.201 324.777 269.167 325.54 268.32C325.533 270.802 326.469 273.194 328.16 275.01L328.4 269.6C329.8 270.24 329.04 272.79 330.4 273.6C331.32 274.17 332.47 273.44 333.3 272.74L341.42 265.86C340.177 272.004 337.374 277.724 333.28 282.47C332.169 283.978 330.607 285.092 328.82 285.65C326.12 286.23 323.49 284.51 321.37 282.74C315.178 277.576 310.046 271.259 306.26 264.14C304.767 261.265 303.432 258.311 302.26 255.29C301.743 254.212 301.463 253.036 301.44 251.84C301.61 248.34 304.71 248.77 306.44 250.67C308.17 252.57 309 256.33 310.36 258.55C314.067 264.649 318.753 270.095 324.23 274.67Z" fill="black"/>
</g>
<path d="M343.86 231C343.55 232.55 328.93 263.84 327.86 264.46C326.79 265.08 326.16 264.62 326.16 264.62L310.11 244.62L300.96 250.97C303.839 257.308 307.098 263.466 310.72 269.41C316.72 279.33 327.31 286.79 329.62 286C331.93 285.21 347.62 260.26 347.62 260.26" stroke="#263238" strokeLinecap="round" strokeLinejoin="round"/>
<path d="M345.93 307.24C345.93 307.24 345.57 337.84 345.12 362.96" stroke="#BFBFBF" strokeLinecap="round" strokeLinejoin="round"/>
<path d="M368.9 360.93L375.8 333.55C381.04 329.06 380.23 321.65 379.48 311.33L379.72 309.21" stroke="#BFBFBF" strokeLinecap="round" strokeLinejoin="round"/>
<path d="M405.17 386.48C405.01 392.65 404.12 398.48 401.62 402.85" stroke="#BFBFBF" strokeLinecap="round" strokeLinejoin="round"/>
<path d="M404.88 375.66C405.03 378.02 405.15 380.42 405.19 382.79" stroke="#BFBFBF" strokeLinecap="round" strokeLinejoin="round"/>
<path d="M359.89 397.11C357.984 400.66 355.342 403.763 352.14 406.21" stroke="#BFBFBF" strokeLinecap="round" strokeLinejoin="round"/>
<path d="M363.29 389.25C362.7 390.93 362.07 392.57 361.37 394.14" stroke="#BFBFBF" strokeLinecap="round" strokeLinejoin="round"/>
<path d="M403.06 422.16C403.213 432.581 404.217 442.972 406.06 453.23" stroke="#BFBFBF" strokeLinecap="round" strokeLinejoin="round"/>
<path d="M403.16 414.68C403.16 415.68 403.1 416.68 403.08 417.68" stroke="#BFBFBF" strokeLinecap="round" strokeLinejoin="round"/>
<path d="M344.94 430.1C344.097 436.505 342.716 442.827 340.81 449" stroke="#BFBFBF" strokeLinecap="round" strokeLinejoin="round"/>
<path d="M345.67 422.77C345.56 424.36 345.42 425.96 345.25 427.55" stroke="#BFBFBF" strokeLinecap="round" strokeLinejoin="round"/>
<path d="M375.74 335.27C378 347.49 376.37 340.79 378.63 353.01" stroke="#BFBFBF" strokeLinecap="round" strokeLinejoin="round"/>
<path d="M380.78 333.21C383.68 334.07 391.25 330.88 393.78 328.31C393.909 328.177 393.995 328.009 394.027 327.826C394.059 327.644 394.034 327.456 393.958 327.287C393.881 327.119 393.755 326.977 393.597 326.882C393.439 326.786 393.255 326.74 393.07 326.75C386.812 327.444 380.851 329.791 375.8 333.55C371.989 336.43 367.28 337.865 362.51 337.6" stroke="#BFBFBF" strokeLinecap="round" strokeLinejoin="round"/>
<path d="M361.6 327.78C369.263 328.656 377.026 327.763 384.29 325.17" stroke="#BFBFBF" strokeLinecap="round" strokeLinejoin="round"/>
<path d="M355.36 326.65C356.22 326.86 357.08 327.05 357.95 327.22" stroke="#BFBFBF" strokeLinecap="round" strokeLinejoin="round"/>
<path d="M424.83 459.84C424.74 460.1 424.62 460.37 424.49 460.65C423.521 462.58 421.898 464.104 419.91 464.95C415.82 466.71 406.57 466.83 403.34 468.78C400.11 470.73 396.12 467.97 395.34 467.38C395.268 467.308 395.216 467.218 395.19 467.12L396.34 466.51C398.764 466.262 401.145 465.693 403.42 464.82C405.23 464.03 406.84 462.82 408.57 461.92C412.73 459.66 419.02 458.07 423.72 458.65C424.009 458.701 424.274 458.844 424.474 459.059C424.675 459.274 424.8 459.548 424.83 459.84Z" fill="#263238" stroke="#263238" strokeLinecap="round" strokeLinejoin="round"/>
<path d="M424.83 459.84C424.801 459.551 424.679 459.278 424.482 459.064C424.286 458.85 424.026 458.704 423.74 458.65C419.04 458.07 412.74 459.65 408.59 461.92C406.86 462.86 405.25 464.03 403.44 464.82C401.165 465.693 398.784 466.261 396.36 466.51L395.21 467.12C394.71 465.65 395.36 459.12 395.36 459.12L404.95 454.4L406.1 453.84L406.85 454.06C409.969 454.967 413.142 455.678 416.35 456.19C419.67 456.49 424.54 455.6 425.05 457.36C425.221 458.19 425.145 459.053 424.83 459.84Z" fill="white" stroke="#263238" strokeLinecap="round" strokeLinejoin="round"/>
<path d="M424.83 459.84C424.849 459.993 424.828 460.148 424.768 460.29C424.709 460.432 424.613 460.556 424.49 460.65" stroke="#263238" strokeLinecap="round" strokeLinejoin="round"/>
<path d="M379.214 276C378.764 284.84 379.024 293.702 379.994 302.5Z" fill="white"/>
<path d="M379.214 276C378.764 284.84 379.024 293.702 379.994 302.5" stroke="#263238" strokeLinecap="round" strokeLinejoin="round"/>
<path d="M349.86 239C351.479 245.175 350.932 251.719 348.31 257.54" stroke="#263238" strokeLinecap="round" strokeLinejoin="round"/>
<path d="M348.94 236.16C349.08 236.55 349.22 236.94 349.35 237.33" stroke="#263238" strokeLinecap="round" strokeLinejoin="round"/>
<path d="M347.1 232.32C347.5 233 347.86 233.69 348.19 234.4" stroke="#263238" strokeLinecap="round" strokeLinejoin="round"/>
<path d="M361.6 279.48C371.134 281.821 381.011 282.43 390.76 281.28" stroke="#263238" strokeLinecap="round" strokeLinejoin="round"/>
<path d="M367.84 287.76C372.855 285.509 378.437 284.843 383.84 285.85" stroke="#263238" strokeLinecap="round" strokeLinejoin="round"/>
<path d="M457.28 153V132.3C457.281 131.804 457.185 131.313 456.996 130.854C456.807 130.396 456.53 129.979 456.179 129.628C455.829 129.277 455.413 128.998 454.955 128.808C454.497 128.618 454.006 128.52 453.51 128.52H421.06C420.564 128.52 420.073 128.618 419.615 128.808C419.157 128.998 418.741 129.277 418.391 129.628C418.04 129.979 417.763 130.396 417.574 130.854C417.385 131.313 417.289 131.804 417.29 132.3V153C417.29 153.495 417.388 153.985 417.577 154.443C417.766 154.9 418.044 155.316 418.394 155.666C418.744 156.016 419.16 156.294 419.617 156.483C420.075 156.673 420.565 156.77 421.06 156.77H432.36L431.45 164.64H437.28L435.4 175.39L444.18 159.95H438.52L439.12 156.77H453.51C454.005 156.77 454.495 156.673 454.953 156.483C455.41 156.294 455.826 156.016 456.176 155.666C456.526 155.316 456.804 154.9 456.993 154.443C457.183 153.985 457.28 153.495 457.28 153Z" fill="white" stroke="#263238" strokeLinecap="round" strokeLinejoin="round"/>
<path d="M423.48 136.6H445.42" stroke="#263238" strokeLinecap="round" strokeLinejoin="round"/>
<path d="M423.48 142.46H451.08" stroke="#263238" strokeLinecap="round" strokeLinejoin="round"/>
<path d="M423.48 148.32H446.84" stroke="#263238" strokeLinecap="round" strokeLinejoin="round"/>
<path d="M368.22 183C368.048 181.784 368.313 180.546 368.969 179.508C369.624 178.469 370.628 177.697 371.8 177.33" stroke="#BFBFBF" strokeWidth="0.75" strokeLinecap="round" strokeLinejoin="round"/>
<path d="M371.25 181.28C372.108 180.013 373.248 178.962 374.58 178.21" stroke="#BFBFBF" strokeWidth="0.75" strokeLinecap="round" strokeLinejoin="round"/>
<path d="M375.09 180.65C375.771 179.364 376.872 178.351 378.21 177.78" stroke="#BFBFBF" strokeWidth="0.75" strokeLinecap="round" strokeLinejoin="round"/>
<path d="M378.74 179.8C379.546 179.354 380.2 178.679 380.62 177.86" stroke="#BFBFBF" strokeWidth="0.75" strokeLinecap="round" strokeLinejoin="round"/>
<path d="M381.6 179.28C381.848 179.172 382.062 178.999 382.22 178.78C382.808 178.09 383.339 177.354 383.81 176.58C383.81 176.58 383.81 176.5 383.81 176.47C383.81 176.44 383.72 176.47 383.74 176.47" stroke="#BFBFBF" strokeWidth="0.75" strokeLinecap="round" strokeLinejoin="round"/>
<path d="M385.05 177.74C385.465 177.44 385.813 177.056 386.071 176.613C386.33 176.171 386.493 175.679 386.55 175.17" stroke="#BFBFBF" strokeWidth="0.75" strokeLinecap="round" strokeLinejoin="round"/>
<path d="M161.44 105.17V107.99V201.65L250 243.53V141.66L161.44 105.17Z" fill="#03E5E5" stroke="#E5E7EB" strokeLinecap="round" strokeLinejoin="round"/>
<path d="M204.23 217.17L208.74 219.35" stroke="#E5E7EB" strokeLinecap="round" strokeLinejoin="round"/>
<path d="M196.01 213.21L200.14 215.2" stroke="#E5E7EB" strokeLinecap="round" strokeLinejoin="round"/>
<path d="M164.84 160.45V198.17L190.52 210.56" stroke="#E5E7EB" strokeLinecap="round" strokeLinejoin="round"/>
<path d="M338.56 105.17V107.99V201.65L250 243.53V141.66L338.56 105.17Z" fill="#BFBFBF" stroke="#E5E7EB" strokeLinecap="round" strokeLinejoin="round"/>
<path d="M161.44 105.17L250 141.66L338.56 105.17L250 65.2002L161.44 105.17Z" fill="white" stroke="#E5E7EB" strokeLinecap="round" strokeLinejoin="round"/>
<path d="M296.76 120.75V186.47L314.51 168.72L332.17 186.38V120.42L296.76 120.75Z" fill="white" stroke="#263238" strokeLinecap="round" strokeLinejoin="round"/>
<path d="M314.46 80.0602L323.27 74.4102L328.07 83.7102L338.52 83.2202L338.04 93.6702L347.33 98.4702L341.69 107.28L347.33 116.09L338.04 120.89L338.52 131.34L328.07 130.85L323.27 140.15L314.46 134.5L305.66 140.15L300.86 130.85L290.41 131.34L290.89 120.89L281.6 116.09L287.25 107.28L281.6 98.4702L290.89 93.6702L290.41 83.2202L300.86 83.7102L305.66 74.4102L314.46 80.0602Z" fill="#03E5E5"/>
<mask id="mask7_181_344" style="mask-type:luminance" maskUnits="userSpaceOnUse" x="281" y="74" width="67" height="67">
<path d="M314.46 80.0602L323.27 74.4102L328.07 83.7102L338.52 83.2202L338.04 93.6702L347.33 98.4702L341.69 107.28L347.33 116.09L338.04 120.89L338.52 131.34L328.07 130.85L323.27 140.15L314.46 134.5L305.66 140.15L300.86 130.85L290.41 131.34L290.89 120.89L281.6 116.09L287.25 107.28L281.6 98.4702L290.89 93.6702L290.41 83.2202L300.86 83.7102L305.66 74.4102L314.46 80.0602Z" fill="white"/>
</mask>
<g mask="url(#mask7_181_344)">
<path d="M314.46 80.0602L323.27 74.4102L328.07 83.7102L338.52 83.2202L338.04 93.6702L347.33 98.4702L341.69 107.28L347.33 116.09L338.04 120.89L338.52 131.34L328.07 130.85L323.27 140.15L314.46 134.5L305.66 140.15L300.86 130.85L290.41 131.34L290.89 120.89L281.6 116.09L287.25 107.28L281.6 98.4702L290.89 93.6702L290.41 83.2202L300.86 83.7102L305.66 74.4102L314.46 80.0602Z" fill="#03E5E5" stroke="#263238" strokeLinecap="round" strokeLinejoin="round"/>
</g>
<path d="M314.46 80.0602L323.27 74.4102L328.07 83.7102L338.52 83.2202L338.04 93.6702L347.33 98.4702L341.69 107.28L347.33 116.09L338.04 120.89L338.52 131.34L328.07 130.85L323.27 140.15L314.46 134.5L305.66 140.15L300.86 130.85L290.41 131.34L290.89 120.89L281.6 116.09L287.25 107.28L281.6 98.4702L290.89 93.6702L290.41 83.2202L300.86 83.7102L305.66 74.4102L314.46 80.0602Z" stroke="#263238" strokeLinecap="round" strokeLinejoin="round"/>
<path d="M327.62 103.38H319.42L321.25 99.0703C321.451 98.6116 321.527 98.1079 321.47 97.6103L321.08 94.2103C321.008 93.5501 320.692 92.9405 320.195 92.5004C319.698 92.0603 319.054 91.8214 318.39 91.8303H315.14L314.86 97.0803L309.58 103.75C309.053 104.407 308.742 105.21 308.69 106.05L308.06 118.14C308.031 118.525 308.082 118.911 308.21 119.275C308.337 119.639 308.539 119.972 308.802 120.254C309.065 120.536 309.384 120.76 309.738 120.913C310.092 121.065 310.474 121.143 310.86 121.14H322.33C322.837 121.138 323.339 121.028 323.801 120.818C324.263 120.607 324.675 120.302 325.01 119.92L326.08 118.73C326.503 118.272 326.796 117.71 326.93 117.1L329.44 105.9L327.62 103.38Z" fill="white" stroke="#263238" strokeLinecap="round" strokeLinejoin="round"/>
<path d="M305.49 103.38H302.69C302.046 103.386 301.428 103.636 300.96 104.08C300.493 104.523 300.21 105.127 300.17 105.77L299.49 118.7C299.471 119.009 299.515 119.319 299.621 119.61C299.726 119.902 299.891 120.168 300.104 120.393C300.317 120.618 300.573 120.797 300.858 120.919C301.143 121.04 301.45 121.102 301.76 121.1H304.56C305.205 121.091 305.823 120.839 306.29 120.394C306.758 119.949 307.04 119.344 307.08 118.7L307.76 105.77C307.779 105.461 307.735 105.152 307.629 104.861C307.523 104.57 307.359 104.305 307.146 104.08C306.933 103.856 306.676 103.678 306.391 103.558C306.106 103.437 305.799 103.377 305.49 103.38Z" fill="#263238" stroke="#263238" strokeLinecap="round" strokeLinejoin="round"/>
<path d="M314.47 158.94V162.45" stroke="#263238" strokeLinecap="round" strokeLinejoin="round"/>
<path d="M314.47 134.5V155.43" stroke="#263238" strokeLinecap="round" strokeLinejoin="round"/>
</svg>
