<svg viewBox="0 0 500 320" fill="none" xmlns="http://www.w3.org/2000/svg">
<path d="M500 302.4H0V302.65H500V302.4Z" fill="#EBEBEB"/>
<path d="M85.58 311.92H52.46V312.17H85.58V311.92Z" fill="#EBEBEB"/>
<path d="M179.83 309.21H136.33V309.46H179.83V309.21Z" fill="#EBEBEB"/>
<path d="M120.33 317.08H81.5801V317.33H120.33V317.08Z" fill="#EBEBEB"/>
<path d="M449.9 319.53H406.71V319.78H449.9V319.53Z" fill="#EBEBEB"/>
<path d="M397.8 319.53H379V319.78H397.8V319.53Z" fill="#EBEBEB"/>
<path d="M275 315.31H238.44V315.56H275V315.31Z" fill="#EBEBEB"/>
<path d="M271.289 41.2901H63.559C62.608 41.2869 61.6907 41.6423 60.9901 42.2854C60.2894 42.9286 59.857 43.8122 59.779 44.7601L49.209 174.4C49.1662 174.921 49.2318 175.445 49.4018 175.94C49.5719 176.434 49.8426 176.888 50.1969 177.272C50.5512 177.656 50.9814 177.963 51.4603 178.173C51.9391 178.382 52.4563 178.49 52.979 178.49H260.699C261.65 178.491 262.566 178.133 263.265 177.488C263.964 176.843 264.394 175.958 264.469 175.01L275.039 45.3801C275.082 44.8607 275.017 44.3382 274.848 43.8452C274.679 43.3523 274.41 42.8995 274.058 42.5155C273.706 42.1314 273.278 41.8243 272.802 41.6134C272.325 41.4025 271.81 41.2924 271.289 41.2901Z" fill="#03E5E5"/>
<path opacity="0.4" d="M271.289 41.2901H63.559C62.608 41.2869 61.6907 41.6423 60.9901 42.2854C60.2894 42.9286 59.857 43.8122 59.779 44.7601L49.209 174.4C49.1662 174.921 49.2318 175.445 49.4018 175.94C49.5719 176.434 49.8426 176.888 50.1969 177.272C50.5512 177.656 50.9814 177.963 51.4603 178.173C51.9391 178.382 52.4563 178.49 52.979 178.49H260.699C261.65 178.491 262.566 178.133 263.265 177.488C263.964 176.843 264.394 175.958 264.469 175.01L275.039 45.3801C275.082 44.8607 275.017 44.3382 274.848 43.8452C274.679 43.3523 274.41 42.8995 274.058 42.5155C273.706 42.1314 273.278 41.8243 272.802 41.6134C272.325 41.4025 271.81 41.2924 271.289 41.2901Z" fill="#263238"/>
<path d="M197.719 31.7002H193.409V32.7702H197.719V31.7002Z" fill="#03E5E5"/>
<path d="M188.069 31.7002H170.159V32.7702H188.069V31.7002Z" fill="#03E5E5"/>
<path d="M265.439 35.4404H57.6989C56.7476 35.4421 55.8315 35.8005 55.1316 36.4448C54.4318 37.0891 53.999 37.9725 53.9189 38.9204L43.3589 168.55C43.3161 169.071 43.3817 169.596 43.5518 170.09C43.7218 170.584 43.9925 171.038 44.3468 171.422C44.7011 171.807 45.1313 172.113 45.6101 172.323C46.089 172.533 46.6062 172.641 47.1289 172.64H254.869C255.82 172.641 256.736 172.283 257.435 171.638C258.133 170.993 258.563 170.108 258.639 169.16L269.209 39.5304C269.252 39.0094 269.186 38.4852 269.016 37.9909C268.846 37.4966 268.575 37.0429 268.221 36.6585C267.867 36.2741 267.437 35.9674 266.958 35.7578C266.479 35.5481 265.962 35.4401 265.439 35.4404Z" fill="#03E5E5"/>
<path opacity="0.1" d="M257.789 100.4H55.3689L60.1789 41.5303H262.589L257.789 100.4ZM56.5289 99.3303H256.809L261.439 42.6003H61.1589L56.5289 99.3303Z" fill="white"/>
<path opacity="0.4" d="M249.209 94.4902C249.609 94.4845 249.992 94.3313 250.286 94.0599C250.579 93.7886 250.762 93.4182 250.799 93.0202L254.399 48.9102C254.419 48.7225 254.399 48.5326 254.339 48.3533C254.28 48.174 254.184 48.0094 254.056 47.8703C253.928 47.7313 253.772 47.621 253.599 47.5468C253.425 47.4727 253.238 47.4363 253.049 47.4402C252.648 47.4457 252.263 47.5986 251.968 47.8698C251.673 48.1409 251.488 48.5113 251.449 48.9102L247.859 93.0202C247.839 93.208 247.859 93.3978 247.918 93.5771C247.978 93.7564 248.074 93.9211 248.202 94.0601C248.33 94.1992 248.486 94.3095 248.659 94.3836C248.833 94.4578 249.02 94.4941 249.209 94.4902Z" fill="white"/>
<path d="M249.329 72.0704H252.749C252.938 72.0663 253.119 71.9926 253.257 71.8635C253.396 71.7344 253.482 71.5588 253.499 71.3704L253.789 67.8504C253.797 67.7614 253.787 67.6717 253.759 67.587C253.73 67.5023 253.684 67.4245 253.624 67.3585C253.564 67.2926 253.49 67.24 253.408 67.2042C253.327 67.1683 253.238 67.15 253.149 67.1504H249.699C249.51 67.1567 249.33 67.231 249.193 67.3597C249.055 67.4884 248.968 67.6628 248.949 67.8504L248.659 71.3704C248.648 71.4623 248.658 71.5554 248.688 71.643C248.717 71.7307 248.766 71.8107 248.83 71.8776C248.894 71.9444 248.972 71.9963 249.058 72.0296C249.144 72.0629 249.237 72.0769 249.329 72.0704Z" fill="white"/>
<path opacity="0.4" d="M236.699 94.4902C237.098 94.4824 237.48 94.3284 237.773 94.0574C238.066 93.7865 238.25 93.4174 238.289 93.0202L241.889 48.9102C241.909 48.7225 241.888 48.5326 241.829 48.3533C241.77 48.174 241.674 48.0094 241.546 47.8703C241.418 47.7313 241.262 47.621 241.089 47.5468C240.915 47.4727 240.728 47.4363 240.539 47.4402C240.138 47.4457 239.753 47.5986 239.458 47.8698C239.163 48.1409 238.978 48.5113 238.939 48.9102L235.339 93.0202C235.32 93.2085 235.342 93.3985 235.402 93.5778C235.463 93.7571 235.56 93.9216 235.689 94.0605C235.817 94.1994 235.974 94.3094 236.148 94.3835C236.322 94.4576 236.51 94.4939 236.699 94.4902Z" fill="white"/>
<path d="M237.439 64.2103H240.849C241.04 64.2086 241.223 64.1361 241.364 64.0067C241.504 63.8774 241.591 63.7004 241.609 63.5103L241.899 60.0003C241.907 59.9113 241.897 59.8216 241.868 59.7369C241.84 59.6522 241.794 59.5744 241.734 59.5084C241.674 59.4425 241.6 59.3899 241.518 59.3541C241.437 59.3182 241.348 59.2999 241.259 59.3003H237.839C237.649 59.3042 237.466 59.3775 237.326 59.5064C237.186 59.6353 237.098 59.811 237.079 60.0003L236.799 63.5103C236.789 63.5996 236.798 63.6899 236.826 63.7754C236.854 63.8608 236.899 63.9393 236.96 64.0056C237.021 64.0719 237.095 64.1244 237.177 64.1597C237.26 64.195 237.349 64.2123 237.439 64.2103Z" fill="white"/>
<path opacity="0.4" d="M224.139 94.4902C224.54 94.4848 224.924 94.3318 225.22 94.0607C225.515 93.7895 225.7 93.4191 225.739 93.0202L229.339 48.9102C229.357 48.7219 229.336 48.5319 229.275 48.3526C229.215 48.1733 229.117 48.0088 228.989 47.8699C228.86 47.7311 228.704 47.621 228.53 47.5469C228.356 47.4729 228.168 47.4365 227.979 47.4402C227.58 47.4481 227.198 47.6021 226.905 47.873C226.611 48.144 226.428 48.513 226.389 48.9102L222.789 93.0202C222.769 93.208 222.789 93.3978 222.848 93.5771C222.908 93.7564 223.004 93.921 223.132 94.0601C223.26 94.1992 223.415 94.3094 223.589 94.3836C223.763 94.4577 223.95 94.4941 224.139 94.4902Z" fill="white"/>
<path d="M223.499 81.4704H226.909C227.099 81.4665 227.282 81.3932 227.422 81.2643C227.562 81.1354 227.65 80.9597 227.669 80.7704L227.959 77.2504C227.967 77.1606 227.957 77.0701 227.928 76.9846C227.899 76.8992 227.852 76.8209 227.791 76.7548C227.729 76.6887 227.655 76.6363 227.572 76.6011C227.489 76.5659 227.399 76.5486 227.309 76.5504H223.899C223.709 76.5543 223.526 76.6276 223.386 76.7565C223.247 76.8855 223.158 77.0611 223.139 77.2504L222.859 80.7704C222.851 80.8594 222.861 80.9491 222.889 81.0338C222.918 81.1185 222.964 81.1964 223.024 81.2623C223.084 81.3282 223.158 81.3808 223.239 81.4166C223.321 81.4525 223.41 81.4708 223.499 81.4704Z" fill="white"/>
<path opacity="0.4" d="M211.609 94.4902C212.01 94.4848 212.394 94.3319 212.69 94.0607C212.985 93.7895 213.17 93.4191 213.209 93.0202L216.799 48.9102C216.819 48.7225 216.799 48.5326 216.739 48.3533C216.68 48.174 216.584 48.0094 216.456 47.8703C216.328 47.7313 216.172 47.621 215.999 47.5468C215.825 47.4727 215.638 47.4363 215.449 47.4402C215.049 47.4459 214.666 47.5992 214.372 47.8705C214.079 48.1419 213.896 48.5122 213.859 48.9102L210.259 93.0202C210.239 93.208 210.259 93.3978 210.318 93.5771C210.378 93.7564 210.474 93.9211 210.602 94.0601C210.73 94.1992 210.885 94.3095 211.059 94.3836C211.233 94.4578 211.42 94.4941 211.609 94.4902Z" fill="white"/>
<path d="M211.469 75.3401H214.879C215.07 75.3384 215.253 75.2658 215.394 75.1365C215.534 75.0071 215.622 74.8302 215.639 74.6401L215.929 71.1201C215.937 71.0303 215.927 70.9397 215.898 70.8543C215.869 70.7689 215.822 70.6905 215.761 70.6244C215.699 70.5583 215.625 70.506 215.542 70.4707C215.459 70.4355 215.369 70.4182 215.279 70.4201H211.869C211.679 70.4239 211.496 70.4972 211.356 70.6262C211.216 70.7551 211.128 70.9308 211.109 71.1201L210.819 74.6401C210.811 74.7298 210.821 74.8204 210.85 74.9058C210.879 74.9913 210.926 75.0696 210.987 75.1357C211.049 75.2018 211.123 75.2542 211.206 75.2894C211.289 75.3246 211.379 75.3419 211.469 75.3401Z" fill="white"/>
<path opacity="0.4" d="M199.079 94.4902C199.479 94.4845 199.862 94.3313 200.156 94.0599C200.449 93.7886 200.632 93.4182 200.669 93.0202L204.269 48.9102C204.289 48.7225 204.269 48.5326 204.209 48.3533C204.15 48.174 204.054 48.0094 203.926 47.8703C203.798 47.7313 203.642 47.621 203.469 47.5468C203.295 47.4727 203.108 47.4363 202.919 47.4402C202.518 47.4457 202.133 47.5986 201.838 47.8698C201.543 48.1409 201.358 48.5113 201.319 48.9102L197.699 93.0202C197.679 93.2106 197.7 93.403 197.76 93.5845C197.821 93.766 197.921 93.9322 198.052 94.0718C198.183 94.2113 198.342 94.321 198.52 94.3932C198.697 94.4654 198.888 94.4985 199.079 94.4902Z" fill="white"/>
<path d="M199.339 70.4204H202.749C202.94 70.4187 203.123 70.3461 203.264 70.2168C203.404 70.0874 203.492 69.9105 203.509 69.7204L203.789 66.2104C203.799 66.1211 203.79 66.0308 203.762 65.9453C203.734 65.8599 203.688 65.7814 203.628 65.7152C203.567 65.6489 203.493 65.5963 203.411 65.561C203.328 65.5257 203.239 65.5084 203.149 65.5104H199.699C199.508 65.5121 199.325 65.5847 199.184 65.714C199.044 65.8434 198.956 66.0203 198.939 66.2104L198.699 69.7404C198.694 69.8278 198.706 69.9153 198.736 69.9976C198.765 70.0799 198.812 70.1553 198.872 70.219C198.932 70.2828 199.004 70.3335 199.084 70.3682C199.165 70.4028 199.251 70.4206 199.339 70.4204Z" fill="white"/>
<path opacity="0.4" d="M83.9689 60.32H172.479C173.589 60.2983 174.652 59.8698 175.467 59.1158C176.282 58.3619 176.791 57.3349 176.899 56.23C176.951 55.7084 176.893 55.1816 176.726 54.6844C176.56 54.1871 176.291 53.7307 175.936 53.3452C175.58 52.9597 175.147 52.6539 174.665 52.4479C174.183 52.2419 173.663 52.1404 173.139 52.15H84.6389C83.5299 52.1693 82.4667 52.5957 81.6517 53.348C80.8367 54.1004 80.3267 55.1261 80.2189 56.23C80.1668 56.7513 80.2253 57.2776 80.3907 57.7747C80.556 58.2717 80.8245 58.7283 81.1785 59.1144C81.5325 59.5005 81.9641 59.8074 82.4449 60.0152C82.9258 60.223 83.4451 60.3269 83.9689 60.32Z" fill="white"/>
<path d="M68.699 75.0501H171.269C172.379 75.033 173.443 74.6073 174.259 73.8546C175.074 73.1018 175.583 72.0748 175.689 70.9701C175.744 70.4482 175.688 69.9205 175.524 69.422C175.36 68.9236 175.092 68.4657 174.737 68.0789C174.382 67.6921 173.949 67.3851 173.467 67.1785C172.985 66.9718 172.464 66.87 171.939 66.8801H69.329C68.2178 66.8974 67.1521 67.3245 66.3364 68.0793C65.5207 68.8341 65.0124 69.8635 64.909 70.9701C64.8563 71.4943 64.9158 72.0237 65.0836 72.5231C65.2514 73.0225 65.5236 73.4804 65.8822 73.8664C66.2407 74.2524 66.6774 74.5576 67.1631 74.7617C67.6488 74.9658 68.1724 75.0641 68.699 75.0501Z" fill="#FAFAFA"/>
<path opacity="0.4" d="M170.399 81.6104H111.619C109.36 81.6104 107.529 83.4393 107.529 85.6954C107.529 87.9514 109.36 89.7803 111.619 89.7803H170.399C172.658 89.7803 174.489 87.9514 174.489 85.6954C174.489 83.4393 172.658 81.6104 170.399 81.6104Z" fill="#263238"/>
<path opacity="0.3" d="M237.309 124.5H249.239L250.209 112.58H238.289L237.309 124.5Z" fill="#263238"/>
<path opacity="0.3" d="M219.769 124.5H231.689L232.659 112.58H220.739L219.769 124.5Z" fill="#263238"/>
<path d="M202.219 124.5H214.139L215.119 112.58H203.189L202.219 124.5Z" fill="white"/>
<path opacity="0.3" d="M184.679 124.5H196.599L197.569 112.58H185.649L184.679 124.5Z" fill="#263238"/>
<path d="M235.879 142.05H247.809L248.779 130.13H236.859L235.879 142.05Z" fill="white"/>
<path opacity="0.3" d="M218.339 142.05H230.259L231.229 130.13H219.309L218.339 142.05Z" fill="#263238"/>
<path opacity="0.3" d="M200.789 142.05H212.709L213.679 130.13H201.759L200.789 142.05Z" fill="#263238"/>
<path opacity="0.3" d="M183.239 142.05H195.169L196.139 130.13H184.219L183.239 142.05Z" fill="#263238"/>
<path opacity="0.3" d="M234.449 159.59H246.369L247.349 147.67H235.419L234.449 159.59Z" fill="#263238"/>
<path opacity="0.3" d="M216.909 159.59H228.829L229.799 147.67H217.879L216.909 159.59Z" fill="#263238"/>
<path d="M199.359 159.59H211.279L212.249 147.67H200.329L199.359 159.59Z" fill="white"/>
<path opacity="0.3" d="M181.809 159.59H193.729L194.709 147.67H182.779L181.809 159.59Z" fill="#263238"/>
<path opacity="0.3" d="M149.289 136.41H145.319L144.659 144.5H148.629L149.289 136.41Z" fill="#263238"/>
<path opacity="0.3" d="M155.149 136.41H151.169L150.509 144.5H154.489L155.149 136.41Z" fill="#263238"/>
<path d="M160.999 136.41H157.019L156.359 144.5H160.339L160.999 136.41Z" fill="white"/>
<path opacity="0.3" d="M166.849 136.41H162.879L162.209 144.5H166.189L166.849 136.41Z" fill="#263238"/>
<path d="M150.259 124.49H146.289L145.629 132.59H149.609L150.259 124.49Z" fill="white"/>
<path opacity="0.3" d="M156.119 124.49H152.139L151.479 132.59H155.459L156.119 124.49Z" fill="#263238"/>
<path opacity="0.3" d="M161.969 124.49H157.989L157.329 132.59H161.309L161.969 124.49Z" fill="#263238"/>
<path opacity="0.3" d="M167.819 124.49H163.849L163.189 132.59H167.159L167.819 124.49Z" fill="#263238"/>
<path opacity="0.3" d="M151.239 112.58H147.259L146.599 120.68H150.579L151.239 112.58Z" fill="#263238"/>
<path opacity="0.3" d="M157.089 112.58H153.109L152.449 120.68H156.429L157.089 112.58Z" fill="#263238"/>
<path opacity="0.3" d="M162.939 112.58H158.969L158.309 120.68H162.279L162.939 112.58Z" fill="#263238"/>
<path opacity="0.3" d="M168.799 112.58H164.819L164.159 120.68H168.139L168.799 112.58Z" fill="#263238"/>
<path opacity="0.3" d="M120.709 136.41H116.729L116.079 144.5H120.049L120.709 136.41Z" fill="#263238"/>
<path d="M126.559 136.41H122.589L121.929 144.5H125.899L126.559 136.41Z" fill="white"/>
<path opacity="0.3" d="M132.419 136.41H128.439L127.779 144.5H131.759L132.419 136.41Z" fill="#263238"/>
<path opacity="0.3" d="M138.269 136.41H134.289L133.629 144.5H137.609L138.269 136.41Z" fill="#263238"/>
<path d="M121.679 124.49H117.709L117.049 132.59H121.019L121.679 124.49Z" fill="white"/>
<path opacity="0.3" d="M127.539 124.49H123.559L122.899 132.59H126.879L127.539 124.49Z" fill="#263238"/>
<path d="M133.389 124.49H129.409L128.749 132.59H132.729L133.389 124.49Z" fill="white"/>
<path d="M139.239 124.49H135.259L134.609 132.59H138.579L139.239 124.49Z" fill="white"/>
<path opacity="0.3" d="M122.659 112.58H118.679L118.019 120.68H121.989L122.659 112.58Z" fill="#263238"/>
<path d="M128.509 112.58H124.529L123.869 120.68H127.849L128.509 112.58Z" fill="white"/>
<path d="M134.359 112.58H130.379L129.719 120.68H133.699L134.359 112.58Z" fill="white"/>
<path opacity="0.3" d="M140.209 112.58H136.239L135.579 120.68H139.549L140.209 112.58Z" fill="#263238"/>
<path d="M92.129 136.41H88.149L87.489 144.5H91.469L92.129 136.41Z" fill="white"/>
<path opacity="0.3" d="M97.9789 136.41H94.0089L93.3489 144.5H97.3189L97.9789 136.41Z" fill="#263238"/>
<path d="M103.839 136.41H99.859L99.199 144.5H103.169L103.839 136.41Z" fill="white"/>
<path opacity="0.3" d="M109.689 136.41H105.709L105.049 144.5H109.029L109.689 136.41Z" fill="#263238"/>
<path d="M93.099 124.49H89.129L88.459 132.59H92.439L93.099 124.49Z" fill="white"/>
<path d="M98.9489 124.49H94.9789L94.3188 132.59H98.2888L98.9489 124.49Z" fill="white"/>
<path opacity="0.3" d="M104.809 124.49H100.829L100.169 132.59H104.149L104.809 124.49Z" fill="#263238"/>
<path opacity="0.3" d="M110.659 124.49H106.679L106.019 132.59H109.999L110.659 124.49Z" fill="#263238"/>
<path d="M94.069 112.58H90.099L89.439 120.68H93.409L94.069 112.58Z" fill="white"/>
<path opacity="0.3" d="M99.9288 112.58H95.9488L95.2888 120.68H99.2688L99.9288 112.58Z" fill="#263238"/>
<path opacity="0.3" d="M105.779 112.58H101.799L101.139 120.68H105.119L105.779 112.58Z" fill="#263238"/>
<path opacity="0.3" d="M111.629 112.58H107.659L106.989 120.68H110.969L111.629 112.58Z" fill="#263238"/>
<path d="M63.5489 136.41H59.5689L58.9089 144.5H62.8889L63.5489 136.41Z" fill="white"/>
<path opacity="0.3" d="M69.399 136.41H65.419L64.759 144.5H68.739L69.399 136.41Z" fill="#263238"/>
<path d="M75.2489 136.41H71.2789L70.6189 144.5H74.5889L75.2489 136.41Z" fill="white"/>
<path opacity="0.3" d="M81.109 136.41H77.129L76.469 144.5H80.449L81.109 136.41Z" fill="#263238"/>
<path opacity="0.3" d="M64.5189 124.49H60.5389L59.8789 132.59H63.8589L64.5189 124.49Z" fill="#263238"/>
<path opacity="0.3" d="M70.369 124.49H66.399L65.739 132.59H69.709L70.369 124.49Z" fill="#263238"/>
<path d="M76.2289 124.49H72.2489L71.5889 132.59H75.5689L76.2289 124.49Z" fill="white"/>
<path opacity="0.3" d="M82.079 124.49H78.099L77.439 132.59H81.419L82.079 124.49Z" fill="#263238"/>
<path d="M65.4889 112.58H61.5189L60.8589 120.68H64.8289L65.4889 112.58Z" fill="white"/>
<path opacity="0.3" d="M71.349 112.58H67.369L66.709 120.68H70.689L71.349 112.58Z" fill="#263238"/>
<path d="M77.1988 112.58H73.2188L72.5588 120.68H76.5388L77.1988 112.58Z" fill="white"/>
<path d="M83.0489 112.58H79.0689L78.4089 120.68H82.3889L83.0489 112.58Z" fill="white"/>
<path d="M164.481 156.799C165.545 155.778 165.641 154.152 164.696 153.168C163.752 152.184 162.123 152.214 161.06 153.235C159.996 154.257 159.899 155.882 160.844 156.866C161.789 157.85 163.417 157.82 164.481 156.799Z" fill="white"/>
<path d="M153.133 156.799C154.197 155.778 154.293 154.152 153.349 153.168C152.404 152.184 150.776 152.214 149.712 153.235C148.648 154.257 148.552 155.882 149.496 156.866C150.441 157.85 152.069 157.82 153.133 156.799Z" fill="white"/>
<path d="M137.499 155.01C137.465 155.338 137.501 155.67 137.605 155.983C137.708 156.296 137.877 156.584 138.1 156.826C138.323 157.069 138.596 157.262 138.899 157.392C139.202 157.522 139.529 157.586 139.859 157.58C140.557 157.569 141.227 157.3 141.74 156.826C142.253 156.352 142.573 155.705 142.639 155.01C142.671 154.682 142.634 154.351 142.53 154.039C142.426 153.727 142.257 153.44 142.034 153.197C141.811 152.955 141.54 152.762 141.237 152.631C140.935 152.501 140.608 152.436 140.279 152.44C139.581 152.452 138.911 152.72 138.398 153.194C137.885 153.668 137.565 154.315 137.499 155.01Z" fill="white"/>
<path d="M126.149 155.01C126.117 155.338 126.154 155.669 126.258 155.981C126.362 156.294 126.531 156.58 126.754 156.823C126.977 157.066 127.248 157.258 127.551 157.389C127.853 157.519 128.18 157.585 128.509 157.58C129.207 157.569 129.877 157.3 130.39 156.826C130.903 156.352 131.223 155.705 131.289 155.01C131.321 154.682 131.284 154.351 131.18 154.039C131.076 153.727 130.907 153.44 130.684 153.197C130.461 152.955 130.19 152.762 129.887 152.631C129.585 152.501 129.258 152.436 128.929 152.44C128.231 152.452 127.561 152.72 127.048 153.194C126.536 153.668 126.215 154.315 126.149 155.01Z" fill="white"/>
<path d="M114.799 155.01C114.767 155.338 114.804 155.669 114.908 155.981C115.012 156.294 115.181 156.58 115.404 156.823C115.627 157.066 115.898 157.258 116.201 157.389C116.503 157.519 116.83 157.585 117.159 157.58C117.857 157.569 118.527 157.3 119.04 156.826C119.552 156.352 119.873 155.705 119.939 155.01C119.971 154.682 119.934 154.351 119.83 154.039C119.726 153.727 119.557 153.44 119.334 153.197C119.111 152.955 118.84 152.762 118.537 152.631C118.235 152.501 117.908 152.436 117.579 152.44C116.881 152.452 116.211 152.72 115.698 153.194C115.185 153.668 114.865 154.315 114.799 155.01Z" fill="white"/>
<path d="M103.449 155.01C103.416 155.338 103.454 155.669 103.558 155.981C103.662 156.294 103.831 156.58 104.054 156.823C104.277 157.066 104.548 157.258 104.851 157.389C105.153 157.519 105.48 157.585 105.809 157.58C106.507 157.569 107.177 157.3 107.69 156.826C108.202 156.352 108.523 155.705 108.589 155.01C108.621 154.682 108.584 154.351 108.48 154.039C108.376 153.727 108.207 153.44 107.984 153.197C107.761 152.955 107.49 152.762 107.187 152.631C106.885 152.501 106.558 152.436 106.229 152.44C105.531 152.452 104.861 152.72 104.348 153.194C103.835 153.668 103.515 154.315 103.449 155.01Z" fill="white"/>
<path d="M92.099 155.01C92.0666 155.338 92.1037 155.669 92.208 155.981C92.3123 156.294 92.4813 156.58 92.7041 156.823C92.9269 157.066 93.1983 157.258 93.5007 157.389C93.8031 157.519 94.1297 157.585 94.459 157.58C95.1573 157.569 95.8269 157.3 96.3397 156.826C96.8525 156.352 97.1727 155.705 97.239 155.01C97.2714 154.682 97.2343 154.351 97.13 154.039C97.0257 153.727 96.8567 153.44 96.6339 153.197C96.4111 152.955 96.1397 152.762 95.8373 152.631C95.5349 152.501 95.2083 152.436 94.879 152.44C94.1807 152.452 93.5111 152.72 92.9983 153.194C92.4855 153.668 92.1653 154.315 92.099 155.01Z" fill="white"/>
<path d="M80.7489 155.01C80.7165 155.338 80.7537 155.669 80.8579 155.981C80.9622 156.294 81.1312 156.58 81.354 156.823C81.5768 157.066 81.8482 157.258 82.1506 157.389C82.453 157.519 82.7796 157.585 83.1089 157.58C83.8072 157.569 84.4768 157.3 84.9896 156.826C85.5024 156.352 85.8226 155.705 85.8889 155.01C85.9213 154.682 85.8841 154.351 85.7799 154.039C85.6756 153.727 85.5066 153.44 85.2838 153.197C85.061 152.955 84.7896 152.762 84.4872 152.631C84.1848 152.501 83.8582 152.436 83.5289 152.44C82.8306 152.452 82.161 152.72 81.6482 153.194C81.1354 153.668 80.8152 154.315 80.7489 155.01Z" fill="white"/>
<path opacity="0.3" d="M69.399 155.01C69.3666 155.338 69.4038 155.669 69.5081 155.981C69.6123 156.294 69.7814 156.581 70.0041 156.823C70.2269 157.066 70.4984 157.259 70.8008 157.389C71.1032 157.52 71.4297 157.585 71.759 157.58C72.4574 157.569 73.1269 157.3 73.6398 156.826C74.1526 156.352 74.4727 155.706 74.539 155.01C74.5731 154.682 74.5371 154.351 74.4334 154.038C74.3297 153.724 74.1608 153.437 73.9377 153.194C73.7146 152.951 73.4424 152.758 73.1393 152.628C72.8361 152.498 72.5088 152.434 72.179 152.44C71.4807 152.452 70.8112 152.72 70.2984 153.195C69.7855 153.669 69.4653 154.315 69.399 155.01Z" fill="#263238"/>
<path d="M58.049 155.01C58.0165 155.338 58.0537 155.669 58.158 155.981C58.2622 156.294 58.4313 156.581 58.654 156.823C58.8768 157.066 59.1483 157.259 59.4507 157.389C59.7531 157.52 60.0796 157.585 60.409 157.58C61.1073 157.569 61.7768 157.3 62.2896 156.826C62.8025 156.352 63.1226 155.706 63.189 155.01C63.223 154.682 63.187 154.351 63.0833 154.038C62.9796 153.724 62.8106 153.437 62.5876 153.194C62.3645 152.951 62.0924 152.758 61.7892 152.628C61.486 152.498 61.1587 152.434 60.8289 152.44C60.1306 152.452 59.4611 152.72 58.9482 153.195C58.4354 153.669 58.1153 154.315 58.049 155.01Z" fill="white"/>
<path d="M70.0389 57.5301C69.4489 58.4401 68.7489 59.6101 68.1089 60.6701C67.4689 61.7301 66.7989 62.8501 66.1689 63.9601C64.9089 66.1701 63.6689 68.4001 62.5389 70.6601C60.2573 75.009 58.3794 79.5581 56.9289 84.2501L56.4789 85.9301L56.4189 86.1401C56.4189 86.2101 56.4189 86.3001 56.4189 86.2701C56.4158 86.2135 56.4158 86.1567 56.4189 86.1001L56.3589 85.7801C56.3177 85.6163 56.2642 85.4558 56.1989 85.3001C56.1244 85.0918 56.0306 84.891 55.9189 84.7001C55.6774 84.3153 55.3692 83.9767 55.0089 83.7001C54.3389 83.2601 54.1189 83.3301 54.1789 83.3801C54.8694 83.6003 55.5967 83.6819 56.3189 83.6201C57.4539 83.5967 58.5863 83.4998 59.7089 83.3301C64.7577 82.4903 69.7607 81.3956 74.6989 80.0501L77.5689 86.4301C75.1847 87.9584 72.7102 89.341 70.1589 90.5701C67.57 91.85 64.8972 92.9525 62.1589 93.8701C60.6602 94.3507 59.1341 94.7414 57.5889 95.0401C56.7105 95.2051 55.8217 95.3087 54.9289 95.3501C53.8396 95.4197 52.746 95.366 51.6689 95.1901C50.0295 94.9341 48.4796 94.2743 47.1589 93.2701C46.2667 92.5803 45.5163 91.7246 44.9489 90.7501C44.6709 90.2652 44.4367 89.7565 44.2489 89.2301C44.0897 88.7525 43.9628 88.2647 43.8689 87.7701L43.7689 87.0701L43.7189 86.4401C43.6989 86.047 43.6989 85.6532 43.7189 85.2601C43.7189 84.8701 43.7789 84.5701 43.8189 84.2601L43.8689 83.9001V83.6101L44.2589 81.3301C44.8351 78.3944 45.6205 75.5038 46.6089 72.6801C47.5468 69.9319 48.6283 67.2349 49.8489 64.6001C51.0389 61.9801 52.3489 59.4401 53.7489 56.9601C54.4489 55.7101 55.1589 54.4801 55.9189 53.2701C56.6789 52.0601 57.4289 50.9101 58.3489 49.5801L70.0389 57.5301Z" fill="#FF8B7B"/>
<path d="M73.5388 80.55L77.8688 76.23L82.1888 85.84C82.1888 85.84 78.1088 88.11 74.4688 86.46L73.5388 80.55Z" fill="#FF8B7B"/>
<path d="M84.2889 72.7798L87.4789 80.8998L82.1889 85.8398L77.8789 76.2298L84.2889 72.7798Z" fill="#FF8B7B"/>
<path d="M101.229 20.2299C101.129 20.8899 101.399 21.4799 101.829 21.5399C102.259 21.5999 102.689 21.1299 102.829 20.4699C102.969 19.8099 102.659 19.2199 102.229 19.1599C101.799 19.0999 101.329 19.5699 101.229 20.2299Z" fill="#263238"/>
<path d="M101.339 21.4702C101.819 23.599 102.589 25.6516 103.629 27.5702C103.131 27.8235 102.584 27.9646 102.026 27.9836C101.468 28.0026 100.913 27.8991 100.399 27.6802L101.339 21.4702Z" fill="#FF5652"/>
<path d="M99.399 16.2199C99.4449 16.2395 99.4942 16.2495 99.544 16.2495C99.5939 16.2495 99.6432 16.2395 99.689 16.2199C100.121 15.9844 100.603 15.8544 101.094 15.8405C101.586 15.8266 102.074 15.9292 102.519 16.1399C102.564 16.1681 102.614 16.1868 102.666 16.195C102.718 16.2032 102.772 16.2007 102.823 16.1876C102.874 16.1745 102.922 16.1511 102.964 16.1188C103.006 16.0866 103.041 16.0461 103.067 16C103.093 15.9538 103.109 15.9028 103.114 15.8502C103.12 15.7976 103.115 15.7444 103.099 15.6939C103.083 15.6434 103.057 15.5966 103.023 15.5564C102.989 15.5162 102.946 15.4834 102.899 15.4599C102.344 15.1833 101.73 15.0452 101.11 15.0574C100.49 15.0696 99.8827 15.2317 99.339 15.5299C99.2699 15.565 99.2127 15.6199 99.1749 15.6877C99.1371 15.7554 99.1204 15.8328 99.1268 15.9101C99.1333 15.9874 99.1626 16.061 99.2111 16.1216C99.2596 16.1821 99.325 16.2268 99.399 16.2499V16.2199Z" fill="#263238"/>
<path d="M79.699 21.79C80.119 27.93 79.909 39.05 75.219 42.52C75.219 42.52 76.089 48.8 87.219 50.2C99.459 51.73 93.829 44.86 93.829 44.86C87.359 42.42 88.149 37.49 89.899 32.98L79.699 21.79Z" fill="#FF8B7B"/>
<path d="M71.2888 45.2801C71.3565 45.0533 71.3769 44.815 71.3488 44.5801C71.0288 40.6901 73.7288 38.5801 78.4388 38.2401C83.4388 37.8701 90.4988 38.4101 94.8388 42.0701C93.8388 43.0701 94.4888 47.0701 94.4888 47.0701L71.2888 45.2801Z" fill="#263238"/>
<path d="M50.9289 287.31H51.0089C51.1557 287.232 51.2748 287.11 51.35 286.961C51.4251 286.813 51.4527 286.645 51.4289 286.48C51.424 286.349 51.3911 286.221 51.3325 286.103C51.2738 285.986 51.1908 285.883 51.0889 285.8C50.1389 285 47.3989 285.35 47.2889 285.36C47.2514 285.365 47.216 285.381 47.1875 285.406C47.159 285.431 47.1386 285.463 47.1289 285.5C47.1169 285.536 47.1162 285.574 47.127 285.61C47.1377 285.646 47.1594 285.677 47.1889 285.7C47.8289 286.22 49.9489 287.65 50.9289 287.31ZM47.8089 285.67C48.7389 285.6 50.2689 285.59 50.8089 286.06C50.8685 286.11 50.9177 286.171 50.9537 286.239C50.9898 286.308 51.0119 286.383 51.0189 286.46C51.0189 286.83 50.8689 286.9 50.8189 286.93C50.3089 287.18 48.8089 286.42 47.8089 285.67Z" fill="#FFAB03"/>
<path d="M48.6989 285.42C49.6989 285.09 50.6989 284.52 50.8489 283.94C50.8866 283.799 50.8755 283.649 50.8175 283.514C50.7594 283.38 50.6577 283.269 50.5289 283.2C50.4039 283.116 50.2628 283.06 50.1147 283.034C49.9666 283.008 49.8148 283.014 49.6689 283.05C48.4589 283.3 47.1989 285.34 47.1489 285.42C47.1313 285.45 47.1221 285.485 47.1221 285.52C47.1221 285.555 47.1313 285.59 47.1489 285.62C47.167 285.651 47.1933 285.677 47.225 285.695C47.2567 285.712 47.2926 285.721 47.3289 285.72C47.7969 285.682 48.2577 285.581 48.6989 285.42ZM49.6189 283.47H49.7489C49.844 283.446 49.9431 283.442 50.0397 283.46C50.1362 283.477 50.228 283.514 50.3089 283.57C50.5189 283.71 50.4889 283.82 50.4689 283.87C50.3089 284.4 48.7589 285.14 47.7089 285.33C48.1682 284.551 48.8277 283.908 49.6189 283.47Z" fill="#FFAB03"/>
<path d="M111.699 300.98C112.759 300.98 113.779 300.83 114.119 300.36C114.207 300.234 114.254 300.084 114.254 299.93C114.254 299.776 114.207 299.626 114.119 299.5C114.05 299.388 113.96 299.291 113.854 299.213C113.747 299.136 113.627 299.081 113.499 299.05C112.119 298.67 109.239 300.31 109.119 300.38C109.085 300.403 109.058 300.435 109.04 300.472C109.023 300.509 109.015 300.549 109.019 300.59C109.029 300.629 109.049 300.664 109.077 300.692C109.105 300.721 109.14 300.741 109.179 300.75C110.011 300.898 110.854 300.975 111.699 300.98ZM113.009 299.38C113.132 299.364 113.256 299.364 113.379 299.38C113.459 299.398 113.536 299.432 113.603 299.48C113.67 299.528 113.726 299.59 113.769 299.66C113.899 299.9 113.849 300.02 113.769 300.09C113.389 300.62 111.299 300.63 109.769 300.42C110.758 299.869 111.845 299.516 112.969 299.38H113.009Z" fill="#FFAB03"/>
<path d="M109.169 300.74H109.249C110.249 300.3 112.249 298.51 112.059 297.58C112.059 297.36 111.869 297.09 111.329 297.03C111.135 297.011 110.94 297.032 110.754 297.09C110.569 297.149 110.397 297.244 110.249 297.37C109.199 298.23 108.979 300.45 108.969 300.55C108.965 300.583 108.971 300.616 108.985 300.646C108.999 300.676 109.021 300.702 109.049 300.72C109.086 300.74 109.128 300.747 109.169 300.74ZM111.169 297.39H111.289C111.639 297.39 111.659 297.57 111.669 297.61C111.759 298.17 110.419 299.61 109.399 300.18C109.492 299.241 109.873 298.354 110.489 297.64C110.683 297.48 110.928 297.395 111.179 297.4L111.169 297.39Z" fill="#FFAB03"/>
<path d="M100.089 300.55H108.339L109.169 281.45H100.919L100.089 300.55Z" fill="#FF8B7B"/>
<path d="M38.4089 283.13L46.0489 285.23L55.8489 267.32L48.1989 265.22L38.4089 283.13Z" fill="#FF8B7B"/>
<path d="M47.1989 284.4L38.9489 280.17C38.8025 280.097 38.6355 280.076 38.4756 280.11C38.3156 280.145 38.1722 280.233 38.0689 280.36L33.2789 286.14C33.1619 286.281 33.0784 286.447 33.0348 286.625C32.9912 286.802 32.9885 286.988 33.027 287.167C33.0656 287.346 33.1443 287.514 33.2572 287.659C33.3701 287.803 33.5143 287.92 33.6789 288C36.5889 289.42 38.0789 290 41.6789 291.83C43.9189 292.97 50.5589 297.91 53.9089 298.83C57.2589 299.75 58.5589 296.5 57.2689 295.83C53.0335 293.654 49.7735 289.962 48.1389 285.49C47.9717 285.023 47.6367 284.634 47.1989 284.4Z" fill="#263238"/>
<path d="M108.289 299.6H99.2888C99.1255 299.599 98.9668 299.654 98.8393 299.756C98.7118 299.858 98.6233 300.001 98.5888 300.16L96.9588 307.5C96.9177 307.676 96.9174 307.86 96.9578 308.036C96.9983 308.213 97.0784 308.378 97.1922 308.518C97.306 308.659 97.4504 308.772 97.6145 308.849C97.7785 308.925 97.9578 308.963 98.1388 308.96C101.389 308.91 106.089 308.72 110.139 308.72C114.909 308.72 119.039 308.98 124.639 308.98C128.029 308.98 128.969 305.55 127.549 305.24C121.089 303.83 115.819 303.68 110.249 300.24C109.665 299.854 108.988 299.633 108.289 299.6Z" fill="#263238"/>
<path d="M72.8389 59.0698C71.9789 61.2798 71.0289 63.4398 70.0789 65.4698C68.4289 68.9798 66.7989 72.0398 65.5989 74.1498C64.5389 76.0598 63.8489 77.1498 63.8489 77.1498L45.8489 68.2098C45.8489 68.2098 53.1089 47.3398 60.6889 45.0098C68.4389 42.7398 76.6989 49.1198 72.8389 59.0698Z" fill="#FFAB03"/>
<path opacity="0.2" d="M64.8488 61.1299C66.4188 62.2799 67.5388 65.3899 68.3388 69.0399C67.3388 71.0399 66.3388 72.7899 65.5988 74.1499C64.5388 76.0599 63.8488 77.1499 63.8488 77.1499L61.7788 76.1499C61.8242 70.9921 62.8666 65.8918 64.8488 61.1299Z" fill="black"/>
<path d="M110.949 72.3801C110.949 75.1801 110.879 78.2701 110.719 81.6801C110.319 90.9301 109.309 102.46 107.369 116.79H63.2489C62.9489 110.02 67.1989 76.9701 60.6689 45.0501C65.5508 44.115 70.4876 43.4937 75.4489 43.1901C81.6938 42.8299 87.9541 42.8299 94.1989 43.1901C98.481 43.6295 102.723 44.3951 106.889 45.4801C106.889 45.4801 110.959 50.0701 110.949 72.3801Z" fill="#FFAB03"/>
<path d="M112.359 53.2202C112.719 53.9102 113.429 55.0502 114.089 56.0902C114.749 57.1302 115.499 58.2302 116.249 59.3002C117.749 61.4502 119.309 63.5902 120.939 65.6602C124.043 69.7479 127.507 73.5497 131.289 77.0202C132.199 77.8202 133.109 78.5702 134.019 79.2202L134.359 79.4602L134.529 79.5802L134.609 79.6402C134.416 79.5642 134.214 79.5106 134.009 79.4802C133.696 79.3998 133.364 79.428 133.069 79.5602C132.909 79.7402 133.669 79.5602 134.399 79.0102C135.288 78.3899 136.127 77.7012 136.909 76.9502C140.535 73.1647 143.878 69.1171 146.909 64.8402L153.209 67.8402C152.326 70.6779 151.24 73.4484 149.959 76.1302C149.332 77.4636 148.636 78.7969 147.869 80.1302C147.096 81.5113 146.245 82.8468 145.319 84.1302C144.316 85.5414 143.177 86.851 141.919 88.0402C141.175 88.7455 140.368 89.3814 139.509 89.9402C138.426 90.6609 137.239 91.2106 135.989 91.5702C134.324 92.0426 132.567 92.0907 130.879 91.7102C129.997 91.4851 129.147 91.1491 128.349 90.7102L128.059 90.5602L127.919 90.4802L127.649 90.3202L127.099 90.0002C125.696 89.1545 124.337 88.2366 123.029 87.2502C118.244 83.4945 113.884 79.2257 110.029 74.5202C108.139 72.2302 106.309 69.9002 104.609 67.4502C103.749 66.2302 102.909 64.9902 102.099 63.6802C101.194 62.2575 100.376 60.7815 99.6489 59.2602L112.359 53.2202Z" fill="#FF8B7B"/>
<path d="M147.019 64.7402L151.759 57.7402L157.509 66.2002C157.509 66.2002 152.919 70.0702 149.049 69.6602L147.019 64.7402Z" fill="#FF8B7B"/>
<path d="M160.919 54.4302L162.319 62.6202L157.509 66.2302L151.759 57.7702L160.919 54.4302Z" fill="#FF8B7B"/>
<path d="M94.1388 53.8702C94.3988 61.7602 110.639 79.9202 110.639 79.9202L127.799 68.7402C127.799 68.7402 122.359 58.5602 115.289 51.1902C104.639 40.0702 93.8288 44.4102 94.1388 53.8702Z" fill="#FFAB03"/>
<path opacity="0.2" d="M109.159 281.45L108.739 291.3H100.489L100.909 281.45H109.159Z" fill="black"/>
<path opacity="0.2" d="M48.1989 265.22L55.8489 267.33L50.7989 276.56L43.1389 274.45L48.1989 265.22Z" fill="black"/>
<path d="M79.4989 15.5002C78.7689 23.6602 77.9289 28.3902 81.3789 33.1602C86.5689 40.3302 97.0989 38.1602 100.259 30.3802C103.099 23.3802 103.819 11.2202 96.3989 6.80019C94.7673 5.81735 92.9116 5.26804 91.0079 5.20447C89.1043 5.14089 87.216 5.56516 85.5225 6.43695C83.8291 7.30874 82.3867 8.59909 81.3324 10.1854C80.2781 11.7717 79.6469 13.6012 79.4989 15.5002Z" fill="#FF8B7B"/>
<path d="M94.699 21.15C96.089 19.24 100.909 13.22 99.699 8C98.429 2.54 91.359 0.24 88.609 0C90.449 1.91 85.109 0.239997 82.399 1.2C84.809 3.38 78.059 1.12 76.179 3.64C81.089 5.09 73.509 6.64 72.179 8.5C74.549 8.84 74.739 9.7 75.079 10.97C74.219 12.04 74.709 30.92 80.849 33.42C86.629 35.74 97.099 29.45 94.699 21.15Z" fill="#263238"/>
<path d="M98.3889 2.41992C99.4789 3.34992 97.2889 3.65992 94.6089 2.41992L95.5189 10.4899C98.1489 12.9799 103.749 16.2499 104.979 10.2999C106.209 4.34992 101.019 2.73992 98.3889 2.41992Z" fill="#263238"/>
<path d="M91.8988 19.4699C91.5784 21.0709 91.7927 22.7327 92.5088 24.1999C93.5088 26.1199 95.1888 25.5699 95.9588 23.7699C96.6488 22.1599 96.9588 19.2099 95.5188 17.8899C94.0788 16.5699 92.3188 17.5499 91.8988 19.4699Z" fill="#FF8B7B"/>
<path d="M91.6988 116.79C91.6988 116.79 95.5888 179.22 88.2088 202.24C76.5488 238.74 55.6988 275.95 55.6988 275.95L40.7988 271.47C40.7988 271.47 57.1788 232.15 62.5688 201.47C67.4188 173.88 63.2288 139.36 63.2288 116.82L91.6988 116.79Z" fill="#263238"/>
<path opacity="0.2" d="M92.3591 130.74C88.1891 129.53 84.949 129.99 84.099 133.69C81.899 143.36 88.499 168.87 91.789 180.54C93.129 163.74 92.8191 143.74 92.3591 130.74Z" fill="black"/>
<path d="M59.929 271.68C59.989 271.68 56.039 276.29 56.039 276.29L39.759 271.39L41.829 265.89L59.929 271.68Z" fill="#FFAB03"/>
<path d="M107.379 116.79C107.379 116.79 119.809 169.46 120.679 194.62C121.679 222.84 111.819 289.39 111.819 289.39H97.8189C97.8189 289.39 96.0989 222.32 95.4789 196.62C94.7989 168.62 78.3489 116.79 78.3489 116.79H107.379Z" fill="#263238"/>
<path d="M114.499 283.83C114.569 283.83 113.719 289.63 113.719 289.63H96.699L96.239 284.45L114.499 283.83Z" fill="#FFAB03"/>
<path d="M391.5 153L411 136M411 136V273L391.5 296.5M411 136H310L294 153" stroke="white"/>
<rect x="294.5" y="153" width="98" height="144" rx="1.5" stroke="white"/>
<rect x="301.5" y="159" width="83" height="131" rx="3.5" stroke="white"/>
<path d="M319.684 230.75L343.5 189.5L367.316 230.75H319.684Z" fill="#FFAB03" stroke="#F7F6F2"/>
<path d="M343.5 214.625V209.083L336.375 217.792H341.917L341.917 223.333L349.042 214.625L343.5 214.625Z" stroke="#E5E7EB" strokeWidth="2" strokeLinecap="round" strokeLinejoin="round"/>
<circle cx="310" cy="227.5" r="5" fill="#D9D9D9"/>
<rect x="380" y="178.5" width="10" height="15" fill="#D9D9D9"/>
<rect x="380" y="251.5" width="10" height="15" fill="#D9D9D9"/>
<rect x="321" y="249.5" width="46" height="2" fill="#D9D9D9"/>
<rect x="321" y="253.5" width="46" height="2" fill="#D9D9D9"/>
<rect x="321" y="257.5" width="46" height="2" fill="#D9D9D9"/>
</svg>
