<svg width="426" height="375" viewBox="0 0 426 375" fill="none" xmlns="http://www.w3.org/2000/svg">
<rect width="194" height="39" rx="19.5" transform="matrix(-1 0 0 1 426 0)" fill="#03E5E5"/>
<rect width="194" height="39" rx="19.5" transform="matrix(-1 0 0 1 426 84)" fill="#03E5E5"/>
<rect width="194" height="39" rx="19.5" transform="matrix(-1 0 0 1 426 168)" fill="#03E5E5"/>
<rect width="194" height="39" rx="19.5" transform="matrix(-1 0 0 1 426 252)" fill="#03E5E5"/>
<rect width="194" height="39" rx="19.5" transform="matrix(-1 0 0 1 426 336)" fill="#03E5E5"/>
<path d="M258.585 26V12.9091H266.486V14.3153H260.17V18.7386H266.077V20.1449H260.17V24.5938H266.588V26H258.585ZM270.647 20.0938V26H269.138V16.1818H270.596V17.7159H270.724C270.954 17.2173 271.303 16.8168 271.772 16.5142C272.241 16.2074 272.846 16.054 273.587 16.054C274.252 16.054 274.834 16.1903 275.332 16.4631C275.831 16.7315 276.219 17.1406 276.496 17.6903C276.773 18.2358 276.911 18.9261 276.911 19.7614V26H275.403V19.8636C275.403 19.0923 275.202 18.4915 274.802 18.0611C274.401 17.6264 273.852 17.4091 273.153 17.4091C272.671 17.4091 272.241 17.5135 271.862 17.7223C271.487 17.9311 271.19 18.2358 270.973 18.6364C270.756 19.0369 270.647 19.5227 270.647 20.0938ZM283.631 29.8864C282.902 29.8864 282.276 29.7926 281.752 29.6051C281.227 29.4219 280.791 29.179 280.441 28.8764C280.096 28.5781 279.821 28.2585 279.617 27.9176L280.818 27.0739C280.955 27.2528 281.127 27.4574 281.336 27.6875C281.545 27.9219 281.83 28.1243 282.193 28.2947C282.559 28.4695 283.039 28.5568 283.631 28.5568C284.423 28.5568 285.078 28.3651 285.593 27.9815C286.109 27.598 286.367 26.9972 286.367 26.179V24.1847H286.239C286.128 24.3636 285.97 24.5852 285.766 24.8494C285.566 25.1094 285.276 25.3416 284.896 25.5462C284.521 25.7464 284.014 25.8466 283.375 25.8466C282.583 25.8466 281.871 25.6591 281.24 25.2841C280.614 24.9091 280.117 24.3636 279.751 23.6477C279.389 22.9318 279.208 22.0625 279.208 21.0398C279.208 20.0341 279.384 19.1584 279.738 18.4126C280.092 17.6626 280.584 17.0831 281.215 16.674C281.845 16.2607 282.574 16.054 283.401 16.054C284.04 16.054 284.547 16.1605 284.922 16.3736C285.301 16.5824 285.591 16.821 285.791 17.0895C285.996 17.3537 286.154 17.571 286.264 17.7415H286.418V16.1818H287.875V26.2812C287.875 27.125 287.683 27.8111 287.3 28.3395C286.921 28.8722 286.409 29.2621 285.766 29.5092C285.127 29.7607 284.415 29.8864 283.631 29.8864ZM283.58 24.4915C284.185 24.4915 284.696 24.353 285.114 24.076C285.531 23.799 285.849 23.4006 286.066 22.8807C286.284 22.3608 286.392 21.7386 286.392 21.0142C286.392 20.3068 286.286 19.6825 286.073 19.1413C285.86 18.6001 285.544 18.1761 285.127 17.8693C284.709 17.5625 284.193 17.4091 283.58 17.4091C282.941 17.4091 282.408 17.571 281.982 17.8949C281.56 18.2187 281.242 18.6534 281.029 19.1989C280.82 19.7443 280.716 20.3494 280.716 21.0142C280.716 21.696 280.823 22.299 281.036 22.8232C281.253 23.343 281.573 23.7521 281.994 24.0504C282.421 24.3445 282.949 24.4915 283.58 24.4915ZM290.637 26V16.1818H292.145V26H290.637ZM291.404 14.5455C291.11 14.5455 290.856 14.4453 290.643 14.245C290.434 14.0447 290.33 13.804 290.33 13.5227C290.33 13.2415 290.434 13.0007 290.643 12.8004C290.856 12.6001 291.11 12.5 291.404 12.5C291.698 12.5 291.949 12.6001 292.158 12.8004C292.371 13.0007 292.477 13.2415 292.477 13.5227C292.477 13.804 292.371 14.0447 292.158 14.245C291.949 14.4453 291.698 14.5455 291.404 14.5455ZM296.417 20.0938V26H294.908V16.1818H296.365V17.7159H296.493C296.723 17.2173 297.073 16.8168 297.542 16.5142C298.01 16.2074 298.615 16.054 299.357 16.054C300.022 16.054 300.603 16.1903 301.102 16.4631C301.6 16.7315 301.988 17.1406 302.265 17.6903C302.542 18.2358 302.681 18.9261 302.681 19.7614V26H301.172V19.8636C301.172 19.0923 300.972 18.4915 300.571 18.0611C300.171 17.6264 299.621 17.4091 298.922 17.4091C298.441 17.4091 298.01 17.5135 297.631 17.7223C297.256 17.9311 296.96 18.2358 296.743 18.6364C296.525 19.0369 296.417 19.5227 296.417 20.0938ZM309.554 26.2045C308.608 26.2045 307.792 25.9957 307.106 25.5781C306.424 25.1562 305.898 24.5682 305.527 23.8139C305.16 23.0554 304.977 22.1733 304.977 21.1676C304.977 20.1619 305.16 19.2756 305.527 18.5085C305.898 17.7372 306.413 17.1364 307.074 16.706C307.738 16.2713 308.514 16.054 309.4 16.054C309.912 16.054 310.417 16.1392 310.915 16.3097C311.414 16.4801 311.868 16.7571 312.277 17.1406C312.686 17.5199 313.012 18.0227 313.255 18.6491C313.498 19.2756 313.619 20.0469 313.619 20.9631V21.6023H306.051V20.2983H312.085C312.085 19.7443 311.974 19.25 311.753 18.8153C311.535 18.3807 311.224 18.0376 310.819 17.7862C310.419 17.5348 309.946 17.4091 309.4 17.4091C308.8 17.4091 308.28 17.5582 307.841 17.8565C307.406 18.1506 307.072 18.5341 306.837 19.0071C306.603 19.4801 306.486 19.9872 306.486 20.5284V21.3977C306.486 22.1392 306.613 22.7678 306.869 23.2834C307.129 23.7947 307.489 24.1847 307.949 24.4531C308.41 24.7173 308.944 24.8494 309.554 24.8494C309.95 24.8494 310.308 24.794 310.628 24.6832C310.952 24.5682 311.231 24.3977 311.465 24.1719C311.699 23.9418 311.881 23.6562 312.008 23.3153L313.466 23.7244C313.312 24.2188 313.055 24.6534 312.692 25.0284C312.33 25.3991 311.883 25.6889 311.35 25.8977C310.817 26.1023 310.219 26.2045 309.554 26.2045ZM320.03 26.2045C319.084 26.2045 318.268 25.9957 317.582 25.5781C316.9 25.1562 316.374 24.5682 316.003 23.8139C315.637 23.0554 315.454 22.1733 315.454 21.1676C315.454 20.1619 315.637 19.2756 316.003 18.5085C316.374 17.7372 316.89 17.1364 317.55 16.706C318.215 16.2713 318.991 16.054 319.877 16.054C320.388 16.054 320.893 16.1392 321.392 16.3097C321.89 16.4801 322.344 16.7571 322.753 17.1406C323.162 17.5199 323.488 18.0227 323.731 18.6491C323.974 19.2756 324.096 20.0469 324.096 20.9631V21.6023H316.528V20.2983H322.562C322.562 19.7443 322.451 19.25 322.229 18.8153C322.012 18.3807 321.701 18.0376 321.296 17.7862C320.895 17.5348 320.422 17.4091 319.877 17.4091C319.276 17.4091 318.756 17.5582 318.317 17.8565C317.883 18.1506 317.548 18.5341 317.314 19.0071C317.079 19.4801 316.962 19.9872 316.962 20.5284V21.3977C316.962 22.1392 317.09 22.7678 317.346 23.2834C317.606 23.7947 317.966 24.1847 318.426 24.4531C318.886 24.7173 319.421 24.8494 320.03 24.8494C320.427 24.8494 320.785 24.794 321.104 24.6832C321.428 24.5682 321.707 24.3977 321.942 24.1719C322.176 23.9418 322.357 23.6562 322.485 23.3153L323.942 23.7244C323.789 24.2188 323.531 24.6534 323.169 25.0284C322.807 25.3991 322.359 25.6889 321.827 25.8977C321.294 26.1023 320.695 26.2045 320.03 26.2045ZM326.39 26V16.1818H327.848V17.6648H327.95C328.129 17.179 328.453 16.7848 328.922 16.4822C329.39 16.1797 329.919 16.0284 330.507 16.0284C330.618 16.0284 330.756 16.0305 330.922 16.0348C331.089 16.0391 331.214 16.0455 331.3 16.054V17.5881C331.248 17.5753 331.131 17.5561 330.948 17.5305C330.769 17.5007 330.579 17.4858 330.379 17.4858C329.902 17.4858 329.476 17.5859 329.101 17.7862C328.73 17.9822 328.436 18.255 328.219 18.6044C328.006 18.9496 327.899 19.3437 327.899 19.7869V26H326.39ZM333.088 26V16.1818H334.596V26H333.088ZM333.855 14.5455C333.561 14.5455 333.307 14.4453 333.094 14.245C332.885 14.0447 332.781 13.804 332.781 13.5227C332.781 13.2415 332.885 13.0007 333.094 12.8004C333.307 12.6001 333.561 12.5 333.855 12.5C334.149 12.5 334.4 12.6001 334.609 12.8004C334.822 13.0007 334.929 13.2415 334.929 13.5227C334.929 13.804 334.822 14.0447 334.609 14.245C334.4 14.4453 334.149 14.5455 333.855 14.5455ZM338.868 20.0938V26H337.359V16.1818H338.817V17.7159H338.944C339.175 17.2173 339.524 16.8168 339.993 16.5142C340.461 16.2074 341.067 16.054 341.808 16.054C342.473 16.054 343.055 16.1903 343.553 16.4631C344.052 16.7315 344.439 17.1406 344.716 17.6903C344.993 18.2358 345.132 18.9261 345.132 19.7614V26H343.623V19.8636C343.623 19.0923 343.423 18.4915 343.023 18.0611C342.622 17.6264 342.072 17.4091 341.373 17.4091C340.892 17.4091 340.461 17.5135 340.082 17.7223C339.707 17.9311 339.411 18.2358 339.194 18.6364C338.976 19.0369 338.868 19.5227 338.868 20.0938ZM351.852 29.8864C351.123 29.8864 350.496 29.7926 349.972 29.6051C349.448 29.4219 349.011 29.179 348.662 28.8764C348.317 28.5781 348.042 28.2585 347.837 27.9176L349.039 27.0739C349.175 27.2528 349.348 27.4574 349.557 27.6875C349.766 27.9219 350.051 28.1243 350.413 28.2947C350.78 28.4695 351.259 28.5568 351.852 28.5568C352.644 28.5568 353.298 28.3651 353.814 27.9815C354.33 27.598 354.587 26.9972 354.587 26.179V24.1847H354.46C354.349 24.3636 354.191 24.5852 353.987 24.8494C353.786 25.1094 353.496 25.3416 353.117 25.5462C352.742 25.7464 352.235 25.8466 351.596 25.8466C350.803 25.8466 350.092 25.6591 349.461 25.2841C348.835 24.9091 348.338 24.3636 347.972 23.6477C347.609 22.9318 347.428 22.0625 347.428 21.0398C347.428 20.0341 347.605 19.1584 347.959 18.4126C348.313 17.6626 348.805 17.0831 349.435 16.674C350.066 16.2607 350.795 16.054 351.621 16.054C352.261 16.054 352.768 16.1605 353.143 16.3736C353.522 16.5824 353.812 16.821 354.012 17.0895C354.217 17.3537 354.374 17.571 354.485 17.7415H354.638V16.1818H356.096V26.2812C356.096 27.125 355.904 27.8111 355.521 28.3395C355.141 28.8722 354.63 29.2621 353.987 29.5092C353.347 29.7607 352.636 29.8864 351.852 29.8864ZM351.8 24.4915C352.406 24.4915 352.917 24.353 353.335 24.076C353.752 23.799 354.07 23.4006 354.287 22.8807C354.504 22.3608 354.613 21.7386 354.613 21.0142C354.613 20.3068 354.506 19.6825 354.293 19.1413C354.08 18.6001 353.765 18.1761 353.347 17.8693C352.93 17.5625 352.414 17.4091 351.8 17.4091C351.161 17.4091 350.629 17.571 350.202 17.8949C349.781 18.2187 349.463 18.6534 349.25 19.1989C349.041 19.7443 348.937 20.3494 348.937 21.0142C348.937 21.696 349.043 22.299 349.256 22.8232C349.474 23.343 349.793 23.7521 350.215 24.0504C350.641 24.3445 351.17 24.4915 351.8 24.4915ZM364.124 26V12.9091H368.701C369.613 12.9091 370.365 13.0668 370.957 13.3821C371.55 13.6932 371.991 14.1129 372.281 14.6413C372.57 15.1655 372.715 15.7472 372.715 16.3864C372.715 16.9489 372.615 17.4134 372.415 17.7798C372.219 18.1463 371.959 18.4361 371.635 18.6491C371.315 18.8622 370.968 19.0199 370.593 19.1222V19.25C370.994 19.2756 371.396 19.4162 371.801 19.6719C372.206 19.9276 372.545 20.294 372.817 20.7713C373.09 21.2486 373.227 21.8324 373.227 22.5227C373.227 23.179 373.077 23.7692 372.779 24.2933C372.481 24.8175 372.01 25.233 371.366 25.5398C370.723 25.8466 369.886 26 368.854 26H364.124ZM365.71 24.5938H368.854C369.89 24.5938 370.625 24.3935 371.06 23.9929C371.499 23.5881 371.718 23.098 371.718 22.5227C371.718 22.0795 371.605 21.6705 371.379 21.2955C371.153 20.9162 370.832 20.6136 370.414 20.3878C369.996 20.1577 369.502 20.0426 368.931 20.0426H365.71V24.5938ZM365.71 18.6619H368.65C369.127 18.6619 369.558 18.5682 369.941 18.3807C370.329 18.1932 370.636 17.929 370.862 17.5881C371.092 17.2472 371.207 16.8466 371.207 16.3864C371.207 15.8111 371.006 15.3232 370.606 14.9226C370.205 14.5178 369.57 14.3153 368.701 14.3153H365.71V18.6619ZM386.877 19.4545C386.877 20.8352 386.627 22.0284 386.129 23.0341C385.63 24.0398 384.946 24.8153 384.077 25.3608C383.208 25.9062 382.215 26.179 381.098 26.179C379.982 26.179 378.989 25.9062 378.12 25.3608C377.25 24.8153 376.566 24.0398 376.068 23.0341C375.569 22.0284 375.32 20.8352 375.32 19.4545C375.32 18.0739 375.569 16.8807 376.068 15.875C376.566 14.8693 377.25 14.0938 378.12 13.5483C378.989 13.0028 379.982 12.7301 381.098 12.7301C382.215 12.7301 383.208 13.0028 384.077 13.5483C384.946 14.0938 385.63 14.8693 386.129 15.875C386.627 16.8807 386.877 18.0739 386.877 19.4545ZM385.343 19.4545C385.343 18.321 385.153 17.3643 384.774 16.5845C384.399 15.8047 383.89 15.2145 383.246 14.8139C382.607 14.4134 381.891 14.2131 381.098 14.2131C380.306 14.2131 379.588 14.4134 378.944 14.8139C378.305 15.2145 377.796 15.8047 377.417 16.5845C377.042 17.3643 376.854 18.321 376.854 19.4545C376.854 20.5881 377.042 21.5447 377.417 22.3246C377.796 23.1044 378.305 23.6946 378.944 24.0952C379.588 24.4957 380.306 24.696 381.098 24.696C381.891 24.696 382.607 24.4957 383.246 24.0952C383.89 23.6946 384.399 23.1044 384.774 22.3246C385.153 21.5447 385.343 20.5881 385.343 19.4545ZM389.542 12.9091H391.434L395.883 23.7756H396.037L400.485 12.9091H402.377V26H400.895V16.054H400.767L396.676 26H395.244L391.153 16.054H391.025V26H389.542V12.9091Z" fill="#111827"/>
<path d="M246.585 96.9091H248.477L252.926 107.776H253.08L257.528 96.9091H259.42V110H257.938V100.054H257.81L253.719 110H252.287L248.196 100.054H248.068V110H246.585V96.9091ZM265.284 110.23C264.661 110.23 264.097 110.113 263.59 109.879C263.083 109.64 262.68 109.297 262.382 108.849C262.083 108.398 261.934 107.852 261.934 107.213C261.934 106.651 262.045 106.195 262.267 105.845C262.488 105.491 262.784 105.214 263.155 105.014C263.526 104.814 263.935 104.665 264.382 104.567C264.834 104.464 265.288 104.384 265.744 104.324C266.34 104.247 266.824 104.19 267.195 104.151C267.57 104.109 267.843 104.038 268.013 103.94C268.188 103.842 268.275 103.672 268.275 103.429V103.378C268.275 102.747 268.102 102.257 267.757 101.908C267.416 101.558 266.899 101.384 266.204 101.384C265.484 101.384 264.919 101.541 264.51 101.857C264.101 102.172 263.813 102.509 263.647 102.866L262.215 102.355C262.471 101.759 262.812 101.294 263.238 100.962C263.669 100.625 264.137 100.391 264.644 100.259C265.156 100.122 265.659 100.054 266.153 100.054C266.468 100.054 266.83 100.092 267.24 100.169C267.653 100.241 268.051 100.393 268.435 100.623C268.823 100.853 269.144 101.2 269.4 101.665C269.656 102.129 269.784 102.751 269.784 103.531V110H268.275V108.67H268.198C268.096 108.884 267.926 109.112 267.687 109.354C267.448 109.597 267.131 109.804 266.735 109.974C266.338 110.145 265.855 110.23 265.284 110.23ZM265.514 108.875C266.11 108.875 266.613 108.758 267.022 108.523C267.436 108.289 267.747 107.987 267.955 107.616C268.169 107.245 268.275 106.855 268.275 106.446V105.065C268.211 105.142 268.07 105.212 267.853 105.276C267.64 105.336 267.393 105.389 267.112 105.436C266.835 105.479 266.564 105.517 266.3 105.551C266.04 105.581 265.829 105.607 265.667 105.628C265.275 105.679 264.909 105.762 264.568 105.877C264.231 105.988 263.958 106.156 263.749 106.382C263.545 106.604 263.443 106.906 263.443 107.29C263.443 107.814 263.637 108.21 264.024 108.479C264.416 108.743 264.913 108.875 265.514 108.875ZM274.045 104.094V110H272.537V100.182H273.994V101.716H274.122C274.352 101.217 274.702 100.817 275.17 100.514C275.639 100.207 276.244 100.054 276.986 100.054C277.651 100.054 278.232 100.19 278.731 100.463C279.229 100.732 279.617 101.141 279.894 101.69C280.171 102.236 280.31 102.926 280.31 103.761V110H278.801V103.864C278.801 103.092 278.601 102.491 278.2 102.061C277.8 101.626 277.25 101.409 276.551 101.409C276.07 101.409 275.639 101.513 275.26 101.722C274.885 101.931 274.589 102.236 274.371 102.636C274.154 103.037 274.045 103.523 274.045 104.094ZM289.254 105.986V100.182H290.762V110H289.254V108.338H289.151C288.921 108.837 288.563 109.261 288.078 109.61C287.592 109.955 286.978 110.128 286.237 110.128C285.623 110.128 285.078 109.994 284.6 109.725C284.123 109.452 283.748 109.043 283.475 108.498C283.203 107.948 283.066 107.256 283.066 106.42V100.182H284.575V106.318C284.575 107.034 284.775 107.605 285.176 108.031C285.58 108.457 286.096 108.67 286.722 108.67C287.097 108.67 287.479 108.575 287.867 108.383C288.259 108.191 288.587 107.897 288.851 107.501C289.119 107.104 289.254 106.599 289.254 105.986ZM297.897 100.182V101.46H292.605V100.182H297.897ZM294.19 110V98.8267C294.19 98.2642 294.322 97.7955 294.586 97.4205C294.85 97.0455 295.194 96.7642 295.615 96.5767C296.037 96.3892 296.483 96.2955 296.951 96.2955C297.322 96.2955 297.625 96.3253 297.859 96.3849C298.093 96.4446 298.268 96.5 298.383 96.5511L297.949 97.8551C297.872 97.8295 297.765 97.7976 297.629 97.7592C297.497 97.7209 297.322 97.7017 297.105 97.7017C296.606 97.7017 296.246 97.8274 296.025 98.0788C295.807 98.3303 295.699 98.6989 295.699 99.1847V110H294.19ZM302.619 110.23C301.997 110.23 301.433 110.113 300.926 109.879C300.419 109.64 300.016 109.297 299.718 108.849C299.419 108.398 299.27 107.852 299.27 107.213C299.27 106.651 299.381 106.195 299.602 105.845C299.824 105.491 300.12 105.214 300.491 105.014C300.862 104.814 301.271 104.665 301.718 104.567C302.17 104.464 302.624 104.384 303.08 104.324C303.676 104.247 304.16 104.19 304.531 104.151C304.906 104.109 305.178 104.038 305.349 103.94C305.524 103.842 305.611 103.672 305.611 103.429V103.378C305.611 102.747 305.438 102.257 305.093 101.908C304.752 101.558 304.235 101.384 303.54 101.384C302.82 101.384 302.255 101.541 301.846 101.857C301.437 102.172 301.149 102.509 300.983 102.866L299.551 102.355C299.807 101.759 300.148 101.294 300.574 100.962C301.004 100.625 301.473 100.391 301.98 100.259C302.492 100.122 302.994 100.054 303.489 100.054C303.804 100.054 304.166 100.092 304.575 100.169C304.989 100.241 305.387 100.393 305.771 100.623C306.159 100.853 306.48 101.2 306.736 101.665C306.992 102.129 307.119 102.751 307.119 103.531V110H305.611V108.67H305.534C305.432 108.884 305.262 109.112 305.023 109.354C304.784 109.597 304.467 109.804 304.07 109.974C303.674 110.145 303.191 110.23 302.619 110.23ZM302.85 108.875C303.446 108.875 303.949 108.758 304.358 108.523C304.771 108.289 305.083 107.987 305.291 107.616C305.504 107.245 305.611 106.855 305.611 106.446V105.065C305.547 105.142 305.406 105.212 305.189 105.276C304.976 105.336 304.729 105.389 304.448 105.436C304.171 105.479 303.9 105.517 303.636 105.551C303.376 105.581 303.165 105.607 303.003 105.628C302.611 105.679 302.244 105.762 301.904 105.877C301.567 105.988 301.294 106.156 301.085 106.382C300.881 106.604 300.779 106.906 300.779 107.29C300.779 107.814 300.972 108.21 301.36 108.479C301.752 108.743 302.249 108.875 302.85 108.875ZM313.862 110.205C312.941 110.205 312.148 109.987 311.484 109.553C310.819 109.118 310.308 108.519 309.95 107.756C309.592 106.994 309.413 106.122 309.413 105.142C309.413 104.145 309.596 103.265 309.962 102.502C310.333 101.735 310.849 101.136 311.509 100.706C312.174 100.271 312.95 100.054 313.836 100.054C314.526 100.054 315.148 100.182 315.702 100.438C316.256 100.693 316.71 101.051 317.064 101.511C317.418 101.972 317.637 102.509 317.722 103.122H316.214C316.099 102.675 315.843 102.278 315.447 101.933C315.055 101.584 314.526 101.409 313.862 101.409C313.273 101.409 312.758 101.562 312.315 101.869C311.876 102.172 311.533 102.6 311.286 103.154C311.043 103.704 310.921 104.349 310.921 105.091C310.921 105.849 311.04 106.51 311.279 107.072C311.522 107.635 311.863 108.072 312.302 108.383C312.745 108.694 313.265 108.849 313.862 108.849C314.254 108.849 314.609 108.781 314.929 108.645C315.249 108.509 315.519 108.312 315.741 108.057C315.962 107.801 316.12 107.494 316.214 107.136H317.722C317.637 107.716 317.426 108.238 317.089 108.702C316.757 109.163 316.316 109.529 315.766 109.802C315.221 110.07 314.586 110.205 313.862 110.205ZM324.197 100.182V101.46H319.109V100.182H324.197ZM320.592 97.8295H322.101V107.188C322.101 107.614 322.163 107.933 322.286 108.146C322.414 108.355 322.576 108.496 322.772 108.568C322.972 108.636 323.183 108.67 323.405 108.67C323.571 108.67 323.707 108.662 323.814 108.645C323.92 108.624 324.006 108.607 324.07 108.594L324.376 109.949C324.274 109.987 324.131 110.026 323.948 110.064C323.765 110.107 323.533 110.128 323.251 110.128C322.825 110.128 322.408 110.036 321.999 109.853C321.594 109.67 321.257 109.391 320.989 109.016C320.724 108.641 320.592 108.168 320.592 107.597V97.8295ZM332.654 105.986V100.182H334.163V110H332.654V108.338H332.552C332.322 108.837 331.964 109.261 331.478 109.61C330.992 109.955 330.379 110.128 329.637 110.128C329.023 110.128 328.478 109.994 328.001 109.725C327.523 109.452 327.148 109.043 326.876 108.498C326.603 107.948 326.467 107.256 326.467 106.42V100.182H327.975V106.318C327.975 107.034 328.175 107.605 328.576 108.031C328.981 108.457 329.496 108.67 330.123 108.67C330.498 108.67 330.879 108.575 331.267 108.383C331.659 108.191 331.987 107.897 332.251 107.501C332.52 107.104 332.654 106.599 332.654 105.986ZM336.926 110V100.182H338.383V101.665H338.485C338.664 101.179 338.988 100.785 339.457 100.482C339.926 100.18 340.454 100.028 341.042 100.028C341.153 100.028 341.291 100.031 341.458 100.035C341.624 100.039 341.749 100.045 341.835 100.054V101.588C341.784 101.575 341.666 101.556 341.483 101.531C341.304 101.501 341.115 101.486 340.914 101.486C340.437 101.486 340.011 101.586 339.636 101.786C339.265 101.982 338.971 102.255 338.754 102.604C338.541 102.95 338.434 103.344 338.434 103.787V110H336.926ZM343.623 110V100.182H345.131V110H343.623ZM344.39 98.5455C344.096 98.5455 343.842 98.4453 343.629 98.245C343.42 98.0447 343.316 97.804 343.316 97.5227C343.316 97.2415 343.42 97.0007 343.629 96.8004C343.842 96.6001 344.096 96.5 344.39 96.5C344.684 96.5 344.935 96.6001 345.144 96.8004C345.357 97.0007 345.464 97.2415 345.464 97.5227C345.464 97.804 345.357 98.0447 345.144 98.245C344.935 98.4453 344.684 98.5455 344.39 98.5455ZM349.403 104.094V110H347.894V100.182H349.352V101.716H349.48C349.71 101.217 350.059 100.817 350.528 100.514C350.997 100.207 351.602 100.054 352.343 100.054C353.008 100.054 353.59 100.19 354.088 100.463C354.587 100.732 354.975 101.141 355.252 101.69C355.529 102.236 355.667 102.926 355.667 103.761V110H354.159V103.864C354.159 103.092 353.958 102.491 353.558 102.061C353.157 101.626 352.607 101.409 351.909 101.409C351.427 101.409 350.997 101.513 350.617 101.722C350.242 101.931 349.946 102.236 349.729 102.636C349.512 103.037 349.403 103.523 349.403 104.094ZM362.387 113.886C361.658 113.886 361.032 113.793 360.507 113.605C359.983 113.422 359.547 113.179 359.197 112.876C358.852 112.578 358.577 112.259 358.373 111.918L359.574 111.074C359.711 111.253 359.883 111.457 360.092 111.688C360.301 111.922 360.586 112.124 360.949 112.295C361.315 112.469 361.794 112.557 362.387 112.557C363.179 112.557 363.833 112.365 364.349 111.982C364.865 111.598 365.123 110.997 365.123 110.179V108.185H364.995C364.884 108.364 364.726 108.585 364.522 108.849C364.321 109.109 364.032 109.342 363.652 109.546C363.277 109.746 362.77 109.847 362.131 109.847C361.338 109.847 360.627 109.659 359.996 109.284C359.37 108.909 358.873 108.364 358.507 107.648C358.145 106.932 357.963 106.062 357.963 105.04C357.963 104.034 358.14 103.158 358.494 102.413C358.848 101.663 359.34 101.083 359.971 100.674C360.601 100.261 361.33 100.054 362.157 100.054C362.796 100.054 363.303 100.161 363.678 100.374C364.057 100.582 364.347 100.821 364.547 101.089C364.752 101.354 364.909 101.571 365.02 101.741H365.174V100.182H366.631V110.281C366.631 111.125 366.439 111.811 366.056 112.339C365.676 112.872 365.165 113.262 364.522 113.509C363.882 113.761 363.171 113.886 362.387 113.886ZM362.336 108.491C362.941 108.491 363.452 108.353 363.87 108.076C364.287 107.799 364.605 107.401 364.822 106.881C365.039 106.361 365.148 105.739 365.148 105.014C365.148 104.307 365.042 103.683 364.828 103.141C364.615 102.6 364.3 102.176 363.882 101.869C363.465 101.562 362.949 101.409 362.336 101.409C361.696 101.409 361.164 101.571 360.738 101.895C360.316 102.219 359.998 102.653 359.785 103.199C359.576 103.744 359.472 104.349 359.472 105.014C359.472 105.696 359.578 106.299 359.792 106.823C360.009 107.343 360.328 107.752 360.75 108.05C361.176 108.344 361.705 108.491 362.336 108.491ZM374.659 110V96.9091H379.236C380.148 96.9091 380.9 97.0668 381.493 97.3821C382.085 97.6932 382.526 98.1129 382.816 98.6413C383.105 99.1655 383.25 99.7472 383.25 100.386C383.25 100.949 383.15 101.413 382.95 101.78C382.754 102.146 382.494 102.436 382.17 102.649C381.85 102.862 381.503 103.02 381.128 103.122V103.25C381.529 103.276 381.931 103.416 382.336 103.672C382.741 103.928 383.08 104.294 383.353 104.771C383.625 105.249 383.762 105.832 383.762 106.523C383.762 107.179 383.613 107.769 383.314 108.293C383.016 108.817 382.545 109.233 381.902 109.54C381.258 109.847 380.421 110 379.39 110H374.659ZM376.245 108.594H379.39C380.425 108.594 381.16 108.393 381.595 107.993C382.034 107.588 382.253 107.098 382.253 106.523C382.253 106.08 382.14 105.67 381.914 105.295C381.689 104.916 381.367 104.614 380.949 104.388C380.532 104.158 380.037 104.043 379.466 104.043H376.245V108.594ZM376.245 102.662H379.185C379.662 102.662 380.093 102.568 380.476 102.381C380.864 102.193 381.171 101.929 381.397 101.588C381.627 101.247 381.742 100.847 381.742 100.386C381.742 99.8111 381.542 99.3232 381.141 98.9226C380.74 98.5178 380.105 98.3153 379.236 98.3153H376.245V102.662ZM397.412 103.455C397.412 104.835 397.163 106.028 396.664 107.034C396.165 108.04 395.482 108.815 394.612 109.361C393.743 109.906 392.75 110.179 391.634 110.179C390.517 110.179 389.524 109.906 388.655 109.361C387.786 108.815 387.102 108.04 386.603 107.034C386.104 106.028 385.855 104.835 385.855 103.455C385.855 102.074 386.104 100.881 386.603 99.875C387.102 98.8693 387.786 98.0938 388.655 97.5483C389.524 97.0028 390.517 96.7301 391.634 96.7301C392.75 96.7301 393.743 97.0028 394.612 97.5483C395.482 98.0938 396.165 98.8693 396.664 99.875C397.163 100.881 397.412 102.074 397.412 103.455ZM395.878 103.455C395.878 102.321 395.688 101.364 395.309 100.585C394.934 99.8047 394.425 99.2145 393.781 98.8139C393.142 98.4134 392.426 98.2131 391.634 98.2131C390.841 98.2131 390.123 98.4134 389.479 98.8139C388.84 99.2145 388.331 99.8047 387.952 100.585C387.577 101.364 387.389 102.321 387.389 103.455C387.389 104.588 387.577 105.545 387.952 106.325C388.331 107.104 388.84 107.695 389.479 108.095C390.123 108.496 390.841 108.696 391.634 108.696C392.426 108.696 393.142 108.496 393.781 108.095C394.425 107.695 394.934 107.104 395.309 106.325C395.688 105.545 395.878 104.588 395.878 103.455ZM400.077 96.9091H401.969L406.418 107.776H406.572L411.021 96.9091H412.913V110H411.43V100.054H411.302L407.211 110H405.779L401.688 100.054H401.56V110H400.077V96.9091Z" fill="#111827"/>
<path d="M272.585 194V180.909H277.162C278.074 180.909 278.826 181.067 279.418 181.382C280.011 181.693 280.452 182.113 280.741 182.641C281.031 183.165 281.176 183.747 281.176 184.386C281.176 184.949 281.076 185.413 280.876 185.78C280.68 186.146 280.42 186.436 280.096 186.649C279.776 186.862 279.429 187.02 279.054 187.122V187.25C279.455 187.276 279.857 187.416 280.262 187.672C280.667 187.928 281.006 188.294 281.278 188.771C281.551 189.249 281.688 189.832 281.688 190.523C281.688 191.179 281.538 191.769 281.24 192.293C280.942 192.817 280.471 193.233 279.827 193.54C279.184 193.847 278.347 194 277.315 194H272.585ZM274.17 192.594H277.315C278.351 192.594 279.086 192.393 279.521 191.993C279.96 191.588 280.179 191.098 280.179 190.523C280.179 190.08 280.066 189.67 279.84 189.295C279.614 188.916 279.293 188.614 278.875 188.388C278.457 188.158 277.963 188.043 277.392 188.043H274.17V192.594ZM274.17 186.662H277.111C277.588 186.662 278.018 186.568 278.402 186.381C278.79 186.193 279.097 185.929 279.322 185.588C279.553 185.247 279.668 184.847 279.668 184.386C279.668 183.811 279.467 183.323 279.067 182.923C278.666 182.518 278.031 182.315 277.162 182.315H274.17V186.662ZM284.088 194V184.182H285.596V194H284.088ZM284.855 182.545C284.561 182.545 284.307 182.445 284.094 182.245C283.885 182.045 283.781 181.804 283.781 181.523C283.781 181.241 283.885 181.001 284.094 180.8C284.307 180.6 284.561 180.5 284.855 180.5C285.149 180.5 285.4 180.6 285.609 180.8C285.822 181.001 285.929 181.241 285.929 181.523C285.929 181.804 285.822 182.045 285.609 182.245C285.4 182.445 285.149 182.545 284.855 182.545ZM289.868 180.909V194H288.359V180.909H289.868ZM294.139 180.909V194H292.631V180.909H294.139ZM305.953 194.205C305.067 194.205 304.289 193.994 303.62 193.572C302.955 193.15 302.436 192.56 302.061 191.801C301.69 191.043 301.504 190.156 301.504 189.142C301.504 188.119 301.69 187.227 302.061 186.464C302.436 185.701 302.955 185.109 303.62 184.687C304.289 184.265 305.067 184.054 305.953 184.054C306.84 184.054 307.615 184.265 308.28 184.687C308.949 185.109 309.469 185.701 309.84 186.464C310.215 187.227 310.402 188.119 310.402 189.142C310.402 190.156 310.215 191.043 309.84 191.801C309.469 192.56 308.949 193.15 308.28 193.572C307.615 193.994 306.84 194.205 305.953 194.205ZM305.953 192.849C306.627 192.849 307.181 192.677 307.615 192.332C308.05 191.987 308.372 191.533 308.58 190.97C308.789 190.408 308.894 189.798 308.894 189.142C308.894 188.486 308.789 187.874 308.58 187.308C308.372 186.741 308.05 186.283 307.615 185.933C307.181 185.584 306.627 185.409 305.953 185.409C305.28 185.409 304.726 185.584 304.291 185.933C303.857 186.283 303.535 186.741 303.326 187.308C303.117 187.874 303.013 188.486 303.013 189.142C303.013 189.798 303.117 190.408 303.326 190.97C303.535 191.533 303.857 191.987 304.291 192.332C304.726 192.677 305.28 192.849 305.953 192.849ZM317.077 184.182V185.46H311.784V184.182H317.077ZM313.37 194V182.827C313.37 182.264 313.502 181.795 313.766 181.42C314.03 181.045 314.373 180.764 314.795 180.577C315.217 180.389 315.662 180.295 316.131 180.295C316.502 180.295 316.804 180.325 317.039 180.385C317.273 180.445 317.448 180.5 317.563 180.551L317.128 181.855C317.051 181.83 316.945 181.798 316.809 181.759C316.676 181.721 316.502 181.702 316.284 181.702C315.786 181.702 315.426 181.827 315.204 182.079C314.987 182.33 314.878 182.699 314.878 183.185V194H313.37ZM324.458 194V180.909H328.882C329.909 180.909 330.748 181.094 331.4 181.465C332.056 181.832 332.542 182.328 332.857 182.955C333.173 183.581 333.33 184.28 333.33 185.051C333.33 185.822 333.173 186.523 332.857 187.154C332.546 187.785 332.065 188.288 331.413 188.663C330.761 189.033 329.926 189.219 328.907 189.219H325.737V187.812H328.856C329.559 187.812 330.124 187.691 330.55 187.448C330.976 187.205 331.285 186.877 331.477 186.464C331.673 186.046 331.771 185.575 331.771 185.051C331.771 184.527 331.673 184.058 331.477 183.645C331.285 183.232 330.974 182.908 330.544 182.673C330.113 182.435 329.542 182.315 328.83 182.315H326.044V194H324.458ZM335.68 194V184.182H337.137V185.665H337.239C337.418 185.179 337.742 184.785 338.211 184.482C338.68 184.18 339.208 184.028 339.796 184.028C339.907 184.028 340.045 184.031 340.211 184.035C340.378 184.039 340.503 184.045 340.589 184.054V185.588C340.537 185.575 340.42 185.556 340.237 185.531C340.058 185.501 339.868 185.486 339.668 185.486C339.191 185.486 338.765 185.586 338.39 185.786C338.019 185.982 337.725 186.255 337.508 186.604C337.295 186.95 337.188 187.344 337.188 187.787V194H335.68ZM346.067 194.205C345.18 194.205 344.403 193.994 343.733 193.572C343.069 193.15 342.549 192.56 342.174 191.801C341.803 191.043 341.618 190.156 341.618 189.142C341.618 188.119 341.803 187.227 342.174 186.464C342.549 185.701 343.069 185.109 343.733 184.687C344.403 184.265 345.18 184.054 346.067 184.054C346.953 184.054 347.729 184.265 348.393 184.687C349.062 185.109 349.582 185.701 349.953 186.464C350.328 187.227 350.515 188.119 350.515 189.142C350.515 190.156 350.328 191.043 349.953 191.801C349.582 192.56 349.062 193.15 348.393 193.572C347.729 193.994 346.953 194.205 346.067 194.205ZM346.067 192.849C346.74 192.849 347.294 192.677 347.729 192.332C348.163 191.987 348.485 191.533 348.694 190.97C348.903 190.408 349.007 189.798 349.007 189.142C349.007 188.486 348.903 187.874 348.694 187.308C348.485 186.741 348.163 186.283 347.729 185.933C347.294 185.584 346.74 185.409 346.067 185.409C345.393 185.409 344.839 185.584 344.405 185.933C343.97 186.283 343.648 186.741 343.439 187.308C343.231 187.874 343.126 188.486 343.126 189.142C343.126 189.798 343.231 190.408 343.439 190.97C343.648 191.533 343.97 191.987 344.405 192.332C344.839 192.677 345.393 192.849 346.067 192.849ZM356.807 194.205C355.886 194.205 355.094 193.987 354.429 193.553C353.764 193.118 353.253 192.519 352.895 191.756C352.537 190.994 352.358 190.122 352.358 189.142C352.358 188.145 352.541 187.265 352.908 186.502C353.278 185.735 353.794 185.136 354.455 184.706C355.119 184.271 355.895 184.054 356.781 184.054C357.472 184.054 358.094 184.182 358.648 184.438C359.202 184.693 359.656 185.051 360.009 185.511C360.363 185.972 360.582 186.509 360.668 187.122H359.159C359.044 186.675 358.788 186.278 358.392 185.933C358 185.584 357.472 185.409 356.807 185.409C356.219 185.409 355.703 185.562 355.26 185.869C354.821 186.172 354.478 186.6 354.231 187.154C353.988 187.704 353.866 188.349 353.866 189.091C353.866 189.849 353.986 190.51 354.224 191.072C354.467 191.635 354.808 192.072 355.247 192.383C355.69 192.694 356.21 192.849 356.807 192.849C357.199 192.849 357.555 192.781 357.874 192.645C358.194 192.509 358.464 192.312 358.686 192.057C358.908 191.801 359.065 191.494 359.159 191.136H360.668C360.582 191.716 360.371 192.238 360.035 192.702C359.702 193.163 359.261 193.529 358.712 193.802C358.166 194.07 357.531 194.205 356.807 194.205ZM366.989 194.205C366.043 194.205 365.227 193.996 364.541 193.578C363.859 193.156 363.333 192.568 362.962 191.814C362.596 191.055 362.413 190.173 362.413 189.168C362.413 188.162 362.596 187.276 362.962 186.509C363.333 185.737 363.849 185.136 364.509 184.706C365.174 184.271 365.95 184.054 366.836 184.054C367.347 184.054 367.852 184.139 368.351 184.31C368.849 184.48 369.303 184.757 369.712 185.141C370.121 185.52 370.447 186.023 370.69 186.649C370.933 187.276 371.055 188.047 371.055 188.963V189.602H363.487V188.298H369.521C369.521 187.744 369.41 187.25 369.188 186.815C368.971 186.381 368.66 186.038 368.255 185.786C367.854 185.535 367.381 185.409 366.836 185.409C366.235 185.409 365.715 185.558 365.276 185.857C364.842 186.151 364.507 186.534 364.273 187.007C364.038 187.48 363.921 187.987 363.921 188.528V189.398C363.921 190.139 364.049 190.768 364.305 191.283C364.565 191.795 364.925 192.185 365.385 192.453C365.845 192.717 366.38 192.849 366.989 192.849C367.386 192.849 367.744 192.794 368.063 192.683C368.387 192.568 368.666 192.398 368.901 192.172C369.135 191.942 369.316 191.656 369.444 191.315L370.901 191.724C370.748 192.219 370.49 192.653 370.128 193.028C369.766 193.399 369.318 193.689 368.786 193.898C368.253 194.102 367.654 194.205 366.989 194.205ZM380.304 186.381L378.949 186.764C378.864 186.538 378.738 186.319 378.572 186.106C378.41 185.888 378.188 185.71 377.907 185.569C377.626 185.428 377.266 185.358 376.827 185.358C376.226 185.358 375.725 185.496 375.325 185.773C374.928 186.046 374.73 186.393 374.73 186.815C374.73 187.19 374.866 187.487 375.139 187.704C375.412 187.921 375.838 188.102 376.418 188.247L377.875 188.605C378.753 188.818 379.407 189.144 379.837 189.583C380.268 190.018 380.483 190.578 380.483 191.264C380.483 191.827 380.321 192.33 379.997 192.773C379.678 193.216 379.23 193.565 378.655 193.821C378.08 194.077 377.411 194.205 376.648 194.205C375.646 194.205 374.817 193.987 374.161 193.553C373.505 193.118 373.089 192.483 372.915 191.648L374.347 191.29C374.483 191.818 374.741 192.214 375.12 192.479C375.504 192.743 376.004 192.875 376.622 192.875C377.325 192.875 377.884 192.726 378.297 192.428C378.714 192.125 378.923 191.763 378.923 191.341C378.923 191 378.804 190.714 378.565 190.484C378.327 190.25 377.96 190.075 377.466 189.96L375.83 189.577C374.93 189.364 374.27 189.033 373.848 188.586C373.43 188.134 373.222 187.57 373.222 186.892C373.222 186.338 373.377 185.848 373.688 185.422C374.004 184.996 374.432 184.661 374.973 184.418C375.518 184.175 376.136 184.054 376.827 184.054C377.798 184.054 378.561 184.267 379.115 184.693C379.673 185.119 380.07 185.682 380.304 186.381ZM389.708 186.381L388.353 186.764C388.268 186.538 388.142 186.319 387.976 186.106C387.814 185.888 387.593 185.71 387.311 185.569C387.03 185.428 386.67 185.358 386.231 185.358C385.63 185.358 385.129 185.496 384.729 185.773C384.333 186.046 384.134 186.393 384.134 186.815C384.134 187.19 384.271 187.487 384.544 187.704C384.816 187.921 385.242 188.102 385.822 188.247L387.279 188.605C388.157 188.818 388.811 189.144 389.242 189.583C389.672 190.018 389.887 190.578 389.887 191.264C389.887 191.827 389.725 192.33 389.401 192.773C389.082 193.216 388.634 193.565 388.059 193.821C387.484 194.077 386.815 194.205 386.052 194.205C385.051 194.205 384.222 193.987 383.566 193.553C382.909 193.118 382.494 192.483 382.319 191.648L383.751 191.29C383.887 191.818 384.145 192.214 384.524 192.479C384.908 192.743 385.409 192.875 386.026 192.875C386.73 192.875 387.288 192.726 387.701 192.428C388.119 192.125 388.328 191.763 388.328 191.341C388.328 191 388.208 190.714 387.97 190.484C387.731 190.25 387.365 190.075 386.87 189.96L385.234 189.577C384.335 189.364 383.674 189.033 383.252 188.586C382.835 188.134 382.626 187.57 382.626 186.892C382.626 186.338 382.781 185.848 383.093 185.422C383.408 184.996 383.836 184.661 384.377 184.418C384.923 184.175 385.541 184.054 386.231 184.054C387.203 184.054 387.965 184.267 388.519 184.693C389.078 185.119 389.474 185.682 389.708 186.381Z" fill="#111827"/>
<path d="M258.585 278V264.909H263.162C264.074 264.909 264.826 265.067 265.418 265.382C266.011 265.693 266.452 266.113 266.741 266.641C267.031 267.165 267.176 267.747 267.176 268.386C267.176 268.949 267.076 269.413 266.876 269.78C266.68 270.146 266.42 270.436 266.096 270.649C265.776 270.862 265.429 271.02 265.054 271.122V271.25C265.455 271.276 265.857 271.416 266.262 271.672C266.667 271.928 267.006 272.294 267.278 272.771C267.551 273.249 267.688 273.832 267.688 274.523C267.688 275.179 267.538 275.769 267.24 276.293C266.942 276.817 266.471 277.233 265.827 277.54C265.184 277.847 264.347 278 263.315 278H258.585ZM260.17 276.594H263.315C264.351 276.594 265.086 276.393 265.521 275.993C265.96 275.588 266.179 275.098 266.179 274.523C266.179 274.08 266.066 273.67 265.84 273.295C265.614 272.916 265.293 272.614 264.875 272.388C264.457 272.158 263.963 272.043 263.392 272.043H260.17V276.594ZM260.17 270.662H263.111C263.588 270.662 264.018 270.568 264.402 270.381C264.79 270.193 265.097 269.929 265.322 269.588C265.553 269.247 265.668 268.847 265.668 268.386C265.668 267.811 265.467 267.323 265.067 266.923C264.666 266.518 264.031 266.315 263.162 266.315H260.17V270.662ZM270.088 278V268.182H271.596V278H270.088ZM270.855 266.545C270.561 266.545 270.307 266.445 270.094 266.245C269.885 266.045 269.781 265.804 269.781 265.523C269.781 265.241 269.885 265.001 270.094 264.8C270.307 264.6 270.561 264.5 270.855 264.5C271.149 264.5 271.4 264.6 271.609 264.8C271.822 265.001 271.929 265.241 271.929 265.523C271.929 265.804 271.822 266.045 271.609 266.245C271.4 266.445 271.149 266.545 270.855 266.545ZM275.868 264.909V278H274.359V264.909H275.868ZM280.139 264.909V278H278.631V264.909H280.139ZM291.953 278.205C291.067 278.205 290.289 277.994 289.62 277.572C288.955 277.15 288.436 276.56 288.061 275.801C287.69 275.043 287.504 274.156 287.504 273.142C287.504 272.119 287.69 271.227 288.061 270.464C288.436 269.701 288.955 269.109 289.62 268.687C290.289 268.265 291.067 268.054 291.953 268.054C292.84 268.054 293.615 268.265 294.28 268.687C294.949 269.109 295.469 269.701 295.84 270.464C296.215 271.227 296.402 272.119 296.402 273.142C296.402 274.156 296.215 275.043 295.84 275.801C295.469 276.56 294.949 277.15 294.28 277.572C293.615 277.994 292.84 278.205 291.953 278.205ZM291.953 276.849C292.627 276.849 293.181 276.677 293.615 276.332C294.05 275.987 294.372 275.533 294.58 274.97C294.789 274.408 294.894 273.798 294.894 273.142C294.894 272.486 294.789 271.874 294.58 271.308C294.372 270.741 294.05 270.283 293.615 269.933C293.181 269.584 292.627 269.409 291.953 269.409C291.28 269.409 290.726 269.584 290.291 269.933C289.857 270.283 289.535 270.741 289.326 271.308C289.117 271.874 289.013 272.486 289.013 273.142C289.013 273.798 289.117 274.408 289.326 274.97C289.535 275.533 289.857 275.987 290.291 276.332C290.726 276.677 291.28 276.849 291.953 276.849ZM303.077 268.182V269.46H297.784V268.182H303.077ZM299.37 278V266.827C299.37 266.264 299.502 265.795 299.766 265.42C300.03 265.045 300.373 264.764 300.795 264.577C301.217 264.389 301.662 264.295 302.131 264.295C302.502 264.295 302.804 264.325 303.039 264.385C303.273 264.445 303.448 264.5 303.563 264.551L303.128 265.855C303.051 265.83 302.945 265.798 302.809 265.759C302.676 265.721 302.502 265.702 302.284 265.702C301.786 265.702 301.426 265.827 301.204 266.079C300.987 266.33 300.878 266.699 300.878 267.185V278H299.37ZM310.458 278V264.909H318.359V266.315H312.044V270.739H317.95V272.145H312.044V276.594H318.461V278H310.458ZM327.71 281.682V276.491H327.583C327.472 276.67 327.314 276.896 327.11 277.169C326.905 277.437 326.613 277.678 326.234 277.891C325.855 278.1 325.35 278.205 324.719 278.205C323.901 278.205 323.178 277.998 322.552 277.585C321.926 277.167 321.436 276.579 321.082 275.82C320.728 275.058 320.551 274.156 320.551 273.116C320.551 272.085 320.728 271.19 321.082 270.432C321.436 269.673 321.928 269.087 322.558 268.674C323.189 268.261 323.918 268.054 324.744 268.054C325.384 268.054 325.889 268.161 326.259 268.374C326.634 268.582 326.92 268.821 327.116 269.089C327.316 269.354 327.472 269.571 327.583 269.741H327.762V268.182H329.219V281.682H327.71ZM324.923 276.849C325.529 276.849 326.04 276.692 326.458 276.376C326.875 276.057 327.193 275.616 327.41 275.053C327.627 274.487 327.736 273.832 327.736 273.091C327.736 272.358 327.629 271.717 327.416 271.167C327.203 270.613 326.888 270.183 326.47 269.876C326.053 269.565 325.537 269.409 324.923 269.409C324.284 269.409 323.752 269.573 323.325 269.901C322.904 270.225 322.586 270.666 322.373 271.224C322.164 271.778 322.06 272.401 322.06 273.091C322.06 273.79 322.166 274.425 322.379 274.996C322.597 275.562 322.916 276.014 323.338 276.351C323.764 276.683 324.293 276.849 324.923 276.849ZM338.168 273.986V268.182H339.676V278H338.168V276.338H338.066C337.835 276.837 337.477 277.261 336.992 277.61C336.506 277.955 335.892 278.128 335.151 278.128C334.537 278.128 333.992 277.994 333.514 277.725C333.037 277.452 332.662 277.043 332.389 276.498C332.117 275.948 331.98 275.256 331.98 274.42V268.182H333.489V274.318C333.489 275.034 333.689 275.605 334.09 276.031C334.494 276.457 335.01 276.67 335.637 276.67C336.012 276.67 336.393 276.575 336.781 276.383C337.173 276.191 337.501 275.897 337.765 275.501C338.034 275.104 338.168 274.599 338.168 273.986ZM342.439 278V268.182H343.948V278H342.439ZM343.206 266.545C342.912 266.545 342.659 266.445 342.446 266.245C342.237 266.045 342.132 265.804 342.132 265.523C342.132 265.241 342.237 265.001 342.446 264.8C342.659 264.6 342.912 264.5 343.206 264.5C343.5 264.5 343.752 264.6 343.961 264.8C344.174 265.001 344.28 265.241 344.28 265.523C344.28 265.804 344.174 266.045 343.961 266.245C343.752 266.445 343.5 266.545 343.206 266.545ZM346.711 281.682V268.182H348.168V269.741H348.347C348.458 269.571 348.611 269.354 348.807 269.089C349.008 268.821 349.293 268.582 349.664 268.374C350.039 268.161 350.546 268.054 351.185 268.054C352.012 268.054 352.741 268.261 353.371 268.674C354.002 269.087 354.494 269.673 354.848 270.432C355.202 271.19 355.378 272.085 355.378 273.116C355.378 274.156 355.202 275.058 354.848 275.82C354.494 276.579 354.004 277.167 353.378 277.585C352.751 277.998 352.029 278.205 351.211 278.205C350.58 278.205 350.075 278.1 349.696 277.891C349.317 277.678 349.025 277.437 348.82 277.169C348.616 276.896 348.458 276.67 348.347 276.491H348.219V281.682H346.711ZM348.194 273.091C348.194 273.832 348.302 274.487 348.52 275.053C348.737 275.616 349.055 276.057 349.472 276.376C349.89 276.692 350.401 276.849 351.006 276.849C351.637 276.849 352.163 276.683 352.585 276.351C353.011 276.014 353.331 275.562 353.544 274.996C353.761 274.425 353.87 273.79 353.87 273.091C353.87 272.401 353.763 271.778 353.55 271.224C353.341 270.666 353.024 270.225 352.598 269.901C352.176 269.573 351.645 269.409 351.006 269.409C350.393 269.409 349.877 269.565 349.459 269.876C349.042 270.183 348.726 270.613 348.513 271.167C348.3 271.717 348.194 272.358 348.194 273.091ZM357.68 278V268.182H359.137V269.716H359.265C359.469 269.192 359.8 268.785 360.256 268.495C360.711 268.201 361.259 268.054 361.898 268.054C362.546 268.054 363.085 268.201 363.515 268.495C363.95 268.785 364.289 269.192 364.532 269.716H364.634C364.885 269.209 365.263 268.806 365.765 268.508C366.268 268.205 366.871 268.054 367.574 268.054C368.452 268.054 369.17 268.329 369.729 268.879C370.287 269.424 370.566 270.274 370.566 271.429V278H369.057V271.429C369.057 270.705 368.859 270.187 368.463 269.876C368.067 269.565 367.6 269.409 367.063 269.409C366.373 269.409 365.838 269.618 365.459 270.036C365.079 270.449 364.89 270.973 364.89 271.608V278H363.356V271.276C363.356 270.717 363.175 270.268 362.812 269.927C362.45 269.582 361.983 269.409 361.412 269.409C361.02 269.409 360.654 269.513 360.313 269.722C359.976 269.931 359.704 270.221 359.495 270.592C359.29 270.958 359.188 271.382 359.188 271.864V278H357.68ZM377.441 278.205C376.494 278.205 375.678 277.996 374.992 277.578C374.311 277.156 373.784 276.568 373.414 275.814C373.047 275.055 372.864 274.173 372.864 273.168C372.864 272.162 373.047 271.276 373.414 270.509C373.784 269.737 374.3 269.136 374.96 268.706C375.625 268.271 376.401 268.054 377.287 268.054C377.798 268.054 378.303 268.139 378.802 268.31C379.301 268.48 379.754 268.757 380.164 269.141C380.573 269.52 380.899 270.023 381.142 270.649C381.384 271.276 381.506 272.047 381.506 272.963V273.602H373.938V272.298H379.972C379.972 271.744 379.861 271.25 379.639 270.815C379.422 270.381 379.111 270.038 378.706 269.786C378.306 269.535 377.833 269.409 377.287 269.409C376.686 269.409 376.166 269.558 375.727 269.857C375.293 270.151 374.958 270.534 374.724 271.007C374.49 271.48 374.372 271.987 374.372 272.528V273.398C374.372 274.139 374.5 274.768 374.756 275.283C375.016 275.795 375.376 276.185 375.836 276.453C376.296 276.717 376.831 276.849 377.441 276.849C377.837 276.849 378.195 276.794 378.514 276.683C378.838 276.568 379.117 276.398 379.352 276.172C379.586 275.942 379.767 275.656 379.895 275.315L381.352 275.724C381.199 276.219 380.941 276.653 380.579 277.028C380.217 277.399 379.769 277.689 379.237 277.898C378.704 278.102 378.105 278.205 377.441 278.205ZM385.309 272.094V278H383.801V268.182H385.258V269.716H385.386C385.616 269.217 385.965 268.817 386.434 268.514C386.903 268.207 387.508 268.054 388.249 268.054C388.914 268.054 389.496 268.19 389.994 268.463C390.493 268.732 390.881 269.141 391.158 269.69C391.435 270.236 391.573 270.926 391.573 271.761V278H390.065V271.864C390.065 271.092 389.865 270.491 389.464 270.061C389.063 269.626 388.514 269.409 387.815 269.409C387.333 269.409 386.903 269.513 386.524 269.722C386.149 269.931 385.852 270.236 385.635 270.636C385.418 271.037 385.309 271.523 385.309 272.094ZM398.6 268.182V269.46H393.512V268.182H398.6ZM394.995 265.83H396.503V275.188C396.503 275.614 396.565 275.933 396.689 276.146C396.816 276.355 396.978 276.496 397.174 276.568C397.375 276.636 397.586 276.67 397.807 276.67C397.973 276.67 398.11 276.662 398.216 276.645C398.323 276.624 398.408 276.607 398.472 276.594L398.779 277.949C398.676 277.987 398.534 278.026 398.35 278.064C398.167 278.107 397.935 278.128 397.654 278.128C397.228 278.128 396.81 278.036 396.401 277.853C395.996 277.67 395.659 277.391 395.391 277.016C395.127 276.641 394.995 276.168 394.995 275.597V265.83ZM407.648 270.381L406.293 270.764C406.207 270.538 406.082 270.319 405.915 270.106C405.754 269.888 405.532 269.71 405.251 269.569C404.969 269.428 404.609 269.358 404.17 269.358C403.57 269.358 403.069 269.496 402.668 269.773C402.272 270.046 402.074 270.393 402.074 270.815C402.074 271.19 402.21 271.487 402.483 271.704C402.756 271.921 403.182 272.102 403.761 272.247L405.219 272.605C406.097 272.818 406.751 273.144 407.181 273.583C407.612 274.018 407.827 274.578 407.827 275.264C407.827 275.827 407.665 276.33 407.341 276.773C407.021 277.216 406.574 277.565 405.999 277.821C405.423 278.077 404.754 278.205 403.991 278.205C402.99 278.205 402.161 277.987 401.505 277.553C400.849 277.118 400.433 276.483 400.259 275.648L401.69 275.29C401.827 275.818 402.085 276.214 402.464 276.479C402.847 276.743 403.348 276.875 403.966 276.875C404.669 276.875 405.227 276.726 405.641 276.428C406.058 276.125 406.267 275.763 406.267 275.341C406.267 275 406.148 274.714 405.909 274.484C405.67 274.25 405.304 274.075 404.81 273.96L403.173 273.577C402.274 273.364 401.614 273.033 401.192 272.586C400.774 272.134 400.565 271.57 400.565 270.892C400.565 270.338 400.721 269.848 401.032 269.422C401.347 268.996 401.776 268.661 402.317 268.418C402.862 268.175 403.48 268.054 404.17 268.054C405.142 268.054 405.905 268.267 406.459 268.693C407.017 269.119 407.413 269.682 407.648 270.381Z" fill="#111827"/>
<path d="M280.869 349.315V347.909H290.688V349.315H286.571V361H284.986V349.315H280.869ZM295.494 361.205C294.608 361.205 293.83 360.994 293.161 360.572C292.496 360.15 291.977 359.56 291.602 358.801C291.231 358.043 291.045 357.156 291.045 356.142C291.045 355.119 291.231 354.227 291.602 353.464C291.977 352.701 292.496 352.109 293.161 351.687C293.83 351.265 294.608 351.054 295.494 351.054C296.381 351.054 297.156 351.265 297.821 351.687C298.49 352.109 299.01 352.701 299.381 353.464C299.756 354.227 299.943 355.119 299.943 356.142C299.943 357.156 299.756 358.043 299.381 358.801C299.01 359.56 298.49 360.15 297.821 360.572C297.156 360.994 296.381 361.205 295.494 361.205ZM295.494 359.849C296.168 359.849 296.722 359.677 297.156 359.332C297.591 358.987 297.913 358.533 298.121 357.97C298.33 357.408 298.435 356.798 298.435 356.142C298.435 355.486 298.33 354.874 298.121 354.308C297.913 353.741 297.591 353.283 297.156 352.933C296.722 352.584 296.168 352.409 295.494 352.409C294.821 352.409 294.267 352.584 293.832 352.933C293.398 353.283 293.076 353.741 292.867 354.308C292.658 354.874 292.554 355.486 292.554 356.142C292.554 356.798 292.658 357.408 292.867 357.97C293.076 358.533 293.398 358.987 293.832 359.332C294.267 359.677 294.821 359.849 295.494 359.849ZM306.235 361.205C305.348 361.205 304.57 360.994 303.901 360.572C303.237 360.15 302.717 359.56 302.342 358.801C301.971 358.043 301.786 357.156 301.786 356.142C301.786 355.119 301.971 354.227 302.342 353.464C302.717 352.701 303.237 352.109 303.901 351.687C304.57 351.265 305.348 351.054 306.235 351.054C307.121 351.054 307.896 351.265 308.561 351.687C309.23 352.109 309.75 352.701 310.121 353.464C310.496 354.227 310.683 355.119 310.683 356.142C310.683 357.156 310.496 358.043 310.121 358.801C309.75 359.56 309.23 360.15 308.561 360.572C307.896 360.994 307.121 361.205 306.235 361.205ZM306.235 359.849C306.908 359.849 307.462 359.677 307.896 359.332C308.331 358.987 308.653 358.533 308.862 357.97C309.07 357.408 309.175 356.798 309.175 356.142C309.175 355.486 309.07 354.874 308.862 354.308C308.653 353.741 308.331 353.283 307.896 352.933C307.462 352.584 306.908 352.409 306.235 352.409C305.561 352.409 305.007 352.584 304.573 352.933C304.138 353.283 303.816 353.741 303.607 354.308C303.399 354.874 303.294 355.486 303.294 356.142C303.294 356.798 303.399 357.408 303.607 357.97C303.816 358.533 304.138 358.987 304.573 359.332C305.007 359.677 305.561 359.849 306.235 359.849ZM314.495 347.909V361H312.986V347.909H314.495ZM322.525 361V347.909H324.11V359.594H330.195V361H322.525ZM332.445 361V351.182H333.954V361H332.445ZM333.212 349.545C332.918 349.545 332.665 349.445 332.452 349.245C332.243 349.045 332.138 348.804 332.138 348.523C332.138 348.241 332.243 348.001 332.452 347.8C332.665 347.6 332.918 347.5 333.212 347.5C333.506 347.5 333.758 347.6 333.966 347.8C334.18 348.001 334.286 348.241 334.286 348.523C334.286 348.804 334.18 349.045 333.966 349.245C333.758 349.445 333.506 349.545 333.212 349.545ZM336.921 361V347.909H338.43V352.741H338.558C338.668 352.571 338.822 352.354 339.018 352.089C339.218 351.821 339.504 351.582 339.874 351.374C340.249 351.161 340.756 351.054 341.396 351.054C342.222 351.054 342.951 351.261 343.582 351.674C344.212 352.087 344.705 352.673 345.058 353.432C345.412 354.19 345.589 355.085 345.589 356.116C345.589 357.156 345.412 358.058 345.058 358.82C344.705 359.579 344.214 360.167 343.588 360.585C342.962 360.998 342.239 361.205 341.421 361.205C340.79 361.205 340.286 361.1 339.906 360.891C339.527 360.678 339.235 360.437 339.031 360.169C338.826 359.896 338.668 359.67 338.558 359.491H338.379V361H336.921ZM338.404 356.091C338.404 356.832 338.513 357.487 338.73 358.053C338.947 358.616 339.265 359.057 339.683 359.376C340.1 359.692 340.612 359.849 341.217 359.849C341.847 359.849 342.374 359.683 342.795 359.351C343.222 359.014 343.541 358.562 343.754 357.996C343.972 357.425 344.08 356.79 344.08 356.091C344.08 355.401 343.974 354.778 343.761 354.224C343.552 353.666 343.234 353.225 342.808 352.901C342.386 352.573 341.856 352.409 341.217 352.409C340.603 352.409 340.087 352.565 339.67 352.876C339.252 353.183 338.937 353.613 338.724 354.167C338.511 354.717 338.404 355.358 338.404 356.091ZM347.896 361V351.182H349.354V352.665H349.456C349.635 352.179 349.959 351.785 350.428 351.482C350.896 351.18 351.425 351.028 352.013 351.028C352.124 351.028 352.262 351.031 352.428 351.035C352.594 351.039 352.72 351.045 352.805 351.054V352.588C352.754 352.575 352.637 352.556 352.454 352.531C352.275 352.501 352.085 352.486 351.885 352.486C351.408 352.486 350.982 352.586 350.607 352.786C350.236 352.982 349.942 353.255 349.724 353.604C349.511 353.95 349.405 354.344 349.405 354.787V361H347.896ZM357.483 361.23C356.861 361.23 356.296 361.113 355.789 360.879C355.282 360.64 354.879 360.297 354.581 359.849C354.282 359.398 354.133 358.852 354.133 358.213C354.133 357.651 354.244 357.195 354.466 356.845C354.687 356.491 354.983 356.214 355.354 356.014C355.725 355.814 356.134 355.665 356.581 355.567C357.033 355.464 357.487 355.384 357.943 355.324C358.54 355.247 359.023 355.19 359.394 355.151C359.769 355.109 360.042 355.038 360.212 354.94C360.387 354.842 360.474 354.672 360.474 354.429V354.378C360.474 353.747 360.302 353.257 359.956 352.908C359.616 352.558 359.098 352.384 358.403 352.384C357.683 352.384 357.118 352.541 356.709 352.857C356.3 353.172 356.013 353.509 355.846 353.866L354.415 353.355C354.67 352.759 355.011 352.294 355.437 351.962C355.868 351.625 356.336 351.391 356.844 351.259C357.355 351.122 357.858 351.054 358.352 351.054C358.667 351.054 359.03 351.092 359.439 351.169C359.852 351.241 360.251 351.393 360.634 351.623C361.022 351.853 361.344 352.2 361.599 352.665C361.855 353.129 361.983 353.751 361.983 354.531V361H360.474V359.67H360.398C360.295 359.884 360.125 360.112 359.886 360.354C359.648 360.597 359.33 360.804 358.934 360.974C358.537 361.145 358.054 361.23 357.483 361.23ZM357.713 359.875C358.309 359.875 358.812 359.758 359.221 359.523C359.635 359.289 359.946 358.987 360.155 358.616C360.368 358.245 360.474 357.855 360.474 357.446V356.065C360.41 356.142 360.27 356.212 360.052 356.276C359.839 356.336 359.592 356.389 359.311 356.436C359.034 356.479 358.763 356.517 358.499 356.551C358.239 356.581 358.028 356.607 357.866 356.628C357.474 356.679 357.108 356.762 356.767 356.877C356.43 356.988 356.157 357.156 355.949 357.382C355.744 357.604 355.642 357.906 355.642 358.29C355.642 358.814 355.836 359.21 356.224 359.479C356.616 359.743 357.112 359.875 357.713 359.875ZM364.736 361V351.182H366.194V352.665H366.296C366.475 352.179 366.799 351.785 367.267 351.482C367.736 351.18 368.265 351.028 368.853 351.028C368.963 351.028 369.102 351.031 369.268 351.035C369.434 351.039 369.56 351.045 369.645 351.054V352.588C369.594 352.575 369.477 352.556 369.294 352.531C369.115 352.501 368.925 352.486 368.725 352.486C368.248 352.486 367.821 352.586 367.446 352.786C367.076 352.982 366.782 353.255 366.564 353.604C366.351 353.95 366.245 354.344 366.245 354.787V361H364.736ZM372.704 364.682C372.448 364.682 372.22 364.661 372.02 364.618C371.82 364.58 371.681 364.541 371.604 364.503L371.988 363.173C372.354 363.267 372.678 363.301 372.96 363.276C373.241 363.25 373.49 363.124 373.707 362.898C373.929 362.677 374.131 362.317 374.315 361.818L374.596 361.051L370.965 351.182H372.602L375.312 359.006H375.414L378.124 351.182H379.761L375.593 362.432C375.406 362.939 375.173 363.359 374.896 363.691C374.619 364.028 374.298 364.277 373.931 364.439C373.569 364.601 373.16 364.682 372.704 364.682Z" fill="#111827"/>
<path d="M218 16H145.5L83 90.4512M218 98.0774H145.5L113 132.65M218 184H135" stroke="#E5E7EB" stroke-width="5"/>
<path d="M218 352H145.5L83 277.549M218 269.923H145.5L113 235.35M218 184H135" stroke="#E5E7EB" stroke-width="5"/>
<path d="M104.5 141.833H81.4257L70.2038 130.612C69.1634 129.594 67.7706 129.017 66.3153 129H27.5C26.0413 129 24.6424 129.579 23.6109 130.611C22.5795 131.642 22 133.041 22 134.5V141.833H5.5C4.04131 141.833 2.64236 142.413 1.61091 143.444C0.579463 144.476 0 145.875 0 147.333L0 215.167C0 216.625 0.579463 218.024 1.61091 219.056C2.64236 220.087 4.04131 220.667 5.5 220.667H38.4762C38.068 223.604 36.5717 226.282 34.2833 228.169H33C31.586 228.169 30.23 228.73 29.2302 229.73C28.2304 230.73 27.6687 232.086 27.6687 233.5C27.6687 234.914 28.2304 236.27 29.2302 237.27C30.23 238.27 31.586 238.831 33 238.831H77C78.414 238.831 79.77 238.27 80.7698 237.27C81.7696 236.27 82.3313 234.914 82.3313 233.5C82.3313 232.086 81.7696 230.73 80.7698 229.73C79.77 228.73 78.414 228.169 77 228.169H75.7167C73.4283 226.282 71.932 223.604 71.5238 220.667H104.5C105.959 220.667 107.358 220.087 108.389 219.056C109.421 218.024 110 216.625 110 215.167V147.333C110 145.875 109.421 144.476 108.389 143.444C107.358 142.413 105.959 141.833 104.5 141.833ZM79.3687 144.961L81.741 147.333H71.5C71.0138 147.333 70.5475 147.14 70.2036 146.796C69.8598 146.453 69.6667 145.986 69.6667 145.5V135.259L79.3687 144.961ZM25.6667 134.5C25.6667 134.014 25.8598 133.547 26.2036 133.204C26.5475 132.86 27.0138 132.667 27.5 132.667H66V145.5C66 146.959 66.5795 148.358 67.6109 149.389C68.6424 150.421 70.0413 151 71.5 151H84.3333V196.833C84.3333 197.32 84.1402 197.786 83.7964 198.13C83.4525 198.474 82.9862 198.667 82.5 198.667H27.5C27.0138 198.667 26.5475 198.474 26.2036 198.13C25.8598 197.786 25.6667 197.32 25.6667 196.833V134.5ZM79.0038 233.5C79.0038 234.606 78.1055 235.502 77 235.502H33C32.469 235.502 31.9598 235.291 31.5844 234.916C31.2089 234.54 30.998 234.031 30.998 233.5C30.998 232.969 31.2089 232.46 31.5844 232.084C31.9598 231.709 32.469 231.498 33 231.498H77C78.1055 231.498 79.002 232.395 79.0038 233.5ZM71.0893 228.169H38.9107C40.4818 225.943 41.4862 223.368 41.8367 220.667H68.1633C68.5138 223.368 69.5182 225.943 71.0893 228.169ZM104.5 217H5.5C5.01377 217 4.54745 216.807 4.20364 216.463C3.85982 216.119 3.66667 215.653 3.66667 215.167V211.5H11C11.4862 211.5 11.9525 211.307 12.2964 210.963C12.6402 210.619 12.8333 210.153 12.8333 209.667C12.8333 209.18 12.6402 208.714 12.2964 208.37C11.9525 208.026 11.4862 207.833 11 207.833H3.66667V147.333C3.66667 146.847 3.85982 146.381 4.20364 146.037C4.54745 145.693 5.01377 145.5 5.5 145.5H22V196.833C22 198.292 22.5795 199.691 23.6109 200.722C24.6424 201.754 26.0413 202.333 27.5 202.333H82.5C83.9587 202.333 85.3576 201.754 86.3891 200.722C87.4205 199.691 88 198.292 88 196.833V150.687C88 148.25 86.7167 147.275 85.0923 145.5H104.5C104.986 145.5 105.453 145.693 105.796 146.037C106.14 146.381 106.333 146.847 106.333 147.333V207.833H18.3333C17.8471 207.833 17.3808 208.026 17.037 208.37C16.6932 208.714 16.5 209.18 16.5 209.667C16.5 210.153 16.6932 210.619 17.037 210.963C17.3808 211.307 17.8471 211.5 18.3333 211.5H106.333V215.167C106.333 215.653 106.14 216.119 105.796 216.463C105.453 216.807 104.986 217 104.5 217Z" fill="#FFAB03"/>
<path d="M29.3535 165.859C29.4027 166.794 29.8079 167.675 30.4859 168.321C31.164 168.967 32.0635 169.329 33 169.333H58.6667C59.6392 169.333 60.5718 168.947 61.2594 168.259C61.9471 167.572 62.3334 166.639 62.3334 165.667V140C62.3334 139.027 61.9471 138.095 61.2594 137.407C60.5718 136.72 59.6392 136.333 58.6667 136.333H33C32.0276 136.333 31.0949 136.72 30.4073 137.407C29.7197 138.095 29.3334 139.027 29.3334 140V165.766C29.3334 165.799 29.3499 165.828 29.3535 165.859ZM33.5812 165.667L42.2712 155.53L46.3705 159.629C46.7163 159.963 47.1794 160.148 47.6601 160.144C48.1408 160.14 48.6006 159.947 48.9405 159.607C49.2805 159.267 49.4733 158.807 49.4774 158.327C49.4816 157.846 49.2968 157.383 48.9629 157.037L48.0884 156.163L51.4855 151.917L58.6667 159.094V165.667H33.5812ZM58.6667 140V153.908L52.6295 147.87C52.446 147.689 52.227 147.548 51.9863 147.456C51.7456 147.363 51.4883 147.322 51.2307 147.333C50.9734 147.348 50.7221 147.416 50.493 147.534C50.264 147.653 50.0625 147.818 49.9015 148.019L45.4795 153.55L43.4629 151.533C43.2842 151.355 43.0706 151.215 42.8354 151.123C42.6002 151.031 42.3486 150.989 42.0962 150.999C41.8439 151.009 41.5963 151.07 41.369 151.18C41.1417 151.29 40.9395 151.446 40.7752 151.638L33 160.717V140H58.6667Z" fill="#FFAB03"/>
<path d="M38.5 147.333C39.5125 147.333 40.3333 146.512 40.3333 145.5C40.3333 144.487 39.5125 143.667 38.5 143.667C37.4874 143.667 36.6666 144.487 36.6666 145.5C36.6666 146.512 37.4874 147.333 38.5 147.333Z" fill="#FFAB03"/>
<path d="M31.1667 178.5H40.3334C40.8196 178.5 41.2859 178.307 41.6297 177.963C41.9736 177.619 42.1667 177.153 42.1667 176.667C42.1667 176.18 41.9736 175.714 41.6297 175.37C41.2859 175.026 40.8196 174.833 40.3334 174.833H31.1667C30.6805 174.833 30.2142 175.026 29.8703 175.37C29.5265 175.714 29.3334 176.18 29.3334 176.667C29.3334 177.153 29.5265 177.619 29.8703 177.963C30.2142 178.307 30.6805 178.5 31.1667 178.5ZM45.8334 176.667C45.8334 177.153 46.0265 177.619 46.3703 177.963C46.7142 178.307 47.1805 178.5 47.6667 178.5H78.8334C79.3196 178.5 79.7859 178.307 80.1297 177.963C80.4736 177.619 80.6667 177.153 80.6667 176.667C80.6667 176.18 80.4736 175.714 80.1297 175.37C79.7859 175.026 79.3196 174.833 78.8334 174.833H47.6667C47.1805 174.833 46.7142 175.026 46.3703 175.37C46.0265 175.714 45.8334 176.18 45.8334 176.667ZM31.1667 185.833H62.3334C62.8196 185.833 63.2859 185.64 63.6297 185.296C63.9736 184.952 64.1667 184.486 64.1667 184C64.1667 183.514 63.9736 183.047 63.6297 182.704C63.2859 182.36 62.8196 182.167 62.3334 182.167H31.1667C30.6805 182.167 30.2142 182.36 29.8703 182.704C29.5265 183.047 29.3334 183.514 29.3334 184C29.3334 184.486 29.5265 184.952 29.8703 185.296C30.2142 185.64 30.6805 185.833 31.1667 185.833ZM78.8334 182.167H69.6667C69.1805 182.167 68.7142 182.36 68.3703 182.704C68.0265 183.047 67.8334 183.514 67.8334 184C67.8334 184.486 68.0265 184.952 68.3703 185.296C68.7142 185.64 69.1805 185.833 69.6667 185.833H78.8334C79.3196 185.833 79.7859 185.64 80.1297 185.296C80.4736 184.952 80.6667 184.486 80.6667 184C80.6667 183.514 80.4736 183.047 80.1297 182.704C79.7859 182.36 79.3196 182.167 78.8334 182.167Z" fill="#FFAB03"/>
</svg>
