<svg width="79" height="88" viewBox="0 0 79 88" fill="none" xmlns="http://www.w3.org/2000/svg">
<path d="M53.8335 36.791L54.1879 36.1231C54.3108 35.8913 54.4956 35.701 54.7199 35.5742L55.3679 35.2088V35.1441L54.7199 34.7787C54.4956 34.6519 54.3108 34.4616 54.1879 34.2301L53.8335 33.5622C53.8199 33.5365 53.784 33.5365 53.7708 33.5622L53.4161 34.2301C53.2935 34.4616 53.1087 34.6519 52.8844 34.7787L52.2363 35.1441V35.2088L52.8844 35.5742C53.1087 35.701 53.2935 35.8913 53.4161 36.1231L53.7708 36.791C53.784 36.8164 53.8199 36.8164 53.8335 36.791Z" fill="white"/>
<path d="M24.4129 86.9306L24.7783 86.2625C24.9048 86.031 25.0952 85.8404 25.3269 85.7136L25.9948 85.3484C26.0205 85.3343 26.0205 85.2976 25.9948 85.2835L25.3269 84.9181C25.0952 84.7916 24.9048 84.6012 24.7783 84.3695L24.4129 83.7016C24.3988 83.6759 24.3621 83.6759 24.348 83.7016L23.9825 84.3695C23.856 84.6012 23.6654 84.7916 23.4339 84.9181L22.766 85.2835C22.7403 85.2976 22.7403 85.3343 22.766 85.3484L23.4339 85.7136C23.6654 85.8404 23.856 86.031 23.9825 86.2625L24.348 86.9306C24.3621 86.9561 24.3988 86.9561 24.4129 86.9306Z" fill="white"/>
<path d="M46.2772 40.4438L46.4153 40.1911C46.4631 40.1035 46.5352 40.0314 46.6228 39.9837L46.8755 39.8453V39.8207L46.6228 39.6826C46.5352 39.6345 46.4631 39.5627 46.4153 39.4751L46.2772 39.2224H46.2526L46.1142 39.4751C46.0665 39.5627 45.9944 39.6345 45.9068 39.6826L45.6541 39.8207V39.8453L45.9068 39.9837C45.9944 40.0314 46.0665 40.1035 46.1142 40.1911L46.2526 40.4438H46.2772Z" fill="white"/>
<path d="M69.4816 56.2764L69.62 56.0236C69.6678 55.9363 69.7399 55.8642 69.8275 55.8162L70.0802 55.6781V55.6535L69.8275 55.5154C69.7399 55.4673 69.6678 55.3955 69.62 55.3076L69.4816 55.0552H69.4573L69.3192 55.3076C69.2714 55.3955 69.1993 55.4673 69.1118 55.5154L68.859 55.6535V55.6781L69.1118 55.8162C69.1993 55.8642 69.2714 55.9363 69.3192 56.0236L69.4573 56.2764H69.4816Z" fill="white"/>
<path d="M69.2225 36.2158L69.4013 35.8885C69.4634 35.775 69.5568 35.6816 69.6703 35.6197L69.9979 35.4405V35.409L69.6703 35.2297C69.5568 35.1678 69.4634 35.0745 69.4013 34.9609L69.2225 34.6336H69.1908L69.0115 34.9609C68.9496 35.0745 68.8563 35.1678 68.7427 35.2297L68.4154 35.409V35.4405L68.7427 35.6197C68.8563 35.6816 68.9496 35.775 69.0115 35.8885L69.1908 36.2158H69.2225Z" fill="white"/>
<path d="M59.3395 88L59.4776 87.7475C59.5256 87.6597 59.5974 87.5879 59.6853 87.5398L59.9377 87.4017V87.3771L59.6853 87.239C59.5974 87.1909 59.5256 87.1188 59.4776 87.0313L59.3395 86.7788H59.3149L59.1767 87.0313C59.1287 87.1188 59.0566 87.1909 58.969 87.239L58.7166 87.3771V87.4017L58.969 87.5398C59.0566 87.5879 59.1287 87.6597 59.1767 87.7475L59.3149 88H59.3395Z" fill="white"/>
<path d="M46.0875 83.6807L46.2667 83.3531C46.3286 83.2395 46.422 83.1462 46.5355 83.0843L46.8628 82.905V82.8735L46.5355 82.6945C46.422 82.6324 46.3286 82.539 46.2667 82.4255L46.0875 82.0982H46.0557L45.8767 82.4255C45.8146 82.539 45.7212 82.6324 45.6079 82.6945L45.2803 82.8735V82.905L45.6079 83.0843C45.7212 83.1462 45.8146 83.2395 45.8767 83.3531L46.0557 83.6807H46.0875Z" fill="white"/>
<path d="M12.955 66.0239C12.87 66.0239 12.7832 66.0071 12.7001 65.9714C12.3714 65.8306 12.2194 65.4497 12.3603 65.1212C12.4656 64.8757 12.7045 64.7287 12.9556 64.7287C13.0407 64.7287 13.1274 64.7456 13.2105 64.7812C13.5393 64.9221 13.6915 65.3027 13.5506 65.6314C13.4453 65.877 13.2061 66.0239 12.955 66.0239Z" fill="#48A9E1"/>
<path d="M78.6623 78.793C78.6178 78.793 78.5725 78.7841 78.5292 78.7653C78.3576 78.6919 78.2783 78.4935 78.3518 78.322C78.4068 78.1938 78.5314 78.1173 78.6623 78.1173C78.7068 78.1173 78.7518 78.1262 78.7952 78.1447C78.9667 78.2184 79.046 78.4165 78.9728 78.588C78.9178 78.7162 78.7932 78.793 78.6623 78.793Z" fill="#3F98CB"/>
<path d="M6.16592 68.2192C6.12173 68.2192 6.07643 68.2104 6.03306 68.1919C5.86153 68.1184 5.78225 67.9198 5.85572 67.7483C5.91042 67.6204 6.03527 67.5439 6.1662 67.5439C6.21067 67.5439 6.2557 67.5527 6.29907 67.5712C6.4706 67.6447 6.54988 67.8433 6.4764 68.0146C6.42143 68.1427 6.29686 68.2192 6.16592 68.2192Z" fill="#3F98CB"/>
<path d="M46.1927 34.3169C46.1538 34.3169 46.114 34.3092 46.0759 34.2926C45.925 34.2282 45.8552 34.0537 45.9201 33.9026C45.9681 33.7901 46.0778 33.7227 46.193 33.7227C46.2319 33.7227 46.2717 33.7305 46.3098 33.7468C46.4606 33.8114 46.5303 33.986 46.4656 34.1368C46.4176 34.2495 46.3079 34.3169 46.1927 34.3169Z" fill="#65CCD5"/>
<path d="M72.9725 71.479C72.9338 71.479 72.8944 71.4713 72.8565 71.455C72.7071 71.3912 72.638 71.218 72.7021 71.0685C72.7499 70.9569 72.8587 70.8901 72.9728 70.8901C73.0115 70.8901 73.051 70.8975 73.0888 70.9138C73.2382 70.9779 73.3076 71.1511 73.2435 71.3006C73.1957 71.4122 73.0869 71.479 72.9725 71.479Z" fill="#3F98CB"/>
<path d="M39.5749 50.1797C39.4898 50.1797 39.4034 50.1628 39.32 50.1272C38.9915 49.9863 38.8391 49.6054 38.9802 49.2767C39.0854 49.0311 39.3244 48.8842 39.5757 48.8842C39.6608 48.8842 39.7473 48.901 39.8304 48.9367C40.1591 49.0778 40.3113 49.4585 40.1705 49.7872C40.0652 50.0327 39.826 50.1797 39.5749 50.1797Z" fill="#50C6E4"/>
<path d="M31.658 42.1626H30.9838C30.9863 42.1253 30.9951 42.0877 31.0106 42.0513C31.0655 41.9234 31.1901 41.8466 31.321 41.8466C31.3655 41.8466 31.4105 41.8554 31.4542 41.8739C31.5749 41.9259 31.65 42.0397 31.658 42.1626Z" fill="#65CCD5"/>
<path d="M31.3207 42.5225C31.2762 42.5225 31.2312 42.5136 31.1878 42.4951C31.0528 42.4371 30.9749 42.3015 30.9837 42.1628H31.658C31.6613 42.2142 31.653 42.2672 31.6312 42.3178C31.5765 42.4457 31.4519 42.5225 31.3207 42.5225Z" fill="#50C6E4"/>
<path d="M24.7532 38.978C24.7142 38.978 24.6745 38.9703 24.6363 38.9537C24.4855 38.8894 24.4156 38.7148 24.4803 38.564C24.5286 38.4513 24.6383 38.3839 24.7535 38.3839C24.7924 38.3839 24.8322 38.3916 24.8703 38.4079C25.0211 38.4725 25.0907 38.6474 25.0261 38.7979C24.978 38.9106 24.8684 38.978 24.7532 38.978Z" fill="#65CCD5"/>
<path d="M0.294472 72.7256C0.2558 72.7256 0.216295 72.7178 0.178452 72.7016C0.0290134 72.6375 -0.040315 72.4643 0.0240456 72.3148C0.0718327 72.2032 0.180667 72.1364 0.295025 72.1364C0.333697 72.1364 0.372919 72.1439 0.410762 72.1602C0.5602 72.2242 0.629252 72.3974 0.565168 72.5469C0.517381 72.6585 0.408829 72.7256 0.294472 72.7256Z" fill="#3F98CB"/>
<path d="M53.7892 53.5977C53.7505 53.5977 53.7113 53.5902 53.6735 53.5739C53.5238 53.5098 53.4547 53.3366 53.5185 53.1872C53.5666 53.0756 53.6754 53.0087 53.7895 53.0087C53.8282 53.0087 53.8677 53.0165 53.9055 53.0325C54.0549 53.0966 54.1243 53.2698 54.0599 53.4192C54.0121 53.5308 53.9036 53.5977 53.7892 53.5977Z" fill="#50C6E4"/>
<path d="M20.7408 62.9614C20.6825 62.9614 20.6234 62.9501 20.5665 62.9255C20.3416 62.8294 20.2377 62.5689 20.3339 62.3446C20.406 62.1767 20.5692 62.0761 20.741 62.0761C20.799 62.0761 20.8581 62.0877 20.9151 62.112C21.1399 62.2084 21.2438 62.4686 21.1476 62.6932C21.0755 62.8612 20.9123 62.9614 20.7408 62.9614Z" fill="#48A9E1"/>
<path d="M62.8643 60.8604C62.7925 60.8604 62.7193 60.8463 62.6491 60.8162C62.3718 60.6971 62.2434 60.3761 62.3624 60.0988C62.4511 59.8916 62.6527 59.7676 62.8649 59.7676C62.9367 59.7676 63.0096 59.7817 63.0798 59.8118C63.3571 59.9306 63.4853 60.2521 63.3665 60.5292C63.2778 60.7363 63.0762 60.8604 62.8643 60.8604ZM62.8331 60.2949C62.816 60.2949 62.7983 60.298 62.7812 60.3043C62.7025 60.3333 62.6621 60.4203 62.6909 60.499C62.7135 60.5604 62.7715 60.5985 62.8334 60.5985C62.8505 60.5985 62.8682 60.5954 62.8853 60.5891C62.9643 60.5604 63.0044 60.4731 62.9756 60.3944C62.953 60.333 62.895 60.2949 62.8331 60.2949Z" fill="#48A9E1"/>
<path d="M48.1017 54.4844H47.0642C47.0056 54.3474 47.0009 54.1874 47.0642 54.0399C47.1562 53.8259 47.3645 53.6977 47.5835 53.6977C47.6575 53.6977 47.7329 53.7123 47.8056 53.7435C48.092 53.8662 48.2243 54.1979 48.1017 54.4844Z" fill="#50C6E4"/>
<path d="M47.5827 54.8267C47.5087 54.8267 47.4332 54.812 47.3606 54.7811C47.2219 54.7214 47.1195 54.6129 47.0642 54.4844H48.1017C48.1017 54.4844 48.1017 54.4844 48.1017 54.4847C48.01 54.6985 47.8017 54.8267 47.5827 54.8267Z" fill="#48A9E1"/>
<path d="M59.1312 75.396C59.0555 75.396 58.9784 75.3811 58.9044 75.3493C58.6119 75.2239 58.4765 74.885 58.6019 74.5925C58.6955 74.3737 58.9082 74.2428 59.132 74.2428C59.2077 74.2428 59.2847 74.2579 59.3588 74.2897C59.6516 74.4151 59.7869 74.754 59.6615 75.0466C59.5676 75.2651 59.3549 75.396 59.1312 75.396Z" fill="#3F98CB"/>
<path d="M30.2227 32.2188C30.247 32.2133 30.271 32.2081 30.2955 32.2027C30.2715 32.2095 30.2473 32.2149 30.2227 32.2188Z" fill="#65CCD5"/>
<path d="M45.5994 76.1221C45.5273 76.1221 45.4539 76.1077 45.3831 76.0776C45.1039 75.9577 44.9749 75.6343 45.0942 75.355C45.1837 75.1467 45.3867 75.0219 45.6003 75.0219C45.6724 75.0219 45.7461 75.0362 45.8168 75.0663C46.0955 75.1862 46.2251 75.5094 46.1052 75.7887C46.0157 75.9972 45.813 76.1221 45.5994 76.1221Z" fill="#3F98CB"/>
<path d="M58.2876 54.4844H57.2211C57.215 54.4717 57.2092 54.459 57.2039 54.4457C57.0827 54.1419 57.2305 53.7971 57.5343 53.6756C57.6067 53.6469 57.681 53.633 57.7542 53.633C57.9893 53.633 58.2119 53.7742 58.3047 54.0057C58.3691 54.167 58.3577 54.3396 58.2876 54.4844Z" fill="#50C6E4"/>
<path d="M57.7544 54.8184C57.5326 54.8184 57.3222 54.693 57.2211 54.4844H58.2876C58.2254 54.6126 58.1171 54.7189 57.9743 54.7758C57.9022 54.8048 57.8276 54.8184 57.7544 54.8184Z" fill="#48A9E1"/>
<path d="M12.6034 56.5854C12.5647 56.5854 12.525 56.5777 12.4871 56.5614C12.3369 56.4971 12.2673 56.323 12.3319 56.1728C12.3797 56.0606 12.4891 55.9932 12.6037 55.9932C12.6426 55.9932 12.6824 56.001 12.7203 56.0175C12.8705 56.0819 12.9401 56.2559 12.8758 56.4062C12.8277 56.5183 12.7183 56.5854 12.6034 56.5854Z" fill="#48A9E1"/>
<path d="M16.1424 64.5356C16.065 64.5356 15.9863 64.5205 15.9106 64.4879C15.6112 64.3597 15.4725 64.0127 15.6007 63.7136C15.6968 63.4899 15.9142 63.3559 16.1432 63.3559C16.2205 63.3559 16.2995 63.3714 16.3752 63.4039C16.6746 63.5324 16.8133 63.8791 16.6849 64.1785C16.589 64.4019 16.3711 64.5356 16.1424 64.5356Z" fill="#48A9E1"/>
<path d="M38.9355 54.4844H37.5767C37.7204 54.2391 37.9825 54.0952 38.2565 54.0952C38.3601 54.0952 38.4653 54.1156 38.5667 54.159C38.7275 54.228 38.8534 54.3441 38.9355 54.4844Z" fill="#50C6E4"/>
<path d="M38.2559 55.6714C38.1523 55.6714 38.0468 55.6507 37.9457 55.6073C37.5457 55.4358 37.3607 54.9728 37.5319 54.5728C37.5452 54.5422 37.5601 54.5126 37.5767 54.4844H38.9354C39.0578 54.693 39.0827 54.9546 38.9802 55.1938C38.8523 55.4924 38.5614 55.6714 38.2559 55.6714Z" fill="#48A9E1"/>
<path d="M46.0712 59.8535C45.9522 59.8535 45.8309 59.8298 45.7146 59.78C45.2544 59.5828 45.0414 59.0497 45.2387 58.5898C45.3859 58.2462 45.7204 58.0404 46.0718 58.0404C46.1911 58.0404 46.3124 58.0638 46.4286 58.1138C46.8888 58.3111 47.1021 58.8439 46.9046 59.3041C46.7574 59.6477 46.4228 59.8535 46.0712 59.8535Z" fill="#48A9E1"/>
<path d="M42.6684 63.7495C42.5811 63.7495 42.4924 63.7324 42.4073 63.6956C42.0706 63.5512 41.9145 63.1612 42.059 62.8242C42.1667 62.5725 42.4117 62.422 42.6692 62.422C42.7565 62.422 42.8451 62.4391 42.9302 62.4756C43.2672 62.6203 43.423 63.0103 43.2788 63.3473C43.1708 63.599 42.9258 63.7495 42.6684 63.7495Z" fill="#48A9E1"/>
<path d="M62.8988 46.2695C62.8607 46.2695 62.8221 46.2618 62.7845 46.246C62.637 46.1828 62.5688 46.0115 62.632 45.8643C62.6792 45.7538 62.7864 45.6878 62.8991 45.6878C62.9375 45.6878 62.9762 45.6955 63.0135 45.7116C63.1613 45.7748 63.2298 45.9458 63.1662 46.0933C63.119 46.2035 63.0115 46.2695 62.8988 46.2695Z" fill="#50C6E4"/>
<path d="M71.5506 69.9492C71.5332 69.9492 71.5152 69.9459 71.4981 69.9384C71.4304 69.9094 71.3992 69.831 71.4279 69.7633C71.4497 69.7128 71.4989 69.6824 71.5508 69.6824C71.5682 69.6824 71.5859 69.686 71.603 69.6932C71.6707 69.7224 71.7022 69.8009 71.6732 69.8686C71.6514 69.9188 71.6022 69.9492 71.5506 69.9492Z" fill="#3F98CB"/>
<path d="M69.9437 71.1226C69.9263 71.1226 69.9086 71.119 69.8915 71.1118C69.8244 71.0831 69.7932 71.0054 69.8222 70.9383C69.8435 70.888 69.8923 70.8582 69.9437 70.8582C69.9611 70.8582 69.9788 70.8615 69.9956 70.8687C70.0628 70.8977 70.0937 70.9753 70.0653 71.0424C70.0437 71.0927 69.9948 71.1226 69.9437 71.1226Z" fill="#3F98CB"/>
<path d="M49.3784 42.916C49.3445 42.916 49.3097 42.9094 49.2765 42.895C49.145 42.8389 49.0842 42.6868 49.1406 42.5553C49.1826 42.4572 49.2782 42.3984 49.3787 42.3984C49.4127 42.3984 49.4472 42.405 49.4804 42.4194C49.6118 42.4757 49.6726 42.6279 49.6163 42.7591C49.5743 42.8575 49.4787 42.916 49.3784 42.916Z" fill="#50C6E4"/>
<path d="M61.6064 65.3369C61.5705 65.3366 61.5343 65.3297 61.4995 65.3148C61.3617 65.256 61.2976 65.0963 61.3567 64.9585C61.4009 64.8557 61.5012 64.7938 61.6064 64.7938C61.6421 64.7938 61.6783 64.801 61.7131 64.8159C61.8509 64.8751 61.915 65.0344 61.8559 65.1723C61.8117 65.2753 61.7117 65.3369 61.6064 65.3369Z" fill="#48A9E1"/>
<path d="M54.527 46.2222C54.4215 46.2222 54.3218 46.1589 54.2798 46.0548C54.2254 45.9183 54.2917 45.7634 54.4282 45.7089C54.4607 45.696 54.4942 45.6899 54.527 45.6899C54.6326 45.6899 54.7326 45.7531 54.774 45.8573C54.8287 45.9937 54.7621 46.1484 54.6257 46.2031C54.5933 46.2161 54.5599 46.2222 54.527 46.2222Z" fill="#50C6E4"/>
<path d="M62.266 50.2959C62.2309 50.2959 62.1953 50.289 62.1608 50.2741C62.0251 50.2158 61.9625 50.0589 62.0205 49.9233C62.0638 49.8216 62.1627 49.7611 62.2663 49.7611C62.3014 49.7611 62.3373 49.768 62.3715 49.7827C62.5072 49.841 62.5702 49.9981 62.5119 50.1338C62.4685 50.2351 62.3699 50.2959 62.266 50.2959Z" fill="#50C6E4"/>
<path d="M64.9985 47.0308C64.9739 47.0308 64.9491 47.0261 64.925 47.0158C64.8303 46.9752 64.7864 46.8656 64.8272 46.7708C64.8574 46.7001 64.9264 46.6579 64.9988 46.6579C65.0234 46.6579 65.0482 46.6625 65.0723 46.6728C65.1667 46.7134 65.2107 46.823 65.17 46.9178C65.1397 46.9885 65.0709 47.0308 64.9985 47.0308Z" fill="#50C6E4"/>
<path d="M51.1474 69.2568C51.1048 69.2568 51.0615 69.2474 51.0206 69.2276C50.8761 69.1574 50.8159 68.9837 50.8858 68.8389C50.9361 68.7356 51.0399 68.6751 51.1477 68.6751C51.1902 68.6751 51.2336 68.6845 51.2742 68.7044C51.4189 68.7743 51.4794 68.9483 51.4092 69.093C51.359 69.1963 51.2551 69.2568 51.1474 69.2568Z" fill="#3F98CB"/>
<path d="M56.8476 70.1875C56.8006 70.1875 56.7531 70.177 56.7081 70.1552C56.5495 70.0784 56.4833 69.887 56.56 69.7281C56.6153 69.6143 56.7294 69.548 56.8479 69.548C56.8948 69.548 56.9423 69.5583 56.9874 69.5801C57.1459 69.6569 57.2125 69.8483 57.1354 70.0071C57.0802 70.1209 56.9661 70.1875 56.8476 70.1875Z" fill="#3F98CB"/>
<path d="M34.0145 33.3745C33.9833 33.3745 33.9515 33.3676 33.9217 33.3532C33.8161 33.3021 33.7722 33.1748 33.8233 33.0693C33.8601 32.9936 33.9357 32.9494 34.0145 32.9494C34.0457 32.9494 34.0772 32.9563 34.107 32.9707C34.2128 33.0218 34.257 33.1491 34.2056 33.2546C34.1689 33.3303 34.0932 33.3745 34.0145 33.3745Z" fill="#65CCD5"/>
<path d="M61.9307 80.0747C61.8909 80.0747 61.8506 80.0659 61.8125 80.0476C61.6774 79.9822 61.6211 79.8198 61.6865 79.685C61.7335 79.5883 61.8302 79.5319 61.9307 79.5319C61.9705 79.5319 62.0108 79.5408 62.0489 79.5593C62.1837 79.6245 62.2404 79.7869 62.1749 79.922C62.1279 80.0186 62.0313 80.0747 61.9307 80.0747Z" fill="#3582B6"/>
<path d="M50.3273 73.249C50.288 73.249 50.2483 73.2405 50.2107 73.2222C50.0775 73.1579 50.022 72.9979 50.0867 72.8651C50.1328 72.7698 50.2281 72.7142 50.3275 72.7142C50.3665 72.7142 50.4063 72.7228 50.4441 72.741C50.5767 72.8057 50.6322 72.9653 50.5679 73.0982C50.5217 73.1938 50.4264 73.249 50.3273 73.249Z" fill="#3F98CB"/>
<path d="M53.2042 70.1147C53.1771 70.1147 53.1492 70.1087 53.1232 70.096C53.0304 70.0509 52.9917 69.9396 53.0365 69.8468C53.0688 69.7802 53.1354 69.7416 53.2044 69.7416C53.2318 69.7416 53.2597 69.7476 53.2859 69.7606C53.3787 69.8051 53.4171 69.917 53.3724 70.0095C53.3401 70.0761 53.2735 70.1147 53.2042 70.1147Z" fill="#3F98CB"/>
<path d="M25.0609 71.7847C24.9285 71.7847 24.8087 71.6935 24.7777 71.559C24.7415 71.4029 24.8393 71.2466 24.9957 71.2107C25.0175 71.2054 25.0396 71.2032 25.0611 71.2032C25.1935 71.2032 25.3133 71.2941 25.3443 71.4286C25.3802 71.5852 25.2827 71.741 25.1261 71.7772C25.1042 71.7822 25.0824 71.7847 25.0609 71.7847Z" fill="#3F98CB"/>
<path d="M19.4066 70.6182C19.3375 70.6182 19.2751 70.5709 19.2591 70.5005C19.24 70.419 19.2911 70.3375 19.3726 70.3187C19.3842 70.316 19.3955 70.3149 19.4068 70.3149C19.4759 70.3149 19.5383 70.3624 19.5543 70.4325C19.5731 70.514 19.5223 70.5955 19.4405 70.6143C19.4292 70.6171 19.4179 70.6182 19.4066 70.6182Z" fill="#3F98CB"/>
<path d="M14.8795 69.437C14.8187 69.437 14.7634 69.3953 14.7493 69.334C14.7328 69.2619 14.7778 69.1903 14.8493 69.174C14.8596 69.1716 14.8695 69.1705 14.8795 69.1705C14.9402 69.1705 14.9952 69.2122 15.0093 69.274C15.0259 69.3459 14.9811 69.4171 14.9093 69.4337C14.8993 69.4359 14.8891 69.437 14.8795 69.437Z" fill="#3F98CB"/>
<path d="M14.2754 71.3325C14.2152 71.3325 14.1605 71.2914 14.1464 71.23C14.1301 71.1588 14.1743 71.0878 14.2455 71.0712C14.2555 71.069 14.2654 71.0679 14.2751 71.0679C14.3353 71.0679 14.39 71.1093 14.4041 71.1707C14.4204 71.2419 14.3759 71.3129 14.3049 71.3292C14.295 71.3314 14.285 71.3325 14.2754 71.3325Z" fill="#3F98CB"/>
<path d="M56.5703 38.0796C56.4247 38.0796 56.2932 37.9796 56.2589 37.8318C56.2197 37.6597 56.3269 37.4879 56.4987 37.4484C56.523 37.4429 56.5471 37.4404 56.5708 37.4404C56.7164 37.4404 56.8481 37.5404 56.8821 37.6884C56.9219 37.8603 56.8144 38.0318 56.6423 38.0716C56.6183 38.0771 56.594 38.0796 56.5703 38.0796Z" fill="#65CCD5"/>
<path d="M56.6476 80.3369C56.5509 80.3369 56.4637 80.2703 56.4407 80.172C56.4145 80.0577 56.486 79.9436 56.6004 79.9173C56.6164 79.9137 56.6324 79.9118 56.6484 79.9118C56.7451 79.9118 56.8324 79.9784 56.8548 80.0764C56.8813 80.1908 56.8098 80.3049 56.6954 80.3314C56.6794 80.335 56.6634 80.3369 56.6476 80.3369Z" fill="#3582B6"/>
<path d="M38.9275 36.3936C38.8095 36.3936 38.7029 36.3126 38.6756 36.1927C38.6432 36.0535 38.7303 35.9146 38.8695 35.8825C38.8891 35.8781 38.9084 35.8759 38.9278 35.8759C39.0457 35.8759 39.1521 35.9568 39.1797 36.0767C39.2117 36.2159 39.125 36.3549 38.9858 36.3869C38.9662 36.3913 38.9465 36.3936 38.9275 36.3936Z" fill="#65CCD5"/>
<path d="M30.32 37.9468C30.1962 37.9468 30.0847 37.862 30.0556 37.7363C30.0219 37.5902 30.1131 37.4446 30.2592 37.4109C30.2797 37.4062 30.3004 37.404 30.3206 37.404C30.444 37.404 30.5559 37.4888 30.5846 37.6145C30.6183 37.7606 30.5272 37.9062 30.381 37.9399C30.3606 37.9446 30.3402 37.9468 30.32 37.9468Z" fill="#65CCD5"/>
<path d="M40.1867 41.667C40.1387 41.667 40.0898 41.6537 40.0459 41.6264C39.9216 41.5485 39.8834 41.3841 39.9613 41.2598C40.0119 41.1789 40.0986 41.1347 40.1873 41.1347C40.2356 41.1347 40.2845 41.148 40.3284 41.1753C40.4527 41.2532 40.4903 41.4173 40.4124 41.5419C40.3621 41.6225 40.2754 41.667 40.1867 41.667Z" fill="#65CCD5"/>
<path d="M48.8376 40.3877C48.7158 40.3877 48.6059 40.304 48.5774 40.1802C48.5445 40.0363 48.634 39.893 48.778 39.8598C48.7981 39.8551 48.8183 39.8529 48.8382 39.8529C48.96 39.8529 49.0699 39.9366 49.0984 40.0604C49.1318 40.2043 49.0417 40.3479 48.8981 40.3808C48.8779 40.3855 48.8578 40.3877 48.8376 40.3877Z" fill="#65CCD5"/>
<path d="M27.2665 71.1396C27.1815 71.1396 27.1047 71.0814 27.0848 70.9949C27.0616 70.8946 27.1243 70.7946 27.2248 70.7714C27.2389 70.7681 27.253 70.7665 27.2668 70.7665C27.3516 70.7665 27.4284 70.8248 27.4483 70.9112C27.4712 71.0118 27.4088 71.1118 27.3085 71.135C27.2944 71.1383 27.2804 71.1396 27.2665 71.1396Z" fill="#3F98CB"/>
<path d="M26.2882 50.3457C26.1918 50.3457 26.0976 50.2976 26.0423 50.2104C25.9564 50.0747 25.9968 49.8952 26.1324 49.8093C26.1807 49.7786 26.2343 49.764 26.2876 49.764C26.384 49.764 26.4782 49.812 26.5335 49.8993C26.6194 50.035 26.579 50.2145 26.4434 50.3004C26.3951 50.3311 26.3412 50.3457 26.2882 50.3457Z" fill="#50C6E4"/>
<path d="M20.6131 51.1138C20.5628 51.1138 20.5139 51.0886 20.4849 51.0431C20.4399 50.9723 20.4612 50.8787 20.5319 50.834C20.557 50.8179 20.5852 50.8105 20.6128 50.8105C20.6631 50.8105 20.7123 50.8353 20.741 50.8809C20.7858 50.9516 20.7648 51.0453 20.6941 51.0903C20.6689 51.106 20.641 51.1138 20.6131 51.1138Z" fill="#50C6E4"/>
<path d="M30.0573 46.0049C29.9515 46.0049 29.8479 45.9524 29.7869 45.8563C29.6927 45.7071 29.7369 45.5096 29.886 45.4151C29.9391 45.3814 29.9984 45.3654 30.0567 45.3654C30.1628 45.3654 30.2664 45.4182 30.3272 45.5143C30.4216 45.6635 30.3774 45.861 30.2283 45.9552C30.175 45.9889 30.1158 46.0049 30.0573 46.0049Z" fill="#50C6E4"/>
<path d="M27.6262 38.752C27.5558 38.752 27.4867 38.7169 27.4464 38.6531C27.3837 38.5539 27.4129 38.4227 27.5124 38.36C27.5475 38.3376 27.587 38.3268 27.6256 38.3268C27.6961 38.3268 27.7649 38.3619 27.8052 38.4257C27.8682 38.5249 27.8386 38.6561 27.7394 38.7188C27.7044 38.7412 27.6649 38.752 27.6262 38.752Z" fill="#65CCD5"/>
<path d="M21.5338 57.2119C21.5144 57.2119 21.4945 57.2097 21.4749 57.2053C21.3316 57.1732 21.2415 57.0313 21.2738 56.8876C21.3015 56.7639 21.4114 56.6799 21.5332 56.6799C21.5523 56.6799 21.5719 56.6818 21.5915 56.6863C21.7349 56.7186 21.8249 56.8608 21.7929 57.0042C21.765 57.1279 21.6553 57.2119 21.5338 57.2119Z" fill="#48A9E1"/>
<path d="M29.2695 53.1353C29.1811 53.1353 29.0943 53.0911 29.0432 53.0107C28.9642 52.8858 29.0015 52.7209 29.1261 52.6419C29.1706 52.6137 29.22 52.6002 29.2689 52.6002C29.3576 52.6002 29.4443 52.6444 29.4951 52.7248C29.5741 52.8494 29.5371 53.0145 29.4123 53.0935C29.3678 53.1217 29.3184 53.1353 29.2695 53.1353Z" fill="#50C6E4"/>
<path d="M28.1891 49C28.1275 49 28.067 48.9693 28.0314 48.9133C27.9764 48.8263 28.0021 48.7111 28.0894 48.6561C28.1203 48.6365 28.1549 48.6271 28.1888 48.6271C28.2507 48.6271 28.3112 48.6578 28.3468 48.7138C28.4018 48.8008 28.3759 48.916 28.2888 48.971C28.2579 48.9906 28.2234 49 28.1891 49Z" fill="#50C6E4"/>
<path d="M15.9275 80.04C15.8756 80.04 15.8261 80.0094 15.8051 79.9583C15.7772 79.8906 15.8095 79.8135 15.8772 79.7856C15.8935 79.779 15.9106 79.7757 15.9275 79.7757C15.9794 79.7757 16.0286 79.8066 16.0496 79.8575C16.0775 79.9251 16.0452 80.0025 15.9778 80.0301C15.9612 80.037 15.9443 80.04 15.9275 80.04Z" fill="#3582B6"/>
<path d="M10.1784 78.8638C10.0527 78.8638 9.93338 78.7892 9.88256 78.6657C9.81544 78.5025 9.89333 78.3155 10.0566 78.2483C10.0964 78.232 10.1375 78.2243 10.1781 78.2243C10.3038 78.2243 10.4229 78.2989 10.4737 78.4224C10.5411 78.5856 10.4632 78.7721 10.2999 78.8397C10.2602 78.856 10.219 78.8638 10.1784 78.8638Z" fill="#3F98CB"/>
<path d="M17.4912 39.0303C17.4075 39.0303 17.3285 38.9808 17.2945 38.8988C17.25 38.7902 17.3017 38.6662 17.4103 38.6212C17.4365 38.6104 17.4641 38.6052 17.4909 38.6052C17.5746 38.6052 17.6539 38.6549 17.6876 38.7369C17.7323 38.8455 17.6804 38.9698 17.5721 39.0143C17.5456 39.0253 17.5183 39.0303 17.4912 39.0303Z" fill="#65CCD5"/>
<path d="M10.2939 75.8809C10.2602 75.8809 10.2262 75.8681 10.2002 75.8425C10.1478 75.7905 10.1472 75.7063 10.1991 75.6538C10.2251 75.6276 10.2596 75.6143 10.2939 75.6143C10.3279 75.6143 10.3615 75.627 10.3875 75.653C10.44 75.7046 10.4406 75.7889 10.3886 75.8414C10.3627 75.8679 10.3284 75.8809 10.2939 75.8809Z" fill="#3F98CB"/>
<path d="M12.2191 75.3745C12.1854 75.3745 12.152 75.3618 12.126 75.3364C12.0741 75.285 12.0735 75.2013 12.1249 75.1494C12.1509 75.1231 12.1849 75.1102 12.2191 75.1102C12.2528 75.1102 12.2862 75.1226 12.3119 75.148C12.3639 75.1997 12.3644 75.2834 12.313 75.3353C12.2871 75.3615 12.2531 75.3745 12.2191 75.3745Z" fill="#3F98CB"/>
<path d="M18.0608 74.2705C17.995 74.2705 17.9293 74.2456 17.879 74.1959C17.7773 74.0954 17.7762 73.9316 17.8768 73.8299C17.9273 73.7786 17.9942 73.7529 18.0608 73.7529C18.1265 73.7529 18.1922 73.7777 18.2428 73.8277C18.3444 73.928 18.3453 74.0921 18.245 74.1937C18.1942 74.2448 18.1276 74.2705 18.0608 74.2705Z" fill="#3F98CB"/>
<path d="M16.6948 79.1279H16.5291C16.5562 79.1194 16.5841 79.1152 16.612 79.1152C16.6399 79.1152 16.6678 79.1194 16.6948 79.1279Z" fill="#3F98CB"/>
<path d="M16.612 79.6582C16.5432 79.6582 16.4741 79.6322 16.4214 79.5798C16.3145 79.4745 16.3137 79.3027 16.4189 79.1961C16.4509 79.1638 16.4888 79.1411 16.5291 79.1281H16.6948C16.7341 79.1408 16.7714 79.1627 16.8028 79.1939C16.9095 79.2991 16.9106 79.4709 16.8051 79.5778C16.752 79.6314 16.6821 79.6582 16.612 79.6582Z" fill="#3582B6"/>
<path d="M2.11316 63.4678C2.04383 63.4678 1.97339 63.454 1.90572 63.425C1.63805 63.3101 1.51403 63.0001 1.62894 62.7325C1.71457 62.5328 1.90931 62.4129 2.11372 62.4129C2.18305 62.4129 2.25349 62.4267 2.32144 62.4557C2.58882 62.5703 2.71285 62.8802 2.59822 63.1479C2.51259 63.3479 2.31785 63.4678 2.11316 63.4678Z" fill="#48A9E1"/>
<path d="M4.19505 53.7153C4.13676 53.7153 4.0771 53.7037 4.01992 53.6791C3.79396 53.5822 3.68928 53.3203 3.78623 53.0944C3.8586 52.9256 4.02296 52.8245 4.1956 52.8245C4.25416 52.8245 4.31354 52.8361 4.371 52.8607C4.59695 52.9574 4.70165 53.2192 4.60469 53.4455C4.53232 53.6142 4.36796 53.7153 4.19505 53.7153Z" fill="#50C6E4"/>
<path d="M4.16192 56.4385C4.04756 56.4385 3.93928 56.3708 3.89315 56.2584C3.83183 56.11 3.90282 55.9399 4.05115 55.8788C4.08761 55.8639 4.1249 55.857 4.16192 55.857C4.27627 55.857 4.38455 55.925 4.43068 56.0371C4.49173 56.1855 4.42102 56.3553 4.27268 56.4167C4.23622 56.4316 4.19893 56.4385 4.16192 56.4385Z" fill="#48A9E1"/>
<path d="M8.63068 52.8154C8.505 52.8154 8.38566 52.7409 8.33511 52.6174C8.26799 52.4544 8.34561 52.2674 8.50886 52.2003C8.54864 52.1837 8.5898 52.176 8.63041 52.176C8.75609 52.176 8.87542 52.2505 8.92624 52.374C8.99337 52.5373 8.91547 52.7243 8.75222 52.7914C8.71244 52.8077 8.67129 52.8154 8.63068 52.8154Z" fill="#50C6E4"/>
<path d="M6.61149 59.7017C6.50652 59.7017 6.4068 59.6392 6.36426 59.5359C6.30791 59.3995 6.3731 59.2431 6.50956 59.1868C6.54298 59.1732 6.57723 59.1666 6.61121 59.1666C6.71645 59.1666 6.81617 59.229 6.85871 59.3323C6.91506 59.4691 6.84987 59.6251 6.71313 59.6815C6.67999 59.6953 6.64546 59.7017 6.61149 59.7017Z" fill="#48A9E1"/>
<path d="M6.24935 55.4404C6.17615 55.4404 6.10654 55.3968 6.07698 55.325C6.03776 55.2297 6.08306 55.1206 6.17836 55.0813C6.20156 55.0719 6.22559 55.0672 6.24935 55.0672C6.32255 55.0672 6.39216 55.1109 6.42171 55.1827C6.46121 55.278 6.41564 55.3871 6.32034 55.4263C6.29714 55.436 6.2731 55.4404 6.24935 55.4404Z" fill="#48A9E1"/>
<path d="M13.3202 50.1035C13.2465 50.1035 13.1724 50.0756 13.1158 50.0198C13.0017 49.9068 13.0006 49.7226 13.1136 49.6085C13.1702 49.5511 13.2453 49.5221 13.3202 49.5221C13.394 49.5221 13.468 49.55 13.5246 49.606C13.6387 49.719 13.6398 49.903 13.5271 50.0171C13.4702 50.0748 13.3953 50.1035 13.3202 50.1035Z" fill="#50C6E4"/>
<path d="M15.4806 55.29C15.4422 55.29 15.4035 55.2754 15.374 55.2461C15.3143 55.1873 15.3137 55.0912 15.3728 55.0318C15.4024 55.0017 15.4416 54.9867 15.4806 54.9867C15.519 54.9867 15.5576 55.0014 15.5872 55.0304C15.6469 55.0895 15.6471 55.1853 15.5886 55.245C15.5587 55.2748 15.5198 55.29 15.4806 55.29Z" fill="#48A9E1"/>
<path d="M16.9228 59.7178C16.8891 59.7178 16.8551 59.7048 16.8291 59.6791C16.7769 59.6275 16.7764 59.5429 16.828 59.4907C16.8543 59.4642 16.8885 59.4509 16.9228 59.4509C16.9567 59.4509 16.9907 59.4639 17.0167 59.4896C17.0689 59.541 17.0694 59.6255 17.0178 59.678C16.9915 59.7045 16.9573 59.7178 16.9228 59.7178Z" fill="#48A9E1"/>
<path d="M18.848 59.2114C18.8143 59.2114 18.7809 59.1987 18.7552 59.1733C18.703 59.1219 18.7027 59.0382 18.7541 58.9863C18.7798 58.9601 18.8138 58.9471 18.848 58.9471C18.8815 58.9471 18.9152 58.9598 18.9408 58.9852C18.9928 59.0366 18.9933 59.1203 18.9419 59.1722C18.9163 59.1984 18.882 59.2114 18.848 59.2114Z" fill="#48A9E1"/>
<path d="M8.21415 47.4434C8.13294 47.4434 8.05172 47.4124 7.9893 47.3508C7.86389 47.2268 7.86251 47.0243 7.98681 46.8989C8.04924 46.8357 8.13156 46.8039 8.21415 46.8039C8.29508 46.8039 8.37629 46.8346 8.43872 46.8962C8.5644 47.0202 8.56551 47.2227 8.44148 47.3483C8.37905 47.4116 8.29646 47.4434 8.21415 47.4434Z" fill="#50C6E4"/>
<path d="M24.6897 58.1069C24.6239 58.1069 24.5585 58.0821 24.5079 58.0323C24.4062 57.9318 24.4051 57.768 24.5057 57.6663C24.5565 57.6152 24.6231 57.5896 24.6899 57.5896C24.7557 57.5896 24.8214 57.6144 24.8717 57.6641C24.9733 57.7647 24.9742 57.9285 24.8739 58.0301C24.8234 58.0812 24.7565 58.1069 24.6897 58.1069Z" fill="#48A9E1"/>
<path d="M23.2411 63.4956C23.1721 63.4956 23.1033 63.4694 23.0503 63.4172C22.9436 63.3119 22.9428 63.1401 23.0478 63.0332C23.1011 62.9796 23.171 62.9525 23.2409 62.9525C23.3099 62.9525 23.3787 62.9788 23.4317 63.031C23.5384 63.1362 23.5395 63.3081 23.4339 63.4149C23.3809 63.4685 23.311 63.4956 23.2411 63.4956Z" fill="#48A9E1"/>
<path d="M21.1043 53.1616C20.9581 53.1616 20.8391 53.0437 20.8383 52.897C20.8372 52.75 20.9557 52.6304 21.1026 52.6293C21.1032 52.6293 21.1034 52.6293 21.104 52.6293C21.2504 52.6293 21.3694 52.7473 21.3703 52.894C21.3711 53.0409 21.2526 53.1605 21.1059 53.1616C21.1054 53.1616 21.1048 53.1616 21.1043 53.1616Z" fill="#50C6E4"/>
<path d="M15.3899 46.5425C15.322 46.5425 15.2543 46.5168 15.2021 46.4654C15.0971 46.3618 15.096 46.1925 15.1999 46.0873C15.2521 46.0345 15.3212 46.008 15.3902 46.008C15.4579 46.008 15.5258 46.0337 15.578 46.0851C15.683 46.1889 15.6841 46.358 15.5803 46.4632C15.528 46.516 15.459 46.5425 15.3899 46.5425Z" fill="#50C6E4"/>
<path d="M11.6827 48.4258C11.6352 48.4258 11.588 48.4081 11.5515 48.3722C11.4783 48.2995 11.4775 48.1816 11.5499 48.1084C11.5863 48.0714 11.6344 48.0529 11.6827 48.0529C11.73 48.0529 11.7775 48.0708 11.8139 48.1067C11.8869 48.1791 11.8877 48.2973 11.8153 48.3705C11.7788 48.4076 11.7308 48.4258 11.6827 48.4258Z" fill="#50C6E4"/>
<path d="M44.5321 47.7261C44.5246 47.7261 44.5171 47.7258 44.5097 47.7252C44.3495 47.7131 44.2296 47.5733 44.2418 47.4134C44.2534 47.2609 44.381 47.1446 44.5315 47.1446C44.539 47.1446 44.5464 47.1449 44.5539 47.1454C44.7138 47.1579 44.834 47.2974 44.8216 47.4576C44.81 47.6101 44.6823 47.7261 44.5321 47.7261Z" fill="#50C6E4"/>
<path d="M39.9009 63.5127C39.897 63.5127 39.8929 63.5124 39.889 63.5121C39.8056 63.5061 39.7429 63.4331 39.7495 63.3494C39.7553 63.2702 39.8216 63.2097 39.9003 63.2097C39.9042 63.2097 39.9081 63.2097 39.9122 63.2102C39.9953 63.2163 40.058 63.2892 40.0517 63.3726C40.0456 63.4522 39.9793 63.5127 39.9009 63.5127Z" fill="#48A9E1"/>
<path d="M50.627 65.0938C50.6187 65.0938 50.6104 65.0935 50.6021 65.0929C50.4259 65.0794 50.2941 64.9258 50.3074 64.7499C50.3204 64.5822 50.4604 64.4546 50.6259 64.4546C50.6342 64.4546 50.6424 64.4548 50.6507 64.4554C50.8264 64.4686 50.9584 64.6225 50.9449 64.7982C50.9325 64.9661 50.7922 65.0938 50.627 65.0938Z" fill="#48A9E1"/>
<path d="M54.5787 57.5015C54.5732 57.5015 54.5679 57.5012 54.5624 57.5009C54.4453 57.4918 54.3574 57.3896 54.3666 57.273C54.3748 57.1612 54.4682 57.0764 54.5784 57.0764C54.5837 57.0764 54.5892 57.0766 54.5947 57.0772C54.7116 57.086 54.7991 57.188 54.7903 57.3051C54.7817 57.4167 54.6886 57.5015 54.5787 57.5015Z" fill="#48A9E1"/>
<path d="M30.6636 48.9189C30.657 48.9189 30.6501 48.9187 30.6434 48.9181C30.5009 48.9073 30.3943 48.783 30.405 48.6405C30.4153 48.5046 30.5288 48.4013 30.6628 48.4013C30.6694 48.4013 30.676 48.4016 30.6829 48.4021C30.8255 48.4129 30.9321 48.5372 30.921 48.68C30.9108 48.8156 30.7976 48.9189 30.6636 48.9189Z" fill="#50C6E4"/>
<path d="M28.7524 62.4849C28.7455 62.4849 28.7386 62.4849 28.7317 62.4843C28.5822 62.4727 28.4704 62.3423 28.4817 62.1929C28.4925 62.0504 28.6115 61.9421 28.7521 61.9421C28.759 61.9421 28.7659 61.9424 28.7731 61.9429C28.9225 61.9545 29.0344 62.0846 29.0231 62.234C29.012 62.3766 28.893 62.4849 28.7524 62.4849Z" fill="#48A9E1"/>
<path d="M36.6013 50.3843C36.5265 50.3843 36.4522 50.3528 36.3994 50.2915C36.3038 50.1801 36.3165 50.0122 36.4278 49.9166C36.4781 49.8735 36.5397 49.8523 36.601 49.8523C36.6759 49.8523 36.7505 49.8838 36.8032 49.9451C36.8988 50.0567 36.8858 50.2246 36.7745 50.3202C36.7242 50.3633 36.6626 50.3843 36.6013 50.3843Z" fill="#50C6E4"/>
<path d="M45.2411 51.7397C45.2345 51.7397 45.2276 51.7395 45.2207 51.7389C45.0734 51.7276 44.9632 51.5991 44.9746 51.4519C44.9853 51.3116 45.1024 51.2047 45.2408 51.2047C45.2477 51.2047 45.2546 51.205 45.2616 51.2055C45.4085 51.2168 45.5187 51.3453 45.5077 51.4925C45.4969 51.6328 45.3798 51.7397 45.2411 51.7397Z" fill="#50C6E4"/>
<path d="M46.7985 47.7627C46.7935 47.7627 46.7888 47.7624 46.7841 47.7621C46.6814 47.7541 46.6043 47.6646 46.6123 47.5619C46.6198 47.4641 46.7013 47.3895 46.798 47.3895C46.8027 47.3895 46.8076 47.3898 46.8123 47.3901C46.9151 47.3981 46.9919 47.4876 46.9841 47.5903C46.9767 47.6881 46.8949 47.7627 46.7985 47.7627Z" fill="#50C6E4"/>
<path d="M62.8334 60.5981C62.7715 60.5981 62.7135 60.56 62.6908 60.4987C62.6621 60.42 62.7024 60.333 62.7812 60.304C62.7983 60.2976 62.816 60.2946 62.8331 60.2946C62.895 60.2946 62.953 60.3327 62.9756 60.394C63.0043 60.4727 62.9643 60.56 62.8853 60.5888C62.8682 60.5951 62.8505 60.5981 62.8334 60.5981Z" fill="#48A9E1"/>
<path d="M58.1961 59.9937C58.1417 59.9937 58.0909 59.9602 58.071 59.9064C58.0456 59.8373 58.0809 59.7605 58.15 59.7354C58.1652 59.7296 58.1809 59.7271 58.1961 59.7271C58.2505 59.7271 58.3016 59.7605 58.3212 59.8147C58.3466 59.8834 58.311 59.9602 58.242 59.9856C58.2268 59.9912 58.2113 59.9937 58.1961 59.9937Z" fill="#48A9E1"/>
<path d="M57.8345 61.9502C57.7807 61.9502 57.7298 61.9171 57.7102 61.8637C57.6851 61.795 57.7202 61.719 57.7887 61.6939C57.8039 61.6883 57.8193 61.6858 57.8345 61.6858C57.8884 61.6858 57.9389 61.719 57.9585 61.7723C57.9837 61.8411 57.9483 61.9168 57.8798 61.9422C57.8649 61.9477 57.8494 61.9502 57.8345 61.9502Z" fill="#48A9E1"/>
<path d="M72.4121 49.3452C72.3254 49.3452 72.2441 49.2919 72.2124 49.206C72.172 49.0958 72.2284 48.9737 72.3386 48.9331C72.3627 48.9242 72.3875 48.9201 72.4118 48.9201C72.4983 48.9201 72.5798 48.9734 72.6115 49.0593C72.6519 49.1695 72.5952 49.2916 72.4853 49.332C72.461 49.3408 72.4364 49.3452 72.4121 49.3452Z" fill="#50C6E4"/>
<path d="M56.0021 49.2969C55.8965 49.2969 55.7974 49.232 55.7593 49.1273C55.7098 48.993 55.7786 48.8444 55.9128 48.795C55.9424 48.7842 55.9725 48.7792 56.0021 48.7792C56.1073 48.7792 56.2065 48.8441 56.2449 48.9488C56.2943 49.0828 56.2255 49.2317 56.0913 49.2809C56.0617 49.2916 56.0316 49.2969 56.0021 49.2969Z" fill="#50C6E4"/>
<path d="M52.2148 64.3018C52.1043 64.3018 52.0001 64.2335 51.9601 64.1236C51.9082 63.983 51.9803 63.8272 52.1211 63.7753C52.1521 63.7639 52.1836 63.7587 52.2148 63.7587C52.3253 63.7587 52.4291 63.8269 52.4692 63.9366C52.5211 64.0772 52.4487 64.2333 52.3084 64.2849C52.2775 64.2962 52.246 64.3018 52.2148 64.3018Z" fill="#48A9E1"/>
<path d="M70.8928 64.4028C70.784 64.4028 70.6818 64.3357 70.642 64.2274C70.5909 64.0888 70.6622 63.9352 70.8009 63.8844C70.8312 63.873 70.8625 63.8678 70.8931 63.8678C71.002 63.8678 71.1042 63.9349 71.1439 64.0432C71.1948 64.1819 71.1238 64.3354 70.9851 64.3863C70.9547 64.3976 70.9235 64.4028 70.8928 64.4028Z" fill="#48A9E1"/>
<path d="M70.692 60.1313C70.6161 60.1313 70.5448 60.0844 70.5172 60.009C70.4818 59.9123 70.5313 59.8051 70.6279 59.7695C70.6492 59.7618 70.671 59.7582 70.6923 59.7582C70.7683 59.7582 70.8395 59.8048 70.8674 59.8805C70.9028 59.9769 70.8531 60.0841 70.7567 60.1197C70.7354 60.1275 70.7136 60.1313 70.692 60.1313Z" fill="#48A9E1"/>
<path d="M73.8148 51.6021C73.7609 51.6021 73.7104 51.5689 73.6907 51.5156C73.6656 51.4471 73.7007 51.3711 73.7692 51.3457C73.7841 51.3402 73.7996 51.3377 73.8148 51.3377C73.8686 51.3377 73.9192 51.3708 73.9388 51.4244C73.9642 51.4929 73.9289 51.5689 73.8604 51.594C73.8454 51.5996 73.83 51.6021 73.8148 51.6021Z" fill="#50C6E4"/>
<path d="M72.443 57.5396C72.3378 57.5396 72.2389 57.4746 72.2002 57.3697C72.1511 57.2357 72.2196 57.0868 72.3541 57.0376C72.3834 57.0269 72.4138 57.0216 72.4433 57.0216C72.5488 57.0216 72.6477 57.0865 72.6861 57.1915C72.7356 57.3255 72.6668 57.4741 72.5323 57.5235C72.503 57.5343 72.4729 57.5396 72.443 57.5396Z" fill="#48A9E1"/>
<path d="M68.1952 53.9541C68.0847 53.9541 67.9809 53.8862 67.9403 53.7762C67.8886 53.6353 67.961 53.4795 68.1016 53.4279C68.1325 53.4166 68.164 53.4113 68.1949 53.4113C68.3054 53.4113 68.4096 53.4793 68.4499 53.5889C68.5016 53.7298 68.4295 53.8856 68.2886 53.9375C68.2577 53.9489 68.2262 53.9541 68.1952 53.9541Z" fill="#50C6E4"/>
<path d="M42.9054 72.6123H35.368V22.6615H42.9054V72.6123Z" fill="white"/>
<path d="M35.5155 72.4648H42.7576V22.809H35.5155V72.4648ZM42.9053 72.7598H35.368C35.2865 72.7598 35.2205 72.6937 35.2205 72.6123V22.6615C35.2205 22.58 35.2865 22.514 35.368 22.514H42.9053C42.9866 22.514 43.0528 22.58 43.0528 22.6615V72.6123C43.0528 72.6937 42.9866 72.7598 42.9053 72.7598Z" fill="#6F4324"/>
<path d="M44.4127 20.3467H33.8604V10.2945H44.4127V20.3467Z" fill="white"/>
<path d="M34.0079 20.1994H44.265V10.4417H34.0079V20.1994ZM44.4128 20.4941H33.8604C33.7789 20.4941 33.7131 20.4281 33.7131 20.3466V10.2945C33.7131 10.213 33.7789 10.147 33.8604 10.147H44.4128C44.4942 10.147 44.5603 10.213 44.5603 10.2945V20.3466C44.5603 20.4281 44.4942 20.4941 44.4128 20.4941Z" fill="#6F4324"/>
<path d="M42.9054 22.5913H35.368L33.8565 20.4163H44.4166L42.9054 22.5913Z" fill="white"/>
<path d="M35.4451 22.4445H42.828L44.1346 20.564H34.1385L35.4451 22.4445ZM42.9054 22.7393H35.368C35.3197 22.7393 35.2744 22.7155 35.2468 22.676L33.7352 20.5007C33.704 20.4557 33.7002 20.3969 33.7259 20.3482C33.7513 20.2996 33.8015 20.2692 33.8565 20.2692H44.4166C44.4716 20.2692 44.5219 20.2996 44.5473 20.3482C44.573 20.3969 44.5691 20.4557 44.5379 20.5007L43.0264 22.676C42.9988 22.7155 42.9535 22.7393 42.9054 22.7393Z" fill="#6F4324"/>
<path d="M41.8261 74.2344H36.4466L35.368 72.682H42.9054L41.8261 74.2344Z" fill="white"/>
<path d="M36.524 74.0868H41.7491L42.6231 72.8294H35.65L36.524 74.0868ZM41.8262 74.3818H36.4467C36.3983 74.3818 36.353 74.3581 36.3257 74.3183L35.2467 72.7659C35.2155 72.7209 35.2119 72.6621 35.2373 72.6137C35.2628 72.5648 35.313 72.5342 35.368 72.5342H42.9054C42.9603 72.5342 43.0103 72.5648 43.0357 72.6137C43.0614 72.6621 43.0576 72.7209 43.0264 72.7659L41.9474 74.3183C41.9198 74.3581 41.8745 74.3818 41.8262 74.3818Z" fill="#6F4324"/>
<path d="M40.3528 74.3036H37.9203L37.4325 75.6431H40.8406L40.3528 74.3036Z" fill="white"/>
<path d="M37.6433 75.496H40.6298L40.2495 74.4516H38.0236L37.6433 75.496ZM40.8406 75.791H37.4325C37.3845 75.791 37.3394 75.7678 37.3118 75.7283C37.2842 75.6885 37.2776 75.6385 37.2941 75.5932L37.7817 74.2535C37.8029 74.1953 37.8582 74.1566 37.9203 74.1566H40.3528C40.4149 74.1566 40.4702 74.1953 40.4915 74.2535L40.9793 75.5932C40.9956 75.6385 40.9889 75.6885 40.9613 75.7283C40.934 75.7678 40.8887 75.791 40.8406 75.791Z" fill="#6F4324"/>
<path d="M44.3813 10.2246L42.2504 4.11173C40.8594 0.120269 37.4112 0.121093 36.0207 4.11311L33.8918 10.2246H44.3813Z" fill="#FDFDE5"/>
<path d="M34.0995 10.0773H44.1738L42.1115 4.16029C41.4795 2.34797 40.3674 1.266 39.1357 1.266C37.904 1.266 36.7914 2.34853 36.1599 4.16168L34.0995 10.0773ZM44.5887 10.3721H33.6844L35.8812 4.06445C36.556 2.12755 37.7728 0.971261 39.1357 0.970985C40.4986 0.970985 41.7151 2.12671 42.3896 4.06306L44.5887 10.3721Z" fill="#6F4324"/>
<path d="M42.9054 47.5957H35.368V46.6126H42.9054V47.5957Z" fill="white"/>
<path d="M35.5155 47.4484H42.7576V46.7601H35.5155V47.4484ZM42.9053 47.7432H35.368C35.2865 47.7432 35.2205 47.6772 35.2205 47.5957V46.6126C35.2205 46.5311 35.2865 46.4651 35.368 46.4651H42.9053C42.9866 46.4651 43.0528 46.5311 43.0528 46.6126V47.5957C43.0528 47.6772 42.9866 47.7432 42.9053 47.7432Z" fill="#6F4324"/>
<path d="M42.9054 47.5955H35.368V50.668H42.9054V47.5955Z" fill="white"/>
<path d="M35.5155 50.5209H42.7576V47.7435H35.5155V50.5209ZM42.9053 50.8159H35.368C35.2865 50.8159 35.2205 50.7499 35.2205 50.6684V47.596C35.2205 47.5145 35.2865 47.4487 35.368 47.4487H42.9053C42.9866 47.4487 43.0528 47.5145 43.0528 47.596V50.6684C43.0528 50.7499 42.9866 50.8159 42.9053 50.8159Z" fill="#6F4324"/>
<path d="M42.9054 50.6681H35.368V56.2368H42.9054V50.6681Z" fill="#FDFDE5"/>
<path d="M35.5155 56.089H42.7576V50.8153H35.5155V56.089ZM43.0528 56.3843H35.2205V50.5203H43.0528V56.3843Z" fill="#6F4324"/>
<path d="M30.0305 74.1279H26.8105V73.5628H30.0305V74.1279Z" fill="white"/>
<path d="M26.9581 73.9799H29.883V73.7097H26.9581V73.9799ZM30.0305 74.2749H26.8106C26.7294 74.2749 26.6633 74.2089 26.6633 74.1274V73.5622C26.6633 73.4808 26.7294 73.4147 26.8106 73.4147H30.0305C30.112 73.4147 30.1778 73.4808 30.1778 73.5622V74.1274C30.1778 74.2089 30.112 74.2749 30.0305 74.2749Z" fill="#6F4324"/>
<path d="M30.0305 77.79H26.8105V77.2246H30.0305V77.79Z" fill="white"/>
<path d="M26.9581 77.642H29.883V77.3716H26.9581V77.642ZM30.0305 77.937H26.8106C26.7294 77.937 26.6633 77.871 26.6633 77.7895V77.2241C26.6633 77.1426 26.7294 77.0766 26.8106 77.0766H30.0305C30.112 77.0766 30.1778 77.1426 30.1778 77.2241V77.7895C30.1778 77.871 30.112 77.937 30.0305 77.937Z" fill="#6F4324"/>
<path d="M51.4623 74.1279H48.2429V73.5628H51.4623V74.1279Z" fill="white"/>
<path d="M48.3904 73.9799H51.3148V73.7097H48.3904V73.9799ZM51.4623 74.2749H48.2429C48.1614 74.2749 48.0954 74.2089 48.0954 74.1274V73.5622C48.0954 73.4808 48.1614 73.4147 48.2429 73.4147H51.4623C51.5438 73.4147 51.6098 73.4808 51.6098 73.5622V74.1274C51.6098 74.2089 51.5438 74.2749 51.4623 74.2749Z" fill="#6F4324"/>
<path d="M51.4623 77.79H48.2429V77.2246H51.4623V77.79Z" fill="white"/>
<path d="M48.3904 77.642H51.3148V77.3716H48.3904V77.642ZM51.4623 77.937H48.2429C48.1614 77.937 48.0954 77.871 48.0954 77.7895V77.2241C48.0954 77.1426 48.1614 77.0766 48.2429 77.0766H51.4623C51.5438 77.0766 51.6098 77.1426 51.6098 77.2241V77.7895C51.6098 77.871 51.5438 77.937 51.4623 77.937Z" fill="#6F4324"/>
<path d="M48.8459 81.6523H42.5355V49.7237H48.8459V81.6523Z" fill="white"/>
<path d="M42.6394 81.5486H48.742V49.8277H42.6394V81.5486ZM48.8459 81.7563H42.5355C42.478 81.7563 42.4316 81.7099 42.4316 81.6525V49.7238C42.4316 49.6666 42.478 49.6199 42.5355 49.6199H48.8459C48.9033 49.6199 48.9497 49.6666 48.9497 49.7238V81.6525C48.9497 81.7099 48.9033 81.7563 48.8459 81.7563Z" fill="#6F4324"/>
<path d="M47.9426 82.6128H43.4388L42.5355 81.6941H48.8459L47.9426 82.6128Z" fill="white"/>
<path d="M43.4821 82.5091H47.8992L48.5983 81.7981H42.783L43.4821 82.5091ZM47.9426 82.7168H43.4387C43.4111 82.7168 43.3843 82.7055 43.365 82.6856L42.4614 81.7669C42.4322 81.737 42.4233 81.6926 42.4396 81.6539C42.4559 81.6152 42.4935 81.5903 42.5355 81.5903H48.8458C48.8878 81.5903 48.9254 81.6152 48.9417 81.6539C48.958 81.6926 48.9491 81.737 48.9199 81.7669L48.0163 82.6856C47.997 82.7055 47.9702 82.7168 47.9426 82.7168Z" fill="#6F4324"/>
<path d="M46.709 82.654H44.6724L44.2641 83.4468H47.1175L46.709 82.654Z" fill="#BE1C2D"/>
<path d="M44.4343 83.3426H46.9471L46.6458 82.7575H44.7359L44.4343 83.3426ZM47.1176 83.5503H44.2641C44.228 83.5503 44.1943 83.5315 44.1752 83.5006C44.1567 83.4696 44.155 83.4312 44.1719 83.3989L44.5801 82.6062C44.5978 82.5716 44.6335 82.5498 44.6724 82.5498H46.709C46.748 82.5498 46.7836 82.5716 46.8013 82.6062L47.2098 83.3989C47.2264 83.4312 47.2247 83.4696 47.2062 83.5006C47.1874 83.5315 47.1535 83.5503 47.1176 83.5503Z" fill="#6F4324"/>
<path d="M48.8868 49.8071L47.5885 46.1888C46.7405 43.826 44.6392 43.8266 43.7921 46.1897L42.4946 49.8071H48.8868Z" fill="white"/>
<path d="M42.6206 49.7182H48.7608L47.5051 46.2184C47.12 45.1458 46.4416 44.5052 45.6903 44.5052C44.9384 44.5055 44.26 45.1461 43.8752 46.2192L42.6206 49.7182ZM48.8868 49.8955H42.4946C42.4659 49.8955 42.4388 49.8814 42.4223 49.8579C42.4057 49.8342 42.4015 49.8041 42.4112 49.777L43.7086 46.1596C44.1197 45.0129 44.8605 44.3282 45.6903 44.3282C46.5198 44.3282 47.2603 45.0124 47.6717 46.1584L48.9702 49.777C48.9799 49.8041 48.9757 49.8342 48.9594 49.8579C48.9426 49.8814 48.9155 49.8955 48.8868 49.8955Z" fill="#6F4324"/>
<path d="M35.7376 81.6523H29.4272V49.7237H35.7376V81.6523Z" fill="white"/>
<path d="M29.531 81.5486H35.6337V49.8277H29.531V81.5486ZM35.7375 81.7563H29.4272C29.3697 81.7563 29.3233 81.7099 29.3233 81.6525V49.7238C29.3233 49.6666 29.3697 49.6199 29.4272 49.6199H35.7375C35.795 49.6199 35.8414 49.6666 35.8414 49.7238V81.6525C35.8414 81.7099 35.795 81.7563 35.7375 81.7563Z" fill="#6F4324"/>
<path d="M34.8343 82.6128H30.3304L29.4272 81.6941H35.7376L34.8343 82.6128Z" fill="white"/>
<path d="M30.3739 82.5091H34.791L35.4901 81.7981H29.6747L30.3739 82.5091ZM34.8344 82.7168H30.3305C30.3026 82.7168 30.2758 82.7055 30.2565 82.6856L29.3532 81.7669C29.3239 81.737 29.3151 81.6926 29.3314 81.6539C29.3477 81.6152 29.3853 81.5903 29.4272 81.5903H35.7376C35.7796 81.5903 35.8172 81.6152 35.8335 81.6539C35.8498 81.6926 35.8409 81.737 35.8117 81.7669L34.9084 82.6856C34.8891 82.7055 34.8623 82.7168 34.8344 82.7168Z" fill="#6F4324"/>
<path d="M33.6007 82.654H31.5641L31.1556 83.4468H34.0093L33.6007 82.654Z" fill="#BE1C2D"/>
<path d="M31.326 83.3426H33.8388L33.5375 82.7575H31.6274L31.326 83.3426ZM34.0093 83.5503H31.1556C31.1197 83.5503 31.086 83.5315 31.0672 83.5006C31.0481 83.4696 31.0467 83.4312 31.0633 83.3989L31.4719 82.6062C31.4895 82.5716 31.5252 82.5498 31.5641 82.5498H33.6007C33.6397 82.5498 33.6753 82.5716 33.693 82.6062L34.1013 83.3989C34.1181 83.4312 34.1167 83.4696 34.0977 83.5006C34.0789 83.5315 34.0452 83.5503 34.0093 83.5503Z" fill="#6F4324"/>
<path d="M35.7785 49.8071L34.4802 46.1888C33.6322 43.826 31.531 43.8266 30.6835 46.1897L29.3864 49.8071H35.7785Z" fill="white"/>
<path d="M29.5123 49.7182H35.6525L34.3968 46.2184C34.0118 45.1455 33.3333 44.5052 32.582 44.5052C31.8304 44.5055 31.1517 45.1461 30.7669 46.2192L29.5123 49.7182ZM35.7785 49.8955H29.3863C29.3576 49.8955 29.3305 49.8814 29.314 49.8579C29.2974 49.8342 29.2933 49.8041 29.3029 49.777L30.6004 46.1596C31.0114 45.0129 31.7522 44.3282 32.582 44.3282C33.4112 44.3282 34.1521 45.0124 34.5634 46.1584L35.8619 49.777C35.8716 49.8041 35.8674 49.8342 35.8509 49.8579C35.8343 49.8814 35.8072 49.8955 35.7785 49.8955Z" fill="#6F4324"/>
<path d="M51.7474 80.1494H51.6609C51.4811 80.1494 51.3355 80.0036 51.3355 79.8237V71.5284C51.3355 71.3486 51.4811 71.203 51.6609 71.203H51.7474C51.9272 71.203 52.0728 71.3486 52.0728 71.5284V79.8237C52.0728 80.0036 51.9272 80.1494 51.7474 80.1494Z" fill="white"/>
<path d="M51.6609 71.3505C51.5626 71.3505 51.4831 71.43 51.4831 71.5284V79.8237C51.4831 79.922 51.5626 80.0019 51.6609 80.0019H51.7474C51.8457 80.0019 51.9253 79.922 51.9253 79.8237V71.5284C51.9253 71.43 51.8457 71.3505 51.7474 71.3505H51.6609ZM51.7474 80.2969H51.6609C51.4002 80.2969 51.188 80.0845 51.188 79.8237V71.5284C51.188 71.2676 51.4002 71.0555 51.6609 71.0555H51.7474C52.0082 71.0555 52.2203 71.2676 52.2203 71.5284V79.8237C52.2203 80.0845 52.0082 80.2969 51.7474 80.2969Z" fill="#6F4324"/>
<path d="M26.6122 80.1494H26.5257C26.3459 80.1494 26.2003 80.0036 26.2003 79.8237V71.5284C26.2003 71.3486 26.3459 71.203 26.5257 71.203H26.6122C26.792 71.203 26.9376 71.3486 26.9376 71.5284V79.8237C26.9376 80.0036 26.792 80.1494 26.6122 80.1494Z" fill="white"/>
<path d="M26.5258 71.3505C26.4277 71.3505 26.3479 71.43 26.3479 71.5284V79.8237C26.3479 79.922 26.4277 80.0019 26.5258 80.0019H26.6122C26.7106 80.0019 26.7904 79.922 26.7904 79.8237V71.5284C26.7904 71.43 26.7106 71.3505 26.6122 71.3505H26.5258ZM26.6122 80.2969H26.5258C26.265 80.2969 26.0529 80.0845 26.0529 79.8237V71.5284C26.0529 71.2676 26.265 71.0555 26.5258 71.0555H26.6122C26.873 71.0555 27.0851 71.2676 27.0851 71.5284V79.8237C27.0851 80.0845 26.873 80.2969 26.6122 80.2969Z" fill="#6F4324"/>
<path d="M32.8228 53.1401V55.2593H32.345V53.1401H32.8228Z" fill="#100F0D"/>
<path d="M31.9563 58.5413C32.082 58.6073 32.2834 58.6733 32.4878 58.6733C32.7079 58.6733 32.824 58.5822 32.824 58.4438C32.824 58.3118 32.7234 58.2363 32.4687 58.1482C32.1165 58.0223 31.884 57.8275 31.884 57.5193C31.884 57.1577 32.1889 56.8842 32.6858 56.8842C32.9278 56.8842 33.1007 56.9315 33.2264 56.9911L33.1198 57.3748C33.038 57.3339 32.8839 57.274 32.6795 57.274C32.472 57.274 32.3712 57.3718 32.3712 57.4787C32.3712 57.6137 32.4878 57.6737 32.7646 57.7773C33.1386 57.9156 33.3115 58.1107 33.3115 58.4093C33.3115 58.7645 33.0411 59.0664 32.4593 59.0664C32.2174 59.0664 31.9782 59.0004 31.8588 58.9344L31.9563 58.5413Z" fill="#100F0D"/>
<path d="M32.332 61.6311H32.5207C32.7596 61.6311 32.901 61.5115 32.901 61.3259C32.901 61.1342 32.769 61.0336 32.5488 61.0336C32.4326 61.0336 32.3665 61.04 32.332 61.0494V61.6311ZM31.8572 60.7193C32.0113 60.6942 32.2375 60.6754 32.4955 60.6754C32.8099 60.6754 33.03 60.7223 33.1809 60.8417C33.3098 60.9425 33.3792 61.0933 33.3792 61.2886C33.3792 61.5554 33.1872 61.7411 33.0049 61.8071V61.8167C33.1527 61.8761 33.2344 62.0145 33.288 62.2095C33.3538 62.4515 33.4167 62.7283 33.4576 62.8101H32.9673C32.9358 62.7474 32.8823 62.5777 32.8226 62.3164C32.7629 62.0491 32.6718 61.98 32.4734 61.977H32.332V62.8101H31.8572V60.7193Z" fill="#100F0D"/>
<path d="M32.0707 65.5298C32.0707 65.948 32.2657 66.2402 32.5864 66.2402C32.9104 66.2402 33.0958 65.9322 33.0958 65.5204C33.0958 65.1367 32.9165 64.8097 32.5864 64.8097C32.2596 64.8097 32.0707 65.1179 32.0707 65.5298ZM33.6021 65.5044C33.6021 66.2027 33.1839 66.6206 32.5613 66.6206C31.9356 66.6206 31.5646 66.146 31.5646 65.5392C31.5646 64.9039 31.9735 64.4293 32.5958 64.4293C33.2469 64.4293 33.6021 64.9166 33.6021 65.5044Z" fill="#100F0D"/>
<path d="M45.8784 53.2884V54.9443H45.5049V53.2884H45.8784Z" fill="#100F0D"/>
<path d="M45.0049 57.8931V56.2368H45.4425L45.7864 56.8437C45.8847 57.0183 45.9806 57.2246 46.0568 57.411H46.0615C46.0394 57.1926 46.0322 56.9691 46.0322 56.7183V56.2368H46.3761V57.8931H45.9831L45.6292 57.2539C45.5309 57.0768 45.4204 56.8633 45.3417 56.6691H45.332C45.3442 56.8904 45.3491 57.1238 45.3491 57.3942V57.8931H45.0049Z" fill="#100F0D"/>
<path d="M45.3713 60.5579C45.4033 60.5651 45.4574 60.5651 45.5016 60.5651C45.8431 60.5679 46.0668 60.3809 46.0668 59.9856C46.0668 59.6414 45.8652 59.4594 45.5409 59.4594C45.4599 59.4594 45.4033 59.4671 45.3713 59.4743V60.5579ZM44.9978 59.2088C45.1354 59.1867 45.3146 59.1718 45.5016 59.1718C45.8185 59.1718 46.0251 59.2309 46.1823 59.3489C46.3544 59.4768 46.4624 59.6806 46.4624 59.9732C46.4624 60.29 46.3469 60.5088 46.1894 60.6441C46.0151 60.7889 45.7475 60.8579 45.4229 60.8579C45.2287 60.8579 45.0887 60.8455 44.9978 60.8331V59.2088Z" fill="#100F0D"/>
<path d="M45.8784 62.1321V63.7881H45.5049V62.1321H45.8784Z" fill="#100F0D"/>
<path d="M45.8527 66.0306L45.7496 65.6793C45.7201 65.5812 45.6908 65.458 45.6662 65.36H45.6612C45.6364 65.458 45.6118 65.5834 45.585 65.6793L45.4867 66.0306H45.8527ZM45.4325 66.3107L45.3146 66.7358H44.929L45.4325 65.0799H45.9239L46.4399 66.7358H46.0347L45.9068 66.3107H45.4325Z" fill="#100F0D"/>
<path d="M36.75 40.3151V41.7954H36.416V40.3151H36.75Z" fill="#100F0D"/>
<path d="M37.0397 41.7954V40.3151H37.4305L37.738 40.8576C37.8258 41.0137 37.9114 41.1982 37.9797 41.365H37.9838C37.9642 41.1695 37.9576 40.9695 37.9576 40.7458V40.3151H38.265V41.7954H37.9136L37.5974 41.2245C37.5095 41.0665 37.4106 40.8753 37.3405 40.7018H37.3316C37.3427 40.8993 37.3471 41.1079 37.3471 41.3496V41.7954H37.0397Z" fill="#100F0D"/>
<path d="M38.8885 41.5429C38.9172 41.5492 38.9653 41.5492 39.0048 41.5492C39.31 41.5514 39.51 41.3846 39.51 41.031C39.51 40.7236 39.3299 40.5612 39.0401 40.5612C38.9675 40.5612 38.9172 40.5678 38.8885 40.5744V41.5429ZM38.5548 40.3372C38.6777 40.3175 38.8379 40.3043 39.0048 40.3043C39.2882 40.3043 39.4727 40.357 39.6133 40.4623C39.7669 40.5766 39.8636 40.7587 39.8636 41.0203C39.8636 41.3034 39.7603 41.4987 39.6197 41.6197C39.4641 41.7492 39.2244 41.8105 38.9346 41.8105C38.7612 41.8105 38.636 41.7998 38.5548 41.7887V40.3372Z" fill="#100F0D"/>
<path d="M40.419 40.3151V41.7954H40.0851V40.3151H40.419Z" fill="#100F0D"/>
<path d="M41.4289 41.1651L41.3367 40.851C41.3104 40.7632 41.2839 40.6535 41.2621 40.5657H41.2577C41.2359 40.6535 41.214 40.7654 41.1897 40.851L41.1016 41.1651H41.4289ZM41.0533 41.4153L40.9483 41.7954H40.6036L41.0533 40.3151H41.4925L41.9538 41.7954H41.5916L41.4776 41.4153H41.0533Z" fill="#100F0D"/>
<path d="M41.414 15.1235H36.8591V14.2523H41.414V15.1235Z" fill="#F25A2F"/>
<path d="M41.414 15.9946H36.8591V15.1237H41.414V15.9946Z" fill="white"/>
<path d="M41.414 16.8652H36.8591V15.994H41.414V16.8652Z" fill="#3CB247"/>
<path d="M48.7741 69.1489H42.4946V68.1658H48.7741V69.1489Z" fill="white"/>
<path d="M42.5985 69.0452H48.6702V68.2698H42.5985V69.0452ZM48.774 69.2529H42.4946C42.4372 69.2529 42.3907 69.2065 42.3907 69.1491V68.166C42.3907 68.1085 42.4372 68.0621 42.4946 68.0621H48.774C48.8315 68.0621 48.8779 68.1085 48.8779 68.166V69.1491C48.8779 69.2065 48.8315 69.2529 48.774 69.2529Z" fill="#6F4324"/>
<path d="M48.7741 69.1487H42.4946V72.2212H48.7741V69.1487Z" fill="white"/>
<path d="M42.5985 72.1175H48.6702V69.2527H42.5985V72.1175ZM48.774 72.3252H42.4946C42.4372 72.3252 42.3907 72.2788 42.3907 72.2213V69.1489C42.3907 69.0914 42.4372 69.045 42.4946 69.045H48.774C48.8315 69.045 48.8779 69.0914 48.8779 69.1489V72.2213C48.8779 72.2788 48.8315 72.3252 48.774 72.3252Z" fill="#6F4324"/>
<path d="M48.7741 72.2213H42.4946V77.79H48.7741V72.2213Z" fill="white"/>
<path d="M42.5985 77.6863H48.6702V72.3253H42.5985V77.6863ZM48.774 77.894H42.4946C42.4372 77.894 42.3907 77.8476 42.3907 77.7902V72.2215C42.3907 72.164 42.4372 72.1176 42.4946 72.1176H48.774C48.8315 72.1176 48.8779 72.164 48.8779 72.2215V77.7902C48.8779 77.8476 48.8315 77.894 48.774 77.894Z" fill="#6F4324"/>
<path d="M35.7221 69.1489H29.4427V68.1658H35.7221V69.1489Z" fill="white"/>
<path d="M29.5465 69.0452H35.6182V68.2698H29.5465V69.0452ZM35.7221 69.2529H29.4427C29.3855 69.2529 29.3388 69.2065 29.3388 69.1491V68.166C29.3388 68.1085 29.3855 68.0621 29.4427 68.0621H35.7221C35.7793 68.0621 35.826 68.1085 35.826 68.166V69.1491C35.826 69.2065 35.7793 69.2529 35.7221 69.2529Z" fill="#6F4324"/>
<path d="M35.7221 69.1487H29.4427V72.2212H35.7221V69.1487Z" fill="white"/>
<path d="M29.5465 72.1175H35.6182V69.2527H29.5465V72.1175ZM35.7221 72.3252H29.4427C29.3855 72.3252 29.3388 72.2788 29.3388 72.2213V69.1489C29.3388 69.0914 29.3855 69.045 29.4427 69.045H35.7221C35.7793 69.045 35.826 69.0914 35.826 69.1489V72.2213C35.826 72.2788 35.7793 72.3252 35.7221 72.3252Z" fill="#6F4324"/>
<path d="M35.7221 72.2213H29.4427V77.79H35.7221V72.2213Z" fill="white"/>
<path d="M29.5465 77.6863H35.6182V72.3253H29.5465V77.6863ZM35.7221 77.894H29.4427C29.3855 77.894 29.3388 77.8476 29.3388 77.7902V72.2215C29.3388 72.164 29.3855 72.1176 29.4427 72.1176H35.7221C35.7793 72.1176 35.826 72.164 35.826 72.2215V77.7902C35.826 77.8476 35.7793 77.894 35.7221 77.894Z" fill="#6F4324"/>
<path d="M30.1344 81.6943H29.9266V49.8074H30.1344V81.6943Z" fill="#6F4324"/>
<path d="M48.3468 81.6943H48.139V49.8074H48.3468V81.6943Z" fill="#6F4324"/>
<path d="M37.9512 30.9759C38.3758 30.1133 38.8001 29.2509 39.2246 28.3885L39.247 28.3614C39.247 29.889 39.247 31.4046 39.247 32.92L39.2282 32.9214C39.1103 31.9317 38.9923 30.9417 38.8711 29.9232C38.56 30.2923 38.265 30.642 37.9703 30.9919L37.9512 30.9759Z" fill="#EF5E19"/>
<path d="M37.6543 31.3049C37.6971 31.3947 37.7261 31.4698 37.7173 31.5532C37.7148 31.5789 37.7167 31.598 37.7523 31.5991C37.8302 31.6013 37.917 31.5157 37.9197 31.4298C37.9239 31.3049 37.9239 31.3049 37.7833 31.3049C37.7463 31.3049 37.7095 31.3049 37.6543 31.3049ZM38.412 31.0298C38.4606 30.9052 38.533 30.8842 38.6247 30.9541C38.6749 30.9925 38.7034 31.0469 38.7238 31.1049C38.7423 31.1571 38.7564 31.2104 38.8316 31.1977L38.8702 31.2347C38.8719 31.2613 38.8771 31.2969 38.8421 31.3013C38.773 31.3102 38.7882 31.3593 38.7879 31.4008C38.7868 31.5364 38.7877 31.672 38.7874 31.8076C38.7871 31.8634 38.8034 31.9223 38.7059 31.9203C38.6147 31.9187 38.6316 31.8646 38.6313 31.8126C38.631 31.6737 38.6319 31.5347 38.631 31.3955C38.6305 31.3165 38.5587 31.2732 38.4902 31.308C38.4545 31.3262 38.4769 31.3472 38.486 31.366C38.5161 31.4295 38.5208 31.4961 38.5158 31.5648C38.5134 31.5996 38.5087 31.6433 38.4819 31.6574C38.3363 31.7328 38.436 31.7963 38.4871 31.8634L38.5147 31.9041C38.4341 31.9286 38.3719 31.9297 38.3277 31.8449C38.2904 31.7731 38.2413 31.7074 38.1993 31.6378C38.1835 31.6115 38.1479 31.585 38.1896 31.5508C38.2363 31.5124 38.2443 31.5646 38.2656 31.5836L38.2973 31.6234L38.3473 31.646L38.3747 31.5949C38.3802 31.5347 38.3628 31.4795 38.3291 31.432C38.2929 31.3814 38.2769 31.3422 38.3548 31.3057C38.2791 31.3057 38.2037 31.3063 38.128 31.3055C38.0695 31.3049 38.0766 31.3472 38.0764 31.3836C38.0758 31.5328 38.0736 31.6822 38.0772 31.8311C38.0786 31.896 38.0601 31.9192 37.9913 31.9198C37.9175 31.9203 37.9167 31.8811 37.9197 31.83L37.92 31.7996C37.9267 31.714 37.936 31.6405 37.8004 31.6773C37.7311 31.696 37.6479 31.6637 37.5816 31.7306C37.6228 31.785 37.6653 31.8408 37.7145 31.9054C37.6289 31.9284 37.5678 31.927 37.5245 31.8416C37.4847 31.7634 37.4322 31.6916 37.3841 31.6179C37.3667 31.5914 37.3634 31.5701 37.3913 31.548C37.427 31.5198 37.4361 31.5538 37.4543 31.5712C37.4828 31.5985 37.4944 31.669 37.5463 31.6411C37.6004 31.6121 37.5761 31.551 37.5593 31.5027C37.5504 31.4776 37.5402 31.4513 37.5247 31.4298C37.491 31.3834 37.4803 31.345 37.5482 31.3096C37.4734 31.3096 37.3858 31.2853 37.3272 31.316C37.2593 31.3516 37.3239 31.4546 37.2899 31.5217C37.0259 31.4063 36.8775 31.4215 36.806 31.5742C36.8693 31.5869 36.9245 31.5524 36.9842 31.5516C37.0825 31.5502 37.1734 31.5668 37.2507 31.63C37.3645 31.7226 37.3504 31.8391 37.2181 31.9018C37.1853 31.9173 37.1507 31.9289 37.1112 31.9447C37.1452 31.993 37.175 32.0361 37.2085 32.0839C37.1184 32.1065 37.0499 32.1013 37.0076 32.0118C36.9897 31.9734 36.9654 31.9369 36.9173 31.9209C36.8695 31.9049 36.8107 31.8773 36.8071 31.8267C36.8041 31.7767 36.8778 31.7751 36.9165 31.717C36.9408 31.8217 36.99 31.8786 37.0861 31.8695C37.1292 31.8657 37.1701 31.8505 37.1811 31.806C37.1935 31.7554 37.1518 31.7342 37.1137 31.7192C37.019 31.6817 36.9204 31.6806 36.8245 31.7096C36.7682 31.7264 36.7532 31.7041 36.7383 31.6588C36.6936 31.5198 36.7894 31.3839 36.9521 31.3505C37.0134 31.3378 37.0773 31.3646 37.1419 31.3375C37.1099 31.2875 37.0648 31.3071 37.0284 31.306C36.9333 31.303 36.8383 31.3055 36.7433 31.3046C36.7049 31.3041 36.6596 31.3165 36.661 31.2488C36.6624 31.1795 36.7107 31.1969 36.7472 31.1969C37.3339 31.1961 37.9203 31.1964 38.507 31.1964C38.5537 31.1964 38.6001 31.1964 38.6531 31.1964C38.6225 31.0605 38.5357 31.0215 38.412 31.0298Z" fill="#E35A1C"/>
<path d="M40.2423 31.3082C40.2467 31.359 40.3398 31.3515 40.2873 31.4076C40.2489 31.4482 40.2207 31.527 40.1337 31.472C40.0862 31.4416 40.029 31.4256 39.9754 31.4049C39.942 31.3922 39.9083 31.3919 39.881 31.4198C39.8625 31.4386 39.8348 31.4579 39.8451 31.4869C39.8547 31.5131 39.8859 31.504 39.908 31.5057C39.9995 31.512 40.0912 31.5151 40.1732 31.5642C40.2818 31.6292 40.2959 31.7001 40.2171 31.796C40.15 31.878 40.0732 31.9333 39.9564 31.9192C39.8705 31.909 39.7829 31.9173 39.6807 31.9173C39.7348 31.8361 39.781 31.7822 39.8741 31.7921C39.9376 31.7988 40.0028 31.7938 40.0671 31.7927L40.121 31.7761C40.1337 31.7474 40.1072 31.7336 40.0904 31.7192C40.026 31.6637 39.9492 31.6408 39.8655 31.6388L39.8147 31.6366C39.7661 31.6281 39.6934 31.6606 39.6738 31.6156C39.6523 31.5653 39.7056 31.5107 39.7337 31.4615C39.7699 31.3991 39.834 31.3662 39.887 31.3082C39.7431 31.3082 39.5998 31.3093 39.4559 31.3074C39.4202 31.3071 39.3705 31.327 39.3686 31.2571C39.3669 31.1872 39.4155 31.2038 39.4523 31.2035C40.1437 31.2029 40.8353 31.2029 41.527 31.2038C41.5635 31.2038 41.6132 31.1866 41.6121 31.2563C41.611 31.3248 41.5618 31.3076 41.5251 31.3076C41.1353 31.3085 40.7453 31.3082 40.3555 31.3082C40.3185 31.3082 40.2818 31.3082 40.2423 31.3082Z" fill="#3B7EC9"/>
<path d="M41.2826 31.7718C41.3779 31.7939 41.4179 31.7635 41.4132 31.6541C41.4096 31.5632 41.3975 31.5213 41.2928 31.5282C41.1207 31.5392 41.153 31.516 41.1403 31.6605C41.1295 31.7806 41.1922 31.7867 41.2826 31.7718ZM41.2555 31.3898C41.5237 31.3856 41.5582 31.3633 41.5527 31.687C41.5489 31.9174 41.5522 31.9174 41.3185 31.9174C41.2677 31.9174 41.2166 31.919 41.166 31.9168C41.05 31.9118 41.0083 31.8718 41.0044 31.7544C41.0011 31.6561 41.0061 31.5577 41.0028 31.4594C41.0008 31.4064 41.0193 31.3865 41.0724 31.3889C41.1334 31.3923 41.1945 31.3898 41.2555 31.3898Z" fill="#3B7EC9"/>
<path d="M40.5445 31.4981C40.7489 31.3832 40.8356 31.3755 40.8966 31.4589C40.9552 31.5393 40.9364 31.594 40.8082 31.6973C40.7936 31.5923 40.7538 31.5166 40.6309 31.5335C40.5707 31.5421 40.5384 31.5625 40.5428 31.6291C40.5469 31.6931 40.5425 31.7578 40.5442 31.8221C40.5456 31.8771 40.5456 31.9196 40.4671 31.9199C40.3931 31.9199 40.3853 31.886 40.387 31.8268C40.3903 31.7186 40.3848 31.61 40.3898 31.502C40.392 31.4614 40.3516 31.3956 40.4428 31.3882C40.5196 31.3818 40.5591 31.4045 40.5445 31.4981Z" fill="#3A7CC8"/>
<path d="M38.4863 29.4437C38.3796 29.42 38.2841 29.399 38.1888 29.3766L38.1578 29.357C38.1672 29.289 38.21 29.2346 38.2363 29.1733C38.2529 29.1344 38.2888 29.1504 38.3167 29.1565C38.399 29.1741 38.4805 29.1965 38.5631 29.2136C38.6097 29.2233 38.6313 29.2382 38.6037 29.2874C38.5824 29.3258 38.5647 29.3661 38.5468 29.4064C38.5324 29.439 38.5128 29.4573 38.4863 29.4437Z" fill="#3D80CB"/>
<path d="M39.7155 29.728C39.6238 29.707 39.5287 29.6854 39.4337 29.663L39.3995 29.6476C39.3975 29.5843 39.4415 29.5376 39.4625 29.4821C39.4738 29.4517 39.4892 29.4282 39.5287 29.4374C39.6268 29.46 39.7257 29.481 39.8238 29.5042L39.855 29.5255C39.8743 29.5658 39.7616 29.7321 39.7155 29.728Z" fill="#3D80CB"/>
<path d="M38.0258 29.3359C37.9189 29.3127 37.8233 29.2926 37.728 29.271L37.6943 29.2528C37.7015 29.1848 37.7465 29.1321 37.7711 29.0708C37.7838 29.039 37.8065 29.0384 37.8369 29.0459C37.9286 29.0691 38.0208 29.0882 38.1128 29.11C38.1327 29.1147 38.1686 29.1119 38.152 29.1498C38.1264 29.2083 38.0974 29.2655 38.0683 29.3227L38.0258 29.3359Z" fill="#3D80CB"/>
<path d="M39.9904 29.5435C40.0953 29.5678 40.1906 29.5893 40.2859 29.6123L40.3196 29.6302C40.3108 29.6979 40.2683 29.7523 40.2431 29.8139C40.2266 29.8545 40.1951 29.839 40.1658 29.8319C40.1097 29.8183 40.0536 29.807 39.9978 29.7932C39.9503 29.7813 39.8686 29.7863 39.8644 29.7479C39.8567 29.6805 39.9136 29.6194 39.9451 29.5562L39.9904 29.5435Z" fill="#3D80CB"/>
<path d="M39.4517 31.6528C39.4517 31.5954 39.4537 31.5379 39.4512 31.4804C39.4484 31.4238 39.452 31.386 39.5288 31.3876C39.5987 31.389 39.6034 31.4219 39.6025 31.4755C39.6003 31.5937 39.6003 31.7122 39.6025 31.8304C39.6034 31.884 39.599 31.9177 39.5285 31.9194C39.4514 31.9213 39.449 31.8815 39.4512 31.8252C39.4534 31.7677 39.4517 31.7103 39.4517 31.6528Z" fill="#3D80CB"/>
<path d="M39.5252 30.9848C39.5801 30.9906 39.613 31.0165 39.613 31.0682C39.613 31.1248 39.579 31.1549 39.523 31.1527C39.471 31.1505 39.4442 31.1171 39.4453 31.0663C39.4465 31.0135 39.4813 30.9911 39.5252 30.9848Z" fill="#3D80CB"/>
<path d="M37.9432 31.0054L37.9511 30.9762L37.9698 30.9919L37.9503 31.0122L37.9432 31.0054Z" fill="#EF5E19"/>
<path d="M37.9502 31.0126L37.9305 31.0161L37.9431 31.0058L37.9502 31.0126Z" fill="#EF5E19"/>
</svg>
