<svg width="413" height="362" viewBox="0 0 413 362" fill="none" xmlns="http://www.w3.org/2000/svg">
<path d="M2.22998 76.2899C2.22801 78.6483 2.92567 80.9543 4.2347 82.916C5.54373 84.8778 7.40528 86.4072 9.58378 87.3106C11.7623 88.2141 14.1598 88.4509 16.473 87.9913C18.7862 87.5317 20.911 86.3962 22.5787 84.7286C24.2463 83.061 25.3818 80.9361 25.8414 78.6229C26.301 76.3097 26.0641 73.9122 25.1607 71.7337C24.2573 69.5552 22.7279 67.6936 20.7661 66.3846C18.8044 65.0756 16.4984 64.3779 14.14 64.3799C12.5756 64.3786 11.0263 64.6857 9.58067 65.2838C8.13509 65.8819 6.82162 66.7591 5.71541 67.8653C4.6092 68.9715 3.73197 70.285 3.1339 71.7306C2.53583 73.1762 2.22867 74.7255 2.22998 76.2899Z" fill="#03E5E5"/>
<path opacity="0.3" d="M15.943 87.3764C22.065 86.3826 26.2223 80.6141 25.2286 74.4921C24.2348 68.3701 18.4663 64.2128 12.3443 65.2065C6.22228 66.2003 2.06499 71.9687 3.05873 78.0908C4.05248 84.2128 9.82095 88.3701 15.943 87.3764Z" fill="white"/>
<path d="M10.59 296.18C16.4387 296.18 21.18 291.439 21.18 285.59C21.18 279.741 16.4387 275 10.59 275C4.74127 275 -3.05176e-05 279.741 -3.05176e-05 285.59C-3.05176e-05 291.439 4.74127 296.18 10.59 296.18Z" fill="#FFAB03"/>
<path d="M404.152 211.027C408.717 206.462 408.717 199.06 404.152 194.495C399.587 189.929 392.185 189.929 387.62 194.495C383.054 199.06 383.054 206.462 387.62 211.027C392.185 215.592 399.587 215.592 404.152 211.027Z" fill="#FFAB03"/>
<path opacity="0.3" d="M406.91 202.76C406.91 204.936 406.265 207.063 405.056 208.872C403.847 210.68 402.13 212.09 400.12 212.923C398.11 213.755 395.898 213.973 393.764 213.549C391.63 213.124 389.67 212.077 388.132 210.538C386.593 209 385.546 207.04 385.121 204.906C384.697 202.772 384.915 200.561 385.747 198.551C386.58 196.541 387.99 194.823 389.799 193.614C391.608 192.405 393.734 191.76 395.91 191.76C398.827 191.76 401.625 192.919 403.688 194.982C405.751 197.045 406.91 199.843 406.91 202.76Z" fill="white"/>
<path d="M345.295 86.1576L256.098 124.831L256.496 125.748L345.693 87.075L345.295 86.1576Z" fill="#0891B2"/>
<path d="M133.465 35.0015L132.615 35.5278L170.755 97.1377L171.605 96.6113L133.465 35.0015Z" fill="#0891B2"/>
<path d="M145.36 199.048L46.4171 219.772L46.6222 220.751L145.565 200.026L145.36 199.048Z" fill="#0891B2"/>
<path opacity="0.8" d="M345.295 86.1576L256.098 124.831L256.496 125.748L345.693 87.075L345.295 86.1576Z" fill="#E5E7EB"/>
<path d="M268.156 183.188L267.308 183.719L324.243 274.585L325.09 274.055L268.156 183.188Z" fill="#0891B2"/>
<path opacity="0.8" d="M268.156 183.188L267.308 183.719L324.243 274.585L325.09 274.055L268.156 183.188Z" fill="#E5E7EB"/>
<path opacity="0.8" d="M133.465 35.0015L132.615 35.5278L170.755 97.1377L171.605 96.6113L133.465 35.0015Z" fill="#E5E7EB"/>
<path opacity="0.8" d="M145.36 199.048L46.4171 219.772L46.6222 220.751L145.565 200.026L145.36 199.048Z" fill="#E5E7EB"/>
<path d="M142.88 311.49L46 220.42L59.7 116.84L59.81 116.72L132.81 34.8H133L265.27 16.5L346.04 86.5V86.76L325.12 274.75L324.76 274.82L142.88 311.49ZM47.06 220.05L143.19 310.41L324.19 273.91L345 86.84L265 17.54L133.3 35.74L60.65 117.27L47.06 220.05Z" fill="#0891B2"/>
<path opacity="0.8" d="M142.88 311.49L46 220.42L59.7 116.84L59.81 116.72L132.81 34.8H133L265.27 16.5L346.04 86.5V86.76L325.12 274.75L324.76 274.82L142.88 311.49ZM47.06 220.05L143.19 310.41L324.19 273.91L345 86.84L265 17.54L133.3 35.74L60.65 117.27L47.06 220.05Z" fill="#E5E7EB"/>
<path d="M172.68 96.8799L171.18 105.64L169.68 96.8799H172.68Z" fill="#03E5E5"/>
<path d="M175.52 96.8801C175.52 97.7384 175.265 98.5775 174.789 99.2912C174.312 100.005 173.634 100.561 172.841 100.89C172.048 101.218 171.175 101.304 170.333 101.137C169.491 100.969 168.718 100.556 168.111 99.9489C167.504 99.3419 167.091 98.5686 166.923 97.7267C166.756 96.8849 166.842 96.0122 167.17 95.2192C167.499 94.4262 168.055 93.7484 168.769 93.2715C169.483 92.7946 170.322 92.54 171.18 92.54C172.331 92.54 173.435 92.9973 174.249 93.8112C175.063 94.6251 175.52 95.729 175.52 96.8801Z" fill="#03E5E5"/>
<path opacity="0.3" d="M171.61 93.8201C172.09 94.4501 171.71 95.5601 170.75 96.2801C169.79 97.0001 168.64 97.0801 168.15 96.4501C167.66 95.8201 168.05 94.7101 169 93.9901C169.95 93.2701 171.12 93.1901 171.61 93.8201Z" fill="white"/>
<path d="M257.8 125.31L256.3 134.07L254.8 125.31H257.8Z" fill="#03E5E5"/>
<path d="M256.3 129.65C258.697 129.65 260.64 127.707 260.64 125.31C260.64 122.913 258.697 120.97 256.3 120.97C253.903 120.97 251.96 122.913 251.96 125.31C251.96 127.707 253.903 129.65 256.3 129.65Z" fill="#03E5E5"/>
<path opacity="0.3" d="M256.72 122.25C257.21 122.88 256.82 123.99 255.87 124.71C254.92 125.43 253.75 125.51 253.27 124.88C252.79 124.25 253.17 123.14 254.12 122.42C255.07 121.7 256.24 121.61 256.72 122.25Z" fill="white"/>
<path d="M146.98 199.02L145.48 207.78L143.98 199.02H146.98Z" fill="#03E5E5"/>
<path d="M145.48 203.36C147.877 203.36 149.82 201.417 149.82 199.02C149.82 196.623 147.877 194.68 145.48 194.68C143.083 194.68 141.14 196.623 141.14 199.02C141.14 201.417 143.083 203.36 145.48 203.36Z" fill="#03E5E5"/>
<path opacity="0.3" d="M145.91 196C146.39 196.63 146.01 197.74 145.06 198.46C144.11 199.18 142.94 199.27 142.45 198.63C141.96 197.99 142.35 196.89 143.31 196.17C144.27 195.45 145.42 195.33 145.91 196Z" fill="white"/>
<path d="M269.23 183.47L267.73 192.22L266.23 183.47H269.23Z" fill="#03E5E5"/>
<path d="M272.07 183.47C272.068 184.328 271.812 185.166 271.334 185.879C270.856 186.591 270.177 187.146 269.384 187.473C268.591 187.8 267.718 187.884 266.877 187.715C266.036 187.547 265.264 187.133 264.658 186.525C264.052 185.918 263.639 185.145 263.473 184.303C263.306 183.462 263.393 182.589 263.721 181.797C264.05 181.005 264.606 180.327 265.32 179.851C266.033 179.374 266.872 179.12 267.73 179.12C268.301 179.12 268.866 179.233 269.393 179.451C269.92 179.67 270.399 179.991 270.802 180.395C271.206 180.799 271.525 181.278 271.743 181.806C271.96 182.334 272.071 182.899 272.07 183.47Z" fill="#03E5E5"/>
<path opacity="0.3" d="M268.15 180.4C268.64 181.04 268.26 182.14 267.3 182.87C266.34 183.6 265.18 183.67 264.7 183.04C264.22 182.41 264.6 181.3 265.55 180.57C266.5 179.84 267.67 179.77 268.15 180.4Z" fill="white"/>
<path d="M264.1 37.2101C274.152 37.2101 282.3 29.0616 282.3 19.0101C282.3 8.95848 274.152 0.810059 264.1 0.810059C254.048 0.810059 245.9 8.95848 245.9 19.0101C245.9 29.0616 254.048 37.2101 264.1 37.2101Z" fill="#FFAB03"/>
<path d="M155.894 322.226C163.001 315.119 163.001 303.595 155.894 296.488C148.786 289.38 137.262 289.38 130.155 296.488C123.047 303.595 123.047 315.119 130.155 322.226C137.262 329.334 148.786 329.334 155.894 322.226Z" fill="#03E5E5"/>
<path opacity="0.2" d="M160.19 309.36C160.192 312.753 159.188 316.07 157.305 318.893C155.422 321.716 152.744 323.917 149.611 325.218C146.477 326.519 143.028 326.862 139.699 326.204C136.371 325.545 133.312 323.914 130.91 321.518C128.508 319.122 126.87 316.067 126.204 312.74C125.538 309.413 125.873 305.963 127.167 302.826C128.461 299.689 130.655 297.007 133.474 295.117C136.292 293.228 139.607 292.216 143 292.21C145.258 292.194 147.498 292.626 149.588 293.482C151.678 294.338 153.578 295.6 155.176 297.195C156.775 298.79 158.042 300.687 158.902 302.775C159.763 304.863 160.201 307.101 160.19 309.36Z" fill="white"/>
<path d="M77.8891 121.225C80.198 111.442 74.1393 101.64 64.3565 99.3308C54.5737 97.0218 44.7714 103.081 42.4625 112.863C40.1535 122.646 46.2123 132.448 55.9951 134.757C65.7778 137.066 75.5801 131.008 77.8891 121.225Z" fill="#FFAB03"/>
<path opacity="0.2" d="M77.34 117.05C77.342 120.444 76.3372 123.763 74.4529 126.586C72.5685 129.41 69.8892 131.611 66.7538 132.911C63.6184 134.211 60.1678 134.553 56.8384 133.892C53.509 133.231 50.4505 131.597 48.0496 129.198C45.6487 126.798 44.0134 123.74 43.3505 120.411C42.6875 117.082 43.0268 113.632 44.3253 110.495C45.6238 107.359 47.8232 104.679 50.6454 102.793C53.4675 100.907 56.7856 99.9 60.18 99.9C62.4349 99.8921 64.669 100.33 66.7539 101.189C68.8388 102.048 70.7332 103.311 72.3281 104.905C73.923 106.499 75.1869 108.392 76.047 110.477C76.9072 112.561 77.3466 114.795 77.34 117.05Z" fill="white"/>
<path d="M351.146 296.528C365.111 282.563 365.111 259.921 351.146 245.956C337.181 231.99 314.539 231.99 300.574 245.956C286.608 259.921 286.608 282.563 300.574 296.528C314.539 310.493 337.181 310.493 351.146 296.528Z" fill="#03E5E5"/>
<path d="M355.991 271.012C356 275.689 354.902 280.302 352.789 284.476C352.384 285.287 351.926 286.072 351.46 286.84C351.089 287.436 350.701 288.023 350.278 288.566C348.524 290.995 346.415 293.145 344.021 294.944C343.477 295.367 342.916 295.747 342.338 296.135C340.006 297.652 337.476 298.84 334.82 299.665C327.814 301.811 320.266 301.33 313.589 298.31C313.106 298.086 312.623 297.844 312.148 297.603C306.831 294.817 302.46 290.516 299.59 285.244C299.193 284.51 298.822 283.733 298.486 282.957C296.709 278.869 295.866 274.436 296.017 269.982C296.169 265.527 297.31 261.162 299.36 257.204C301.41 253.247 304.316 249.795 307.866 247.101C311.417 244.407 315.523 242.538 319.887 241.629C324.251 240.721 328.762 240.797 333.093 241.85C337.423 242.904 341.465 244.91 344.923 247.721C348.382 250.533 351.171 254.079 353.087 258.104C355.003 262.128 355.998 266.529 356 270.986L355.991 271.012Z" fill="#FAFAFA"/>
<path d="M131.8 64.29C148.656 64.29 162.32 50.6257 162.32 33.77C162.32 16.9143 148.656 3.25 131.8 3.25C114.944 3.25 101.28 16.9143 101.28 33.77C101.28 50.6257 114.944 64.29 131.8 64.29Z" fill="#03E5E5"/>
<path d="M156.992 33.9943C156.998 39.5117 155.168 44.8745 151.792 49.2382C150.9 50.4037 149.905 51.4865 148.819 52.4733C147.823 53.3892 146.749 54.2167 145.609 54.9462C145.569 54.9877 145.52 55.0196 145.465 55.0393C144.577 55.6227 143.649 56.1433 142.688 56.5976C137.72 58.9505 132.114 59.5993 126.74 58.4433C121.366 57.2874 116.523 54.3912 112.962 50.2036C110.352 47.1371 108.521 43.4854 107.626 39.5593C106.73 35.6332 106.797 31.5489 107.819 27.6539C108.841 23.7589 110.789 20.1685 113.497 17.1881C116.205 14.2077 119.593 11.9256 123.372 10.5359C127.152 9.14619 131.211 8.69005 135.205 9.20628C139.199 9.72251 143.008 11.1958 146.31 13.5009C149.612 15.806 152.309 18.8745 154.17 22.4455C156.031 26.0165 157.002 29.9843 157 34.0112L156.992 33.9943Z" fill="#FAFAFA"/>
<path d="M45.52 249.04C62.3757 249.04 76.04 235.376 76.04 218.52C76.04 201.664 62.3757 188 45.52 188C28.6643 188 15 201.664 15 218.52C15 235.376 28.6643 249.04 45.52 249.04Z" fill="#FFAB03"/>
<path d="M70.9915 218.994C70.9976 224.512 69.1683 229.875 65.7917 234.238C64.9001 235.404 63.9052 236.486 62.8191 237.473C61.8231 238.389 60.7491 239.217 59.6094 239.946C59.5691 239.988 59.5199 240.02 59.4655 240.039C58.5769 240.623 57.6487 241.143 56.6877 241.598C51.7197 243.951 46.1143 244.599 40.7402 243.443C35.366 242.287 30.5232 239.391 26.9621 235.204C24.352 232.137 22.5214 228.485 21.626 224.559C20.7305 220.633 20.7967 216.549 21.8189 212.654C22.8411 208.759 24.789 205.168 27.497 202.188C30.205 199.208 33.5929 196.926 37.3724 195.536C41.1519 194.146 45.2112 193.69 49.2049 194.206C53.1986 194.723 57.0084 196.196 60.3104 198.501C63.6123 200.806 66.3085 203.875 68.1697 207.446C70.0308 211.017 71.0018 214.984 71 219.011L70.9915 218.994Z" fill="#FAFAFA"/>
<path d="M348.52 116.04C365.376 116.04 379.04 102.376 379.04 85.52C379.04 68.6643 365.376 55 348.52 55C331.664 55 318 68.6643 318 85.52C318 102.376 331.664 116.04 348.52 116.04Z" fill="#FFAB03"/>
<path d="M373.99 85.9933C373.996 91.5105 372.166 96.8731 368.79 101.237C367.898 102.402 366.904 103.485 365.817 104.472C364.821 105.387 363.748 106.215 362.608 106.944C362.568 106.986 362.518 107.018 362.464 107.037C361.575 107.621 360.647 108.141 359.686 108.596C354.718 110.949 349.113 111.597 343.739 110.441C338.365 109.285 333.523 106.389 329.962 102.202C327.352 99.1355 325.521 95.484 324.626 91.5581C323.73 87.6322 323.797 83.548 324.819 79.6532C325.841 75.7583 327.789 72.168 330.497 69.1878C333.205 66.2075 336.592 63.9255 340.372 62.5358C344.151 61.1462 348.21 60.6901 352.204 61.2063C356.197 61.7225 360.007 63.1958 363.309 65.5007C366.611 67.8057 369.307 70.8741 371.168 74.445C373.029 78.0159 374 81.9835 373.998 86.0102L373.99 85.9933Z" fill="#FAFAFA"/>
<path d="M220.953 81.8352L207.248 81.1793C205.213 81.0819 203.484 82.6531 203.386 84.6887L202.73 98.393C202.633 100.429 204.204 102.158 206.24 102.255L219.944 102.911C221.98 103.008 223.709 101.437 223.806 99.4017L224.462 85.6974C224.56 83.6618 222.988 81.9326 220.953 81.8352Z" fill="#0891B2"/>
<path opacity="0.6" d="M219.6 88.1701C218.23 85.6901 215.34 86.4801 213.78 88.2901C212.4 86.3401 209.6 85.2901 208 87.6201C205.29 91.5701 210.28 95.6201 212.65 97.1901L213.33 97.6501L214.05 97.2601C216.56 95.9001 221.91 92.3701 219.6 88.1701Z" fill="#E8F5FF"/>
<path d="M215.44 101.06C215.44 101.06 212.37 107.25 206.08 108.93C206.08 108.93 209.6 107.12 209.65 100.52L215.44 101.06Z" fill="#0891B2"/>
<path d="M231.51 166.32C231.51 166.32 239.45 158.38 242 152.73C242 152.73 241 149.56 241.94 147.93C242.88 146.3 248.14 141.59 249.55 142.59C250.96 143.59 253 147.53 252.16 149.18C251.32 150.83 246.16 154.18 246.16 154.18C246.16 154.18 239.73 167.08 235.75 169.98C231.77 172.88 231.51 166.32 231.51 166.32Z" fill="#EBB376"/>
<path d="M211.43 142.45C216.05 143.05 221.33 165.45 225.02 167.58C228.71 169.71 238.3 157.3 238.3 157.3L242.69 162.3C242.69 162.3 230 180 225 178.38C220 176.76 210.57 159.38 210.57 159.38L211.43 142.45Z" fill="#263238"/>
<path opacity="0.05" d="M211.43 142.45C216.05 143.05 221.33 165.45 225.02 167.58C228.71 169.71 238.3 157.3 238.3 157.3L242.69 162.3C242.69 162.3 230 180 225 178.38C220 176.76 210.57 159.38 210.57 159.38L211.43 142.45Z" fill="white"/>
<path d="M239.49 349.24L233.42 350.32L230.93 342.03L228.65 334.43L235.66 331.99L237.69 341.12L239.49 349.24Z" fill="#EBB376"/>
<path d="M232.05 350.16C231.95 349.48 240.27 348.56 240.27 348.56C240.27 348.56 246.27 352.81 251.36 353.1C256.45 353.39 254.25 356.82 248.76 357.79L235.16 360.19C231.26 360.88 233.11 357.13 232.05 350.16Z" fill="#263238"/>
<path d="M244.35 349.94C243.335 349.896 242.328 349.735 241.35 349.46H241.28C241.255 349.445 241.235 349.425 241.22 349.4V349.35C241.216 349.317 241.216 349.283 241.22 349.25C241.22 349.15 241.59 347.12 242.62 346.46C242.776 346.358 242.953 346.291 243.138 346.263C243.322 346.236 243.511 346.248 243.69 346.3C244.1 346.41 244.32 346.61 244.36 346.89C244.36 347.33 243.9 347.89 243.29 348.34C243.893 348.127 244.544 348.085 245.17 348.22C245.289 348.256 245.4 348.318 245.493 348.4C245.586 348.483 245.66 348.586 245.71 348.7C245.801 348.834 245.85 348.993 245.85 349.155C245.85 349.317 245.801 349.476 245.71 349.61C245.518 349.756 245.299 349.861 245.065 349.918C244.831 349.974 244.587 349.982 244.35 349.94ZM242.1 349.19C243.4 349.49 244.99 349.67 245.32 349.29C245.32 349.29 245.44 349.15 245.32 348.84C245.259 348.723 245.155 348.633 245.03 348.59C244.017 348.516 243.003 348.724 242.1 349.19ZM243.31 346.65C243.146 346.648 242.985 346.697 242.85 346.79C242.284 347.326 241.9 348.025 241.75 348.79C242.89 348.11 243.95 347.26 243.91 346.89C243.91 346.77 243.69 346.7 243.57 346.66C243.484 346.647 243.397 346.643 243.31 346.65Z" fill="#0891B2"/>
<path opacity="0.2" d="M237.72 341.31L230.96 342.2L228.67 334.52L235.67 332.03L237.72 341.31Z" fill="#E5E7EB"/>
<path d="M198.94 351.85H192.77L191.76 343.26L190.84 335.38L198.17 334.19L198.58 343.54L198.94 351.85Z" fill="#EBB376"/>
<path d="M191.45 351.45C191.45 350.77 199.82 351.3 199.82 351.3C199.82 351.3 204.96 356.53 209.96 357.71C214.96 358.89 212.16 361.88 206.58 361.88H192.77C188.81 361.88 191.29 358.5 191.45 351.45Z" fill="#263238"/>
<path d="M204.22 353.44C203.014 353.291 201.843 352.932 200.76 352.38L200.68 352.33V352.28C200.66 352.225 200.66 352.165 200.68 352.11C200.68 352.03 201.41 350.11 202.55 349.61C202.719 349.531 202.903 349.49 203.09 349.49C203.277 349.49 203.461 349.531 203.63 349.61C204.01 349.79 204.19 350.02 204.18 350.31C204.18 350.75 203.56 351.19 202.88 351.55C203.511 351.44 204.16 351.513 204.75 351.76C204.861 351.815 204.959 351.894 205.036 351.99C205.114 352.087 205.17 352.199 205.2 352.32C205.26 352.471 205.273 352.637 205.237 352.796C205.202 352.954 205.119 353.099 205 353.21C204.775 353.375 204.499 353.456 204.22 353.44ZM201.52 352.24C202.75 352.76 204.28 353.24 204.68 352.9C204.68 352.9 204.81 352.79 204.68 352.46C204.663 352.397 204.633 352.338 204.592 352.288C204.55 352.238 204.499 352.198 204.44 352.17C203.479 351.924 202.468 351.948 201.52 352.24ZM203.01 349.94C202.897 349.944 202.785 349.968 202.68 350.01C202.021 350.442 201.517 351.072 201.24 351.81C202.48 351.34 203.68 350.69 203.7 350.31C203.7 350.2 203.51 350.09 203.4 350.03C203.275 349.97 203.138 349.939 203 349.94H203.01Z" fill="#0891B2"/>
<path opacity="0.2" d="M198.58 343.73L191.76 343.43L190.84 335.46L198.17 334.23L198.58 343.73Z" fill="#E5E7EB"/>
<path d="M238.3 336.49L228.3 338.25C218.22 313.15 211.06 292.19 206 274.8C203.27 265.42 201.15 257.07 199.51 249.67L200 277V339.08H189.84C165.17 221.45 182.65 194.56 182.65 194.56L212.16 189.56C213.324 194.983 214.148 200.474 214.63 206L215.96 215.75L227.5 275.32L238.3 336.49Z" fill="#0891B2"/>
<path d="M226.75 337.02L239.13 332.91L238.96 338.18L228.72 341.44L226.75 337.02Z" fill="#0891B2"/>
<path d="M188.51 337.59L201.43 335.7L200.34 340.86L189.69 342.29L188.51 337.59Z" fill="#0891B2"/>
<path d="M209.5 130.19C209.458 130.203 209.412 130.203 209.37 130.19C205.61 127.92 202.25 119.57 202.11 119.19C202.097 119.16 202.091 119.127 202.091 119.094C202.091 119.062 202.098 119.029 202.111 118.999C202.124 118.969 202.143 118.942 202.167 118.92C202.191 118.898 202.219 118.881 202.25 118.87C202.312 118.846 202.382 118.848 202.443 118.874C202.504 118.9 202.553 118.948 202.58 119.01C202.58 119.09 206.01 127.56 209.58 129.74C209.637 129.775 209.679 129.831 209.696 129.896C209.713 129.962 209.703 130.031 209.67 130.09C209.628 130.143 209.567 130.179 209.5 130.19Z" fill="#263238"/>
<path d="M179.23 108.25C179.23 108.25 180.7 103.25 190.5 102.41C200.3 101.57 205.17 111.21 202.86 118.41C202.86 118.41 204.92 128.17 208.86 131.04C208.86 131.04 190 139.56 180.48 139.61C178.36 139.61 173.84 129.1 173.25 121.52C172.71 114.2 174.91 108.48 179.23 108.25Z" fill="#263238"/>
<path d="M182.65 190.16V194.56L212.75 192.25V187.04L182.65 190.16Z" fill="#263238"/>
<path opacity="0.3" d="M182.65 190.16V194.56L212.75 192.25V187.04L182.65 190.16Z" fill="white"/>
<path d="M205.806 188.101L199.223 188.69L199.67 193.68L206.253 193.091L205.806 188.101Z" fill="white"/>
<path d="M192.766 188.292L191.278 188.369L191.667 195.969L193.155 195.893L192.766 188.292Z" fill="#0891B2"/>
<path d="M211.138 186.283L209.65 186.359L210.038 193.959L211.526 193.883L211.138 186.283Z" fill="#0891B2"/>
<path d="M212.87 187.57L182.77 190.17C182.48 185.62 182.19 181.72 181.5 177.35C181.06 174.55 180.45 171.55 179.57 168.06C178.89 165.33 178.04 162.29 176.96 158.81C176.91 158.62 176.85 158.43 176.79 158.24C176.17 156.24 171.79 157.77 171.36 155.38C169.62 144.74 181.1 143.96 185.36 143.26C189.827 142.467 194.345 141.992 198.88 141.84C204.73 141.79 211.46 142.45 211.46 142.45C211.46 142.45 212.46 142.68 213.02 148.89C213.54 154.71 214.08 166.37 212.87 187.57Z" fill="#263238"/>
<path d="M196.36 148.49C188.95 147.49 186.72 144.37 186.72 144.37C191.42 139.93 187.51 132.23 187.51 132.23L196.44 133.9C196.239 135.144 196.122 136.4 196.09 137.66C196.03 143.08 198.48 143.13 198.48 143.13C200 146.07 196.36 148.49 196.36 148.49Z" fill="#EBB376"/>
<path opacity="0.2" d="M196.44 133.9C196.239 135.144 196.122 136.4 196.09 137.66C190.09 137.66 187.51 132.23 187.51 132.23L196.44 133.9Z" fill="#E5E7EB"/>
<path d="M189.6 108.91C197.18 107.19 200.54 110.7 202.86 118.39C205.77 127.99 205.17 135.39 195.22 135.48C181.71 135.56 177 111.76 189.6 108.91Z" fill="#EBB376"/>
<path d="M197.86 119.07C198.725 120.065 199.705 120.955 200.78 121.72C200.626 122.074 200.38 122.38 200.066 122.605C199.753 122.83 199.385 122.967 199 123L197.86 119.07Z" fill="#D58745"/>
<path d="M193.08 119.5C193.24 120.12 193.03 120.71 192.62 120.81C192.21 120.91 191.74 120.5 191.62 119.88C191.5 119.26 191.62 118.67 192.08 118.57C192.54 118.47 192.93 118.88 193.08 119.5Z" fill="#263238"/>
<path d="M191.89 118.64L193.1 117.78C193.1 117.78 192.72 119.08 191.89 118.64Z" fill="#263238"/>
<path d="M200.75 117.44C200.91 118.06 200.7 118.64 200.29 118.75C199.88 118.86 199.41 118.43 199.29 117.81C199.17 117.19 199.34 116.61 199.75 116.51C200.16 116.41 200.6 116.82 200.75 117.44Z" fill="#263238"/>
<path d="M199.56 116.58L200.77 115.71C200.77 115.71 200.39 117 199.56 116.58Z" fill="#263238"/>
<path d="M188.79 116.54C188.737 116.552 188.683 116.552 188.63 116.54C188.546 116.497 188.481 116.422 188.451 116.332C188.422 116.243 188.428 116.145 188.47 116.06C188.821 115.475 189.304 114.98 189.881 114.616C190.457 114.251 191.111 114.026 191.79 113.96C191.885 113.954 191.978 113.985 192.051 114.047C192.124 114.108 192.17 114.195 192.18 114.29C192.186 114.337 192.182 114.385 192.169 114.431C192.155 114.477 192.133 114.519 192.104 114.556C192.074 114.594 192.037 114.625 191.995 114.647C191.953 114.67 191.907 114.685 191.86 114.69C191.305 114.746 190.771 114.927 190.296 115.22C189.821 115.513 189.419 115.909 189.12 116.38C189.084 116.433 189.034 116.475 188.976 116.503C188.918 116.531 188.854 116.544 188.79 116.54Z" fill="#263238"/>
<path d="M197.26 113.08C197.2 113.08 197.14 113.064 197.088 113.034C197.035 113.004 196.991 112.961 196.96 112.91C196.909 112.829 196.891 112.733 196.91 112.64C196.929 112.547 196.982 112.464 197.06 112.41C197.597 112.132 198.19 111.979 198.795 111.964C199.399 111.948 199.999 112.07 200.55 112.32C200.597 112.335 200.64 112.359 200.677 112.391C200.714 112.423 200.744 112.463 200.765 112.507C200.786 112.552 200.798 112.6 200.8 112.649C200.802 112.698 200.794 112.747 200.776 112.793C200.758 112.838 200.731 112.88 200.697 112.915C200.662 112.95 200.621 112.978 200.575 112.996C200.53 113.015 200.481 113.023 200.432 113.022C200.383 113.021 200.335 113.01 200.29 112.99C199.848 112.778 199.365 112.668 198.875 112.668C198.385 112.668 197.902 112.778 197.46 112.99C197.404 113.04 197.334 113.071 197.26 113.08Z" fill="#263238"/>
<path d="M198.55 126.26C198.386 127.195 198.289 128.141 198.26 129.09L197.76 129.16C195.51 129.43 194.37 128.82 193.76 128.05C193.482 127.669 193.304 127.226 193.24 126.76C193.202 126.498 193.202 126.232 193.24 125.97C194.709 126.419 196.258 126.545 197.78 126.34C198.25 126.31 198.55 126.26 198.55 126.26Z" fill="#263238"/>
<path d="M197.78 126.34L197.67 127.17C195.54 127.43 194.01 127.32 193.27 126.76C193.232 126.498 193.232 126.232 193.27 125.97C194.73 126.414 196.267 126.541 197.78 126.34Z" fill="white"/>
<path d="M197.76 129.16C195.51 129.43 194.37 128.82 193.76 128.05C194.621 127.956 195.492 128.021 196.33 128.24C196.894 128.384 197.395 128.707 197.76 129.16Z" fill="#0891B2"/>
<path d="M184.2 123.56C184.2 123.56 186.34 116.56 184.71 111.85C184.71 111.85 198.35 102.3 202.54 117.39C202.54 117.39 200.94 103.51 187.84 106.16C174.74 108.81 179.11 127.87 187.13 132.02C187.13 132 182.89 128 184.2 123.56Z" fill="#263238"/>
<path d="M185.81 124.88C185.537 124.02 184.934 123.304 184.133 122.888C183.333 122.472 182.401 122.39 181.54 122.66C179.25 123.44 179.22 128.52 185.32 128.36C186.2 128.33 186.49 127.41 185.81 124.88Z" fill="#EBB376"/>
<path d="M184.71 111.85C184.71 111.85 192.57 108.95 196.99 111.13C196.99 111.13 192.23 106.85 184.15 110.88L184.71 111.85Z" fill="#263238"/>
<path d="M179.84 145.19C179.84 145.19 188.55 152.26 196.66 152.14C204.77 152.02 207.66 142.91 207.66 142.91C207.66 142.91 195 139.19 179.84 145.19Z" fill="#EBB376"/>
<path opacity="0.2" d="M206 274.8C203.27 265.42 201.15 257.07 199.51 249.67C199.652 240.904 200.29 232.154 201.42 223.46C201.42 223.46 205.75 257.27 206 274.8Z" fill="#E5E7EB"/>
<path d="M155.47 160.85C155.47 160.85 149.47 151.33 148.27 145.25C148.27 145.25 149.92 142.38 149.4 140.59C148.88 138.8 144.77 133.03 143.18 133.69C141.59 134.35 138.71 137.69 139.18 139.53C139.65 141.37 143.94 145.78 143.94 145.78C143.94 145.78 147.33 159.78 150.56 163.5C153.79 167.22 155.47 160.85 155.47 160.85Z" fill="#EBB376"/>
<path d="M171.72 150.17C174.72 149.75 180.88 155.67 179.95 160.79C179.02 165.91 170.44 180.31 163.82 179.19C154.47 177.6 144.2 153 144.2 153L149.33 148.53C149.33 148.53 161.44 169.53 163.82 169.09C166.2 168.65 171.72 150.17 171.72 150.17Z" fill="#263238"/>
<path opacity="0.05" d="M171.72 150.17C174.72 149.75 180.88 155.67 179.95 160.79C179.02 165.91 170.44 180.31 163.82 179.19C154.47 177.6 144.2 153 144.2 153L149.33 148.53C149.33 148.53 161.44 169.53 163.82 169.09C166.2 168.65 171.72 150.17 171.72 150.17Z" fill="white"/>
<path d="M142.1 151.45L149.59 146.96L150.78 148.9L143.71 155.15L142.1 151.45Z" fill="#263238"/>
<path d="M236.63 157.16L242.69 164.67L243.75 162.32L238.3 155.98L236.63 157.16Z" fill="#263238"/>
<path d="M239.66 147L249.24 135.32C249.319 135.225 249.417 135.147 249.528 135.091C249.638 135.035 249.759 135.003 249.883 134.995C250.006 134.988 250.13 135.006 250.247 135.048C250.363 135.09 250.47 135.155 250.56 135.24L254.83 139.24C254.997 139.396 255.099 139.61 255.114 139.839C255.128 140.067 255.056 140.293 254.91 140.47L245.18 152.41C245.1 152.509 244.999 152.591 244.885 152.648C244.771 152.706 244.646 152.739 244.519 152.745C244.391 152.75 244.263 152.729 244.145 152.681C244.026 152.634 243.919 152.562 243.83 152.47L239.7 148.17C239.557 148.01 239.474 147.806 239.467 147.592C239.46 147.378 239.528 147.168 239.66 147Z" fill="#0891B2"/>
<path opacity="0.3" d="M239.66 147L249.24 135.32C249.319 135.225 249.417 135.147 249.528 135.091C249.638 135.035 249.759 135.003 249.883 134.995C250.006 134.988 250.13 135.006 250.247 135.048C250.363 135.09 250.47 135.155 250.56 135.24L254.83 139.24C254.997 139.396 255.099 139.61 255.114 139.839C255.128 140.067 255.056 140.293 254.91 140.47L245.18 152.41C245.1 152.509 244.999 152.591 244.885 152.648C244.771 152.706 244.646 152.739 244.519 152.745C244.391 152.75 244.263 152.729 244.145 152.681C244.026 152.634 243.919 152.562 243.83 152.47L239.7 148.17C239.557 148.01 239.474 147.806 239.467 147.592C239.46 147.378 239.528 147.168 239.66 147Z" fill="#0891B2"/>
<path d="M239.27 146.54L248.86 134.86C248.939 134.765 249.037 134.687 249.148 134.631C249.258 134.575 249.379 134.543 249.503 134.535C249.626 134.528 249.75 134.546 249.867 134.588C249.983 134.63 250.09 134.695 250.18 134.78L254.45 138.78C254.615 138.937 254.715 139.151 254.73 139.379C254.745 139.607 254.673 139.832 254.53 140.01L244.8 152.01C244.715 152.106 244.61 152.182 244.493 152.235C244.375 152.288 244.248 152.315 244.12 152.315C243.991 152.315 243.864 152.288 243.747 152.235C243.63 152.182 243.525 152.106 243.44 152.01L239.32 147.71C239.173 147.553 239.088 147.348 239.079 147.134C239.069 146.919 239.137 146.709 239.27 146.54Z" fill="#0891B2"/>
<path opacity="0.6" d="M249.24 135.33L253.98 139.92L244.71 151.32L240.1 146.48L249.24 135.33Z" fill="white"/>
</svg>
