<svg viewBox="0 0 403 319" fill="none" xmlns="http://www.w3.org/2000/svg">
<path opacity="0.3" d="M271 273.49L135.19 308C131.317 306.587 127.53 305.05 123.83 303.39C106.792 295.676 90.9234 285.604 76.6901 273.47L271 273.49Z" fill="black" fill-opacity="0.7"/>
<path d="M150.37 232.4V235.51C150.37 235.713 150.33 235.913 150.253 236.1C150.175 236.286 150.062 236.456 149.919 236.599C149.776 236.742 149.606 236.856 149.419 236.933C149.233 237.01 149.032 237.05 148.83 237.05H88.37C87.6586 237.05 86.9567 236.886 86.3187 236.571C85.6807 236.256 85.1237 235.799 84.6907 235.234C84.2576 234.67 83.9602 234.013 83.8214 233.316C83.6825 232.618 83.706 231.898 83.89 231.21L91 204.7L100.83 167.78H131.57L132.63 184.34L134.02 205.84L135.17 223.77C135.29 225.691 136.137 227.494 137.54 228.811C138.943 230.129 140.796 230.861 142.72 230.86H148.88C149.28 230.873 149.659 231.041 149.937 231.329C150.215 231.616 150.37 232 150.37 232.4Z" fill="#03E5E5"/>
<mask id="mask0_250_167" style="mask-type:luminance" maskUnits="userSpaceOnUse" x="83" y="167" width="68" height="71">
<path d="M150.37 232.4V235.51C150.37 235.713 150.33 235.913 150.253 236.1C150.175 236.286 150.062 236.456 149.919 236.599C149.776 236.742 149.606 236.856 149.419 236.933C149.233 237.01 149.032 237.05 148.83 237.05H88.37C87.6586 237.05 86.9567 236.886 86.3187 236.571C85.6807 236.256 85.1237 235.799 84.6907 235.234C84.2576 234.67 83.9602 234.013 83.8214 233.316C83.6825 232.618 83.706 231.898 83.89 231.21L91 204.7L100.83 167.78H131.57L132.63 184.34L134.02 205.84L135.17 223.77C135.29 225.691 136.137 227.494 137.54 228.811C138.943 230.129 140.796 230.861 142.72 230.86H148.88C149.28 230.873 149.659 231.041 149.937 231.329C150.215 231.616 150.37 232 150.37 232.4Z" fill="white"/>
</mask>
<g mask="url(#mask0_250_167)">
<path opacity="0.3" d="M142.67 230.86H89.67L95.86 205.3L100.74 185.14L132.54 184.34L133.93 205.84L135.08 223.77C135.2 225.698 136.053 227.507 137.465 228.825C138.876 230.144 140.739 230.872 142.67 230.86Z" fill="black" fill-opacity="0.7"/>
<path opacity="0.3" d="M134 205.84C121.324 206.949 108.569 206.768 95.9301 205.3C94.1801 205.12 92.5301 204.91 90.9301 204.7L100.76 167.78H131.5L132.56 184.34L134 205.84Z" fill="black" fill-opacity="0.7"/>
</g>
<path d="M150.37 232.4V235.51C150.37 235.713 150.33 235.913 150.253 236.1C150.175 236.286 150.062 236.456 149.919 236.599C149.776 236.742 149.606 236.856 149.419 236.933C149.233 237.01 149.032 237.05 148.83 237.05H88.37C87.6586 237.05 86.9567 236.886 86.3187 236.571C85.6807 236.256 85.1237 235.799 84.6907 235.234C84.2576 234.67 83.9602 234.013 83.8214 233.316C83.6825 232.618 83.706 231.898 83.89 231.21L91 204.7L100.83 167.78H131.57L132.63 184.34L134.02 205.84L135.17 223.77C135.29 225.691 136.137 227.494 137.54 228.811C138.943 230.129 140.796 230.861 142.72 230.86H148.88C149.28 230.873 149.659 231.041 149.937 231.329C150.215 231.616 150.37 232 150.37 232.4Z" stroke="#263238" strokeLinecap="round" strokeLinejoin="round"/>
<path d="M254.25 180.67C254.25 182.476 253.56 184.214 252.319 185.527C251.079 186.84 249.383 187.628 247.58 187.73C225.45 188.99 154.42 192.89 127.83 192.89C101.24 192.89 30.21 189 8.09003 187.73C6.28509 187.631 4.5869 186.843 3.34449 185.53C2.10208 184.217 1.40984 182.478 1.41003 180.67V7.82024C1.41003 5.94251 2.15596 4.14168 3.48372 2.81393C4.81148 1.48617 6.6123 0.740234 8.49004 0.740234H247.17C249.048 0.740234 250.849 1.48617 252.176 2.81393C253.504 4.14168 254.25 5.94251 254.25 7.82024V180.67Z" fill="#03E5E5" stroke="#263238" strokeLinecap="round" strokeLinejoin="round"/>
<path d="M257.94 180.67C257.943 182.477 257.253 184.216 256.012 185.529C254.771 186.843 253.074 187.63 251.27 187.73C229.14 188.99 158.11 192.89 131.52 192.89C104.93 192.89 33.9 189 11.78 187.73C9.97503 187.631 8.27684 186.843 7.03444 185.53C5.79203 184.217 5.09978 182.478 5.09998 180.67V7.82024C5.09998 5.94251 5.8459 4.14168 7.17366 2.81393C8.50142 1.48617 10.3022 0.740234 12.18 0.740234H250.86C252.738 0.740234 254.539 1.48617 255.866 2.81393C257.194 4.14168 257.94 5.94251 257.94 7.82024V180.67Z" fill="#03E5E5" stroke="#263238" strokeLinecap="round" strokeLinejoin="round"/>
<path d="M251.28 7.06006H11.78V178.49H251.28V7.06006Z" fill="#263238" stroke="#263238" strokeLinecap="round" strokeLinejoin="round"/>
<path opacity="0.2" d="M251.28 7.06006H11.78V178.49H251.28V7.06006Z" fill="white"/>
<path d="M251.28 7.06006H11.78V25.9501H251.28V7.06006Z" fill="white" stroke="#263238" strokeLinecap="round" strokeLinejoin="round"/>
<path d="M38.03 25.9502H11.78V178.49H38.03V25.9502Z" fill="#BFBFBF" stroke="#263238" strokeMiterlimit="10"/>
<path d="M135.57 25.9502V178.49" stroke="white" strokeLinecap="round" strokeLinejoin="round"/>
<path d="M38.02 92.8403H251.27" stroke="white" strokeLinecap="round" strokeLinejoin="round"/>
<path d="M248.34 13.0004C248.342 13.521 248.189 14.0304 247.902 14.4643C247.614 14.8981 247.204 15.2367 246.723 15.4373C246.243 15.6379 245.714 15.6914 245.203 15.5911C244.692 15.4907 244.223 15.241 243.854 14.8736C243.485 14.5062 243.234 14.0376 243.131 13.5272C243.029 13.0167 243.081 12.4874 243.279 12.0062C243.478 11.5251 243.815 11.1138 244.248 10.8243C244.681 10.5349 245.189 10.3804 245.71 10.3804C246.055 10.3791 246.397 10.4459 246.716 10.5769C247.035 10.708 247.325 10.9008 247.569 11.1442C247.814 11.3876 248.007 11.6769 248.14 11.9954C248.272 12.314 248.34 12.6555 248.34 13.0004Z" fill="#BFBFBF" stroke="#263238" strokeMiterlimit="10"/>
<path d="M238.23 13.0004C238.23 13.5186 238.076 14.0251 237.788 14.456C237.501 14.8868 237.091 15.2226 236.613 15.4209C236.134 15.6192 235.607 15.6711 235.099 15.57C234.591 15.4689 234.124 15.2194 233.757 14.853C233.391 14.4866 233.141 14.0197 233.04 13.5115C232.939 13.0033 232.991 12.4765 233.189 11.9977C233.388 11.519 233.724 11.1098 234.154 10.8219C234.585 10.534 235.092 10.3804 235.61 10.3804C236.305 10.3804 236.971 10.6564 237.463 11.1478C237.954 11.6391 238.23 12.3055 238.23 13.0004Z" fill="#BFBFBF" stroke="#263238" strokeMiterlimit="10"/>
<path d="M228.13 13.0004C228.13 13.5186 227.976 14.0251 227.688 14.456C227.401 14.8868 226.991 15.2226 226.513 15.4209C226.034 15.6192 225.507 15.6711 224.999 15.57C224.491 15.4689 224.024 15.2194 223.657 14.853C223.291 14.4866 223.041 14.0197 222.94 13.5115C222.839 13.0033 222.891 12.4765 223.089 11.9977C223.288 11.519 223.624 11.1098 224.054 10.8219C224.485 10.534 224.992 10.3804 225.51 10.3804C226.205 10.3804 226.871 10.6564 227.363 11.1478C227.854 11.6391 228.13 12.3055 228.13 13.0004Z" fill="#BFBFBF" stroke="#263238" strokeMiterlimit="10"/>
<path d="M33.7301 32.5703H16.0601V39.7003H33.7301V32.5703Z" fill="white" stroke="#263238" strokeLinecap="round" strokeLinejoin="round"/>
<path d="M33.7301 41.8403H16.0601V48.9703H33.7301V41.8403Z" fill="white" stroke="#263238" strokeLinecap="round" strokeLinejoin="round"/>
<path d="M33.7301 51.1001H16.0601V58.2301H33.7301V51.1001Z" fill="white" stroke="#263238" strokeLinecap="round" strokeLinejoin="round"/>
<path d="M33.7301 60.3701H16.0601V67.5001H33.7301V60.3701Z" fill="white" stroke="#263238" strokeLinecap="round" strokeLinejoin="round"/>
<path d="M33.7301 77.6602H16.0601V84.7901H33.7301V77.6602Z" fill="white" stroke="#263238" strokeLinecap="round" strokeLinejoin="round"/>
<path d="M33.7301 86.6304H16.0601V93.7604H33.7301V86.6304Z" fill="white" stroke="#263238" strokeLinecap="round" strokeLinejoin="round"/>
<path d="M33.7301 95.6001H16.0601V102.73H33.7301V95.6001Z" fill="white" stroke="#263238" strokeLinecap="round" strokeLinejoin="round"/>
<path d="M33.7301 104.56H16.0601V111.69H33.7301V104.56Z" fill="white" stroke="#263238" strokeLinecap="round" strokeLinejoin="round"/>
<path d="M33.7301 113.53H16.0601V120.66H33.7301V113.53Z" fill="white" stroke="#263238" strokeLinecap="round" strokeLinejoin="round"/>
<path d="M23.1901 130.86H16.0601V137.99H23.1901V130.86Z" fill="white" stroke="#263238" strokeLinecap="round" strokeLinejoin="round"/>
<path d="M33.74 130.86H26.61V137.99H33.74V130.86Z" fill="white" stroke="#263238" strokeLinecap="round" strokeLinejoin="round"/>
<path d="M23.1901 141.49H16.0601V148.62H23.1901V141.49Z" fill="white" stroke="#263238" strokeLinecap="round" strokeLinejoin="round"/>
<path d="M33.74 141.49H26.61V148.62H33.74V141.49Z" fill="white" stroke="#263238" strokeLinecap="round" strokeLinejoin="round"/>
<path d="M11.78 72.9204H38.02" stroke="#263238" strokeLinecap="round" strokeLinejoin="round"/>
<path d="M11.78 126.2H38.02" stroke="#263238" strokeLinecap="round" strokeLinejoin="round"/>
<path d="M212.62 11H184.4V15.02H212.62V11Z" fill="#BFBFBF" stroke="#263238" strokeMiterlimit="10"/>
<path d="M21.6701 10.2104H16.0601V15.8204H21.6701V10.2104Z" fill="#BFBFBF" stroke="#263238" strokeMiterlimit="10"/>
<path d="M85.51 82.4402C98.5439 82.4402 109.11 71.8741 109.11 58.8402C109.11 45.8063 98.5439 35.2402 85.51 35.2402C72.4761 35.2402 61.91 45.8063 61.91 58.8402C61.91 71.8741 72.4761 82.4402 85.51 82.4402Z" fill="#03E5E5"/>
<path opacity="0.5" d="M79.2301 67.0105C86.9013 67.0105 93.1201 60.7917 93.1201 53.1205C93.1201 45.4492 86.9013 39.2305 79.2301 39.2305C71.5589 39.2305 65.3401 45.4492 65.3401 53.1205C65.3401 60.7917 71.5589 67.0105 79.2301 67.0105Z" fill="white"/>
<path d="M251.28 172.48H11.78V178.49H251.28V172.48Z" fill="white" stroke="#263238" strokeLinecap="round" strokeLinejoin="round"/>
<path d="M251.27 25.9502H240.57V172.48H251.27V25.9502Z" fill="#BFBFBF" stroke="#263238" strokeMiterlimit="10"/>
<path d="M240.57 41.8403H251.27" stroke="#263238" strokeLinecap="round" strokeLinejoin="round"/>
<path d="M240.57 74.77H251.27" stroke="#263238" strokeLinecap="round" strokeLinejoin="round"/>
<path d="M240.57 107.7H251.27" stroke="#263238" strokeLinecap="round" strokeLinejoin="round"/>
<path d="M186.89 82.4402C199.924 82.4402 210.49 71.8741 210.49 58.8402C210.49 45.8063 199.924 35.2402 186.89 35.2402C173.856 35.2402 163.29 45.8063 163.29 58.8402C163.29 71.8741 173.856 82.4402 186.89 82.4402Z" stroke="white" strokeMiterlimit="10"/>
<path d="M163.28 58.8403H210.49" stroke="white" strokeMiterlimit="10"/>
<path d="M186.89 35.2305V82.4405" stroke="white" strokeMiterlimit="10"/>
<path d="M170.19 42.1504L203.58 75.5304" stroke="white" strokeMiterlimit="10"/>
<path d="M203.58 42.1504L170.19 75.5304" stroke="white" strokeMiterlimit="10"/>
<path d="M165.09 49.7803L208.68 67.9003" stroke="white" strokeMiterlimit="10"/>
<path d="M195.94 37.04L177.83 80.6301" stroke="white" strokeMiterlimit="10"/>
<path d="M177.88 37.02L195.89 80.66" stroke="white" strokeMiterlimit="10"/>
<path d="M208.7 49.8301L165.07 67.8401" stroke="white" strokeMiterlimit="10"/>
<path d="M202.293 62.4762C204.317 53.9598 199.054 45.4149 190.538 43.3907C182.021 41.3665 173.476 46.6295 171.452 55.146C169.428 63.6624 174.691 72.2073 183.207 74.2315C191.724 76.2557 200.269 70.9927 202.293 62.4762Z" stroke="white" strokeMiterlimit="10"/>
<path d="M193.923 60.4832C194.844 56.5922 192.437 52.6911 188.546 51.7699C184.655 50.8487 180.754 53.2562 179.833 57.1471C178.912 61.0381 181.319 64.9392 185.21 65.8604C189.101 66.7816 193.002 64.3742 193.923 60.4832Z" stroke="white" strokeMiterlimit="10"/>
<path d="M85.51 157.09C98.5439 157.09 109.11 146.524 109.11 133.49C109.11 120.456 98.5439 109.89 85.51 109.89C72.4761 109.89 61.91 120.456 61.91 133.49C61.91 146.524 72.4761 157.09 85.51 157.09Z" stroke="white" strokeLinecap="round" strokeLinejoin="round"/>
<path d="M61.91 133.49H109.12" stroke="white" strokeLinecap="round" strokeLinejoin="round"/>
<path d="M85.51 109.88V157.09" stroke="white" strokeLinecap="round" strokeLinejoin="round"/>
<path d="M85.51 157.09C89.9338 157.09 93.52 146.524 93.52 133.49C93.52 120.456 89.9338 109.89 85.51 109.89C81.0862 109.89 77.5 120.456 77.5 133.49C77.5 146.524 81.0862 157.09 85.51 157.09Z" stroke="white" strokeLinecap="round" strokeLinejoin="round"/>
<path d="M85.51 157.09C93.9434 157.09 100.78 146.524 100.78 133.49C100.78 120.456 93.9434 109.89 85.51 109.89C77.0766 109.89 70.24 120.456 70.24 133.49C70.24 146.524 77.0766 157.09 85.51 157.09Z" stroke="white" strokeLinecap="round" strokeLinejoin="round"/>
<path d="M85.51 157.09C97.2516 157.09 106.77 146.524 106.77 133.49C106.77 120.456 97.2516 109.89 85.51 109.89C73.7684 109.89 64.25 120.456 64.25 133.49C64.25 146.524 73.7684 157.09 85.51 157.09Z" stroke="white" strokeLinecap="round" strokeLinejoin="round"/>
<path d="M64.53 122.66H106.49" stroke="white" strokeLinecap="round" strokeLinejoin="round"/>
<path d="M72.91 113.53H98.12" stroke="white" strokeLinecap="round" strokeLinejoin="round"/>
<path d="M64.53 144.31H106.49" stroke="white" strokeLinecap="round" strokeLinejoin="round"/>
<path d="M72.91 153.44H98.12" stroke="white" strokeLinecap="round" strokeLinejoin="round"/>
<path d="M186.89 157.09C199.924 157.09 210.49 146.524 210.49 133.49C210.49 120.456 199.924 109.89 186.89 109.89C173.856 109.89 163.29 120.456 163.29 133.49C163.29 146.524 173.856 157.09 186.89 157.09Z" stroke="white" strokeMiterlimit="10"/>
<path d="M186.89 157.09C191.513 157.09 195.26 146.524 195.26 133.49C195.26 120.456 191.513 109.89 186.89 109.89C182.267 109.89 178.52 120.456 178.52 133.49C178.52 146.524 182.267 157.09 186.89 157.09Z" stroke="white" strokeMiterlimit="10"/>
<path d="M186.89 141.86C199.924 141.86 210.49 138.113 210.49 133.49C210.49 128.867 199.924 125.12 186.89 125.12C173.856 125.12 163.29 128.867 163.29 133.49C163.29 138.113 173.856 141.86 186.89 141.86Z" stroke="white" strokeMiterlimit="10"/>
<path d="M179.06 141.85L195.25 125.66" stroke="white" strokeMiterlimit="10"/>
<path d="M163.28 133.49H210.49" stroke="white" strokeMiterlimit="10"/>
<path d="M186.89 109.88V157.09" stroke="white" strokeMiterlimit="10"/>
<path d="M53.8 237.05H289.88C211.16 237.017 132.467 237 53.8 237V237.05Z" fill="white" stroke="#263238" strokeLinecap="round" strokeLinejoin="round"/>
<path d="M9 237.05H16.2Z" fill="white"/>
<path d="M9 237.05H16.2" stroke="#263238" strokeLinecap="round" strokeLinejoin="round"/>
<path d="M76.4 252.08H137.45V239.6L76.54 240.4L76.4 252.08Z" fill="#263238" stroke="#263238" strokeLinecap="round" strokeLinejoin="round"/>
<path d="M254.02 252.08H120.32L79.82 242.24L76.54 235.1H191.53L254.02 247.65V252.08Z" fill="#03E5E5" stroke="#263238" strokeLinecap="round" strokeLinejoin="round"/>
<path d="M141.8 247.65H254.02L191.53 235.1H76.54L120.32 247.65H136.53" fill="#03E5E5"/>
<mask id="mask1_250_167" style="mask-type:luminance" maskUnits="userSpaceOnUse" x="76" y="235" width="179" height="13">
<path d="M141.8 247.65H254.02L191.53 235.1H76.54L120.32 247.65H136.53" fill="white"/>
</mask>
<g mask="url(#mask1_250_167)">
<path opacity="0.3" d="M76.54 235.1L120.32 247.65H254.02L191.53 235.1H76.54Z" fill="black" fill-opacity="0.7"/>
</g>
<path d="M141.8 247.65H254.02L191.53 235.1H76.54L120.32 247.65H136.53" stroke="#263238" strokeLinecap="round" strokeLinejoin="round"/>
<path d="M120.32 250.42V252.08" stroke="#263238" strokeLinecap="round" strokeLinejoin="round"/>
<path d="M81.38 240.28C81.6624 241.361 81.8035 242.473 81.8 243.59C81.8 248.28 79.38 252.08 76.4 252.08C73.42 252.08 70.99 248.28 70.99 243.59C70.99 238.9 73.41 235.1 76.4 235.1C78.05 235.1 79.52 236.26 80.52 238.1" fill="#03E5E5"/>
<path d="M81.38 240.28C81.6624 241.361 81.8035 242.473 81.8 243.59C81.8 248.28 79.38 252.08 76.4 252.08C73.42 252.08 70.99 248.28 70.99 243.59C70.99 238.9 73.41 235.1 76.4 235.1C78.05 235.1 79.52 236.26 80.52 238.1" stroke="#263238" strokeLinecap="round" strokeLinejoin="round"/>
<path d="M53.4401 261.53C130 262 208 262 285.44 261.53Z" fill="white"/>
<path d="M53.4401 261.53C130 262 208 262 285.44 261.53" stroke="#263238" strokeLinecap="round" strokeLinejoin="round"/>
<path d="M34.88 261.53C38.6454 262 42.4546 262 46.22 261.53Z" fill="white"/>
<path d="M34.88 261.53C38.6454 262 42.4546 262 46.22 261.53" stroke="#263238" strokeLinecap="round" strokeLinejoin="round"/>
<path d="M146.19 273.49C192 273 237 273 282.77 273.49Z" fill="white"/>
<path d="M146.19 273.49C192 273 237 273 282.77 273.49" stroke="#263238" strokeLinecap="round" strokeLinejoin="round"/>
<path d="M58.5901 273.49C83.0001 273 107 273 130.72 273.49Z" fill="white"/>
<path d="M58.5901 273.49C83.0001 273 107 273 130.72 273.49" stroke="#263238" strokeLinecap="round" strokeLinejoin="round"/>
<path d="M255.11 143.05C251.065 144.014 246.886 144.285 242.75 143.85L241.32 143.66C236.07 142.87 235.94 137.37 232.03 116.3C230.91 110.3 234.94 102.45 232.61 93.42C232.12 91.51 235.24 77.2 239.52 72.57C253.45 57.51 285.46 60.34 290.86 80.57C298.78 110.14 278.66 137.53 255.11 143.05Z" fill="white" stroke="#263238" strokeLinecap="round" strokeLinejoin="round"/>
<path d="M247.37 132.26C247.06 135.47 238.77 141.53 241.32 143.66" stroke="#263238" strokeLinecap="round" strokeLinejoin="round"/>
<path d="M255.11 143.05C251.065 144.014 246.886 144.285 242.75 143.85C246.068 142.52 249.049 140.471 251.48 137.85L255.11 143.05Z" fill="#263238"/>
<path d="M102.77 232.75C102.487 234.169 102.487 235.631 102.77 237.05C102.843 237.345 103.013 237.607 103.252 237.794C103.491 237.981 103.786 238.083 104.09 238.083C104.394 238.083 104.689 237.981 104.928 237.794C105.167 237.607 105.337 237.345 105.41 237.05C105.959 235.546 106.666 234.105 107.52 232.75" fill="white"/>
<path d="M102.77 232.75C102.487 234.169 102.487 235.631 102.77 237.05C102.843 237.345 103.013 237.607 103.252 237.794C103.491 237.981 103.786 238.083 104.09 238.083C104.394 238.083 104.689 237.981 104.928 237.794C105.167 237.607 105.337 237.345 105.41 237.05C105.959 235.546 106.666 234.105 107.52 232.75" stroke="#263238" strokeLinecap="round" strokeLinejoin="round"/>
<path d="M186.89 236.46C186.89 236.46 140.72 225.83 137.16 226.18C133.6 226.53 117.45 213.32 115.29 213.47C113.13 213.62 105 219.83 105 219.83L95.72 231L93.12 237.51C93.12 237.51 94.45 240.84 98.46 236.11L105.03 232.72C105.03 232.72 116.65 243.4 128.46 241.62C128.46 241.62 177.82 269.96 187.16 268.98C196.5 268 228.07 236.11 228.07 236.11L186.89 236.46Z" fill="white" stroke="#263238" strokeLinecap="round" strokeLinejoin="round"/>
<path d="M250.55 139.9C253.41 141.9 256.84 150.18 253.85 159.36L291.39 156.49C291.39 156.49 281.74 141.1 279.44 127.25C277.14 113.4 259.81 123.56 259.81 123.56" fill="white"/>
<path d="M250.55 139.9C253.41 141.9 256.84 150.18 253.85 159.36L291.39 156.49C291.39 156.49 281.74 141.1 279.44 127.25C277.14 113.4 259.81 123.56 259.81 123.56" stroke="#263238" strokeLinecap="round" strokeLinejoin="round"/>
<path d="M299.43 88.1001C295.86 66.7201 281.43 59.2201 266.93 59.7801L261.25 59.0301C239.25 56.1201 228.64 65.5201 226.88 74.3901C225.6 80.7901 228.36 89.6901 240.88 93.8701C239.971 92.6139 239.324 91.1868 238.981 89.6745C238.637 88.1622 238.603 86.596 238.88 85.0701C239.522 86.8082 240.325 88.4822 241.28 90.0701C245.47 97.1501 246.21 100.6 246.66 103.18L247.79 104.29C248.34 101.29 249.79 97.2901 253.47 100.22C260.13 105.57 257.09 118.98 254.24 123.11C254.24 123.11 260.3 137.53 279.67 134.5C279.66 134.53 303 109.48 299.43 88.1001Z" fill="#263238"/>
<path d="M249.88 106.09C249.88 106.09 248.19 96.8801 251.08 97.4001C253.97 97.9201 255.79 107.57 254.7 113.16C253.61 118.75 251.09 124 249.07 122.16C247.05 120.32 250.07 117.67 250.07 117.67" fill="white"/>
<path d="M249.88 106.09C249.88 106.09 248.19 96.8801 251.08 97.4001C253.97 97.9201 255.79 107.57 254.7 113.16C253.61 118.75 251.09 124 249.07 122.16C247.05 120.32 250.07 117.67 250.07 117.67" stroke="#263238" strokeLinecap="round" strokeLinejoin="round"/>
<path d="M353 260.86C332.72 284.45 304.77 300.92 274 310.45C267.64 312.45 261.173 314.117 254.6 315.45C252.84 315.817 251.073 316.15 249.3 316.45C245.64 317.117 241.973 317.703 238.3 318.21C236.46 296.1 231.63 273.21 227.76 251.91C226.95 247.42 226.18 242.99 225.48 238.66C225.35 237.8 225.21 236.94 225.08 236.09C223.83 227.93 222.89 220.09 222.5 212.77C221.4 191.44 225.03 174.16 239.5 164.48C242.906 162.244 246.609 160.497 250.5 159.29C250.68 159.13 252.15 157.93 254.5 156.29C260.77 152.07 273.43 145.03 286.06 146.75C286.63 146.83 287.2 146.92 287.77 147.04C290.135 147.513 292.423 148.311 294.57 149.41C301.283 150.622 307.806 152.717 313.97 155.64C320.75 158.9 327.75 163.71 332.19 170.64C339.18 181.51 347.64 227.85 353 260.86Z" fill="#999999"/>
<mask id="mask2_250_167" style="mask-type:luminance" maskUnits="userSpaceOnUse" x="222" y="146" width="131" height="173">
<path d="M353 260.86C332.72 284.45 304.77 300.92 274 310.45C267.64 312.45 261.173 314.117 254.6 315.45C252.84 315.817 251.073 316.15 249.3 316.45C245.64 317.117 241.973 317.703 238.3 318.21C236.46 296.1 231.63 273.21 227.76 251.91C226.95 247.42 226.18 242.99 225.48 238.66C225.35 237.8 225.21 236.94 225.08 236.09C223.83 227.93 222.89 220.09 222.5 212.77C221.4 191.44 225.03 174.16 239.5 164.48C242.906 162.244 246.609 160.497 250.5 159.29C250.68 159.13 252.15 157.93 254.5 156.29C260.77 152.07 273.43 145.03 286.06 146.75C286.63 146.83 287.2 146.92 287.77 147.04C290.135 147.513 292.423 148.311 294.57 149.41C301.283 150.622 307.806 152.717 313.97 155.64C320.75 158.9 327.75 163.71 332.19 170.64C339.18 181.51 347.64 227.85 353 260.86Z" fill="white"/>
</mask>
<g mask="url(#mask2_250_167)">
<path opacity="0.3" d="M261.34 217.19C261.34 217.19 255.47 249.05 244.34 258.68C244.34 258.68 239.79 268.68 231.42 271.82C230.18 265.11 228.91 258.47 227.73 251.98C226.92 247.49 226.15 243.06 225.45 238.73C225.32 237.87 225.18 237.01 225.05 236.16C224.92 235.31 224.78 234.41 224.66 233.54L261.34 217.19Z" fill="black" fill-opacity="0.7"/>
<path opacity="0.3" d="M353 260.86C332.72 284.45 304.77 300.92 274 310.45C267.64 312.45 261.173 314.117 254.6 315.45C252.84 315.817 251.073 316.15 249.3 316.45C247.71 316.75 246.12 317.02 244.52 317.28C246.14 299.03 249.36 272.42 254.6 268.97C254.6 268.97 258.7 239.97 263.04 225.24C271.59 196.18 258.71 167.69 284.26 155.58C276.688 156.489 269.026 156.327 261.5 155.1C265.99 151.65 275.86 148.67 285.73 146.71L286.16 146.76C286.73 146.84 287.3 146.93 287.87 147.05C290.235 147.524 292.523 148.321 294.67 149.42C301.383 150.632 307.906 152.727 314.07 155.65C320.85 158.91 327.85 163.72 332.29 170.65C339.18 181.51 347.64 227.85 353 260.86Z" fill="black" fill-opacity="0.7"/>
</g>
<path d="M353 260.86C332.72 284.45 304.77 300.92 274 310.45C267.64 312.45 261.173 314.117 254.6 315.45C252.84 315.817 251.073 316.15 249.3 316.45C245.64 317.117 241.973 317.703 238.3 318.21C236.46 296.1 231.63 273.21 227.76 251.91C226.95 247.42 226.18 242.99 225.48 238.66C225.35 237.8 225.21 236.94 225.08 236.09C223.83 227.93 222.89 220.09 222.5 212.77C221.4 191.44 225.03 174.16 239.5 164.48C242.906 162.244 246.609 160.497 250.5 159.29C250.68 159.13 252.15 157.93 254.5 156.29C260.77 152.07 273.43 145.03 286.06 146.75C286.63 146.83 287.2 146.92 287.77 147.04C290.135 147.513 292.423 148.311 294.57 149.41C301.283 150.622 307.806 152.717 313.97 155.64C320.75 158.9 327.75 163.71 332.19 170.64C339.18 181.51 347.64 227.85 353 260.86Z" stroke="#263238" strokeLinecap="round" strokeLinejoin="round"/>
<path d="M239.28 164.26C215.06 170.01 207.76 199.73 196.07 208.61C188.889 214.138 182.761 220.912 177.98 228.61C177.98 228.61 167.58 230.35 167.58 234.13C167.58 237.91 164.12 258.59 184.95 264.48C205.78 270.37 211.84 261.84 211.84 261.84C211.84 261.84 247.34 240.77 253.84 232.03C258.583 225.892 261.612 218.605 262.617 210.913C263.622 203.222 262.567 195.401 259.56 188.25" fill="#999999"/>
<mask id="mask3_250_167" style="mask-type:luminance" maskUnits="userSpaceOnUse" x="167" y="164" width="96" height="103">
<path d="M239.28 164.26C215.06 170.01 207.76 199.73 196.07 208.61C188.889 214.138 182.761 220.912 177.98 228.61C177.98 228.61 167.58 230.35 167.58 234.13C167.58 237.91 164.12 258.59 184.95 264.48C205.78 270.37 211.84 261.84 211.84 261.84C211.84 261.84 247.34 240.77 253.84 232.03C258.583 225.892 261.612 218.605 262.617 210.913C263.622 203.222 262.567 195.401 259.56 188.25" fill="white"/>
</mask>
<g mask="url(#mask3_250_167)">
<path opacity="0.3" d="M205.31 256.77C172.98 261.7 171.16 240.71 172.18 230.2C174.065 229.514 176.005 228.992 177.98 228.64C177.98 228.64 178.3 228.08 178.98 227.12C175.49 244.07 205.31 256.77 205.31 256.77Z" fill="black" fill-opacity="0.7"/>
</g>
<path d="M239.28 164.26C215.06 170.01 207.76 199.73 196.07 208.61C188.889 214.138 182.761 220.912 177.98 228.61C177.98 228.61 167.58 230.35 167.58 234.13C167.58 237.91 164.12 258.59 184.95 264.48C205.78 270.37 211.84 261.84 211.84 261.84C211.84 261.84 247.34 240.77 253.84 232.03C258.583 225.892 261.612 218.605 262.617 210.913C263.622 203.222 262.567 195.401 259.56 188.25" stroke="#263238" strokeLinecap="round" strokeLinejoin="round"/>
<path d="M104.35 229.58C104.35 229.58 103.82 225.89 104.35 224.44C104.88 222.99 107.35 223.38 107.65 221.8C107.95 220.22 109.23 217.19 110.95 217.19C112.67 217.19 114.11 215.42 114.11 215.42" stroke="#263238" strokeLinecap="round" strokeLinejoin="round"/>
<path d="M95.72 231C95.72 231 101.37 227 102.77 226.12" stroke="#263238" strokeLinecap="round" strokeLinejoin="round"/>
<path d="M256 209.27C256 209.27 212.65 219.66 199.52 205.27" stroke="#263238" strokeLinecap="round" strokeLinejoin="round"/>
<path d="M178 228.64C178 228.64 174.13 241.64 184 249.64C193.87 257.64 206.55 256.79 206.55 256.79" stroke="#263238" strokeLinecap="round" strokeLinejoin="round"/>
<path d="M250.55 159.36C250.55 159.36 278.46 147.11 294.68 149.49" stroke="#263238" strokeLinecap="round" strokeLinejoin="round"/>
<path d="M267.47 217.19C267.47 217.19 259.75 236.48 243.24 241.37" stroke="#263238" strokeLinecap="round" strokeLinejoin="round"/>
<path d="M235.76 246.66C235.76 246.66 247.69 271.78 275.19 276.13" stroke="#263238" strokeLinecap="round" strokeLinejoin="round"/>
<path d="M254.6 315.47C254.17 310.54 253.6 304.47 252.9 298.65C251.84 289.65 250.57 281.19 249.27 278.52C246.11 271.99 246.76 261.41 246.76 261.41C242.27 255.41 243.24 243.6 243.24 243.6" stroke="#263238" strokeLinecap="round" strokeLinejoin="round"/>
<g opacity="0.4">
<path d="M270.09 94C272.11 94.71 274.198 95.2093 276.32 95.49" stroke="white" strokeLinecap="round" strokeLinejoin="round"/>
<path d="M248.63 61.4102C242.57 64.0102 239.82 71.7802 243.32 77.1402C248.62 84.6802 257.32 88.5302 265.68 92.3902" stroke="white" strokeLinecap="round" strokeLinejoin="round"/>
<path d="M239.43 63.7803C230.59 67.9503 227.9 76.4703 234.57 84.1303" stroke="white" strokeLinecap="round" strokeLinejoin="round"/>
<path d="M290 93.8203C290.982 95.0632 291.799 96.4278 292.43 97.8803" stroke="white" strokeLinecap="round" strokeLinejoin="round"/>
<path d="M268.62 65.1899C264.77 78.0999 281.1 83.9299 287.96 91.3599" stroke="white" strokeLinecap="round" strokeLinejoin="round"/>
</g>
<path d="M401.58 145C401.4 146.29 401.22 147.57 401.02 148.86C395.08 188 379.31 226.4 358.56 254C356.78 256.373 354.923 258.677 352.99 260.91C332.71 284.5 304.76 300.97 273.99 310.5C267.63 312.5 261.163 314.167 254.59 315.5C252.83 315.867 251.063 316.2 249.29 316.5C250.34 311.32 251.55 305.28 252.89 298.63C254.62 290.01 256.55 280.38 258.56 270.34C267.38 226.23 277.72 174.12 279.33 164.25C279.691 161.874 280.25 159.533 281 157.25C281.928 154.357 283.435 151.682 285.43 149.39C285.85 148.93 286.29 148.48 286.76 148.04C287.23 147.6 287.49 147.4 287.87 147.09C294.87 141.51 307.27 139.09 329.73 139.42C368.45 140.03 390.36 132.49 401.32 144.66C401.413 144.769 401.5 144.882 401.58 145Z" fill="#FFAB03"/>
<mask id="mask4_250_167" style="mask-type:luminance" maskUnits="userSpaceOnUse" x="249" y="137" width="153" height="180">
<path d="M401.58 145C401.4 146.29 401.22 147.57 401.02 148.86C395.08 188 379.31 226.4 358.56 254C356.78 256.373 354.923 258.677 352.99 260.91C332.71 284.5 304.76 300.97 273.99 310.5C267.63 312.5 261.163 314.167 254.59 315.5C252.83 315.867 251.063 316.2 249.29 316.5C250.34 311.32 251.55 305.28 252.89 298.63C254.62 290.01 256.55 280.38 258.56 270.34C267.38 226.23 277.72 174.12 279.33 164.25C279.691 161.874 280.25 159.533 281 157.25C281.928 154.357 283.435 151.682 285.43 149.39C285.85 148.93 286.29 148.48 286.76 148.04C287.23 147.6 287.49 147.4 287.87 147.09C294.87 141.51 307.27 139.09 329.73 139.42C368.45 140.03 390.36 132.49 401.32 144.66C401.413 144.769 401.5 144.882 401.58 145Z" fill="white"/>
</mask>
<g mask="url(#mask4_250_167)">
<path opacity="0.3" d="M401 148.87C395.08 188 379.31 226.4 358.56 254C356.78 256.373 354.923 258.677 352.99 260.91C332.71 284.5 304.76 300.97 273.99 310.5C281.82 276.94 302.36 188.57 304.91 173.16C306.58 163.16 309.55 158.16 314.07 155.77C318.15 153.59 323.48 153.46 330.23 153.49C340.63 153.48 376.86 147.82 401 148.87Z" fill="black" fill-opacity="0.7"/>
</g>
<path d="M401.58 145C401.4 146.29 401.22 147.57 401.02 148.86C395.08 188 379.31 226.4 358.56 254C356.78 256.373 354.923 258.677 352.99 260.91C332.71 284.5 304.76 300.97 273.99 310.5C267.63 312.5 261.163 314.167 254.59 315.5C252.83 315.867 251.063 316.2 249.29 316.5C250.34 311.32 251.55 305.28 252.89 298.63C254.62 290.01 256.55 280.38 258.56 270.34C267.38 226.23 277.72 174.12 279.33 164.25C279.691 161.874 280.25 159.533 281 157.25C281.928 154.357 283.435 151.682 285.43 149.39C285.85 148.93 286.29 148.48 286.76 148.04C287.23 147.6 287.49 147.4 287.87 147.09C294.87 141.51 307.27 139.09 329.73 139.42C368.45 140.03 390.36 132.49 401.32 144.66C401.413 144.769 401.5 144.882 401.58 145Z" stroke="#263238" strokeLinecap="round" strokeLinejoin="round"/>
<path d="M383.88 148.92C387.53 148.77 391.19 148.69 394.88 148.72" stroke="#263238" strokeLinecap="round" strokeLinejoin="round"/>
<path d="M377 149.3L380.42 149.09" stroke="#263238" strokeLinecap="round" strokeLinejoin="round"/>
<path d="M287.13 254C292.48 231.51 297.95 209 302.13 186.29C303.66 178.01 304.05 168.19 308.85 160.96C314.56 152.35 324.85 153.66 333.85 153.26C346.85 152.68 359.85 150.62 372.85 149.6" stroke="#263238" strokeLinecap="round" strokeLinejoin="round"/>
<path d="M285.09 262.67C285.45 261.11 285.81 259.56 286.18 258" stroke="#263238" strokeLinecap="round" strokeLinejoin="round"/>
<path d="M274 310.45C276.947 297.823 279.88 285.193 282.8 272.56" stroke="#263238" strokeLinecap="round" strokeLinejoin="round"/>
</svg>
