<svg width="446" height="453" viewBox="0 0 446 453" fill="none" xmlns="http://www.w3.org/2000/svg">
<path d="M439.61 145.63V150.19C439.573 150.728 439.333 151.233 438.939 151.601C438.544 151.969 438.025 152.174 437.485 152.174C436.945 152.174 436.426 151.969 436.031 151.601C435.637 151.233 435.397 150.728 435.36 150.19V145.63H422.93V150.19C422.893 150.728 422.653 151.233 422.259 151.601C421.864 151.969 421.345 152.174 420.805 152.174C420.265 152.174 419.746 151.969 419.351 151.601C418.957 151.233 418.717 150.728 418.68 150.19V145.63H406.26V150.19C406.26 150.755 406.036 151.297 405.636 151.696C405.237 152.095 404.695 152.32 404.13 152.32C403.565 152.32 403.023 152.095 402.624 151.696C402.224 151.297 402 150.755 402 150.19V145.63H389.58V150.19C389.543 150.728 389.303 151.233 388.909 151.601C388.514 151.969 387.995 152.174 387.455 152.174C386.915 152.174 386.396 151.969 386.001 151.601C385.607 151.233 385.367 150.728 385.33 150.19V145.63H372.9V150.19C372.9 150.752 372.677 151.291 372.279 151.689C371.881 152.087 371.342 152.31 370.78 152.31C370.218 152.31 369.679 152.087 369.281 151.689C368.883 151.291 368.66 150.752 368.66 150.19V145.63H363V204.63H445.37V145.63H439.61ZM376.55 196.12H370.14V189.71H376.55V196.12ZM376.55 186.82H370.14V180.41H376.55V186.82ZM376.55 177.52H370.14V171.11H376.55V177.52ZM376.55 168.22H370.14V161.81H376.55V168.22ZM386.82 196.12H380.4V189.71H386.82V196.12ZM386.82 186.82H380.4V180.41H386.82V186.82ZM386.82 177.52H380.4V171.11H386.82V177.52ZM386.82 168.22H380.4V161.81H386.82V168.22ZM397.07 196.12H390.67V189.71H397.07V196.12ZM397.07 186.82H390.67V180.41H397.07V186.82ZM397.07 177.52H390.67V171.11H397.07V177.52ZM397.07 168.22H390.67V161.81H397.07V168.22ZM407.34 196.12H400.92V189.71H407.34V196.12ZM407.34 186.82H400.92V180.41H407.34V186.82ZM407.34 177.52H400.92V171.11H407.34V177.52ZM407.34 168.22H400.92V161.81H407.34V168.22ZM417.6 196.12H411.19V189.71H417.6V196.12ZM417.6 186.82H411.19V180.41H417.6V186.82ZM417.6 177.52H411.19V171.11H417.6V177.52ZM417.6 168.22H411.19V161.81H417.6V168.22ZM427.87 196.12H421.45V189.71H427.87V196.12ZM427.87 186.82H421.45V180.41H427.87V186.82ZM427.87 177.52H421.45V171.11H427.87V177.52ZM427.87 168.22H421.45V161.81H427.87V168.22ZM438.12 196.12H431.72V189.71H438.12V196.12ZM438.12 186.82H431.72V180.41H438.12V186.82ZM438.12 177.52H431.72V171.11H438.12V177.52ZM438.12 168.22H431.72V161.81H438.12V168.22Z" stroke="#E5E7EB" strokeLinecap="round" strokeLinejoin="round"/>
<path d="M439.61 140.84V150.19C439.573 150.728 439.333 151.232 438.939 151.601C438.544 151.969 438.025 152.174 437.485 152.174C436.945 152.174 436.426 151.969 436.031 151.601C435.637 151.232 435.397 150.728 435.36 150.19V140.84C435.397 140.301 435.637 139.797 436.031 139.429C436.426 139.06 436.945 138.855 437.485 138.855C438.025 138.855 438.544 139.06 438.939 139.429C439.333 139.797 439.573 140.301 439.61 140.84Z" stroke="#E5E7EB" strokeLinecap="round" strokeLinejoin="round"/>
<path d="M422.93 140.84V150.19C422.893 150.728 422.653 151.232 422.259 151.601C421.864 151.969 421.345 152.174 420.805 152.174C420.265 152.174 419.746 151.969 419.351 151.601C418.957 151.232 418.717 150.728 418.68 150.19V140.84C418.717 140.301 418.957 139.797 419.351 139.429C419.746 139.06 420.265 138.855 420.805 138.855C421.345 138.855 421.864 139.06 422.259 139.429C422.653 139.797 422.893 140.301 422.93 140.84Z" stroke="#E5E7EB" strokeLinecap="round" strokeLinejoin="round"/>
<path d="M406.26 140.84V150.19C406.26 150.755 406.036 151.297 405.636 151.696C405.237 152.095 404.695 152.32 404.13 152.32C403.565 152.32 403.023 152.095 402.624 151.696C402.224 151.297 402 150.755 402 150.19V140.84C402 140.561 402.055 140.284 402.162 140.026C402.269 139.768 402.427 139.534 402.624 139.337C402.822 139.14 403.057 138.984 403.316 138.878C403.574 138.772 403.851 138.719 404.13 138.72C404.409 138.717 404.686 138.77 404.943 138.877C405.201 138.983 405.435 139.141 405.63 139.34C405.83 139.535 405.988 139.769 406.096 140.026C406.204 140.284 406.26 140.56 406.26 140.84Z" stroke="#E5E7EB" strokeLinecap="round" strokeLinejoin="round"/>
<path d="M389.58 140.84V150.19C389.543 150.728 389.303 151.232 388.909 151.601C388.514 151.969 387.995 152.174 387.455 152.174C386.915 152.174 386.396 151.969 386.001 151.601C385.607 151.232 385.367 150.728 385.33 150.19V140.84C385.33 140.56 385.385 140.284 385.492 140.026C385.599 139.768 385.757 139.534 385.954 139.337C386.152 139.14 386.387 138.984 386.646 138.878C386.904 138.772 387.181 138.718 387.46 138.72C388.022 138.72 388.561 138.943 388.959 139.341C389.357 139.738 389.58 140.277 389.58 140.84Z" stroke="#E5E7EB" strokeLinecap="round" strokeLinejoin="round"/>
<path d="M372.9 140.84V150.19C372.9 150.752 372.677 151.291 372.279 151.689C371.882 152.086 371.342 152.31 370.78 152.31C370.218 152.31 369.679 152.086 369.281 151.689C368.883 151.291 368.66 150.752 368.66 150.19V140.84C368.66 140.277 368.883 139.738 369.281 139.341C369.679 138.943 370.218 138.72 370.78 138.72C371.342 138.72 371.882 138.943 372.279 139.341C372.677 139.738 372.9 140.277 372.9 140.84Z" stroke="#E5E7EB" strokeLinecap="round" strokeLinejoin="round"/>
<path d="M36.3201 209.44C55.0149 209.44 70.1701 194.285 70.1701 175.59C70.1701 156.895 55.0149 141.74 36.3201 141.74C17.6253 141.74 2.47009 156.895 2.47009 175.59C2.47009 194.285 17.6253 209.44 36.3201 209.44Z" fill="#E5E7EB" stroke="#263238" strokeLinecap="round" strokeLinejoin="round"/>
<path d="M43.1432 204.744C59.2457 200.985 69.252 184.884 65.493 168.781C61.734 152.679 45.6331 142.672 29.5306 146.431C13.4281 150.191 3.42179 166.291 7.18081 182.394C10.9398 198.496 27.0407 208.503 43.1432 204.744Z" fill="#E5E7EB" stroke="#263238" strokeLinecap="round" strokeLinejoin="round"/>
<path d="M36.3201 178.45C37.8996 178.45 39.1801 177.17 39.1801 175.59C39.1801 174.01 37.8996 172.73 36.3201 172.73C34.7405 172.73 33.4601 174.01 33.4601 175.59C33.4601 177.17 34.7405 178.45 36.3201 178.45Z" fill="#E5E7EB" stroke="#263238" strokeLinecap="round" strokeLinejoin="round"/>
<path d="M46.7401 180.69L36.3201 175.59L18.9501 194.58" fill="#E5E7EB"/>
<path d="M46.7401 180.69L36.3201 175.59L18.9501 194.58" stroke="#263238" strokeLinecap="round" strokeLinejoin="round"/>
<path d="M340.86 47.8496H99.43C96.0721 47.8496 93.35 50.5717 93.35 53.9296V417.26C93.35 420.617 96.0721 423.34 99.43 423.34H340.86C344.218 423.34 346.94 420.617 346.94 417.26V53.9296C346.94 50.5717 344.218 47.8496 340.86 47.8496Z" fill="#263238" stroke="#263238" strokeLinecap="round" strokeLinejoin="round"/>
<path d="M334.06 56.3198H106.24V408.87H334.06V56.3198Z" fill="white" stroke="#263238" strokeLinecap="round" strokeLinejoin="round"/>
<path d="M251.96 147.78H269.65" stroke="#263238" strokeMiterlimit="10"/>
<path d="M129.27 147.78H238.26" stroke="#263238" strokeMiterlimit="10"/>
<path d="M225.71 161.48H269.65" stroke="#263238" strokeMiterlimit="10"/>
<path d="M158.37 161.48H213.73" stroke="#263238" strokeMiterlimit="10"/>
<path d="M129.27 161.48H148.1" stroke="#263238" strokeMiterlimit="10"/>
<path d="M184.05 175.17H269.65" stroke="#263238" strokeMiterlimit="10"/>
<path d="M129.27 175.17H165.22" stroke="#263238" strokeMiterlimit="10"/>
<path d="M308.603 174.773C316.576 172.877 321.504 164.877 319.609 156.903C317.714 148.929 309.713 144.002 301.739 145.897C293.766 147.792 288.838 155.793 290.733 163.766C292.628 171.74 300.629 176.668 308.603 174.773Z" stroke="#263238" strokeMiterlimit="10"/>
<path d="M146.96 208.84H129.27" stroke="#263238" strokeMiterlimit="10"/>
<path d="M269.65 208.84H160.66" stroke="#263238" strokeMiterlimit="10"/>
<path d="M173.21 222.54H129.27" stroke="#263238" strokeMiterlimit="10"/>
<path d="M240.55 222.54H185.19" stroke="#263238" strokeMiterlimit="10"/>
<path d="M269.65 222.54H250.82" stroke="#263238" strokeMiterlimit="10"/>
<path d="M214.87 236.23H129.27" stroke="#263238" strokeMiterlimit="10"/>
<path d="M269.65 236.23H233.7" stroke="#263238" strokeMiterlimit="10"/>
<path d="M308.6 235.818C316.573 233.923 321.501 225.922 319.606 217.949C317.711 209.975 309.71 205.047 301.737 206.942C293.763 208.838 288.835 216.838 290.73 224.812C292.625 232.786 300.626 237.713 308.6 235.818Z" stroke="#263238" strokeMiterlimit="10"/>
<path d="M251.96 269.9H269.65" stroke="#263238" strokeMiterlimit="10"/>
<path d="M129.27 269.9H238.26" stroke="#263238" strokeMiterlimit="10"/>
<path d="M225.71 283.6H269.65" stroke="#263238" strokeMiterlimit="10"/>
<path d="M158.37 283.6H213.73" stroke="#263238" strokeMiterlimit="10"/>
<path d="M129.27 283.6H148.1" stroke="#263238" strokeMiterlimit="10"/>
<path d="M184.05 297.29H269.65" stroke="#263238" strokeMiterlimit="10"/>
<path d="M129.27 297.29H165.22" stroke="#263238" strokeMiterlimit="10"/>
<path d="M315.657 292.94C321.452 287.144 321.452 277.748 315.657 271.953C309.862 266.157 300.465 266.157 294.67 271.953C288.875 277.748 288.875 287.144 294.67 292.94C300.465 298.735 309.862 298.735 315.657 292.94Z" stroke="#263238" strokeMiterlimit="10"/>
<path d="M239.33 18.2798C238.815 18.2798 238.322 18.0754 237.958 17.7116C237.594 17.3478 237.39 16.8544 237.39 16.3398V5.43984C237.39 4.89879 237.283 4.36304 237.076 3.86318C236.869 3.36332 236.566 2.90913 236.183 2.52656C235.801 2.14398 235.346 1.8405 234.847 1.63345C234.347 1.4264 233.811 1.31984 233.27 1.31984H215.7C215.158 1.31852 214.621 1.42412 214.12 1.63058C213.619 1.83704 213.164 2.14031 212.78 2.52301C212.397 2.90572 212.092 3.36035 211.885 3.86087C211.677 4.36138 211.57 4.89795 211.57 5.43984V16.3398C211.571 16.5941 211.522 16.8462 211.426 17.0815C211.33 17.3168 211.188 17.5307 211.008 17.711C210.829 17.8913 210.616 18.0344 210.381 18.132C210.146 18.2296 209.894 18.2798 209.64 18.2798C209.386 18.2785 209.134 18.3275 208.898 18.4239C208.663 18.5203 208.449 18.6622 208.269 18.8416C208.088 19.0209 207.945 19.2341 207.848 19.4689C207.75 19.7038 207.7 19.9555 207.7 20.2098V49.7398H241.26V20.2098C241.26 19.698 241.057 19.2071 240.695 18.8451C240.333 18.4832 239.842 18.2798 239.33 18.2798ZM224.48 17.2798C223.41 17.2779 222.365 16.9589 221.477 16.3632C220.589 15.7676 219.897 14.922 219.489 13.9332C219.081 12.9445 218.975 11.8571 219.185 10.8083C219.395 9.7595 219.911 8.79647 220.668 8.04087C221.425 7.28527 222.389 6.77101 223.438 6.56307C224.487 6.35513 225.575 6.46285 226.563 6.87261C227.551 7.28237 228.395 7.97579 228.989 8.86524C229.583 9.75469 229.9 10.8003 229.9 11.8698C229.895 13.3029 229.321 14.6754 228.305 15.6859C227.289 16.6964 225.913 17.2625 224.48 17.2598V17.2798Z" fill="#263238" stroke="#263238" strokeLinecap="round" strokeLinejoin="round"/>
<path d="M180.73 40.3496H268.24C270.532 40.3523 272.73 41.2648 274.35 42.8867C275.97 44.5086 276.88 46.7072 276.88 48.9996V58.9496H172.08V48.9996C172.08 46.7055 172.991 44.5053 174.613 42.8831C176.236 41.261 178.436 40.3496 180.73 40.3496Z" fill="white" stroke="#263238" strokeLinecap="round" strokeLinejoin="round"/>
<path d="M174.68 43.5697H274.29C273.366 42.5547 272.241 41.744 270.985 41.1895C269.73 40.635 268.372 40.349 267 40.3497H182C180.622 40.3435 179.259 40.627 177.998 41.1817C176.737 41.7364 175.606 42.55 174.68 43.5697Z" fill="#263238" stroke="#263238" strokeLinecap="round" strokeLinejoin="round"/>
<path d="M276.88 58.8599H172.08V64.9699H276.88V58.8599Z" fill="white" stroke="#263238" strokeLinecap="round" strokeLinejoin="round"/>
<path d="M299.51 218.94L303.54 226.1L318.78 211.32" stroke="#03E5E5" strokeWidth="6" strokeMiterlimit="10" strokeLinecap="round"/>
<path d="M299.51 157.23L303.54 164.4L318.78 149.61" stroke="#03E5E5" strokeWidth="6" strokeMiterlimit="10" strokeLinecap="round"/>
<path d="M251.96 87.4199H269.65" stroke="#263238" strokeMiterlimit="10"/>
<path d="M129.27 87.4199H238.26" stroke="#263238" strokeMiterlimit="10"/>
<path d="M225.71 101.11H269.65" stroke="#263238" strokeMiterlimit="10"/>
<path d="M158.37 101.11H213.73" stroke="#263238" strokeMiterlimit="10"/>
<path d="M129.27 101.11H148.1" stroke="#263238" strokeMiterlimit="10"/>
<path d="M184.05 114.81H269.65" stroke="#263238" strokeMiterlimit="10"/>
<path d="M129.27 114.81H165.22" stroke="#263238" strokeMiterlimit="10"/>
<path d="M315.664 110.457C321.46 104.661 321.46 95.2653 315.664 89.4699C309.869 83.6745 300.473 83.6745 294.677 89.4699C288.882 95.2653 288.882 104.661 294.677 110.457C300.473 116.252 309.869 116.252 315.664 110.457Z" stroke="#263238" strokeMiterlimit="10"/>
<path d="M299.51 96.87L303.54 104.04L318.78 89.25" stroke="#03E5E5" strokeWidth="6" strokeMiterlimit="10" strokeLinecap="round"/>
<path d="M297.38 277.16L301.41 284.33L316.64 269.54" stroke="#03E5E5" strokeWidth="6" strokeMiterlimit="10" strokeLinecap="round"/>
<path d="M378.91 182.67C378.91 182.67 384.32 187.25 383.91 191.27C383.5 195.29 378.09 205.13 376.85 208.04C375.61 210.95 378.51 217.88 378.51 217.88L360.51 223.98C360.732 222.928 360.732 221.842 360.51 220.79C360.1 219.79 359.4 217.18 359.4 217.18L355.8 218.43C354.97 218.71 352.06 217.32 351.92 216.08C351.78 214.84 351.78 214 351.64 212.19C351.559 210.328 351.329 208.475 350.95 206.65C350.67 206.1 347.9 204.29 348.04 203.32C348.18 202.35 351.36 198.61 351.64 197.37C351.92 196.13 351.23 193.37 351.5 191.82C351.77 190.27 354.41 185.03 354.41 185.03C354.41 185.03 352.75 183.64 357.32 179.9C361.89 176.16 373.37 175.05 378.91 182.67Z" fill="white" stroke="#263238" strokeLinecap="round" strokeLinejoin="round"/>
<path d="M378.91 182.67C373.37 175.05 361.91 176.16 357.29 179.9C352.67 183.64 354.38 185.03 354.38 185.03L358.54 188.22C358.54 188.22 354.66 192.65 355.22 193.22C355.78 193.79 358.82 197.65 358.82 197.65L358.55 198.94L358 196.85C358 196.85 356.28 203.74 356 205.46C355.72 207.18 355.67 207.83 354.92 208.05C354.17 208.27 350.92 206.66 350.92 206.66C350.92 206.66 350.92 210.74 350.79 212.46C350.66 214.18 350.57 215.59 350.46 217.09C350.35 218.59 352.62 221.09 355.31 220.54C358 219.99 359.45 218.59 359.37 217.19C359.29 215.79 360.26 210.96 359.83 209.99C359.4 209.02 358.59 204.21 359.37 202.09C359.37 202.09 361.17 198.21 363.12 198.21C365.07 198.21 365.33 203.47 364.78 204.72C364.23 205.97 363.95 206.66 363.95 206.66C363.95 206.66 363.95 207.49 369.35 209.29C373.41 210.65 375.67 209.89 376.55 209.43C376.566 208.957 376.664 208.49 376.84 208.05C378.08 205.14 383.49 195.3 383.9 191.28C384.31 187.26 378.91 182.67 378.91 182.67Z" fill="#263238" stroke="#263238" strokeLinecap="round" strokeLinejoin="round"/>
<path d="M364 206.65C364 206.65 362.75 208.59 361.64 209.01C360.53 209.43 359.84 207.9 359.84 207.9" stroke="#263238" strokeLinecap="round" strokeLinejoin="round"/>
<path d="M352 197.78C352 198.78 352.25 199.58 352.55 199.58C352.85 199.58 353.11 198.78 353.11 197.78C353.11 196.78 352.86 195.98 352.55 195.98C352.24 195.98 352 196.79 352 197.78Z" fill="#263238"/>
<path d="M353.69 195.56C353.69 195.56 353.97 193.76 351.75 194.56" stroke="#263238" strokeLinecap="round" strokeLinejoin="round"/>
<path d="M352.37 210.65C353.141 210.454 353.854 210.077 354.45 209.55" stroke="white" strokeLinecap="round" strokeLinejoin="round"/>
<path d="M301.62 246.1H332.99L340.27 270.69H308.9L301.62 246.1Z" fill="white" stroke="#263238" strokeLinecap="round" strokeLinejoin="round"/>
<path d="M303.85 247.52H331.6L338.04 269.27H310.29L303.85 247.52Z" fill="white" stroke="#263238" strokeLinecap="round" strokeLinejoin="round"/>
<path d="M309.12 272.61H347.4V270.95H309.12V272.61Z" fill="white" stroke="#263238" strokeLinecap="round" strokeLinejoin="round"/>
<path d="M359.52 429.91C359.52 429.91 356.14 434.64 353.86 435.91C351.58 437.18 346 438.57 346 440C346 441.43 346.42 441.66 348.91 442.49C351.4 443.32 355.91 443.32 358.44 443.32C360.442 443.251 362.447 443.321 364.44 443.53C366.912 443.889 369.403 444.096 371.9 444.15C373.97 444.15 373.9 438.64 373.9 438.64L359.52 429.91Z" fill="white" stroke="#263238" strokeLinecap="round" strokeLinejoin="round"/>
<path d="M392.87 312.46C392.87 312.46 388 351.13 383.34 364C378.68 376.87 380.67 380.78 377.51 393.9C374.35 407.02 373.86 437.9 373.86 438.64C373.86 439.38 372.4 438.64 367.3 435.96C364.339 434.457 361.698 432.396 359.52 429.89C359.663 428.336 359.907 426.793 360.25 425.27C360.73 423.27 361.71 418.22 361.71 418.22C361.71 418.22 359.76 401.68 361.95 375.22C364.14 348.76 365.11 317.3 365.11 317.3C365.11 317.3 382.9 314.89 392.87 312.46Z" fill="#263238" stroke="#263238" strokeLinecap="round" strokeLinejoin="round"/>
<path d="M368.39 438.29C368.39 438.29 364.89 441.93 362.71 443.1C360.53 444.27 353.71 446.74 353.53 447.76C353.35 448.78 354.11 450.82 354.53 450.96C358.422 451.713 362.368 452.151 366.33 452.27C371.86 452.42 378.27 451.69 379.87 451.69C381.47 451.69 385.26 453.15 385.41 448.78C385.56 444.41 383.22 438.15 383.22 438.15C383.22 438.15 375.52 440.48 368.39 438.29Z" fill="white" stroke="#263238" strokeLinecap="round" strokeLinejoin="round"/>
<path d="M379.75 327C379.75 327 377.98 352 377.1 359.54C376.22 367.08 378 383 380 394C382 405 382.66 427.86 382.66 427.86C383.018 428.089 383.282 428.439 383.403 428.847C383.525 429.255 383.495 429.692 383.32 430.08C382.815 431.161 382.37 432.269 381.99 433.4C381.99 433.4 384.43 434.28 384.21 435.83C383.99 437.38 383.32 440.26 383.32 440.26C381.327 440.464 379.323 440.537 377.32 440.48C374.493 440.477 371.675 440.178 368.91 439.59L367.14 438.71C367.14 438.71 366.69 435.17 366.69 433.17C366.69 431.17 368.91 429.17 368.69 428.08C368.47 426.99 367.37 420.78 366.48 415.69C365.59 410.6 366.26 407.5 364.71 402.19C363.16 396.88 354.53 365.19 354.53 365.19C354.53 365.19 350.53 328.45 350.32 323.36C350.11 318.27 350.1 316.05 350.1 316.05C350.1 316.05 356.96 310.52 358.51 310.52C360.06 310.52 379.75 327 379.75 327Z" fill="#263238" stroke="#263238" strokeLinecap="round" strokeLinejoin="round"/>
<path d="M349.44 312.32C349.44 312.32 348.68 317.89 349.44 319.02C350.2 320.15 356.78 321.93 365 322.82C373.22 323.71 383.73 322.82 387.27 321.55C390.81 320.28 393.09 319.15 393.6 318.26C394.11 317.37 393.72 312.7 393.72 312.7C393.72 312.7 361 314.6 349.44 312.32Z" fill="#FFAB03" stroke="#263238" strokeLinecap="round" strokeLinejoin="round"/>
<path d="M381.41 221.2C381.41 221.2 393.05 228.98 395.22 241.34C397.14 252.34 394.02 291.19 394.02 293.27C394.02 295.35 395.62 312.19 395.62 312.19C397.27 315.73 383.78 318.97 376.39 319.66C369.85 320.27 355.39 318.81 351.26 316.76C349.95 316.11 348.69 315.4 348.66 313.94C348.51 307.15 348.16 289.04 348.61 286.34C349.17 283.01 348.56 263.61 348.56 256.96C348.56 250.31 346.07 240.19 348.29 235.89C350.51 231.59 356.19 228.69 356.19 228.69C363.442 223.281 372.381 220.626 381.41 221.2Z" fill="#FFAB03" stroke="#263238" strokeLinecap="round" strokeLinejoin="round"/>
<path d="M381.52 260.52C380.671 262.213 379.667 263.823 378.52 265.33" stroke="#263238" strokeLinecap="round" strokeLinejoin="round"/>
<path d="M389.44 243.94C389.44 243.94 386.77 250.02 383.94 255.78" stroke="#263238" strokeLinecap="round" strokeLinejoin="round"/>
<path d="M383.98 263.15L378.08 271.01" stroke="#263238" strokeLinecap="round" strokeLinejoin="round"/>
<path d="M381.55 215.52L384.18 222.17C384.18 222.17 378.64 222.45 373.51 223.17C368.38 223.89 356.19 228.72 356.19 228.72C356.19 228.72 357.43 223.72 358.4 222.72C361.554 219.6 365.558 217.479 369.91 216.62C373.721 215.721 377.638 215.351 381.55 215.52Z" fill="#FFAB03" stroke="#263238" strokeLinecap="round" strokeLinejoin="round"/>
<path d="M361.49 278.63C361.49 278.63 360.6 289.1 359.49 289.63C358.38 290.16 329.78 280.18 327.73 279.16C326.61 278.606 325.395 278.267 324.15 278.16C323.76 278.04 320.3 278.04 319.02 277.39C317.94 276.659 316.953 275.799 316.08 274.83C315.69 274.58 312.62 274.45 311.73 273.83C310.84 273.21 309.68 272.68 310.45 272.29C311.959 271.816 313.495 271.432 315.05 271.14C315.05 271.14 315.18 269.35 316.72 269.09C318.26 268.83 317.72 269.48 321.46 267.3C325.2 265.12 324.79 266.92 327.99 269.22C331.19 271.52 332.72 274.09 333.11 274.22C333.5 274.35 345.11 278.71 345.11 278.71L361.49 278.63Z" fill="white" stroke="#263238" strokeLinecap="round" strokeLinejoin="round"/>
<path d="M315.01 271.07L321.29 270.3" stroke="#263238" strokeLinecap="round" strokeLinejoin="round"/>
<path d="M336 275.16C336 275.16 334.24 273.64 333.05 274.16C331.86 274.68 330.13 276.91 329.96 279.67C329.79 282.43 334.28 282.78 334.28 282.78L336 275.16Z" fill="#FFAB03" stroke="#263238" strokeLinecap="round" strokeLinejoin="round"/>
<path d="M359.61 229.94C357.3 229.94 351.22 231.62 349.33 233.72C347.44 235.82 347.23 241.9 347.86 250.08C348.49 258.26 351.7 273.58 351.71 273.66C351.71 273.48 351.32 274.47 351.22 274.66C350.8 275.41 351.87 275.53 350.87 275.66C349.999 275.786 349.12 275.853 348.24 275.86L343.84 275.11C340.901 274.601 337.931 274.287 334.95 274.17C334.02 274.17 331.56 281.69 332.95 283.33C334.34 284.97 362.15 295.76 364.02 295.33C365.89 294.9 369.46 270.33 369.41 270.18C369.95 263.44 370.6 255.54 370.72 254.71" fill="#FFAB03"/>
<path d="M359.61 229.94C357.3 229.94 351.22 231.62 349.33 233.72C347.44 235.82 347.23 241.9 347.86 250.08C348.49 258.26 351.7 273.58 351.71 273.66C351.71 273.48 351.32 274.47 351.22 274.66C350.8 275.41 351.87 275.53 350.87 275.66C349.999 275.786 349.12 275.853 348.24 275.86L343.84 275.11C340.901 274.601 337.931 274.287 334.95 274.17C334.02 274.17 331.56 281.69 332.95 283.33C334.34 284.97 362.15 295.76 364.02 295.33C365.89 294.9 369.46 270.33 369.41 270.18C369.95 263.44 370.6 255.54 370.72 254.71" stroke="#263238" strokeLinecap="round" strokeLinejoin="round"/>
<path d="M350.87 275.68C352.7 277.597 354.662 279.385 356.74 281.03" stroke="#263238" strokeLinecap="round" strokeLinejoin="round"/>
<path d="M353.46 280.52C354.7 281.681 356.093 282.667 357.6 283.45" stroke="#263238" strokeLinecap="round" strokeLinejoin="round"/>
<path d="M249.76 212.59C249.19 209.16 246.9 206.87 246.32 204.77C245.832 203.187 245.196 201.654 244.42 200.19C242.473 204.18 240.971 208.372 239.94 212.69L239.44 211.5L230 218.94L229.44 235.49L244.82 236.21C244.82 236.21 244.19 233.47 243.97 231.44C243.803 229.433 243.921 227.413 244.32 225.44C244.32 225.44 248.67 225.54 249.05 224.01C249.43 222.48 250.33 216 249.76 212.59Z" fill="white" stroke="#263238" strokeLinecap="round" strokeLinejoin="round"/>
<path d="M247.29 206.5C247.867 206.719 248.468 206.87 249.08 206.95C249.64 206.95 250.64 207.06 250.31 208.41C250.178 209.127 249.777 209.767 249.19 210.2L247.29 206.5Z" fill="white" stroke="#263238" strokeLinecap="round" strokeLinejoin="round"/>
<path d="M242.72 397.72C242.72 397.72 240.62 433.46 240.62 434.03C240.62 434.6 237.97 443.47 238.35 444.79C238.73 446.11 241.75 446.49 243.83 446.68C245.91 446.87 250.24 447.43 251.94 447.43C254.914 447.388 257.881 447.137 260.82 446.68C261.95 446.3 263.46 445.17 262.14 444.22C260.82 443.27 257.61 442.9 253.83 438.56C252.042 436.655 250.459 434.567 249.11 432.33L257.11 398.1L242.72 397.72Z" fill="white" stroke="#263238" strokeLinecap="round" strokeLinejoin="round"/>
<path d="M189.67 391.12C189.67 391.12 174.96 427.71 173.83 429.22C172.7 430.73 165.06 440.38 164.83 442.22C164.6 444.06 174.41 444.28 176.11 443.15C177.81 442.02 179.83 432.15 180.96 430.15C182.09 428.15 207.18 393.75 207.18 393.75L189.67 391.12Z" fill="white" stroke="#263238" strokeLinecap="round" strokeLinejoin="round"/>
<path d="M214.44 284.72L214.16 290.86C214.16 290.86 206.5 307.38 199.05 327.86C190.93 350.19 180.37 388.86 180.37 388.86C180.37 388.86 187.37 395.28 206.37 398.35C225.37 401.42 237.17 402.72 247.49 402.41C259.98 402.03 275.89 398.63 275.89 398.63C275.89 398.63 266.96 343.91 259.7 319.06C252.44 294.21 250.7 291.74 250.7 291.74L248.23 277.89L214.44 284.72Z" fill="#8F8F8F" stroke="#263238" strokeLinecap="round" strokeLinejoin="round"/>
<path d="M226.29 327L224.21 400.31" stroke="#263238" strokeLinecap="round" strokeLinejoin="round"/>
<path d="M226.44 321.57L226.36 324.45" stroke="#263238" strokeLinecap="round" strokeLinejoin="round"/>
<path d="M242.29 292.29C243.457 292.05 244.597 291.76 245.71 291.42" stroke="#263238" strokeLinecap="round" strokeLinejoin="round"/>
<path d="M217.51 292.81C224.312 293.636 231.184 293.699 238 293" stroke="#263238" strokeLinecap="round" strokeLinejoin="round"/>
<path d="M284 212.5C283.536 210.473 283.202 208.419 283 206.35C282.86 203.89 280.54 200.61 280.81 199.24C281.08 197.87 282.45 198.01 283.14 198.42C283.74 198.921 284.248 199.524 284.64 200.2C284.64 200.2 286.56 194.32 286.56 191.72C286.56 189.12 288.2 189.4 288.88 191.17C289.56 192.94 288.61 199.79 288.61 199.79C289.906 200.125 291.182 200.536 292.43 201.02C293.67 201.57 295.99 202.66 295.58 206.08C295.17 209.5 294.76 211.41 293.94 211.41C293.12 211.41 292.43 210.32 292.43 210.32C292.43 210.32 292.43 214.01 291.2 215.1C290.106 215.841 288.83 216.267 287.51 216.33C287.51 216.33 287.84 213.6 284 212.5Z" fill="white" stroke="#263238" strokeLinecap="round" strokeLinejoin="round"/>
<path d="M292.48 210.32C292.48 210.32 293.31 207.17 293.31 206.76" stroke="#263238" strokeLinecap="round" strokeLinejoin="round"/>
<path d="M284.69 200.2L283.87 204.03" stroke="#263238" strokeLinecap="round" strokeLinejoin="round"/>
<path d="M280.61 216.33L283.18 211.97C283.18 211.97 284.18 210.58 286.55 211.38H286.62C287.66 211.74 288.525 212.481 289.039 213.454C289.553 214.426 289.679 215.558 289.39 216.62L288.73 219.08C288.73 219.08 283.58 216.13 280.61 216.33Z" fill="#03E5E5" stroke="#263238" strokeLinecap="round" strokeLinejoin="round"/>
<path d="M173.1 303.72C173.1 303.72 173.73 306.99 174.04 309.32C174.35 311.65 175.9 316.32 177.04 316.94C178.18 317.56 179.53 318.34 177.98 318.81C176.43 319.28 175.49 319.43 174.09 318.34C173.201 317.66 172.399 316.874 171.7 316C171.7 316 170.62 320.82 169.84 323.16C168.982 325.267 167.942 327.295 166.73 329.22C166.709 329.563 166.607 329.897 166.433 330.194C166.26 330.491 166.019 330.743 165.73 330.93C164.8 331.4 164.13 329.54 164.13 329.54C164.13 329.54 162.88 332.46 162.07 329.38C161.402 325.783 160.987 322.144 160.83 318.49C160.98 316.93 167.27 302.49 167.27 302.49L173.1 303.72Z" fill="white" stroke="#263238" strokeLinecap="round" strokeLinejoin="round"/>
<path d="M164.27 320.83C163.795 321.596 163.457 322.439 163.27 323.32C163.27 323.94 164.08 329.55 164.08 329.55" stroke="#263238" strokeLinecap="round" strokeLinejoin="round"/>
<path d="M166.73 329.23L165.93 323.79L167.35 320.21" stroke="#263238" strokeLinecap="round" strokeLinejoin="round"/>
<path d="M167.82 327.37C167.82 327.37 167.88 324.43 168.08 323.09C168.28 321.75 168.62 321.99 169.08 320.37" stroke="#263238" strokeLinecap="round" strokeLinejoin="round"/>
<path d="M169.37 313.06C169.226 313.996 168.792 314.863 168.13 315.54C167.096 316.49 166.004 317.375 164.86 318.19" stroke="#263238" strokeLinecap="round" strokeLinejoin="round"/>
<path d="M211.06 237.53C211.06 237.53 198.37 243.68 197.58 245.26C196.79 246.84 180.94 275.18 178.76 277.96C176.58 280.74 169.84 284.3 169.05 287.07C168.26 289.84 168.85 297.38 168.85 297.38L167.26 302.53C167.26 302.53 167.46 304.31 170.26 304.91L173.04 305.5L177.8 300.94C177.8 300.94 188.1 298.37 192.26 293.41C196.42 288.45 206.53 265.27 206.53 265.27L204.94 280.93C212.429 281.91 220 282.108 227.53 281.52C239.82 280.52 253.29 278.52 253.29 278.52L251.51 260.29C251.51 260.29 280.84 255.54 282.42 254.15C284 252.76 285.42 249 285.59 247.61C285.76 246.22 290.74 219.67 290.74 219.67C290.047 218.681 289.166 217.839 288.146 217.192C287.127 216.545 285.99 216.106 284.8 215.9C280.64 215.11 276.48 217.29 276.28 218.48C276.08 219.67 267.56 236.91 267.56 236.91C267.56 236.91 266.96 236.51 264.79 237.5C262.62 238.49 258.79 236.94 258.79 236.94C258.79 236.94 251.13 234.73 246.79 235.13C242.45 235.53 238.27 236.13 238.27 236.13C238.27 236.13 230.54 232.56 224.8 234.13C219.06 235.7 211.06 237.53 211.06 237.53Z" fill="#03E5E5" stroke="#263238" strokeLinecap="round" strokeLinejoin="round"/>
<path d="M238.4 262.1L251.48 260.32L242.76 264.88" stroke="#263238" strokeLinecap="round" strokeLinejoin="round"/>
<path d="M206.7 256.36L206.5 265.27L203.53 261.51" stroke="#263238" strokeLinecap="round" strokeLinejoin="round"/>
<path d="M170.63 298.17C170.63 298.17 171.23 300.17 175.98 300.17" stroke="#263238" strokeLinecap="round" strokeLinejoin="round"/>
<path d="M221.8 221.62C228.31 226.62 233.8 223.62 236.13 221.26C238.98 218.4 238.96 214.66 240.82 211.09C241.06 209.79 245.37 205.23 245.7 204.15C246.47 201.67 244.99 197.32 244.99 197.32C244.99 197.32 249.19 197.9 247.28 193.7C245.37 189.5 243.65 187.97 239.64 187.59C238.437 187.511 237.233 187.731 236.136 188.23C235.038 188.729 234.081 189.491 233.35 190.45C233.35 190.45 228.58 188.16 225.35 189.88C222.12 191.6 217.4 189.88 213.57 201.51C213.017 202.828 212.624 204.208 212.4 205.62C212.23 208.99 214.16 211.39 216.07 214.17C219 218.44 217.71 218.46 221.8 221.62Z" fill="#263238" stroke="#263238" strokeLinecap="round" strokeLinejoin="round"/>
<path d="M229.58 216.15C229.58 217.105 229.297 218.039 228.766 218.833C228.235 219.628 227.481 220.247 226.598 220.612C225.716 220.978 224.745 221.073 223.808 220.887C222.871 220.701 222.01 220.241 221.335 219.565C220.659 218.89 220.199 218.029 220.013 217.092C219.826 216.155 219.922 215.184 220.288 214.301C220.653 213.419 221.272 212.665 222.067 212.134C222.861 211.603 223.795 211.32 224.75 211.32C226.03 211.322 227.257 211.832 228.162 212.737C229.068 213.643 229.577 214.87 229.58 216.15Z" fill="white" stroke="#263238" strokeLinecap="round" strokeLinejoin="round"/>
<path d="M215.93 225.07C215.93 228.07 215.93 231.02 213.25 233.07C210.25 235.3 198.75 243.86 205.07 252.6C211.39 261.34 212.29 258.92 211.74 261.9C211.19 264.88 198.91 273.05 201.14 280.3C203.37 287.55 212.48 291.64 211.14 294.43C209.8 297.22 213.93 310.98 229.73 303.73C245.53 296.48 244.44 283.99 238.1 269.89C236.63 266.63 237.32 262.47 243.27 255.77C249.22 249.07 244.74 236.22 238.47 229.77C234.77 225.94 233.26 222.89 233.47 222.15C233.68 221.41 227.71 212.67 222.69 215.27C219.57 216.89 216.69 219.98 216.02 223.61C215.947 224.093 215.917 224.581 215.93 225.07Z" fill="#263238" stroke="#263238" strokeLinecap="round" strokeLinejoin="round"/>
<path d="M240.82 211.09C240.82 211.09 238.82 208.36 237.49 211.29C236.988 212.473 236.88 213.786 237.181 215.035C237.481 216.284 238.175 217.404 239.16 218.23C240.52 219.3 241.5 215.39 241.5 215.39" fill="white"/>
<path d="M240.82 211.09C240.82 211.09 238.82 208.36 237.49 211.29C236.988 212.473 236.88 213.786 237.181 215.035C237.481 216.284 238.175 217.404 239.16 218.23C240.52 219.3 241.5 215.39 241.5 215.39" stroke="#263238" strokeLinecap="round" strokeLinejoin="round"/>
<path d="M260.82 446.68C261.95 446.3 263.46 445.17 262.14 444.22C260.82 443.27 257.61 442.9 253.83 438.56L253.63 441.94C248.742 441.724 243.878 441.136 239.08 440.18C238.619 441.674 238.373 443.227 238.35 444.79C238.73 446.11 241.75 446.49 243.83 446.68C245.91 446.87 250.24 447.43 251.94 447.43C254.914 447.388 257.881 447.137 260.82 446.68Z" fill="#03E5E5" stroke="#263238" strokeLinecap="round" strokeLinejoin="round"/>
<path d="M176.15 443.2C176.86 442.73 177.61 440.77 178.34 438.5C174.796 438.644 171.252 438.205 167.85 437.2C166.25 439.46 164.95 441.5 164.85 442.27C164.69 444.15 174.45 444.33 176.15 443.2Z" fill="#03E5E5" stroke="#263238" strokeLinecap="round" strokeLinejoin="round"/>
</svg>
