<svg width="406" height="406" viewBox="0 0 406 406" fill="none" xmlns="http://www.w3.org/2000/svg">
<path d="M46.45 220.52L189.22 203.58" stroke="#FFAB03" strokeMiterlimit="10" strokeDasharray="5 5"/>
<path d="M50.4799 157.43L193.44 190.31" stroke="#FFAB03" strokeMiterlimit="10" strokeDasharray="5 5"/>
<path d="M73.3 104.4L187.4 174.21" stroke="#FFAB03" strokeMiterlimit="10" strokeDasharray="5 5"/>
<path d="M137.06 99.71L200.82 172.19" stroke="#FFAB03" strokeMiterlimit="10" strokeDasharray="5 5"/>
<path d="M205.52 51.3799V169.51" stroke="#FFAB03" strokeMiterlimit="10" strokeDasharray="5 5"/>
<path d="M308.2 47.3599L220.28 172.86" stroke="#FFAB03" strokeMiterlimit="10" strokeDasharray="5 5"/>
<path d="M355.19 93.6699L224.98 181.59" stroke="#FFAB03" strokeMiterlimit="10" strokeDasharray="5 5"/>
<path d="M351.83 162.12L227.66 192.33" stroke="#FFAB03" strokeMiterlimit="10" strokeDasharray="5 5"/>
<path d="M349.15 244.68L233.03 207.76" stroke="#FFAB03" strokeMiterlimit="10" strokeDasharray="5 5"/>
<path d="M119.13 53.0702L124.5 53.8402L125.95 47.4902L120.89 45.8902C120.833 44.3576 120.515 42.846 119.95 41.4202L123.77 37.8202L119.7 32.7202L115.42 35.6002C114.149 34.6597 112.72 33.9552 111.2 33.5202L110.78 28.4102H104.26L103.84 33.5002C102.318 33.9316 100.885 34.6327 99.61 35.5702L95.32 32.6902L91.26 37.7902L95.06 41.3702C94.4749 42.7924 94.1367 44.3041 94.06 45.8402L89 47.4402L90.52 53.8002L95.86 53.0302C96.5963 54.3125 97.5351 55.4674 98.64 56.4502L96.64 61.5602L102.52 64.3902L105.3 59.6302C106.02 59.7571 106.749 59.824 107.48 59.8302C108.201 59.8233 108.919 59.7597 109.63 59.6402L112.42 64.4102L118.3 61.5802L116.3 56.4802C117.425 55.5076 118.382 54.3554 119.13 53.0702ZM101.34 46.4102C101.338 45.1922 101.697 44.0011 102.372 42.9872C103.047 41.9733 104.007 41.1822 105.131 40.7139C106.255 40.2455 107.493 40.1209 108.688 40.3559C109.883 40.5908 110.982 41.1747 111.845 42.0338C112.708 42.8929 113.298 43.9886 113.538 45.1825C113.779 46.3764 113.661 47.6148 113.198 48.7413C112.735 49.8679 111.948 50.8319 110.938 51.5116C109.927 52.1913 108.738 52.5562 107.52 52.5602C106.71 52.5628 105.908 52.4057 105.159 52.098C104.41 51.7902 103.729 51.3378 103.155 50.7666C102.581 50.1953 102.125 49.5166 101.814 48.769C101.502 48.0215 101.341 47.2199 101.34 46.4102Z" fill="#03E5E5" stroke="#111827" strokeLinejoin="round"/>
<path d="M140.77 30.67L144.42 31.2L145.42 26.88L141.98 25.79C141.936 24.7612 141.72 23.7471 141.34 22.79L143.93 20.34L141.17 16.88L138.26 18.88C137.396 18.2413 136.424 17.7637 135.39 17.47L135.11 14H130.68L130.4 17.46C129.365 17.7522 128.389 18.2262 127.52 18.86L124.61 16.86L121.85 20.32L124.43 22.75C124.044 23.7058 123.825 24.7203 123.78 25.75L120.34 26.84L121.34 31.16L124.97 30.64C125.469 31.5113 126.108 32.295 126.86 32.96L125.52 36.44L129.52 38.36L131.42 35.13C131.909 35.214 132.404 35.2575 132.9 35.26C133.386 35.2557 133.87 35.2155 134.35 35.14L136.25 38.38L140.25 36.45L138.92 32.99C139.661 32.3243 140.286 31.5404 140.77 30.67ZM128.69 26.15C128.69 25.3233 128.935 24.5151 129.394 23.8277C129.854 23.1403 130.507 22.6046 131.27 22.2882C132.034 21.9718 132.875 21.889 133.685 22.0503C134.496 22.2116 135.241 22.6097 135.826 23.1943C136.41 23.7789 136.808 24.5237 136.97 25.3345C137.131 26.1454 137.048 26.9858 136.732 27.7496C136.415 28.5134 135.88 29.1662 135.192 29.6255C134.505 30.0848 133.697 30.33 132.87 30.33C132.321 30.33 131.778 30.2219 131.27 30.0118C130.763 29.8017 130.302 29.4939 129.914 29.1057C129.526 28.7176 129.218 28.2568 129.008 27.7496C128.798 27.2425 128.69 26.6989 128.69 26.15Z" fill="#FFAB03"/>
<path d="M266.21 388.21C265.62 386.45 238.73 372.8 228.55 367.68H257.61C256.73 367.984 255.965 368.553 255.422 369.31C254.879 370.067 254.585 370.973 254.579 371.904C254.573 372.836 254.856 373.746 255.389 374.509C255.922 375.273 256.679 375.852 257.555 376.168C258.432 376.483 259.384 376.518 260.282 376.269C261.179 376.02 261.977 375.499 262.566 374.777C263.154 374.056 263.505 373.169 263.568 372.24C263.631 371.311 263.405 370.385 262.92 369.59C263.313 369.721 263.734 369.747 264.141 369.667C264.548 369.586 264.926 369.401 265.24 369.13C266.24 368.41 266.45 364.79 263.8 363.13C261.49 361.66 225.54 360.92 216.09 360.75V329.5H223.48V296.66H197.89V329.5H205.28V360.74C192.93 360.98 162.58 361.74 160.46 363.06C157.81 364.75 158.05 368.37 159.02 369.06C159.517 369.469 160.147 369.679 160.79 369.65C160.402 370.315 160.195 371.07 160.19 371.84C160.188 372.665 160.412 373.475 160.84 374.182C161.267 374.888 161.881 375.463 162.613 375.844C163.345 376.225 164.168 376.398 164.992 376.342C165.816 376.287 166.608 376.006 167.283 375.53C167.958 375.055 168.488 374.402 168.817 373.645C169.146 372.888 169.261 372.055 169.148 371.237C169.035 370.419 168.699 369.648 168.178 369.009C167.656 368.369 166.968 367.885 166.19 367.61H195.75C185.56 372.73 158.68 386.38 158.09 388.14C157.712 389.654 157.785 391.246 158.3 392.72C158.164 393.232 158.093 393.76 158.09 394.29C158.087 395.366 158.365 396.425 158.899 397.361C159.432 398.296 160.201 399.075 161.13 399.621C162.058 400.166 163.113 400.458 164.19 400.469C165.266 400.48 166.327 400.208 167.266 399.681C168.205 399.153 168.989 398.389 169.54 397.465C170.092 396.54 170.391 395.487 170.409 394.41C170.427 393.334 170.162 392.271 169.641 391.329C169.12 390.387 168.361 389.597 167.44 389.04C178.05 384.41 210.54 372.89 212.17 372.68C213.77 372.88 245.22 384.03 256.35 388.8C255.373 389.291 254.545 390.034 253.951 390.952C253.356 391.869 253.017 392.928 252.967 394.021C252.917 395.113 253.159 396.199 253.667 397.167C254.176 398.134 254.933 398.95 255.86 399.528C256.788 400.107 257.853 400.428 258.946 400.459C260.039 400.49 261.12 400.23 262.079 399.704C263.038 399.179 263.84 398.408 264.402 397.471C264.965 396.533 265.268 395.463 265.28 394.37C266.37 392.512 266.703 390.306 266.21 388.21ZM260.75 367.68H260.62H260.71H260.75Z" fill="#263238" stroke="#263238" strokeLinejoin="round"/>
<path d="M171.19 198.9C168.632 201.39 165.484 203.19 162.04 204.13C148.52 207.55 138.95 199.34 132.41 216.77C125.87 234.2 138.08 269.05 153.33 280.38C168.58 291.71 192.98 299.55 224.33 286.92C255.68 274.29 284.89 239.86 287.94 205C290.99 170.14 207.59 174.75 198.94 178.77C190.29 182.79 171.19 198.9 171.19 198.9Z" fill="#E5E7EB" stroke="#263238" strokeLinejoin="round"/>
<path d="M205.22 139.85C205.22 139.85 200.4 142.39 199.13 145.94C197.86 149.49 182.37 177.21 182.37 177.21C182.37 177.21 180.85 151.06 178.56 136.08C176.27 121.1 173.75 103.79 170.18 96.2097C166.61 88.6297 157.99 82.4997 154.44 81.2097C150.89 79.9197 150.63 82.2097 153.44 83.9997C156.25 85.7897 160.55 91.8697 160.55 91.8697L162.84 96.4397C162.84 96.4397 155.22 105.83 155.22 110.66C155.22 115.49 165.12 121.07 165.12 121.07C165.12 121.07 156.74 177.69 159.03 188.07C161.32 198.45 167.15 208.89 171.22 209.91C175.29 210.93 195.34 196.7 195.34 196.7C195.34 196.7 207.75 157.88 208.75 150.51C209.75 143.14 209.54 138.32 205.22 139.85Z" fill="#EBB376" stroke="#263238" strokeLinejoin="round"/>
<path d="M205.22 139.85C205.22 139.85 200.4 142.39 199.13 145.94C197.86 149.49 182.37 177.21 182.37 177.21C182.37 177.21 182.06 171.84 181.5 164.58C173.18 170.42 164.5 168.58 159.5 166.72C158.63 176.4 158.24 184.72 158.99 188.13C161.27 198.54 167.11 208.95 171.18 209.97C175.25 210.99 195.3 196.76 195.3 196.76C195.3 196.76 207.75 157.88 208.75 150.51C209.75 143.14 209.54 138.32 205.22 139.85Z" fill="#03E5E5" stroke="#263238" strokeLinejoin="round"/>
<path d="M182.37 177.21C182.37 177.21 182.88 184.83 183.13 190.16" stroke="#263238" strokeLinejoin="round"/>
<path d="M153.44 100.08C153.44 100.08 149.25 103.58 149.59 105.97C149.93 108.36 157.11 115.19 159.33 114.51C161.55 113.83 162.57 113.65 160.33 110.67C158.09 107.69 155.04 104.01 154.53 102.67C154.02 101.33 153.44 100.08 153.44 100.08Z" fill="#EBB376" stroke="#263238" strokeLinejoin="round"/>
<path d="M162.82 96.4297C162.82 96.4297 156 96.7497 154.63 98.0297C153.26 99.3097 153.01 102.39 155.83 106.23C158.65 110.07 160.61 112.54 161.72 111.35C162.83 110.16 162.57 108.53 161.55 106.82C160.696 105.299 159.925 103.733 159.24 102.13L162.74 98.0297L162.82 96.4297Z" fill="#EBB376" stroke="#263238" strokeLinejoin="round"/>
<path d="M149.59 105.97C149.59 105.97 147.03 110.24 148.83 112.72C150.63 115.2 156.42 118.52 158.39 117.58C160.36 116.64 159.33 114.51 159.33 114.51C157.6 113.662 155.967 112.629 154.46 111.43C152.648 109.787 151.015 107.957 149.59 105.97Z" fill="#EBB376" stroke="#263238" strokeLinejoin="round"/>
<path d="M171.96 101.21C171.96 101.21 166.07 95.7696 162.82 96.3896C161.36 96.6696 155.96 101.21 154.95 103.25C153.94 105.29 155.45 106.04 156.95 105.53C158.45 105.02 164.82 102.74 164.82 102.74C164.82 102.74 162.82 111.12 164.82 113.4C166.82 115.68 173.2 115.69 173.2 115.69" fill="#EBB376"/>
<path d="M171.96 101.21C171.96 101.21 166.07 95.7696 162.82 96.3896C161.36 96.6696 155.96 101.21 154.95 103.25C153.94 105.29 155.45 106.04 156.95 105.53C158.45 105.02 164.82 102.74 164.82 102.74C164.82 102.74 162.82 111.12 164.82 113.4C166.82 115.68 173.2 115.69 173.2 115.69" stroke="#263238" strokeLinejoin="round"/>
<path d="M240.26 136.04C240.26 136.04 207.76 137.82 205.26 139.85C202.76 141.88 200.94 147.47 200.69 148.99C200.44 150.51 191.04 195.71 189.26 203.58C187.48 211.45 171 231.01 171 231.01C171 231.01 200.64 247.11 214.68 254.28C223.862 258.877 233.692 262.046 243.83 263.68L276.83 193.93C276.83 193.93 292.57 155.08 293.08 151.27C293.59 147.46 292.57 148.99 282.42 144.16C275.892 141.042 268.973 138.822 261.85 137.56C259.3 137.06 240.26 136.04 240.26 136.04Z" fill="#03E5E5" stroke="#263238" strokeLinejoin="round"/>
<path d="M62.05 297.37L41.31 296.72C41.31 296.72 15.75 283.44 13.45 284.41C11.15 285.38 16.37 300.94 23.17 309.68C29.97 318.42 48.75 330.42 52.33 332.36C55.91 334.3 57.84 335.6 61.07 333.36C64.3 331.12 72.07 315.87 72.07 315.87L62.05 297.37Z" fill="#03E5E5" stroke="#263238" strokeLinejoin="round"/>
<path d="M27.75 306.77C21.5 299.19 17.26 289.77 15.21 284.63C14.6647 284.411 14.0727 284.335 13.49 284.41C11.22 285.41 16.41 300.94 23.21 309.68C30.01 318.42 48.75 330.42 52.33 332.36C55.91 334.3 57.84 335.6 61.07 333.36C61.9607 332.616 62.7388 331.747 63.38 330.78C56.09 327.01 35.15 315.8 27.75 306.77Z" fill="#E5E7EB" stroke="#263238" strokeLinejoin="round"/>
<path d="M128.75 367.35C128.75 367.35 121.3 381.28 117.75 386.46C114.2 391.64 100.9 398.46 101.23 401.37C101.56 404.28 117.75 405.21 126.52 404.61C135.29 404.01 143.04 393.27 147.52 390.68C152 388.09 155.3 387.11 152.71 380.96C150.12 374.81 146.88 368.65 146.88 368.65L128.75 367.35Z" fill="#03E5E5" stroke="#263238" strokeLinejoin="round"/>
<path d="M127.49 400.72C121.15 402.72 109.28 400.52 102.7 398.99C101.7 399.93 101.18 400.74 101.25 401.37C101.57 404.28 117.77 405.25 126.52 404.61C135.27 403.97 143.04 393.27 147.52 390.68C152 388.09 155.3 387.11 152.71 380.96C136.24 386.79 136.56 397.8 127.49 400.72Z" fill="#E5E7EB" stroke="#263238" strokeLinejoin="round"/>
<path d="M103.19 265.3L127.81 355.36L124.25 358.28L128.14 371.28C131.501 372.552 134.968 373.526 138.5 374.19C145.95 375.81 150.17 374.84 150.17 374.84C150.17 374.84 150.49 365.77 149.52 362.84C148.55 359.91 146.93 354.74 146.93 354.74L142.39 276.02C142.39 276.02 183.53 291.57 199.73 290.6C215.93 289.63 188.07 258.2 169.6 242.98C151.13 227.76 110.6 219.33 104.16 235.52C100.291 245.012 99.9467 255.576 103.19 265.3Z" fill="#858585" stroke="#263238" strokeLinejoin="round"/>
<path d="M169.6 242.95C165.667 239.797 161.369 237.128 156.8 235L135.21 227.92C128.49 226.65 122.02 226.33 116.68 227.24L130.68 241L142.34 276C142.34 276 183.48 291.55 199.68 290.58C215.88 289.61 188.07 258.21 169.6 242.95Z" fill="#263238" stroke="#263238" strokeLinejoin="round"/>
<path d="M245.09 260.12C245.09 260.12 239.91 273.07 232.45 282.12C224.99 291.17 203.94 293.78 195.2 290.54C186.46 287.3 162.48 267.54 148.87 255.87C135.26 244.2 130.75 241 130.75 241L83.7499 306.44C83.7499 306.44 81.1599 309.04 81.4799 311.63C81.7999 314.22 68.4799 322.32 68.4799 322.32C68.4799 322.32 62.3199 317.13 60.3799 313.25C58.4399 309.37 56.4899 306.12 57.1399 303.53C57.7899 300.94 56.4899 298.99 57.7899 295.43C59.0899 291.87 64.5899 290.25 64.5899 290.25C64.5899 290.25 105.73 214.44 110.59 206.99C115.45 199.54 118.37 197.59 121.93 198.24C125.49 198.89 173.12 222.86 180.93 227.4C188.74 231.94 245.09 260.12 245.09 260.12Z" fill="#858585" stroke="#263238" strokeLinejoin="round"/>
<path d="M192.36 270.93C194.495 272.567 196.711 274.095 199 275.51" stroke="#263238" strokeLinejoin="round"/>
<path d="M140.09 231.07C153.09 240.86 175.51 258.36 188.8 268.29" stroke="#263238" strokeLinejoin="round"/>
<path d="M120.53 240.4C120.53 240.4 121.83 229.12 123.53 229.56C125.23 230 129.17 235.19 129.17 232.56C129.17 229.93 128.3 223.89 130.04 223.89C130.39 223.89 133.17 225.89 137.43 229.06" stroke="#263238" strokeLinejoin="round"/>
<path d="M238.608 125.89C238.608 125.89 233.778 146.96 231.748 152.29C229.718 157.62 224.128 165.75 228.198 166.77C232.268 167.79 262.198 142.14 264.248 137.57C266.298 133 269.248 123.21 269.248 123.21C269.248 123.21 249.258 130.46 238.608 125.89Z" fill="#EBB376" stroke="#263238" strokeLinejoin="round"/>
<path d="M240.36 64.0998C240.36 64.0998 232.36 66.4098 235.75 70.8398C239.14 75.2698 244.97 74.9098 244.97 74.9098C244.97 74.9098 240.89 71.1898 252.06 71.1898C263.23 71.1898 269.77 72.9598 269.6 78.9898C269.43 85.0198 266.94 87.9898 269.77 92.0998C272.6 96.2098 276.33 106.63 276.33 106.63L285.01 108.63C285.01 108.63 294.01 98.3498 295.82 86.4798C297.63 74.6098 299.19 68.4098 280.58 58.3098C261.97 48.2098 238.58 47.3098 236.64 54.0498C236.081 55.9015 236.142 57.8851 236.813 59.6992C237.485 61.5132 238.73 63.0583 240.36 64.0998Z" fill="#263238" stroke="#263238" strokeLinejoin="round"/>
<path d="M247.8 64.2798C247.8 64.2798 240.54 70.1298 240.36 72.7898C240.18 75.4498 231.86 99.8898 230.79 106.79C229.72 113.69 231.68 125.79 235.05 129.65C238.42 133.51 246.05 134.43 254.89 132.13C263.73 129.83 268.36 126.28 269.42 123.45C270.48 120.62 277.92 103.45 277.92 103.45C277.92 103.45 272.79 91.4498 271.37 88.0298C269.95 84.6098 274.73 79.0298 274.91 77.5798C275.09 76.1298 266.41 70.3198 263.91 68.8998C261.41 67.4798 258.06 68.7198 255.58 68.0098C252.894 66.9699 250.293 65.7228 247.8 64.2798Z" fill="#EBB376" stroke="#263238" strokeLinejoin="round"/>
<path d="M269.42 123.46C270.48 120.62 277.92 103.46 277.92 103.46C277.92 103.46 276.39 99.8496 274.76 96.0396C272.52 101.36 265.49 118.04 265.34 118.52C265.19 119 264.64 116.21 255.95 112.32C247.26 108.43 245.85 106.12 240.01 107.71C236.762 108.548 233.613 109.735 230.62 111.25L230.51 111.6C230.59 118.33 232.37 126.6 235.05 129.68C238.41 133.58 246.05 134.46 254.89 132.16C263.73 129.86 268.36 126.29 269.42 123.46Z" fill="#263238" stroke="#263238" strokeLinejoin="round"/>
<path d="M276.33 106.63C276.33 106.63 280.05 102.91 284.13 104.5C288.21 106.09 284.66 111.94 282.35 114.25C280.04 116.56 272.08 116.21 272.08 116.21L276.33 106.63Z" fill="#EBB376" stroke="#263238" strokeLinejoin="round"/>
<path d="M239.48 81.2898C239.48 81.2898 241.78 77.2198 247.48 81.2898" stroke="#263238" strokeLinejoin="round"/>
<path d="M255.24 82.7097C255.24 82.7097 260.24 79.7097 264.99 85.8997" stroke="#263238" strokeLinejoin="round"/>
<path d="M248.16 82.71C248.628 84.3887 248.923 86.1111 249.04 87.85C249.04 89.85 240.18 107.85 241.04 108.4C241.9 108.95 248.13 105.03 248.66 105.03" fill="#EBB376"/>
<path d="M248.16 82.71C248.628 84.3887 248.923 86.1111 249.04 87.85C249.04 89.85 240.18 107.85 241.04 108.4C241.9 108.95 248.13 105.03 248.66 105.03" stroke="#263238" strokeLinejoin="round"/>
<path d="M259.43 90.0497C259.03 91.2997 258.11 92.1297 257.36 91.8997C256.61 91.6697 256.36 90.4497 256.73 89.1897C257.1 87.9297 258.05 87.0997 258.8 87.3397C259.55 87.5797 259.83 88.7897 259.43 90.0497Z" fill="#263238"/>
<path d="M243.49 86.4997C243.09 87.7597 242.16 88.5897 241.41 88.3497C240.66 88.1097 240.41 86.9097 240.78 85.6497C241.15 84.3897 242.11 83.5597 242.85 83.7897C243.59 84.0197 243.88 85.2097 243.49 86.4997Z" fill="#263238"/>
<path d="M255.6 93.5195C255.6 93.5195 255.42 95.9995 260.21 97.4095" stroke="#263238" strokeLinejoin="round"/>
<path d="M245.5 89.2598C243.566 90.31 241.471 91.0299 239.3 91.3898" stroke="#263238" strokeLinejoin="round"/>
<path d="M238.41 111.41C238.41 111.41 243.91 115.66 252.59 113.18" stroke="#E5E7EB" strokeLinejoin="round"/>
<path d="M279.11 223.83C279.11 223.83 248.33 226.42 239.58 241C230.83 255.58 221.75 279.88 212.37 287.65C202.99 295.42 167.66 286.03 161.83 283.12C157.617 281.103 153.274 279.369 148.83 277.93C148.83 277.93 155.63 288.63 177.34 295.75C199.05 302.87 231.77 306.12 266.11 292.84C300.45 279.56 310.17 254.28 314.38 235.17C318.59 216.06 314.38 190.17 308.22 173.94C302.06 157.71 292.35 147.7 289.11 148.02C285.87 148.34 286.19 185.28 288.11 199.21C290.03 213.14 279.11 223.83 279.11 223.83Z" fill="#E5E7EB" stroke="#263238" strokeLinejoin="round"/>
<path d="M218.05 189.93C219.36 191.451 220.847 192.811 222.48 193.98C224.98 195.71 225.94 202.06 226.71 202.98C227.48 203.9 228.44 207.79 228.44 207.79C228.44 207.79 221.7 202.98 219.97 201.05C218.24 199.12 218.05 189.93 218.05 189.93Z" fill="#EBB376" stroke="#263238" strokeLinejoin="round"/>
<path d="M199.86 181.92L209.24 215.69C209.341 216.051 209.539 216.378 209.812 216.636C210.085 216.893 210.423 217.071 210.79 217.15L223.66 219.86C224.004 219.948 224.365 219.943 224.706 219.846C225.048 219.748 225.357 219.561 225.602 219.305C225.847 219.048 226.02 218.731 226.102 218.386C226.185 218.04 226.173 217.679 226.07 217.34L217.22 183.34C217.128 182.96 216.926 182.615 216.64 182.349C216.354 182.082 215.996 181.905 215.61 181.84L202.2 179.39C201.86 179.316 201.506 179.332 201.174 179.437C200.842 179.541 200.543 179.731 200.307 179.986C200.071 180.242 199.905 180.555 199.827 180.894C199.748 181.233 199.76 181.587 199.86 181.92Z" fill="#263238" stroke="#263238" strokeLinejoin="round"/>
<path d="M282.352 144C282.352 144 290.772 147 292.502 148.57C294.232 150.14 295.582 155.89 298.662 165.9C301.742 175.91 306.552 217.5 306.752 220.39C306.952 223.28 294.422 226.39 284.412 228.09C274.402 229.79 236.862 226.36 236.862 226.36C236.862 226.36 229.152 225.2 223.572 224.62C217.992 224.04 209.712 220 207.972 219.62C206.232 219.24 207.402 216.54 207.402 216.54C206.472 216.874 205.498 217.066 204.512 217.11C203.162 217.11 203.162 215.38 203.162 215.38C203.162 215.38 204.702 211.72 205.472 211.38C206.242 211.04 217.602 210.8 217.602 210.8L207.602 206.37C207.602 206.37 202.402 207.37 201.252 206.95C200.102 206.53 200.482 204.64 201.252 204.06C202.022 203.48 207.982 202.14 209.142 202.52C210.302 202.9 218.192 204.83 218.192 204.83L217.032 202.52L207.792 197.52C207.792 197.52 204.132 197.32 202.982 197.32C201.832 197.32 199.512 196.55 200.092 194.63C200.672 192.71 206.642 192.89 208.562 193.28C210.482 193.67 222.042 197.71 223.972 199.83C225.902 201.95 232.052 214.46 232.052 214.46C232.052 214.46 243.602 216.77 258.052 212.15C272.502 207.53 277.892 205.79 277.892 205.79L271.892 176.34" fill="#03E5E5"/>
<path d="M282.352 144C282.352 144 290.772 147 292.502 148.57C294.232 150.14 295.582 155.89 298.662 165.9C301.742 175.91 306.552 217.5 306.752 220.39C306.952 223.28 294.422 226.39 284.412 228.09C274.402 229.79 236.862 226.36 236.862 226.36C236.862 226.36 229.152 225.2 223.572 224.62C217.992 224.04 209.712 220 207.972 219.62C206.232 219.24 207.402 216.54 207.402 216.54C206.472 216.874 205.498 217.066 204.512 217.11C203.162 217.11 203.162 215.38 203.162 215.38C203.162 215.38 204.702 211.72 205.472 211.38C206.242 211.04 217.602 210.8 217.602 210.8L207.602 206.37C207.602 206.37 202.402 207.37 201.252 206.95C200.102 206.53 200.482 204.64 201.252 204.06C202.022 203.48 207.982 202.14 209.142 202.52C210.302 202.9 218.192 204.83 218.192 204.83L217.032 202.52L207.792 197.52C207.792 197.52 204.132 197.32 202.982 197.32C201.832 197.32 199.512 196.55 200.092 194.63C200.672 192.71 206.642 192.89 208.562 193.28C210.482 193.67 222.042 197.71 223.972 199.83C225.902 201.95 232.052 214.46 232.052 214.46C232.052 214.46 243.602 216.77 258.052 212.15C272.502 207.53 277.892 205.79 277.892 205.79L271.892 176.34" stroke="#263238" strokeLinejoin="round"/>
<path d="M232.1 214.58C232.1 214.58 225.94 202.06 224.02 199.95C222.1 197.84 210.54 193.79 208.61 193.4C206.68 193.01 200.72 192.82 200.14 194.75C199.56 196.68 201.87 197.44 203.03 197.44C204.19 197.44 207.84 197.64 207.84 197.64L217.08 202.64L218.24 204.95C218.24 204.95 210.35 203.03 209.19 202.64C208.03 202.25 202.07 203.64 201.3 204.18C200.53 204.72 200.14 206.69 201.3 207.07C202.46 207.45 207.65 206.49 207.65 206.49L217.65 210.92C217.65 210.92 206.29 211.11 205.52 211.5C204.75 211.89 203.21 215.5 203.21 215.5C203.21 215.5 203.21 217.23 204.56 217.23C205.546 217.185 206.521 216.993 207.45 216.66C207.45 216.66 206.29 219.35 208.02 219.74C209.75 220.13 218.02 224.17 223.62 224.74C229.22 225.31 236.91 226.48 236.91 226.48C236.91 226.48 251.77 227.85 265.29 228.43C267.16 219.5 266.2 213.68 264.75 210.09L258.08 212.23C243.65 216.89 232.1 214.58 232.1 214.58Z" fill="#EBB376" stroke="#263238" strokeLinejoin="round"/>
<path d="M207.46 216.7C208.719 216.237 210.005 215.849 211.31 215.54C212.46 215.35 219.97 217.27 219.97 217.27" stroke="#263238" strokeLinejoin="round"/>
<path d="M7.66666 207.417V226.583C7.66666 230.818 14.5316 234.25 23 234.25C31.4684 234.25 38.3333 230.818 38.3333 226.583V207.417M7.66666 207.417C7.66666 211.651 14.5316 215.083 23 215.083C31.4684 215.083 38.3333 211.651 38.3333 207.417M7.66666 207.417C7.66666 203.182 14.5316 199.75 23 199.75C31.4684 199.75 38.3333 203.182 38.3333 207.417M38.3333 217C38.3333 221.234 31.4684 224.667 23 224.667C14.5316 224.667 7.66666 221.234 7.66666 217" stroke="#FFAB03" strokeWidth="2"/>
<path d="M207.25 18.75L203.5 20.625M203.5 20.625L199.75 18.75M203.5 20.625V25.3125M218.5 13.125L214.75 15M218.5 13.125L214.75 11.25M218.5 13.125V17.8125M207.25 7.5L203.5 5.625L199.75 7.5M188.5 13.125L192.25 11.25M188.5 13.125L192.25 15M188.5 13.125V17.8125M203.5 39.375L199.75 37.5M203.5 39.375L207.25 37.5M203.5 39.375V34.6875M192.25 33.75L188.5 31.875V27.1875M214.75 33.75L218.5 31.875V27.1875" stroke="#FFAB03" strokeWidth="2" strokeLinecap="round" strokeLinejoin="round"/>
<path d="M363.167 86.6667H385.333M363.167 86.6667C361.418 86.6667 360 85.2489 360 83.5V77.1667C360 75.4178 361.418 74 363.167 74H385.333C387.082 74 388.5 75.4178 388.5 77.1667V83.5C388.5 85.2489 387.082 86.6667 385.333 86.6667M363.167 86.6667C361.418 86.6667 360 88.0844 360 89.8333V96.1667C360 97.9156 361.418 99.3333 363.167 99.3333H385.333C387.082 99.3333 388.5 97.9156 388.5 96.1667V89.8333C388.5 88.0844 387.082 86.6667 385.333 86.6667M382.167 80.3333H382.182M382.167 93H382.182" stroke="#E5E7EB" strokeWidth="2" strokeLinecap="round" strokeLinejoin="round"/>
<path d="M372.65 168.8C368.204 168.8 364.6 165.196 364.6 160.75C364.6 156.591 367.754 153.168 371.801 152.744C371.605 151.996 371.5 151.21 371.5 150.4C371.5 145.319 375.619 141.2 380.7 141.2C385.021 141.2 388.647 144.18 389.634 148.196C390.097 148.133 390.57 148.1 391.05 148.1C396.766 148.1 401.4 152.734 401.4 158.45C401.4 164.166 396.766 168.8 391.05 168.8H372.65Z" fill="#FFAB03"/>
<path d="M366.625 230.875V234.792M378.375 230.875V234.792M366.625 262.208V266.125M378.375 262.208V266.125M358.792 242.625H354.875M358.792 254.375H354.875M390.125 242.625H386.208M390.125 254.375H386.208M362.708 262.208H382.292C384.455 262.208 386.208 260.455 386.208 258.292V238.708C386.208 236.545 384.455 234.792 382.292 234.792H362.708C360.545 234.792 358.792 236.545 358.792 238.708V258.292C358.792 260.455 360.545 262.208 362.708 262.208ZM366.625 242.625H378.375V254.375H366.625V242.625Z" stroke="#03E5E5" strokeWidth="2" strokeLinecap="round" strokeLinejoin="round"/>
<path d="M51.125 105.708V96.9583C51.125 95.3475 49.8192 94.0417 48.2083 94.0417H45.2917C43.6808 94.0417 42.375 95.3475 42.375 96.9583V105.708C42.375 107.319 43.6808 108.625 45.2917 108.625H48.2083C49.8192 108.625 51.125 107.319 51.125 105.708ZM51.125 105.708V91.125C51.125 89.5142 52.4308 88.2083 54.0417 88.2083H56.9583C58.5692 88.2083 59.875 89.5142 59.875 91.125V105.708M51.125 105.708C51.125 107.319 52.4308 108.625 54.0417 108.625H56.9583C58.5692 108.625 59.875 107.319 59.875 105.708M59.875 105.708V85.2917C59.875 83.6808 61.1808 82.375 62.7917 82.375H65.7083C67.3192 82.375 68.625 83.6808 68.625 85.2917V105.708C68.625 107.319 67.3192 108.625 65.7083 108.625H62.7917C61.1808 108.625 59.875 107.319 59.875 105.708Z" stroke="#FFAB03" strokeWidth="2" strokeLinecap="round" strokeLinejoin="round"/>
<path fill-rule="evenodd" clip-rule="evenodd" d="M309.466 23.9984C314.279 23.9331 318.664 22.0967 322 19.1113C325.336 22.0967 329.721 23.9331 334.534 23.9984C334.709 25.0397 334.8 26.1093 334.8 27.2002C334.8 35.56 329.457 42.6719 322 45.3077C314.543 42.6719 309.2 35.56 309.2 27.2002C309.2 26.1093 309.291 25.0397 309.466 23.9984ZM327.931 29.9316C328.556 29.3067 328.556 28.2937 327.931 27.6688C327.307 27.044 326.293 27.044 325.669 27.6688L320.4 32.9375L318.331 30.8688C317.707 30.244 316.693 30.244 316.069 30.8688C315.444 31.4937 315.444 32.5067 316.069 33.1316L319.269 36.3316C319.893 36.9564 320.907 36.9564 321.531 36.3316L327.931 29.9316Z" fill="#03E5E5"/>
<path d="M20.4 140.25C19.2678 140.25 18.35 141.168 18.35 142.3C18.35 143.432 19.2678 144.35 20.4 144.35L31.8509 144.35L29.2004 147.001C28.3998 147.801 28.3998 149.099 29.2004 149.9C30.001 150.7 31.299 150.7 32.0996 149.9L38.2496 143.75C38.634 143.365 38.85 142.844 38.85 142.3C38.85 141.756 38.634 141.235 38.2496 140.851L32.0996 134.701C31.299 133.9 30.001 133.9 29.2004 134.701C28.3999 135.501 28.3999 136.799 29.2004 137.6L31.8509 140.25L20.4 140.25Z" fill="#E5E7EB"/>
<path d="M28.6 160.75C29.7322 160.75 30.65 159.832 30.65 158.7C30.65 157.568 29.7322 156.65 28.6 156.65L17.1491 156.65L19.7996 154C20.6001 153.199 20.6001 151.901 19.7996 151.101C18.999 150.3 17.701 150.3 16.9004 151.101L10.7504 157.251C10.366 157.635 10.15 158.156 10.15 158.7C10.15 159.244 10.366 159.765 10.7504 160.15L16.9004 166.3C17.701 167.1 18.999 167.1 19.7996 166.3C20.6001 165.499 20.6001 164.201 19.7996 163.401L17.1491 160.75L28.6 160.75Z" fill="#E5E7EB"/>
</svg>
