<svg width="473" height="458" viewBox="0 0 473 458" fill="none" xmlns="http://www.w3.org/2000/svg">
<path d="M178 120.33C182.797 115.967 188.159 112.267 193.94 109.33L194.11 91.3303L223.17 85.0303L230.77 101.33C237.256 101.623 243.673 102.784 249.85 104.78L262.68 92.1903L287.68 108.29L281.53 125.18C285.893 129.978 289.593 135.339 292.53 141.12L310.53 141.29L316.83 170.35L300.54 177.95C300.235 184.427 299.064 190.834 297.06 197L309.64 209.83L293.55 234.83L276.66 228.68C271.858 233.038 266.498 236.737 260.72 239.68L260.55 257.68L231.48 264L223.89 247.71C217.405 247.413 210.989 246.253 204.81 244.26L192 256.85L167 240.75L173.15 223.87C168.792 219.069 165.093 213.709 162.15 207.93L144.15 207.76L137.85 178.69L154.15 171.09C154.425 164.604 155.569 158.183 157.55 152L145 139.19L161.1 114.19L178 120.33ZM194.23 153.19C190.013 159.741 187.833 167.395 187.966 175.185C188.099 182.974 190.539 190.549 194.978 196.952C199.416 203.355 205.653 208.298 212.901 211.156C220.148 214.014 228.081 214.658 235.695 213.008C243.308 211.358 250.262 207.487 255.676 201.884C261.09 196.282 264.721 189.2 266.109 181.534C267.498 173.868 266.583 165.963 263.479 158.817C260.374 151.672 255.221 145.607 248.67 141.39C244.319 138.583 239.457 136.661 234.362 135.735C229.267 134.808 224.039 134.896 218.978 135.992C213.917 137.087 209.122 139.171 204.867 142.122C200.612 145.073 196.98 148.834 194.18 153.19H194.23Z" fill="#E0E0E0"/>
<path d="M194.18 153.19L194.53 152.66C194.79 152.3 195.14 151.78 195.61 151.12L196.4 149.99C196.72 149.58 197.1 149.18 197.49 148.72L198.77 147.25C199.273 146.706 199.804 146.189 200.36 145.7C203.116 143.055 206.263 140.849 209.69 139.16C214.22 136.885 219.147 135.506 224.2 135.1L226.33 134.95C227.05 134.95 227.77 134.95 228.51 134.95C229.25 134.95 229.99 134.95 230.74 135.05L233 135.32L234.15 135.47L235.29 135.72L237.6 136.24C238.38 136.44 239.13 136.73 239.91 136.97C240.697 137.203 241.468 137.483 242.22 137.81C243.78 138.439 245.294 139.178 246.75 140.02C247.48 140.45 248.25 140.85 248.97 141.33L251.11 142.85C251.46 143.12 251.84 143.35 252.18 143.64L253.18 144.52C253.84 145.12 254.54 145.69 255.18 146.33C256.475 147.631 257.681 149.018 258.79 150.48C259.936 151.979 260.982 153.553 261.92 155.19C262.37 156.02 262.76 156.9 263.2 157.76C263.4 158.2 263.64 158.62 263.81 159.08L264.32 160.44C265.019 162.283 265.594 164.17 266.04 166.09C266.434 168.071 266.694 170.075 266.82 172.09L266.93 173.61V175.14V176.67C266.929 177.185 266.892 177.7 266.82 178.21C266.69 179.21 266.56 180.21 266.44 181.29L265.75 184.34C263.645 192.628 258.89 200.002 252.21 205.34L249.71 207.23L247 208.89L246.34 209.29L245.64 209.63L244.26 210.3L242.88 210.97L241.46 211.5C239.581 212.212 237.657 212.797 235.7 213.25C233.769 213.637 231.815 213.898 229.85 214.03L228.39 214.13C227.91 214.13 227.39 214.13 226.94 214.13C225.94 214.13 225.02 214.13 224.07 214.03C222.196 213.858 220.335 213.561 218.5 213.14C216.708 212.73 214.945 212.206 213.22 211.57C212.37 211.24 211.56 210.84 210.74 210.48L209.52 209.94C209.12 209.75 208.75 209.5 208.36 209.29L206.1 208C205.36 207.54 204.69 207 203.99 206.51C202.62 205.536 201.32 204.466 200.1 203.31C199.492 202.759 198.917 202.171 198.38 201.55C197.84 200.94 197.26 200.38 196.76 199.75L195.33 197.86L194.63 196.93L194.02 195.93C193.62 195.28 193.23 194.63 192.83 193.99C192.43 193.35 192.16 192.65 191.83 191.99C191.5 191.33 191.18 190.68 190.89 189.99C190.6 189.3 190.4 188.65 190.15 187.99C188.428 183.222 187.644 178.166 187.84 173.1C187.962 169.282 188.667 165.505 189.93 161.9C190.2 161.17 190.37 160.44 190.68 159.81L191.49 158.04C191.75 157.49 191.96 156.98 192.2 156.53C192.44 156.08 192.69 155.69 192.9 155.33L193.9 153.72C194.12 153.36 194.24 153.18 194.24 153.18C194.24 153.18 194.15 153.38 193.95 153.75C193.75 154.12 193.43 154.68 193.04 155.39L192.36 156.59C192.13 157.04 191.93 157.59 191.68 158.11L190.9 159.88C190.622 160.564 190.378 161.262 190.17 161.97C188.948 165.562 188.273 169.317 188.17 173.11C188.004 178.134 188.809 183.142 190.54 187.86L191.28 189.86C191.57 190.51 191.9 191.15 192.22 191.86C192.54 192.57 192.82 193.2 193.22 193.86C193.62 194.52 194 195.14 194.4 195.78L195 196.78L195.7 197.7C196.17 198.32 196.7 198.94 197.12 199.57C197.54 200.2 198.19 200.74 198.73 201.34C199.261 201.951 199.829 202.529 200.43 203.07C201.642 204.211 202.932 205.267 204.29 206.23C204.98 206.72 205.65 207.23 206.38 207.7L208.63 208.99C209.01 209.2 209.38 209.44 209.78 209.63L211 210C211.81 210.35 212.61 210.75 213.44 211.07C215.146 211.693 216.889 212.208 218.66 212.61C220.474 213.029 222.315 213.319 224.17 213.48C225.11 213.56 226.06 213.54 227.01 213.58C227.48 213.58 227.96 213.58 228.44 213.58L229.88 213.48C231.818 213.351 233.746 213.094 235.65 212.71C237.581 212.261 239.479 211.68 241.33 210.97L242.74 210.44L244.1 209.79L245.47 209.12L246.15 208.79L246.8 208.4L249.41 206.79L251.87 204.93C258.475 199.657 263.171 192.365 265.24 184.17C265.47 183.17 265.69 182.17 265.92 181.17C266.15 180.17 266.17 179.17 266.29 178.17C266.366 177.671 266.403 177.166 266.4 176.66V175.14V173.63L266.29 172.13C266.165 170.152 265.908 168.184 265.52 166.24C265.083 164.348 264.518 162.487 263.83 160.67L263.33 159.32C263.17 158.87 262.93 158.45 262.73 158.02C262.3 157.17 261.92 156.3 261.47 155.48C260.551 153.862 259.522 152.308 258.39 150.83C257.295 149.381 256.105 148.004 254.83 146.71C254.19 146.08 253.5 145.52 252.83 144.93L251.83 144.05C251.49 143.77 251.12 143.53 250.77 143.27C250.07 142.76 249.36 142.27 248.67 141.75C247.98 141.23 247.19 140.89 246.47 140.46C245.032 139.619 243.535 138.884 241.99 138.26C241.248 137.933 240.487 137.653 239.71 137.42C238.94 137.18 238.2 136.89 237.43 136.69L235.15 136.18L234.02 135.92L232.88 135.77L230.64 135.49C229.91 135.38 229.16 135.42 228.44 135.38C227.72 135.34 226.99 135.33 226.28 135.38L224.17 135.52C219.158 135.902 214.266 137.243 209.76 139.47C206.345 141.128 203.202 143.296 200.44 145.9C199.881 146.379 199.347 146.886 198.84 147.42L197.55 148.87C197.15 149.32 196.76 149.72 196.45 150.12L195.63 151.23L194.52 152.74C194.414 152.895 194.3 153.046 194.18 153.19Z" fill="#263238"/>
<path d="M178 120.33L176.92 119.95L173.7 118.8L161 114.26H161.1L145.04 139.26V139.1L157.64 151.91L157.7 151.97V152.06C155.726 158.215 154.576 164.603 154.28 171.06V171.17H154.19L137.9 178.78L138 178.57C140 187.72 142.1 197.44 144.32 207.64L144.12 207.47L162.12 207.63H162.25L162.31 207.75C165.255 213.512 168.954 218.855 173.31 223.64L173.4 223.74V223.87L167.26 240.75L167.17 240.48L192.17 256.57H191.87L204.69 243.98L204.8 243.87H204.94C211.093 245.853 217.482 247.01 223.94 247.31H224.09L224.15 247.45C226.53 252.56 229.15 258.12 231.75 263.75L231.47 263.6L260.53 257.3L260.33 257.55C260.33 251.88 260.44 245.75 260.5 239.55V239.4L260.64 239.33C266.393 236.381 271.73 232.682 276.51 228.33L276.63 228.23H276.78L293.66 234.38L293.36 234.48L309.46 209.48V209.8L296.88 196.97L296.77 196.86V196.71C298.765 190.56 299.925 184.169 300.22 177.71V177.56L300.36 177.49L316.66 169.9L316.52 170.18C314.373 160.253 312.277 150.563 310.23 141.11L310.46 141.3L292.46 141.12H292.31L292.25 140.99C289.309 135.226 285.609 129.882 281.25 125.1L281.16 125V124.87L287.31 107.99L287.4 108.24L262.4 92.1301H262.65L249.81 104.71L249.73 104.79H249.62C243.469 102.795 237.079 101.632 230.62 101.33H230.52V101.24L223 85.0801L223.17 85.1601L194.09 91.4201L194.18 91.3101C194.1 98.5101 194.04 104.4 193.98 109.31V109.36C189.63 111.575 185.51 114.214 181.68 117.24C180.42 118.24 179.51 119.03 178.9 119.55C178.29 120.07 178 120.33 178 120.33C178 120.33 179.12 119.21 181.63 117.18C185.437 114.102 189.548 111.422 193.9 109.18V109.26C193.9 104.37 193.99 98.4801 194.04 91.2601V91.1701H194.13L223.19 84.8301H223.31V84.9401C225.67 89.9401 228.16 95.3001 230.93 101.22L230.78 101.13C237.282 101.419 243.715 102.576 249.91 104.57H249.72L262.49 92.0001L262.6 91.8901L262.74 91.9701L287.74 108.06L287.89 108.15L287.83 108.32C285.83 113.8 283.83 119.41 281.69 125.2L281.64 124.97C286.032 129.786 289.762 135.167 292.73 140.97L292.52 140.84L310.52 141.01H310.71V141.2C312.763 150.647 314.867 160.333 317.02 170.26V170.46L316.84 170.54L300.55 178.14L300.69 177.92C300.398 184.429 299.234 190.87 297.23 197.07L297.17 196.81L309.76 209.64L309.9 209.78L309.79 209.96L293.69 234.96L293.58 235.13L293.39 235.06L276.5 228.91L276.77 228.86C271.953 233.245 266.572 236.968 260.77 239.93L260.91 239.7C260.85 245.87 260.79 252 260.74 257.7V257.9L260.53 257.95L231.47 264.24L231.27 264.29L231.18 264.1L223.59 247.81L223.8 247.95C217.294 247.651 210.857 246.484 204.66 244.48L204.91 244.42L192.15 257L192.01 257.13L191.85 257.03L166.85 240.92L166.69 240.82L166.75 240.64C168.9 234.77 171 228.99 172.91 223.76V223.99C168.529 219.172 164.809 213.791 161.85 207.99L162.04 208.1L144.04 207.92H143.88V207.76C141.68 197.56 139.58 187.84 137.6 178.69V178.55L137.73 178.48L154.03 170.9L153.94 171.05C154.245 164.575 155.408 158.169 157.4 152V152.15L144.83 139.31L144.75 139.24L144.81 139.15L160.95 114.15V114.09H161.01L173.56 118.71L176.78 119.9L178 120.33Z" fill="#263238"/>
<path d="M311.42 271.66L253.52 308.66H443.33V271.66H311.42Z" fill="#455A64"/>
<path d="M418.48 248.81V252.53V331.5L472.38 290.15L418.48 248.81Z" fill="#455A64"/>
<path d="M348 288.5H349.56V294H353V295.27H348V288.5Z" fill="#E5E7EB"/>
<path d="M358.34 293.81H355.2L354.6 295.25H353L356 288.5H357.55L360.55 295.25H358.91L358.34 293.81ZM357.84 292.62L356.77 290L355.7 292.58L357.84 292.62Z" fill="#E5E7EB"/>
<path d="M361.07 292.28V288.5H362.63V292.22C362.63 293.51 363.19 294.04 364.14 294.04C365.09 294.04 365.64 293.51 365.64 292.22V288.5H367.19V292.28C367.19 293.092 366.868 293.87 366.294 294.444C365.72 295.018 364.942 295.34 364.13 295.34C363.319 295.34 362.54 295.018 361.966 294.444C361.392 293.87 361.07 293.092 361.07 292.28Z" fill="#E5E7EB"/>
<path d="M374.92 288.5V295.25H373.64L370.27 291.15V295.25H368.73V288.5H370L373.35 292.6V288.5H374.92Z" fill="#E5E7EB"/>
<path d="M376.09 291.88C376.135 291.153 376.392 290.456 376.83 289.874C377.268 289.292 377.866 288.852 378.552 288.607C379.237 288.362 379.98 288.324 380.687 288.497C381.394 288.67 382.035 289.046 382.53 289.58L381.53 290.51C381.324 290.26 381.064 290.059 380.77 289.922C380.476 289.785 380.154 289.716 379.83 289.72C379.257 289.72 378.708 289.948 378.303 290.353C377.898 290.758 377.67 291.307 377.67 291.88C377.67 292.453 377.898 293.002 378.303 293.407C378.708 293.813 379.257 294.04 379.83 294.04C380.156 294.044 380.478 293.974 380.772 293.836C381.067 293.697 381.326 293.493 381.53 293.24L382.53 294.16C382.038 294.698 381.399 295.078 380.692 295.255C379.985 295.431 379.242 295.396 378.555 295.153C377.868 294.909 377.268 294.469 376.83 293.887C376.392 293.305 376.134 292.607 376.09 291.88Z" fill="#E5E7EB"/>
<path d="M389.77 288.5V295.25H388.21V292.49H385.14V295.25H383.58V288.5H385.14V291.16H388.21V288.5H389.77Z" fill="#E5E7EB"/>
<path d="M77.75 179.31C83.69 254.64 146.89 314.11 223.75 314.11V277.11C194.734 277.086 166.912 265.552 146.391 245.038C125.869 224.524 114.324 196.706 114.29 167.69C114.29 167.69 115.94 148.59 117.09 142.84L80.66 136C79.33 142.53 77.22 172.67 77.75 179.31Z" fill="#FFAB03"/>
<path d="M124.75 242.89L124.12 245.08V245.14L124.98 246.2L126.44 245.01L127.44 246.21L122.22 250.49L120.37 248.23C119.23 246.83 119.24 245.37 120.37 244.41C120.711 244.107 121.137 243.917 121.59 243.867C122.044 243.817 122.501 243.909 122.9 244.13L123.62 241.59L124.75 242.89ZM121.44 247.49L122.25 248.49L124.07 247L123.26 246C122.66 245.26 122.01 245.17 121.44 245.63C120.87 246.09 120.84 246.75 121.44 247.49Z" fill="#263238"/>
<path d="M119 237.3L120 236.55L123.1 240.75L117.68 244.75L114.68 240.65L115.68 239.9L117.78 242.76L118.96 241.89L117.1 239.37L118.1 238.65L119.96 241.17L121.21 240.24L119 237.3Z" fill="#263238"/>
<path d="M110.14 234L117.37 232.67L118.23 233.95L114.23 240.12L113.29 238.72L116.15 234.33L110.99 235.28L110.14 234Z" fill="#263238"/>
<path d="M109.78 233.41L108.95 232.08L114.68 228.51L115.51 229.83L109.78 233.41Z" fill="#263238"/>
<path d="M110.15 223.3L111.24 222.67L113.86 227.19L108 230.58L105.44 226.17L106.53 225.54L108.31 228.61L109.58 227.87L108 225.16L109.06 224.55L110.63 227.26L111.98 226.48L110.15 223.3Z" fill="#263238"/>
<path d="M100 215.75L107 214.66L107.77 216.15L104.37 219.55L109.14 218.84L109.89 220.32L104.89 225.32L104.16 223.88L107.69 220.37L102.74 221.1L102.09 219.82L105.64 216.27L100.64 217.04L100 215.75Z" fill="#263238"/>
<path d="M139.81 133.68L67.0801 113.73L90.6101 170.5L139.81 133.68Z" fill="#455A64"/>
<path d="M121.27 132.27C129 111.235 142.991 93.0737 161.359 80.2342C179.727 67.3946 201.589 60.4933 224 60.46V23.46C160.69 23.46 106.64 63.84 86.25 120.2L121.27 132.27Z" fill="#455A64"/>
<path d="M126.37 81.8399L128.9 80.1099C130.73 78.8599 132.73 79.1099 133.9 80.7999C135.07 82.4899 134.55 84.4399 132.73 85.6799L130.2 87.4099L126.37 81.8399ZM131.92 84.6699C132.17 84.5253 132.388 84.3307 132.56 84.0981C132.731 83.8656 132.853 83.6001 132.917 83.3183C132.982 83.0365 132.987 82.7445 132.933 82.4605C132.879 82.1766 132.768 81.9067 132.605 81.668C132.442 81.4292 132.231 81.2266 131.987 81.0729C131.742 80.9192 131.468 80.8177 131.182 80.7747C130.896 80.7317 130.605 80.7481 130.326 80.823C130.047 80.8979 129.786 81.0296 129.56 81.2099L128.38 82.0199L130.74 85.4699L131.92 84.6699Z" fill="#E5E7EB"/>
<path d="M140.36 78.9402L141.07 79.9402L136.75 82.8802L133 77.3502L137.21 74.4702L137.92 75.4702L134.99 77.4702L135.81 78.6802L138.35 77.0002L139.03 78.0002L136.45 79.7702L137.33 81.0602L140.36 78.9402Z" fill="#E5E7EB"/>
<path d="M144.5 72.4202C145.35 73.6702 144.95 75.0802 143.5 76.0902L142.38 76.8602L143.38 78.4002L142.1 79.2802L138.29 73.7002L140.7 72.0502C142.19 71.0002 143.65 71.1702 144.5 72.4202ZM143.2 73.3202C142.78 72.7002 142.14 72.6202 141.35 73.1502L140.35 73.8702L141.67 75.8102L142.67 75.0902C143.46 74.5502 143.61 73.9202 143.2 73.3202Z" fill="#E5E7EB"/>
<path d="M144 69.7799L145.29 68.8999L148.38 73.4199L151.17 71.5099L151.89 72.5099L147.8 75.2999L144 69.7799Z" fill="#E5E7EB"/>
<path d="M150.3 69.5902C149.846 69.0035 149.579 68.2939 149.533 67.5535C149.488 66.8131 149.666 66.0761 150.044 65.4381C150.423 64.8001 150.984 64.2906 151.656 63.9758C152.328 63.6609 153.078 63.5553 153.811 63.6724C154.543 63.7896 155.224 64.1243 155.764 64.633C156.304 65.1417 156.678 65.801 156.839 66.5252C156.999 67.2495 156.938 68.0052 156.664 68.6944C156.39 69.3836 155.914 69.9745 155.3 70.3902C154.923 70.6767 154.492 70.8838 154.033 70.9989C153.574 71.114 153.096 71.1348 152.629 71.06C152.162 70.9852 151.714 70.8164 151.314 70.5638C150.914 70.3112 150.569 69.98 150.3 69.5902ZM155.1 66.3102C154.856 65.9765 154.519 65.7219 154.131 65.578C153.744 65.4342 153.322 65.4074 152.919 65.501C152.517 65.5947 152.15 65.8046 151.866 66.1047C151.581 66.4048 151.391 66.7819 151.319 67.1891C151.248 67.5964 151.297 68.0157 151.461 68.3952C151.626 68.7746 151.898 69.0973 152.244 69.3233C152.591 69.5493 152.996 69.6685 153.409 69.6662C153.823 69.6639 154.226 69.5401 154.57 69.3102C154.812 69.157 155.02 68.9549 155.18 68.7167C155.34 68.4786 155.448 68.2097 155.498 67.9273C155.548 67.645 155.538 67.3553 155.47 67.0768C155.401 66.7983 155.275 66.5372 155.1 66.3102Z" fill="#E5E7EB"/>
<path d="M160.37 63.9101L161.71 65.9101L160.42 66.7901L159.07 64.7901L154.46 62.6801L155.83 61.7501L159 63.1901L158.8 59.6901L160.07 58.8301L160.37 63.9101Z" fill="#E5E7EB"/>
<path d="M244.88 87.5901L196.7 34.8801L258.18 0.0600586L244.88 87.5901Z" fill="#E0E0E0"/>
<path d="M311.36 95.7003C301.087 83.9419 288.418 74.5175 274.202 68.0599C259.986 61.6023 244.554 58.261 228.94 58.2603V21.2603C249.83 21.262 270.478 25.7316 289.498 34.3691C308.519 43.0067 325.472 55.6123 339.22 71.3403L311.36 95.7003Z" fill="#E0E0E0"/>
<path d="M269.72 46L267.72 45.23L268.17 44.04L273.67 46.14L273.21 47.33L271.21 46.56L269.21 51.67L267.76 51.11L269.72 46Z" fill="#263238"/>
<path d="M277.34 53.4199L276.9 54.5999L272 52.7199L274.42 46.4199L279.18 48.2499L278.73 49.4199L275.42 48.1499L274.89 49.5199L277.82 50.6399L277.39 51.7699L274.46 50.6499L273.9 52.1099L277.34 53.4199Z" fill="#263238"/>
<path d="M277.8 54.23L278.71 53.32C279.162 53.9746 279.799 54.4794 280.54 54.77C281.41 55.1 281.87 54.95 282.02 54.56C282.47 53.38 278.49 52.79 279.39 50.45C279.8 49.38 281.01 48.82 282.8 49.45C283.581 49.7276 284.272 50.2113 284.8 50.85L283.93 51.79C283.518 51.2732 282.981 50.8705 282.37 50.62C281.51 50.29 281.05 50.49 280.9 50.88C280.45 52.05 284.42 52.65 283.54 54.96C283.13 55.96 281.92 56.58 280.11 55.89C279.188 55.5868 278.381 55.0073 277.8 54.23Z" fill="#263238"/>
<path d="M287 52.5899L285 51.8199L285.45 50.6299L290.94 52.7299L290.49 53.9199L288.49 53.1499L286.49 58.2599L285 57.7099L287 52.5899Z" fill="#263238"/>
<path d="M358.79 235.15L325.29 219.44C332.11 204.89 338.37 183.91 338.37 167.69C338.422 150.537 334.402 133.617 326.64 118.32C325.29 115.65 320.39 106.78 319.04 104.55L350.7 85.3901C352.64 88.6101 358 98.3901 359.64 101.6C370.047 122.072 375.438 144.725 375.37 167.69C375.37 189.38 367.94 215.64 358.79 235.15Z" fill="#FFAB03"/>
<path d="M306.01 121.43L369.02 79.9702L310.85 60.1602L306.01 121.43Z" fill="#FFAB03"/>
<path d="M353.29 128.28L354.12 131.23C354.72 133.36 353.85 135.23 351.89 135.73C349.93 136.23 348.23 135.19 347.63 133.07L346.8 130.07L353.29 128.28ZM348.84 132.64C348.88 132.939 348.983 133.226 349.143 133.481C349.303 133.736 349.516 133.954 349.768 134.119C350.019 134.285 350.303 134.395 350.601 134.441C350.899 134.487 351.203 134.468 351.493 134.386C351.783 134.304 352.052 134.161 352.281 133.966C352.511 133.771 352.696 133.529 352.824 133.256C352.951 132.983 353.019 132.686 353.022 132.385C353.025 132.084 352.963 131.785 352.84 131.51L352.45 130.13L348.45 131.27L348.84 132.64Z" fill="#263238"/>
<path d="M351.24 142.52L350.02 142.79L348.87 137.7L355.44 136.21L356.57 141.21L355.35 141.49L354.57 138.03L353.14 138.36L353.83 141.36L352.64 141.63L351.95 138.57L350.43 138.92L351.24 142.52Z" fill="#263238"/>
<path d="M358 149.05L350.85 147.36L350.58 145.85L356.71 141.85L357 143.51L352.62 146.37L357.73 147.58L358 149.05Z" fill="#263238"/>
<path d="M353.37 155.74L352.12 155.91L351.42 150.73L358.11 149.83L358.79 154.83L357.55 154.99L357.07 151.48L355.62 151.68L356.04 154.78L354.84 154.94L354.42 151.84L352.87 152.05L353.37 155.74Z" fill="#263238"/>
<path d="M359 156.44L359.15 158L353.7 158.51L354.01 161.88L352.75 162L352.28 157.08L359 156.44Z" fill="#263238"/>
<path d="M356.12 162.09C356.857 162.011 357.6 162.155 358.254 162.503C358.908 162.851 359.443 163.388 359.788 164.043C360.134 164.698 360.275 165.442 360.193 166.179C360.111 166.915 359.809 167.61 359.328 168.173C358.846 168.736 358.207 169.142 357.492 169.338C356.778 169.533 356.021 169.51 355.32 169.27C354.618 169.031 354.005 168.586 353.56 167.994C353.114 167.402 352.856 166.69 352.82 165.95C352.768 165.477 352.813 164.998 352.953 164.543C353.093 164.088 353.324 163.667 353.634 163.305C353.943 162.943 354.323 162.649 354.751 162.44C355.179 162.231 355.645 162.112 356.12 162.09ZM356.41 167.88C356.824 167.85 357.22 167.698 357.549 167.444C357.877 167.19 358.123 166.845 358.256 166.451C358.389 166.058 358.403 165.634 358.296 165.233C358.19 164.832 357.967 164.471 357.656 164.195C357.345 163.92 356.96 163.743 356.548 163.686C356.137 163.628 355.718 163.694 355.344 163.874C354.969 164.054 354.656 164.34 354.444 164.697C354.232 165.054 354.129 165.465 354.15 165.88C354.158 166.163 354.225 166.441 354.344 166.697C354.464 166.953 354.636 167.182 354.847 167.369C355.059 167.556 355.307 167.698 355.576 167.786C355.845 167.874 356.128 167.906 356.41 167.88Z" fill="#263238"/>
<path d="M357.46 176.57C355.95 176.57 355.01 175.45 355.01 173.65V172.29H353.15V170.73H359.89V173.65C359.9 175.43 359 176.56 357.46 176.57ZM357.46 174.99C358.2 174.99 358.63 174.5 358.63 173.55V172.28H356.29V173.56C356.28 174.51 356.72 175 357.45 175L357.46 174.99Z" fill="#263238"/>
<path d="M228.94 314.11H110.87V277.11H228.94C245.781 277.171 262.406 273.318 277.504 265.856C292.602 258.394 305.76 247.526 315.94 234.11L345.33 256.59C331.709 274.536 314.106 289.072 293.908 299.054C273.71 309.036 251.47 314.19 228.94 314.11Z" fill="#FFAB03"/>
<path d="M297.23 224.83L360.01 266.62L355.51 205.34L297.23 224.83Z" fill="#FFAB03"/>
<g opacity="0.3">
<path d="M360 266.62L355.5 205.34L297.22 224.83L314.22 236.18C304.005 248.999 291.021 259.34 276.242 266.428C261.463 273.516 245.271 277.168 228.88 277.11H110.87V314.11H228.94C251.431 314.189 273.635 309.049 293.804 299.097C313.974 289.144 331.56 274.648 345.18 256.75L360 266.62Z" fill="black"/>
</g>
<path d="M296.35 274.46C297.25 275.66 296.91 277.09 295.48 278.17L294.39 278.99L295.51 280.47L294.26 281.41L290.2 276L292.53 274.24C294 273.18 295.44 273.25 296.35 274.46ZM295.08 275.46C294.64 274.87 293.99 274.81 293.23 275.38L292.23 276.15L293.64 278.02L294.64 277.26C295.4 276.63 295.53 276 295.08 275.41V275.46Z" fill="#E5E7EB"/>
<path d="M295.76 271.84L297.01 270.9L300.3 275.27L303 273.27L303.77 274.27L299.82 277.27L295.76 271.84Z" fill="#E5E7EB"/>
<path d="M307.2 269.73L304.7 271.62L305.09 273.13L303.81 274.13L302.15 266.93L303.38 266L309.86 269.58L308.55 270.58L307.2 269.73ZM306.09 269.08L303.68 267.66L304.38 270.37L306.09 269.08Z" fill="#E5E7EB"/>
<path d="M311.3 260.13L315.36 265.52L314.36 266.3L309.2 265.05L311.67 268.32L310.44 269.25L306.38 263.86L307.38 263.08L312.52 264.33L310.06 261.06L311.3 260.13Z" fill="#E5E7EB"/>
<path d="M101.04 254.26V336.96L154.25 295.61L101.04 254.26Z" fill="#E0E0E0"/>
<path d="M110.88 277.11H0.420044V314.11H110.88V277.11Z" fill="#E0E0E0"/>
<path d="M47.76 294.36C47.76 295.86 46.63 296.8 44.82 296.8H43.46V298.66H41.9V291.91H44.82C46.63 291.91 47.76 292.85 47.76 294.36ZM46.17 294.36C46.17 293.62 45.69 293.18 44.74 293.18H43.46V295.53H44.74C45.69 295.53 46.17 295.09 46.17 294.36Z" fill="#263238"/>
<path d="M48.8601 291.91H50.4201V297.39H53.8101V298.66H48.8101L48.8601 291.91Z" fill="#263238"/>
<path d="M59.1901 297.22H56.0501L55.4601 298.66H53.8501L56.8501 291.91H58.4001L61.4001 298.66H59.7901L59.1901 297.22ZM58.7001 296L57.6301 293.41L56.5501 296H58.7001Z" fill="#263238"/>
<path d="M68.32 291.91V298.66H67L63.63 294.56V298.66H62.13V291.91H63.42L66.77 296.01V291.91H68.32Z" fill="#263238"/>
<path d="M215.75 427.33L212.91 457.51L196.59 456.3L199.38 426.05L215.75 427.33Z" fill="#FFAB03"/>
<path d="M205 455.78C204.87 455.78 205.46 449.15 206.34 441.01C207.22 432.87 208.02 426.28 208.16 426.3C208.3 426.32 207.7 432.92 206.83 441.06C205.96 449.2 205.09 455.79 205 455.78Z" fill="#263238"/>
<path d="M213.1 455.43L196.79 454.17L196.59 456.3L212.91 457.51L213.1 455.43Z" fill="#263238"/>
<path d="M197.48 446.63C197.615 446.391 197.791 446.178 198 446C198.492 445.481 199.031 445.009 199.61 444.59C200.467 443.956 201.41 443.448 202.41 443.08C203.649 442.623 204.975 442.452 206.29 442.58C207.482 442.692 208.638 443.05 209.685 443.632C210.731 444.214 211.646 445.006 212.37 445.96C212.792 446.539 213.129 447.175 213.37 447.85C213.478 448.09 213.539 448.347 213.55 448.61C213.127 447.759 212.632 446.946 212.07 446.18C210.609 444.41 208.505 443.291 206.22 443.07C203.933 442.918 201.662 443.557 199.79 444.88C198.3 445.87 197.55 446.7 197.48 446.63Z" fill="#263238"/>
<g opacity="0.3">
<path d="M198.59 434.66L198.28 437.99L214.64 439.13L214.88 436.63L198.59 434.66Z" fill="black"/>
</g>
<path d="M281.36 425.22L283.32 455.47L267.01 456.86L264.99 426.55L281.36 425.22Z" fill="#FFAB03"/>
<path d="M275.19 455C275.05 455 274.6 448.38 274.19 440.21C273.78 432.04 273.53 425.4 273.66 425.39C273.79 425.38 274.26 432 274.66 440.18C275.06 448.36 275.33 455 275.19 455Z" fill="#263238"/>
<path d="M283.18 453.39L266.87 454.72L267.01 456.86L283.32 455.47L283.18 453.39Z" fill="#263238"/>
<path d="M266.37 447.17C266.37 447.17 266.47 446.9 266.74 446.48C267.143 445.89 267.602 445.341 268.11 444.84C268.855 444.077 269.707 443.427 270.64 442.91C272.263 441.992 274.139 441.62 275.99 441.848C277.841 442.077 279.569 442.894 280.92 444.18C281.433 444.683 281.874 445.255 282.23 445.88C282.372 446.1 282.474 446.344 282.53 446.6C281.974 445.827 281.355 445.101 280.68 444.43C278.951 442.923 276.7 442.155 274.41 442.29C272.129 442.502 269.99 443.49 268.35 445.09C267.05 446.29 266.44 447.22 266.37 447.17Z" fill="#263238"/>
<g opacity="0.3">
<path d="M265.56 435.18L265.79 438.51L282.12 437.05L281.96 434.54L265.56 435.18Z" fill="black"/>
</g>
<path d="M235.18 157.77L212.72 161.12L211.66 141.9C211.66 141.9 210.04 141.83 208.66 133.63C207.28 125.43 204.57 111.53 204.57 111.53C209.09 108.734 214.255 107.153 219.566 106.941C224.877 106.729 230.152 107.893 234.88 110.32L236.29 111.05L235.18 157.77Z" fill="#FFBE9D"/>
<path d="M235.21 121.59C235.35 121.51 240.79 118.98 241.51 124.59C242.23 130.2 236.22 129.84 236.19 129.67C236.16 129.5 235.21 121.59 235.21 121.59Z" fill="#FFBE9D"/>
<path d="M207.69 124.85C207.53 124.85 202.13 124.3 203.22 129.85C204.31 135.4 209.91 133.16 209.89 132.99C209.87 132.82 207.69 124.85 207.69 124.85Z" fill="#FFBE9D"/>
<path d="M237 120.66C236.89 125.51 237.46 127.96 237.17 131.23C236.7 136.41 234.76 140.64 230.52 143.88C226.28 147.12 219.99 148.09 215.45 145.35C212.3 143.45 209.91 141.12 208.93 137.65C207.95 134.18 206.52 127.99 205.93 124.43C204.83 118 203.4 112 203.4 112L221.84 105.61L233.65 110L237 120.66Z" fill="#263238"/>
<path d="M221.37 148.27C223.648 148.542 225.943 147.918 227.77 146.53C227.69 146.39 226.36 147.05 224.61 147.53C222.86 148.01 221.37 148.12 221.37 148.27Z" fill="#263238"/>
<path d="M237.38 128.81C237.15 123.9 236.62 118.32 236.58 113.11C236.58 111.11 236.82 108.29 236.33 106.39C235.957 104.454 235.225 102.606 234.17 100.94C233.411 99.932 232.436 99.1069 231.317 98.5255C230.197 97.944 228.961 97.6209 227.7 97.5801C226.425 97.553 225.16 97.8079 223.995 98.3265C222.83 98.8451 221.793 99.6146 220.96 100.58C220.066 99.7013 218.939 99.0982 217.712 98.8429C216.485 98.5875 215.21 98.6907 214.04 99.1401C212.891 99.6071 211.905 100.405 211.209 101.432C210.513 102.459 210.138 103.669 210.13 104.91C209.328 104.415 208.394 104.179 207.453 104.232C206.512 104.286 205.611 104.627 204.87 105.21C204.163 105.807 203.67 106.618 203.466 107.521C203.262 108.423 203.359 109.367 203.74 110.21C203.093 110.422 202.507 110.786 202.03 111.271C201.553 111.757 201.2 112.35 201 113C200.824 113.657 200.817 114.347 200.982 115.007C201.146 115.667 201.476 116.273 201.94 116.77C203.03 117.94 204.73 118.4 205.94 119.49C206.599 120.12 207.056 120.932 207.253 121.822C207.451 122.712 207.38 123.64 207.05 124.49" fill="#263238"/>
<path d="M208.19 115.65C208.254 115.833 208.356 116 208.49 116.14C208.846 116.564 209.289 116.905 209.79 117.14C210.592 117.536 211.5 117.662 212.38 117.5C212.951 117.391 213.494 117.169 213.978 116.848C214.462 116.527 214.877 116.113 215.2 115.63H214.78C215.032 116.254 215.44 116.802 215.966 117.223C216.491 117.643 217.116 117.921 217.78 118.03C218.527 118.176 219.297 118.142 220.028 117.93C220.759 117.718 221.428 117.334 221.98 116.81C222.967 115.9 223.636 114.698 223.89 113.38L223.44 113.5C224.041 114.109 224.777 114.569 225.588 114.844C226.398 115.118 227.262 115.199 228.11 115.08C228.778 114.987 229.42 114.763 230.001 114.419C230.581 114.076 231.087 113.621 231.49 113.08C232.029 112.398 232.375 111.582 232.49 110.72C232.56 110.421 232.56 110.109 232.49 109.81C232.49 109.81 232.49 110.13 232.35 110.69C232.178 111.496 231.818 112.249 231.3 112.89C230.51 113.87 229.37 114.505 228.12 114.66C227.349 114.753 226.568 114.666 225.836 114.408C225.104 114.15 224.442 113.726 223.9 113.17L223.55 112.8L223.45 113.3C223.201 114.508 222.583 115.609 221.68 116.45C221.192 116.916 220.6 117.258 219.952 117.447C219.305 117.637 218.622 117.669 217.96 117.54C217.384 117.458 216.838 117.232 216.373 116.882C215.908 116.532 215.539 116.071 215.3 115.54L215.14 115.08L214.88 115.5C214.309 116.387 213.41 117.012 212.38 117.24C211.578 117.411 210.742 117.327 209.99 117C209.303 116.68 208.69 116.22 208.19 115.65Z" fill="#455A64"/>
<path d="M207.87 113.41C207.86 112.659 208.024 111.917 208.35 111.24C208.732 110.506 209.363 109.931 210.13 109.62C210.607 109.422 211.12 109.325 211.636 109.335C212.153 109.345 212.661 109.463 213.13 109.68L213.65 109.93L213.51 109.39C213.376 108.85 213.352 108.289 213.44 107.74C213.538 107.137 213.758 106.56 214.087 106.044C214.415 105.528 214.845 105.085 215.35 104.74C216.216 104.182 217.243 103.925 218.27 104.01C219.225 104.122 220.143 104.443 220.96 104.95C220.96 104.95 220.8 104.71 220.38 104.41C219.763 103.988 219.053 103.724 218.31 103.64C217.185 103.501 216.046 103.747 215.08 104.34C214.505 104.712 214.015 105.201 213.641 105.775C213.268 106.348 213.018 106.994 212.91 107.67C212.809 108.286 212.839 108.917 213 109.52L213.37 109.22C212.835 108.982 212.256 108.86 211.67 108.86C211.084 108.86 210.505 108.982 209.97 109.22C209.101 109.578 208.398 110.249 208 111.1C207.754 111.635 207.644 112.222 207.68 112.81C207.75 113.21 207.84 113.42 207.87 113.41Z" fill="#455A64"/>
<path d="M220 111.62C220.07 111.62 219.93 111.3 219.89 110.84C219.847 110.239 219.957 109.637 220.21 109.09C220.5 108.45 220.86 107.78 221.07 107.42C221.136 107.33 221.228 107.262 221.333 107.225C221.438 107.187 221.552 107.182 221.66 107.21C221.66 107.21 221.66 107.08 221.49 107C221.369 106.959 221.239 106.953 221.115 106.983C220.991 107.013 220.878 107.078 220.79 107.17C220.58 107.399 220.395 107.651 220.24 107.92C220.036 108.236 219.862 108.571 219.72 108.92C219.422 109.543 219.348 110.249 219.51 110.92C219.67 111.44 220 111.66 220 111.62Z" fill="#455A64"/>
<path d="M230.11 102.73C230.17 102.73 230.05 102.29 229.59 101.73C229.312 101.416 228.971 101.164 228.59 100.99C228.074 100.814 227.514 100.817 227 101C226.108 101.306 225.365 101.939 224.92 102.77C224.58 103.35 224.44 103.77 224.5 103.77C224.56 103.77 224.83 103.47 225.24 102.96C225.71 102.286 226.377 101.772 227.15 101.49C227.532 101.388 227.933 101.387 228.315 101.487C228.698 101.587 229.047 101.785 229.33 102.06C229.8 102.44 230 102.77 230.11 102.73Z" fill="#455A64"/>
<path d="M231 127C231.765 125.822 232.251 124.484 232.42 123.09C232.764 121.737 232.782 120.321 232.47 118.96C232.31 118.96 232.3 120.8 231.89 122.96C231.48 125.12 230.87 127 231 127Z" fill="#455A64"/>
<path d="M228.69 128.8C229.222 127.957 229.563 127.008 229.69 126.02C229.984 125.073 230.066 124.072 229.93 123.09C229.546 123.993 229.29 124.946 229.17 125.92C228.87 126.851 228.708 127.822 228.69 128.8Z" fill="#455A64"/>
<path d="M212.76 131.77C212.757 133.488 213.261 135.168 214.21 136.6C215.023 138.135 216.258 139.405 217.77 140.26C216.637 139.038 215.604 137.727 214.68 136.34C213.916 134.872 213.274 133.343 212.76 131.77Z" fill="#455A64"/>
<path d="M209.54 128.08C209.25 129.595 209.376 131.16 209.904 132.609C210.433 134.058 211.343 135.337 212.54 136.31C211.716 135.081 211.006 133.779 210.42 132.42C209.997 131.003 209.703 129.55 209.54 128.08Z" fill="#455A64"/>
<path d="M211.74 157.23L211.94 152.41L235.42 147.45L236.25 151.42L211.74 157.23Z" fill="white"/>
<path d="M138.23 215.54C138.23 215.54 137.07 216.14 137.87 216.99C138.67 217.84 149.36 227.32 150.81 228.25C152.656 229.125 154.586 229.812 156.57 230.3L159.39 229.78L161 223L163 219.72L162.49 218.97L164.36 211.7C164.36 211.7 162.74 211.04 161.99 212.21C160.94 213.86 159.49 216.54 159.49 216.54C159.49 216.54 156.55 216.98 155.49 215.71C154.43 214.44 148.2 203.93 147.49 203.71C146.78 203.49 145.59 203.71 146.2 205.42C146.81 207.13 150.79 213.05 150.64 213.42C150.49 213.79 149.88 214.19 149.64 213.9C149.4 213.61 143 205.23 141.99 205.08C140.98 204.93 140.15 205.8 141.13 207.41C142.11 209.02 147.29 214.93 147.05 215.31C146.81 215.69 146.13 215.23 146.13 215.23C146.13 215.23 140.22 209.06 139.39 209.17C138.56 209.28 138.32 210.17 138.79 210.98C139.26 211.79 145.24 217.54 145.35 217.98C145.42 218.28 145.17 219.47 144.68 219.06C144.19 218.65 138.7 215.15 138.23 215.54Z" fill="#FFBE9D"/>
<path d="M198.6 277L197.36 357.68L194.62 441.43L217.35 443L225 357.64L233.73 297.05L235.65 296.93L252.84 360L263.55 441C264.88 440.63 285 439 285 439L271 275.13L268.67 261.5L208.83 262.83L198.6 277Z" fill="#263238"/>
<path d="M265.88 233.51L264.15 186.85L261.27 154.63H241.65L236.65 149.74L211.48 154.63L209.15 161.63C209.15 161.63 188.94 168.06 187.82 170.02C187.82 170.02 194.91 198.02 198.25 213.68C200.54 224.44 202.95 235.47 202.95 235.47L196.57 287.08C196.31 287.08 235.45 285.36 235.45 285.36L273.25 281.27L265.88 233.51Z" fill="#455A64"/>
<path d="M286.32 140C286.32 140 280.56 140.45 280.22 140.45C279.88 140.45 274 141 274 141C274.106 140.567 274.307 140.162 274.589 139.816C274.871 139.47 275.227 139.191 275.63 139C277 138.39 279.63 137.44 279.87 137C280.11 136.56 280.74 135.84 280.2 135.09C279.66 134.34 269.72 124.25 269.38 123.71C269.04 123.17 268.49 122.14 269.38 121.94C270.27 121.74 271.38 122.69 272.11 123.3C272.84 123.91 276.72 127.18 277.11 126.98C277.5 126.78 277.18 126.43 277.18 126.43C277.18 126.43 270.61 119.67 270.54 119.43C270.47 119.19 269.7 117.23 271.54 117.56C272.44 117.71 279.26 124.69 279.54 124.41C279.82 124.13 273.81 116.41 274.36 115.83C274.91 115.25 275.52 114.6 276.61 115.83C277.7 117.06 282.39 123.32 282.74 123.39C282.836 123.402 282.933 123.39 283.023 123.354C283.113 123.318 283.192 123.259 283.253 123.184C283.314 123.109 283.355 123.02 283.372 122.925C283.389 122.83 283.381 122.732 283.35 122.64C283.22 122.17 280.43 117.31 280.43 116.76C280.43 116.21 280.97 116.08 281.52 116.01C282.07 115.94 287.92 124.41 287.92 124.41C287.92 124.41 292.44 131.68 292.92 132.52C293.439 133.715 293.873 134.945 294.22 136.2L286.32 140Z" fill="#FFBE9D"/>
<path d="M284.88 140.33L288.8 155.47L279.8 158.83L260.46 154.63V183.22L263.2 190.65C263.2 190.65 303.7 171.12 306.39 169C311.39 165 303.44 151.14 303.44 151.14L296.09 135.32L284.88 140.33Z" fill="#455A64"/>
<path d="M187.81 170.05L183.28 179.12L171.84 217L159.06 220.41L156.66 232.09C156.66 232.09 176.66 236.78 180.36 235.17C186.65 232.44 197.16 206.36 197.16 206.36L195.74 184.07L187.81 170.05Z" fill="#455A64"/>
<path d="M301.5 161.66C299.642 160.091 297.632 158.71 295.5 157.54C293.302 156.521 291.007 155.727 288.65 155.17C289.373 155.118 290.099 155.185 290.8 155.37C292.514 155.712 294.172 156.287 295.73 157.08C297.292 157.881 298.739 158.89 300.03 160.08C300.607 160.518 301.105 161.052 301.5 161.66Z" fill="#263238"/>
<path d="M297.69 155.39C296.075 155.117 294.438 154.99 292.8 155.01C291.177 155.203 289.574 155.537 288.01 156.01C289.451 155.124 291.086 154.606 292.774 154.499C294.462 154.393 296.15 154.702 297.69 155.4V155.39Z" fill="#263238"/>
<path d="M241.65 154.63C241.311 154.921 240.943 155.176 240.55 155.39C240.19 155.63 239.74 155.9 239.2 156.19C238.66 156.48 238.05 156.82 237.35 157.19C235.725 157.977 234.056 158.668 232.35 159.26C230.265 159.951 228.146 160.531 226 161C222.077 161.864 218.084 162.376 214.07 162.53C212.53 162.59 211.29 162.59 210.43 162.53C209.981 162.538 209.533 162.505 209.09 162.43C209.532 162.348 209.981 162.311 210.43 162.32C211.28 162.32 212.52 162.23 214.05 162.13C218.03 161.87 221.984 161.312 225.88 160.46C228.16 159.95 230.3 159.34 232.22 158.72C234.14 158.1 235.83 157.41 237.22 156.72C237.92 156.42 238.54 156.11 239.08 155.84C239.62 155.57 240.08 155.34 240.47 155.12C240.847 154.919 241.242 154.755 241.65 154.63Z" fill="#263238"/>
<path d="M247.58 235.54C247.115 235.714 246.632 235.838 246.14 235.91C245.2 236.12 243.84 236.36 242.14 236.59C233.243 237.743 224.204 237.063 215.58 234.59C213.93 234.11 212.58 233.67 211.73 233.32C211.258 233.166 210.8 232.972 210.36 232.74C210.849 232.819 211.329 232.949 211.79 233.13C212.7 233.42 214.03 233.8 215.68 234.24C224.287 236.514 233.238 237.192 242.09 236.24C243.79 236.06 245.16 235.88 246.09 235.73C246.581 235.627 247.079 235.563 247.58 235.54Z" fill="#263238"/>
<path d="M171.13 220.46C170.99 220.46 172.4 215.19 174.27 208.78C176.14 202.37 177.76 197.21 177.9 197.25C178.04 197.29 176.64 202.51 174.77 208.93C172.9 215.35 171.27 220.5 171.13 220.46Z" fill="#263238"/>
<path d="M232.5 250.66C232.65 250.66 232.91 256.48 233.09 263.66C233.27 270.84 233.29 276.66 233.15 276.66C233.01 276.66 232.74 270.85 232.57 263.66C232.4 256.47 232.36 250.67 232.5 250.66Z" fill="#263238"/>
<path d="M246.84 294.9C246.84 295.04 241.78 296.09 235.48 297.25C229.18 298.41 224.06 299.25 224.03 299.08C224 298.91 229.09 297.89 235.39 296.73C241.69 295.57 246.81 294.76 246.84 294.9Z" fill="#455A64"/>
<path d="M269.92 356.11C267.719 356.232 265.53 356.513 263.37 356.95C261.257 357.561 259.189 358.316 257.18 359.21C257.657 358.756 258.208 358.387 258.81 358.12C260.216 357.385 261.707 356.824 263.25 356.45C264.791 356.071 266.373 355.883 267.96 355.89C268.621 355.846 269.285 355.921 269.92 356.11Z" fill="#455A64"/>
<path d="M215.17 360C215.17 360.15 213.29 359.77 210.99 359.88C208.69 359.99 206.88 360.51 206.84 360.36C209.462 359.152 212.454 359.022 215.17 360Z" fill="#455A64"/>
<path d="M202.94 235.5C202.867 235.337 202.814 235.166 202.78 234.99C202.68 234.59 202.55 234.1 202.41 233.5C202.09 232.13 201.65 230.27 201.13 228.01C200.07 223.3 198.64 216.92 197.06 209.87C195.48 202.82 194.06 196.43 193.01 191.72C192.5 189.46 192.08 187.59 191.78 186.22L191.46 184.72C191.408 184.548 191.381 184.37 191.38 184.19C191.463 184.351 191.523 184.523 191.56 184.7C191.67 185.09 191.81 185.58 191.97 186.17C192.32 187.46 192.8 189.33 193.36 191.64C194.5 196.26 195.98 202.64 197.56 209.75C199.14 216.86 200.56 223.27 201.49 227.93C201.95 230.21 202.33 232.08 202.6 233.45C202.71 234.06 202.81 234.56 202.88 234.96C202.927 235.136 202.947 235.318 202.94 235.5Z" fill="#263238"/>
<path d="M263.18 170.79C263.205 170.885 263.221 170.982 263.23 171.08L263.3 171.92C263.37 172.65 263.46 173.74 263.54 175.15C263.74 177.95 263.96 182.02 264.21 187.04C264.71 197.04 265.3 210.96 265.87 226.29C265.96 228.76 266.05 231.2 266.14 233.5C268.14 246.99 269.99 258.93 271.29 267.5C271.91 271.76 272.42 275.2 272.77 277.61C272.93 278.77 273.05 279.68 273.14 280.34C273.14 280.63 273.21 280.86 273.23 281.05C273.246 281.129 273.246 281.211 273.23 281.29C273.198 281.217 273.178 281.139 273.17 281.06C273.17 280.87 273.09 280.64 273.04 280.35C272.93 279.7 272.77 278.79 272.57 277.64C272.18 275.23 271.63 271.8 270.94 267.55C269.59 258.95 267.73 247.02 265.62 233.55C265.54 231.24 265.45 228.81 265.35 226.34C264.17 196 263.29 173.63 263.18 170.79Z" fill="#263238"/>
<g opacity="0.3">
<path d="M239.05 156.39C229.59 160.21 220.25 162.56 210.05 162.57C211.473 163.962 213.353 164.79 215.34 164.9C217.334 165.011 219.334 164.839 221.28 164.39C226.199 163.446 231.03 162.088 235.72 160.33C237.39 159.73 239.27 158 239.05 156.39Z" fill="black"/>
</g>
<g opacity="0.3">
<path d="M191.94 185.82C192.1 189.46 191.69 193.82 192.46 197.41C193.12 201.005 194.682 204.374 197 207.2C195.25 200.34 193.76 192.82 191.94 185.82Z" fill="black"/>
</g>
<g opacity="0.3">
<path d="M221.28 240.73L220.97 240.68C224.03 244.16 229.11 244.52 233.75 244.55C238.39 244.58 243.41 244.29 246.52 240.85C238.185 242.521 229.598 242.48 221.28 240.73Z" fill="black"/>
</g>
<path d="M439.23 457.29C439.23 457.44 347.78 457.56 235.01 457.56C122.24 457.56 30.76 457.44 30.76 457.29C30.76 457.14 122.19 457 235 457C347.81 457 439.23 457.15 439.23 457.29Z" fill="#263238"/>
<path d="M194.23 142.89L183.23 140.43C178.881 145.377 172.839 148.518 166.291 149.235C159.744 149.952 153.165 148.194 147.848 144.307C142.531 140.419 138.861 134.683 137.559 128.226C136.257 121.769 137.417 115.059 140.812 109.415C144.207 103.77 149.591 99.6004 155.905 97.7244C162.219 95.8485 169.006 96.4024 174.932 99.2773C180.858 102.152 185.495 107.14 187.93 113.26C190.364 119.38 190.422 126.19 188.09 132.35L194.23 142.89Z" fill="white"/>
<path d="M194.23 142.89L188.23 132.29C188.21 132.274 188.186 132.265 188.16 132.265C188.135 132.265 188.11 132.274 188.09 132.29L188.27 132.38C189.938 128.045 190.424 123.345 189.68 118.76C189.47 117.399 189.135 116.06 188.68 114.76C188.43 114.08 188.2 113.39 187.93 112.7L186.93 110.7C183.762 104.712 178.419 100.167 172 97.9998C168.467 96.7908 164.717 96.3476 161 96.6998C157.072 97.1039 153.282 98.3708 149.9 100.41C146.359 102.528 143.374 105.459 141.19 108.96C138.933 112.52 137.561 116.57 137.19 120.77C136.868 124.785 137.452 128.821 138.9 132.58C140.251 136.141 142.376 139.358 145.12 142C150.05 146.747 156.616 149.417 163.46 149.46C166.352 149.427 169.222 148.951 171.97 148.05C176.348 146.574 180.257 143.965 183.3 140.49H183.21L194.21 142.86L183.21 140.3C183.194 140.293 183.177 140.289 183.16 140.289C183.143 140.289 183.126 140.293 183.11 140.3C180.073 143.725 176.185 146.289 171.84 147.73C169.119 148.609 166.28 149.068 163.42 149.09C156.665 149.022 150.192 146.37 145.33 141.68C142.638 139.064 140.552 135.889 139.22 132.38C137.796 128.675 137.225 124.696 137.55 120.74C137.906 116.61 139.247 112.625 141.46 109.12C143.604 105.666 146.542 102.776 150.03 100.69C153.378 98.6993 157.124 97.4702 161 97.0898C164.668 96.7294 168.37 97.1555 171.86 98.3398C178.166 100.48 183.429 104.928 186.59 110.79C186.91 111.47 187.23 112.14 187.59 112.79C187.95 113.44 188.09 114.15 188.34 114.79C188.789 116.092 189.123 117.43 189.34 118.79C190.089 123.329 189.63 127.984 188.01 132.29C188.005 132.302 188.003 132.316 188.004 132.329C188.004 132.342 188.007 132.355 188.013 132.367C188.018 132.38 188.026 132.39 188.036 132.399C188.046 132.408 188.057 132.415 188.07 132.42C188.086 132.432 188.105 132.439 188.125 132.439C188.145 132.439 188.164 132.432 188.18 132.42H188L194.23 142.89Z" fill="#263238"/>
<path d="M149.02 123.57L152.79 119.8L160.07 126.27L174.36 112.52L177.86 116.29L159.53 133.54L149.02 123.57Z" fill="#FFAB03"/>
</svg>
