<svg xmlns="http://www.w3.org/2000/svg" xmlns:xlink="http://www.w3.org/1999/xlink" viewBox="0 0 750 500"><defs><clipPath id="freepik--clip-path--inject-71"><path d="M487.34,326.12h0c-2.3-4.73-14.85-8.37-29.21-8.45-14.82-.1-27.88,3.54-30.26,8.45l-.9-.43h0l30.63-63.21,30.64,63.22h0Zm-29.75-9.46h.55c12.13.07,22.75,2.58,27.65,6.27L457.6,264.77l-28.17,58.14C434.4,319.15,445.2,316.66,457.59,316.66Z" style="fill:#ebebeb"></path></clipPath><clipPath id="freepik--clip-path-2--inject-71"><path d="M457.63,338.59h-.56c-13.21-.08-24.85-3-28.95-7.4a5.06,5.06,0,0,1-1.61-3.77l.05-.19,31-64.76,30.64,63.22a4.45,4.45,0,0,1,.46,2.15C488.39,333.91,474.79,338.59,457.63,338.59Zm-30.13-11a4.21,4.21,0,0,0,1.34,2.93c3.93,4.17,15.28,7,28.23,7.09,16.35.12,30.35-4.39,30.63-9.8a3.35,3.35,0,0,0-.36-1.67l-29.73-61.35Z" style="fill:#ebebeb"></path></clipPath><clipPath id="freepik--clip-path-3--inject-71"><path d="M426.38,329.92l.13-2.5a4.33,4.33,0,0,1,.46-1.73l30.18-62.29.9.43h0Z" style="fill:#ebebeb"></path></clipPath><clipPath id="freepik--clip-path-4--inject-71"><path d="M457.6,264.13l-.68-.16h0l.23-1h0a3.14,3.14,0,0,0,.45,0,2,2,0,0,0,.44,0h0l.24,1h0Z" style="fill:#ebebeb"></path></clipPath><clipPath id="freepik--clip-path-5--inject-71"><path d="M488.31,325.66c-2.37-4.9-15.34-8.66-30.16-8.74-15.33-.08-28.79,3.66-31.25,8.73l-.9-.43,30.18-62.29c.25-.51,1.08-.57,1.44-.56s1.16.06,1.4.56l30.19,62.28h0Zm-30.72-9.75h.57c12.56.07,23.55,2.68,28.59,6.51l-28.59-59a1.63,1.63,0,0,0-.54-.08,1.89,1.89,0,0,0-.58.08L428.48,322.4C433.58,318.5,444.75,315.91,457.59,315.91Zm.61-52.44Zm-1.12-.1Z" style="fill:#ebebeb"></path></clipPath><clipPath id="freepik--clip-path-6--inject-71"><path d="M457.62,338.59h-.55a76.46,76.46,0,0,1-17.21-1.92l-.57-.14.24-1a78.36,78.36,0,0,0,17.52,2,79.63,79.63,0,0,0,18.63-2l.24,1h0l-.56.14A77.14,77.14,0,0,1,457.62,338.59Z" style="fill:#ebebeb"></path></clipPath><clipPath id="freepik--clip-path-7--inject-71"><path d="M439.86,336.67h0l-.11,0-.46-.11c-8.94-2.16-14-5.63-13.76-9.53l0-.71,2,.83,0,.35c-.16,3.15,4.61,6.28,12.47,8.2l.12,0Z" style="fill:#ebebeb"></path></clipPath><clipPath id="freepik--clip-path-8--inject-71"><path d="M475.35,336.67l-.24-1,.13,0c7.65-1.87,12.3-4.81,12.46-7.88a4.17,4.17,0,0,0-1.34-3c-3.93-4.16-15.27-7-28.23-7.08-16.34-.09-30.35,4.39-30.62,9.8l0,.72-2-.84,0-.35c.32-6.32,14.63-11.21,32.63-11.08,13.63.08,25.63,3.15,29.87,7.63a5.24,5.24,0,0,1,1.65,3.88c-.19,3.72-5.21,7-13.77,9.1l-.44.11-.12,0Zm11-13.3a8.31,8.31,0,0,1,.74.7,5.41,5.41,0,0,1,1.6,3.19,4.39,4.39,0,0,0-1.39-3A8.93,8.93,0,0,0,486.35,323.37Zm-59.79,3.34,0,0a6.34,6.34,0,0,1,2.23-3.34A5.61,5.61,0,0,0,426.56,326.71Z" style="fill:#ebebeb"></path></clipPath><clipPath id="freepik--clip-path-9--inject-71"><path d="M419.74,355.66A31.27,31.27,0,0,1,407.11,353,31.84,31.84,0,0,1,388,325.42a32,32,0,0,1,63.79-3.95,30.87,30.87,0,0,1,0,4.71,31.54,31.54,0,0,1-15.47,24.9A32.21,32.21,0,0,1,419.74,355.66Zm0-63a31,31,0,1,0,31,33.45l.1-2.45c0-.68,0-1.36-.07-2a29.64,29.64,0,0,0-7.92-18.05l-.54-.57h0a31.36,31.36,0,0,0-22.45-9.49v-.84Z" style="fill:#FFAB03"></path></clipPath></defs><g id="freepik--Window--inject-71"><rect x="127.19" y="69.48" width="496.04" height="314.08" style="fill:#fff"></rect><path d="M623.23,383.55l-496,.28h-.28v-.28l-.09-314.07V69.1h.37l496,.16h.22v.22Zm0,0L623,69.48l.22.22-496,.15.37-.37-.09,314.07-.28-.27Z" style="fill:#263238"></path><rect x="126.77" y="69.48" width="496.46" height="12.09" style="fill:#455a64"></rect><circle cx="133.38" cy="75.52" r="3" style="fill:#c7c7c7"></circle><path d="M148.62,75.52a3,3,0,1,1-3-3A3,3,0,0,1,148.62,75.52Z" style="fill:#fff"></path><path d="M160.86,75.52a3,3,0,1,1-3-3A3,3,0,0,1,160.86,75.52Z" style="fill:#FFAB03"></path><rect x="126.77" y="81.56" width="18.85" height="301.99" style="fill:#a6a6a6"></rect><path d="M143,98.84,129.42,99h-.19v-.2l-.05-13.55V85h.25l13.55,0h.2v.2Zm0,0-.19-13.55.19.19-13.55.06.25-.25-.06,13.55-.19-.19Z" style="fill:#c7c7c7"></path><path d="M143,116.47l-13.55.19h-.19v-.2l-.05-13.55v-.26h.25l13.55,0h.2v.2Zm0,0-.19-13.55.19.19-13.55,0,.25-.24-.06,13.55-.19-.19Z" style="fill:#c7c7c7"></path><path d="M143,134.1l-13.55.19h-.19v-.2l-.05-13.56v-.25h.25l13.55.06h.2v.19Zm0,0-.19-13.56.19.2-13.55.05.25-.25-.06,13.56-.19-.19Z" style="fill:#c7c7c7"></path><path d="M143,151.73l-13.55.19h-.19v-.2l-.05-13.56v-.25h.25L143,138h.2v.19Zm0,0-.19-13.56.19.2-13.55,0,.25-.25-.06,13.56-.19-.19Z" style="fill:#c7c7c7"></path><path d="M143,169.36l-13.55.19h-.19v-.2l-.05-13.56v-.25h.25l13.55.06h.2v.19Zm0,0-.19-13.56.19.2-13.55.05.25-.25-.06,13.56-.19-.19Z" style="fill:#c7c7c7"></path><path d="M143,187l-13.55.19h-.19V187l-.05-13.56v-.25h.25l13.55.06h.2v.19Zm0,0-.19-13.56.19.2-13.55.05.25-.25L129.61,187l-.19-.19Z" style="fill:#c7c7c7"></path><path d="M143,204.62l-13.55.19h-.19v-.19l-.05-13.56v-.25h.25l13.55.06h.2v.19Zm0,0-.19-13.56.19.2-13.55.05.25-.25-.06,13.56-.19-.19Z" style="fill:#c7c7c7"></path><rect x="530.79" y="107.39" width="92.44" height="276.16" style="fill:#c7c7c7"></rect><rect x="538.83" y="273.28" width="76.37" height="102.16" style="fill:#a6a6a6"></rect><rect x="538.83" y="152.7" width="76.37" height="102.16" style="fill:#a6a6a6"></rect><rect x="538.83" y="141.1" width="76.37" height="7.07" style="fill:#dbdbdb"></rect><rect x="538.83" y="114.6" width="76.37" height="7.07" style="fill:#dbdbdb"></rect><rect x="538.83" y="135.47" width="76.37" height="2.34" style="fill:#dbdbdb"></rect><rect x="538.83" y="259.39" width="76.37" height="2.34" style="fill:#dbdbdb"></rect><rect x="538.83" y="264.07" width="51.11" height="2.34" style="fill:#dbdbdb"></rect><rect x="538.83" y="129.84" width="76.37" height="2.34" style="fill:#dbdbdb"></rect><rect x="538.83" y="124.21" width="76.37" height="2.34" style="fill:#dbdbdb"></rect><rect x="145.62" y="107.39" width="385.17" height="276.16" style="fill:#263238"></rect><polygon points="145.62 114.66 337.38 114.53 529.13 114.66 337.38 114.78 145.62 114.66" style="fill:#37474f"></polygon><polygon points="145.62 121.93 337.38 121.8 529.13 121.93 337.38 122.05 145.62 121.93" style="fill:#37474f"></polygon><polygon points="145.62 129.19 337.38 129.07 529.13 129.19 337.38 129.32 145.62 129.19" style="fill:#37474f"></polygon><polygon points="145.62 136.46 337.38 136.34 529.13 136.46 337.38 136.59 145.62 136.46" style="fill:#37474f"></polygon><polygon points="145.62 143.73 337.38 143.6 529.13 143.73 337.38 143.85 145.62 143.73" style="fill:#37474f"></polygon><polygon points="145.62 151 337.38 150.87 529.13 151 337.38 151.12 145.62 151" style="fill:#37474f"></polygon><polygon points="145.62 158.26 337.38 158.14 529.13 158.26 337.38 158.39 145.62 158.26" style="fill:#37474f"></polygon><polygon points="145.62 165.53 337.38 165.41 529.13 165.53 337.38 165.66 145.62 165.53" style="fill:#37474f"></polygon><polygon points="145.62 172.8 337.38 172.67 529.13 172.8 337.38 172.92 145.62 172.8" style="fill:#37474f"></polygon><polygon points="145.62 180.07 337.38 179.94 529.13 180.07 337.38 180.19 145.62 180.07" style="fill:#37474f"></polygon><polygon points="145.62 187.33 337.38 187.21 529.13 187.33 337.38 187.46 145.62 187.33" style="fill:#37474f"></polygon><polygon points="145.62 194.6 337.38 194.48 529.13 194.6 337.38 194.72 145.62 194.6" style="fill:#37474f"></polygon><polygon points="145.62 201.87 337.38 201.74 529.13 201.87 337.38 201.99 145.62 201.87" style="fill:#37474f"></polygon><polygon points="145.62 209.13 337.38 209.01 529.13 209.13 337.38 209.26 145.62 209.13" style="fill:#37474f"></polygon><polygon points="145.62 216.4 337.38 216.28 529.13 216.4 337.38 216.53 145.62 216.4" style="fill:#37474f"></polygon><polygon points="145.62 223.67 337.38 223.55 529.13 223.67 337.38 223.79 145.62 223.67" style="fill:#37474f"></polygon><polygon points="145.62 230.94 337.38 230.81 529.13 230.94 337.38 231.06 145.62 230.94" style="fill:#37474f"></polygon><polygon points="145.62 238.21 337.38 238.08 529.13 238.21 337.38 238.33 145.62 238.21" style="fill:#37474f"></polygon><polygon points="145.62 245.47 337.38 245.35 529.13 245.47 337.38 245.6 145.62 245.47" style="fill:#37474f"></polygon><polygon points="145.62 252.74 337.38 252.62 529.13 252.74 337.38 252.86 145.62 252.74" style="fill:#37474f"></polygon><polygon points="145.62 260.01 337.38 259.88 529.13 260.01 337.38 260.13 145.62 260.01" style="fill:#37474f"></polygon><polygon points="145.62 267.27 337.38 267.15 529.13 267.27 337.38 267.4 145.62 267.27" style="fill:#37474f"></polygon><polygon points="145.62 274.54 337.38 274.42 529.13 274.54 337.38 274.67 145.62 274.54" style="fill:#37474f"></polygon><polygon points="145.62 281.81 337.38 281.69 529.13 281.81 337.38 281.93 145.62 281.81" style="fill:#37474f"></polygon><polygon points="145.62 289.08 337.38 288.95 529.13 289.08 337.38 289.2 145.62 289.08" style="fill:#37474f"></polygon><polygon points="145.62 296.34 337.38 296.22 529.13 296.34 337.38 296.47 145.62 296.34" style="fill:#37474f"></polygon><polygon points="145.62 303.61 337.38 303.49 529.13 303.61 337.38 303.74 145.62 303.61" style="fill:#37474f"></polygon><polygon points="145.62 310.88 337.38 310.75 529.13 310.88 337.38 311 145.62 310.88" style="fill:#37474f"></polygon><polygon points="145.62 318.15 337.38 318.02 529.13 318.15 337.38 318.27 145.62 318.15" style="fill:#37474f"></polygon><polygon points="145.62 325.41 337.38 325.29 529.13 325.41 337.38 325.54 145.62 325.41" style="fill:#37474f"></polygon><polygon points="145.62 332.68 337.38 332.56 529.13 332.68 337.38 332.81 145.62 332.68" style="fill:#37474f"></polygon><polygon points="145.62 339.95 337.38 339.82 529.13 339.95 337.38 340.07 145.62 339.95" style="fill:#37474f"></polygon><polygon points="145.62 347.22 337.38 347.09 529.13 347.22 337.38 347.34 145.62 347.22" style="fill:#37474f"></polygon><polygon points="145.62 354.48 337.38 354.36 529.13 354.48 337.38 354.61 145.62 354.48" style="fill:#37474f"></polygon><polygon points="145.62 361.75 337.38 361.63 529.13 361.75 337.38 361.88 145.62 361.75" style="fill:#37474f"></polygon><polygon points="145.62 369.02 337.38 368.89 529.13 369.02 337.38 369.14 145.62 369.02" style="fill:#37474f"></polygon><polygon points="145.62 376.29 337.38 376.16 529.13 376.29 337.38 376.41 145.62 376.29" style="fill:#37474f"></polygon><polygon points="421.78 107.39 421.9 245.47 421.78 383.55 421.66 245.47 421.78 107.39" style="fill:#37474f"></polygon><polygon points="414.51 107.39 414.64 245.47 414.51 383.55 414.39 245.47 414.51 107.39" style="fill:#37474f"></polygon><polygon points="429.05 107.39 429.17 245.47 429.05 383.55 428.92 245.47 429.05 107.39" style="fill:#37474f"></polygon><polygon points="436.32 107.39 436.44 245.47 436.32 383.55 436.19 245.47 436.32 107.39" style="fill:#37474f"></polygon><polygon points="443.58 107.39 443.71 245.47 443.58 383.55 443.46 245.47 443.58 107.39" style="fill:#37474f"></polygon><polygon points="450.85 107.39 450.98 245.47 450.85 383.55 450.73 245.47 450.85 107.39" style="fill:#37474f"></polygon><polygon points="458.12 107.39 458.24 245.47 458.12 383.55 457.99 245.47 458.12 107.39" style="fill:#37474f"></polygon><polygon points="465.38 107.39 465.51 245.47 465.38 383.55 465.26 245.47 465.38 107.39" style="fill:#37474f"></polygon><polygon points="472.65 107.39 472.78 245.47 472.65 383.55 472.53 245.47 472.65 107.39" style="fill:#37474f"></polygon><polygon points="479.92 107.39 480.05 245.47 479.92 383.55 479.8 245.47 479.92 107.39" style="fill:#37474f"></polygon><polygon points="487.19 107.39 487.31 245.47 487.19 383.55 487.06 245.47 487.19 107.39" style="fill:#37474f"></polygon><polygon points="494.45 107.39 494.58 245.47 494.45 383.55 494.33 245.47 494.45 107.39" style="fill:#37474f"></polygon><polygon points="501.72 107.39 501.85 245.47 501.72 383.55 501.6 245.47 501.72 107.39" style="fill:#37474f"></polygon><polygon points="508.99 107.39 509.12 245.47 508.99 383.55 508.87 245.47 508.99 107.39" style="fill:#37474f"></polygon><polygon points="516.26 107.39 516.38 245.47 516.26 383.55 516.13 245.47 516.26 107.39" style="fill:#37474f"></polygon><polygon points="523.52 107.39 523.65 245.47 523.52 383.55 523.4 245.47 523.52 107.39" style="fill:#37474f"></polygon><polygon points="407.25 107.39 407.37 245.47 407.25 383.55 407.12 245.47 407.25 107.39" style="fill:#37474f"></polygon><polygon points="399.98 107.39 400.1 245.47 399.98 383.55 399.85 245.47 399.98 107.39" style="fill:#37474f"></polygon><polygon points="392.71 107.39 392.84 245.47 392.71 383.55 392.59 245.47 392.71 107.39" style="fill:#37474f"></polygon><polygon points="385.44 107.39 385.57 245.47 385.44 383.55 385.32 245.47 385.44 107.39" style="fill:#37474f"></polygon><polygon points="378.18 107.39 378.3 245.47 378.18 383.55 378.05 245.47 378.18 107.39" style="fill:#37474f"></polygon><polygon points="370.91 107.39 371.03 245.47 370.91 383.55 370.78 245.47 370.91 107.39" style="fill:#37474f"></polygon><polygon points="363.64 107.39 363.77 245.47 363.64 383.55 363.52 245.47 363.64 107.39" style="fill:#37474f"></polygon><polygon points="356.37 107.39 356.5 245.47 356.37 383.55 356.25 245.47 356.37 107.39" style="fill:#37474f"></polygon><polygon points="349.11 107.39 349.23 245.47 349.11 383.55 348.98 245.47 349.11 107.39" style="fill:#37474f"></polygon><polygon points="341.84 107.39 341.96 245.47 341.84 383.55 341.71 245.47 341.84 107.39" style="fill:#37474f"></polygon><polygon points="334.57 107.39 334.7 245.47 334.57 383.55 334.45 245.47 334.57 107.39" style="fill:#37474f"></polygon><polygon points="327.31 107.39 327.43 245.47 327.31 383.55 327.18 245.47 327.31 107.39" style="fill:#37474f"></polygon><polygon points="320.04 107.39 320.16 245.47 320.04 383.55 319.91 245.47 320.04 107.39" style="fill:#37474f"></polygon><polygon points="312.77 107.39 312.89 245.47 312.77 383.55 312.64 245.47 312.77 107.39" style="fill:#37474f"></polygon><polygon points="305.5 107.39 305.63 245.47 305.5 383.55 305.38 245.47 305.5 107.39" style="fill:#37474f"></polygon><polygon points="298.24 107.39 298.36 245.47 298.24 383.55 298.11 245.47 298.24 107.39" style="fill:#37474f"></polygon><polygon points="290.97 107.39 291.09 245.47 290.97 383.55 290.84 245.47 290.97 107.39" style="fill:#37474f"></polygon><polygon points="283.7 107.39 283.82 245.47 283.7 383.55 283.58 245.47 283.7 107.39" style="fill:#37474f"></polygon><polygon points="276.43 107.39 276.56 245.47 276.43 383.55 276.31 245.47 276.43 107.39" style="fill:#37474f"></polygon><polygon points="269.17 107.39 269.29 245.47 269.17 383.55 269.04 245.47 269.17 107.39" style="fill:#37474f"></polygon><polygon points="261.9 107.39 262.02 245.47 261.9 383.55 261.77 245.47 261.9 107.39" style="fill:#37474f"></polygon><polygon points="254.63 107.39 254.75 245.47 254.63 383.55 254.51 245.47 254.63 107.39" style="fill:#37474f"></polygon><polygon points="247.36 107.39 247.49 245.47 247.36 383.55 247.24 245.47 247.36 107.39" style="fill:#37474f"></polygon><polygon points="240.1 107.39 240.22 245.47 240.1 383.55 239.97 245.47 240.1 107.39" style="fill:#37474f"></polygon><polygon points="232.83 107.39 232.95 245.47 232.83 383.55 232.7 245.47 232.83 107.39" style="fill:#37474f"></polygon><polygon points="225.56 107.39 225.69 245.47 225.56 383.55 225.44 245.47 225.56 107.39" style="fill:#37474f"></polygon><polygon points="218.29 107.39 218.42 245.47 218.29 383.55 218.17 245.47 218.29 107.39" style="fill:#37474f"></polygon><polygon points="211.03 107.39 211.15 245.47 211.03 383.55 210.9 245.47 211.03 107.39" style="fill:#37474f"></polygon><polygon points="203.76 107.39 203.88 245.47 203.76 383.55 203.63 245.47 203.76 107.39" style="fill:#37474f"></polygon><polygon points="196.49 107.39 196.62 245.47 196.49 383.55 196.37 245.47 196.49 107.39" style="fill:#37474f"></polygon><polygon points="189.22 107.39 189.35 245.47 189.22 383.55 189.1 245.47 189.22 107.39" style="fill:#37474f"></polygon><polygon points="181.96 107.39 182.08 245.47 181.96 383.55 181.83 245.47 181.96 107.39" style="fill:#37474f"></polygon><polygon points="174.69 107.39 174.81 245.47 174.69 383.55 174.56 245.47 174.69 107.39" style="fill:#37474f"></polygon><polygon points="167.42 107.39 167.55 245.47 167.42 383.55 167.3 245.47 167.42 107.39" style="fill:#37474f"></polygon><polygon points="160.15 107.39 160.28 245.47 160.15 383.55 160.03 245.47 160.15 107.39" style="fill:#37474f"></polygon><polygon points="152.89 107.39 153.01 245.47 152.89 383.55 152.76 245.47 152.89 107.39" style="fill:#37474f"></polygon><rect x="335.94" y="107.39" width="2.87" height="276.16" style="fill:#a6a6a6"></rect><rect x="336.77" y="52.89" width="2.87" height="385.17" transform="translate(583.68 -92.73) rotate(90)" style="fill:#a6a6a6"></rect><rect x="145.62" y="81.56" width="477.61" height="25.83" style="fill:#dbdbdb"></rect></g><g id="freepik--3d-figures--inject-71"><path d="M282.24,186.59A30.79,30.79,0,1,1,313,155.8,30.82,30.82,0,0,1,282.24,186.59Zm0-61.07a30.29,30.29,0,1,0,30.28,30.28A30.32,30.32,0,0,0,282.24,125.52Z" style="fill:#ebebeb"></path><rect x="281.99" y="155.8" width="0.5" height="30.53" style="fill:#ebebeb"></rect><rect x="285.16" y="155.47" width="0.5" height="30.53" transform="translate(-29.26 63.07) rotate(-12)" style="fill:#ebebeb"></rect><rect x="288.2" y="154.48" width="0.5" height="30.53" transform="translate(-44.11 131.99) rotate(-24)" style="fill:#ebebeb"></rect><rect x="290.96" y="152.89" width="0.5" height="30.53" transform="translate(-43.22 203.28) rotate(-36)" style="fill:#ebebeb"></rect><polygon points="304.76 176.42 282.07 155.99 282.4 155.62 305.09 176.05 304.76 176.42" style="fill:#ebebeb"></polygon><rect x="295.21" y="148.17" width="0.5" height="30.53" transform="translate(6.19 337.59) rotate(-60)" style="fill:#ebebeb"></rect><rect x="296.51" y="145.25" width="0.5" height="30.53" transform="translate(52.39 393.15) rotate(-72)" style="fill:#ebebeb"></rect><rect x="297.17" y="142.13" width="0.5" height="30.53" transform="translate(109.79 436.74) rotate(-84)" style="fill:#ebebeb"></rect><rect x="282.15" y="153.96" width="30.53" height="0.5" transform="translate(-14.61 32.24) rotate(-6.06)" style="fill:#ebebeb"></rect><rect x="281.49" y="150.84" width="30.53" height="0.5" transform="translate(-32.14 98.95) rotate(-17.97)" style="fill:#ebebeb"></rect><rect x="280.19" y="147.92" width="30.53" height="0.5" transform="translate(-34.49 167.71) rotate(-30.02)" style="fill:#ebebeb"></rect><polygon points="282.4 155.99 282.07 155.62 304.76 135.19 305.09 135.56 282.4 155.99" style="fill:#ebebeb"></polygon><rect x="275.94" y="143.2" width="30.53" height="0.5" transform="translate(3.93 294.63) rotate(-53.98)" style="fill:#ebebeb"></rect><rect x="273.18" y="141.61" width="30.53" height="0.5" transform="translate(41.67 347.83) rotate(-66.04)" style="fill:#ebebeb"></rect><rect x="270.14" y="140.62" width="30.53" height="0.5" transform="translate(88.51 390.94) rotate(-78.05)" style="fill:#ebebeb"></rect><rect x="281.99" y="125.27" width="0.5" height="30.53" style="fill:#ebebeb"></rect><rect x="278.81" y="125.6" width="0.5" height="30.53" transform="translate(-23.19 61.1) rotate(-12)" style="fill:#ebebeb"></rect><rect x="275.78" y="126.59" width="0.5" height="30.53" transform="translate(-33.83 124.54) rotate(-24)" style="fill:#ebebeb"></rect><rect x="273.01" y="128.19" width="0.5" height="30.53" transform="matrix(0.81, -0.59, 0.59, 0.81, -32.13, 188.02)" style="fill:#ebebeb"></rect><rect x="270.64" y="130.32" width="0.5" height="30.53" transform="translate(-18.56 249.49) rotate(-48)" style="fill:#ebebeb"></rect><rect x="268.76" y="132.9" width="0.5" height="30.53" transform="matrix(0.5, -0.87, 0.87, 0.5, 6.19, 307.06)" style="fill:#ebebeb"></rect><rect x="267.47" y="135.82" width="0.5" height="30.53" transform="translate(41.3 359.01) rotate(-72)" style="fill:#ebebeb"></rect><rect x="266.8" y="138.94" width="0.5" height="30.53" transform="translate(85.78 403.68) rotate(-84)" style="fill:#ebebeb"></rect><rect x="251.79" y="157.15" width="30.53" height="0.5" transform="translate(-15.12 29.05) rotate(-6.06)" style="fill:#ebebeb"></rect><rect x="252.45" y="160.27" width="30.53" height="0.5" transform="translate(-36.47 90.45) rotate(-17.97)" style="fill:#ebebeb"></rect><rect x="253.75" y="163.19" width="30.53" height="0.5" transform="translate(-45.68 156.53) rotate(-30.02)" style="fill:#ebebeb"></rect><rect x="255.62" y="165.77" width="30.53" height="0.5" transform="translate(-41.48 224.08) rotate(-42.03)" style="fill:#ebebeb"></rect><rect x="257.99" y="167.91" width="30.53" height="0.5" transform="translate(-23.44 290.29) rotate(-53.98)" style="fill:#ebebeb"></rect><rect x="260.76" y="169.5" width="30.53" height="0.5" transform="translate(8.8 353.04) rotate(-66.04)" style="fill:#ebebeb"></rect><rect x="263.79" y="170.49" width="30.53" height="0.5" transform="translate(54.26 408.41) rotate(-78.05)" style="fill:#ebebeb"></rect><path d="M202.34,230.11a30.74,30.74,0,1,1,30.74-30.74A30.77,30.77,0,0,1,202.34,230.11Zm0-61a30.24,30.24,0,1,0,30.24,30.24A30.27,30.27,0,0,0,202.34,169.13Z" style="fill:#FFAB03"></path><path d="M202.34,226.3a26.93,26.93,0,1,1,26.93-26.93A27,27,0,0,1,202.34,226.3Zm0-53.36a26.43,26.43,0,1,0,26.43,26.43A26.46,26.46,0,0,0,202.34,172.94Z" style="fill:#FFAB03"></path><path d="M202.34,222.49a23.12,23.12,0,1,1,23.12-23.12A23.14,23.14,0,0,1,202.34,222.49Zm0-45.74A22.62,22.62,0,1,0,225,199.37,22.65,22.65,0,0,0,202.34,176.75Z" style="fill:#FFAB03"></path><path d="M202.34,218.68a19.31,19.31,0,1,1,19.3-19.31A19.33,19.33,0,0,1,202.34,218.68Zm0-38.12a18.81,18.81,0,1,0,18.8,18.81A18.83,18.83,0,0,0,202.34,180.56Z" style="fill:#FFAB03"></path><path d="M202.34,214.86a15.49,15.49,0,1,1,15.49-15.49A15.51,15.51,0,0,1,202.34,214.86Zm0-30.48a15,15,0,1,0,15,15A15,15,0,0,0,202.34,184.38Z" style="fill:#FFAB03"></path><path d="M202.34,211.05A11.68,11.68,0,1,1,214,199.37,11.69,11.69,0,0,1,202.34,211.05Zm0-22.86a11.18,11.18,0,1,0,11.18,11.18A11.19,11.19,0,0,0,202.34,188.19Z" style="fill:#FFAB03"></path><path d="M202.34,207.24a7.87,7.87,0,1,1,7.87-7.87A7.88,7.88,0,0,1,202.34,207.24Zm0-15.24a7.37,7.37,0,1,0,7.37,7.37A7.37,7.37,0,0,0,202.34,192Z" style="fill:#FFAB03"></path><path d="M202.34,203.43a4.06,4.06,0,1,1,4.06-4.06A4.06,4.06,0,0,1,202.34,203.43Zm0-7.62a3.56,3.56,0,1,0,3.56,3.56A3.57,3.57,0,0,0,202.34,195.81Z" style="fill:#FFAB03"></path><rect x="202.09" y="199.37" width="0.5" height="30.49" style="fill:#FFAB03"></rect><rect x="204.47" y="199.18" width="0.5" height="30.49" transform="matrix(0.99, -0.16, 0.16, 0.99, -31.02, 34.67)" style="fill:#FFAB03"></rect><rect x="206.8" y="198.62" width="0.5" height="30.49" transform="matrix(0.95, -0.31, 0.31, 0.95, -55.95, 74.45)" style="fill:#FFAB03"></rect><rect x="209.01" y="197.71" width="0.5" height="30.49" transform="translate(-73.87 118.21) rotate(-27)" style="fill:#FFAB03"></rect><rect x="211.05" y="196.46" width="0.5" height="30.49" transform="translate(-84.08 164.63) rotate(-36)" style="fill:#FFAB03"></rect><rect x="212.87" y="194.91" width="0.5" height="30.49" transform="translate(-86.18 212.25) rotate(-45)" style="fill:#FFAB03"></rect><rect x="214.42" y="193.09" width="0.5" height="30.49" transform="translate(-80.05 259.55) rotate(-54)" style="fill:#FFAB03"></rect><rect x="215.67" y="191.05" width="0.5" height="30.49" transform="translate(-65.91 305.02) rotate(-63)" style="fill:#FFAB03"></rect><rect x="216.59" y="188.84" width="0.5" height="30.49" transform="translate(-44.26 347.24) rotate(-72)" style="fill:#FFAB03"></rect><rect x="217.15" y="186.51" width="0.5" height="30.49" transform="translate(-15.88 384.91) rotate(-81)" style="fill:#FFAB03"></rect><rect x="202.34" y="199.12" width="30.49" height="0.5" style="fill:#FFAB03"></rect><rect x="202.15" y="196.73" width="30.49" height="0.5" transform="translate(-28.09 36.37) rotate(-8.98)" style="fill:#FFAB03"></rect><rect x="201.59" y="194.41" width="30.49" height="0.5" transform="translate(-49.49 76.42) rotate(-17.97)" style="fill:#FFAB03"></rect><rect x="200.68" y="192.2" width="30.49" height="0.5" transform="translate(-63.79 118.83) rotate(-26.97)" style="fill:#FFAB03"></rect><rect x="199.43" y="190.16" width="30.49" height="0.5" transform="translate(-70.93 162.64) rotate(-36.02)" style="fill:#FFAB03"></rect><rect x="197.87" y="188.34" width="30.49" height="0.5" transform="translate(-70.93 205.93) rotate(-45)" style="fill:#FFAB03"></rect><rect x="196.05" y="186.79" width="30.49" height="0.5" transform="translate(-64.24 247.95) rotate(-53.98)" style="fill:#FFAB03"></rect><rect x="194.01" y="185.54" width="30.49" height="0.5" transform="translate(-51.22 288.05) rotate(-63.03)" style="fill:#FFAB03"></rect><rect x="191.8" y="184.62" width="30.49" height="0.5" transform="translate(-32.69 324.76) rotate(-72.03)" style="fill:#FFAB03"></rect><rect x="189.48" y="184.06" width="30.49" height="0.5" transform="translate(-9.3 357.74) rotate(-81.02)" style="fill:#FFAB03"></rect><rect x="202.09" y="168.88" width="0.5" height="30.49" style="fill:#FFAB03"></rect><rect x="199.7" y="169.07" width="0.5" height="30.49" transform="translate(-26.37 33.55) rotate(-9)" style="fill:#FFAB03"></rect><rect x="197.38" y="169.63" width="0.5" height="30.49" transform="translate(-47.46 70.12) rotate(-18)" style="fill:#FFAB03"></rect><rect x="195.17" y="170.54" width="0.5" height="30.49" transform="translate(-63.05 108.97) rotate(-27)" style="fill:#FFAB03"></rect><rect x="193.13" y="171.79" width="0.5" height="30.49" transform="translate(-73.01 149.39) rotate(-36)" style="fill:#FFAB03"></rect><rect x="191.31" y="173.35" width="0.5" height="30.49" transform="translate(-77.25 190.69) rotate(-45)" style="fill:#FFAB03"></rect><rect x="189.76" y="175.16" width="0.5" height="30.49" transform="matrix(0.59, -0.81, 0.81, 0.59, -75.72, 232.21)" style="fill:#FFAB03"></rect><rect x="188.51" y="177.2" width="0.5" height="30.49" transform="translate(-68.41 273.26) rotate(-63)" style="fill:#FFAB03"></rect><rect x="187.59" y="179.41" width="0.5" height="30.49" transform="translate(-55.34 313.15) rotate(-72)" style="fill:#FFAB03"></rect><rect x="187.03" y="181.74" width="0.5" height="30.49" transform="translate(-36.58 351.14) rotate(-81)" style="fill:#FFAB03"></rect><rect x="171.85" y="199.12" width="30.49" height="0.5" style="fill:#FFAB03"></rect><rect x="172.04" y="201.5" width="30.49" height="0.5" transform="translate(-29.21 31.72) rotate(-8.98)" style="fill:#FFAB03"></rect><rect x="172.6" y="203.83" width="30.49" height="0.5" transform="translate(-53.81 67.93) rotate(-17.97)" style="fill:#FFAB03"></rect><rect x="173.51" y="206.04" width="30.49" height="0.5" transform="translate(-73.02 108.02) rotate(-26.97)" style="fill:#FFAB03"></rect><rect x="174.76" y="208.08" width="30.49" height="0.5" transform="translate(-86.18 151.56) rotate(-36.02)" style="fill:#FFAB03"></rect><rect x="176.31" y="209.9" width="30.49" height="0.5" transform="translate(-92.49 197) rotate(-45)" style="fill:#FFAB03"></rect><rect x="178.13" y="211.45" width="30.49" height="0.5" transform="translate(-91.57 243.62) rotate(-53.98)" style="fill:#FFAB03"></rect><rect x="180.17" y="212.7" width="30.49" height="0.5" transform="translate(-83 290.56) rotate(-63.03)" style="fill:#FFAB03"></rect><rect x="182.38" y="213.62" width="30.49" height="0.5" transform="translate(-66.79 335.85) rotate(-72.03)" style="fill:#FFAB03"></rect><rect x="184.71" y="214.18" width="30.49" height="0.5" transform="translate(-43.07 378.44) rotate(-81.02)" style="fill:#FFAB03"></rect><circle cx="394.13" cy="199.37" r="30.49" transform="translate(108.49 536.26) rotate(-76.54)" style="fill:#FFAB03"></circle><circle cx="383.8" cy="187.5" r="14.7" style="fill:#fff;opacity:0.15"></circle><circle cx="381.49" cy="184.9" r="10.78" transform="translate(-4.9 359.32) rotate(-50.15)" style="fill:#fff;opacity:0.15"></circle><circle cx="380.16" cy="182.86" r="8.08" style="fill:#fff;opacity:0.15"></circle><path d="M475.23,126.06c-1.52,6.25-3.27,12.4-5.1,18.54s-3.79,12.24-5.78,18.31-4.1,12.14-6.31,18.15c-1.56,4.3-3.16,8.58-4.88,12.83l-.58-.22-.15-.06c1.18-4.41,2.44-8.79,3.75-13.17C458,174.3,460,168.21,462,162.13s4.1-12.13,6.31-18.15S472.72,132,475.23,126.06Z" style="fill:#fff;opacity:0.7000000000000001"></path><path d="M474.25,140.41c-1.25,5.06-2.62,10.07-4,15.08s-2.9,10-4.34,15-3,9.95-4.63,14.91l-2.41,7.41c-.28.81-.54,1.6-.82,2.41-.14,0-.29,0-.43-.09.23-.83.44-1.66.66-2.5l2.08-7.51c1.39-5,2.89-10,4.34-15s3-10,4.63-14.91S472.5,145.32,474.25,140.41Z" style="fill:#fff;opacity:0.5"></path><circle cx="207.93" cy="332.29" r="30.49" style="fill:#FFAB03"></circle><path d="M503.48,189v0a2,2,0,0,1-.12.73.26.26,0,0,1,0,.08,3.23,3.23,0,0,1-.35.66l-.28.36c-.11.11-.22.25-.36.38l-.38.33a14.61,14.61,0,0,1-3.95,2.09l-.36.14a2,2,0,0,1-.26.09,1.45,1.45,0,0,1-.25.09l-.1,0-.34.12a1.76,1.76,0,0,0-.3.1l-.1,0a.55.55,0,0,1-.17.05l-.33.1a1.06,1.06,0,0,1-.19.06h0l-.08,0c-.53.16-1.1.31-1.68.45h-.07c-.3.07-.6.15-.91.21l-1,.22-1.21.24-.91.15c-.73.13-1.48.24-2.27.34a94.33,94.33,0,0,1-15.44.73c-.82,0-1.64-.06-2.45-.11l-1.68-.12-1.3-.11c-1.76-.16-3.47-.36-5.08-.62-.43-.06-.84-.12-1.25-.2-.93-.16-1.84-.35-2.71-.54-.26-.06-.52-.11-.78-.19l-1.09-.28c-.25-.06-.49-.12-.72-.2a1.58,1.58,0,0,1-.31-.09h-.11l0,0h-.09l-.12,0-.41-.12-.12,0a0,0,0,0,1,0,0h0a1,1,0,0,1-.2-.06c-.33-.1-.63-.21-.94-.33a.76.76,0,0,1-.16-.06c-.21-.08-.42-.15-.62-.24a15.37,15.37,0,0,1-2.15-1c-2.53-1.44-3.35-3-2.68-4.45l.08-.18,2.75-6,1.41-3.1c.84-1.86,2-4.33,2.82-6.18l2.83-6.18c.43-.94,1-2.17,1.41-3.09.86-1.86,2-4.34,2.83-6.2s2-4.32,2.82-6.18l1.43-3.09c.84-1.85,2-4.32,2.82-6.19s2-4.32,2.83-6.18c.41-.92,1-2.15,1.41-3.09l2.82-6.18c.84,1.86,2,4.33,2.8,6.2.42.92,1,2.16,1.4,3.09.85,1.86,2,4.33,2.8,6.19s2,4.34,2.82,6.19c.41.93,1,2.17,1.4,3.1.83,1.86,1.95,4.34,2.8,6.19l2.8,6.2,1.4,3.1c.84,1.85,2,4.34,2.81,6.19s1.95,4.34,2.8,6.19c.41.94,1,2.17,1.4,3.11l2.8,6.19h0a.73.73,0,0,1,.07.19,1.34,1.34,0,0,1,.1.38A1.2,1.2,0,0,1,503.48,189Z" style="fill:#ebebeb"></path><path d="M317.06,321H260.71a.52.52,0,0,1,.06-.13l.08-.18c.84-1.83,1.93-4.21,2.74-6,.44-.93,1-2.17,1.42-3.1l2.83-6.18,2.81-6.19c.44-.92,1-2.17,1.42-3.08.86-1.86,2-4.34,2.83-6.2s2-4.33,2.83-6.18c.42-.93,1-2.17,1.42-3.09l2.82-6.19c.85-1.85,2-4.33,2.83-6.18.41-.92,1-2.16,1.41-3.09.84-1.85,2-4.33,2.83-6.18l2.79,6.19,1.41,3.09,2.79,6.19c.84,1.87,2,4.34,2.82,6.2l1.39,3.1c.83,1.85,2,4.34,2.8,6.19s2,4.34,2.81,6.19c.42.94,1,2.17,1.39,3.1.85,1.87,2,4.34,2.82,6.2s1.95,4.34,2.79,6.19c.42.94,1,2.17,1.41,3.11.84,1.85,1.95,4.32,2.79,6.18h0S317.06,320.94,317.06,321Z" style="fill:#ebebeb"></path><g style="isolation:isolate"><path d="M457.63,338.59h-.56c-13.21-.08-24.85-3-28.95-7.4a5.06,5.06,0,0,1-1.61-3.77l.05-.19,31-64.76,30.64,63.22a4.45,4.45,0,0,1,.46,2.15C488.39,333.91,474.79,338.59,457.63,338.59Zm-30.13-11a4.21,4.21,0,0,0,1.34,2.93c3.93,4.17,15.28,7,28.23,7.09,16.35.12,30.35-4.39,30.63-9.8a3.35,3.35,0,0,0-.36-1.67l-29.73-61.35Z" style="fill:#ebebeb"></path><g style="clip-path:url(#freepik--clip-path-2--inject-71)"><g style="isolation:isolate"><path d="M457.19,338.22h-.12c-13.11-.08-24.64-3-28.68-7.29a4.72,4.72,0,0,1-1.51-3.49l0-.05,30.83-64.33Zm-30.06-10.74a4.5,4.5,0,0,0,1.44,3.28c4,4.22,15.38,7.11,28.38,7.21l.52-73.79Z" style="fill:#ebebeb"></path><path d="M457.61,338.22h-.67v-.13l.54-75,.24.5,30.6,64.22v0C488,333.59,474.3,338.22,457.61,338.22Zm-.41-.25h.41c16.53,0,30.12-4.51,30.46-10.13l-30.35-63.68Z" style="fill:#ebebeb"></path><path d="M488.3,328.31l-2-4.12c-4.25-4.07-15.46-6.82-28.19-6.9V317c12.36.07,23.32,2.68,27.91,6.56l-28.56-59.93.23-.1L486.54,324l.28.28a4.75,4.75,0,0,1,1.5,3.5Zm-1.41-3.53,1.16,2.44A4.51,4.51,0,0,0,486.89,324.78Z" style="fill:#ebebeb"></path></g><path d="M457.61,338.22h-.54c-13.11-.08-24.64-3-28.68-7.29a4.72,4.72,0,0,1-1.51-3.49l0-.05,30.7-64.06.12.23,30.18,62.29a4,4,0,0,1,.42,2C488,333.59,474.3,338.22,457.61,338.22Zm-30.48-10.74a4.5,4.5,0,0,0,1.44,3.28c4,4.23,15.45,7.13,28.5,7.21h.54c16.56,0,30.17-4.52,30.46-10.17a3.82,3.82,0,0,0-.39-1.84l-30.08-62Z" style="fill:#ebebeb"></path></g></g><g style="isolation:isolate"><path d="M426.38,329.92l.13-2.5a4.33,4.33,0,0,1,.46-1.73l30.18-62.29.9.43h0Z" style="fill:#ebebeb"></path><g style="clip-path:url(#freepik--clip-path-3--inject-71)"><g style="isolation:isolate"><path d="M426.85,328.06l0-.62a4.9,4.9,0,0,1,1.44-3l29.4-61.34v.54l.53,53.67h-.67c-13.53,0-25.09,3-29,7.2Zm1-2.7a4.39,4.39,0,0,0-.58,1.22Zm29.61-61.2-28.63,59.73c4.4-4,15.66-6.85,28.75-6.85H458Z" style="fill:#ebebeb"></path></g><path d="M426.85,328.06l0-.62a4.07,4.07,0,0,1,.43-1.59l27.16-56.06,3-6.23.23.11Zm5.46-12L427.53,326a3.51,3.51,0,0,0-.24.61Z" style="fill:#ebebeb"></path></g></g><g style="isolation:isolate"><path d="M457.6,264.13l-.68-.16h0l.23-1h0a3.14,3.14,0,0,0,.45,0,2,2,0,0,0,.44,0h0l.24,1h0Z" style="fill:#ebebeb"></path><g style="clip-path:url(#freepik--clip-path-4--inject-71)"><g style="isolation:isolate"><path d="M457.78,263.83l-.4-.17a1.32,1.32,0,0,1-.8-.26.28.28,0,0,1-.09-.21V263l.94.39h.25Z" style="fill:#ebebeb"></path><polygon points="457.57 263.74 457.06 263.62 457.12 263.37 457.63 263.5 457.57 263.74" style="fill:#ebebeb"></polygon><path d="M457.51,263.79l-.08-.37h.34l1-.39v.2c0,.26-.43.4-.88.44Z" style="fill:#ebebeb"></path><polygon points="457.63 263.74 457.57 263.5 458.06 263.38 458.12 263.62 457.63 263.74" style="fill:#ebebeb"></polygon></g><path d="M457.6,263.75l-.58-.14h0l.06-.24h0a2.06,2.06,0,0,0,.52.06,2.51,2.51,0,0,0,.55-.06h0l.06.24Z" style="fill:#ebebeb"></path></g></g><g style="isolation:isolate"><path d="M488.31,325.66c-2.37-4.9-15.34-8.66-30.16-8.74-15.33-.08-28.79,3.66-31.25,8.73l-.9-.43,30.18-62.29c.25-.51,1.08-.57,1.44-.56s1.16.06,1.4.56l30.19,62.28h0Zm-30.72-9.75h.57c12.56.07,23.55,2.68,28.59,6.51l-28.59-59a1.63,1.63,0,0,0-.54-.08,1.89,1.89,0,0,0-.58.08L428.48,322.4C433.58,318.5,444.75,315.91,457.59,315.91Zm.61-52.44Zm-1.12-.1Z" style="fill:#ebebeb"></path><g style="clip-path:url(#freepik--clip-path-5--inject-71)"><g style="isolation:isolate"><path d="M489.28,327.91l-2-4.24c-4.38-4.2-16-7.05-29.11-7.13v-.25c12.77.08,24.08,2.77,28.82,6.79l-28.52-59.84v0c0-.06-.29-.21-.84-.21v-.25a1.49,1.49,0,0,1,1,.27.22.22,0,0,1,.08.16l28.76,60.34a3.83,3.83,0,0,1,.28.29,4.86,4.86,0,0,1,1.56,3.6Zm-1.46-3.66,1.22,2.57A4.87,4.87,0,0,0,487.82,324.25Z" style="fill:#ebebeb"></path><rect x="471.68" y="260.16" width="0.25" height="64.65" transform="translate(-78.66 220.83) rotate(-24.38)" style="fill:#ebebeb"></rect><polygon points="473.9 318.02 458 262.95 458.24 262.88 474.14 317.95 473.9 318.02" style="fill:#ebebeb"></polygon><path d="M425.87,327.64l0-.62a5.06,5.06,0,0,1,1.48-3.12l29.12-60.73c.05-.3.61-.43,1.12-.42V263h0c-.53,0-.84.14-.86.21v0l-28.82,60.13c4.53-4.15,16.17-7.09,29.69-7.09h.56v.25h-.55c-14,0-25.92,3.12-30,7.44Zm1.07-2.82a5.12,5.12,0,0,0-.65,1.36Z" style="fill:#ebebeb"></path><polygon points="430.73 321.65 430.5 321.55 456.65 262.98 456.88 263.08 430.73 321.65" style="fill:#ebebeb"></polygon></g></g></g><g style="isolation:isolate"><g style="isolation:isolate"><rect x="406.35" y="297.81" width="74.11" height="0.25" transform="translate(5.63 604.09) rotate(-68.87)" style="fill:#ebebeb"></rect><polygon points="441.31 336.47 441.07 336.42 456.97 263.47 457.21 263.52 441.31 336.47" style="fill:#ebebeb"></polygon><path d="M457.61,338.14h-.68V338l.53-74.6h.13c.54,0,.86-.15.87-.21l0-.5.21.45,30.61,64.22v0C489,333.37,474.83,338.14,457.61,338.14Zm-.43-.25h.43c17.07,0,31.1-4.65,31.44-10.46l-30.49-64a1.68,1.68,0,0,1-.85.22Z" style="fill:#ebebeb"></path><polygon points="472.94 336.66 457.96 263.52 458.21 263.48 473.19 336.61 472.94 336.66" style="fill:#ebebeb"></polygon><polygon points="484.48 332.88 458.33 263.43 458.56 263.34 484.71 332.79 484.48 332.88" style="fill:#ebebeb"></polygon><path d="M489.28,327.91l-2-4.24c-4.38-4.2-16-7.05-29.11-7.13v-.25c12.77.08,24.08,2.77,28.82,6.79l-28.52-59.84v0c0-.06-.29-.21-.84-.21v-.25a1.49,1.49,0,0,1,1,.27.22.22,0,0,1,.08.16l28.76,60.34a3.83,3.83,0,0,1,.28.29,4.86,4.86,0,0,1,1.56,3.6Zm-1.46-3.66,1.22,2.57A4.87,4.87,0,0,0,487.82,324.25Z" style="fill:#ebebeb"></path></g></g><g style="isolation:isolate"><path d="M457.62,338.59h-.55a76.46,76.46,0,0,1-17.21-1.92l-.57-.14.24-1a78.36,78.36,0,0,0,17.52,2,79.63,79.63,0,0,0,18.63-2l.24,1h0l-.56.14A77.14,77.14,0,0,1,457.62,338.59Z" style="fill:#ebebeb"></path><g style="clip-path:url(#freepik--clip-path-6--inject-71)"><g style="isolation:isolate"><path d="M457.23,338.22h-.16a76.21,76.21,0,0,1-17.44-2c-5.62-1.33-10-3.27-12.18-5.61a4.87,4.87,0,0,1-1.55-3.6v-.18l1.23.53v.08a4.52,4.52,0,0,0,1.44,3.31c2,2.15,6,4,11.11,5.23a79.32,79.32,0,0,0,17.37,1.9h.1Zm-31.09-11a4.72,4.72,0,0,0,1.49,3.24,12.27,12.27,0,0,0,2.67,2.06,11.08,11.08,0,0,1-1.91-1.58,4.75,4.75,0,0,1-1.51-3.4Z" style="fill:#ebebeb"></path><polygon points="441.67 336.69 441.16 336.57 441.22 336.33 441.73 336.45 441.67 336.69" style="fill:#ebebeb"></polygon><path d="M457.61,338.22H457l-.08-.33h.16A79.93,79.93,0,0,0,475.54,336c7.45-1.84,12.36-4.81,12.53-8.18v-.07l1.24-.52v.2c-.19,3.67-5.63,6.89-13.81,8.82A76.09,76.09,0,0,1,457.61,338.22Zm30.71-10.32c-.13,1.77-1.52,3.43-3.88,4.88,2.74-1.52,4.4-3.28,4.6-5.18Z" style="fill:#ebebeb"></path><polygon points="472.61 336.88 472.55 336.63 473.04 336.52 473.1 336.76 472.61 336.88" style="fill:#ebebeb"></polygon></g><path d="M457.62,338.22h-.55A76.82,76.82,0,0,1,440,336.31l-.56-.14h0l.06-.24a79.19,79.19,0,0,0,17.61,2h.56a78.92,78.92,0,0,0,18.16-2l.06.24h0l-.57.14A76.78,76.78,0,0,1,457.62,338.22Z" style="fill:#ebebeb"></path></g></g><g style="isolation:isolate"><path d="M439.86,336.67h0l-.11,0-.46-.11c-8.94-2.16-14-5.63-13.76-9.53l0-.71,2,.83,0,.35c-.16,3.15,4.61,6.28,12.47,8.2l.12,0Z" style="fill:#ebebeb"></path><g style="clip-path:url(#freepik--clip-path-7--inject-71)"><g style="isolation:isolate"><path d="M457.23,338.22h-.16a76.21,76.21,0,0,1-17.44-2c-5.62-1.33-10-3.27-12.18-5.61a4.87,4.87,0,0,1-1.55-3.6v-.18l1.23.53v.08a4.52,4.52,0,0,0,1.44,3.31c2,2.15,6,4,11.11,5.23a79.32,79.32,0,0,0,17.37,1.9h.1Zm-31.09-11a4.72,4.72,0,0,0,1.49,3.24,12.27,12.27,0,0,0,2.67,2.06,11.08,11.08,0,0,1-1.91-1.58,4.75,4.75,0,0,1-1.51-3.4Z" style="fill:#ebebeb"></path><polygon points="430.88 332.87 430.02 332.63 430.09 332.38 430.95 332.63 430.88 332.87" style="fill:#ebebeb"></polygon></g></g></g><g style="isolation:isolate"><path d="M475.35,336.67l-.24-1,.13,0c7.65-1.87,12.3-4.81,12.46-7.88a4.17,4.17,0,0,0-1.34-3c-3.93-4.16-15.27-7-28.23-7.08-16.34-.09-30.35,4.39-30.62,9.8l0,.72-2-.84,0-.35c.32-6.32,14.63-11.21,32.63-11.08,13.63.08,25.63,3.15,29.87,7.63a5.24,5.24,0,0,1,1.65,3.88c-.19,3.72-5.21,7-13.77,9.1l-.44.11-.12,0Zm11-13.3a8.31,8.31,0,0,1,.74.7,5.41,5.41,0,0,1,1.6,3.19,4.39,4.39,0,0,0-1.39-3A8.93,8.93,0,0,0,486.35,323.37Zm-59.79,3.34,0,0a6.34,6.34,0,0,1,2.23-3.34A5.61,5.61,0,0,0,426.56,326.71Z" style="fill:#ebebeb"></path><g style="clip-path:url(#freepik--clip-path-8--inject-71)"><g style="isolation:isolate"><path d="M457.61,338.22H457l-.08-.33h.16A79.93,79.93,0,0,0,475.54,336c7.45-1.84,12.36-4.81,12.53-8.18v-.07l1.24-.52v.2c-.19,3.67-5.63,6.89-13.81,8.82A76.09,76.09,0,0,1,457.61,338.22Zm30.71-10.32c-.13,1.77-1.52,3.43-3.88,4.88,2.74-1.52,4.4-3.28,4.6-5.18Z" style="fill:#ebebeb"></path><polygon points="483.78 333.19 483.72 332.95 484.56 332.71 484.63 332.95 483.78 333.19" style="fill:#ebebeb"></polygon><path d="M488.06,328v-.2a4.47,4.47,0,0,0-1.43-3.3c-4-4.24-15.45-7.13-28.5-7.21H458l0-1h.13c13.53.08,25.42,3.1,29.59,7.52a4.86,4.86,0,0,1,1.56,3.6v.08Zm-29.8-11c13.07.1,24.53,3,28.56,7.28a4.83,4.83,0,0,1,1.51,3.3l.73-.3a4.69,4.69,0,0,0-1.49-3.34c-4.11-4.36-15.88-7.34-29.29-7.44Z" style="fill:#ebebeb"></path><rect x="484.2" y="322.09" width="1.03" height="0.25" transform="translate(-97.32 324.26) rotate(-33.81)" style="fill:#ebebeb"></rect><polygon points="473.61 318.76 473.4 318.61 473.92 317.91 474.12 318.06 473.61 318.76" style="fill:#ebebeb"></polygon><path d="M427.12,327.63l-1.22-.52V327c.3-5.95,14.47-10.73,31.7-10.73h.68l0,1h-.67c-16.56,0-30.17,4.52-30.46,10.16Zm-1-.68.75.31c.56-5.69,14.18-10.22,30.7-10.22H458l0-.5h-.43C440.59,316.54,426.59,321.16,426.15,327Z" style="fill:#ebebeb"></path><polygon points="442.52 318.57 442.04 317.87 442.24 317.73 442.73 318.43 442.52 318.57" style="fill:#ebebeb"></polygon><polygon points="431.38 322.29 430.54 321.7 430.69 321.5 431.53 322.09 431.38 322.29" style="fill:#ebebeb"></polygon></g></g></g><path d="M419.74,355.66A31.27,31.27,0,0,1,407.11,353,31.84,31.84,0,0,1,388,325.42a32,32,0,0,1,63.79-3.95,30.87,30.87,0,0,1,0,4.71,31.54,31.54,0,0,1-15.47,24.9A32.21,32.21,0,0,1,419.74,355.66Zm0-63a31,31,0,1,0,31,33.45l.1-2.45c0-.68,0-1.36-.07-2a29.64,29.64,0,0,0-7.92-18.05l-.54-.57h0a31.36,31.36,0,0,0-22.45-9.49v-.84Z" style="fill:#FFAB03"></path><g style="clip-path:url(#freepik--clip-path-9--inject-71)"><path d="M419.74,355.29a31.07,31.07,0,0,1-12.48-2.61,31.59,31.59,0,1,1,44.13-31.16,31.49,31.49,0,0,1-15.31,29.24A31.93,31.93,0,0,1,419.74,355.29Zm0-63a31.35,31.35,0,1,0,31.36,33.85l.09-2.46c0-.71,0-1.42-.07-2.12a30,30,0,0,0-8-18.23l-.46-.49h0a31.76,31.76,0,0,0-22.81-9.7v-.25a32,32,0,0,1,23.21,10h0l.24.26a31.82,31.82,0,0,1,4.37,6,31.79,31.79,0,0,0-27.92-16.89Z" style="fill:#FFAB03"></path><g style="isolation:isolate"><path d="M451.46,323.81h-.25v-.26a2.19,2.19,0,0,0-.62-1.23c-2.94-3.18-15.63-5.53-30.19-5.59h-.13v-.13c0-12.87-.13-20.91-.29-23.47h-.27V293c.07-.85.12-.93.26-.93s.16,0,.23.81c17.17.25,31.1,13.91,31.25,30.66Zm-30.94-7.34c14.81.07,27.23,2.4,30.25,5.68a3,3,0,0,1,.42.55c-.59-16.22-14.22-29.32-31-29.58.07.92.13,2.63.18,5.81C420.48,303.32,420.52,309.54,420.52,316.47Z" style="fill:#FFAB03"></path><path d="M435.86,297.26l-.25,0a.93.93,0,0,0-.29-.7c-1.48-1.6-7.86-2.78-15.19-2.8v-.25c7.51,0,13.83,1.21,15.37,2.88A1.2,1.2,0,0,1,435.86,297.26Z" style="fill:#FFAB03"></path><path d="M447.16,308.31l-.25,0a1.71,1.71,0,0,0-.53-1.26c-2.53-2.75-13.49-4.78-26.06-4.83V302c12.84.05,23.63,2.07,26.24,4.91A1.89,1.89,0,0,1,447.16,308.31Z" style="fill:#FFAB03"></path><path d="M447.44,320.21h-.25c0-8.63-3.3-16.49-9-21.55a22.92,22.92,0,0,0-18.28-5.54l0-.25a23.19,23.19,0,0,1,18.49,5.61C444.11,303.58,447.44,311.5,447.44,320.21Z" style="fill:#FFAB03"></path><path d="M436.34,317.62h-.25c0-11-3.16-20-8.24-23.52a8.35,8.35,0,0,0-8-1l-.08-.23a8.57,8.57,0,0,1,8.19,1C433.14,297.48,436.34,306.57,436.34,317.62Z" style="fill:#FFAB03"></path><path d="M388.49,323.56h-.25a30.09,30.09,0,0,1,9-21.46,31.61,31.61,0,0,1,22.5-9.22h0c.06-.72.11-.81.24-.81h0c.17,0,.3,0,.42,6.87.08,4.42.12,10.69.12,17.66v.13h-.68C402.79,316.72,388.79,319.76,388.49,323.56Zm31.23-30.44a31.41,31.41,0,0,0-22.33,9.15,29.89,29.89,0,0,0-8.89,20.46c2-3.54,15.37-6.26,31.35-6.26h.42c0-12.93-.14-21-.3-23.42v.07h-.24Z" style="fill:#FFAB03"></path><path d="M404.09,297.13l-.25,0c.16-2,7.16-3.62,16-3.62h.29v.25h-.27C411.42,293.74,404.23,295.28,404.09,297.13Z" style="fill:#FFAB03"></path><path d="M392.79,308.1l-.25,0c.27-3.5,12.47-6.2,27.78-6.13v.25h-.48C405.13,302.2,393.05,304.82,392.79,308.1Z" style="fill:#FFAB03"></path><path d="M404.56,317.5h-.25c0-11.32,3.12-20.46,8.15-23.86a7.66,7.66,0,0,1,7.44-.76l-.1.23a7.45,7.45,0,0,0-7.21.73C407.64,297.2,404.56,306.26,404.56,317.5Z" style="fill:#FFAB03"></path><path d="M393.07,320h-.25c0-8.81,3.32-16.77,9.12-21.83a22.32,22.32,0,0,1,17.93-5.29l0,.25a22,22,0,0,0-17.72,5.23C396.36,303.36,393.07,311.25,393.07,320Z" style="fill:#FFAB03"></path><path d="M419.42,330.88h-.12c-14.86-.06-27.35-2.39-30.37-5.68a2.18,2.18,0,0,1-.69-1.66,30.09,30.09,0,0,1,9-21.45,31.61,31.61,0,0,1,22.5-9.22H420V293c-.3,3.91-.55,20.84-.55,37.76Zm.29-37.76a31.41,31.41,0,0,0-22.32,9.15,29.84,29.84,0,0,0-8.9,21.28,1.94,1.94,0,0,0,.62,1.48c2.93,3.18,15.56,5.53,30.06,5.6C419.18,313.94,419.42,297.25,419.71,293.12Z" style="fill:#FFAB03"></path><path d="M419.57,300.88c-7.51,0-13.83-1.21-15.37-2.88a1.16,1.16,0,0,1-.36-.89l.25,0a.93.93,0,0,0,.29.7c1.47,1.6,7.86,2.78,15.19,2.8Z" style="fill:#FFAB03"></path><path d="M419.37,314.43c-12.83-.05-23.62-2.07-26.23-4.91a1.86,1.86,0,0,1-.6-1.44l.25,0a1.71,1.71,0,0,0,.53,1.26c2.53,2.74,13.49,4.77,26.06,4.82Z" style="fill:#FFAB03"></path><path d="M392.51,327.14h-.25c0-17,12.37-32.35,27.57-34.27l0,.25C404.78,295,392.51,310.29,392.51,327.14Z" style="fill:#FFAB03"></path><path d="M403.61,329.73h-.25c0-17,7.38-33.5,16.45-36.85l.08.23C410.92,296.43,403.61,312.86,403.61,329.73Z" style="fill:#FFAB03"></path><path d="M419.85,330.88h-.68v-.12c0-16.93.25-33.87.55-37.77v-.12h.12c17.43.07,31.61,13.94,31.61,30.93C451.15,327.74,437,330.88,419.85,330.88Zm-.43-.25h.44c17.05,0,31.05-3,31.35-6.84,0-16.8-14-30.54-31.24-30.67C419.67,297.22,419.43,313.92,419.42,330.63Z" style="fill:#FFAB03"></path><path d="M419.86,300.88h-.29v-.25h.27c8.44,0,15.63-1.54,15.77-3.39l.25,0C435.7,299.3,428.7,300.88,419.86,300.88Z" style="fill:#FFAB03"></path><path d="M419.87,314.43h-.49v-.25h.48c14.71,0,26.79-2.62,27.05-5.89l.25,0C446.89,311.76,435,314.43,419.87,314.43Z" style="fill:#FFAB03"></path><path d="M435.39,329.85h-.25c0-16.87-6.88-33.35-15.34-36.74l.1-.23C428.44,296.3,435.39,312.89,435.39,329.85Z" style="fill:#FFAB03"></path><path d="M446.88,327.36h-.25c0-16.86-12-32.22-26.8-34.24l0-.25C434.76,294.91,446.88,310.38,446.88,327.36Z" style="fill:#FFAB03"></path><path d="M420,354.48h-.27v-.14c.31-3.9.55-20.83.55-37.75v-.12h.13c14.86.06,27.35,2.39,30.37,5.68a2.18,2.18,0,0,1,.69,1.65,30.09,30.09,0,0,1-9,21.46A31.63,31.63,0,0,1,420,354.48Zm.54-37.76c0,16.69-.24,33.37-.54,37.51a31.41,31.41,0,0,0,22.33-9.15,29.84,29.84,0,0,0,8.9-21.28h0a2,2,0,0,0-.62-1.48C447.66,319.14,435,316.79,420.52,316.72Z" style="fill:#FFAB03"></path><path d="M447.16,339.27l-.25,0a1.71,1.71,0,0,0-.53-1.26c-2.53-2.74-13.49-4.77-26.06-4.82v-.25c12.84.05,23.63,2.07,26.24,4.91A1.86,1.86,0,0,1,447.16,339.27Z" style="fill:#FFAB03"></path><path d="M435.86,350.24l-.25,0a.93.93,0,0,0-.29-.7c-1.48-1.6-7.86-2.78-15.19-2.8v-.25c7.51,0,13.83,1.21,15.37,2.88A1.2,1.2,0,0,1,435.86,350.24Z" style="fill:#FFAB03"></path><path d="M419.87,354.48l0-.25c15.09-1.9,27.36-17.17,27.36-34h.25C447.44,337.18,435.07,352.56,419.87,354.48Z" style="fill:#FFAB03"></path><path d="M419.89,354.47l-.08-.23c9-3.32,16.28-19.75,16.28-36.62h.25C436.34,334.59,429,351.12,419.89,354.47Z" style="fill:#FFAB03"></path><path d="M420,354.48h-.11c-17.43-.07-31.61-13.94-31.61-30.93.31-4,14.73-7.14,32.16-7.08h.12v.12c0,16.92-.24,33.87-.55,37.77Zm-.13-37.76c-17,0-31,3-31.34,6.84,0,16.8,14,30.54,31.24,30.67.3-4.1.54-20.8.54-37.51Z" style="fill:#FFAB03"></path><path d="M392.79,339.06l-.25,0c.27-3.49,12.47-6.19,27.78-6.12v.25h-.48C405.13,333.17,393.05,335.79,392.79,339.06Z" style="fill:#FFAB03"></path><path d="M404.09,350.11l-.25,0c.16-2,7.16-3.63,16-3.63h.29v.25h-.27C411.42,346.71,404.23,348.26,404.09,350.11Z" style="fill:#FFAB03"></path><path d="M419.8,354.47c-8.54-3.42-15.49-20-15.49-37h.25c0,16.87,6.88,33.35,15.34,36.74Z" style="fill:#FFAB03"></path><path d="M419.83,354.48c-14.89-2-27-17.51-27-34.49h.25c0,16.86,12,32.22,26.8,34.24Z" style="fill:#FFAB03"></path><path d="M419.73,355.29h0c-.08,0-.16,0-.23-.81-17.17-.26-31.1-13.91-31.25-30.66v-.28h.25v.26a2.13,2.13,0,0,0,.62,1.22c2.94,3.19,15.63,5.54,30.19,5.6h.12v.13c0,12.86.14,20.91.3,23.47H420v.13C419.91,355.19,419.87,355.29,419.73,355.29Zm-31.22-30.64c.59,16.22,14.22,29.32,31,29.58-.07-.92-.13-2.63-.18-5.81-.08-4.39-.12-10.62-.13-17.54-14.8-.07-27.22-2.4-30.24-5.68A3,3,0,0,1,388.51,324.65Z" style="fill:#FFAB03"></path><path d="M419.38,345.4c-12.84,0-23.63-2.07-26.24-4.91a1.89,1.89,0,0,1-.6-1.45l.25,0a1.71,1.71,0,0,0,.53,1.26c2.53,2.75,13.49,4.78,26.06,4.83Z" style="fill:#FFAB03"></path><path d="M419.57,353.86c-7.51,0-13.83-1.21-15.37-2.88a1.17,1.17,0,0,1-.36-.89l.25,0a.93.93,0,0,0,.29.7c1.47,1.6,7.86,2.77,15.19,2.8Z" style="fill:#FFAB03"></path><path d="M416.75,354.68a23,23,0,0,1-15.37-5.81c-5.79-5.1-9.12-13-9.12-21.73h.25c0,8.63,3.3,16.49,9,21.55a22.88,22.88,0,0,0,18.28,5.54l0,.25A25.39,25.39,0,0,1,416.75,354.68Z" style="fill:#FFAB03"></path><path d="M416.67,355.07a8.59,8.59,0,0,1-5-1.62c-5.14-3.58-8.34-12.67-8.34-23.72h.25c0,11,3.16,20,8.24,23.52a8.35,8.35,0,0,0,8,1l.08.23A9.25,9.25,0,0,1,416.67,355.07Z" style="fill:#FFAB03"></path><path d="M419.73,355.29h0c-.17,0-.3,0-.42-6.87-.08-4.42-.13-10.69-.13-17.66v-.13h.69c17.05,0,31.05-3,31.35-6.84h.25a30.09,30.09,0,0,1-9,21.46,31.63,31.63,0,0,1-22.5,9.22h0C419.91,355.2,419.86,355.29,419.73,355.29Zm-.31-24.41c0,12.92.15,21,.31,23.42v-.07H420a31.41,31.41,0,0,0,22.33-9.15,29.89,29.89,0,0,0,8.89-20.46c-2,3.54-15.37,6.26-31.35,6.26Z" style="fill:#FFAB03"></path><path d="M419.87,345.4h-.49v-.25h.48c14.71,0,26.79-2.62,27.05-5.9l.25,0C446.89,342.73,435,345.4,419.87,345.4Z" style="fill:#FFAB03"></path><path d="M419.86,353.86h-.29v-.25h.27c8.44,0,15.63-1.54,15.77-3.39l.25,0C435.7,352.28,428.7,353.86,419.86,353.86Z" style="fill:#FFAB03"></path><path d="M422.9,355.1a8.26,8.26,0,0,1-3.1-.63l.1-.23a7.43,7.43,0,0,0,7.2-.73c5-3.36,8-12.42,8-23.66h.25c0,11.32-3.12,20.46-8.15,23.86A7.65,7.65,0,0,1,422.9,355.1Z" style="fill:#FFAB03"></path><path d="M423.06,354.7a23.69,23.69,0,0,1-3.23-.22l0-.25A22,22,0,0,0,437.59,349c5.75-5,9-12.9,9-21.64h.25c0,8.81-3.33,16.77-9.12,21.83A22.2,22.2,0,0,1,423.06,354.7Z" style="fill:#FFAB03"></path></g></g><path d="M487.34,326.12h0c-2.3-4.73-14.85-8.37-29.21-8.45-14.82-.1-27.88,3.54-30.26,8.45l-.9-.43h0l30.63-63.21,30.64,63.22h0Zm-29.75-9.46h.55c12.13.07,22.75,2.58,27.65,6.27L457.6,264.77l-28.17,58.14C434.4,319.15,445.2,316.66,457.59,316.66Z" style="fill:#ebebeb"></path><g style="clip-path:url(#freepik--clip-path--inject-71)"><g style="isolation:isolate"><path d="M488.3,328.31l-2-4.12c-4.25-4.07-15.46-6.82-28.19-6.9V317c12.36.07,23.32,2.68,27.91,6.56l-28.56-59.93.23-.1L486.54,324l.28.28a4.75,4.75,0,0,1,1.5,3.5Zm-1.41-3.53,1.16,2.44A4.51,4.51,0,0,0,486.89,324.78Z" style="fill:#ebebeb"></path><rect x="470.82" y="260.74" width="0.25" height="64.65" transform="translate(-78.98 220.53) rotate(-24.38)" style="fill:#ebebeb"></rect><path d="M426.85,328.06l0-.62a4.9,4.9,0,0,1,1.44-3l29.17-60.85.23.1-28.87,60.22c4.4-4,15.66-6.85,28.75-6.85h.54v.25h-.55c-13.53,0-25.09,3-29,7.2Zm1-2.7a4.39,4.39,0,0,0-.58,1.22Z" style="fill:#ebebeb"></path><polygon points="442.74 318.54 442.5 318.47 457.48 263.59 457.72 263.65 442.74 318.54" style="fill:#ebebeb"></polygon></g><path d="M487.68,326h0c-2.39-4.93-14.81-8.57-29.53-8.66h-.53c-14.79,0-27.67,3.7-30.08,8.67l-.22-.11,27.16-56.06,3-6.23.11-.23.12.23,30.18,62.28h0ZM457.58,317h.56c13.42.08,25,3.13,28.82,7.43L457.6,263.91l-2.9,6-26.44,54.56C432.18,320.06,443.88,317,457.58,317Z" style="fill:#ebebeb"></path></g></g></svg>