<svg xmlns="http://www.w3.org/2000/svg" viewBox="0 0 500 500"><g id="freepik--Window--inject-40"><rect x="79.9" y="126.14" width="346.19" height="236.41" style="fill:#fff"></rect><rect x="79.9" y="152.54" width="273.5" height="210.01" style="fill:#263238"></rect><circle cx="91.22" cy="139.86" r="2.74" style="fill:#263238"></circle><circle cx="100.5" cy="139.86" r="2.74" style="fill:#263238"></circle><circle cx="109.79" cy="139.86" r="2.74" style="fill:#263238"></circle><path d="M226,362.55c-.15,0-.26-47.11-.26-105.2s.11-105.21.26-105.21.26,47.09.26,105.21S226.12,362.55,226,362.55Z" style="fill:#455a64"></path><path d="M258.12,362.55c-.14,0-.26-47.11-.26-105.2s.12-105.21.26-105.21.26,47.09.26,105.21S258.26,362.55,258.12,362.55Z" style="fill:#455a64"></path><path d="M290.26,362.55c-.14,0-.26-47.11-.26-105.2s.12-105.21.26-105.21.26,47.09.26,105.21S290.41,362.55,290.26,362.55Z" style="fill:#455a64"></path><path d="M322.41,362.55c-.15,0-.26-47.11-.26-105.2s.11-105.21.26-105.21.26,47.09.26,105.21S322.55,362.55,322.41,362.55Z" style="fill:#455a64"></path><path d="M112.53,363.12c-.14,0-.26-47.15-.26-105.29s.12-105.29.26-105.29.26,47.13.26,105.29S112.67,363.12,112.53,363.12Z" style="fill:#455a64"></path><path d="M144.67,363.12c-.14,0-.26-47.15-.26-105.29s.12-105.29.26-105.29.26,47.13.26,105.29S144.82,363.12,144.67,363.12Z" style="fill:#455a64"></path><path d="M176.82,363.12c-.15,0-.26-47.15-.26-105.29s.11-105.29.26-105.29.26,47.13.26,105.29S177,363.12,176.82,363.12Z" style="fill:#455a64"></path><path d="M393.74,181.82c0,.15-70.26.26-156.91.26S79.9,182,79.9,181.82s70.25-.26,156.93-.26S393.74,181.68,393.74,181.82Z" style="fill:#455a64"></path><path d="M393.74,222.32c0,.14-70.26.26-156.91.26s-156.93-.12-156.93-.26,70.25-.26,156.93-.26S393.74,222.18,393.74,222.32Z" style="fill:#455a64"></path><path d="M393.74,276c0,.14-70.26.26-156.91.26S79.9,276.11,79.9,276s70.25-.26,156.93-.26S393.74,275.83,393.74,276Z" style="fill:#455a64"></path><path d="M393.74,307.33c0,.14-70.26.26-156.91.26s-156.93-.12-156.93-.26,70.25-.26,156.93-.26S393.74,307.18,393.74,307.33Z" style="fill:#455a64"></path><path d="M393.74,338.69c0,.14-70.26.26-156.91.26s-156.93-.12-156.93-.26,70.25-.26,156.93-.26S393.74,338.54,393.74,338.69Z" style="fill:#455a64"></path><rect x="275.79" y="176.3" width="15.74" height="50.7" style="fill:#03E5E5"></rect><path d="M292.3,220.1a61.76,61.76,0,0,1-8.09.26,61.76,61.76,0,0,1-8.09-.26,63.93,63.93,0,0,1,8.09-.26A63.93,63.93,0,0,1,292.3,220.1Z" style="fill:#263238"></path><path d="M292.3,191a61.76,61.76,0,0,1-8.09.26,61.76,61.76,0,0,1-8.09-.26,63.93,63.93,0,0,1,8.09-.26A63.93,63.93,0,0,1,292.3,191Z" style="fill:#263238"></path><rect x="113.08" y="194.56" width="63.43" height="17.11" style="fill:#03E5E5"></rect><path d="M129.13,211.67a69.26,69.26,0,0,1-.26-8.42,69.26,69.26,0,0,1,.26-8.42,66.91,66.91,0,0,1,.26,8.42A66.91,66.91,0,0,1,129.13,211.67Z" style="fill:#263238"></path><path d="M161.77,211.67a66.91,66.91,0,0,1-.26-8.42,66.91,66.91,0,0,1,.26-8.42,69.26,69.26,0,0,1,.26,8.42A69.26,69.26,0,0,1,161.77,211.67Z" style="fill:#263238"></path><path d="M177.32,339.75H112v-73.7h65.29Zm-64.29-1h63.29v-71.7H113Z" style="fill:#03E5E5"></path><path d="M169,330.32H120.36V275.47H169Zm-47.62-1H168V276.47H121.36Z" style="fill:#03E5E5"></path><path d="M422.71,244.34c0,.15-76.75.26-171.4.26s-171.41-.11-171.41-.26,76.73-.26,171.41-.26S422.71,244.2,422.71,244.34Z" style="fill:#fafafa"></path><rect x="353.4" y="152.14" width="72.7" height="210.41" style="fill:#e0e0e0"></rect><path d="M201.54,363.12c-.14,0-.26-47.15-.26-105.29s.12-105.29.26-105.29.26,47.13.26,105.29S201.68,363.12,201.54,363.12Z" style="fill:#fafafa"></path><rect x="251.91" y="276.14" width="15.32" height="53.36" style="fill:#03E5E5"></rect><g style="opacity:0.4"><rect x="251.91" y="276.14" width="15.32" height="53.36"></rect></g><path d="M244.1,264.54V339h67V264.54ZM300,329.49H254.87V276.14H300Z" style="fill:#03E5E5"></path><rect x="311.08" y="264.54" width="12.25" height="74.48" style="fill:#03E5E5"></rect><g style="opacity:0.4"><rect x="311.08" y="264.54" width="12.25" height="74.48"></rect></g><path d="M311.08,264.54a63.28,63.28,0,0,1-5.35,6,63,63,0,0,1-5.73,5.62,61.87,61.87,0,0,1,5.35-6A61.33,61.33,0,0,1,311.08,264.54Z" style="fill:#263238"></path><path d="M254.87,276.14a61.84,61.84,0,0,1-5.57-5.63,60.58,60.58,0,0,1-5.2-6,60.17,60.17,0,0,1,5.58,5.62A59,59,0,0,1,254.87,276.14Z" style="fill:#263238"></path><path d="M256.2,265.9c-.09.1-.5-.11-.91-.49s-.65-.77-.55-.87.5.11.91.49S256.3,265.79,256.2,265.9Z" style="fill:#263238"></path><path d="M262.58,271.82c-.1.1-.89-.48-1.77-1.29s-1.52-1.57-1.42-1.67.89.47,1.77,1.29S262.67,271.71,262.58,271.82Z" style="fill:#263238"></path><path d="M267.23,276.14c-.1.1-.51-.12-.91-.49s-.66-.77-.56-.88.51.12.91.49S267.33,276,267.23,276.14Z" style="fill:#263238"></path><path d="M244.1,339a50.35,50.35,0,0,1,5.21-5,52.34,52.34,0,0,1,5.56-4.57,49.13,49.13,0,0,1-5.21,5A51.2,51.2,0,0,1,244.1,339Z" style="fill:#263238"></path><path d="M311.08,339a52.24,52.24,0,0,1-5.71-4.57,51.72,51.72,0,0,1-5.37-5,52.61,52.61,0,0,1,5.71,4.57A51.72,51.72,0,0,1,311.08,339Z" style="fill:#263238"></path><path d="M314.52,332.1c-.09.11-.84-.38-1.68-1.1s-1.44-1.4-1.35-1.51.85.39,1.69,1.11S314.62,332,314.52,332.1Z" style="fill:#263238"></path><path d="M320.59,337.32c-.09.11-.85-.39-1.69-1.11s-1.44-1.39-1.34-1.5.85.39,1.68,1.11S320.68,337.21,320.59,337.32Z" style="fill:#263238"></path><path d="M300,329.49c0,.15-10.17.26-22.71.26s-22.72-.11-22.72-.26,10.17-.26,22.72-.26S300,329.35,300,329.49Z" style="fill:#263238"></path><path d="M311,339.09c-.14,0-.26-16.62-.26-37.11s.12-37.11.26-37.11.26,16.61.26,37.11S311.12,339.09,311,339.09Z" style="fill:#263238"></path><path d="M254.87,276.65c.14,0,.26,11.82.26,26.39s-.12,26.39-.26,26.39-.26-11.82-.26-26.39S254.72,276.65,254.87,276.65Z" style="fill:#263238"></path><path d="M254.86,274.65c.14,0,.26.45.26,1s-.11,1-.25,1-.26-.45-.27-1S254.72,274.65,254.86,274.65Z" style="fill:#263238"></path><path d="M254.78,269.24c.14,0,.27.6.28,1.35s-.09,1.35-.23,1.36-.27-.6-.29-1.35S254.64,269.25,254.78,269.24Z" style="fill:#263238"></path><path d="M254.74,264.54c.14,0,.26.45.26,1s-.11,1-.25,1-.27-.45-.27-1S254.6,264.54,254.74,264.54Z" style="fill:#263238"></path><path d="M265.58,330.7c-.09-.11.2-.48.65-.81s.92-.51,1-.32-.23.42-.68.74S265.67,330.82,265.58,330.7Z" style="fill:#263238"></path><path d="M259.43,335.54c-.09-.11.52-.75,1.37-1.42s1.6-1.13,1.69-1-.52.75-1.37,1.43S259.51,335.65,259.43,335.54Z" style="fill:#263238"></path><path d="M254.8,339.25c-.09-.12.19-.49.62-.83s.85-.54.94-.43-.18.49-.61.83S254.89,339.36,254.8,339.25Z" style="fill:#263238"></path><ellipse cx="254.8" cy="330.22" rx="0.26" ry="1" style="fill:#263238"></ellipse><path d="M254.8,335.24c-.14,0-.26-.45-.26-1s.12-1,.26-1,.26.45.26,1S255,335.24,254.8,335.24Z" style="fill:#263238"></path><ellipse cx="254.8" cy="338.25" rx="0.26" ry="1" style="fill:#263238"></ellipse><path d="M303.79,276.25c0,.15-.89.26-2,.26s-2-.11-2-.26a7.82,7.82,0,0,1,4,0Z" style="fill:#263238"></path><path d="M311.79,276.25c0,.15-.89.26-2,.26s-2-.11-2-.26a7.82,7.82,0,0,1,4,0Z" style="fill:#263238"></path><path d="M319.79,276.25c0,.15-.89.26-2,.26s-2-.11-2-.26a7.82,7.82,0,0,1,4,0Z" style="fill:#263238"></path><path d="M313.87,273.42c.1.1-.45.82-1.23,1.6s-1.5,1.33-1.6,1.23.45-.82,1.23-1.6S313.77,273.32,313.87,273.42Z" style="fill:#263238"></path><path d="M319.53,267.77c.1.1-.45.81-1.23,1.59s-1.5,1.34-1.6,1.23.45-.81,1.23-1.59S319.42,267.66,319.53,267.77Z" style="fill:#263238"></path><path d="M322.57,264.72c.1.11.13.24.08.3s-.19,0-.3-.08-.13-.23-.07-.29S322.47,264.62,322.57,264.72Z" style="fill:#263238"></path><path d="M303.71,329.09a7.82,7.82,0,0,1-4,0,7.82,7.82,0,0,1,4,0Z" style="fill:#263238"></path><path d="M311.71,329.09a7.82,7.82,0,0,1-4,0,7.82,7.82,0,0,1,4,0Z" style="fill:#263238"></path><path d="M319.71,329.09a7.82,7.82,0,0,1-4,0,7.82,7.82,0,0,1,4,0Z" style="fill:#263238"></path><path d="M324,329.09c0,.14-.06.26-.14.26s-.14-.12-.14-.26.06-.26.14-.26S324,329,324,329.09Z" style="fill:#263238"></path><rect x="358.84" y="157.92" width="61.76" height="12.65" style="fill:#ebebeb"></rect><rect x="358.84" y="175.5" width="61.76" height="29.72" style="fill:#ebebeb"></rect><rect x="358.84" y="252.78" width="61.76" height="29.72" style="fill:#ebebeb"></rect><rect x="358.84" y="208.54" width="61.76" height="9.46" style="fill:#ebebeb"></rect><rect x="358.84" y="234.22" width="61.76" height="9.46" style="fill:#ebebeb"></rect><rect x="358.84" y="287.89" width="61.76" height="9.46" style="fill:#ebebeb"></rect><rect x="358.84" y="221.37" width="30.17" height="9.24" style="fill:#ebebeb"></rect><rect x="390.43" y="221.37" width="30.17" height="9.24" style="fill:#ebebeb"></rect><path d="M426.1,152.54c0,.14-77.51.26-173.09.26s-173.11-.12-173.11-.26,77.49-.26,173.11-.26S426.1,152.39,426.1,152.54Z" style="fill:#263238"></path><path d="M426.1,362.55c0-1.71-.09-92.51-.21-236.41l.21.21-346.17.05h0l.26-.26c0,84.36,0,164.53,0,236.41l-.24-.24,346.2.24-346.2.24h-.24v-.24c0-71.88,0-152,0-236.41v-.26h.29l346.17.05h.21v.21C426.18,270,426.1,360.84,426.1,362.55Z" style="fill:#263238"></path></g><g id="freepik--Character--inject-40"><path d="M394.21,402l16.08-29.67.2,27.18-6,17.44,59.74,10.36,2.54-47.14,4.3-36.2a9.85,9.85,0,0,0-6.16-10.31l-16.45-6.47-23.15,4.24L416,335A25.64,25.64,0,0,0,405.83,342l-26.45,45.3" style="fill:#03E5E5"></path><path d="M409.94,398.36c-.14,0-.18-9.42-.08-21s.28-21,.42-21,.18,9.42.08,21S410.08,398.36,409.94,398.36Z" style="fill:#263238"></path><path d="M412.13,405.27l36.1-14.54a8.24,8.24,0,0,0,5.14-7L456,349.1s-.31-14.72,8.89-15.44l5.23,2.06c6.76,3.59,8.43,13.43,7.51,21-1.31,10.8-1.85,26.08-3.31,35.45-1.2,7.67-5.59,14.41-13.09,16.39l-44.47,9.62Z" style="fill:#03E5E5"></path><path d="M455.5,354.38a4.22,4.22,0,0,0-.12.79c-.05.56-.13,1.32-.23,2.28-.18,2-.44,4.88-.76,8.39s-.67,7.78-1.07,12.46q-.15,1.76-.3,3.6a27.53,27.53,0,0,1-.47,3.7,6.12,6.12,0,0,1-1.79,3.24,12.32,12.32,0,0,1-3.33,2.08c-10,4.3-19.13,7.86-25.79,10.35l-7.91,2.92-2.15.79a5.06,5.06,0,0,0-.74.31,5.52,5.52,0,0,0,.78-.22l2.18-.71c1.89-.62,4.61-1.56,8-2.77,6.7-2.41,15.89-5.91,25.87-10.23a12.69,12.69,0,0,0,3.46-2.17,6.57,6.57,0,0,0,1.92-3.48,26.54,26.54,0,0,0,.46-3.77c.1-1.23.2-2.43.29-3.61.36-4.68.69-8.9,1-12.46s.46-6.37.61-8.41c.06-1,.11-1.72.14-2.28A6,6,0,0,0,455.5,354.38Z" style="fill:#263238"></path><path d="M476.18,373.19a1.62,1.62,0,0,0-.07.47c0,.36-.07.8-.12,1.33-.11,1.24-.25,2.9-.43,4.91s-.45,4.54-.81,7.27a68.94,68.94,0,0,1-1.63,8.76,13,13,0,0,1-1.76,4.18,24.37,24.37,0,0,1-2.7,3.32,23.11,23.11,0,0,1-5.77,4.33,22,22,0,0,1-6.34,2.08,2.38,2.38,0,0,0,.47,0,11.07,11.07,0,0,0,1.33-.18,17.54,17.54,0,0,0,4.69-1.58,22.75,22.75,0,0,0,5.94-4.33,23.83,23.83,0,0,0,2.77-3.36,13.43,13.43,0,0,0,1.84-4.32,65.61,65.61,0,0,0,1.6-8.84c.34-2.73.56-5.21.71-7.29s.23-3.76.28-4.93c0-.53,0-1,0-1.34A1.43,1.43,0,0,0,476.18,373.19Z" style="fill:#263238"></path><path d="M460.74,397.41a5.26,5.26,0,0,0-.65-1.92,12.48,12.48,0,0,0-7.33-6.26,5.3,5.3,0,0,0-2-.35,16,16,0,0,0,1.89.68,14,14,0,0,1,7.13,6.09C460.4,396.71,460.67,397.44,460.74,397.41Z" style="fill:#263238"></path><g style="opacity:0.30000000000000004"><path d="M422.5,401.14c3.86-2.18,7.64-3.86,11.68-5.69s8-4.19,10.63-7.75c5-6.71,4.41-16.41,9.51-23q-.49,6.68-1,13.36c-.3,4.09.32,8.13-2.31,10.9-2.21,2.34-6.54,4.13-9.59,5.14-6.15,2-12.77,5-18.92,7.07"></path></g><path d="M477.21,348.26c0,.15-16.88.41-37.7.59s-37.7.22-37.71.08,16.88-.41,37.71-.6S477.21,348.12,477.21,348.26Z" style="fill:#f5f5f5"></path><path d="M477.84,351.42c0,.14-17.33.41-38.71.6s-38.72.23-38.72.08,17.33-.41,38.71-.6S477.84,351.28,477.84,351.42Z" style="fill:#f5f5f5"></path><path d="M474,393.78c-.06.06-1-.9-2.59-2.26a32.51,32.51,0,0,0-6.94-4.42,33.26,33.26,0,0,0-7.85-2.5c-2.08-.37-3.4-.44-3.39-.53a3,3,0,0,1,.93,0,20.65,20.65,0,0,1,2.52.21,29,29,0,0,1,8,2.39,28.66,28.66,0,0,1,7,4.61,19.63,19.63,0,0,1,1.79,1.8C473.83,393.49,474,393.76,474,393.78Z" style="fill:#f5f5f5"></path><path d="M474.65,387.9c0,.07-1-.7-2.73-1.76A34.92,34.92,0,0,0,457.3,381c-2-.23-3.23-.25-3.23-.33a2.57,2.57,0,0,1,.87-.09,20.77,20.77,0,0,1,2.4,0,30.08,30.08,0,0,1,14.78,5.18,22.82,22.82,0,0,1,1.9,1.45C474.45,387.65,474.67,387.87,474.65,387.9Z" style="fill:#f5f5f5"></path><path d="M359.77,452s-30.2,8.36-31.41,8.79c-1.82.64-1.52,7.3,1.31,7.2,1.34-.05,23.2.81,26,.64s11.09-3.46,11.09-3.46Z" style="fill:#03E5E5"></path><path d="M347.19,463.54a29.08,29.08,0,0,0-1.33-3.25,27.07,27.07,0,0,0-2.14-2.78,6.7,6.7,0,0,1,3.47,6Z" style="fill:#263238"></path><path d="M350.34,462.11c-.15,0-.45-1.41-1.26-3s-1.75-2.69-1.64-2.79a7.62,7.62,0,0,1,2.9,5.77Z" style="fill:#263238"></path><path d="M353.29,461.32a19.94,19.94,0,0,0-.7-3.2,20.61,20.61,0,0,0-1.65-2.82,4.62,4.62,0,0,1,2.12,2.64A4.55,4.55,0,0,1,353.29,461.32Z" style="fill:#263238"></path><path d="M352.76,457.41a5.26,5.26,0,0,1-.33-2.24,11.31,11.31,0,0,1,.31-2.47,10.77,10.77,0,0,1,.45-1.4,1.77,1.77,0,0,1,.48-.74.81.81,0,0,1,1,.05,1.32,1.32,0,0,1,.4.86,5.29,5.29,0,0,1,0,.79,7,7,0,0,1-.18,1.48,9.32,9.32,0,0,1-.93,2.31,6.26,6.26,0,0,1-1.36,1.82c-.07-.05.44-.75,1-2a9.67,9.67,0,0,0,.79-2.25,6.78,6.78,0,0,0,.15-1.38c0-.46,0-1-.28-1.27a.3.3,0,0,0-.4,0,1.24,1.24,0,0,0-.33.53,11.08,11.08,0,0,0-.46,1.33,12.25,12.25,0,0,0-.4,2.36C352.7,456.55,352.84,457.4,352.76,457.41Z" style="fill:#263238"></path><path d="M352.79,457.11a4.17,4.17,0,0,1,1.95-.32,8.88,8.88,0,0,1,2.15.27,4.4,4.4,0,0,1,1.23.45,1.27,1.27,0,0,1,.68,1.38,1.51,1.51,0,0,1-1.08,1.08,3,3,0,0,1-1.36,0,5.28,5.28,0,0,1-2-1,5.57,5.57,0,0,1-1.41-1.38,11.33,11.33,0,0,1,1.61,1.09,5.47,5.47,0,0,0,1.86.8,2.36,2.36,0,0,0,1.12,0,1,1,0,0,0,.73-.71.79.79,0,0,0-.45-.85,4.48,4.48,0,0,0-1.09-.42,9.55,9.55,0,0,0-2-.36C353.55,457.07,352.81,457.19,352.79,457.11Z" style="fill:#263238"></path><path d="M342.55,463.86a15.88,15.88,0,0,0-.6-2.73,15.71,15.71,0,0,0-1.48-2.36,3.49,3.49,0,0,1,1.95,2.17A3.53,3.53,0,0,1,342.55,463.86Z" style="fill:#263238"></path><path d="M363.63,465.25a5.85,5.85,0,0,1-1.17.55,23.9,23.9,0,0,1-3.36,1,47.75,47.75,0,0,1-11.54,1.1c-4.52-.05-8.6-.26-11.56-.38l-3.5-.18a6.05,6.05,0,0,1-1.28-.14,7.32,7.32,0,0,1,1.29-.06l3.5,0,11.56.22A54,54,0,0,0,359,466.5C361.9,465.9,363.59,465.16,363.63,465.25Z" style="fill:#263238"></path><path d="M364.52,465.94c0,.07-.87-.41-2.26-1a10.46,10.46,0,0,0-5.72-.95,8.94,8.94,0,0,0-4.94,2.94,18.89,18.89,0,0,1-1.74,1.77,9.39,9.39,0,0,1,1.48-2,11.86,11.86,0,0,1,2-1.87,7.06,7.06,0,0,1,3.12-1.32,10,10,0,0,1,6,1.12A8.12,8.12,0,0,1,364.52,465.94Z" style="fill:#263238"></path><path d="M391.84,443.67s28.58,18.71,29.6,19.49c1.54,1.16-.22,6.7-2.89,5.74-1.26-.45-25.25-7.12-27.82-8.13s-9.53-6.66-9.53-6.66Z" style="fill:#03E5E5"></path><path d="M400.32,458.47a5.51,5.51,0,0,1,1.92-3.06,5.3,5.3,0,0,1,3.22-1.62,25.25,25.25,0,0,0-2.88,2A29.38,29.38,0,0,0,400.32,458.47Z" style="fill:#263238"></path><path d="M397.76,456.16a5.7,5.7,0,0,1,1.74-2.82,5.76,5.76,0,0,1,2.77-1.8c.08.14-1.18.89-2.41,2.16S397.89,456.23,397.76,456.16Z" style="fill:#263238"></path><path d="M395.18,454.5a4.64,4.64,0,0,1,1.25-3.14,4.59,4.59,0,0,1,2.82-1.87,20.34,20.34,0,0,0-2.43,2.19A21.83,21.83,0,0,0,395.18,454.5Z" style="fill:#263238"></path><path d="M396.88,451c-.08,0,.31-.81.65-2.14a12.53,12.53,0,0,0,.33-2.37,11.22,11.22,0,0,0,0-1.41,1.29,1.29,0,0,0-.16-.6.29.29,0,0,0-.39-.09c-.32.13-.49.69-.65,1.12a7.65,7.65,0,0,0-.28,1.36,9.58,9.58,0,0,0,.08,2.38c.2,1.36.46,2.18.38,2.21a6.12,6.12,0,0,1-.74-2.15,9,9,0,0,1-.18-2.48,6.44,6.44,0,0,1,.27-1.46,5.22,5.22,0,0,1,.28-.75,1.33,1.33,0,0,1,.64-.69.81.81,0,0,1,1,.26,1.74,1.74,0,0,1,.23.86,10.34,10.34,0,0,1,0,1.47,11.16,11.16,0,0,1-.46,2.44A5.23,5.23,0,0,1,396.88,451Z" style="fill:#263238"></path><path d="M396.94,450.65c0,.07-.71-.27-1.86-.55a9.76,9.76,0,0,0-2.05-.28,4.55,4.55,0,0,0-1.17.07.79.79,0,0,0-.69.67,1,1,0,0,0,.49.91,2.3,2.3,0,0,0,1.06.35,5.33,5.33,0,0,0,2-.2,12.29,12.29,0,0,1,1.86-.55,5.31,5.31,0,0,1-1.76.89,5.17,5.17,0,0,1-2.16.33,2.82,2.82,0,0,1-1.29-.41,1.5,1.5,0,0,1-.71-1.36,1.27,1.27,0,0,1,1.07-1.11,4.94,4.94,0,0,1,1.31-.06,9.53,9.53,0,0,1,2.12.4A4.27,4.27,0,0,1,396.94,450.65Z" style="fill:#263238"></path><path d="M414.91,467.86s-.48-.29-.7-1.11a4.22,4.22,0,0,1,.53-3.1,13.14,13.14,0,0,1,1-1.43,5.45,5.45,0,0,1,1-1,1.69,1.69,0,0,1,.92-.38c.24,0,.36.05.35.08a2.6,2.6,0,0,0-1,.57,7.27,7.27,0,0,0-.82,1.05,15.94,15.94,0,0,0-.89,1.39,4.44,4.44,0,0,0-.63,2.79C414.66,467.42,415,467.81,414.91,467.86Z" style="fill:#263238"></path><path d="M404.65,460.19a4.32,4.32,0,0,1,3.52-4.22,15.84,15.84,0,0,0-2.13,1.81A15.43,15.43,0,0,0,404.65,460.19Z" style="fill:#263238"></path><path d="M384.14,455.12a9,9,0,0,1,1.26.86,33.73,33.73,0,0,0,3.52,2.16,47.78,47.78,0,0,0,5.6,2.49c2.17.81,4.59,1.57,7.16,2.31,5.14,1.48,9.8,2.84,13.16,3.85l4,1.22a10.12,10.12,0,0,1,1.44.51,9.16,9.16,0,0,1-1.5-.32l-4-1.07c-3.39-.92-8.05-2.22-13.2-3.7-2.57-.75-5-1.53-7.18-2.36a40.91,40.91,0,0,1-5.61-2.62,27.78,27.78,0,0,1-3.47-2.31A8.24,8.24,0,0,1,384.14,455.12Z" style="fill:#263238"></path><path d="M383.08,455.5a8.27,8.27,0,0,1,2.43-.64,10,10,0,0,1,6,.73,7.09,7.09,0,0,1,2.57,2.21,12.08,12.08,0,0,1,1.34,2.39,9.29,9.29,0,0,1,.8,2.38,16.3,16.3,0,0,1-1.12-2.23,9.07,9.07,0,0,0-3.82-4.3,10.58,10.58,0,0,0-5.73-.83C384,455.37,383.1,455.58,383.08,455.5Z" style="fill:#263238"></path><path d="M332.44,398s-8.58,3.06-8.62,12.67c-.06,18.42,37.22,38.72,37.22,38.72l49.61-32.87,3.11-1.26S346.79,390.14,332.44,398Z" style="fill:#263238"></path><path d="M385.52,433.15a8.58,8.58,0,0,1-1.29-.87c-.82-.59-2-1.47-3.4-2.56-2.84-2.2-6.7-5.31-10.86-8.88s-7.82-6.92-10.42-9.4c-1.3-1.23-2.34-2.25-3-3a9.86,9.86,0,0,1-1.07-1.15,9.1,9.1,0,0,1,1.2,1l3.15,2.85c2.66,2.41,6.36,5.71,10.51,9.28s8,6.71,10.76,9l3.29,2.68A11,11,0,0,1,385.52,433.15Z" style="fill:#455a64"></path><path d="M346.44,404.91a9.82,9.82,0,0,1,4.78.44,9.64,9.64,0,0,1,4.25,2.23c-.08.13-1.89-1-4.39-1.75S346.44,405.07,346.44,404.91Z" style="fill:#455a64"></path><path d="M350.71,402a7.5,7.5,0,0,1,4.49,5.55c-.14.05-.69-1.49-1.94-3S350.64,402.14,350.71,402Z" style="fill:#455a64"></path><path d="M329.71,460.32c0-.05.59-.17,1.28.39a4.64,4.64,0,0,1,1.43,2.88,5.7,5.7,0,0,1-.45,3.18c-.35.75-.74,1.1-.78,1.07s.2-.47.45-1.21a6.48,6.48,0,0,0,.28-3,5,5,0,0,0-1.17-2.68C330.22,460.43,329.7,460.41,329.71,460.32Z" style="fill:#263238"></path><polygon points="343.85 367.94 361.52 412.73 437.6 413.97 439.01 409.86 412.34 408.89 399.53 369.15 343.85 367.94" style="fill:#455a64"></polygon><path d="M379.38,387.33a3.4,3.4,0,0,0-3.66.39A3,3,0,0,0,375,391a3.19,3.19,0,0,0,2.75,1.92,2.88,2.88,0,0,0,2.91-1.92,3.25,3.25,0,0,0-1.28-3.63" style="fill:#ebebeb"></path><path d="M356.34,451.66s70.1-46,73-46.93,9.8-5.51,16.74-3.59,13.15,8.13,16.26,17.22c1.78,5.19,2.62,14.05,3,20.7A30.74,30.74,0,0,1,458.14,461a19.58,19.58,0,0,1-8.74,6.2,22.84,22.84,0,0,1-2.27.59,33,33,0,0,1-34.32-14.4l-1.63-2.49s-45.86,16.84-46.57,16.6Z" style="fill:#263238"></path><path d="M443.06,439a4.09,4.09,0,0,1-.38.17l-1.15.46-4.45,1.71-16.51,6.22c-7,2.62-15.42,5.73-24.85,9.16s-19.88,7.19-31,11l-.21.07-.1-.19-5.47-10.46-2.79-5.33-.11-.21.19-.12,53.47-33.94,16.06-10.13,4.37-2.73,1.13-.69c.26-.16.4-.23.4-.23s-.12.1-.37.27l-1.11.74-4.32,2.8-16,10.26-53.38,34.07.08-.33,2.8,5.34,5.47,10.46-.3-.12c11.15-3.77,21.6-7.52,31-10.92l24.88-9.05L437,441.17l4.48-1.63,1.16-.41Z" style="fill:#455a64"></path><path d="M411.84,300.72a16.59,16.59,0,0,1,1.74-25.81,33,33,0,0,1,7-3.4,12.62,12.62,0,0,1,5.68-1.27c1.32.11,2.56.64,3.87.77,1.66.16,3.31-.31,5-.31a8.86,8.86,0,0,1,6.88,3.41c2.44,3.2,2.64,8,5.87,10.39.61.45,1.34.85,1.56,1.57a1.88,1.88,0,0,1-.93,2,5.52,5.52,0,0,1-2.24.63,4.33,4.33,0,0,1,2.19,3.18c0,1.34-1.5,2.65-2.65,2a2.44,2.44,0,0,1,2.18,2.55,3.2,3.2,0,0,1-2.24,2.72,4.7,4.7,0,0,1-3.62-.46" style="fill:#263238"></path><path d="M449.41,286.07c-.22-.72-1-1.12-1.56-1.57-3.23-2.39-3.43-7.19-5.87-10.39a8.86,8.86,0,0,0-6.88-3.41c-1.67,0-3.32.47-5,.31-1.31-.13-2.55-.66-3.87-.77a12.62,12.62,0,0,0-5.68,1.27,33,33,0,0,0-7,3.4c-4.06,2.83-8.07,12.11-5.53,16.35s2.17,6.82,5.81,10.17l28.24-2.78a4.7,4.7,0,0,0,3.62.46,3.2,3.2,0,0,0,2.24-2.72,2.53,2.53,0,0,0-1.49-2.39,2.17,2.17,0,0,0,2-2.13,4.33,4.33,0,0,0-2.19-3.18,5.52,5.52,0,0,0,2.24-.63A1.88,1.88,0,0,0,449.41,286.07Z" style="fill:#263238"></path><path d="M443.69,290.69l5.15,37.45a11.23,11.23,0,0,1-10.16,12.73h0a11.25,11.25,0,0,1-12.12-9.68c-.38-2.82-.71-5.17-.77-5.46,0,0-9.65.41-11.64-8.93-1-4.51-2.18-14-3.19-22.54a17.78,17.78,0,0,1,14.19-19.5l.9-.18C435.91,273.2,442.59,280.8,443.69,290.69Z" style="fill:#ffbe9d"></path><path d="M425.75,325.6a22.19,22.19,0,0,0,11.51-5.91S435.72,327,426.21,328Z" style="fill:#eb996e"></path><path d="M415.16,300.92a1.37,1.37,0,0,0,1.56,1.09,1.31,1.31,0,0,0,1.14-1.48,1.37,1.37,0,0,0-1.56-1.09A1.31,1.31,0,0,0,415.16,300.92Z" style="fill:#263238"></path><path d="M413.89,298.46c.2.14,1.07-.81,2.51-1.1s2.63.23,2.76,0-.18-.37-.7-.62a3.79,3.79,0,0,0-2.25-.23,3.62,3.62,0,0,0-1.95,1.09C413.88,298.05,413.8,298.39,413.89,298.46Z" style="fill:#263238"></path><path d="M429.36,298.67a1.37,1.37,0,0,0,1.56,1.09,1.31,1.31,0,0,0,1.14-1.48,1.38,1.38,0,0,0-1.56-1.1A1.3,1.3,0,0,0,429.36,298.67Z" style="fill:#263238"></path><path d="M428.09,295.9c.2.14,1.07-.81,2.5-1.1s2.64.23,2.76,0-.17-.37-.69-.62a3.81,3.81,0,0,0-2.26-.23,3.7,3.7,0,0,0-1.95,1.09C428.08,295.49,428,295.84,428.09,295.9Z" style="fill:#263238"></path><path d="M425,307.61a9.71,9.71,0,0,0-2.42.05c-.38,0-.74,0-.85-.21a1.86,1.86,0,0,1,0-1.14c.17-.95.34-2,.53-3,.71-4.29,1.15-7.78,1-7.81s-.89,3.43-1.6,7.71c-.17,1.06-.33,2.06-.48,3a2.19,2.19,0,0,0,.1,1.48.93.93,0,0,0,.71.42,2.13,2.13,0,0,0,.64,0A9,9,0,0,0,425,307.61Z" style="fill:#263238"></path><path d="M429.43,307.76c-.23,0,.08,1.6-1,3s-2.81,1.54-2.78,1.76.43.23,1.14.11a4,4,0,0,0,2.34-1.38,3.42,3.42,0,0,0,.77-2.47C429.79,308.08,429.54,307.73,429.43,307.76Z" style="fill:#263238"></path><path d="M426.59,290.33c.22.37,1.62-.11,3.35-.24s3.19.05,3.34-.34c.07-.19-.24-.51-.87-.78a5.87,5.87,0,0,0-5.1.45C426.74,289.79,426.49,290.16,426.59,290.33Z" style="fill:#263238"></path><path d="M413.59,294.19c.32.27,1.24-.27,2.43-.52s2.25-.22,2.41-.61c.07-.18-.16-.48-.66-.7a3.44,3.44,0,0,0-2.09-.14,3.5,3.5,0,0,0-1.81,1C413.52,293.68,413.45,294.05,413.59,294.19Z" style="fill:#263238"></path><path d="M444.31,297.78c.15-.1,6.05-3.19,7.13,3.25s-5.62,6.19-5.66,6S444.31,297.78,444.31,297.78Z" style="fill:#ffbe9d"></path><path d="M447.34,304.27s.13.06.33.12a1.12,1.12,0,0,0,.84-.13,2.79,2.79,0,0,0,.87-2.7,3.7,3.7,0,0,0-.58-1.56,1.31,1.31,0,0,0-1-.72.59.59,0,0,0-.61.42c-.05.2,0,.32,0,.33s-.16-.08-.15-.36a.68.68,0,0,1,.18-.44.87.87,0,0,1,.6-.27,1.6,1.6,0,0,1,1.34.8,3.86,3.86,0,0,1,.68,1.73,2.94,2.94,0,0,1-1.17,3.06,1.22,1.22,0,0,1-1.05,0C447.38,304.42,447.32,304.29,447.34,304.27Z" style="fill:#eb996e"></path><path d="M409.11,285.57c1.1,2.38,6.79,3.3,11,2,3.84-1.16,5.23-3.6,7.67-5.73,1.55-1.34,1.55-1.34,4.07-1.6,2-.21,3.68,1.82,5.22,3.17-.86,5.12,1.42,10.19,3.64,14.88a2.58,2.58,0,0,0,1,1.33c.87.43,1.92-.25,2.44-1.07a8.12,8.12,0,0,0,.9-4.52,26.65,26.65,0,0,0-2.14-10.37,18.23,18.23,0,0,0-6.73-8.07,17.3,17.3,0,0,0-12.81-2.12,21.33,21.33,0,0,0-11.24,6.74,12.48,12.48,0,0,0-3,5.32" style="fill:#263238"></path><path d="M422.21,301.14s0-.56-.29-1.5a6.23,6.23,0,0,0-2.28-3.31,6.06,6.06,0,0,0-5.7-.82,5.89,5.89,0,0,0-2.77,2.1,6,6,0,0,0,0,7.06,5.89,5.89,0,0,0,2.77,2.1,6.05,6.05,0,0,0,5.7-.82,6.23,6.23,0,0,0,2.28-3.31c.26-.95.24-1.5.29-1.5a1.17,1.17,0,0,1,0,.4,4.73,4.73,0,0,1-.13,1.15,6.22,6.22,0,0,1-2.26,3.55,6.38,6.38,0,0,1-6.08,1,6.31,6.31,0,0,1-3-2.25,6.43,6.43,0,0,1,9.1-8.93,6.19,6.19,0,0,1,2.26,3.55,4.68,4.68,0,0,1,.13,1.15A1.17,1.17,0,0,1,422.21,301.14Z" style="fill:#263238"></path><path d="M437.5,298.47c-.06,0,0-.56-.3-1.5a6.23,6.23,0,0,0-2.28-3.31,6.05,6.05,0,0,0-5.7-.82,5.89,5.89,0,0,0-2.77,2.1,6,6,0,0,0,0,7.06,5.89,5.89,0,0,0,2.77,2.1,6.05,6.05,0,0,0,5.7-.82A6.18,6.18,0,0,0,437.2,300c.26-.94.24-1.5.3-1.5a2.12,2.12,0,0,1,0,.4,4.68,4.68,0,0,1-.13,1.15,6.22,6.22,0,0,1-2.25,3.55,6.45,6.45,0,1,1,0-10.2,6.19,6.19,0,0,1,2.26,3.55,4.68,4.68,0,0,1,.13,1.15A2.12,2.12,0,0,1,437.5,298.47Z" style="fill:#263238"></path><path d="M424.91,298.69c-.07.13-.89-.26-1.84,0s-1.43,1-1.55,1,0-.28.18-.6a2.3,2.3,0,0,1,2.72-.82C424.78,298.44,424.94,298.63,424.91,298.69Z" style="fill:#263238"></path><path d="M446.15,296.82a39.8,39.8,0,0,1-9.17-.13,20.68,20.68,0,0,1,4.59-.19A20.4,20.4,0,0,1,446.15,296.82Z" style="fill:#263238"></path><path d="M435.1,270.7c0,.11-1.59,0-4.09.21a14.15,14.15,0,0,0-4.25,1,11.27,11.27,0,0,0-4.22,3.2A21.52,21.52,0,0,0,418.4,284a4.65,4.65,0,0,0,.27,2.86c.3.63.6.9.56.93s-.37-.2-.74-.84a4.62,4.62,0,0,1-.45-3,20.4,20.4,0,0,1,4.1-9.06,11.35,11.35,0,0,1,4.43-3.31,13.93,13.93,0,0,1,4.4-1,22.77,22.77,0,0,1,3,0A5.64,5.64,0,0,1,435.1,270.7Z" style="fill:#455a64"></path><path d="M425.61,270.33a11.28,11.28,0,0,0-3.16.82,10.28,10.28,0,0,0-5.05,5.77,18.27,18.27,0,0,0-.71,7.84c.21,2,.46,3.29.38,3.31a2.75,2.75,0,0,1-.28-.86c-.14-.56-.31-1.38-.46-2.41a17,17,0,0,1,.57-8.06,10.2,10.2,0,0,1,5.4-5.92,6.65,6.65,0,0,1,2.41-.56A2.5,2.5,0,0,1,425.61,270.33Z" style="fill:#455a64"></path><path d="M447.41,288.6a3.42,3.42,0,0,1-1.82.24,9.52,9.52,0,0,1-4.23-1.34,17,17,0,0,1-3.45-2.77,5.82,5.82,0,0,1-1.17-1.41,7.37,7.37,0,0,1,1.42,1.14,23.46,23.46,0,0,0,3.46,2.59,10.81,10.81,0,0,0,4,1.42C446.71,288.61,447.4,288.52,447.41,288.6Z" style="fill:#455a64"></path><path d="M447.4,283.63a3.83,3.83,0,0,1-2.9.33,9.51,9.51,0,0,1-3-1.18c-1-.59-2.11-1.35-3.3-2a9.5,9.5,0,0,0-6.65-.76,20.11,20.11,0,0,0-2.68,1s.19-.22.62-.49a7.66,7.66,0,0,1,2-.88,9.26,9.26,0,0,1,7,.65c1.25.64,2.3,1.41,3.31,2a10,10,0,0,0,2.82,1.23A6.84,6.84,0,0,0,447.4,283.63Z" style="fill:#455a64"></path><path d="M444.51,279.34a9.16,9.16,0,0,1-.63-1.14,11.07,11.07,0,0,0-2-2.84,4.73,4.73,0,0,0-2-1.13,5.93,5.93,0,0,0-2.69,0,11.37,11.37,0,0,0-5.41,3.07,52,52,0,0,0-4.26,4.79,26,26,0,0,1-3.75,3.75,11,11,0,0,1-3.12,1.74,6.76,6.76,0,0,1-.94.26c-.22,0-.34.05-.34,0a13.34,13.34,0,0,0,4.17-2.32,27.54,27.54,0,0,0,3.61-3.77,47.93,47.93,0,0,1,4.27-4.86,11.65,11.65,0,0,1,5.68-3.16,6.41,6.41,0,0,1,2.9.08,5.09,5.09,0,0,1,2.17,1.29,9.84,9.84,0,0,1,1.94,3A5,5,0,0,1,444.51,279.34Z" style="fill:#e0e0e0"></path></g></svg>